<?xml version="1.0" encoding="UTF-8" standalone="no"?>
<svg
   xmlns:dc="http://purl.org/dc/elements/1.1/"
   xmlns:cc="http://creativecommons.org/ns#"
   xmlns:rdf="http://www.w3.org/1999/02/22-rdf-syntax-ns#"
   xmlns:svg="http://www.w3.org/2000/svg"
   xmlns="http://www.w3.org/2000/svg"
   xmlns:sodipodi="http://sodipodi.sourceforge.net/DTD/sodipodi-0.dtd"
   xmlns:inkscape="http://www.inkscape.org/namespaces/inkscape"
   id="Fundação"
   width="212.41"
   height="47.34"
   viewBox="0 0 212.41001 47.34"
   version="1.1"
   sodipodi:docname="07_logotipo_web_ciencia_EN_50px-01.svg"
   inkscape:version="0.92.5 (2060ec1f9f, 2020-04-08)">
  <metadata
     id="metadata27">
    <rdf:RDF>
      <cc:Work
         rdf:about="">
        <dc:format>image/svg+xml</dc:format>
        <dc:type
           rdf:resource="http://purl.org/dc/dcmitype/StillImage" />
      </cc:Work>
    </rdf:RDF>
  </metadata>
  <sodipodi:namedview
     pagecolor="#ffffff"
     bordercolor="#666666"
     borderopacity="1"
     objecttolerance="10"
     gridtolerance="10"
     guidetolerance="10"
     inkscape:pageopacity="0"
     inkscape:pageshadow="2"
     inkscape:window-width="1920"
     inkscape:window-height="968"
     id="namedview25"
     showgrid="false"
     inkscape:zoom="0.97972784"
     inkscape:cx="176.09"
     inkscape:cy="25"
     inkscape:window-x="0"
     inkscape:window-y="27"
     inkscape:window-maximized="1"
     inkscape:current-layer="Fundação" />
  <defs
     id="defs4">
    <style
       id="style2">.cls-1{fill:#000000;}</style>
  </defs>
  <title
     id="title6">07_logotipo_web_ciencia_EN_50px</title>
  <path
     class="cls-1"
     d="m 196.61,19.93 h 2.12 v -14 l 13.68,14.79 V 1.22 h -2.12 V 15.43 L 196.61,0.49 Z M 185.9,5.41 l 3,6.88 h -6 z m 0,-4.92 -8.48,19.44 h 2.41 l 2.43,-5.73 h 7.31 l 2.43,5.73 h 2.41 z M 173,19.93 h 2.23 V 1.22 H 173 Z m -15.36,0 h 2.2 V 9.86 l 8.43,10.07 h 2.88 l -8.85,-10.28 8,-8.43 h -2.67 l -7.85,8.32 V 1.22 h -2.2 z m -19.62,0 h 2.12 v -14 l 13.68,14.79 V 1.22 H 151.7 V 15.43 L 138,0.49 Z m -13.51,0 h 9.87 v -2.06 h -7.64 V 10.7 h 7.64 V 8.63 h -7.64 V 3.26 h 7.64 v -2 h -9.87 z m -14.57,0 h 3.9 c 2.67,0 4.5,-0.07 5.86,-1.41 a 5.53,5.53 0 0 0 1.54,-3.9 c 0,-2.51 -1.38,-4.26 -3.58,-4.6 a 3.73,3.73 0 0 0 2.74,-3.88 4.84,4.84 0 0 0 -1.88,-4 c -1.18,-0.87 -2.67,-1 -4.71,-1 h -3.9 z m 2.17,-8.76 h 2.38 a 5.37,5.37 0 0 1 2.85,0.49 3.17,3.17 0 0 1 1.55,3 3.35,3.35 0 0 1 -1.26,2.68 c -0.81,0.58 -2,0.63 -3.82,0.63 h -1.73 z m 0,-8 h 1.73 c 3,0 4.31,0.55 4.31,3.24 0,2.28 -1.3,3 -4.31,3 h -1.73 z M 97.84,19.93 h 9.29 v -2.12 h -7.06 V 1.22 H 97.84 Z M 79.45,1.22 v 11.65 c 0,5 2.38,7.56 7.25,7.56 4.87,0 7.24,-2.51 7.24,-7.56 V 1.22 h -2.25 v 11.65 c 0,3.74 -1.51,5.49 -5,5.49 -3.49,0 -5,-1.75 -5,-5.49 V 1.22 Z m -10.68,9.06 v 2 h 5.34 a 6.47,6.47 0 0 1 -6.75,6.15 c -4.27,0 -7.33,-3.17 -7.33,-7.65 0,-4.73 3,-7.95 7.33,-7.95 a 6.59,6.59 0 0 1 6,3.4 L 75.21,4.74 C 73.46,2.1 70.82,0.81 67.21,0.81 a 9.3,9.3 0 0 0 -6.58,2.43 9.91,9.91 0 0 0 -3,7.53 9.34,9.34 0 0 0 4.81,8.57 9.84,9.84 0 0 0 4.71,1.1 c 5.7,0 9.34,-3.56 9.34,-9.52 v -0.63 z"
     id="path8"
     inkscape:connector-curvature="0"
     style="fill:#000000" />
  <path
     class="cls-1"
     d="m 147.51,46.17 h 9.86 V 44.1 h -7.64 v -7.17 h 7.64 v -2.06 h -7.64 V 29.5 h 7.64 v -2 h -9.86 z m -3.27,-14.23 v -2.91 a 10.58,10.58 0 0 0 -6.15,-2 9.62,9.62 0 0 0 -7,2.75 9.41,9.41 0 0 0 -2.93,7.14 9.48,9.48 0 0 0 4.21,8 9.6,9.6 0 0 0 5.52,1.73 10.77,10.77 0 0 0 6.31,-2 v -3 a 7.83,7.83 0 0 1 -6.13,3 7.6,7.6 0 0 1 -6.3,-3.33 7.42,7.42 0 0 1 -1.29,-4.42 7.57,7.57 0 0 1 7.49,-7.8 8,8 0 0 1 6.23,2.86 m -34.11,14.21 h 2.12 v -14 l 13.68,14.78 V 27.46 h -2.12 V 41.67 L 110.09,26.73 Z m -13.43,0 h 9.87 V 44.1 h -7.64 v -7.17 h 7.64 V 34.87 H 98.89 V 29.5 h 7.64 v -2 h -9.87 z m -6,0 h 2.22 V 27.46 H 90.7 Z M 86.88,31.94 v -2.91 a 10.58,10.58 0 0 0 -6.15,-2 9.62,9.62 0 0 0 -7,2.75 9.41,9.41 0 0 0 -2.93,7.14 9.48,9.48 0 0 0 4.21,8 9.6,9.6 0 0 0 5.52,1.73 10.77,10.77 0 0 0 6.31,-2 v -3 a 7.81,7.81 0 0 1 -6.12,3 7.62,7.62 0 0 1 -6.27,-3.31 7.41,7.41 0 0 1 -1.28,-4.42 7.55,7.55 0 0 1 7.48,-7.8 8,8 0 0 1 6.23,2.86 M 65.68,35.82 63,34.61 c -1.7,-0.74 -2.51,-1.68 -2.51,-3 a 2.67,2.67 0 0 1 2.85,-2.72 3.59,3.59 0 0 1 3.17,2.14 l 1.83,-1.18 A 5,5 0 0 0 63.5,27.03 c -3.11,0 -5.26,2 -5.26,4.6 0,2.28 1.2,3.9 3.69,4.95 l 2.28,1 c 1.93,0.83 2.9,2.06 2.9,3.74 a 3.44,3.44 0 0 1 -3.74,3.48 c -1.88,0 -3.17,-1.18 -3.72,-3.46 l -2,1 a 5.5,5.5 0 0 0 5.73,4.34 c 3.61,0 6,-2.3 6,-5.73 0,-2.35 -1.23,-4.08 -3.69,-5.13"
     id="path10"
     inkscape:connector-curvature="0"
     style="fill:#000000" />
  <path
     class="cls-1"
     d="M 24.34,47.34 C 10.69,47.34 0,37.14 0,24.12 0,10.14 10.24,0 24.34,0 c 8.78,0 15.52,3.48 20,10.35 l -2,1.28 c -4.08,-6.24 -9.97,-9.29 -18,-9.29 -12.72,0 -21.95,9.17 -21.95,21.78 0,11.69 9.64,20.86 22,20.86 10.42,0 18.62,-6.39 20,-15.38 h -7 V 27.24 H 47 l -0.1,1.27 C 46,39.42 36.53,47.34 24.34,47.34"
     id="path12"
     inkscape:connector-curvature="0"
     style="fill:#000000" />
  <path
     class="cls-1"
     d="m 24.61,13.78 c 0,-0.11 -0.37,-0.21 -0.32,0 h 0.32"
     id="path14"
     inkscape:connector-curvature="0"
     style="fill:#000000" />
  <path
     class="cls-1"
     d="m 4,25.45 v 0 a 0.81,0.81 0 0 1 -0.46,0.23 c -0.22,0 -0.33,-0.22 -0.52,-0.19 0.1,0.46 1,0.52 1,0"
     id="path16"
     inkscape:connector-curvature="0"
     style="fill:#000000" />
  <path
     class="cls-1"
     d="m 3.28,20.07 v 0 C 3.54,19.81 3.8,19.56 4.05,19.27 A 5.71,5.71 0 0 0 4.7,18.45 C 4.99,17.94 4.31,18.2 4.49,18.19 a 0.2,0.2 0 0 1 0,0.21 1.14,1.14 0 0 1 -0.33,0.53 c -0.33,0.35 -0.65,0.66 -1,1 0,0.06 -0.09,0.25 0,0.18"
     id="path18"
     inkscape:connector-curvature="0"
     style="fill:#000000" />
  <path
     class="cls-1"
     d="m 3.26,20.78 v 0 c 0.32,-0.42 0.63,-0.8 0.94,-1.16 0.31,-0.36 0.74,-0.85 1,-1.17 0.06,-0.1 0.18,-0.24 0.12,-0.37 -0.17,0.11 -0.21,0.31 -0.31,0.46 a 4.82,4.82 0 0 1 -0.58,0.69 c -0.39,0.41 -0.83,0.8 -1.22,1.23 -0.08,0.12 -0.16,0.59 0.07,0.34"
     id="path20"
     inkscape:connector-curvature="0"
     style="fill:#000000" />
  <path
     class="cls-1"
     d="m 43.68,22.1 a 3.51,3.51 0 0 0 -0.27,-0.4 2.77,2.77 0 0 0 -0.85,-0.63 q -0.3,0 -0.6,-0.06 a 2.82,2.82 0 0 1 -0.58,-0.1 5.23,5.23 0 0 0 -1,-0.37 c -0.7,-0.07 -0.93,0.65 -1.61,0.68 -0.06,-0.25 -0.13,-0.5 -0.21,-0.74 -0.08,-0.24 -0.3,-0.4 -0.33,-0.63 a 1,1 0 0 1 0.08,-0.38 1.82,1.82 0 0 0 0,-0.33 4.85,4.85 0 0 0 -0.18,-1.93 7.5,7.5 0 0 0 -0.42,-0.91 v 0 a 0.67,0.67 0 0 1 -0.09,-0.21 c 0,-0.12 0.32,-0.23 0.46,-0.3 0.39,-0.21 0.64,-0.33 1,-0.56 0.16,-0.09 0.31,-0.3 0.48,-0.29 0.17,0.01 0.18,0.1 0.28,0.16 v 0 a 0.54,0.54 0 0 0 0.18,0.11 c 0.12,0 0.43,0.11 0.47,0 0.04,-0.11 -0.55,-0.2 -0.52,-0.47 0.03,-0.27 0.54,-0.09 0.71,-0.12 0.26,-0.66 -0.31,-0.92 -0.7,-1.17 -0.2,-0.14 -0.41,-0.27 -0.62,-0.39 A 11.78,11.78 0 0 0 38,12.34 0.82,0.82 0 0 0 37.23,11.81 c -0.15,-0.14 -0.11,-0.44 -0.28,-0.54 -0.17,-0.1 -0.33,0 -0.48,0.06 a 2.88,2.88 0 0 0 -0.85,0.35 c -0.11,0.07 -0.28,0.24 -0.23,0.32 0.05,0.08 0.21,0 0.3,-0.1 L 36,11.74 c 0.19,-0.07 0.54,-0.22 0.64,-0.09 0.1,0.13 -0.24,0.26 -0.39,0.32 -0.15,0.06 -0.21,0 -0.26,0.12 -0.05,0.12 0,0.39 -0.15,0.45 a 0.45,0.45 0 0 1 -0.23,0 c -0.27,-0.1 -0.47,-0.4 -0.77,-0.47 a 0.78,0.78 0 0 1 -0.21,0.49 c -0.12,0.16 -0.18,0.21 -0.26,0.22 a 0.76,0.76 0 0 1 -0.42,-0.2 c -0.11,-0.11 -0.33,-0.27 -0.38,-0.44 -0.05,-0.17 0.18,-0.44 0.15,-0.61 -0.03,-0.17 -0.31,-0.16 -0.51,-0.19 a 5.43,5.43 0 0 0 -0.63,-0.08 2.23,2.23 0 0 0 -0.92,0.19 c -0.13,0.06 -0.35,0.13 -0.31,0.23 0.04,0.1 0.28,0 0.42,-0.09 a 2.61,2.61 0 0 1 1.36,0 c 0,0.06 -0.17,0.21 -0.33,0.23 a 1,1 0 0 1 -0.25,0 c -0.28,0 -0.62,0.08 -0.62,0.21 0,0.13 0.19,0.27 0.39,0.25 0.2,-0.02 0.15,-0.08 0.23,-0.08 0.08,0 0.15,0.07 0.23,0.08 0.08,0.01 0.18,-0.07 0.26,-0.06 a 1.3,1.3 0 0 1 0.26,0.14 l 0.26,0.15 c 0.12,0.07 0.39,0.27 0.35,0.44 -0.04,0.17 -0.71,0 -0.85,0 -0.14,0 -0.41,0.18 -0.51,0 -0.1,-0.18 0.06,-0.2 0,-0.29 -0.06,-0.09 -0.12,0.06 -0.22,0 -0.18,-0.21 -0.28,-0.08 -0.5,-0.14 a 1.25,1.25 0 0 1 -0.49,-0.36 c -0.11,-0.13 -0.13,-0.3 -0.26,-0.31 a 1.23,1.23 0 0 0 -0.26,0.12 2.11,2.11 0 0 0 -0.82,1 c -0.08,0.17 -0.18,0.43 -0.36,0.42 -0.18,-0.01 -0.39,-0.29 -0.45,-0.47 -0.06,-0.18 0,-0.22 -0.08,-0.3 A 3.58,3.58 0 0 1 28.75,12.34 1.14,1.14 0 0 1 28.6,12 c 0,-0.16 0.22,-0.28 0.19,-0.44 -0.03,-0.16 -0.28,-0.2 -0.43,-0.27 a 2.58,2.58 0 0 0 -0.53,-0.19 2.64,2.64 0 0 0 -0.84,0.05 c -0.23,0 -0.61,0.11 -0.54,0.27 0.07,0.16 0.24,0 0.36,-0.06 a 2.14,2.14 0 0 1 1,-0.15 c 0.16,0 0.78,0.29 0.67,0.5 -0.11,0.21 -0.36,-0.11 -0.45,-0.16 A 2.1,2.1 0 0 0 27.41,11.5 c -0.22,0 -0.51,0 -0.54,0.17 a 0.3,0.3 0 0 0 0.24,0.32 1.61,1.61 0 0 0 0.38,0 c 0.1,0 0,0.26 0.08,0.27 0.08,0.01 0.16,-0.21 0.32,-0.23 a 0.69,0.69 0 0 1 0.48,0.15 c 0.07,0.06 0.09,0.24 0.13,0.3 0.04,0.06 0.28,0.17 0.28,0.32 0,0.15 -0.16,0.25 -0.32,0.27 C 28.3,13.09 28,12.94 28,12.98 c 0,0.04 0.06,0.13 0.11,0.18 a 1.26,1.26 0 0 1 0.33,0.66 1.31,1.31 0 0 1 -0.33,1 1.09,1.09 0 0 1 -0.75,0.12 1.45,1.45 0 0 1 -0.45,-0.44 c 0,-0.06 -0.08,-0.17 -0.14,-0.17 -0.06,0 0,0.23 0,0.23 a 3.6,3.6 0 0 0 0.26,0.52 c 0.1,0.13 0.26,0.21 0.35,0.33 a 4.74,4.74 0 0 1 0.44,0.75 0.29,0.29 0 0 1 0,0.13 c 0,0.08 -0.32,0.1 -0.5,0.12 -0.82,0.07 -1.61,0.14 -2.43,0.19 -0.43,0 -0.76,0.06 -1,-0.14 a 0.8,0.8 0 0 1 -0.13,-0.13 v 0 a 0.77,0.77 0 0 1 -0.17,-0.38 c 0,-0.17 0.42,-0.23 0.61,-0.31 a 1.89,1.89 0 0 1 1.11,-0.3 c 0.17,0 0.59,0.33 0.68,0 -0.15,-0.1 -0.48,-0.1 -0.49,-0.31 -0.01,-0.21 0.14,-0.23 0.27,-0.26 0.13,-0.03 0.49,0.12 0.66,0 0.17,-0.12 0,-0.31 0,-0.48 0,-0.17 0.09,-0.22 0.08,-0.33 0,-0.35 -0.37,-0.49 -0.64,-0.61 -0.27,-0.12 -0.43,-0.14 -0.45,-0.31 a 0.52,0.52 0 0 1 0.27,-0.46 h 0.37 c 0.12,0 0.4,-0.25 0.57,-0.24 0.17,0.01 0.28,0.33 0.45,0.22 0.17,-0.11 -0.11,-0.14 -0.16,-0.22 a 0.43,0.43 0 0 0 0,-0.16 c -0.36,-0.16 -0.4,-0.65 -0.77,-0.81 A 4.68,4.68 0 0 0 25,12.34 c -0.09,0.13 -0.25,0.44 -0.42,0.46 -0.17,0.02 -0.57,-0.26 -0.68,-0.36 a 3.86,3.86 0 0 0 -0.57,-0.58 c -0.19,-0.1 -0.78,-0.16 -0.79,-0.35 v 0 L 24,11.06 c 1.35,-0.37 7,-2 7.48,-2.11 L 33.3,8.43 c 0,0 0.24,-0.21 0,-0.26 l -1,0.3 -7.88,2.27 -1.76,0.49 c 0,-0.08 -0.07,-0.11 -0.24,-0.18 v 0 l -0.39,-0.1 h -0.1 a 3.08,3.08 0 0 0 -1.34,0.25 c -0.11,0.05 -0.31,0.18 -0.29,0.27 0.02,0.09 0.16,0 0.23,-0.07 a 2.43,2.43 0 0 1 0.78,-0.28 c 0.28,0 1.07,-0.11 1,0.21 0,0.17 -0.4,0.13 -0.61,0.14 a 1.83,1.83 0 0 0 -0.92,0.21 c 0,0.09 0.28,0.31 0.43,0.31 0.15,0 0.15,-0.07 0.23,-0.07 0.08,0 0.16,0.12 0.25,0.13 0.09,0.01 0.14,-0.09 0.24,-0.07 0.1,0.02 0.12,0.16 0.19,0.21 0.18,-0.13 0.28,-0.31 0.56,-0.29 a 1.56,1.56 0 0 1 0.41,0.15 c 0.23,0.1 0.53,0.33 0.45,0.48 -0.08,0.15 -0.33,0.09 -0.53,0.15 -0.2,0.06 -0.36,0.2 -0.54,0.17 -0.18,-0.03 -0.21,-0.2 -0.36,-0.21 v 0.24 c 0.48,0.2 1,0.36 1,1 -0.24,0.29 -0.49,0.8 -1,0.68 a 0.83,0.83 0 0 1 -0.5,-0.68 c 0,-0.09 -0.09,-0.33 -0.15,-0.31 a 1.38,1.38 0 0 0 0,0.64 1.12,1.12 0 0 0 0.57,0.64 0.54,0.54 0 0 1 0.34,0.08 0.67,0.67 0 0 1 0.23,0.62 c -0.14,0.21 -0.44,0.24 -0.72,0.34 -0.6,0.21 -1.29,0.39 -1.9,0.54 A 1.35,1.35 0 0 1 19.85,15.74 V 14.99 A 4.42,4.42 0 0 1 20,13.54 c 0.05,-0.11 0.17,-0.27 0.26,-0.42 a 1.62,1.62 0 0 1 0.27,-0.41 c 0.07,-0.06 0.28,-0.22 0.41,-0.21 0.13,0.01 0.37,0.34 0.41,0.31 0.04,-0.03 0,-0.22 0,-0.32 0,-0.1 0.19,-0.16 0.14,-0.25 -0.05,-0.09 -0.2,0.13 -0.38,0.14 A 0.85,0.85 0 0 1 20.65,12.2 1.05,1.05 0 0 1 20.31,11.91 c -0.2,-0.25 -0.5,-0.76 -0.57,-0.7 -0.07,0.06 0,0.14 0.05,0.24 v 0.17 a 0.37,0.37 0 0 1 -0.07,0.2 l -0.21,0.25 h -0.18 c -0.2,0.06 -0.9,0.21 -1.1,0.25 l -0.15,-0.1 a 0.34,0.34 0 0 0 -0.2,0 c -0.07,0 -0.51,0.07 -0.66,0.07 a 1.28,1.28 0 0 0 -0.55,0 10.27,10.27 0 0 1 -1.9,0.44 9.27,9.27 0 0 0 -1.65,0.33 0.86,0.86 0 0 1 -0.32,0 4.18,4.18 0 0 0 -1,0 c -0.56,0 -0.67,-0.15 -0.92,-0.17 h -0.31 a 0.21,0.21 0 0 0 -0.06,-0.1 c -0.07,-0.07 0,-0.15 0,-0.22 -0.07,-0.24 -0.27,-0.45 -0.12,-0.72 0,-0.1 -0.15,-0.17 -0.18,-0.29 -0.03,-0.12 0,-0.12 0.09,-0.18 A 0.73,0.73 0 0 0 10.11,10.89 2.19,2.19 0 0 0 8.6,10.73 2.36,2.36 0 0 0 7.67,11.06 2,2 0 0 0 7,12.63 v 0.14 a 0.17,0.17 0 0 0 0.11,0.09 1.3,1.3 0 0 0 0.44,0 h 0.07 c 0,0.05 0,0 0.06,0.05 a 0.3,0.3 0 0 1 -0.11,0.25 h -0.3 l -0.6,0.17 a 2.15,2.15 0 0 0 -1,0.44 5,5 0 0 0 -0.64,1 c -0.13,0.2 -0.66,0.55 -0.79,1 a 4.87,4.87 0 0 1 -0.43,0.89 1.29,1.29 0 0 0 -0.16,0.41 v 0.27 c 0,0.11 0.09,0.2 0.26,0.24 l 0.81,0.11 a 11.37,11.37 0 0 1 1.39,0.11 0.66,0.66 0 0 1 0.46,0.26 1.17,1.17 0 0 0 0.34,0.36 0.7,0.7 0 0 1 0.16,0.46 v 0.18 A 0.42,0.42 0 0 0 7,19.34 0.86,0.86 0 0 0 7,19.66 V 19.8 C 6.74,20.57 6.24,21 5.8,20.96 L 5.38,20.86 5,20.79 C 4.73,20.72 4.83,20.36 5,20.25 a 3.26,3.26 0 0 0 0.8,-1.21 2.07,2.07 0 0 1 0.51,-0.7 l 0.07,-0.09 c 0,-0.07 0,-0.18 -0.11,0 a 3.8,3.8 0 0 0 -0.5,0.64 7,7 0 0 1 -2.1,2.2 l -0.11,0.08 v 0 a 1.32,1.32 0 0 0 -0.64,1.07 1.48,1.48 0 0 0 0,0.42 3.84,3.84 0 0 0 0,1.07 c 0.06,0.1 0.11,-0.54 0.34,-0.49 a 1.43,1.43 0 0 0 0.46,0.27 c 0.21,0.08 0.26,0.22 0.23,0.35 H 4 v 0.1 C 3.93,24.28 4,25.04 3.81,25.2 3.62,25.36 3.21,25.1 3.09,25.01 H 3 c -0.13,-0.07 -0.11,0.1 0,0.19 a 1.16,1.16 0 0 0 0.5,0.27 0.47,0.47 0 0 0 0.5,-0.34 6.74,6.74 0 0 0 0.08,-1 1.83,1.83 0 0 1 0.18,-0.46 3,3 0 0 1 0.21,-0.4 1.74,1.74 0 0 1 0.87,-0.59 2.12,2.12 0 0 1 0.66,-0.11 1.56,1.56 0 0 1 1,0.65 1.35,1.35 0 0 0 1.09,0.56 C 8.2,23.72 8.16,23.58 8.18,23.49 A 1.84,1.84 0 0 1 8.27,23.24 L 8.67,22.63 9,22.34 a 7.17,7.17 0 0 1 0.68,-0.67 5.07,5.07 0 0 1 1.65,-1.06 8.73,8.73 0 0 1 2.39,-0.27 15.66,15.66 0 0 0 1.93,-0.08 4.16,4.16 0 0 0 1.05,-0.15 c 0.11,0 0.24,-0.15 0.38,-0.14 0.14,0.01 0.12,0.09 0.21,0.09 0.09,0 0.18,-0.18 0.28,-0.3 0.24,-0.31 0.53,-0.6 0.78,-0.87 A 2.14,2.14 0 0 1 20,18.14 c 0.14,0 0.39,0.13 0.41,0 0.02,-0.13 -0.15,-0.16 -0.23,-0.24 a 0.88,0.88 0 0 1 -0.29,-0.44 1.15,1.15 0 0 1 0.08,-0.61 1.21,1.21 0 0 1 0.53,-0.16 l 1.13,-0.26 a 4.91,4.91 0 0 0 0.83,-0.24 0.76,0.76 0 0 1 0.46,-0.12 c 0.17,0 0.36,0.43 0.46,0.59 a 4,4 0 0 1 0.62,1.52 2.75,2.75 0 0 1 0,1.07 0.62,0.62 0 0 1 -0.34,0.37 c -0.39,0.08 -0.55,-0.26 -0.88,-0.2 a 0.35,0.35 0 0 0 0.2,0.28 2,2 0 0 0 0.31,0.19 c 0.44,0.18 1,0.19 1,0.73 a 1,1 0 0 1 -0.11,0.54 1.62,1.62 0 0 1 -0.45,0.28 c -0.12,0.07 -0.27,0.29 -0.48,0.24 -0.21,-0.05 -0.13,-0.27 -0.23,-0.34 -0.1,-0.07 -0.34,0.29 -0.46,0.49 a 2,2 0 0 0 -0.18,0.32 c 0,0.11 -0.14,0.28 -0.05,0.35 0.09,0.07 0.29,-0.27 0.45,-0.36 a 2.1,2.1 0 0 1 0.42,-0.15 3.79,3.79 0 0 0 1.14,-0.65 c 0.43,-0.31 0.81,-0.78 1.48,-0.8 a 5.59,5.59 0 0 1 1.46,0.31 13.17,13.17 0 0 0 1.41,0.34 1.31,1.31 0 0 1 0.38,0.58 c 0.1,0.21 0.24,0.36 0.12,0.65 -0.12,0.29 0.38,0.31 0.35,0.55 -0.03,0.24 -0.35,0.11 -0.57,0.06 -0.22,-0.05 -0.33,-0.05 -0.36,-0.2 -0.03,-0.15 0.25,0 0.34,0 a 0.26,0.26 0 0 0 0,-0.27 c 0,-0.16 -0.27,-0.17 -0.45,-0.24 A 1.59,1.59 0 0 1 28.09,22.06 2.69,2.69 0 0 1 27.9,21.68 c -0.16,-0.25 -0.5,-0.24 -0.81,-0.39 -0.31,-0.15 -0.36,-0.27 -0.7,-0.16 a 1.44,1.44 0 0 0 -0.25,0.18 2.18,2.18 0 0 1 -0.65,0.27 4.05,4.05 0 0 0 -0.85,0.12 c -0.22,0.07 -0.5,0.22 -0.56,0.4 -0.06,0.18 0,0.24 0,0.35 a 1.28,1.28 0 0 1 -0.39,0.5 2.2,2.2 0 0 1 -1.45,0.62 1.68,1.68 0 0 1 -0.95,-0.23 c -0.22,-0.14 -0.34,-0.4 -0.65,-0.32 a 0.61,0.61 0 0 0 0.1,0.55 c 0.06,0.09 0.25,0.22 0.23,0.35 -0.02,0.13 -0.34,0.26 -0.42,0.31 a 6.38,6.38 0 0 1 -1.53,0.62 7.72,7.72 0 0 1 -2.53,0.27 4.2,4.2 0 0 1 -3.2,-1.83 c -0.08,-0.11 -0.2,-0.38 -0.31,-0.41 a 1.66,1.66 0 0 0 -0.66,0.1 c -0.16,0.05 -0.34,0.2 -0.3,0.31 0.04,0.11 0.27,0 0.44,0 0.17,0 0.63,0.2 0.64,0.37 0.01,0.17 -0.15,0.12 -0.13,0.2 0.02,0.08 0.34,0.16 0.51,0.27 A 1.58,1.58 0 0 1 14,26.14 c -0.07,0.11 -0.26,0.19 -0.24,0.27 0.02,0.08 0.25,0 0.34,0.06 a 1,1 0 0 1 0.26,0.53 2.2,2.2 0 0 1 -0.14,0.88 c -0.07,0.22 -0.26,0.62 -0.19,0.81 0.07,0.19 0.34,0.19 0.56,0.21 h 0.62 a 9.74,9.74 0 0 1 1.87,0 c 0.26,0.1 0.31,0.42 0.47,0.65 a 2.67,2.67 0 0 0 0.31,0.36 c 0.11,0.13 0.21,0.27 0.3,0.36 0.09,0.09 0.38,0.25 0.28,0.43 -0.1,0.18 -0.45,0 -0.52,0 -0.07,0 -0.24,-0.72 -0.56,-0.93 -0.1,-0.06 -0.22,-0.09 -0.32,-0.14 -0.1,-0.05 -0.15,-0.18 -0.24,-0.19 -0.09,-0.01 -0.22,0.12 -0.32,0.17 a 3.68,3.68 0 0 1 -0.75,0 3.14,3.14 0 0 1 -0.75,0 c -0.08,0 -0.14,-0.12 -0.22,-0.14 a 1.3,1.3 0 0 0 -0.62,0 c -0.08,0 -0.09,0.22 -0.2,0.25 -0.11,0.03 -0.56,-0.32 -0.58,-0.52 -0.02,-0.2 0.08,-0.26 0.09,-0.38 A 3.24,3.24 0 0 0 13.27,28.06 L 13.2,27.84 v 0 a 0.88,0.88 0 0 0 -0.07,-0.23 v 0 a 0.43,0.43 0 0 0 -0.05,-0.25 c 0,-0.37 0.22,-0.76 -0.21,-0.82 h -0.63 a 2.43,2.43 0 0 0 -0.66,0 c -0.11,0 -0.15,0.16 -0.22,0.19 a 1.18,1.18 0 0 1 -0.59,0 H 10.6 a 1.17,1.17 0 0 1 -0.26,-0.1 H 10.27 L 10.12,26.34 C 9.66,25.93 9.57,25.11 9.24,24.55 9.13,24.37 8.92,24.12 8.74,24.09 A 3.93,3.93 0 0 0 7.99,24.22 2.1,2.1 0 0 1 7.14,24.03 C 6.86,23.88 6.61,23.59 6.33,23.42 a 1.5,1.5 0 0 0 -0.5,-0.22 1.69,1.69 0 0 0 -0.91,0.23 1.87,1.87 0 0 0 -0.5,0.43 c -0.26,0.4 -0.1,1 -0.15,1.55 a 0.78,0.78 0 0 1 -0.59,0.8 1.1,1.1 0 0 1 -0.59,-0.14 c -0.11,-0.06 -0.11,0.17 0,0.22 v 0 a 1,1 0 0 0 0.5,0.1 c 0.16,0 0.46,-0.25 0.43,-0.14 a 0.66,0.66 0 0 1 -0.55,0.38 1,1 0 0 1 -0.41,-0.1 v 0 0.23 0 a 1.81,1.81 0 0 0 1.1,-0.15 v 0 c 0.11,0.16 0.18,0.34 0.28,0.51 0.1,0.17 0.27,0.31 0.26,0.51 C 4.34,27.72 4.33,27.42 4,27.49 a 0.46,0.46 0 0 0 -0.34,0.55 0.45,0.45 0 0 0 0.24,0.3 c 0.36,0.12 0.45,-0.21 0.85,-0.12 A 1.29,1.29 0 0 0 4.87,28.6 C 4.59,29.22 4.3,29.83 4,30.46 v 0.06 a 0.47,0.47 0 0 1 0.06,0.15 v 0 l 0.29,-0.58 c 0.08,-0.17 0.23,-0.62 0.41,-0.45 a 1.69,1.69 0 0 1 -0.2,0.57 l -0.38,0.78 a 0.11,0.11 0 0 0 0,0.08 0.77,0.77 0 0 1 0.07,0.16 v 0 C 4.53,30.63 4.73,30.05 5,29.44 a 1.49,1.49 0 0 1 0.17,-0.36 c 0.16,-0.12 0.22,0.18 0.28,0.29 0.37,0.76 0.71,1.38 1.14,2.1 0.1,0.18 0.22,0.27 0.19,0.51 a 1.55,1.55 0 0 1 -0.55,0.76 1.57,1.57 0 0 1 -1.17,0.27 v 0.06 l 0.06,0.1 H 5.54 A 2,2 0 0 0 7.1,31.8 7.68,7.68 0 0 0 7.58,29.8 11.28,11.28 0 0 0 7.44,26 c -0.06,-0.29 -0.28,-0.89 0.07,-0.92 0.35,-0.03 0.3,0.24 0.37,0.48 a 10.48,10.48 0 0 1 0.33,3.94 c -0.13,1.42 -0.44,3 -1.28,3.73 a 3.2,3.2 0 0 1 -0.61,0.43 2.54,2.54 0 0 1 -0.59,0.19 c -0.18,0 -0.18,-0.09 0,-0.13 H 5.82 A 2,2 0 0 0 6.52,33.4 3.11,3.11 0 0 0 7.07,32.75 C 7.16,32.58 7.22,32.49 7.15,32.47 7.08,32.45 6.92,32.73 6.81,32.86 A 2.13,2.13 0 0 1 5.49,33.57 H 5.33 v 0.06 0 a 0.75,0.75 0 0 0 0.07,0.12 v 0 l 0.06,0.1 a 0.11,0.11 0 0 0 0.08,0 2.4,2.4 0 0 0 0.91,-0.27 3.72,3.72 0 0 0 1.55,-2.24 4,4 0 0 0 2.07,2.53 2.41,2.41 0 0 0 1.22,0.11 3,3 0 0 0 2.07,-1.64 6.6,6.6 0 0 0 0.73,-2.15 6,6 0 0 1 0.11,-0.72 9.39,9.39 0 0 1 1.5,0 c 0.16,0 0.48,0 0.5,0.21 a 0.85,0.85 0 0 1 -0.11,0.26 c -0.12,0.24 -0.22,0.53 -0.35,0.74 -0.13,0.21 -0.66,0.45 -0.61,1.06 0,0.22 0.18,0.4 0.17,0.6 -0.01,0.2 -0.36,0.44 -0.4,0.72 -0.04,0.28 0,0.32 0,0.45 0,0.13 -0.34,0.36 -0.24,0.59 0.1,0.23 0.4,0.08 0.63,0.08 H 17 a 1.69,1.69 0 0 0 0.66,-0.07 0.23,0.23 0 0 0 0,-0.2 h 0.91 c 0.25,0 0.74,0.08 0.76,-0.14 0.02,-0.22 -0.21,-0.3 -0.29,-0.4 A 1.56,1.56 0 0 0 18.69,33.04 C 18.56,32.97 18.4,32.97 18.32,32.85 a 0.85,0.85 0 0 1 -0.17,-0.43 c 0,-0.15 0.11,-0.28 0.16,-0.45 a 2,2 0 0 0 0.1,-0.59 c 0.06,-0.17 0.37,-0.1 0.51,-0.19 0,-0.3 -0.29,-0.61 -0.3,-0.91 a 1.12,1.12 0 0 1 0.17,-0.46 2.93,2.93 0 0 1 0.19,-0.4 c 0.12,-0.21 0.37,-0.61 0.59,-0.59 0.22,0.02 0.23,0.25 0.33,0.39 0.1,0.14 0.31,0.08 0.33,0.21 0.02,0.13 -0.09,0.15 -0.11,0.26 a 0.53,0.53 0 0 0 0,0.52 5.56,5.56 0 0 0 1.77,0.23 c 0.06,0 0,-0.13 0.07,-0.16 a 6.46,6.46 0 0 0 0.88,0 c 0.32,0 0.79,0 0.83,-0.14 0.04,-0.14 -0.11,-0.27 -0.19,-0.4 A 1.5,1.5 0 0 0 23.22,29.38 C 23.1,29.27 22.91,29.24 22.82,29.12 A 4,4 0 0 0 22.33,28.31 C 22.1,28.1 22.14,28.23 22.03,28.15 a 6.58,6.58 0 0 1 1.33,-0.05 c 0.18,0.05 0.31,0.2 0.48,0.25 0.17,0.05 0.21,0 0.29,0.06 0.08,0.06 0,0.26 0.06,0.38 a 0.71,0.71 0 0 0 0.32,0.47 2.58,2.58 0 0 0 0.68,0 c 0.35,0 0.76,0 0.82,-0.12 0.06,-0.12 -0.08,-0.36 -0.17,-0.49 A 1.58,1.58 0 0 0 25.55,28.26 C 25.3,28.05 25.11,28.09 24.96,27.84 a 1.15,1.15 0 0 0 -0.12,-0.25 c -0.06,-0.1 -0.21,-0.16 -0.38,-0.27 a 1.12,1.12 0 0 0 -0.22,-0.16 1,1 0 0 0 -0.42,0 c -0.24,0 -0.49,0.06 -0.76,0.06 h -0.77 a 6.61,6.61 0 0 1 -1.54,0 c -0.14,0 -0.32,-0.13 -0.32,-0.19 0,-0.06 0.28,-0.28 0.36,-0.36 a 6.32,6.32 0 0 0 0.69,-0.77 c 0.12,-0.14 0.21,-0.31 0.32,-0.41 0.11,-0.1 0.4,-0.36 0.53,-0.36 0.13,0 0.21,0.14 0.32,0.23 l 0.33,0.25 a 3.11,3.11 0 0 0 0.69,0.44 l 0.8,0.32 a 2.46,2.46 0 0 1 0.76,0.38 2.42,2.42 0 0 1 0.48,0.7 2.57,2.57 0 0 1 0.29,0.89 1.47,1.47 0 0 0 0.17,0.74 0.85,0.85 0 0 0 0.66,0.24 c 0.17,0 0.33,-0.16 0.52,-0.22 a 4.41,4.41 0 0 1 0.89,0 5.21,5.21 0 0 1 0.79,0 2,2 0 0 1 0.71,0.25 c 0.19,0.1 0.58,0.19 0.62,0.35 0.04,0.16 -0.07,0.25 -0.09,0.34 a 0.81,0.81 0 0 0 0,0.46 c 0.06,0.09 0.28,0.15 0.45,0.2 a 2.22,2.22 0 0 0 0.8,0.15 0.93,0.93 0 0 0 0.55,-0.14 c 0,-0.08 -0.11,-0.43 -0.19,-0.58 -0.08,-0.15 -0.46,-0.31 -0.56,-0.55 -0.1,-0.24 0,-0.43 -0.07,-0.63 -0.15,-0.45 -0.61,-0.47 -1.19,-0.5 h -0.9 l -0.88,-0.06 a 2,2 0 0 1 -0.83,-0.13 1.66,1.66 0 0 1 -0.52,-0.73 1.63,1.63 0 0 1 0,-0.54 3.16,3.16 0 0 0 0.11,-1.26 c 0,-0.15 -0.1,-0.27 -0.12,-0.43 A 1.39,1.39 0 0 1 27,24.73 c 0.05,-0.14 0.14,-0.41 0.29,-0.4 0.15,0.01 0.14,0.13 0.2,0.19 a 1.39,1.39 0 0 1 0.27,0.21 1.22,1.22 0 0 1 0.14,0.33 0.93,0.93 0 0 0 0.12,0.33 c 0.12,0.16 0.44,0.17 0.38,0.38 -0.06,0.21 -0.24,0.11 -0.31,0.2 a 0.61,0.61 0 0 0 0,0.56 1.49,1.49 0 0 0 0.38,0.28 l 0.4,0.25 a 2.14,2.14 0 0 1 0.79,0.54 c 0,0.45 0.08,0.77 0.64,0.71 0.33,0 0.74,-0.09 1.17,-0.1 h 1.23 c 0.15,0 0.26,0.1 0.37,0.11 0.11,0.01 0.41,0 0.44,0.13 0.03,0.13 -0.11,0.2 -0.13,0.3 a 0.7,0.7 0 0 0 0.26,0.57 2.14,2.14 0 0 0 0.44,0.08 4.51,4.51 0 0 0 0.9,0 c 0.4,-0.06 0.13,-0.31 0,-0.51 a 2.92,2.92 0 0 0 -0.23,-0.36 c -0.09,-0.1 -0.34,-0.19 -0.43,-0.33 -0.09,-0.14 -0.06,-0.18 -0.1,-0.25 a 1.07,1.07 0 0 0 -0.32,-0.41 2.25,2.25 0 0 0 -1.38,-0.13 5.16,5.16 0 0 1 -1.3,0.06 1.2,1.2 0 0 1 -0.75,-0.74 c 0,-0.24 0.19,-0.45 0.21,-0.68 0.02,-0.23 -0.22,-0.85 0.1,-1 l 0.28,-0.08 c 0.33,-0.1 0.66,-0.34 1,-0.27 0.34,0.07 0.07,0.51 0.2,0.77 0,0.08 0.18,0.17 0.28,0.24 0.1,0.07 0.27,0.13 0.26,0.27 -0.01,0.14 -0.15,0.11 -0.2,0.19 a 0.74,0.74 0 0 0 -0.12,0.48 2,2 0 0 0 0.71,0.45 c 0.26,0.1 0.71,0.29 0.91,0.2 0.2,-0.09 0.06,-0.46 0,-0.67 a 1.58,1.58 0 0 0 -0.16,-0.35 1.23,1.23 0 0 1 -0.16,-0.35 v -0.46 c 0,-0.14 -0.25,-0.25 -0.35,-0.4 a 2.07,2.07 0 0 1 -0.15,-0.34 c -0.12,-0.23 -0.36,-0.38 -0.4,-0.59 0.6,0.05 1.65,0 1.79,0.07 0.14,0.07 0.24,0.38 0.3,0.62 0.06,0.24 0.35,0.14 0.32,0.3 -0.03,0.16 -0.16,0.08 -0.25,0.15 a 0.64,0.64 0 0 0 0,0.43 c 0.07,0.16 0.48,0.34 0.61,0.42 0.13,0.08 0.53,0.38 0.68,0.32 0.15,-0.06 0.12,-0.2 0.13,-0.35 a 4,4 0 0 0 -0.13,-1.33 1.6,1.6 0 0 0 -0.42,-0.44 c -0.15,-0.16 -0.29,-0.29 -0.4,-0.43 0.6,-0.26 1.12,-0.89 2,-0.62 -0.24,0.29 0,0.46 0.23,0.59 a 3.32,3.32 0 0 0 1.33,0.44 c 0.16,-0.07 0,-0.67 0,-1 0.29,-0.1 0.51,-0.29 0.84,-0.25 a 1.23,1.23 0 0 1 0.71,0.37 c 0.08,0.1 0.1,0.24 0.2,0.34 0.1,0.1 0.41,0.17 0.46,0.36 a 0.55,0.55 0 0 0 -0.12,0.56 2,2 0 0 0 1.21,0.37 1.8,1.8 0 0 0 -0.13,-1 c -0.07,-0.12 -0.2,-0.18 -0.26,-0.31 a 2.52,2.52 0 0 0 -0.29,-0.67 1.11,1.11 0 0 0 -0.61,-0.2 2.07,2.07 0 0 1 -0.58,-0.23 4.42,4.42 0 0 0 -0.57,-0.39 c -0.59,-0.2 -0.62,-0.05 -0.67,-0.16 -0.05,-0.11 0.17,-0.22 0.28,-0.31 0.11,-0.09 0.19,-0.22 0.3,-0.3 a 2.32,2.32 0 0 1 0.44,-0.16 2.18,2.18 0 0 1 0.45,-0.16 c 0.44,0 0.62,0.39 0.92,0.47 0.3,0.08 0.57,-0.14 0.7,-0.06 0.13,0.08 0,0.6 0.25,0.74 a 1.43,1.43 0 0 0 0.68,0.07 c 0.19,0 0.5,0 0.53,-0.18 0.03,-0.18 -0.11,-0.34 -0.18,-0.46 M 20,12.11 a 0.29,0.29 0 0 1 0.27,0.19 c 0,0.24 -0.25,0.37 -0.34,0.52 -0.21,0.35 -0.13,0.77 -0.26,1.24 -0.06,0.21 -0.24,0.41 -0.26,0.61 a 3.17,3.17 0 0 0 0.12,0.75 c 0,0.27 0.13,0.53 0.15,0.73 0.02,0.2 0,0.42 -0.29,0.43 a 5.6,5.6 0 0 1 -0.2,-0.7 3.42,3.42 0 0 1 -0.19,-1.05 8.53,8.53 0 0 1 0.29,-1.49 5,5 0 0 1 0.23,-0.65 c 0.08,-0.18 0.25,-0.55 0.44,-0.56 m -0.59,0.22 -0.06,0.16 v 0 A 5.12,5.12 0 0 0 18.87,14 v 1.05 A 11,11 0 0 0 19,16.57 c -0.13,0.15 -0.36,0.16 -0.56,0.21 a 36.54,36.54 0 0 1 -4.39,0.84 19.14,19.14 0 0 1 -4.14,-0.2 L 9.2,17.34 H 8.81 c 0,-0.05 0,-0.07 0.06,-0.15 a 8,8 0 0 0 0.83,-1.17 8.92,8.92 0 0 0 0.44,-1 0.58,0.58 0 0 1 0.21,-0.17 2.43,2.43 0 0 1 1.19,-0.21 c 0.81,0 1,-0.17 1.44,-0.15 a 2.58,2.58 0 0 0 1.59,-0.25 7.46,7.46 0 0 1 2,-0.94 c 0.41,0 0.7,0.27 1,0.26 a 2.05,2.05 0 0 0 0.55,-0.16 c 0.08,0 0.21,0 0.28,-0.25 0.07,-0.25 0.12,-0.34 0.07,-0.45 l 0.91,-0.25 m -1.48,5 0.86,-0.15 c 0,0 0.07,0 0.06,0.09 -0.01,0.09 -0.23,0.11 -0.34,0.13 a 40,40 0 0 1 -4.88,0.63 h -0.87 a 2.61,2.61 0 0 1 -0.88,-0.09 16.17,16.17 0 0 1 1.84,-0.07 10.17,10.17 0 0 0 1.74,-0.18 c 0.84,-0.12 1.67,-0.25 2.47,-0.39 m -1.61,0.2 a 1.61,1.61 0 0 1 0.27,-0.1 c 0.48,-0.12 1,-0.23 1.52,-0.34 a 5.63,5.63 0 0 1 0.69,-0.14 0.33,0.33 0 0 1 0,0.14 23.42,23.42 0 0 1 -2.48,0.44 M 8.85,17.76 9,17.74 h 0.68 c 0.14,0 0.41,0 0.4,0.07 a 3.64,3.64 0 0 1 -1.2,0.08 H 8.75 c 0,-0.05 0.08,-0.06 0.1,-0.07 M 9.36,17.58 H 9.08 a 0.24,0.24 0 0 0 -0.07,-0.12 6,6 0 0 1 1.47,0.18 c 0,0.09 -0.14,0.07 -0.21,0.06 -0.29,0 -0.57,-0.07 -0.91,-0.09 m -0.73,0.62 c 0.21,0 0.53,0.06 0.76,0.08 a 8.12,8.12 0 0 1 1.39,0.11 c 0,0 -0.24,0.07 -0.36,0.08 -0.12,0.01 -0.33,0 -0.5,0 L 9.12,18.41 A 2.41,2.41 0 0 1 8.75,18.34 H 8.59 v -0.06 m 2,-5 H 11 a 1.86,1.86 0 0 1 0.39,0.1 0.36,0.36 0 0 0 0.32,0 2,2 0 0 1 0.76,0 3.05,3.05 0 0 0 0.6,0.06 8.49,8.49 0 0 0 1.23,-0.3 c 0.3,-0.09 0.66,-0.14 1,-0.2 0.34,-0.06 0.4,-0.1 0.6,-0.16 A 7.43,7.43 0 0 1 17,12.34 h 0.68 a 1.56,1.56 0 0 1 0.37,0.1 c 0,0 0.11,0.1 0,0.17 a 0.75,0.75 0 0 1 -0.3,0.09 h -0.13 a 2.51,2.51 0 0 1 -0.32,0.25 0.26,0.26 0 0 1 -0.21,0 l -0.33,-0.18 h -0.08 a 6.44,6.44 0 0 0 -0.74,0.25 c -0.17,0.09 -0.45,0.28 -0.7,0.43 a 3.46,3.46 0 0 1 -1.55,0.56 0.9,0.9 0 0 1 -0.63,-0.18 0.2,0.2 0 0 0 -0.23,0 3.71,3.71 0 0 1 -1.48,0.2 c -0.48,0 -0.27,-0.34 -0.43,-0.33 -0.16,0.01 -0.59,0.36 -0.67,0.4 A 0.2,0.2 0 0 1 10,14.1 0.42,0.42 0 0 1 9.92,13.84 v -0.13 0 a 0.58,0.58 0 0 0 0.25,-0.09 c 0,-0.06 0.13,-0.12 0.15,-0.17 a 0.15,0.15 0 0 0 0,-0.13 v -0.07 a 0.26,0.26 0 0 1 0.24,-0.11 m -0.7,-0.8 c 0.12,0.05 0.12,-0.12 0.18,-0.18 a 0.75,0.75 0 0 1 0.24,0.15 c 0.07,0.1 0.16,0.22 0.1,0.34 -0.06,0.12 -0.14,0 -0.15,0.1 a 0.84,0.84 0 0 1 -0.13,0.29 c 0,0.09 0.16,0.05 0.17,0.13 a 0.39,0.39 0 0 1 0,0.3 0.9,0.9 0 0 1 -0.4,0 2.63,2.63 0 0 1 -0.39,-0.06 0.09,0.09 0 0 0 -0.11,0.07 v 0 0.17 0 a 0.11,0.11 0 0 0 0,0.08 0.92,0.92 0 0 1 -0.09,0.23 H 9.14 a 0.11,0.11 0 0 0 -0.08,0 A 0.26,0.26 0 0 1 9,14.13 v 0 A 0.31,0.31 0 0 1 8.79,14.08 0.7,0.7 0 0 1 8.55,13.95 v 0 L 8.45,13.8 A 3.92,3.92 0 0 0 8,13.34 v -0.13 a 0.45,0.45 0 0 1 0.28,-0.36 1.16,1.16 0 0 1 0.92,0.18 v 0 -0.32 a 1,1 0 0 1 0.24,-1 0.69,0.69 0 0 1 0.34,-0.22 0.34,0.34 0 0 1 0.35,0.06 0.3,0.3 0 0 1 0.1,0.25 v 0 c 0,0.05 -0.21,0 -0.31,0.08 A 1.44,1.44 0 0 0 9.64,12.15 0.88,0.88 0 0 1 10,12.34 m -2.43,0 A 0.34,0.34 0 0 1 7.41,12.1 C 7.3,11.71 7.57,11.42 7.85,11.15 l 0.28,-0.2 a 2.72,2.72 0 0 1 1.38,-0.19 0.65,0.65 0 0 1 0.61,0.22 c 0.14,0.22 -0.17,0.13 -0.27,0.16 a 3.1,3.1 0 0 0 -1.12,0.81 1.21,1.21 0 0 1 -1.16,0.39 m -0.06,1.09 a 0.41,0.41 0 0 1 0.24,-0.09 0.27,0.27 0 0 1 0.15,0.05 c 0,0 0.09,0 0.23,0.29 l 0.08,0.17 0.08,0.16 a 0.62,0.62 0 0 0 0.29,0.24 l 0.15,0.07 H 9 a 0.65,0.65 0 0 0 0.41,-0.19 0.86,0.86 0 0 0 0.13,-0.14 0.47,0.47 0 0 0 0.11,-0.25 c 0,-0.06 0.07,-0.07 0.11,-0.07 v 0 c 0,0 0.07,0.26 0.08,0.31 a 1.87,1.87 0 0 1 0,0.94 3.79,3.79 0 0 1 -0.75,1.45 c -0.16,0.17 -0.38,0.28 -0.25,0 a 2.44,2.44 0 0 0 0.1,-0.24 2.14,2.14 0 0 0 0.09,-0.34 c 0,-0.11 -0.06,-0.08 -0.1,0 A 2.14,2.14 0 0 1 8.34,16.68 0.91,0.91 0 0 1 7.97,16.86 H 7.7 a 1.65,1.65 0 0 1 -0.32,0.06 c 0,0 -0.05,0 0,-0.08 0.05,-0.08 0.15,-0.15 0.27,-0.3 a 3.8,3.8 0 0 0 0.28,-0.41 4,4 0 0 0 0.42,-0.92 c 0,-0.13 0,-0.13 0,0 a 6.68,6.68 0 0 1 -0.55,0.93 5.64,5.64 0 0 1 -0.66,0.72 0.34,0.34 0 0 1 -0.34,0 3.47,3.47 0 0 1 -0.59,-0.27 c 0,0 -0.07,-0.09 0,-0.13 a 11.38,11.38 0 0 0 1.66,-2 0.83,0.83 0 0 0 0.06,-0.44 0.85,0.85 0 0 0 -0.22,-0.5 L 7.5,13.38 V 13.34 M 6.7,17.67 C 6.38,17.6 6.14,17.49 5.84,17.45 5.54,17.41 5,17.34 4.9,17.34 A 0.89,0.89 0 0 1 4.54,17.23 L 4.28,17.06 c -0.06,0 -0.25,-0.14 -0.2,-0.3 A 3.76,3.76 0 0 1 4.28,16.3 C 4.35,16.15 4.42,16 4.5,15.85 4.58,15.7 5.14,15.35 5.21,15.22 a 2.43,2.43 0 0 1 0.17,-0.6 1.55,1.55 0 0 1 1.47,-1 c 0.24,0 0.83,0.08 0.68,0.68 A 1,1 0 0 1 7.43,14.59 2.67,2.67 0 0 1 7,15.16 1,1 0 0 1 6.24,15.49 c -0.06,0 -0.1,0 -0.12,0.08 A 1.43,1.43 0 0 1 5.66,16.2 1.56,1.56 0 0 1 5.21,16.46 3.69,3.69 0 0 1 5.63,16.63 C 5.9,16.76 6.35,17 6.54,17.07 a 2.09,2.09 0 0 0 0.59,0.17 3.22,3.22 0 0 0 0.6,-0.13 0.81,0.81 0 0 1 0.22,0 H 8.2 a 0.19,0.19 0 0 1 0.14,0.09 0.53,0.53 0 0 0 0.2,0.16 l 0.17,0.05 0.1,0.06 a 0.06,0.06 0 0 1 0,0.08 v 0 a 0.2,0.2 0 0 1 -0.15,0 H 8.24 a 0.37,0.37 0 0 1 -0.4,0.09 C 7.55,17.58 7.43,17.5 7.33,17.5 a 1.62,1.62 0 0 1 -0.62,0 m -2.85,5.74 a 0.94,0.94 0 0 1 -0.79,-1 1.43,1.43 0 0 1 0.76,-1.17 2.12,2.12 0 0 1 0.9,-0.1 5.67,5.67 0 0 1 1,0.18 2.15,2.15 0 0 0 0.62,0 3,3 0 0 0 0.52,-0.1 0.16,0.16 0 0 1 0.16,0.07 0.27,0.27 0 0 1 -0.11,0.17 0.9,0.9 0 0 1 -0.53,0.17 2.43,2.43 0 0 1 -0.66,0 c -0.19,0 -0.84,-0.19 -1,-0.21 A 1.3,1.3 0 0 0 4,21.34 a 1.34,1.34 0 0 0 -0.61,0.95 0.71,0.71 0 0 0 0.26,0.56 0.41,0.41 0 0 0 0.28,0.13 0.24,0.24 0 0 1 0.23,0.06 c 0.1,0.07 0,0.16 0,0.18 0,0.02 -0.08,0.06 -0.27,0 M 5,22.55 H 4.88 A 3.94,3.94 0 0 1 4.4,22.73 0.63,0.63 0 0 1 3.92,22.62 C 3.8,22.55 3.81,22.3 3.84,22.16 3.91,21.85 4.39,21.24 4.75,21.3 c 0.36,0.06 0.41,0.09 0.9,0.21 h 0.11 c 0.13,0 0.79,0.23 0.38,0.56 a 2.39,2.39 0 0 1 -0.52,0.22 2.23,2.23 0 0 0 -0.67,0.19 m 12.73,-3.57 a 2.45,2.45 0 0 1 -1.35,0.92 c -0.48,0.08 -1,0.1 -1.61,0.15 -0.61,0.05 -1.15,0.07 -1.69,0.12 a 9.36,9.36 0 0 0 -1.67,0.17 3.26,3.26 0 0 0 -0.72,0.31 l -0.43,0.3 c -0.16,0 -0.22,-0.42 -0.13,-0.67 A 1,1 0 0 0 10.2,19.61 1.65,1.65 0 0 0 10.02,19 c 0,-0.08 0,-0.16 -0.09,-0.18 a 0.12,0.12 0 0 0 -0.16,0.06 c 0,0 0,0 0,0 a 0.28,0.28 0 0 0 0,0.22 2.53,2.53 0 0 1 0.09,0.55 1.09,1.09 0 0 1 -0.17,0.58 0.17,0.17 0 0 0 0,0.14 v 0.62 c 0,0.1 0,0.26 -0.07,0.32 v 0 l -0.3,0.27 v 0 c -0.08,0 -0.16,-0.25 -0.16,-0.34 a 4.51,4.51 0 0 0 0,-0.52 v -0.26 c 0,-0.07 0,-0.19 -0.09,-0.1 A 1,1 0 0 0 9,20.93 v 0.66 a 0.57,0.57 0 0 1 -0.07,0.42 v 0 A 0.17,0.17 0 0 1 8.87,22.07 1.84,1.84 0 0 0 8.7,22.29 C 8.62,22.35 8.53,22.39 8.52,22.22 A 4.91,4.91 0 0 0 8.45,21.36 c 0,-0.22 0,-0.43 0,-0.65 0,-0.22 0,-0.27 -0.11,-0.26 -0.11,0.01 -0.07,0.23 -0.07,0.36 a 13.51,13.51 0 0 1 0,1.57 c -0.06,0.38 0,0.58 -0.16,0.69 -0.16,0.11 -0.34,0.09 -0.34,-0.15 a 9.55,9.55 0 0 0 0,-1.07 v -1.32 c 0,0 -0.09,-0.11 -0.12,0 a 1.13,1.13 0 0 0 0,0.26 c 0,0.12 0.08,0.95 0.08,1.1 a 5.93,5.93 0 0 1 -0.05,0.94 c 0,0.09 -0.07,0.13 -0.16,0.1 -0.09,-0.03 -0.13,-0.07 -0.14,-0.22 -0.01,-0.15 0,-0.56 0,-0.87 v -2.5 H 7.3 a 0.69,0.69 0 0 1 0.28,-0.08 c 0.08,0 0.2,0 0.22,0.14 A 1.13,1.13 0 0 1 7.88,20 c -0.07,0.19 -0.22,0.28 -0.22,0.34 0,0.06 0.1,0.08 0.18,0 A 1.05,1.05 0 0 0 8.13,19.84 0.9,0.9 0 0 0 8,19.39 C 7.89,19.23 7.79,19.2 7.79,19.14 c 0,-0.06 0.05,-0.37 0.15,-0.41 a 0.42,0.42 0 0 1 0.27,0 0.61,0.61 0 0 1 0.42,0.6 2.62,2.62 0 0 1 -0.19,0.73 0.56,0.56 0 0 1 -0.16,0.24 v 0.15 H 8.33 A 1,1 0 0 0 8.72,19.9 2.25,2.25 0 0 0 8.78,19.27 1.42,1.42 0 0 0 8.7,18.86 0.46,0.46 0 0 0 8.54,18.68 7.75,7.75 0 0 0 9.81,18.85 H 10 c 0.65,0 1.47,-0.25 2.1,-0.3 0.63,-0.05 1.43,-0.09 2.13,-0.19 1,-0.14 2.07,-0.24 3.1,-0.43 0.41,-0.07 1.23,-0.31 1.2,-0.18 a 0.75,0.75 0 0 1 -0.17,0.3 c -0.24,0.32 -0.46,0.68 -0.72,1 m 0.77,-0.59 c -0.08,-0.07 0,-0.19 0,-0.26 a 1.64,1.64 0 0 1 0.35,-0.29 c 0,0 0.1,0 0.09,0.06 -0.01,0.06 -0.39,0.56 -0.47,0.49 m 1,-1.1 c -0.06,0 -0.08,-0.15 0,-0.19 0.08,-0.04 0.22,-0.08 0.24,0 0.02,0.08 -0.14,0.24 -0.2,0.21 m 2.12,-1 a 60.85,60.85 0 0 1 -7.8,1.57 5.09,5.09 0 0 1 -1.29,0.07 c 0,-0.05 0.19,-0.05 0.27,-0.07 0.73,-0.1 1.48,-0.18 2.17,-0.3 0.69,-0.12 1.61,-0.29 2.41,-0.45 1.58,-0.31 3.1,-0.73 4.56,-1.12 0,0 0.19,-0.06 0.19,0.08 0,0.14 -0.39,0.19 -0.51,0.22 m 3.58,-4 c 0.22,-0.17 0.59,-0.51 0.67,-0.48 0.08,0.03 0.11,0.28 0,0.36 -0.11,0.08 -0.15,0 -0.21,0.07 -0.34,0.13 -0.57,0.82 -0.76,0.72 -0.19,-0.1 0.15,-0.49 0.28,-0.67 m -1.86,0.65 c 0,-0.21 0.44,-0.23 0.72,-0.19 a 2.55,2.55 0 0 1 0.86,0.46 l 0.42,0.23 a 2.28,2.28 0 0 1 0.61,0.24 1.61,1.61 0 0 1 0.31,0.38 c 0.07,0.35 -0.34,0.32 -0.5,0.17 -0.16,-0.15 -0.09,-0.23 -0.2,-0.27 a 0.63,0.63 0 0 0 -0.45,0 c -0.12,0.07 0.15,0.16 0.17,0.29 a 1.4,1.4 0 0 1 0,0.29 v 0.19 c 0,0.05 -0.24,0.3 -0.38,0.22 -0.14,-0.08 0.14,-0.23 0.13,-0.4 a 3,3 0 0 1 -0.73,0 1.3,1.3 0 0 1 -0.66,-0.52 c -0.11,-0.13 -0.23,-0.23 -0.22,-0.41 0.01,-0.18 0.29,0 0.42,-0.05 0.06,-0.24 -0.19,-0.24 -0.31,-0.32 a 0.38,0.38 0 0 1 -0.18,-0.35 m -0.19,2.58 a 0.67,0.67 0 0 1 0.2,-0.31 c 0.28,-0.19 1.23,-0.28 1.3,-0.13 0.07,0.15 -0.54,0.45 -0.92,0.51 -0.14,0 -0.54,0.07 -0.58,-0.07 m -9.6,14.77 c 0,0.11 -0.12,0.59 -0.23,0.59 -0.11,0 -0.18,-0.26 -0.23,-0.36 -0.05,-0.1 -0.18,-0.27 -0.24,-0.41 0.11,0 0.17,0.07 0.29,0.08 h 0.35 v 0 0 m -8.64,-3.8 v 0 a 0.21,0.21 0 0 1 0.06,-0.1 c 0,-0.07 0.1,-0.13 0.14,-0.2 a 1.65,1.65 0 0 0 0.22,-0.36 7.58,7.58 0 0 0 0.23,-0.94 v 0 -0.12 c 0,-0.05 0.07,-0.13 0.12,-0.2 v 0 a 0.34,0.34 0 0 1 0.16,-0.1 0.18,0.18 0 0 1 0.17,0.06 1,1 0 0 1 0.11,0.54 v 0.16 H 6 v 0.29 A 3.82,3.82 0 0 1 5.67,26.4 C 5.59,26.61 5.52,27.17 5.3,27.27 5.08,27.37 4.95,27.13 4.85,26.95 A 0.94,0.94 0 0 1 4.66,26.53 v -0.06 m 1.55,-1.75 c -0.17,-0.05 -0.23,-0.6 0.05,-0.53 0.28,0.07 0,0.44 -0.05,0.53 m -0.53,2.19 a 9.36,9.36 0 0 1 0.54,-1.45 c 0.07,-0.15 0.1,-0.42 0.32,-0.39 0.22,0.03 0,0.54 -0.12,0.79 a 8.36,8.36 0 0 1 -0.49,1.48 c 0,0.06 -0.12,0.28 -0.25,0.19 -0.13,-0.09 0.05,-0.46 0.1,-0.63 m 3,-1.59 A 0.39,0.39 0 0 1 8.88,25.23 0.5,0.5 0 0 1 9,25.34 c 0,0 -0.33,0.63 -0.41,0.62 C 8.51,25.95 8.73,25.49 8.82,25.3 M 10,26.66 h 0.05 l 0.09,0.05 v 0 l 0.2,0.09 c 0,0.06 0.05,0.1 0.07,0.15 l 0.15,0.38 a 1.22,1.22 0 0 1 0.17,0.55 1.06,1.06 0 0 1 -0.5,0 7.12,7.12 0 0 1 -1.46,0 3,3 0 0 1 0.62,-1.73 l 0.24,0.17 a 2.75,2.75 0 0 0 0.33,0.23 m 0.75,0.34 0.23,0.08 0.09,0.18 v 0.12 0 a 1.23,1.23 0 0 1 0.1,0.46 c -0.21,0.06 -0.3,-0.19 -0.38,-0.34 l -0.13,-0.27 c 0,-0.1 -0.08,-0.2 -0.11,-0.29 l 0.15,0.06 m 1.25,0.69 h 0.15 a 1,1 0 0 1 -0.23,0.49 0.17,0.17 0 0 1 -0.16,-0.06 v -0.08 0 m 0.53,-0.31 v 0 l 0.09,-0.05 v 0 a 2.18,2.18 0 0 1 0.22,1.15 v 0 a 0.27,0.27 0 0 1 -0.11,-0.1 1.59,1.59 0 0 1 -0.12,-0.27 1.91,1.91 0 0 1 -0.13,-0.62 v -0.11 m 0.57,2.48 c -0.1,0.1 -0.36,-0.08 -0.37,-0.21 a 0.17,0.17 0 0 1 0.14,-0.19 h 0.07 c 0.1,0 0.26,0.29 0.16,0.4 m -0.48,-1.31 a 1.05,1.05 0 0 1 0.07,0.43 c 0,0.18 -0.17,0.35 -0.18,0.52 a 0.89,0.89 0 0 1 -0.15,-0.31 2.31,2.31 0 0 1 0.1,-0.28 1.91,1.91 0 0 0 0.1,-0.53 0.49,0.49 0 0 0 0.06,0.17 m -0.35,0 a 1.93,1.93 0 0 1 -0.48,0 1.09,1.09 0 0 1 -0.1,-0.5 c 0.11,-0.1 0.36,0 0.53,0 a 0.68,0.68 0 0 1 0.05,0.54 M 12,27.34 v 0 0.07 0 0.07 0 0.07 a 0.36,0.36 0 0 1 -0.43,0.13 c -0.13,0 -0.17,-0.2 -0.22,-0.35 v 0 -0.06 0 -0.06 0 a 5.2,5.2 0 0 1 0.87,0.12 v 0.08 m -0.64,0.93 c -0.17,0.12 -0.32,0 -0.51,-0.06 a 11,11 0 0 0 -1.15,0 H 8.81 v -0.12 a 11.21,11.21 0 0 1 1.64,0 c 0.31,0 0.61,-0.07 0.92,-0.08 a 0.22,0.22 0 0 1 0.22,0.22 0.17,0.17 0 0 1 0,0.07 M 8.8,26.17 a 2.66,2.66 0 0 1 0.26,-0.6 c 0.11,0.17 0.2,0.35 0.31,0.5 -0.09,0.16 -0.25,0.49 -0.38,0.68 A 0.22,0.22 0 0 1 8.7,26.8 v -0.05 a 1.12,1.12 0 0 1 0.15,-0.62 m 0,2.41 v 0 a 20.79,20.79 0 0 1 2.23,0.09 1.72,1.72 0 0 1 0.07,0.21 c 0,0.08 0.09,0.16 0.09,0.22 a 1.44,1.44 0 0 1 -0.2,0.39 c -0.41,0.78 -0.8,1.48 -1.25,2.26 a 1.2,1.2 0 0 1 -0.25,0.34 c -0.12,0 -0.22,-0.3 -0.27,-0.4 C 9.22,31.55 9.15,31.3 9.1,31.16 a 4.43,4.43 0 0 1 -0.3,-1 5.67,5.67 0 0 1 0,-1.54 m 1,3.41 c 0.38,-0.69 0.78,-1.39 1.16,-2.07 0,-0.09 0.12,-0.34 0.21,-0.38 a 0.12,0.12 0 0 1 0.16,0.06 v 0 a 1.84,1.84 0 0 1 -0.17,0.38 c -0.36,0.72 -0.74,1.37 -1.15,2.08 0,0.08 -0.13,0.32 -0.26,0.28 -0.13,-0.04 0,-0.31 0,-0.35 m 0.34,0.14 c 0.3,-0.69 0.75,-1.27 1.08,-1.92 0.14,-0.29 0.24,-0.75 0.47,-0.88 0.23,-0.13 0.23,0.11 0.3,0.26 0.26,0.53 0.41,0.91 0.69,1.46 0.09,0.18 0.27,0.4 0.26,0.61 a 1.76,1.76 0 0 1 -0.37,0.78 1.55,1.55 0 0 1 -1.1,0.79 2,2 0 0 1 -1.18,-0.19 0.65,0.65 0 0 1 -0.32,-0.48 1.33,1.33 0 0 1 0.17,-0.43 m 2.18,-2.23 c -0.05,-0.11 -0.26,-0.56 0,-0.53 0.26,0.03 0.21,0.34 0.26,0.43 l 0.45,0.9 c 0.1,0.22 0.28,0.44 0.17,0.69 -0.13,0 -0.17,-0.13 -0.23,-0.22 a 7.51,7.51 0 0 1 -0.63,-1.27 m -3.7,-5 a 0.25,0.25 0 0 1 -0.34,0.08 v 0 C 8.19,24.64 8.74,24.63 8.62,24.96 M 5,24.51 a 1.76,1.76 0 0 1 0.55,-0.69 1.08,1.08 0 0 1 0.5,-0.09 c 0.69,0.06 1.13,0.64 1.82,0.68 a 4.51,4.51 0 0 1 0.52,0 c 0,0.12 -0.23,0.16 -0.36,0.17 A 1.69,1.69 0 0 1 7.12,24.41 C 6.73,24.2 6.57,23.92 5.97,24 a 1.39,1.39 0 0 0 -0.59,0.39 2,2 0 0 0 -0.16,0.33 c 0,0.08 -0.09,0.31 -0.19,0.29 -0.1,-0.02 -0.08,-0.36 0,-0.48 m -0.64,1.22 a 4.3,4.3 0 0 0 0.07,-0.95 0.06,0.06 0 0 1 0,-0.06 c 0.18,0 0.2,0.53 0.17,0.78 a 1.22,1.22 0 0 1 -0.28,0.61 c -0.21,-0.06 0,-0.22 0,-0.38 m 0.23,1.39 C 4.5,26.99 4.44,26.9 4.38,26.76 a 0.85,0.85 0 0 1 0.25,-0.13 2.43,2.43 0 0 0 0.2,0.35 c 0.07,0.11 0.2,0.25 0.2,0.35 a 0.16,0.16 0 0 1 -0.18,0.16 v 0 c -0.09,0 -0.19,-0.26 -0.25,-0.35 m 0.54,1.2 c -0.23,0.07 -0.45,-0.05 -0.67,0 -0.22,0.05 -0.16,0.14 -0.28,0.14 -0.34,0 -0.32,-0.56 0,-0.59 0.12,0 0.19,0.11 0.3,0.13 0.11,0.02 0.72,-0.13 0.73,0.16 0,0.08 0,0.09 -0.08,0.16 m 0.58,0.4 a 0.5,0.5 0 0 1 -0.34,0 c -0.19,-0.15 0,-0.45 0,-0.71 0,-0.26 -0.23,-0.21 -0.2,-0.36 0.03,-0.15 0.44,0.06 0.54,0.15 0.1,0.09 0.19,0.25 0.31,0.29 a 0.91,0.91 0 0 0 0.33,0 H 7 a 1.35,1.35 0 0 1 0.6,0.05 0.15,0.15 0 0 1 0,0.16 4.18,4.18 0 0 1 -1,0 1.51,1.51 0 0 0 -0.52,0 c -0.14,0.05 -0.18,0.3 -0.36,0.36 m 1.37,3 C 6.95,31.68 6.82,31.32 6.77,31.22 6.57,30.88 6.41,30.56 6.22,30.22 6.14,30.07 5.96,29.8 6,29.67 c 0.04,-0.13 0.33,0.3 0.41,0.44 0.2,0.33 0.39,0.71 0.6,1 0.07,0.11 0.42,0.56 0.08,0.55 m 0.6,-2.32 a 10.42,10.42 0 0 1 -0.16,1.25 c 0,0.22 -0.06,0.49 -0.21,0.5 C 7.17,31.1 7,30.77 6.9,30.62 6.66,30.22 6.46,29.91 6.24,29.5 A 1.27,1.27 0 0 1 6,28.83 c 0.07,-0.29 0.52,-0.25 0.86,-0.27 0.34,-0.02 0.7,-0.06 0.8,0.12 a 2.43,2.43 0 0 1 0,0.66 M 7.5,26.43 a 6.12,6.12 0 0 0 0.15,0.69 1.52,1.52 0 0 1 0,0.74 0.62,0.62 0 0 1 -0.32,0.11 6.89,6.89 0 0 1 -1.11,-0.06 c -0.26,-0.25 -0.09,-0.66 0,-1 0.09,-0.34 0.3,-0.74 0.46,-1.16 0.09,-0.24 0.16,-0.58 0.33,-0.55 0.17,0.03 0.24,0.38 0.3,0.55 a 5,5 0 0 1 0.16,0.67 m 6.64,4.59 a 4.36,4.36 0 0 1 -0.7,1.73 5,5 0 0 1 -1.29,1.14 l -0.28,0.13 c -0.07,0 -0.25,0.13 -0.28,0 -0.03,-0.13 0.24,-0.19 0.35,-0.27 a 5.31,5.31 0 0 0 0.71,-0.54 c 0.1,-0.08 0.29,-0.27 0.24,-0.33 -0.05,-0.06 -0.22,0.1 -0.29,0.17 a 2,2 0 0 1 -1.24,0.65 1.6,1.6 0 0 1 -0.78,-0.08 c 0,0 -0.35,-0.14 -0.4,-0.05 -0.05,0.09 0.32,0.17 0.33,0.33 0.01,0.16 -0.35,0 -0.45,-0.11 a 3.71,3.71 0 0 1 -1.57,-2 C 8.41,31.66 8.31,31.4 8.39,31.35 c 0.08,-0.05 0.11,0.14 0.15,0.22 0.22,0.38 0.48,0.79 0.72,1.17 0.1,0.14 0.31,0.43 0.37,0.38 C 9.69,33.07 9.36,32.66 9.22,32.42 9.08,32.18 8.8,31.76 8.86,31.68 8.92,31.6 9.05,31.89 9.11,32.01 a 3.06,3.06 0 0 0 1.24,1.33 1.74,1.74 0 0 0 0.8,0.24 1.68,1.68 0 0 0 1.09,-0.41 4.71,4.71 0 0 0 1.41,-2.32 c 0.07,-0.2 0.14,-0.58 0.33,-0.6 0.19,-0.02 0.21,0.51 0.16,0.8 m 1.62,0.76 c 0,-0.12 0.2,-0.25 0.27,-0.34 0.26,-0.31 0.47,-0.85 0.69,-1.12 0,0 0.1,-0.1 0.14,-0.1 0.04,0 0.18,0.06 0.2,0.14 0.02,0.08 -0.09,0.28 -0.13,0.42 -0.04,0.14 0,0.24 -0.11,0.34 -0.11,0.1 -0.53,0.35 -0.56,0.63 -0.03,0.28 0.09,0.25 0.06,0.38 a 0.23,0.23 0 0 1 -0.22,0.18 c -0.16,0 -0.37,-0.34 -0.34,-0.53 m 0,2.12 c -0.08,-0.13 0.23,-0.55 0.5,-0.53 a 0.51,0.51 0 0 1 0.32,0.27 c 0,0.29 -0.73,0.38 -0.82,0.26 m 1.34,-0.44 a 0.63,0.63 0 0 1 -0.59,-0.42 0.55,0.55 0 0 1 0.37,-0.41 c 0.21,0 0.43,0.66 0.22,0.83 m 0,-1.06 c -0.24,-0.07 -0.51,-0.34 -0.43,-0.6 A 2.37,2.37 0 0 1 17,31.44 v 0 a 2.39,2.39 0 0 1 0.37,0.15 c 0,0.42 -0.2,0.58 -0.3,0.88 m 1.49,1.14 c 0.08,0.19 -0.17,0.26 -0.39,0.21 -0.22,-0.05 -0.29,-0.11 -0.29,-0.23 v 0 c 0.06,-0.14 0.6,-0.13 0.67,0.07 m -0.66,-0.89 c -0.09,0.11 -0.17,0.26 -0.36,0.16 -0.18,-0.43 0.05,-0.83 0.1,-1.22 l 0.57,0.07 a 1.39,1.39 0 0 1 -0.31,1 m 6.76,-3.82 c 0,-0.14 0.31,-0.23 0.51,-0.17 a 0.31,0.31 0 0 1 0.23,0.14 c 0.17,0.28 -0.66,0.36 -0.74,0.12 a 0.14,0.14 0 0 1 0,-0.09 m 7.36,-1 h 0.87 c 0.07,0 0.59,-0.08 0.56,0.12 -0.03,0.2 -0.64,0.21 -0.81,0.23 a 4.34,4.34 0 0 1 -0.51,0 2.73,2.73 0 0 1 -0.7,0 0.19,0.19 0 0 1 -0.17,-0.16 c 0,-0.08 0.57,-0.14 0.76,-0.15 m 9.13,-4.51 c 0.09,-0.15 0.66,0.13 0.54,0.37 -0.12,0.24 -0.63,-0.23 -0.54,-0.37 M 37,19.15 a 0.82,0.82 0 0 0 0.2,0.12 c 0.11,0.06 0.29,0.07 0.32,0.19 0.03,0.12 -0.17,0.37 -0.26,0.44 -0.09,0.07 -0.24,0.13 -0.22,0.22 0.02,0.09 0.38,0 0.45,0 a 0.68,0.68 0 0 1 0.44,0.12 0.54,0.54 0 0 1 0.23,0.52 1.77,1.77 0 0 1 -0.22,0.67 c -0.06,0.09 -0.25,0.3 -0.37,0.32 -0.12,0.02 -0.38,-0.14 -0.53,-0.21 -0.32,-0.17 -0.66,-0.33 -1,-0.47 a 1.29,1.29 0 0 0 -0.79,-0.17 4.46,4.46 0 0 0 -0.5,0.22 1.25,1.25 0 0 1 -0.53,0.19 c -0.2,0 -0.37,-0.3 -0.45,-0.53 a 6,6 0 0 1 -0.13,-0.74 2.21,2.21 0 0 1 -0.18,-0.51 1.69,1.69 0 0 1 0.12,-0.44 1.66,1.66 0 0 1 0.08,-0.61 3.49,3.49 0 0 0 0.06,-0.65 v -0.3 a 1,1 0 0 1 0.46,-0.11 7.61,7.61 0 0 0 1.42,-0.29 c 0.27,-0.1 0.54,-0.21 0.8,-0.33 a 7.59,7.59 0 0 1 0.77,-0.35 c 0.17,-0.06 0.28,0.05 0.36,0.21 v 0.11 a 3.21,3.21 0 0 1 0.31,1.83 0.55,0.55 0 0 1 -0.23,0.47 c -0.29,0.14 -0.77,-0.13 -0.83,-0.05 -0.06,0.08 0.1,0.12 0.16,0.16 m -3,-2 c 0.36,-0.07 0.76,-0.11 1.14,-0.17 0.38,-0.06 1.36,-0.42 1.42,-0.38 0.06,0.04 -0.15,0.13 -0.24,0.18 a 4.76,4.76 0 0 1 -1.56,0.53 c -0.35,0.05 -1,0.14 -1,0 0,-0.14 0.2,-0.13 0.3,-0.15 m 5,-1.95 a 6,6 0 0 1 -0.93,0.51 c -0.13,0.07 -0.35,0.24 -0.52,0.19 h -0.06 l -0.06,-0.12 a 1.4,1.4 0 0 1 -0.19,-0.53 c 0,-0.16 0.3,-0.28 0.48,-0.39 a 1.94,1.94 0 0 1 0.57,-0.3 1.4,1.4 0 0 1 0.88,0.09 c 0.09,0.05 0.15,0.11 0.15,0.19 0,0.08 -0.22,0.32 -0.32,0.39 m -1.1,-2.64 a 7.09,7.09 0 0 1 1,0.38 8,8 0 0 1 0.88,0.54 c 0.17,0.1 0.4,0.19 0.34,0.44 -0.06,0.25 -0.16,0.2 -0.28,0.27 l -0.14,0.1 c -0.3,0.09 -0.62,-0.12 -0.84,-0.18 -0.22,-0.06 -0.2,-0.33 -0.34,-0.45 -0.14,-0.12 -0.22,-0.08 -0.2,-0.17 0.02,-0.09 0.13,-0.09 0.21,-0.08 0.08,0.01 0.46,0.18 0.5,0.12 0.04,-0.06 -0.26,-0.22 -0.43,-0.29 -0.17,-0.07 -0.51,-0.23 -0.75,-0.36 0,-0.09 -0.09,-0.26 0,-0.32 m -3.1,0.49 a 0.51,0.51 0 0 1 0.26,-0.22 c 0.17,0.16 0.36,0 0.5,-0.08 0.14,-0.08 0.47,0 0.65,0 0.18,0 0.11,0.18 0.18,0.19 0.07,0.01 0.13,-0.09 0.14,-0.12 0.01,-0.03 -0.11,-0.23 -0.15,-0.23 a 0.29,0.29 0 0 1 -0.19,-0.34 c 0.08,-0.09 0.25,0 0.36,0 0.11,0 0.09,-0.15 0.17,-0.2 a 1.9,1.9 0 0 1 0.54,0 c 0.2,0 0.54,0.11 0.53,0.31 a 0.22,0.22 0 0 1 -0.16,0.19 c -0.18,0 -0.44,0 -0.5,0.09 -0.06,0.09 0.42,0.26 0.58,0.5 a 1.36,1.36 0 0 1 0.16,0.84 1.13,1.13 0 0 1 -0.72,0.61 0.85,0.85 0 0 1 -0.22,0.09 c -0.33,0 -0.36,-0.32 -0.48,-0.53 -0.36,0.07 -0.12,0.34 0,0.57 0.12,0.23 0.47,0.72 0.69,1.1 v 0 a 0.31,0.31 0 0 1 0.06,0.19 c 0,0.17 -0.58,0.29 -0.75,0.35 a 12.61,12.61 0 0 1 -2.71,0.59 0.35,0.35 0 0 1 -0.15,-0.17 0.34,0.34 0 0 0 0,-0.22 v -0.29 c 0.09,-0.2 0.28,-0.19 0.56,-0.27 0.28,-0.08 0.28,-0.15 0.45,-0.13 h 0.08 l 0.08,0.06 0.21,0.13 v 0 c 0.2,0.1 0.41,0.19 0.47,0.16 0.06,-0.03 0,-0.22 0,-0.32 0,-0.1 0.35,0.07 0.5,0 0.15,-0.07 0.14,-0.25 0.16,-0.43 0.02,-0.18 0.15,-0.15 0.17,-0.26 a 1.29,1.29 0 0 0 -0.29,-0.61 7.74,7.74 0 0 0 -0.92,-0.89 c -0.14,-0.13 -0.41,-0.34 -0.41,-0.49 0,-0.15 0.13,-0.21 0.19,-0.29 m -0.67,0.41 c 0.1,-0.16 0.43,0.14 0.62,0.3 a 8.23,8.23 0 0 1 0.85,0.82 c 0.13,0.15 0.36,0.29 0.31,0.5 h -0.54 c -0.12,0 -0.09,0.21 -0.16,0.29 -0.07,0.08 -0.31,-0.19 -0.45,-0.31 a 5.41,5.41 0 0 1 -0.43,-0.35 0.42,0.42 0 0 1 -0.14,-0.27 c 0,-0.13 0.21,-0.18 0.23,-0.31 0,-0.29 -0.38,-0.5 -0.29,-0.66 m 0.12,2 h 0.09 c 0.07,0.31 -0.2,0.37 -0.46,0.44 -0.26,0.07 -0.38,0.18 -0.52,0.09 v 0 -0.11 c 0,-0.12 -0.21,-0.38 -0.18,-0.49 0.03,-0.11 0.23,-0.1 0.37,-0.1 a 2.57,2.57 0 0 1 0.78,0.15 m -2.83,-2.64 c 0.2,0 0.33,-0.23 0.54,-0.23 a 0.68,0.68 0 0 1 0.36,0.15 c 0.1,0.08 0.14,0.22 0.25,0.27 h 0.33 a 1.15,1.15 0 0 1 0.35,0.22 c 0.13,0.1 0.3,0.2 0.32,0.37 a 1,1 0 0 1 -0.37,0.7 c -0.13,0.16 -0.22,0.33 -0.45,0.37 a 1.08,1.08 0 0 1 -1,-0.55 1,1 0 0 1 -0.08,-0.29 c 0,-0.15 0.16,-0.32 0.08,-0.37 -0.08,-0.05 -0.17,0.07 -0.22,0.16 a 1.09,1.09 0 0 0 0,0.62 2.59,2.59 0 0 0 0.44,0.59 5.85,5.85 0 0 1 0.54,0.45 1.64,1.64 0 0 1 0.32,0.54 0.39,0.39 0 0 1 0,0.3 c -0.09,0.18 -0.62,0.3 -0.87,0.36 -0.66,0.16 -1.34,0.31 -2,0.42 a 7.49,7.49 0 0 1 -1.06,0.13 c -0.06,0 -0.06,0 -0.06,-0.07 0,-0.07 0.1,-0.33 0.18,-0.34 0.08,-0.01 0.36,0.38 0.58,0.09 0,-0.12 -0.12,-0.16 -0.07,-0.28 0.05,-0.12 0.4,0 0.51,0 a 0.53,0.53 0 0 0 0.4,-0.28 v -0.23 a 2.77,2.77 0 0 0 0.12,-0.41 2.85,2.85 0 0 0 -0.16,-0.87 c -0.09,-0.27 -0.34,-0.46 -0.29,-0.82 a 2.06,2.06 0 0 1 0.35,-0.61 l 0.21,-0.27 a 1.38,1.38 0 0 1 0.19,-0.28 c 0.13,-0.11 0.51,-0.22 0.53,0.07 m -3.13,4 v -0.06 c 0,-0.16 0.28,-0.19 0.39,-0.19 0.11,0 0.06,0 0.08,0.06 0.02,0.06 0,0 0,0.06 a 0.64,0.64 0 0 1 -0.27,0.39 1,1 0 0 1 -0.21,-0.26 m 0.91,0.37 c 0.48,-0.09 1,-0.13 1.45,-0.23 a 14.9,14.9 0 0 1 1.84,-0.4 c 0,0.07 -0.23,0.15 -0.37,0.19 a 11.92,11.92 0 0 1 -3.13,0.63 h -0.21 a 3.22,3.22 0 0 1 0.42,-0.14 M 30,12.93 a 2.74,2.74 0 0 1 0.85,-1 c 0.11,-0.07 0.26,0.09 0.26,0.19 0,0.1 -0.23,0.31 -0.31,0.4 A 4.82,4.82 0 0 0 30,13.87 c -0.44,-0.11 -0.11,-0.53 0.06,-0.82 m -1.27,1.18 c 0.16,0 0.33,0.19 0.39,0.12 0.06,-0.07 -0.18,-0.33 -0.24,-0.52 a 0.3,0.3 0 0 1 0,-0.29 c 0.07,-0.14 0.41,0 0.54,0.12 a 4.35,4.35 0 0 1 0.93,1.39 c 0,0.1 0.06,0.2 0.08,0.3 0.02,0.1 0,0.27 -0.11,0.27 -0.11,0 -0.11,-0.22 -0.19,-0.23 -0.08,-0.01 -0.05,0.54 -0.27,0.61 -0.22,0.07 -0.22,-0.11 -0.25,-0.19 a 2.88,2.88 0 0 1 0,-0.51 c 0,-0.13 -0.2,-0.17 -0.33,-0.28 a 4,4 0 0 1 -0.29,-0.3 2.44,2.44 0 0 1 -0.27,-0.29 v -0.2 m -1,1.26 a 4.87,4.87 0 0 0 0.76,0.15 c 0.13,0.12 0.3,0.22 0.3,0.43 a 0.38,0.38 0 0 1 0,0.15 l -0.05,0.08 a 2,2 0 0 1 -0.6,0.06 c -0.06,0 -0.1,-0.07 -0.15,-0.13 v 0 a 3.92,3.92 0 0 1 -0.32,-0.65 c 0,-0.08 0.06,-0.1 0.1,-0.08 m -3.42,1.28 a 27.82,27.82 0 0 0 2.78,-0.18 c 0.16,0 0.34,-0.06 0.48,-0.06 0.14,0 0.17,0 0.18,0.09 0.01,0.09 -0.23,0.11 -0.29,0.12 -0.78,0.1 -1.78,0.09 -2.59,0.16 -0.28,0 -0.87,0.08 -0.89,0 -0.02,-0.08 0.23,-0.1 0.33,-0.1 m 4.47,4.21 a 0.75,0.75 0 0 1 -0.42,0 C 27.7,20.88 26.94,20.55 26.21,20.44 a 1.75,1.75 0 0 0 -0.56,0 c -0.2,0 -0.33,0.19 -0.57,0.21 C 24.86,20.42 25,20.1 24.93,19.82 24.86,19.54 24.75,19.53 24.7,19.38 a 2.36,2.36 0 0 1 -0.1,-0.46 8.74,8.74 0 0 0 -0.25,-1.43 v 0 a 0.33,0.33 0 0 1 0,-0.14 c 0,-0.18 0.48,-0.2 0.72,-0.22 0.87,-0.07 1.79,-0.15 2.58,-0.2 a 0.54,0.54 0 0 1 0.39,0.1 0.46,0.46 0 0 1 0.14,0.17 v 0.14 a 3.15,3.15 0 0 1 0.2,1.1 c 0,0.41 0,0.88 -0.27,1.05 a 0.76,0.76 0 0 1 -0.49,0.08 c -0.08,0 -0.21,-0.06 -0.26,0 -0.05,0.06 0.14,0.11 0.21,0.13 l 0.27,0.11 c 0.18,0.07 0.41,0.11 0.57,0.19 a 1,1 0 0 1 0.43,0.54 0.67,0.67 0 0 1 0,0.52 m 0.31,-0.63 a 1.79,1.79 0 0 0 -0.22,-0.38 c -0.06,-0.08 -0.22,-0.24 -0.24,-0.35 -0.02,-0.11 0.11,-0.46 0.12,-0.71 0.01,-0.25 -0.09,-0.84 -0.09,-1.19 v -0.07 0 c 0,0 0.65,-0.14 1,-0.19 l 1,-0.17 c 0.64,-0.14 1.27,-0.34 1.87,-0.45 a 1.41,1.41 0 0 1 0.41,0 0.41,0.41 0 0 1 0.23,0.2 0.67,0.67 0 0 0 0.05,0.31 3.34,3.34 0 0 1 0,1.18 4.32,4.32 0 0 1 -0.11,0.54 c 0,0.2 -0.06,0.63 -0.33,0.71 a 1.81,1.81 0 0 1 -1,-0.16 c 0.06,0.44 0.71,0.34 1.08,0.49 0.14,0.05 0.24,0.23 0.3,0.35 a 0.55,0.55 0 0 1 0.06,0.5 c -0.27,0 -0.4,-0.2 -0.57,-0.3 a 2,2 0 0 0 -0.75,-0.3 c -0.21,0 -0.42,0.07 -0.65,0.08 H 31 a 1.81,1.81 0 0 0 -0.73,0.49 c -0.13,0.1 -0.48,0.52 -0.67,0.54 a 0.43,0.43 0 0 1 -0.22,-0.09 c -0.08,-0.32 -0.05,-0.7 -0.16,-1 m 0.33,2 c 0,-0.19 -0.14,-0.36 -0.11,-0.54 0.03,-0.18 0.27,-0.27 0.37,-0.33 l 0.4,-0.3 a 2.45,2.45 0 0 1 0.84,-0.55 h 0.78 a 1.38,1.38 0 0 1 0.91,0.31 l 0.39,0.25 c 0.29,0.19 0.61,0.29 0.86,0.45 a 1,1 0 0 1 0.21,0.2 0.92,0.92 0 0 1 0.07,0.4 1.77,1.77 0 0 0 0.18,0.45 c 0.1,0.16 0.45,0.43 0.24,0.59 -0.21,0.16 -0.55,0 -0.67,-0.08 -0.12,-0.08 -0.27,-0.24 -0.22,-0.35 0.05,-0.11 0.28,0 0.34,-0.15 C 34.2,22.66 34,22.4 33.9,22.34 33.8,22.28 33.52,22.27 33.41,22.22 33.3,22.17 33.1,21.8 32.9,21.68 c -0.2,-0.12 -0.23,-0.06 -0.32,-0.1 -0.09,-0.04 -0.33,-0.32 -0.56,-0.29 -0.23,0.03 -0.29,0.26 -0.41,0.31 a 1.08,1.08 0 0 1 -0.53,0.08 1,1 0 0 0 -0.69,0.15 1.18,1.18 0 0 0 -0.11,0.19 1.85,1.85 0 0 1 -0.41,0.47 0.36,0.36 0 0 1 -0.35,0 m 3.62,0.11 c 0.13,-0.09 0.22,0.09 0.33,0.17 a 0.76,0.76 0 0 0 -0.3,0.64 2,2 0 0 1 -0.35,-0.09 1,1 0 0 1 0.32,-0.72 m -0.68,0.44 c -0.3,0.14 -0.57,-0.11 -0.92,-0.13 H 31 a 1.33,1.33 0 0 1 -0.77,-0.27 0.87,0.87 0 0 1 0.28,-0.35 1.36,1.36 0 0 1 0.38,-0.24 h 0.3 a 2.22,2.22 0 0 0 0.88,-0.24 c 0.17,-0.09 0.27,0.13 0.37,0.23 a 3.17,3.17 0 0 0 0.49,0.32 c -0.15,0.21 -0.19,0.56 -0.44,0.67 m -3.57,1 c 0.19,0.06 0.39,0.13 0.53,0.16 0.14,0.03 0.13,0 0.18,0.07 a 0.8,0.8 0 0 1 -0.68,0.28 0.89,0.89 0 0 1 -0.34,-0.23 c -0.15,-0.11 -0.31,-0.17 -0.34,-0.36 0.13,-0.15 0.42,0 0.65,0.08 m -4,-1.32 a 1.48,1.48 0 0 1 1,-0.72 h 0.39 c 0.13,0 0.33,-0.13 0.48,-0.15 a 1.84,1.84 0 0 1 0.91,0.31 2.13,2.13 0 0 1 0.16,0.25 c 0.12,0.15 0.39,0.25 0.4,0.41 0.01,0.16 -0.09,0.14 -0.17,0.23 -0.08,0.09 -0.09,0.17 -0.19,0.19 a 1.23,1.23 0 0 1 -0.42,-0.07 c -0.28,-0.06 -0.5,-0.12 -0.8,-0.17 a 1.54,1.54 0 0 0 -0.43,-0.06 c -0.24,0 -0.39,0.26 -0.6,0.31 a 2.43,2.43 0 0 1 -0.85,0 c -0.19,-0.21 0,-0.41 0.11,-0.55 m -6.21,5.65 a 0.56,0.56 0 0 1 -0.36,0 c 0,0 0.09,-0.15 0.19,-0.16 0.1,-0.01 0.2,0.07 0.17,0.13 m -1.82,-1.7 c 0.11,-0.28 0.27,-0.64 0.49,-0.73 a 1.82,1.82 0 0 1 1.06,-0.05 c 0.24,0.08 0.12,0.64 0.06,1 a 3,3 0 0 1 -1,1.52 c -1,0.11 -0.9,-1 -0.64,-1.75 m -1.48,2 c 0,0.17 -0.38,0.26 -0.58,0.18 -0.2,-0.08 -0.36,-0.25 -0.31,-0.44 a 1.11,1.11 0 0 1 0.12,-0.27 c 0.08,-0.14 0.1,-0.31 0.27,-0.32 0.17,-0.01 0.21,0.14 0.3,0.29 0.09,0.15 0.25,0.35 0.2,0.56 m 2.6,1.1 c -0.14,0 -0.2,-0.27 -0.16,-0.35 0.04,-0.08 0.35,-0.14 0.4,0 a 0.33,0.33 0 0 1 -0.24,0.34 m 0.89,0.29 c -0.09,0.18 -0.12,0.36 -0.25,0.38 a 0.45,0.45 0 0 1 -0.34,-0.52 0.91,0.91 0 0 1 0.64,-0.55 0.18,0.18 0 0 1 0.09,0.05 c 0,0.25 -0.18,0.36 -0.27,0.53 m 1.65,-0.61 c -0.39,0.06 -0.57,-0.32 -0.81,-0.41 h -1.09 a 3.57,3.57 0 0 1 -1.13,0 1.72,1.72 0 0 0 -0.59,-0.2 c -0.34,0 -0.89,0.09 -1.11,-0.06 -0.22,-0.15 -0.17,-0.56 -0.15,-0.88 a 2.54,2.54 0 0 0 -0.61,-2.06 c 0,0 -0.21,-0.18 -0.2,-0.29 0,-0.31 0.4,-0.06 0.53,0 0.31,0.16 0.89,0.19 1.12,0.39 0.23,0.2 0,1.09 -0.07,1.6 v 0.44 a 1.41,1.41 0 0 0 0,0.41 c 0.07,0.17 0.46,0.23 0.73,0.25 a 10.73,10.73 0 0 0 1.88,-0.11 h 0.47 a 1.5,1.5 0 0 1 0.73,0 1.31,1.31 0 0 1 0.35,0.27 c 0.09,0.08 0.25,0.22 0.25,0.37 a 0.34,0.34 0 0 1 -0.26,0.27 m 1.49,0.66 h -0.07 a 0.32,0.32 0 0 1 -0.27,0 0.45,0.45 0 0 1 -0.22,-0.19 0.25,0.25 0 0 1 0,-0.24 c 0,-0.16 0.19,-0.18 0.36,-0.19 0.17,-0.01 0.31,0.34 0.2,0.63 m 0.33,-1 c 0,0.15 -0.44,0.22 -0.63,0.23 -0.19,0.01 -0.78,0 -0.7,-0.23 0.08,-0.23 0.52,-0.13 0.7,-0.13 0.18,0 0.61,0 0.63,0.13 m -1.52,-1 a 6.46,6.46 0 0 0 0.88,0 c 0.58,0 1.15,0 1.74,-0.06 a 4,4 0 0 1 0.85,0 c 0.18,0 0.43,0.25 0.37,0.43 -0.06,0.18 -0.27,0.11 -0.41,0 a 0.71,0.71 0 0 0 -0.59,-0.25 c -0.32,0 -0.44,0.11 -0.71,0.14 -0.49,0.05 -1,0.05 -1.53,0.11 -0.53,0.06 -0.77,0.14 -1,0 -0.23,-0.14 -0.17,-0.55 -0.45,-0.56 -0.28,-0.01 -0.17,0.13 -0.25,0.19 A 0.43,0.43 0 0 1 19.34,28.07 0.57,0.57 0 0 1 18.88,27.68 4.9,4.9 0 0 1 19.14,27 c 0.08,-0.26 0,-0.76 0.16,-1 0.16,-0.24 0.42,-0.32 0.61,-0.16 a 1.74,1.74 0 0 1 0.23,1.21 c 0,0.15 -0.13,0.25 -0.12,0.39 0.01,0.14 0.43,0.44 0.71,0.48 m 1,-2.29 c -0.13,0.11 -0.24,0.2 -0.34,0.3 A 5,5 0 0 1 21,26.34 0.56,0.56 0 0 1 20.65,26.47 c -0.18,0 -0.31,-0.33 -0.38,-0.51 a 3.57,3.57 0 0 1 -0.1,-0.35 1.35,1.35 0 0 1 -0.11,-0.34 c 0,-0.41 0.27,-0.5 0.53,-0.68 0.26,-0.18 0.25,-0.25 0.41,-0.25 0.16,0 0.2,0.11 0.3,0.2 a 5.67,5.67 0 0 0 0.5,0.48 c 0.1,0.08 0.21,0.18 0.21,0.25 0,0.07 -0.2,0.24 -0.31,0.32 m 4.54,1.48 c -0.09,-0.19 -0.55,-0.29 -0.61,-0.55 -0.1,-0.42 0.35,-0.35 0.39,-0.67 -0.46,-0.06 -1,0.16 -1.52,0.12 a 2.3,2.3 0 0 1 -1,-0.24 c -0.15,-0.08 -0.6,-0.37 -0.56,-0.63 0.04,-0.26 0.22,-0.24 0.35,-0.3 a 8.88,8.88 0 0 1 1,-0.31 c 0.37,-0.09 0.73,-0.21 1.05,-0.28 a 1.16,1.16 0 0 1 0.85,0.17 c 0.17,0.09 0.32,0.16 0.34,0.31 a 0.9,0.9 0 0 1 -0.14,0.53 c -0.08,0.14 -0.23,0.25 -0.22,0.42 0.01,0.17 0.16,0 0.24,0.08 0.28,0.11 0.41,0.71 0.41,1.15 0,0.44 0,1 -0.31,1 -0.31,0 -0.2,-0.54 -0.3,-0.78 m 1,1.81 a 4.19,4.19 0 0 0 1,0.09 h 1.51 a 5.05,5.05 0 0 1 0.68,0.08 h 0.48 a 0.43,0.43 0 0 1 0.23,0.53 c -0.18,0 -0.3,-0.2 -0.37,-0.19 -0.07,0.01 -0.35,0.21 -0.61,0.16 -0.26,-0.05 -0.36,-0.22 -0.6,-0.22 a 7.75,7.75 0 0 0 -1.18,0 H 27.74 A 3.66,3.66 0 0 0 27.2,29.34 c -0.14,0 -0.24,0.13 -0.37,0.11 -0.13,-0.02 -0.3,-0.8 -0.13,-0.89 0.17,-0.09 0.45,0.38 0.61,0.47 m 1,-4 A 1,1 0 0 0 28.05,24.78 1.74,1.74 0 0 0 27.53,24.4 C 27.3,24.3 27.04,24.3 26.82,24.22 26.6,24.14 26.32,23.85 25.89,23.87 a 3.93,3.93 0 0 0 -0.83,0.16 12.44,12.44 0 0 0 -1.46,0.31 2,2 0 0 1 -1,0.3 c -0.18,0 -0.56,-0.1 -0.56,-0.26 0,-0.16 0.4,-0.13 0.61,-0.17 0.41,-0.08 0.66,-0.43 1.06,-0.61 a 9.21,9.21 0 0 1 1.29,-0.26 8.55,8.55 0 0 1 1.32,-0.35 2,2 0 0 1 0.75,0.18 c 0.16,0.08 0.26,0.29 0.36,0.43 a 2.56,2.56 0 0 0 0.36,0.44 c 0.08,0.08 0.22,0.11 0.31,0.19 0.09,0.08 0.13,0.16 0.21,0.23 a 4.79,4.79 0 0 1 0.73,0.62 0.91,0.91 0 0 1 0.21,0.63 0.83,0.83 0 0 1 -0.62,-0.06 c -0.26,-0.16 -0.2,-0.55 -0.34,-0.81 m 1.18,1.91 c 0,0 -0.78,-0.29 -0.74,-0.49 0.04,-0.2 0.78,-0.26 0.84,0.13 a 0.58,0.58 0 0 1 -0.1,0.36 m -0.35,-1.83 c -0.08,-0.08 -0.21,-0.15 -0.22,-0.27 -0.01,-0.12 0.23,-0.08 0.37,-0.06 a 1.53,1.53 0 0 1 1,0.59 1.69,1.69 0 0 1 0.06,0.55 c 0,0.17 0.07,0.35 0.08,0.49 0.01,0.14 0,0.61 -0.24,0.62 -0.24,0.01 -0.17,-0.28 -0.17,-0.5 0,-0.71 -0.47,-1 -0.85,-1.38 m 1.37,3.46 c 0,0.24 -0.5,0.1 -0.53,-0.06 a 0.42,0.42 0 0 1 0,-0.21 1.84,1.84 0 0 1 0,-0.58 0.27,0.27 0 0 1 0.49,0.2 c 0,0.12 -0.19,0.27 -0.2,0.35 -0.01,0.08 0.25,0.12 0.23,0.3 m 1.14,-3.81 c 0,0.09 -0.53,0.18 -0.73,0.2 a 1.67,1.67 0 0 1 -0.7,-0.12 c -0.11,0 -0.38,-0.1 -0.39,-0.19 -0.01,-0.09 0.33,-0.21 0.41,-0.23 a 2,2 0 0 1 0.54,-0.11 1.85,1.85 0 0 1 0.5,0.17 c 0.1,0 0.4,0.15 0.37,0.28 m 1.43,0.31 a 7.49,7.49 0 0 1 0.38,0.81 0.5,0.5 0 0 1 -0.59,0 c -0.11,-0.11 -0.1,-0.31 -0.17,-0.47 a 2.86,2.86 0 0 0 -0.4,-0.45 1.65,1.65 0 0 1 -0.34,-1 c -0.12,-0.17 -0.28,0 -0.49,0 a 1.21,1.21 0 0 1 -0.53,-0.12 c -0.14,-0.06 -0.28,-0.23 -0.4,-0.23 -0.12,0 -0.18,0.15 -0.21,0.27 -0.03,0.12 -0.25,0.2 -0.38,0.16 -0.13,-0.04 -0.11,-0.21 -0.15,-0.39 -0.04,-0.18 -0.1,-0.24 -0.08,-0.35 a 0.58,0.58 0 0 1 0.37,0 c 0.38,0 0.8,-0.16 1.14,-0.15 0.34,0.01 0.39,0.16 0.6,0.19 a 7.44,7.44 0 0 1 0.92,1.3 c 0.09,0.15 0.22,0.26 0.33,0.41 m 2.69,-0.26 c 0.11,0.14 0.23,0.37 0.14,0.49 -0.09,0.12 -0.57,-0.06 -0.66,-0.38 a 1.33,1.33 0 0 0 -0.1,-0.34 c -0.08,-0.11 -0.38,-0.12 -0.59,-0.14 -0.68,-0.08 -1.32,-0.1 -1.94,-0.23 a 3.5,3.5 0 0 1 -0.37,-0.62 c 0.07,-0.1 0.14,-0.12 0.32,-0.11 a 6.72,6.72 0 0 1 1.82,0.44 3,3 0 0 1 0.76,0.38 2.77,2.77 0 0 1 0.62,0.51 m 2,-1.29 a 5.47,5.47 0 0 0 -1.4,0 c -0.14,0.07 -0.24,0.26 -0.39,0.35 -0.15,0.09 -0.39,0.15 -0.58,0.26 -0.19,-0.08 -0.33,-0.2 -0.52,-0.28 -0.19,-0.08 0,-0.53 -0.05,-0.76 -0.05,-0.23 -0.22,-0.28 -0.22,-0.41 0,-0.3 0.61,-0.48 0.9,-0.5 0.29,-0.02 1.1,0.19 0.54,0.35 -0.1,0 -0.21,0 -0.22,0.11 -0.01,0.11 0.21,0.15 0.38,0.14 a 2.56,2.56 0 0 1 0.68,-0.13 1.6,1.6 0 0 1 0.63,0.23 1.63,1.63 0 0 1 0.24,0.4 0.45,0.45 0 0 1 0,0.23 M 37.68,22.6 c -0.34,-0.36 -1,-0.39 -1.33,-0.75 0,-0.08 0.06,-0.1 0,-0.22 -0.06,-0.12 -0.49,-0.17 -0.76,-0.08 a 2,2 0 0 0 -0.4,0.2 4.48,4.48 0 0 0 -0.44,0.18 C 34.63,22 34.5,22.17 34.37,22.22 a 1,1 0 0 0 0,-0.36 c 0,-0.13 -0.1,-0.17 -0.09,-0.24 0.01,-0.07 0.25,-0.14 0.34,-0.18 0.25,-0.11 0.47,-0.37 0.79,-0.35 a 2.59,2.59 0 0 1 1.24,0.39 q 0.69,0.32 1.35,0.69 c 0.17,0.1 0.52,0.33 0.54,0.48 0.02,0.15 -0.19,0.33 -0.34,0.34 C 38.05,23 37.83,22.74 37.69,22.6 M 38,23.34 c 0.06,-0.21 0.79,-0.13 0.8,0.14 0.01,0.27 -0.86,0.07 -0.8,-0.14 m 1.34,-0.8 c 0.12,0 0.28,0 0.31,0.08 a 0.8,0.8 0 0 1 -0.15,0.43 0.62,0.62 0 0 1 -0.5,0.29 0.49,0.49 0 0 1 0,-0.47 0.87,0.87 0 0 1 0.43,-0.21 m 1.33,-1.67 c 0,0.19 -0.46,0.22 -0.69,0.31 -0.23,0.09 -0.25,0.28 -0.4,0.48 -0.15,0.2 -0.47,0.56 -0.67,0.56 -0.2,0 -0.18,-0.29 -0.13,-0.44 0.05,-0.15 0.45,-0.36 0.6,-0.5 0.15,-0.14 0.43,-0.6 0.92,-0.65 0.24,0 0.4,0.1 0.38,0.29 m 2.72,1 c -0.16,0.19 -0.64,0.07 -0.63,-0.15 0.01,-0.22 0.68,-0.21 0.63,0.15"
     id="path22"
     inkscape:connector-curvature="0"
     style="fill:#000000" />
</svg>
