<?xml version="1.0" encoding="utf-8"?>
<!-- Generator: Adobe Illustrator 24.1.2, SVG Export Plug-In . SVG Version: 6.00 Build 0)  -->
<svg version="1.1" baseProfile="basic" id="Layer_1"
	 xmlns="http://www.w3.org/2000/svg" xmlns:xlink="http://www.w3.org/1999/xlink" x="0px" y="0px" viewBox="0 0 405 87.9"
	 xml:space="preserve">
<g>
	<g>
		<path d="M253.6,73V43.9h-5.9v-4.4h5.9v-1c0-1.8,0.3-3.4,0.8-4.8c0.6-1.4,1.4-2.6,2.4-3.5c1.1-0.9,2.3-1.7,3.9-2.2
			c1.5-0.5,3.2-0.7,5.1-0.7c1.5,0,2.9,0.2,4.4,0.5l-0.3,4.6c-0.5-0.1-1-0.1-1.6-0.2c-0.6-0.1-1.2-0.1-1.8-0.1
			c-2.1,0-3.7,0.5-4.8,1.6c-1.1,1.1-1.7,2.6-1.7,4.7v1h6.3v4.4h-6.3V73H253.6z"/>
		<path d="M143.6,61.8c0-1.1-0.2-2-0.5-2.8c-0.4-0.8-1-1.5-1.9-2.2c-0.9-0.7-2.1-1.3-3.7-1.9c-1.5-0.6-3.5-1.2-5.9-1.8
			c-2.5-0.6-4.7-1.4-6.8-2.2c-2-0.8-3.7-1.8-5.1-2.8c-1.4-1.1-2.5-2.3-3.3-3.6c-0.8-1.4-1.1-2.9-1.1-4.7c0-1.8,0.4-3.4,1.2-4.9
			c0.8-1.5,2-2.8,3.5-3.9c1.5-1.1,3.3-2,5.4-2.6c2.1-0.6,4.4-0.9,7-0.9c2.8,0,5.4,0.4,7.6,1.1c2.2,0.8,4.1,1.8,5.6,3
			c1.5,1.3,2.7,2.7,3.4,4.4c0.8,1.7,1.2,3.4,1.2,5.1h-6.7c0-1.3-0.2-2.4-0.7-3.5c-0.4-1.1-1.1-2-2.1-2.8c-0.9-0.8-2.1-1.4-3.5-1.8
			c-1.4-0.4-3-0.6-4.9-0.6c-1.8,0-3.3,0.2-4.6,0.6c-1.3,0.4-2.4,0.9-3.2,1.5c-0.9,0.6-1.5,1.4-1.9,2.3c-0.4,0.9-0.6,1.9-0.6,2.9
			c0,0.9,0.2,1.8,0.7,2.6c0.4,0.8,1.1,1.5,2.1,2.2c0.9,0.7,2.2,1.3,3.6,1.8c1.5,0.6,3.3,1.1,5.3,1.6c2.9,0.7,5.3,1.5,7.4,2.4
			c2.1,0.9,3.8,1.9,5.1,3c1.3,1.1,2.3,2.4,3,3.7c0.7,1.4,1,3,1,4.7c0,1.8-0.4,3.5-1.2,5c-0.8,1.5-2,2.8-3.5,3.8
			c-1.5,1.1-3.4,1.9-5.5,2.4c-2.2,0.6-4.6,0.9-7.2,0.9c-1.5,0-3.1-0.1-4.6-0.4c-1.5-0.3-3-0.6-4.4-1.2c-1.4-0.5-2.7-1.2-3.9-1.9
			c-1.2-0.8-2.3-1.7-3.2-2.7c-0.9-1-1.6-2.1-2.1-3.4c-0.5-1.3-0.8-2.6-0.8-4.1h6.7c0,1.5,0.3,2.9,1,4c0.7,1.1,1.6,2,2.7,2.7
			c1.1,0.7,2.5,1.3,3.9,1.6c1.5,0.3,3,0.5,4.7,0.5c3.5,0,6.2-0.6,8-1.9C142.7,65.8,143.6,64.1,143.6,61.8z"/>
		<path d="M169.9,69.2c1.1,0,2.2-0.2,3.2-0.5c1-0.3,2-0.8,2.7-1.4c0.8-0.6,1.4-1.3,1.9-2.1c0.5-0.8,0.8-1.7,0.9-2.6h6
			c-0.1,1.5-0.5,2.9-1.4,4.3c-0.8,1.4-1.9,2.5-3.2,3.6c-1.3,1-2.9,1.8-4.6,2.4c-1.8,0.6-3.6,0.9-5.6,0.9c-2.8,0-5.3-0.4-7.3-1.3
			s-3.8-2.1-5.2-3.6c-1.4-1.5-2.4-3.3-3.1-5.3c-0.7-2-1-4.2-1-6.4v-1.3c0-2.2,0.3-4.4,1-6.4c0.7-2,1.7-3.8,3.1-5.3
			c1.4-1.5,3.1-2.7,5.2-3.6c2.1-0.9,4.5-1.3,7.3-1.3c2.2,0,4.2,0.3,6,0.9c1.8,0.6,3.3,1.5,4.6,2.6c1.3,1.1,2.3,2.4,3.1,3.9
			c0.7,1.5,1.2,3.1,1.2,4.8h-6c-0.1-1-0.4-2-0.8-2.9c-0.4-0.9-1.1-1.7-1.8-2.4c-0.8-0.7-1.7-1.2-2.7-1.6c-1-0.4-2.2-0.6-3.5-0.6
			c-2,0-3.6,0.4-4.9,1.1c-1.3,0.7-2.3,1.6-3.1,2.8c-0.8,1.1-1.4,2.4-1.7,3.9c-0.3,1.4-0.5,2.9-0.5,4.3v1.3c0,1.5,0.2,2.9,0.5,4.4
			c0.3,1.4,0.9,2.7,1.7,3.9c0.8,1.1,1.8,2.1,3.1,2.8C166.3,68.8,167.9,69.2,169.9,69.2z"/>
		<path d="M208.7,68.4h23.8v4.9H202V27.5h6.7V68.4z"/>
		<path d="M283.8,73.6c-2.6,0-5-0.4-7.1-1.2c-2.1-0.8-3.9-1.9-5.4-3.4c-1.5-1.4-2.6-3.1-3.5-5.1c-0.8-2-1.2-4.1-1.2-6.5v-1.3
			c0-2.7,0.5-5.2,1.4-7.3c0.9-2.1,2.1-4,3.6-5.4c1.5-1.5,3.3-2.6,5.2-3.4c2-0.8,4-1.2,6.1-1.2c2.7,0,5,0.4,6.9,1.3
			c1.9,0.8,3.5,2,4.8,3.5c1.3,1.5,2.2,3.2,2.8,5.2c0.6,2,0.9,4.2,0.9,6.5v2.6h-25.3c0,1.5,0.3,3,0.8,4.3c0.5,1.3,1.3,2.5,2.2,3.5
			c1,1,2.1,1.8,3.5,2.4c1.3,0.6,2.9,0.9,4.6,0.9c2.3,0,4.2-0.4,5.7-1.2c1.6-0.8,2.9-1.9,4.1-3.3l3.9,2.7c-0.6,0.8-1.3,1.6-2.2,2.4
			c-0.9,0.8-1.8,1.5-3,2.1c-1.1,0.6-2.4,1.1-3.9,1.5C287.4,73.4,285.7,73.6,283.8,73.6z M283,43.6c-1.3,0-2.5,0.2-3.6,0.6
			c-1.1,0.4-2,1-2.9,1.8c-0.9,0.8-1.6,1.8-2.1,3c-0.6,1.2-0.9,2.6-1.2,4.1H292v-0.4c-0.1-1.1-0.3-2.2-0.6-3.3
			c-0.3-1.1-0.9-2.1-1.6-2.9c-0.7-0.9-1.6-1.6-2.7-2.1C286,43.8,284.7,43.6,283,43.6z"/>
		<path d="M309.5,68.1h23.8V73h-30.5V27.3h6.7V68.1z"/>
		<path d="M359.7,73c-0.2-0.4-0.4-0.9-0.6-1.6c-0.1-0.6-0.3-1.3-0.3-2c-0.6,0.6-1.3,1.1-2,1.6c-0.7,0.5-1.6,0.9-2.5,1.3
			c-0.9,0.4-1.8,0.7-2.9,0.9c-1,0.2-2.1,0.3-3.3,0.3c-1.9,0-3.6-0.3-5.2-0.8c-1.6-0.5-2.9-1.2-4-2.1c-1.1-0.9-1.9-1.9-2.5-3.1
			c-0.6-1.2-0.9-2.5-0.9-3.9c0-1.8,0.4-3.4,1.2-4.8c0.8-1.4,1.9-2.5,3.4-3.5c1.5-0.9,3.2-1.6,5.3-2.1c2.1-0.5,4.4-0.7,6.9-0.7h6.4
			V50c0-2-0.7-3.6-2-4.8c-1.3-1.2-3.3-1.8-5.9-1.8c-1.2,0-2.3,0.1-3.3,0.4c-1,0.3-1.8,0.7-2.5,1.2c-0.7,0.5-1.2,1-1.6,1.7
			c-0.4,0.6-0.6,1.3-0.6,2h-6.4c0-1.2,0.4-2.4,1.1-3.6c0.7-1.2,1.7-2.2,3-3.2c1.3-0.9,2.8-1.7,4.7-2.3c1.8-0.6,3.9-0.9,6.1-0.9
			c2,0,3.9,0.2,5.6,0.7c1.7,0.5,3.2,1.2,4.4,2.1c1.2,0.9,2.2,2.1,2.9,3.5c0.7,1.4,1,3,1,4.9v15.6c0,1.1,0.1,2.3,0.3,3.6
			c0.2,1.2,0.5,2.3,1,3.2V73H359.7z M349.1,68.6c1.2,0,2.2-0.1,3.2-0.4c1-0.3,1.9-0.7,2.8-1.1c0.8-0.5,1.5-1,2.2-1.6
			c0.6-0.6,1.1-1.2,1.4-1.9v-6.9h-5.3c-3.7,0-6.5,0.5-8.5,1.5c-2,1-3,2.6-3,4.6c0,0.8,0.1,1.6,0.4,2.3c0.3,0.7,0.8,1.3,1.4,1.8
			c0.6,0.5,1.4,0.9,2.2,1.2C346.8,68.5,347.9,68.6,349.1,68.6z"/>
		<path d="M402.5,56.6c0,2.5-0.3,4.7-1,6.8c-0.6,2.1-1.6,3.9-2.8,5.4c-1.2,1.5-2.8,2.7-4.6,3.5c-1.8,0.8-3.8,1.3-6.1,1.3
			c-2.5,0-4.6-0.4-6.4-1.2c-1.8-0.8-3.3-1.9-4.6-3.3l-0.3,3.9h-5.9V27.3h6.4v15.9c1.2-1.4,2.7-2.4,4.5-3.2c1.7-0.7,3.8-1.1,6.2-1.1
			c2.3,0,4.4,0.4,6.2,1.2c1.8,0.8,3.3,2,4.6,3.5c1.2,1.5,2.2,3.3,2.8,5.4c0.6,2.1,1,4.4,1,7V56.6z M396.1,55.9
			c0-1.7-0.2-3.2-0.5-4.7c-0.3-1.5-0.9-2.8-1.7-3.9s-1.8-2-3-2.6s-2.8-1-4.6-1c-1.2,0-2.2,0.1-3.2,0.4c-0.9,0.3-1.8,0.6-2.5,1.1
			c-0.7,0.5-1.4,1-2,1.7c-0.6,0.6-1,1.3-1.4,2.1v14.5c0.4,0.7,0.9,1.4,1.5,2.1c0.6,0.6,1.2,1.2,2,1.7c0.7,0.5,1.6,0.8,2.5,1.1
			c0.9,0.3,2,0.4,3.2,0.4c1.7,0,3.2-0.3,4.4-1c1.2-0.6,2.2-1.5,3-2.6c0.8-1.1,1.4-2.4,1.7-3.9c0.4-1.5,0.6-3,0.6-4.7V55.9z"/>
		<g>
			<path d="M196.1,73.2h-6.4V39.7h6.4V73.2z"/>
			<circle cx="192.9" cy="31.3" r="3.8"/>
		</g>
		<g>
			<circle cx="240.3" cy="31" r="3.8"/>
			<path d="M243.5,73h-6.4V39.5h6.4V73z"/>
		</g>
	</g>
	<g>
		<path fill="#9CCC58" d="M57.2,51.2c0.7-1.4,1-2.9,1-4.5c0-1-0.2-2-0.5-3c0,0,0,0,0,0c0-0.1-0.1-0.2-0.1-0.2l0-0.1
			c0,0,0-0.1-0.1-0.1c0,0,0,0,0-0.1c-0.6-2-2.1-3.8-3.8-5.9c-2.1-2.5-4.4-5.4-5.7-9.3c-1.2-3.8-0.9-7.3-0.7-10.4
			c0.2-2.7,0.4-5.2-0.3-7.5c0,0,0,0,0,0c0,0,0,0,0-0.1c0-0.1,0-0.1,0-0.2l0-0.1c0-0.1,0-0.2-0.1-0.2c-0.1-0.2-0.1-0.3-0.2-0.5
			c0,0,0,0,0-0.1c-0.1-0.1-0.1-0.3-0.2-0.4c0,0,0,0,0,0c-1-2.2-2.6-4-4.8-5.1c-2.2-1.1-4.6-1.5-6.9-1c0,0,0,0,0,0
			c-0.2,0-0.3,0.1-0.5,0.1c0,0,0,0-0.1,0c-0.2,0-0.3,0.1-0.5,0.1c-2.7,0.8-4.8,2.7-6.1,5.2c-0.2,0.3-0.3,0.6-0.4,0.9
			c-0.5,1.3-0.8,2.6-0.8,4c0,1,0.2,2,0.5,3c0,0,0,0,0,0c0,0.1,0.1,0.2,0.1,0.2l0,0.1c0,0,0,0,0,0c0,0,0,0,0,0.1c0,0,0,0,0,0l0,0
			c0.6,2,2.1,3.8,3.8,5.8c2.1,2.6,4.5,5.4,5.7,9.3c1.2,3.9,1,7.6,0.7,11c-0.2,2.7-0.4,5,0.3,6.9c0,0,0,0,0,0c0,0,0,0,0,0.1
			c0,0.1,0,0.1,0,0.2l0,0.1c0,0.1,0,0.2,0.1,0.2c0,0.1,0.1,0.3,0.1,0.4c1.5,4.2,5.5,6.9,9.8,6.9c1,0,2.1-0.2,3.1-0.5
			c2.7-0.8,4.8-2.7,6.1-5.2C57.1,51.6,57.2,51.4,57.2,51.2z"/>
		<path fill="#9CCC58" d="M88.7,24.9c-1.8-2.8-4.5-4.7-7.8-5.4c-6.7-1.5-13.3,2.8-14.8,9.4c0,0.1,0,0.2-0.1,0.3l0,0.1
			c0,0.1,0,0.1,0,0.2l0,0c0,0,0,0,0,0c0,0,0,0,0,0c-0.5,2.4-0.1,5.1,0.4,8.3c0.6,3.9,1.4,8.3,0.3,13c-1.1,4.8-3.6,8.5-5.8,11.7
			c-1.8,2.6-3.3,4.9-3.8,7.3c0,0,0,0,0,0c0,0,0,0,0,0.1c0,0.1,0,0.1,0,0.2l0,0.1c0,0.1,0,0.2-0.1,0.3c-0.7,3.2-0.1,6.6,1.7,9.4
			c1.8,2.8,4.5,4.7,7.8,5.4c0.9,0.2,1.8,0.3,2.7,0.3c2.3,0,4.6-0.7,6.6-2c0.7-0.4,1.3-1,1.9-1.5c1.8-1.7,3-3.8,3.5-6.3c0,0,0,0,0,0
			c0-0.1,0-0.2,0.1-0.3l0-0.1c0-0.1,0-0.1,0-0.2l0,0c0,0,0,0,0-0.1c0,0,0,0,0,0c0.5-2.4,0.1-5.1-0.4-8.3c-0.6-3.9-1.4-8.3-0.3-13
			c1-4.6,3.4-8.1,5.5-11.1c1.8-2.6,3.5-5.1,4.1-7.9c0,0,0,0,0,0c0,0,0,0,0-0.1c0-0.1,0-0.1,0-0.2l0-0.1c0-0.1,0-0.2,0.1-0.3
			C91,31,90.4,27.7,88.7,24.9z"/>
		<path fill="#9CCC58" d="M18.8,29.3c-2.6-1.4-5.7-1.6-8.5-0.7c-2.8,0.9-5.2,2.8-6.5,5.5c-1.4,2.6-1.6,5.7-0.7,8.5
			c0.9,2.8,2.8,5.2,5.5,6.5c1.6,0.8,3.4,1.3,5.1,1.3c1.1,0,2.3-0.2,3.4-0.5c2.8-0.9,5.2-2.8,6.5-5.5c1.4-2.6,1.6-5.7,0.7-8.5
			C23.4,33,21.5,30.7,18.8,29.3z"/>
	</g>
</g>
</svg>
