<?xml version="1.0" encoding="UTF-8"?>
<svg id="Layer_2" xmlns="http://www.w3.org/2000/svg" viewBox="0 0 140 79">
  <defs>
    <style>
      .cls-1 {
        fill: none;
      }

      .cls-2 {
        fill: #010101;
      }

      .cls-3 {
        fill: #00aeef;
      }
    </style>
  </defs>
  <g id="Layer_1-2" data-name="Layer_1">
    <g>
      <rect class="cls-1" width="140" height="79"/>
      <g>
        <g>
          <path class="cls-3" d="M49.08,55.31c2.51,0,3.88-1.67,3.88-4.01v-11.94h5.34v12.21c-.05,5.37-4.36,7.48-9.22,7.48s-9.17-2.11-9.22-7.48v-12.21h5.34v11.94c0,2.34,1.36,4.01,3.88,4.01Z"/>
          <path class="cls-2" d="M84.47,50.66c.02-2.09,1.28-3.98,3.4-3.98,2.46,0,3.42,1.68,3.42,3.98h-6.81ZM93.96,52.42v-1.26c0-3.71-2.1-6.34-5.91-6.34-4.25,0-6.23,3.29-6.23,7.22s1.71,7,6.01,7c3.21,0,5.56-1.52,5.96-4.57h-2.67c-.3,1.95-1.28,2.73-3.26,2.73-2.59,0-3.45-2.31-3.45-4.78h9.55Z"/>
          <rect class="cls-2" x="97.04" y="39.36" width="2.54" height="19.29"/>
          <polygon class="cls-2" points="26.01 58.65 31.36 58.65 31.36 43.1 37.34 43.1 37.34 39.36 20.03 39.36 20.03 43.1 26.01 43.1 26.01 58.65"/>
          <path class="cls-2" d="M38.85,29.96c-1.3.41-2.65.08-2.64-1.66,0-2.66,6.24-4.89,7.11-7.21.21-.58.23-1.06-.05-1.04-.2.01-.04.3-.48.74-2.58,2.59-6.92,2.58-10.24,4.07-2.18.98-8.57,3.99-7.09,10.69.07.32.26,1.39.45,1.39.23,0,.22-.63.22-1.4-.05-3.99,4.68-5.11,6.21-7.72.18-.31.5-.75.58-.55.04.1.01.24-.05.52-.48,2.14-2.72,3.52-2.09,5.05.82,1.99,3.2.51,3.93-.77.2-.35.31-.58.44-.53.1.03.09.44.03.8-.39,2.31-.92,3.6-2.61,4.92-.54.42-1.39.51-1.28.83.03.08.39.07.69.05,4.49-.29,8.25-5.59,9.25-9.05.1-.24.14-.47.03-.56-.14-.1-.33.14-.53.31-.51.45-1.22.92-1.87,1.13Z"/>
        </g>
        <path class="cls-2" d="M107.54,58.65v-11.65h3.1v-1.77h-3.1v-2.17c0-1.55.75-1.82,2.19-1.82.43,0,.85.06,1.28.08v-2.11c-.59-.13-1.2-.27-1.82-.27-2.4,0-4.2,1.21-4.2,3.77v2.51h-2.62v1.77h2.62v11.65h2.54Z"/>
        <path class="cls-2" d="M112.09,45.24v1.77h2.3v8.55c0,1.78.03,3.5,3.8,3.5.59,0,1.14-.06,1.74-.16v-1.95c-.41.1-.94.16-1.34.16-.91,0-1.66-.46-1.66-1.42v-8.68h3.1v-1.77h-3.1v-3.66l-2.54.8v2.86h-2.3Z"/>
        <path class="cls-2" d="M63.64,58.65h6.63c8.25,0,9.11-6.98,9.11-9.65s-.87-9.65-9.11-9.65h-6.63v19.29ZM66.31,41.65h3.95c4.46,0,6.31,3.36,6.31,7.35s-1.85,7.35-6.31,7.35h-3.95v-14.7Z"/>
      </g>
    </g>
  </g>
</svg>