<?xml version="1.0" encoding="utf-8"?>
<!-- Generator: Adobe Illustrator 16.0.4, SVG Export Plug-In . SVG Version: 6.00 Build 0)  -->
<!DOCTYPE svg PUBLIC "-//W3C//DTD SVG 1.1//EN" "http://www.w3.org/Graphics/SVG/1.1/DTD/svg11.dtd">
<svg version="1.1" id="UiBmerke_grayscale" xmlns="http://www.w3.org/2000/svg" xmlns:xlink="http://www.w3.org/1999/xlink" x="0px"
	 y="0px" width="70.866px" height="70.866px" viewBox="0 0 70.866 70.866" enable-background="new 0 0 70.866 70.866"
	 xml:space="preserve">
<g>
	<g>
		<g>
			<path fill="#000000" d="M6.351,27.903c-0.641-0.111-1.833-0.295-2.173-0.174c-0.137,0.051-0.241,0.225-0.307,0.48l-0.065,0.253
				c-0.083,0.05-0.214,0.006-0.244-0.063c0.088-0.39,0.165-0.77,0.234-1.173c0.075-0.434,0.113-0.715,0.156-1.09
				c0.066-0.074,0.198-0.041,0.252,0.021l-0.022,0.252c-0.023,0.262,0.035,0.474,0.159,0.56c0.315,0.204,1.504,0.409,2.083,0.508
				l1.168,0.203c0.898,0.155,1.825,0.464,2.345,1.15c0.409,0.529,0.545,1.34,0.414,2.104c-0.124,0.713-0.382,1.403-0.903,1.834
				c-0.55,0.469-1.349,0.597-2.579,0.385L4.43,32.732c-1.075-0.186-1.254-0.195-1.409,0.396l-0.065,0.255
				c-0.053,0.055-0.225,0.003-0.245-0.063c0.11-0.514,0.182-0.864,0.253-1.277c0.073-0.424,0.122-0.767,0.188-1.277
				c0.042-0.056,0.222-0.046,0.252,0.023L3.382,31.04c-0.053,0.609,0.119,0.66,1.194,0.846l2.232,0.386
				c1.664,0.289,2.849-0.039,3.122-1.621c0.26-1.499-0.82-2.27-2.392-2.542L6.351,27.903z"/>
			<path fill="#000000" d="M12.877,19.559c0.275,0.153,1.364,0.762,1.618,0.867c0.045,0.049,0.06,0.13,0.004,0.23
				c-0.218,0.023-0.687,0.109-2.038,0.4L8.857,21.83c-0.421,0.088-1.52,0.292-1.829,0.371l-0.01,0.018
				c0.089,0.099,0.295,0.225,0.569,0.378l1.996,1.116c0.431,0.241,1.625,0.896,1.987,0.894c0.132,0.002,0.288-0.15,0.435-0.37
				l0.187-0.268c0.104-0.015,0.209,0.056,0.218,0.145c-0.248,0.403-0.436,0.717-0.625,1.057c-0.215,0.385-0.344,0.637-0.505,0.967
				c-0.081,0.04-0.215-0.024-0.239-0.109l0.111-0.262c0.09-0.226,0.117-0.404,0.042-0.505c-0.259-0.313-1.381-0.928-1.82-1.173
				l-2.646-1.479c-0.256-0.143-0.453-0.241-0.771-0.167c-0.199,0.057-0.387,0.24-0.536,0.445l-0.105,0.146
				c-0.086,0.023-0.224-0.053-0.219-0.146c0.242-0.37,0.514-0.854,0.605-1.019c0.082-0.146,0.159-0.307,0.208-0.437
				c0.569,0.078,2.381-0.328,2.889-0.44l1.495-0.331c1.057-0.238,1.82-0.4,2.5-0.585l0.011-0.018
				c-0.024-0.062-0.171-0.145-0.364-0.251l-1.959-1.095c-0.431-0.24-1.626-0.896-1.998-0.876c-0.113,0.009-0.25,0.125-0.5,0.466
				l-0.105,0.146c-0.091,0.033-0.232-0.058-0.219-0.146c0.254-0.411,0.437-0.717,0.632-1.065c0.22-0.394,0.344-0.637,0.499-0.958
				c0.087-0.048,0.215,0.024,0.239,0.109l-0.054,0.139c-0.118,0.318-0.146,0.542-0.094,0.62c0.242,0.34,1.388,0.956,1.81,1.191
				L12.877,19.559z"/>
			<path fill="#000000" d="M12.845,14.235c-0.799-0.772-0.942-0.881-1.41-0.472l-0.197,0.174c-0.073,0.016-0.195-0.13-0.174-0.197
				c0.38-0.363,0.635-0.612,0.941-0.929c0.291-0.302,0.53-0.566,0.879-0.958c0.067-0.024,0.217,0.092,0.204,0.167l-0.167,0.203
				c-0.393,0.482-0.278,0.621,0.521,1.393l2.687,2.593c0.8,0.772,0.92,0.859,1.403,0.464l0.205-0.167
				c0.073-0.017,0.194,0.13,0.174,0.197c-0.38,0.363-0.635,0.612-0.926,0.914c-0.307,0.317-0.547,0.581-0.896,0.973
				c-0.066,0.023-0.201-0.078-0.203-0.167l0.159-0.21c0.377-0.496,0.286-0.614-0.514-1.386L12.845,14.235z"/>
			<path fill="#000000" d="M16.568,10.138C16.05,9.77,15.8,9.667,15.39,9.863l-0.171,0.083c-0.097-0.014-0.165-0.144-0.122-0.233
				c0.269-0.144,0.558-0.314,0.939-0.555c0.391-0.246,0.695-0.45,1.057-0.703c0.084-0.003,0.186,0.119,0.158,0.211l-0.123,0.102
				c-0.309,0.257-0.346,0.355-0.311,0.431c0.074,0.078,0.527,0.461,1.227,0.963c1.057,0.772,2.109,1.535,3.189,2.267
				c-0.094-0.759-0.297-1.908-0.39-2.507c-0.123-0.765-0.338-2.031-0.427-2.508c-0.047-0.231-0.1-0.334-0.139-0.396
				c-0.039-0.062-0.173-0.077-0.506,0.083l-0.17,0.083c-0.097-0.014-0.162-0.158-0.123-0.233c0.26-0.139,0.603-0.342,0.939-0.555
				c0.293-0.185,0.562-0.367,0.844-0.569c0.084-0.003,0.174,0.139,0.158,0.211l-0.256,0.186c-0.201,0.152-0.268,0.342-0.266,0.601
				c0.015,0.574,0.122,1.511,0.293,2.667l0.209,1.394c0.16,1.04,0.391,2.332,0.537,2.897c-0.016,0.035-0.046,0.065-0.082,0.088
				c-0.043,0.028-0.094,0.047-0.148,0.057c-0.334-0.311-0.768-0.646-1.152-0.923L16.568,10.138z"/>
			<path fill="#000000" d="M25.331,6.073c-0.297-1.049-0.361-1.195-0.976-1.098l-0.167,0.026c-0.072-0.023-0.104-0.211-0.052-0.258
				c0.44-0.103,0.786-0.19,1.199-0.307L27.233,3.9c0.646-0.183,1.241-0.351,1.354-0.416c0.109,0.155,0.375,0.864,0.541,1.297
				c-0.022,0.072-0.179,0.138-0.246,0.091c-0.285-0.432-0.477-0.759-1.038-0.742c-0.226,0.01-0.552,0.091-0.995,0.217l-0.728,0.206
				c-0.303,0.085-0.297,0.105-0.188,0.489l0.57,2.019c0.08,0.283,0.11,0.274,0.414,0.188l0.585-0.165
				c0.423-0.121,0.73-0.229,0.84-0.304c0.11-0.075,0.164-0.155,0.143-0.422l-0.036-0.437c0.033-0.075,0.205-0.123,0.266-0.064
				c0.068,0.242,0.139,0.647,0.248,1.031c0.103,0.363,0.252,0.735,0.314,0.958c-0.021,0.082-0.192,0.13-0.26,0.084l-0.203-0.368
				c-0.091-0.17-0.205-0.302-0.421-0.295c-0.152,0-0.397,0.059-0.792,0.17l-0.585,0.166c-0.302,0.085-0.329,0.104-0.256,0.366
				l0.402,1.423c0.151,0.535,0.278,0.87,0.489,0.996c0.154,0.087,0.398,0.137,1.286-0.113c0.776-0.22,1.059-0.343,1.249-0.517
				c0.153-0.152,0.326-0.582,0.439-1.181c0.057-0.07,0.207-0.081,0.273-0.001c0.029,0.373-0.004,1.222-0.059,1.531
				c-0.914,0.236-1.814,0.48-2.713,0.735l-0.908,0.256c-0.434,0.123-0.774,0.23-1.363,0.418c-0.07-0.013-0.136-0.168-0.092-0.247
				l0.324-0.125c0.561-0.213,0.568-0.379,0.27-1.438L25.331,6.073z"/>
			<path fill="#000000" d="M33.6,4.437c0.008-0.997-0.023-1.175-0.453-1.23l-0.334-0.044c-0.074-0.053-0.072-0.221,0.012-0.262
				c0.588-0.049,1.312-0.076,2.34-0.068c0.65,0.004,1.268,0.061,1.748,0.326c0.503,0.266,0.866,0.74,0.861,1.475
				c-0.006,0.996-0.797,1.536-1.323,1.742c-0.052,0.063,0,0.168,0.052,0.252c0.83,1.358,1.38,2.201,2.09,2.804
				c0.178,0.158,0.438,0.275,0.721,0.298c0.053,0.021,0.062,0.105,0.01,0.147c-0.095,0.03-0.262,0.05-0.461,0.049
				c-0.892-0.006-1.425-0.271-2.164-1.335c-0.269-0.39-0.695-1.117-1.016-1.591c-0.156-0.231-0.324-0.337-0.742-0.34
				c-0.473-0.003-0.494,0.007-0.494,0.228l-0.01,1.321c-0.007,1.101,0.014,1.227,0.621,1.315l0.22,0.033
				c0.062,0.053,0.04,0.231-0.022,0.262c-0.473-0.024-0.828-0.037-1.248-0.04c-0.441-0.002-0.818,0.005-1.312,0.023
				c-0.062-0.032-0.083-0.189-0.019-0.263l0.262-0.03c0.609-0.069,0.631-0.205,0.639-1.306L33.6,4.437z M34.452,5.941
				C34.45,6.13,34.45,6.246,34.481,6.288c0.031,0.032,0.188,0.054,0.723,0.057c0.377,0.003,0.775-0.036,1.082-0.266
				c0.284-0.218,0.528-0.583,0.533-1.297c0.006-0.828-0.504-1.618-1.668-1.626c-0.65-0.004-0.682,0.037-0.684,0.332L34.452,5.941z"
				/>
			<path fill="#000000" d="M42.911,11.069c-0.842-0.265-1.289-0.693-1.443-0.863c-0.052-0.258,0.043-1.009,0.171-1.485
				c0.071-0.054,0.229-0.027,0.251,0.046c-0.013,0.558,0.088,1.667,1.248,2.033c0.84,0.265,1.424-0.156,1.614-0.755
				c0.138-0.44,0.202-0.958-0.378-1.66l-0.756-0.92c-0.396-0.488-0.795-1.241-0.535-2.061c0.299-0.95,1.283-1.487,2.582-1.076
				c0.312,0.098,0.652,0.271,0.891,0.423c0.116,0.082,0.25,0.145,0.33,0.171c0.014,0.269-0.072,0.857-0.205,1.276
				c-0.059,0.048-0.229,0.027-0.259-0.049c0.021-0.521-0.044-1.256-1.004-1.559c-0.98-0.31-1.396,0.274-1.541,0.734
				c-0.183,0.58,0.164,1.152,0.462,1.499l0.642,0.752c0.508,0.589,0.943,1.365,0.644,2.314
				C45.277,10.991,44.209,11.479,42.911,11.069z"/>
			<path fill="#000000" d="M51.231,8.781c0.58-0.948,0.656-1.11,0.155-1.479l-0.213-0.155c-0.031-0.069,0.085-0.219,0.155-0.212
				c0.437,0.292,0.734,0.486,1.11,0.717c0.357,0.219,0.667,0.396,1.126,0.653c0.037,0.06-0.045,0.231-0.119,0.234L53.211,8.42
				c-0.556-0.278-0.668-0.138-1.248,0.811l-1.95,3.184c-0.58,0.948-0.64,1.084-0.149,1.47l0.207,0.164
				c0.031,0.068-0.085,0.219-0.155,0.212c-0.437-0.292-0.735-0.487-1.093-0.706c-0.375-0.23-0.686-0.407-1.143-0.664
				c-0.038-0.06,0.032-0.213,0.119-0.234l0.239,0.11c0.565,0.261,0.661,0.146,1.241-0.802L51.231,8.781z"/>
			<path fill="#000000" d="M55.698,17.254c-0.809,0.748-0.91,0.87-0.535,1.353l0.204,0.268c0.012,0.074-0.141,0.187-0.206,0.162
				c-0.391-0.454-0.625-0.722-0.91-1.03s-0.542-0.571-1.012-1.049c-0.021-0.067,0.096-0.204,0.192-0.178l0.278,0.256
				c0.445,0.404,0.596,0.335,1.404-0.412l3.443-3.182c0.238-0.221,0.246-0.228,0.033-0.459l-0.392-0.423
				c-0.306-0.331-0.714-0.741-1.068-0.77c-0.341-0.028-0.581,0.051-0.852,0.145c-0.104-0.019-0.165-0.163-0.131-0.25
				c0.46-0.197,1.06-0.537,1.417-0.768c0.037,0.009,0.137,0.102,0.136,0.146c-0.204,0.274,0.038,0.521,0.366,0.875l2.883,3.119
				c0.385,0.416,0.465,0.471,0.771,0.401c0.051,0.024,0.121,0.116,0.105,0.16c-0.395,0.207-1.068,0.73-1.278,0.966
				c-0.091,0.026-0.211-0.104-0.2-0.186c0.172-0.202,0.406-0.519,0.384-0.712c-0.032-0.298-0.242-0.648-0.633-1.072l-0.506-0.546
				c-0.214-0.231-0.214-0.216-0.468,0.018L55.698,17.254z"/>
			<path fill="#000000" d="M61.243,24.312c0.178-0.166,0.188-0.217,0.053-0.501l-0.68-1.43c-0.111-0.237-0.168-0.281-0.397-0.252l-1.153,0.14
				c-0.492,0.061-0.779,0.115-0.885,0.166c-0.113,0.053-0.146,0.127-0.059,0.364l0.119,0.326c-0.015,0.088-0.167,0.161-0.244,0.093
				c-0.1-0.255-0.238-0.549-0.439-0.999c-0.149-0.312-0.33-0.645-0.46-0.896c0.011-0.075,0.152-0.166,0.228-0.131l0.176,0.299
				c0.127,0.218,0.33,0.377,0.734,0.348c0.518-0.036,1.26-0.063,2.509-0.168l3.017-0.248c0.404-0.029,0.611-0.058,0.749-0.159
				c0.175,0.196,0.422,0.276,0.595,0.322c0.027,0.057,0.039,0.132-0.018,0.182c-0.359,0.322-0.723,0.68-1.072,1.02l-3.193,3.106
				c-0.685,0.661-0.768,0.852-0.621,1.282l0.093,0.27c-0.017,0.088-0.177,0.142-0.237,0.112c-0.166-0.398-0.312-0.734-0.516-1.16
				c-0.215-0.455-0.406-0.806-0.545-1.077c0-0.093,0.148-0.175,0.227-0.131l0.16,0.261c0.113,0.19,0.232,0.296,0.327,0.251
				c0.104-0.05,0.253-0.178,0.444-0.362L61.243,24.312z M61.196,22.036c-0.254,0.028-0.258,0.042-0.133,0.307l0.554,1.166
				c0.13,0.275,0.177,0.275,0.392,0.069l1.302-1.245c0.192-0.184,0.407-0.391,0.494-0.501l-0.009-0.019
				c-0.062-0.006-0.334,0.007-0.668,0.038L61.196,22.036z"/>
			<path fill="#000000" d="M60.603,31.454c-0.128-0.872,0.06-1.461,0.144-1.676c0.211-0.158,0.928-0.401,1.412-0.494
				c0.08,0.041,0.123,0.193,0.068,0.244c-0.507,0.233-1.461,0.81-1.282,2.013c0.129,0.872,0.763,1.212,1.386,1.121
				c0.455-0.068,0.951-0.236,1.326-1.066l0.496-1.08c0.266-0.57,0.769-1.259,1.62-1.385c0.985-0.146,1.897,0.503,2.097,1.852
				c0.049,0.322,0.041,0.705,0.009,0.985c-0.021,0.142-0.021,0.29-0.009,0.373c-0.235,0.13-0.803,0.31-1.238,0.374
				c-0.067-0.032-0.123-0.194-0.068-0.255c0.477-0.208,1.109-0.588,0.963-1.584c-0.15-1.017-0.857-1.135-1.335-1.065
				c-0.602,0.089-0.964,0.651-1.146,1.071l-0.396,0.906c-0.309,0.714-0.814,1.447-1.801,1.592
				C61.708,33.549,60.803,32.804,60.603,31.454z"/>
		</g>
		<g>
			<path fill="#000000" d="M9.466,43.084c0.729-0.269,0.9-0.377,0.776-0.834l-0.087-0.326c0.029-0.101,0.182-0.145,0.25-0.08
				c0.246,0.512,0.522,1.17,0.86,2.085c0.229,0.62,0.398,1.228,0.337,1.755c-0.051,0.498-0.324,0.969-0.953,1.203
				c-0.709,0.262-1.226-0.018-1.72-0.506c-0.098,0.035-0.099,0.127-0.078,0.242c0.099,0.566-0.103,1.536-1.154,1.926
				c-1.142,0.422-2.222-0.141-2.877-1.912c-0.105-0.284-0.255-0.777-0.407-1.19c-0.16-0.433-0.304-0.761-0.448-1.12
				c0.008-0.07,0.158-0.148,0.239-0.11l0.095,0.165c0.281,0.488,0.396,0.469,1.43,0.086L9.466,43.084z M6.174,45.22
				c-0.354,0.132-0.848,0.336-0.995,0.603c-0.157,0.271-0.097,0.585,0.012,0.879c0.324,0.875,0.966,1.399,1.948,1.035
				c0.777-0.287,1.537-1.016,0.958-2.58c-0.196-0.531-0.27-0.549-0.467-0.475L6.174,45.22z M8.458,44.375
				c-0.276,0.102-0.292,0.119-0.087,0.613c0.41,0.988,0.906,1.422,1.831,1.08c0.964-0.357,1.062-1.211,0.785-1.959
				c-0.079-0.215-0.153-0.355-0.226-0.43c-0.066-0.088-0.131-0.107-0.307-0.043L8.458,44.375z"/>
			<path fill="#000000" d="M12.626,50.377c0.871-0.655,0.984-0.768,0.672-1.306l-0.084-0.146c-0.004-0.076,0.16-0.173,0.223-0.142
				c0.254,0.374,0.459,0.666,0.718,1.009l1.185,1.577c0.402,0.537,0.773,1.032,0.875,1.113c-0.105,0.156-0.672,0.66-1.016,0.972
				c-0.075,0.005-0.193-0.116-0.174-0.196c0.299-0.422,0.537-0.719,0.318-1.236c-0.09-0.207-0.283-0.482-0.561-0.852l-0.453-0.604
				c-0.189-0.252-0.206-0.238-0.525,0l-1.677,1.26c-0.235,0.176-0.216,0.201-0.026,0.453l0.364,0.486
				c0.265,0.353,0.477,0.6,0.585,0.676c0.11,0.074,0.204,0.096,0.445-0.02l0.395-0.191c0.082,0.004,0.188,0.146,0.155,0.225
				c-0.201,0.15-0.554,0.363-0.872,0.602c-0.303,0.228-0.596,0.5-0.78,0.639c-0.084,0.01-0.19-0.133-0.173-0.213l0.271-0.32
				c0.125-0.146,0.207-0.299,0.123-0.498c-0.055-0.143-0.197-0.352-0.443-0.678L11.807,52.5c-0.189-0.251-0.216-0.271-0.435-0.106
				l-1.184,0.888c-0.443,0.333-0.71,0.573-0.752,0.814c-0.025,0.177,0.015,0.421,0.569,1.16c0.485,0.646,0.7,0.863,0.932,0.979
				c0.197,0.088,0.661,0.094,1.261-0.016c0.086,0.027,0.148,0.162,0.1,0.254c-0.338,0.161-1.142,0.437-1.45,0.497
				c-0.55-0.767-1.103-1.521-1.663-2.267L8.62,53.949c-0.271-0.36-0.494-0.64-0.883-1.122c-0.012-0.068,0.109-0.188,0.197-0.174
				l0.233,0.258c0.401,0.446,0.559,0.395,1.439-0.268L12.626,50.377z"/>
			<path fill="#000000" d="M17.73,56.21c0.589-0.804,0.669-0.966,0.353-1.263l-0.245-0.232c-0.029-0.086,0.07-0.22,0.163-0.205
				c0.505,0.306,1.106,0.707,1.937,1.314c0.524,0.383,0.993,0.792,1.227,1.289c0.252,0.508,0.27,1.105-0.164,1.697
				c-0.588,0.805-1.545,0.78-2.093,0.641c-0.079,0.019-0.099,0.135-0.106,0.232c-0.121,1.588-0.169,2.593,0.054,3.497
				c0.05,0.231,0.194,0.479,0.41,0.665c0.03,0.047-0.011,0.121-0.078,0.125c-0.095-0.031-0.243-0.113-0.403-0.231
				c-0.72-0.526-0.996-1.054-0.972-2.349c0.01-0.475,0.09-1.312,0.106-1.885c0.01-0.279-0.064-0.463-0.402-0.711
				c-0.381-0.278-0.404-0.283-0.534-0.104l-0.78,1.065c-0.651,0.889-0.709,1.004-0.268,1.43l0.16,0.156
				c0.02,0.08-0.104,0.211-0.172,0.199c-0.369-0.296-0.65-0.516-0.988-0.763c-0.355-0.261-0.667-0.476-1.077-0.749
				c-0.032-0.062,0.044-0.203,0.138-0.225l0.23,0.129c0.534,0.301,0.632,0.203,1.281-0.686L17.73,56.21z M17.539,57.928
				c-0.111,0.153-0.18,0.246-0.18,0.299c0.008,0.043,0.121,0.153,0.554,0.471c0.305,0.223,0.65,0.424,1.032,0.418
				c0.358-0.012,0.77-0.165,1.191-0.74c0.49-0.67,0.539-1.607-0.4-2.295c-0.523-0.383-0.574-0.369-0.748-0.133L17.539,57.928z"/>
			<path fill="#000000" d="M28.356,66.26c-0.131,0.399-0.148,0.658,0.008,0.787c0.02,0.04,0,0.1-0.05,0.116c-0.119-0.04-0.312-0.059-0.517-0.07
				c-0.574-0.033-1.332-0.149-1.87-0.325c-1.186-0.389-2.163-1.074-2.677-2.104c-0.402-0.794-0.463-1.686-0.176-2.562
				c0.277-0.847,0.838-1.613,1.672-2.067c0.896-0.479,2.037-0.624,3.541-0.132c0.568,0.187,1.061,0.47,1.217,0.564
				c0.176,0.102,0.463,0.273,0.589,0.293c-0.108,0.328-0.218,0.867-0.324,1.494c-0.056,0.07-0.239,0.021-0.278-0.059
				c0.073-1.168-0.563-1.752-1.58-2.085c-1.934-0.634-3.231,0.464-3.721,1.959c-0.628,1.914-0.135,3.742,1.869,4.397
				c0.617,0.203,1.029,0.195,1.193,0.062c0.073-0.054,0.182-0.217,0.286-0.536l0.132-0.397c0.273-0.837,0.264-0.907-0.332-1.179
				l-0.422-0.195c-0.066-0.064,0.002-0.241,0.082-0.248c0.282,0.114,0.827,0.304,1.415,0.496c0.389,0.128,0.73,0.229,1.066,0.316
				c0.057,0.064,0.018,0.217-0.071,0.254l-0.166-0.033c-0.436-0.088-0.537,0.188-0.703,0.697L28.356,66.26z"/>
			<path fill="#000000" d="M33.658,62.641c0.003-1.09-0.019-1.248-0.638-1.322l-0.166-0.021c-0.063-0.042-0.043-0.231,0.021-0.262
				c0.45,0.021,0.807,0.033,1.236,0.033l1.973,0.004c0.671,0.002,1.291,0.002,1.416-0.028c0.062,0.179,0.123,0.934,0.165,1.395
				c-0.043,0.063-0.21,0.085-0.263,0.021c-0.156-0.494-0.25-0.86-0.795-0.998c-0.221-0.054-0.557-0.064-1.018-0.065l-0.756-0.002
				c-0.314,0-0.314,0.021-0.314,0.42l-0.005,2.098c-0.001,0.293,0.031,0.294,0.347,0.294l0.607,0.001
				c0.441,0.002,0.766-0.02,0.891-0.061c0.127-0.042,0.2-0.105,0.253-0.367l0.085-0.43c0.053-0.062,0.231-0.062,0.273,0.011
				c-0.002,0.253-0.044,0.661-0.044,1.06c-0.001,0.378,0.04,0.775,0.04,1.007c-0.043,0.073-0.221,0.073-0.273,0.009L36.6,65.028
				c-0.041-0.189-0.113-0.346-0.323-0.398c-0.147-0.043-0.399-0.054-0.808-0.055l-0.609-0.002c-0.314,0-0.346,0.01-0.346,0.283
				l-0.004,1.479c-0.001,0.557,0.03,0.912,0.197,1.092c0.126,0.125,0.346,0.241,1.27,0.244c0.807,0,1.111-0.04,1.343-0.156
				c0.188-0.104,0.472-0.47,0.745-1.016c0.074-0.052,0.221-0.02,0.263,0.074c-0.073,0.367-0.339,1.174-0.474,1.457
				c-0.945-0.023-1.877-0.035-2.812-0.037l-0.944-0.002c-0.45,0-0.807,0.009-1.426,0.029c-0.062-0.032-0.084-0.2-0.021-0.262
				l0.347-0.031c0.598-0.051,0.651-0.209,0.653-1.311L33.658,62.641z"/>
			<path fill="#000000" d="M48.001,60.928c-0.168-0.451-0.642-1.663-0.607-2.078c0.011-0.095,0.178-0.246,0.474-0.412l0.131-0.07
				c0.037-0.082-0.015-0.22-0.111-0.24c-0.327,0.146-0.578,0.25-1.002,0.408c-0.373,0.139-0.711,0.253-1.17,0.402
				c-0.068,0.059-0.018,0.221,0.072,0.254l0.174-0.043c0.412-0.098,0.591-0.098,0.683-0.031c0.296,0.225,0.782,1.499,0.955,1.961
				l0.784,2.104c0.076,0.206,0.135,0.363,0.113,0.428l-0.019,0.007c-0.638-0.3-1.324-0.671-2.286-1.175l-1.352-0.715
				c-0.461-0.243-2.103-1.109-2.486-1.537c-0.12,0.068-0.285,0.141-0.441,0.198c-0.177,0.067-0.697,0.261-1.121,0.385
				c-0.062,0.069-0.008,0.217,0.072,0.253l0.174-0.042c0.247-0.059,0.508-0.077,0.698,0.009c0.291,0.148,0.376,0.352,0.479,0.627
				l1.059,2.84c0.176,0.473,0.632,1.666,0.627,2.072c-0.01,0.125-0.145,0.244-0.359,0.357l-0.255,0.128
				c-0.036,0.081,0.024,0.216,0.112,0.239c0.336-0.148,0.598-0.258,1.01-0.41c0.364-0.137,0.712-0.254,1.162-0.399
				c0.051-0.075,0.016-0.196-0.072-0.254l-0.316,0.085c-0.252,0.071-0.471,0.086-0.571,0c-0.276-0.232-0.763-1.507-0.934-1.969
				l-0.799-2.143c-0.11-0.295-0.185-0.524-0.189-0.656l0.021-0.008c0.287,0.139,1.255,0.695,1.634,0.902l3.247,1.744
				c1.218,0.654,1.631,0.893,1.811,1.016c0.108-0.041,0.148-0.113,0.146-0.178c-0.123-0.246-0.56-1.415-0.67-1.709L48.001,60.928z"
				/>
			<path fill="#000000" d="M56.239,60.698c-0.677,0.564-1.278,0.713-1.505,0.752c-0.245-0.097-0.826-0.582-1.159-0.945
				c-0.006-0.092,0.101-0.208,0.174-0.187c0.463,0.31,1.453,0.823,2.387,0.043c0.675-0.564,0.635-1.284,0.231-1.767
				c-0.296-0.354-0.698-0.688-1.602-0.574l-1.182,0.139c-0.624,0.072-1.474,0.002-2.026-0.657c-0.638-0.765-0.561-1.883,0.486-2.757
				c0.249-0.209,0.579-0.402,0.836-0.521c0.131-0.055,0.258-0.133,0.322-0.186c0.232,0.131,0.682,0.521,0.965,0.86
				c0.008,0.075-0.101,0.207-0.18,0.192c-0.428-0.299-1.083-0.641-1.855,0.006c-0.789,0.658-0.521,1.322-0.211,1.693
				c0.389,0.467,1.059,0.48,1.511,0.418l0.979-0.137c0.77-0.109,1.658-0.059,2.298,0.705C57.448,58.661,57.284,59.824,56.239,60.698
				z"/>
			<path fill="#000000" d="M57.39,51.551c-0.907-0.645-1.063-0.73-1.466-0.256l-0.168,0.201c-0.072,0.026-0.213-0.1-0.201-0.169
				c0.32-0.415,0.535-0.7,0.79-1.06c0.244-0.342,0.442-0.638,0.729-1.077c0.062-0.033,0.229,0.06,0.227,0.135l-0.137,0.226
				c-0.315,0.535-0.182,0.656,0.723,1.3l3.043,2.165c0.906,0.645,1.037,0.713,1.455,0.25l0.18-0.195
				c0.07-0.025,0.211,0.1,0.201,0.17c-0.322,0.415-0.537,0.699-0.78,1.041c-0.255,0.359-0.454,0.656-0.741,1.096
				c-0.062,0.033-0.211-0.047-0.225-0.135l0.126-0.232c0.299-0.547,0.192-0.649-0.714-1.293L57.39,51.551z"/>
			<path fill="#000000" d="M66.008,47.131c-0.309,0.823-0.761,1.248-0.938,1.395c-0.262,0.036-1.006-0.098-1.475-0.251
				c-0.051-0.075-0.015-0.229,0.059-0.247c0.556,0.041,1.67,0,2.097-1.141c0.31-0.824-0.079-1.429-0.668-1.65
				c-0.433-0.162-0.946-0.254-1.677,0.289l-0.959,0.705c-0.508,0.369-1.283,0.729-2.088,0.427c-0.932-0.351-1.416-1.36-0.938-2.637
				c0.115-0.304,0.307-0.636,0.471-0.864c0.087-0.113,0.158-0.244,0.188-0.323c0.269,0.001,0.852,0.119,1.264,0.272
				c0.044,0.062,0.015,0.23-0.062,0.258c-0.52-0.049-1.258-0.023-1.611,0.92c-0.361,0.961,0.199,1.407,0.65,1.576
				c0.57,0.215,1.159-0.103,1.521-0.381l0.785-0.602c0.616-0.475,1.414-0.871,2.347-0.521
				C66.057,44.762,66.488,45.854,66.008,47.131z"/>
		</g>
	</g>
	<path fill="#000000" d="M35.434,0C15.864,0,0,15.863,0,35.433c0,19.569,15.863,35.433,35.434,35.433c19.569,0,35.433-15.863,35.433-35.433
		C70.867,15.863,55.003,0,35.434,0z M35.434,69.799c-18.979,0-34.367-15.387-34.367-34.366c0-18.979,15.388-34.364,34.367-34.364
		c18.979,0,34.363,15.385,34.363,34.364C69.797,54.413,54.413,69.799,35.434,69.799z"/>
	<g>
		<path fill="#000000" d="M43.782,52.619c-0.705,0.538-1.176,1.346-1.477,2.013c0.65,0.471,2.175,1.157,4.738,1.596c1.121-0.624,1.996-1.188,3-1.97
			c-0.914-0.231-1.8-0.724-2.355-1.041C46.557,52.571,45.155,51.568,43.782,52.619z"/>
		<path fill="#000000" d="M27.235,47.913c-0.867-0.238-1.334-0.229-2.622,0.189c-2.234,0.727-5.676,4.576-5.676,4.576
			c1.033,0.988,2.16,1.881,3.36,2.672c0.957-1.248,3.537-4.13,5.907-4.13c1.298,0,1.968,0.546,3.049,1.206
			c0.086-0.135,0.184-0.27,0.288-0.408C29.598,51.056,27.235,47.913,27.235,47.913z"/>
		<path fill="#000000" d="M34.776,51.285c-1.051,0.138-1.819,1.036-2.329,1.915c2.001,1.354,3.778,2.953,6.384,3.728
			c2.029,0.604,2.808,0.833,4.878,0.867c0.915-0.341,1.798-0.743,2.658-1.185c-1.276-0.154-2.958-0.778-4.401-1.449
			C39.622,54.071,36.917,51.003,34.776,51.285z"/>
	</g>
	<path fill="#000000" d="M28.667,52.5c-2.975,0-4.151,2.487-5.121,3.601c3.504,2.021,7.553,3.197,11.889,3.197c2.279,0,4.475-0.341,6.564-0.936
		c-1.337-0.079-2.961-0.422-4.426-0.998C34.305,56.075,30.798,52.5,28.667,52.5z"/>
	<path fill="#000000" d="M49.891,50.473c-1.977-2.521-3.537-2.988-4.299-2.797c-0.762,0.19-0.591,0.767-1.506,1.848
		c-0.833,0.984-2.741,2.072-3.112,2.34c0.308,0.326,0.733,0.812,0.841,0.929c0.945-0.876,2.152-1.708,3.34-1.708
		c2.119,0,2.715,1.677,5.516,2.68c0.598-0.486,1.18-0.993,1.723-1.543C52.393,52.221,51.059,51.963,49.891,50.473z"/>
	<g>
		<path fill="#000000" d="M45.268,29.91c-0.07-0.107,0.006-0.289-0.086-0.388c-0.088-0.429-0.269-0.817-0.262-1.291
			c-0.059-0.279,0.234-0.408,0.408-0.531c0.11-0.262,0.102-0.56-0.024-0.815c-0.089-0.419-0.675-0.491-0.675-0.95
			c-0.018-0.348-0.247-0.6-0.186-0.981c-0.154-0.505-0.149-1.055-0.188-1.593c-0.136-0.581-0.124-1.167-0.194-1.782
			c-0.097-0.724-0.192-1.446-0.36-2.132c-0.086-0.619-0.289-1.191-0.601-1.708c-0.048-0.384-0.427-0.677-0.232-1.105
			c0.342-0.477,0.623-0.996,0.813-1.543c0.168-0.317,0.142-0.708,0.221-1.06c-0.025-0.302,0.077-0.617-0.027-0.888
			c-0.053-0.043-0.104,0.012-0.14,0.033c-0.149,0.502-0.698,0.712-1.065,1.02c-0.551,0.231-1.242,0.141-1.863,0.212
			c-0.414-0.026-0.744,0.369-1.152,0.131c-0.204-0.15-0.443-0.209-0.654-0.329c-0.482-0.031-0.971,0.007-1.408-0.033
			c-0.696,0.036-1.228-0.355-1.923-0.319c-0.86-0.033-1.603,0.402-2.503,0.326c-0.799-0.205-1.582,0.1-2.225,0.431
			c-0.246-0.045-0.496-0.186-0.756-0.231c-0.697-0.274-1.558,0.21-2.146-0.343c-0.266-0.288-0.461-0.615-0.452-1.008
			c-0.108,0.062-0.164,0.205-0.19,0.324c-0.154,0.278-0.279,0.593-0.318,0.929c-0.077,0.424,0.039,0.881,0.134,1.284
			c0.065,0.717,0.564,1.281,0.454,2.041c-0.123,0.343-0.276,0.681-0.377,1.041c-0.293,0.35-0.227,0.836-0.309,1.262
			c-0.266,0.8-0.064,1.625-0.024,2.46c-0.298,0.958-0.437,1.97-0.547,2.997c-0.085,0.669-0.039,1.394-0.304,1.996
			c-0.359,0.357-0.667,0.724-0.555,1.253c0.038,0.274,0.186,0.491,0.318,0.717c0.074,0.541,0.053,1.06,0.018,1.593
			c0.043,0.436-0.405,0.569-0.477,0.941c-0.092,0.367,0.174,0.61,0.404,0.848c0.141,0.233,0.076,0.56,0.15,0.824
			c0.064,0.674,0.195,1.336,0.26,1.986c0.178,0.974,0.275,1.994,0.481,2.927c0.219,1.15,0.49,2.277,0.805,3.38
			c0.351,0.796,0.538,1.665,0.846,2.479c0.22,0.674,0.616,1.263,0.61,2.034c0.035,0.086,0.04,0.159,0.057,0.238
			c0.041,0.467-0.357,0.839-0.319,1.327c0,0,1.462,2.553,3.194,3.663c0.705-0.796,1.691-1.522,2.958-1.503
			c2.097,0.031,4.017,2.148,6.04,3.654c0.144-0.16,0.303-0.329,0.473-0.503c-0.662-0.937-3.559-4.29-5.998-4.679
			c0,0,0.188-0.482-0.038-0.705c-0.186-0.266-0.162-0.471-0.238-0.781c-0.012-0.146-0.071-0.352,0.038-0.474
			c0.365,0.079,0.524,0.474,0.695,0.751c0.026,0.016,0.057,0.025,0.084,0.021c0.028-0.006,0.055-0.021,0.071-0.058
			c0.049-0.364,0.45-0.591,0.727-0.763c0.058-0.031,0.147-0.012,0.171,0.062c0.064,0.397-0.031,0.912,0.26,1.229
			c0.094,0.124-0.021,0.246-0.086,0.344c-0.03,0.254-0.244,0.24-0.244,0.24c1.812,0.853,2.811,1.905,3.836,3.123
			c0.684-0.473,3.154-2.062,3.121-3.719c-0.012-0.548-0.298-0.48-0.432-0.773c-0.229-0.193-0.4-0.448-0.533-0.703
			c-0.267-0.533-0.479-1.127-0.371-1.789c0.186-0.48,0.205-1.029,0.414-1.503c0.27-0.897,0.472-1.831,0.748-2.728
			c0.326-1.24,0.66-2.475,0.828-3.775c0.18-0.429,0.165-0.924,0.256-1.386c0.178-0.443,0.088-0.991,0.199-1.46
			c0.057-0.365,0-0.77,0.16-1.086c0.055-0.181-0.012-0.407,0.096-0.567c-0.039-0.288,0.273-0.238,0.34-0.483
			c0.242-0.088,0.256-0.357,0.362-0.545C45.887,30.558,45.508,30.26,45.268,29.91z M44.09,26.406
			c0.161,0.079,0.411,0.071,0.463,0.274c0.242,0.076,0.198,0.343,0.348,0.488c0.01,0.128,0.007,0.281-0.105,0.336
			c-0.361,0.05-0.7-0.19-0.92-0.448C43.792,26.825,43.991,26.599,44.09,26.406z M41.999,31.279c-0.049,0.607-0.015,1.25-0.088,1.848
			c-0.066,0.069-0.003,0.19-0.037,0.274c-0.118,0.614-0.024,1.255-0.14,1.87l-0.076,0.005c-0.227-0.252-0.692-0.353-0.681-0.75
			c0.256-1.038,0.229-2.21,0.302-3.299c0.131-0.898,0.103-1.855,0.046-2.768c0.021-0.026,0.012-0.076,0.058-0.079
			c0.282,0.09,0.412,0.381,0.659,0.541C42.073,29.719,41.936,30.467,41.999,31.279z M28.34,23.417
			c-0.273-0.007-0.275-0.331-0.355-0.517c-0.073-0.119-0.076-0.264-0.074-0.414c0.096-0.103,0.138-0.186,0.135-0.322
			c-0.101-0.074-0.273-0.021-0.309-0.188c0.001-0.219-0.068-0.498,0.156-0.61c0.23-0.119,0.55-0.045,0.757-0.209
			c0.028-0.041-0.019-0.1-0.063-0.098c-0.281-0.015-0.488,0.112-0.729,0.167c-0.092-0.043-0.08-0.136-0.119-0.203
			c-0.005-0.657-0.107-1.281,0.133-1.848c-0.041-0.119-0.084-0.269,0.02-0.364c0.264-0.053,0.427,0.353,0.68,0.252v-0.036
			c-0.202-0.176-0.352-0.383-0.617-0.414c-0.143-0.2-0.045-0.46,0.01-0.665c0.059-0.076,0.107-0.186,0.223-0.122
			c0.217,0.1,0.318,0.279,0.541,0.386c0.061-0.047,0.094-0.124,0.07-0.186c-0.212-0.271-0.751-0.346-0.514-0.793
			c0.047-0.16,0.139-0.381,0.305-0.424c0.213,0.062,0.324,0.307,0.52,0.431l0.051-0.031c-0.172-0.169-0.268-0.386-0.216-0.638
			c0.141-0.124,0.274,0.067,0.405,0.117l0.213,0.055c0.207,0.114,0.469,0.236,0.477,0.515c0.174,0.252,0.227,0.553,0.469,0.772
			c0.066,0.174,0.205,0.274,0.301,0.438c-0.066,0.069-0.164,0.074-0.248,0.036c-0.239-0.15-0.34-0.426-0.504-0.633
			c-0.061-0.029-0.09,0.05-0.111,0.079c0.076,0.226,0.128,0.464,0.293,0.65l0.004,0.157c-0.346,0.034-0.65-0.274-0.863-0.548
			c-0.047-0.036-0.115-0.064-0.175-0.023c-0.097,0.055-0.019,0.159-0.007,0.233c0.165,0.259,0.312,0.588,0.625,0.722
			c0.062,0.05,0.096,0.162,0.038,0.233c-0.04,0.16-0.194,0.104-0.3,0.076c-0.194-0.174-0.42-0.357-0.592-0.526l-0.098,0.002
			c-0.019,0.155,0.152,0.252,0.223,0.378c0.16,0.27,0.645,0.27,0.534,0.65c-0.036,0.069-0.018,0.167-0.106,0.2
			c-0.51-0.069-1.195-0.252-1.614,0.162c-0.013,0.055,0.027,0.121,0.087,0.119c0.461-0.031,0.893,0.033,1.255,0.271
			c0.079,0.081,0.173,0.183,0.138,0.297c-0.073,0.048-0.18,0.036-0.254,0.083c-0.146,0.133-0.318,0.207-0.473,0.341
			c0,0.028,0.008,0.06,0.039,0.074c0.232-0.09,0.455-0.209,0.694-0.31c0.082-0.017,0.158,0.019,0.191,0.093
			c-0.005,0.122-0.14,0.133-0.222,0.195c-0.175,0.212-0.511,0.348-0.518,0.629l0.076-0.002c0.331-0.048,0.483-0.529,0.85-0.44
			c0.053,0.05,0.125,0.147,0.059,0.216c-0.431,0.262-0.998,0.515-1.057,1.091c0.009,0.038-0.013,0.083,0.019,0.104
			c0.122,0.005,0.109-0.133,0.184-0.195c0.354-0.298,0.684-0.638,1.151-0.669c0.045,0.014,0.105,0.021,0.146,0.071
			c-0.007,0.24-0.352,0.381-0.352,0.638c-0.055,0.19-0.116,0.381-0.21,0.564c0.01,0.048,0.07,0.06,0.1,0.029
			c0.217-0.348,0.406-0.843,0.832-0.97c-0.004,0.122,0.13,0.026,0.185,0.076c0.228,0.041,0.458,0.131,0.644,0.27
			c-0.039,0.476-0.219,1.058,0.029,1.481c0.087-0.079,0.008-0.222,0.051-0.319c0.02-0.357,0.238-0.636,0.279-0.986
			c0.035-0.105,0.156-0.131,0.248-0.103c0.19,0.076,0.197,0.31,0.382,0.402c0.146-0.147-0.042-0.355,0.028-0.545
			c0.064-0.117,0.225-0.104,0.338-0.069c0.047,0.036,0.101,0.047,0.162,0.041c0.057-0.062,0.04-0.155,0.037-0.236
			c0.243-0.188,0.322-0.586,0.656-0.505l0.072,0.081c-0.009,0.236-0.031,0.47-0.078,0.691c-0.092-0.005-0.142-0.2-0.261-0.122
			c-0.088,0.081-0.048,0.184-0.007,0.274c0.104,0.208,0.193,0.424,0.307,0.624c0.009,0.062,0.072,0.143,0.006,0.198
			c-0.258,0.017-0.371-0.252-0.512-0.4c-0.093-0.064-0.157,0.033-0.17,0.112c-0.051,0.341,0.184,0.598,0.439,0.803
			c0.099-0.005,0.16,0.055,0.23,0.122c-0.027,0.122-0.138,0.207-0.021,0.317l0.128,0.178c-0.141,0.124-0.326-0.012-0.479-0.055
			c-0.346-0.214-0.644-0.569-0.717-0.967c-0.023-0.048-0.092-0.06-0.129-0.026c-0.113,0.26,0.031,0.519,0.15,0.727
			c0.17,0.117,0.35,0.3,0.303,0.521c-0.059,0.086-0.193,0.126-0.3,0.09c-0.286-0.238-0.312-0.595-0.346-0.948
			c-0.038-0.014-0.077-0.052-0.114-0.012c-0.062,0.155-0.057,0.357-0.053,0.524c-0.04,0.15,0.057,0.362-0.061,0.486
			c-0.178,0.103-0.43,0.019-0.623,0.093c-0.238-0.09-0.217-0.386-0.225-0.629c-0.039-0.066-0.105-0.012-0.143,0.019
			c-0.223,0.122-0.179,0.596-0.546,0.45c-0.231-0.138-0.491-0.229-0.671-0.457c-0.122-0.284,0.189-0.445,0.189-0.693
			c0.078-0.207,0.323-0.35,0.362-0.571c-0.146-0.079-0.255,0.114-0.372,0.2c-0.195,0.279-0.361,0.586-0.488,0.876
			c-0.027,0.076-0.104,0.117-0.187,0.105c-0.342-0.3-0.997-0.469-0.894-1.048c0.073-0.107,0.138-0.214,0.18-0.338
			C28.506,23.169,28.459,23.376,28.34,23.417z M35.343,24.491c0.038,0.029,0.066,0.029,0.112,0.009
			c0.113-0.25,0.083-0.56,0.119-0.848c0.047-0.691,0.123-1.375,0.226-2.048c0.05-0.093,0.028-0.25,0.167-0.262
			c0.205,0.045,0.455,0.069,0.553,0.286c0.08,0.919,0.002,1.858-0.253,2.692c-0.124,0.419-0.409,0.736-0.624,1.122
			c-0.117,0.131-0.147,0.367-0.359,0.396c-0.598-0.843-0.977-1.793-1.008-2.896c0.01-0.407-0.248-0.96,0.105-1.265
			c0.262-0.098,0.474-0.362,0.769-0.338l0.04,0.112C35.288,22.442,35.026,23.517,35.343,24.491z M37.943,27.377
			c-0.499-0.248-0.96-0.733-1.015-1.291c0.029-0.062,0.105-0.064,0.145-0.042l0.498,0.469c0.361,0.231,0.838,0.467,1.014,0.894
			c0.029,0.143,0.057,0.345-0.068,0.434c-0.167,0.207-0.406,0.321-0.68,0.259c-0.502-0.06-0.959-0.453-1.193-0.907
			c-0.084-0.338-0.096-0.708,0.039-1.022c0.166-0.005,0.073,0.188,0.152,0.267c0.246,0.417,0.587,0.958,1.098,1.086
			C37.983,27.478,37.974,27.43,37.943,27.377z M37.726,22.692c-0.103,0.103-0.213,0.203-0.341,0.252
			c-0.065-0.171,0.059-0.35,0.146-0.502c0.006-0.045,0.042-0.086,0.024-0.143c-0.069-0.076-0.227-0.026-0.215-0.169
			c-0.018-0.074,0.018-0.138,0.045-0.191l0.16-0.004c0.248,0.212,0.528,0.459,0.77,0.681c0.021,0.217,0.012,0.407-0.088,0.607
			c-0.016,0.233-0.178,0.412-0.238,0.626c0.024,0.052,0.085,0.064,0.128,0.033c0.227-0.293,0.33-0.646,0.579-0.917
			c0.277-0.062,0.598,0.021,0.891-0.041c0.215,0.114,0.074,0.419,0.213,0.581c0.043,0.143-0.012,0.341,0.119,0.429
			c0.195-0.028,0.151-0.269,0.216-0.4c0.075-0.267,0.03-0.477,0.007-0.757c-0.047-0.05-0.01-0.112-0.004-0.172
			c0.064-0.064,0.177-0.098,0.254-0.038c0.171,0.1,0.32,0.353,0.498,0.477c0.053-0.048,0.027-0.138,0.01-0.188
			c-0.035-0.226-0.267-0.371-0.319-0.581c0.005-0.083,0.102-0.133,0.171-0.088c0.229,0.083,0.146,0.357,0.333,0.488
			c0.083-0.026,0.04-0.146,0.024-0.198c-0.083-0.203-0.18-0.396-0.195-0.629c0.052-0.107,0.152-0.019,0.229-0.021
			c0.262,0.119,0.535,0.224,0.775,0.407c0.287,0.241,0.336,0.617,0.428,0.924c-0.059,0.305,0.174,0.674-0.102,0.886
			c-0.223,0.076-0.377,0.314-0.609,0.367c-0.1-0.088-0.082-0.231-0.153-0.326c-0.18-0.208-0.271-0.674-0.644-0.572
			c-0.146,0.147,0.076,0.317,0.127,0.472c0.023,0.288,0.336,0.603,0.071,0.86c-0.308-0.148-0.406,0.31-0.712,0.181
			c-0.338-0.102-0.644,0.496-0.906,0.043c0.024-0.417-0.026-0.831-0.075-1.262c-0.05-0.126-0.086-0.312-0.229-0.353
			c-0.149,0.114-0.029,0.34-0.085,0.493c-0.025,0.386-0.129,0.75-0.3,1.081c-0.088,0.093-0.199,0.172-0.336,0.124
			c-0.031-0.014-0.055-0.043-0.078-0.067c-0.021-0.202,0.055-0.424,0.109-0.622c-0.031-0.052-0.105-0.036-0.144-0.012
			c-0.22,0.255-0.494,0.671-0.912,0.603c-0.054-0.052-0.146-0.079-0.163-0.138c0.121-0.217,0.403-0.391,0.382-0.641
			c-0.197-0.01-0.319,0.222-0.506,0.257c-0.106-0.743,0.646-1.108,0.747-1.798C37.795,22.714,37.772,22.678,37.726,22.692z
			 M37.721,19.413c0.305-0.434,0.795-0.522,1.258-0.643c0.529,0.031,1.069,0.066,1.424,0.531c0.355,0.498,0.528,1.233,0.297,1.829
			c-0.312,0.638-0.929,1.072-1.646,1.086c-0.277,0.076-0.539-0.074-0.791-0.167c-0.391-0.176-0.531-0.572-0.746-0.884
			C37.339,20.565,37.458,19.92,37.721,19.413z M42.933,27.387c0.036-0.045,0.104-0.1,0.171-0.133
			c0.174-0.005,0.318,0.05,0.463,0.114c0.111,0.195,0.159,0.495,0.059,0.703c-0.281,0.122-0.521-0.038-0.717-0.214
			C42.829,27.687,42.999,27.551,42.933,27.387z M43.153,27.051c-0.342-0.064-0.571-0.383-0.784-0.65
			c-0.062-0.293-0.303-0.496-0.312-0.805c-0.034-0.181-0.095-0.414-0.031-0.576h0.029c0.248,0.455,0.624,0.85,0.969,1.265
			c0.123,0.109,0.32,0.148,0.387,0.305C43.378,26.766,43.331,26.97,43.153,27.051z M40.756,33.247
			c-0.346,0.085-0.508-0.303-0.793-0.438c-0.32-0.383-0.644-0.819-0.645-1.341c0.021-0.045,0.074-0.057,0.12-0.05
			c0.241,0.274,0.435,0.677,0.81,0.793c0.054,0.005,0.114-0.012,0.127-0.074c-0.055-0.3-0.262-0.596-0.171-0.9
			c0.22,0.031,0.348,0.283,0.554,0.345c0.141,0.148,0.087,0.353,0.061,0.529C40.756,32.475,40.874,32.901,40.756,33.247z
			 M40.653,39.735c0.041-0.848,0.205-1.662,0.195-2.501c0.102-0.131,0.297-0.167,0.479-0.174c0.033,0.122,0.003,0.319,0.043,0.462
			c0.024,0.814-0.141,1.613-0.07,2.451c-0.013,0.34-0.124,0.654-0.112,1.008c-0.056,0.207-0.062,0.44-0.094,0.652
			c0.014,0.697-0.173,1.308-0.289,1.945c-0.104,0.139-0.07,0.434-0.274,0.422c-0.249-0.188-0.106-0.486-0.091-0.729
			c0.078-0.2,0.018-0.453,0.094-0.66C40.45,41.61,40.757,40.745,40.653,39.735z M40.424,45.575c0.17,0.357,0.25,0.756,0.345,1.139
			c0.005,0.195,0.077,0.359-0.054,0.5c-0.472-0.068-0.904,0.134-1.266,0.387c-0.113,0.033-0.197-0.033-0.26-0.098
			c-0.065-0.172-0.02-0.379-0.017-0.561c0.098-0.221-0.025-0.55,0.19-0.693c0.104-0.092,0.314-0.078,0.324-0.266
			c-0.186-0.131-0.52,0.037-0.627-0.225c-0.213-0.288-0.435-0.621-0.443-0.99c0.314-0.305,0.803-0.402,1.229-0.281
			c0.116,0.057,0.254,0.121,0.317,0.248C40.299,44.997,40.318,45.306,40.424,45.575z M39.692,47.9
			c0.068-0.319,0.422-0.3,0.639-0.437c0.082-0.009,0.182-0.004,0.199,0.094c-0.094,0.614-0.176,1.246-0.59,1.74
			c-0.044,0.056-0.096,0.101-0.172,0.089c-0.055-0.036-0.043-0.119-0.021-0.165C39.971,48.836,39.901,48.279,39.692,47.9z
			 M38.749,48.953c-0.388-0.101-0.86-0.442-0.949-0.862c-0.04-0.098-0.104-0.209-0.053-0.316c0.189-0.203,0.498-0.243,0.771-0.25
			l0.085,0.096C38.547,48.045,38.407,48.614,38.749,48.953z M38.079,47.274c-0.25-0.021-0.385,0.245-0.612,0.224
			c-0.148-0.171-0.066-0.446-0.161-0.632c-0.104-0.662,0.012-1.369,0.564-1.779c0.105-0.062,0.219-0.014,0.318,0.021
			c0.203,0.205,0.295,0.481,0.438,0.729c0.09,0.186,0.245,0.338,0.261,0.567c0.113,0.29,0.033,0.626-0.021,0.906
			C38.618,47.347,38.356,47.145,38.079,47.274z M33.53,48.239c0.164-0.141,0.447-0.266,0.663-0.134
			c0.179,0.159,0.164,0.427,0.17,0.636c-0.207,0.424-0.598,0.76-1.016,0.922c-0.038-0.005-0.083-0.033-0.101-0.072
			c-0.01-0.309,0.166-0.54,0.141-0.85C33.298,48.538,33.438,48.391,33.53,48.239z M34.284,47.85
			c-0.195-0.002-0.365-0.081-0.533-0.16c-0.205-0.037-0.236,0.205-0.408,0.256c-0.053,0.04-0.088,0.116-0.156,0.125
			c-0.08-0.178-0.064-0.404-0.093-0.616c-0.112-0.224-0.046-0.491,0.069-0.69c0.156-0.109,0.285-0.334,0.537-0.258
			c0.065-0.062,0.094-0.147,0.074-0.238c-0.094-0.123-0.259-0.098-0.387-0.071c-0.172,0.081-0.324,0.235-0.465,0.354
			c-0.189-0.266-0.178-0.621-0.21-0.952c0.021-0.319,0.085-0.684,0.359-0.829c0.247,0.121,0.586,0.088,0.716,0.396
			c0.371,0.54,0.841,1.048,0.898,1.728c0.035,0.399,0.086,0.842-0.123,1.174C34.455,48.002,34.415,47.905,34.284,47.85z
			 M33.147,44.018c-0.615-0.336-0.725-0.992-0.639-1.627c0.012-0.107,0.021-0.26,0.15-0.293c0.124,0.088,0.09,0.244,0.169,0.35
			c0.343,0.603,1.026,0.953,1.45,1.491c0.408,0.238,0.566,0.71,0.596,1.177c0.064,0.133,0.031,0.31-0.018,0.432
			c-0.044,0.016-0.068-0.037-0.1-0.059C34.45,44.842,33.834,44.249,33.147,44.018z M30.255,26.618
			c0.218-0.052,0.294-0.267,0.464-0.386c0.162-0.162,0.291-0.386,0.475-0.572c0.098-0.019,0.189,0.017,0.215,0.107
			c0.031,0.286-0.112,0.5-0.166,0.752c-0.285,0.612-0.651,1.205-1.366,1.317c-0.204,0.028-0.372-0.057-0.491-0.205
			c-0.008-0.262-0.135-0.486-0.098-0.743c0.037-0.531,0.388-0.936,0.678-1.367c0.08-0.085,0.274-0.198,0.346-0.041
			c-0.072,0.333-0.146,0.662-0.143,1.024C30.192,26.542,30.209,26.589,30.255,26.618z M31.766,30.329
			c0.398-0.3,0.695-0.752,0.986-1.117c0.029-0.033,0.091,0.012,0.101,0.048c-0.001,0.733-0.429,1.346-0.873,1.924
			c-0.27,0.333-0.757,0.508-1.204,0.422c-0.335-0.05-0.353-0.412-0.481-0.643c-0.015-0.279,0.106-0.51,0.235-0.727
			c0.385-0.267,0.913-0.562,1.119-1.007c0.044-0.062,0.132-0.117,0.188-0.05c-0.016,0.491-0.291,0.879-0.468,1.308
			C31.506,30.548,31.639,30.4,31.766,30.329z M32.86,27.589c0.381-0.117,0.584-0.448,0.795-0.741c0-0.212,0.209-0.316,0.287-0.502
			c0.045-0.021,0.046,0.031,0.068,0.045c0,0.748-0.32,1.424-0.917,1.894c-0.119,0.088-0.293,0.085-0.43,0.066
			c-0.185-0.114-0.467-0.183-0.46-0.448c0.017-0.453,0.117-0.888,0.526-1.134c0.132-0.14,0.181-0.3,0.352-0.35
			c-0.044,0.265-0.11,0.555-0.163,0.836C32.952,27.392,32.766,27.48,32.86,27.589z M34.757,34.506
			c0.023,0.031,0.048,0.067,0.093,0.05c0.086-0.131,0.012-0.324,0.131-0.419c0.051-0.055,0.15-0.041,0.209-0.021
			c0.258,0.243,0.135,0.648,0.175,0.948c-0.015,0.348-0.117,0.653-0.243,0.953c0.062,0.095,0.164,0.017,0.24-0.007
			c0.253-0.372,0.238-0.848,0.324-1.289c0.026-0.09,0.002-0.212,0.076-0.273c0.06-0.017,0.105,0.05,0.114,0.095
			c0.01,0.302-0.05,0.607-0.026,0.893l0.055,0.028c0.308-0.364,0.139-0.934,0.322-1.362c0.083-0.238,0.014-0.524,0.09-0.76
			c0.16,0.01,0.16,0.245,0.201,0.379c-0.018,0.181,0.106,0.3,0.156,0.443c0.115,1.022,0.384,2.37-0.588,3.011
			c-0.344,0.184-0.76,0.143-1.092-0.02c-0.307-0.143-0.359-0.452-0.519-0.688c-0.184-0.576-0.445-1.203-0.274-1.86
			c0.117-0.622,0.165-1.267,0.506-1.805c0.062,0.05,0.019,0.171,0.021,0.255C34.714,33.549,34.6,34.028,34.757,34.506z
			 M37.663,32.437c-0.135-0.238-0.105-0.55-0.166-0.826c0.031-0.205,0.165,0.033,0.213,0.09c0.215,0.591,1.073,0.741,1.123,1.389
			c0.087,0.165,0.088,0.421-0.028,0.577c-0.212,0.216-0.535,0.326-0.868,0.267c-0.49-0.195-0.807-0.672-1.152-1.053
			c-0.023-0.281-0.257-0.515-0.135-0.798c0.089-0.012,0.159,0.071,0.214,0.121c0.251,0.327,0.57,0.581,0.901,0.819
			c0.06,0,0.136,0.005,0.157-0.064C37.998,32.728,37.708,32.632,37.663,32.437z M37.165,38.25c-0.105-0.224-0.396-0.366-0.42-0.621
			c-0.011-0.091-0.061-0.248,0.06-0.298c0.452,0.183,0.87,0.51,1.206,0.909c0.137,0.253,0.148,0.66-0.049,0.877
			c-0.012,0.129-0.062,0.26-0.188,0.332c-0.127,0.063-0.299,0.085-0.46,0.059c-0.536-0.293-0.826-0.874-0.921-1.463h0.061
			c0.241,0.174,0.278,0.656,0.659,0.539C37.204,38.512,37.198,38.363,37.165,38.25z M38.041,37.131
			c-0.337-0.391-0.592-0.822-0.57-1.375c0.03-0.038,0.065-0.062,0.112-0.047c0.07,0.088,0.064,0.217,0.137,0.312
			c0.111,0.195,0.159,0.531,0.463,0.531c0.08-0.048,0.041-0.16,0.021-0.227c0-0.288-0.227-0.545-0.084-0.845h0.046
			c0.382,0.395,0.854,0.812,0.714,1.414c-0.033,0.168-0.204,0.263-0.345,0.32C38.376,37.237,38.186,37.209,38.041,37.131z
			 M32.919,36.502c0.263-0.271,0.458-0.619,0.675-0.912c0.076-0.033,0.078,0.043,0.117,0.079c0.098,0.752-0.312,1.446-0.922,1.812
			c-0.156,0.082-0.358,0.107-0.541,0.084c-0.117-0.117-0.175-0.26-0.284-0.377c-0.062-0.564,0.058-1.136,0.461-1.517
			c0.162-0.165,0.179-0.362,0.356-0.502c0.23,0.128,0.113,0.495,0.135,0.729c0,0.271-0.236,0.445-0.25,0.71
			C32.751,36.712,32.837,36.55,32.919,36.502z M33.463,37.731c0.145-0.254,0.436-0.396,0.586-0.659
			c0.097-0.026,0.174,0.031,0.222,0.091c-0.001,0.483-0.283,0.861-0.537,1.265c0.147,0.114,0.247-0.122,0.413-0.081
			c0.311-0.243,0.307-0.637,0.533-0.924c0.089-0.026,0.152,0.071,0.186,0.138c0.321,0.665-0.137,1.261-0.447,1.753
			c-0.193,0.359-0.62,0.238-0.936,0.283c-0.176-0.037-0.365-0.07-0.424-0.273C32.942,38.715,33.329,38.256,33.463,37.731z
			 M34.338,31.948c-0.046,0.281-0.144,0.534-0.188,0.815l-0.087,0.1c0.084,0.074-0.01,0.219-0.021,0.319
			c-0.119,0.569-0.597,1.017-1.152,1.139c-0.198-0.031-0.389-0.086-0.551-0.203c-0.256-0.229-0.193-0.646-0.173-0.958
			c0.201-0.638,0.592-1.21,0.952-1.772c0.037-0.031,0.135-0.095,0.144-0.005c0.079,0.564-0.034,1.089-0.201,1.579
			c-0.042,0.114,0.015,0.241,0.13,0.298c0.202-0.066,0.248-0.317,0.402-0.443l-0.002-0.083c0.236-0.4,0.467-0.808,0.559-1.262
			c0.028-0.062,0.089-0.05,0.143-0.053C34.424,31.56,34.325,31.768,34.338,31.948z M31.315,28.856
			c-0.22,0.241-0.479,0.436-0.821,0.365c-0.083-0.026-0.19-0.062-0.216-0.152c-0.093-0.558,0.396-0.889,0.473-1.375
			c0.103-0.109,0.18-0.279,0.324-0.283c0.07,0.338-0.071,0.638-0.146,0.95c0.107,0.057,0.193-0.126,0.266-0.205
			c0.222-0.414,0.353-0.872,0.46-1.336c0.041-0.093,0.135-0.026,0.145,0.041C31.905,27.613,31.674,28.271,31.315,28.856z
			 M30.198,32.515l0.529-0.514c0.06-0.002,0.127-0.005,0.145,0.062c0.078,0.331-0.086,0.653-0.198,0.946
			c0.012,0.143-0.144,0.284-0.033,0.403c0.158-0.021,0.259-0.208,0.36-0.317c0.227-0.291,0.414-0.617,0.709-0.836
			c0.029,0,0.061,0.007,0.076,0.036c-0.038,0.483-0.275,0.893-0.467,1.322c-0.238,0.369-0.621,0.722-1.1,0.638l-0.116-0.109
			C30.063,33.616,29.877,32.97,30.198,32.515z M31.885,38.571c0.088-0.072,0.131-0.187,0.227-0.213
			c0.006,0.188-0.17,0.346-0.232,0.536c-0.07,0.207-0.215,0.386-0.193,0.626c0.086,0.109,0.19,0.024,0.271-0.023
			c0.236-0.172,0.375-0.396,0.571-0.607c0.031,0.021,0.019,0.076,0.019,0.114c-0.036,0.017-0.027,0.056-0.027,0.091
			c-0.207,0.422-0.431,0.98-0.957,1.103c-0.18,0.05-0.355,0.013-0.48-0.128c-0.131-0.336-0.029-0.748,0.174-1.01
			C31.495,38.891,31.614,38.639,31.885,38.571z M31.811,42.398c0.05,0.424,0.132,0.874-0.092,1.235
			c-0.064,0.101-0.191,0.18-0.299,0.107c-0.154-0.055-0.173-0.235-0.186-0.381c-0.027-0.432-0.076-0.783,0.062-1.172
			c0.076-0.252,0.136-0.529,0.166-0.801c0.046-0.204,0.062-0.424,0.139-0.613c0.058,0.133,0.041,0.299,0.098,0.434
			C31.788,41.598,31.633,42.041,31.811,42.398z M31.088,45.394c0.098-0.245,0.188-0.491,0.425-0.657
			c0.106-0.246,0.397-0.131,0.582-0.236c0.163,0.139,0.571-0.131,0.521,0.203c-0.207,0.4-0.359,0.859-0.246,1.338
			c-0.107,0.225-0.57-0.049-0.475,0.332c0.151,0.27,0.479,0.092,0.623,0.352c0.062,0.332,0.104,0.68,0.151,1.018
			c-0.013,0.053-0.082,0.041-0.104,0.017c-0.256-0.188-0.601-0.353-0.921-0.177c-0.192,0.105-0.315,0.322-0.478,0.477
			c-0.097,0.055-0.123-0.078-0.148-0.141C30.798,47.102,30.891,46.17,31.088,45.394z M33.577,42.803
			c-0.221-0.311-0.3-0.687-0.477-1.022c-0.047-0.353-0.098-0.72-0.001-1.058c0.034-0.09,0.04-0.212,0.136-0.275l0.039,0.037
			c-0.03,0.779,0.5,1.314,0.934,1.885c0.327,0.33,0.957,0.431,0.906,1.017c0,0.255,0.176,0.546,0.009,0.776
			c-0.075,0.005-0.055-0.05-0.101-0.088C34.634,43.52,34.067,43.243,33.577,42.803z M35.086,41.872
			c-0.361-0.42-0.732-0.93-0.507-1.504c0.026-0.388,0.174-0.762,0.499-1.004c0.065-0.094,0.016-0.258,0.15-0.293
			c0.062,0.09-0.041,0.152-0.054,0.221c0.063,0.391,0.286,0.975-0.075,1.303c-0.005,0.066-0.002,0.158,0.066,0.186
			c0.381,0.104,0.307-0.393,0.529-0.527c0.039,0.309-0.188,0.564-0.393,0.783c0.033,0.104,0.161,0.107,0.246,0.164
			c0.219-0.021,0.279-0.271,0.373-0.426c0.101-0.455,0.055-0.946-0.205-1.318c0.018-0.128-0.064-0.338,0.053-0.455
			c0.252,0.024,0.373,0.301,0.507,0.47c0.179,0.434,0.263,0.968,0.11,1.432c0.061,0.462-0.352,0.571-0.617,0.867
			C35.578,41.872,35.309,41.993,35.086,41.872z M36.147,42.795c0.032-0.19,0.18-0.31,0.273-0.455
			c0.16-0.452,0.443-0.877,0.664-1.281c0.168-0.233,0.098-0.548,0.219-0.795c0.136,0.035,0.135,0.223,0.199,0.328
			c0.053,0.533,0.062,1.086-0.129,1.539c-0.33,0.56-0.752,1.072-1.039,1.648c-0.117,0.102-0.098,0.26-0.161,0.391
			C35.925,43.752,35.962,43.215,36.147,42.795z M36.471,44.768c0.061-0.473,0.373-0.851,0.551-1.266
			c0.363-0.471,0.598-1,0.785-1.543c0.026-0.114-0.068-0.209,0.021-0.303c0.196,0.295,0.27,0.701,0.229,1.096
			c0.016,1.029-1.079,1.553-1.226,2.518c-0.116,0.103-0.204,0.256-0.276,0.372C36.405,45.404,36.485,45.053,36.471,44.768z
			 M38.799,42.757c0.035-0.583,0.215-1.112,0.236-1.7c-0.025-0.091,0.098-0.238,0.127-0.066c0.107,0.557-0.012,1.159,0.163,1.688
			c-0.024,0.389,0.071,0.87-0.269,1.092c-0.143,0.088-0.251-0.055-0.278-0.167C38.642,43.305,38.87,43.065,38.799,42.757z
			 M39.668,39.306c-0.078,0.147-0.236,0.174-0.373,0.141c-0.559-0.188-0.781-0.831-0.94-1.349c0.135-0.04,0.171,0.162,0.293,0.203
			c0.222,0.055,0.31,0.474,0.556,0.348c-0.039-0.258-0.309-0.408-0.354-0.655c-0.031-0.104-0.135-0.217-0.077-0.323
			c0.144,0.025,0.099,0.237,0.265,0.264c0.327,0.074,0.587,0.391,0.723,0.682C39.875,38.846,39.799,39.114,39.668,39.306z
			 M38.512,30.583c-0.395-0.283-0.49-0.733-0.609-1.16c0.012-0.146-0.055-0.317,0.031-0.434c0.067-0.017,0.07,0.081,0.118,0.126
			c0.233,0.229,0.364,0.593,0.681,0.743c0.061,0.057,0.064,0.141,0.148,0.19c0.078,0.045,0.166-0.012,0.201-0.088
			c-0.004-0.136-0.129-0.262-0.215-0.381c-0.078-0.322-0.424-0.546-0.339-0.927c0.141-0.131,0.239,0.138,0.376,0.193
			c0.428,0.148,0.994,0.372,1.064,0.898c0.021,0.281,0.049,0.665-0.24,0.855C39.374,30.808,38.874,30.762,38.512,30.583z
			 M39.715,27.618c0.107,0.057,0.187,0.184,0.295,0.248c0.216,0.184,0.391,0.458,0.279,0.762c-0.072,0.131-0.09,0.298-0.231,0.386
			c-0.278,0.007-0.47-0.312-0.663-0.457c-0.172-0.184-0.299-0.407-0.231-0.681c0.027-0.083,0.11-0.041,0.157-0.019
			c0.168,0.055,0.298,0.362,0.475,0.226C39.792,27.918,39.643,27.778,39.715,27.618z M39.985,27.406
			c-0.302-0.453-0.564-0.919-0.635-1.47c0.014-0.038,0.066-0.048,0.098-0.019c0.235,0.312,0.537,0.779,0.984,0.774
			c0.131-0.141-0.062-0.286-0.098-0.436c-0.026-0.167-0.146-0.336-0.075-0.507c0.144-0.031,0.141,0.14,0.241,0.2
			c0.293,0.188,0.595,0.434,0.665,0.781c0.003,0.338-0.039,0.741-0.311,0.953C40.552,27.685,40.232,27.618,39.985,27.406z
			 M36.795,31.22c-0.342,0.44-0.86,0.788-1.451,0.762c-0.288-0.06-0.586-0.141-0.791-0.393c0.039-0.25-0.281-0.331-0.229-0.591
			c-0.181-0.5-0.432-0.993-0.336-1.601c-0.071-0.624,0.061-1.286,0.217-1.872c0.057-0.093,0.176-0.445,0.318-0.208
			c0.002,0.56-0.155,1.125,0.064,1.646c0.07,0.038,0.116,0.117,0.207,0.107c0.162-0.148-0.012-0.408,0.126-0.577
			c0.082-0.057,0.131,0.041,0.163,0.1c0.094,0.579,0,1.284,0.28,1.798c0.056,0.095,0.173,0.176,0.276,0.136
			c0.096-0.057,0.05-0.117,0.055-0.205c-0.304-0.786-0.297-1.83,0.02-2.597c0.061-0.017,0.07,0.029,0.101,0.067
			c0.061,0.526-0.073,1.053,0.106,1.546c0.226-0.06,0.202-0.317,0.272-0.484c0.144-0.55-0.024-1.088,0.148-1.622
			c0.062,0.005,0.049,0.081,0.095,0.11C36.83,28.535,37.635,29.99,36.795,31.22z M34.418,19.875
			c-0.025-0.112,0.055-0.267-0.07-0.336c-0.119,0.041-0.262,0.067-0.366,0.11c-0.038-0.01-0.07-0.069-0.079-0.112
			c0.006-0.023,0.014-0.047,0.012-0.085c0.238-0.15,0.476-0.31,0.736-0.415c0.051-0.093,0.183-0.238,0.27-0.09
			c-0.026,0.378-0.259,0.681-0.432,1.002C34.422,19.975,34.458,19.896,34.418,19.875z M33.704,18.979
			c-0.195,0.021-0.436,0.064-0.592-0.081c0.055-0.176,0.299-0.122,0.441-0.186c0.277-0.062,0.45,0.152,0.679,0.205
			c0.009,0.024,0.024,0.045,0.019,0.076C34.085,19.06,33.901,18.958,33.704,18.979z M34.356,17.4
			c-0.129-0.005-0.118-0.157-0.211-0.222c-0.07-0.06-0.133-0.138-0.245-0.107c-0.141,0.119-0.172,0.31-0.259,0.455l0.004,0.129
			c-0.173,0.028-0.24-0.205-0.357-0.308c-0.069-0.307,0.151-0.526,0.326-0.743c0.211-0.015,0.455,0.069,0.581,0.254
			C34.262,17.031,34.409,17.171,34.356,17.4z M33.49,18.069c-0.06,0.257,0.257,0.24,0.397,0.343l0.046,0.06
			c-0.049,0.107-0.185,0.119-0.284,0.09c-0.266-0.074-0.605-0.05-0.844,0.072c-0.129,0.019-0.25,0-0.343-0.081
			c0.023-0.212,0.308-0.079,0.448-0.141c0.105-0.057,0.217-0.093,0.312-0.176c-0.258-0.25-0.65-0.019-0.976-0.033
			c-0.21,0.06-0.488,0.128-0.658-0.024c-0.01-0.045,0.042-0.083,0.079-0.103c0.32,0.074,0.494-0.188,0.773-0.195
			c0.246-0.114,0.536-0.031,0.771,0.021C33.298,17.976,33.413,17.981,33.49,18.069z M32.768,17.531
			c-0.521-0.007-0.938,0.262-1.451,0.219c-0.033-0.045-0.115-0.021-0.131-0.088c-0.025-0.074,0.073-0.055,0.11-0.085
			c0.138-0.179,0.382-0.095,0.537-0.236c0.143-0.012,0.311,0.019,0.397-0.11c0.331-0.026,0.652,0.048,0.855,0.276l0.001,0.067
			C32.975,17.631,32.875,17.543,32.768,17.531z M31.43,18.946c0.555-0.176,1.156-0.026,1.575,0.338
			c0.356,0.548,0.493,1.308,0.247,1.944c-0.16,0.436-0.525,0.9-1.022,0.945c-0.589,0.267-1.194-0.04-1.66-0.419
			c-0.345-0.376-0.647-0.896-0.428-1.408C30.258,19.693,30.777,19.117,31.43,18.946z M29.526,28.676
			c0.029-0.007,0.045,0.017,0.061,0.031c-0.041,1.188,0.008,2.306,0.09,3.521c0.078,1.062,0.111,2.196,0.166,3.237
			c-0.032,0.198-0.248,0.327-0.295,0.517c-0.117,0.131-0.219,0.3-0.367,0.35c-0.154-0.321-0.082-0.731-0.161-1.084
			c-0.061-1.746-0.296-3.551-0.261-5.375c0.069-0.229,0.236-0.422,0.299-0.65C29.209,29.028,29.41,28.864,29.526,28.676z
			 M30.065,35.757l0.05-0.09c0.281-0.214,0.544-0.493,0.757-0.741c0.045-0.017,0.083,0.005,0.113,0.041
			c-0.127,0.526-0.247,1.043-0.574,1.484c-0.014,0.062,0.01,0.114,0.064,0.126c0.203-0.255,0.391-0.548,0.665-0.752
			c0.168-0.193,0.266-0.438,0.497-0.56c0.119,0.164-0.004,0.357-0.006,0.529c-0.053,0.788-0.445,1.534-1.184,1.86
			c-0.251,0-0.403,0.229-0.67,0.134c-0.206-0.048-0.43-0.217-0.511-0.403C29.194,36.736,29.632,36.209,30.065,35.757z
			 M29.669,38.073L30,38.008c0.038,0.014,0.068,0.028,0.099,0.064c0.089,0.883,0.116,1.812,0.242,2.723
			c0.034,0.656,0.118,1.235,0.185,1.886c0.059,0.429,0.027,0.905,0.212,1.284c0.171,0.367-0.102,0.641-0.229,0.938
			c-0.332-0.027-0.027-0.428-0.221-0.59c-0.285-1.17-0.629-2.311-0.697-3.57c-0.078-0.579-0.126-1.175-0.152-1.772
			c-0.105-0.3-0.025-0.626-0.11-0.943C29.446,37.926,29.547,38.075,29.669,38.073z M29.397,46.624
			c0.025-0.402,0.053-0.803,0.322-1.113c0.008-0.211,0.243-0.229,0.367-0.345c0.203,0.003,0.449-0.171,0.613-0.003
			c0.004,0.144,0.202,0.22,0.139,0.382c-0.105,0.237-0.236,0.414-0.451,0.573c-0.105,0.018-0.268-0.106-0.315,0.053
			c0.046,0.273,0.411,0.096,0.485,0.326c0.007,0.236,0.107,0.498,0.007,0.72c-0.22,0.021-0.528,0.03-0.743,0.149
			c-0.105,0.064-0.209,0.15-0.338,0.117C29.257,47.286,29.336,46.897,29.397,46.624z M29.898,47.612
			c0.201-0.081,0.437-0.088,0.642-0.02c-0.029,0.243-0.107,0.473-0.09,0.736c0.038,0.301,0.178,0.615,0.49,0.734v0.016
			c-0.225,0.051-0.403-0.123-0.603-0.186c-0.262-0.166-0.302-0.462-0.423-0.707C29.903,47.998,29.7,47.776,29.898,47.612z
			 M31.877,47.817c0.205,0.021,0.447,0.021,0.553,0.232c-0.023,0.241-0.148,0.434-0.109,0.689c0.047,0.264,0.031,0.553,0.181,0.767
			l0.005,0.098c-0.19-0.017-0.355-0.192-0.51-0.341c-0.288-0.285-0.594-0.593-0.574-1.002
			C31.492,48.055,31.706,47.926,31.877,47.817z M41.28,47.602c-0.055-0.035-0.033-0.129-0.02-0.176
			c0.188-0.291,0.543-0.061,0.811-0.164l0.047,0.025c0.055,0.324-0.287,0.531-0.354,0.829c-0.052,0.076-0.078,0.152-0.09,0.243
			c-0.161,0.202-0.299,0.402-0.514,0.553l-0.099,0.002C41.117,48.477,41.483,48.11,41.28,47.602z M42.235,46.909
			c-0.065,0.055-0.138,0.141-0.23,0.091c-0.285-0.144-0.521,0.083-0.799,0.083c-0.098-0.224-0.174-0.469-0.152-0.727
			c0.17-0.186,0.369-0.32,0.53-0.5c0.006-0.053-0.011-0.113-0.071-0.119c-0.205-0.047-0.44,0.391-0.587,0.079
			c-0.122-0.245-0.243-0.493-0.297-0.778c0.185-0.141,0.364,0.042,0.532,0.098l0.289,0.076c0.527,0.104,0.528,0.664,0.766,1.012
			C42.222,46.45,42.516,46.728,42.235,46.909z M41.101,36.798c-0.615,0.117-1.19-0.152-1.599-0.61
			c-0.189-0.305-0.381-0.607-0.431-0.977c0.037-0.055,0.104-0.085,0.159-0.052c0.317,0.293,0.675,0.562,1.062,0.703l0.059-0.076
			c0.07,0.036,0.104,0.155,0.193,0.107c0-0.045,0.089-0.064,0.034-0.1c-0.481-0.4-0.782-0.877-0.927-1.432
			c-0.027-0.105,0.094-0.107,0.164-0.081c0.508,0.31,1.01,0.667,1.483,1.074c0.183,0.267,0.418,0.564,0.269,0.924
			C41.532,36.521,41.356,36.746,41.101,36.798z M41.446,27.011c0.021-0.055,0.098-0.036,0.127-0.021
			c0.219,0.167,0.309,0.415,0.48,0.612c0.379,0.286,0.725,0.714,1.182,0.843c0.143,0.193,0.376,0.155,0.546,0.286
			c-0.033,0.184-0.134,0.367-0.32,0.426c-0.552,0.024-0.88-0.374-1.254-0.75C41.788,28.018,41.612,27.518,41.446,27.011z
			 M43.739,26.12c-0.121,0.05-0.281,0.002-0.388-0.072c-0.415-0.183-0.238-0.643-0.317-0.979c-0.023-0.264-0.07-0.581,0.074-0.795
			c0.068-0.019,0.115,0.064,0.146,0.1C43.46,24.934,43.764,25.455,43.739,26.12z M43.352,22.245c-0.049,0.085-0.111,0.05-0.18,0.036
			c-0.142-0.207-0.41-0.312-0.462-0.56c-0.042-0.098-0.161-0.055-0.222-0.038c-0.014,0.038-0.065,0.062-0.033,0.107
			c0.305,0.353,0.357,0.812,0.662,1.167c-0.017,0.234-0.201,0.398-0.301,0.553c-0.03,0.014-0.067,0.017-0.098,0.017
			c-0.164-0.138-0.162-0.348-0.289-0.505c0.004-0.143-0.068-0.262-0.139-0.381c0.07-0.403-0.262-0.62-0.414-0.924
			c-0.201-0.16-0.464-0.16-0.646-0.384c-0.011-0.081-0.013-0.164,0.054-0.229c0.257-0.262,0.606,0.074,0.897-0.071
			c0.131,0.081,0.287-0.038,0.432,0.019c0.201,0.122,0.389,0.288,0.629,0.298c0.162,0.114,0.245,0.317,0.189,0.524
			C43.406,21.995,43.341,22.109,43.352,22.245z M42.84,18.572c-0.021,0.112-0.113,0.252-0.005,0.355
			c0.125,0.102,0.293,0.15,0.342,0.324c0.042,0.095,0.022,0.195-0.089,0.229c-0.342,0.019-0.633,0.148-0.85,0.441
			c0.001,0.052-0.004,0.114,0.057,0.143c0.234,0.015,0.234-0.302,0.451-0.338c0.159,0.017,0.329-0.141,0.461,0
			c-0.047,0.183,0.204,0.267,0.21,0.448c-0.082,0.305,0.052,0.686-0.122,0.955c-0.378,0.012-0.701-0.438-1.086-0.124
			c-0.25-0.038-0.465-0.155-0.744-0.121c-0.192-0.148-0.26-0.403-0.224-0.646c0.07-0.176,0.276-0.122,0.379-0.252
			c0.113-0.012,0.251,0.076,0.347-0.026c-0.043-0.165-0.289-0.088-0.418-0.1c-0.113,0.05-0.23,0.136-0.359,0.109
			c-0.133-0.081-0.113-0.245-0.095-0.369c0.175-0.412,0.651-0.472,1.04-0.56c0.023-0.024,0.06-0.055,0.044-0.093
			c-0.439-0.257-0.853,0.079-1.193,0.302c-0.052,0.024-0.106-0.021-0.109-0.071c0.076-0.291,0.21-0.622,0.539-0.719
			c0.021-0.048,0.097-0.072,0.071-0.131c-0.115-0.081-0.218,0.029-0.33,0.038c-0.148,0.141-0.333,0.27-0.519,0.357
			c0.015-0.243,0.251-0.438,0.351-0.669c-0.018-0.028-0.018-0.06-0.057-0.081c-0.328,0.169-0.545,0.469-0.857,0.667
			c-0.09,0.034-0.203,0.021-0.271-0.036c-0.057-0.045-0.043-0.126-0.022-0.181c0.243-0.257,0.46-0.582,0.579-0.91
			c0.201-0.564,0.9-0.481,1.272-0.884c0.184,0.055,0.423-0.066,0.51,0.129c-0.073,0.09-0.177,0.109-0.28,0.15
			c-0.244,0.188-0.613,0.276-0.701,0.626c0.156,0.117,0.223-0.15,0.351-0.2c0.087-0.062,0.191-0.155,0.313-0.107
			c0.156,0.176,0.348-0.26,0.447,0.071c-0.062,0.16-0.258,0.217-0.391,0.312c-0.146,0.133-0.285,0.326-0.347,0.524
			c0.048,0.098,0.138,0.005,0.205,0.01c0.206-0.171,0.402-0.426,0.675-0.419C42.744,17.878,42.86,18.231,42.84,18.572z
			 M39.344,15.613c0.234-0.262,0.589-0.236,0.85-0.426c0.683-0.193,1.444,0.064,2.021-0.362l0.732-0.505
			c0.273-0.009,0.402-0.283,0.616-0.397c0.075-0.024,0.153,0.019,0.162,0.088c-0.073,0.343-0.245,0.648-0.272,0.996
			c-0.068,0.534-0.646,0.61-0.964,0.915c-0.229,0.152-0.524,0.152-0.777,0.243c-0.591,0.002-1.111,0.305-1.413,0.784
			c0.096,0.157-0.076,0.26-0.188,0.324c-0.134,0.086-0.346,0.062-0.424,0.217c0.062,0.064,0.205,0.045,0.186,0.176
			c-0.31,0.257-0.829,0.048-1.146,0.284c-0.045,0.038-0.119,0.064-0.125,0.131c0.085,0.067,0.271-0.014,0.26,0.136
			c-0.227,0.219-0.577,0.148-0.838,0.284c-0.02,0.06,0.049,0.088,0.086,0.095c0.121,0.002,0.225-0.083,0.346-0.041
			c-0.003,0.114-0.146,0.103-0.213,0.164c-0.26,0.122-0.62,0.034-0.84,0.229c0.109,0.102,0.305,0.052,0.383,0.171
			c-0.289,0.181-0.66,0.179-0.939,0.376c-0.225,0.15,0.087,0.662-0.312,0.524c-0.236-0.176-0.337-0.438-0.383-0.71
			c0.072-0.107-0.049-0.374,0.148-0.343c0.191,0.1,0.168,0.312,0.33,0.405c0.129,0.012,0.191-0.133,0.264-0.212
			c-0.182-0.31,0.28-0.317,0.402-0.524c-0.039-0.257,0.257-0.222,0.391-0.314c0.263-0.076,0.541-0.131,0.787-0.236
			c-0.002-0.045-0.054-0.036-0.078-0.06c-0.043,0.024-0.098,0.019-0.143,0.019c-0.031-0.021-0.039-0.043-0.032-0.081
			c0.284-0.379,0.785-0.288,1.182-0.429c-0.026-0.105-0.177-0.107-0.098-0.238c0.265-0.229,0.761-0.114,0.876-0.526
			c0.006-0.083,0.122-0.193,0.009-0.25c-0.187,0.098-0.341,0.283-0.519,0.396c-0.17,0.186-0.377,0.288-0.595,0.357
			c0.021-0.122,0.093-0.183,0.181-0.278c0.347-0.327,0.545-0.741,0.686-1.153c-0.027-0.083-0.125-0.043-0.176-0.034
			c-0.316,0.312-0.688,0.52-1.027,0.772c-0.084,0.002-0.158,0.057-0.242,0.024c-0.072-0.174,0.166-0.234,0.232-0.362
			C38.957,16.066,39.124,15.818,39.344,15.613z M36.06,17.397c-0.101-0.112-0.085-0.3-0.097-0.46
			c-0.047-0.036-0.062-0.042-0.129-0.033c-0.126,0.109-0.22,0.265-0.192,0.436c-0.037,0.031-0.067,0.033-0.098-0.01
			c-0.069-0.271-0.01-0.576,0.119-0.822c0.073-0.085,0.183-0.188,0.298-0.152c0.138,0.079,0.211,0.227,0.32,0.346
			C36.221,16.938,36.252,17.226,36.06,17.397z M37.077,17.007c-0.107-0.093-0.193,0.052-0.283,0.093
			c-0.132,0.133-0.174,0.269-0.291,0.41c-0.059,0.024-0.092-0.043-0.115-0.081c-0.001-0.279,0.091-0.524,0.204-0.752
			c0.115-0.157,0.351-0.155,0.451-0.355c0.112-0.071,0.373-0.162,0.388,0.071c0.006,0.227,0.104,0.422,0.208,0.598
			c-0.032,0.212-0.156,0.391-0.241,0.583c-0.043,0.045-0.11,0.093-0.171,0.071C37.271,17.409,37.129,17.226,37.077,17.007z
			 M37.314,14.725c0.007-0.265,0.303-0.229,0.466-0.3c0.341-0.033,0.674,0.033,0.857,0.338c0.057,0.119,0.111,0.221,0.139,0.35
			c-0.162,0.117-0.125,0.357-0.303,0.469c-0.275-0.088-0.194-0.448-0.404-0.622c-0.287-0.195-0.549,0.114-0.811,0.197
			C37.156,15.025,37.287,14.87,37.314,14.725z M37.674,15.318c0.07,0,0.138-0.004,0.177,0.062c-0.003,0.357,0.476,0.729,0.062,1.034
			c-0.287-0.019-0.221-0.338-0.332-0.517c-0.219-0.174-0.359,0.162-0.586,0.145c-0.098,0.017-0.17-0.079-0.119-0.169
			C36.924,15.478,37.375,15.432,37.674,15.318z M35.526,14.704c0.162-0.367,0.607-0.426,0.979-0.429
			c0.178,0.16,0.236,0.362,0.379,0.531c0.041,0.126-0.047,0.26-0.097,0.36c-0.104,0.01-0.163-0.171-0.278-0.219
			c-0.191-0.085-0.405-0.155-0.631-0.095c-0.12,0.026-0.205,0.165-0.328,0.124C35.495,14.908,35.506,14.787,35.526,14.704z
			 M35.961,15.187c0.238-0.098,0.309,0.241,0.441,0.372c0.049,0.128,0.27,0.195,0.17,0.374c-0.051,0.069-0.068,0.229-0.191,0.171
			c-0.185-0.107-0.284-0.393-0.516-0.279c-0.104,0.086-0.159,0.224-0.294,0.25c-0.125-0.102-0.055-0.293-0.082-0.443
			C35.645,15.468,35.761,15.344,35.961,15.187z M35.434,19.124c0.168-0.1,0.403,0.077,0.531-0.119l0.045,0.014
			c0.044,0.226,0.186,0.498,0.053,0.731c-0.006,0.133,0.088,0.243,0.062,0.359c-0.142-0.024-0.116-0.181-0.2-0.26
			c-0.048-0.081-0.078-0.152-0.162-0.188c-0.191,0.029-0.104,0.469-0.348,0.248c-0.064-0.155,0.105-0.424-0.111-0.5
			c-0.137,0.152-0.153,0.338-0.253,0.498c-0.074-0.042-0.167-0.128-0.177-0.233c0.329-0.121-0.053-0.502,0.308-0.617
			C35.276,19.003,35.367,19.067,35.434,19.124z M35.241,17.138c-0.129-0.005-0.072-0.141-0.135-0.207
			c-0.047-0.06-0.096-0.186-0.193-0.138c-0.102,0.117-0.127,0.283-0.085,0.434l-0.044,0.038c-0.158-0.191-0.262-0.422-0.247-0.665
			c0.019-0.167,0.165-0.314,0.306-0.396c0.137,0.005,0.223,0.124,0.346,0.164C35.345,16.583,35.317,16.899,35.241,17.138z
			 M34.492,15.918c-0.036,0.1-0.107,0.2-0.204,0.264c-0.098,0.01-0.153-0.064-0.192-0.138c-0.063-0.074-0.028-0.181-0.04-0.271
			c0.139-0.203,0.198-0.467,0.415-0.586c0.249-0.009,0.378,0.298,0.642,0.252c0.086,0.064,0.066,0.179,0.078,0.283
			C34.961,15.928,34.632,15.587,34.492,15.918z M34.522,14.272c0.149-0.019,0.271,0.007,0.373,0.103
			c0.139,0.131,0.131,0.335,0.271,0.469c0.003,0.088,0.012,0.195-0.076,0.243c-0.354,0.057-0.412-0.405-0.76-0.317
			c-0.123,0.146-0.346,0.267-0.4,0.464c-0.052,0.048-0.102,0.11-0.171,0.064c-0.079-0.079-0.15-0.16-0.174-0.264
			C33.754,14.644,34.052,14.27,34.522,14.272z M33.731,15.847c0.043,0.105,0.076,0.255,0.043,0.355
			c-0.223-0.024-0.484,0.021-0.584,0.274c-0.086,0.141-0.119,0.312-0.26,0.424c-0.129-0.071-0.209-0.229-0.267-0.362
			c0.122-0.248,0.198-0.498,0.333-0.729c0.029-0.038,0.066-0.079,0.109-0.086C33.321,15.751,33.506,15.906,33.731,15.847z
			 M32.382,14.634c0.22,0.007,0.438,0.01,0.61,0.155c0.116,0.103,0.152,0.319,0.342,0.343c0.07,0.028,0.072,0.112,0.072,0.157
			c-0.088,0.1-0.21,0.014-0.316,0.026c-0.227,0.007-0.529-0.281-0.656,0.064c-0.063,0.107-0.104,0.291-0.247,0.303
			c-0.134-0.131-0.222-0.295-0.188-0.479C32.137,15.003,32.182,14.775,32.382,14.634z M27.277,14.706
			c-0.04-0.271,0.021-0.539,0.036-0.803c0.043-0.034,0.072-0.1,0.125-0.103c0.285-0.076,0.219,0.257,0.352,0.374
			c0.145,0.276,0.365,0.564,0.684,0.638c0.568,0.026,1.23-0.09,1.75,0.105c0.441,0.085,0.799,0.429,1.143,0.76
			c0.09,0.005,0.133-0.079,0.238-0.053c0.104,0.141,0.393,0.2,0.316,0.422c0.326,0.036,0.428,0.405,0.668,0.586
			c-0.229,0.203,0.477,0.507-0.062,0.469c-0.406-0.222-0.767,0.107-1.168,0.126c-0.099-0.026-0.219-0.017-0.305-0.098l0.035-0.083
			c0.244-0.174,0.513-0.303,0.837-0.327c0.075-0.047,0.024-0.205,0.17-0.15c0.054,0.06,0.11,0.169,0.208,0.152
			c0.03-0.014,0.014-0.052,0.014-0.083c-0.184-0.048-0.228-0.267-0.426-0.305c-0.15,0.005-0.318-0.021-0.398-0.176
			c-0.068-0.255-0.352-0.376-0.559-0.467c-0.1-0.064-0.215-0.145-0.343-0.095c-0.059,0.052-0.125,0.124-0.069,0.205
			c0.191,0.297,0.434,0.569,0.661,0.843v0.029c-0.28-0.014-0.456-0.372-0.743-0.341c-0.037,0.041-0.065,0.107-0.026,0.16
			c0.112,0.179,0.353,0.398,0.192,0.601c-0.195,0.021-0.293-0.195-0.395-0.322c-0.023-0.271-0.298-0.345-0.505-0.429
			c-0.214-0.079-0.444,0.033-0.673-0.012c-0.199-0.071-0.428,0.105-0.576-0.081C27.786,16.042,27.327,15.382,27.277,14.706z
			 M27.109,25.872c0.109-0.359,0.036-0.788,0.269-1.098c0.177,0.048,0.062,0.265,0.127,0.415c0.1,0.322,0.104,0.705,0.16,1.029
			c-0.101,0.169-0.296,0.297-0.491,0.271C27.054,26.327,27.106,26.067,27.109,25.872z M28.788,25.303
			c0.051-0.083,0.201-0.119,0.227,0.007c-0.004,0.319-0.133,0.595-0.23,0.87c-0.274,0.424-0.351,0.94-0.746,1.308
			c-0.209,0.128-0.381,0.419-0.662,0.383c-0.129-0.224-0.31-0.445-0.293-0.71C27.709,26.637,28.417,26.01,28.788,25.303z
			 M27.619,29.052c-0.119,0.055-0.244,0.165-0.366,0.124c-0.03-0.233-0.109-0.586,0.137-0.722c0.126-0.088,0.314-0.343,0.414-0.081
			C27.847,28.621,27.856,28.895,27.619,29.052z M27.991,28.907c0.268-0.431,0.705-0.717,0.857-1.188
			c0.037-0.034,0.086-0.141,0.143-0.057c-0.051,0.824-0.393,1.553-0.879,2.203c-0.233,0.317-0.609,0.381-0.93,0.541
			c-0.105,0.012-0.198-0.085-0.238-0.174c-0.049-0.098-0.098-0.217-0.063-0.331C27.28,29.624,27.701,29.295,27.991,28.907z
			 M25.878,28.528c0.046-0.267,0.112-0.548,0.38-0.7c0.143-0.081,0.304-0.205,0.465-0.16l0.168,0.314
			c0.043,0.422-0.408,0.526-0.65,0.753c-0.084,0.009-0.087,0.131-0.172,0.071C25.946,28.752,25.913,28.63,25.878,28.528z
			 M26.176,32.43c-0.113,0.041-0.176-0.055-0.261-0.091c-0.124-0.133-0.214-0.305-0.158-0.502c0.061-0.25,0.37-0.252,0.462-0.498
			c0.35-0.162,0.535-0.546,0.822-0.789c0.145,0.026,0.299-0.146,0.4,0.005C27.124,31.243,26.734,31.86,26.176,32.43z M27.885,41.821
			c-0.386-1.303-0.75-2.622-0.95-4.016c-0.233-1.165-0.269-2.419-0.479-3.592c0.061-0.545-0.033-1.093-0.049-1.646
			c0.123-0.169,0.316-0.267,0.471-0.4c0.039-0.002,0.069,0.014,0.094,0.05c-0.02,0.907,0.202,1.741,0.162,2.641
			c0.08,0.655,0.168,1.37,0.25,2.027c-0.024,0.681,0.123,1.354,0.145,2.058c0.076,0.756,0.248,1.475,0.311,2.246
			c0.027,0.21,0.102,0.405,0.078,0.631H27.885z M28.248,40.826c-0.108-0.616-0.107-1.306-0.229-1.892
			c-0.158-1.19-0.174-2.467-0.254-3.666c-0.07-0.34-0.113-0.724-0.131-1.1c-0.107-0.777-0.072-1.586-0.244-2.344
			c-0.068-0.467,0.086-0.858,0.25-1.239c0.109-0.095,0.27-0.298,0.395-0.157c0.07,0.784,0.018,1.565,0.07,2.363
			c0.079,0.348,0.082,0.665,0.092,1.034c0.076,1.277,0.113,2.499,0.271,3.735c0.232,1.71,0.398,3.449,0.557,5.192
			c0.071,0.631,0.188,1.241,0.283,1.867c-0.016,0.029-0.074,0.069-0.113,0.031C28.735,43.441,28.446,42.157,28.248,40.826z
			 M42.341,41.213c-0.185,0.889-0.294,1.801-0.571,2.654c-0.027,0.297-0.08,0.578-0.23,0.824c-0.032,0.002-0.061-0.006-0.086-0.026
			c-0.04-0.657,0.253-1.187,0.302-1.801c0.061-0.517,0.067-1.046,0.174-1.541c0.055-0.696,0.079-1.349,0.149-2.036
			c0.07-0.225,0.101-0.458,0.125-0.708c-0.056-0.536,0.121-0.985,0.082-1.515c0.074-0.531,0.18-1.072,0.155-1.623
			c0.053-0.969,0.237-1.891,0.237-2.889c0.098-0.281-0.042-0.662,0.078-0.938c-0.039-0.264-0.018-0.543,0.015-0.802
			c0.104-0.246-0.159-0.736,0.247-0.755c0.146,0.086,0.316,0.195,0.428,0.319c0.015,0.31-0.08,0.614-0.056,0.948
			c0,0.52-0.128,1.024-0.082,1.551c-0.015,0.75-0.046,1.498-0.136,2.227c-0.119,0.867-0.182,1.753-0.34,2.596
			C42.764,38.911,42.479,40.038,42.341,41.213z M44.499,31.72c-0.133,0.555-0.002,1.148-0.106,1.71
			c0.022,0.522-0.175,0.958-0.153,1.472c-0.029,0.793-0.279,1.505-0.309,2.299c-0.137,0.776-0.34,1.538-0.475,2.312
			c-0.208,0.905-0.482,1.784-0.836,2.634c-0.022,0.018-0.06,0.018-0.076-0.014c0.111-0.841,0.252-1.67,0.386-2.506
			c0.235-1.026,0.376-2.089,0.563-3.129c0.105-0.791,0.065-1.637,0.246-2.392c0.139-0.965,0.184-1.956,0.345-2.906
			c0.147-0.086,0.282,0.076,0.433,0.085C44.492,31.438,44.532,31.558,44.499,31.72z M45.083,31.239
			c-0.45-0.357-1.004-0.698-1.314-1.208c-0.125-0.133-0.236-0.295-0.174-0.493c0.066-0.072,0.139-0.157,0.239-0.107
			c0.243,0.038,0.288,0.286,0.552,0.271c0.092,0.05,0.051,0.188,0.135,0.252c0.25,0.181,0.516,0.469,0.74,0.667
			c0.064,0.133,0.157,0.243,0.141,0.412C45.313,31.117,45.243,31.303,45.083,31.239z"/>
		<path fill="#000000" d="M27.966,14.939c0.25,0.155,0.538,0.186,0.821,0.245c0.262,0.06,0.578-0.031,0.791,0.171
			c0.092,0.136,0.332,0.248,0.258,0.458l-0.059,0.045c-0.564-0.286-1.342-0.015-1.814-0.527c-0.188-0.047-0.297-0.243-0.346-0.412
			c-0.009-0.06,0.012-0.129,0.047-0.16C27.783,14.772,27.862,14.896,27.966,14.939z"/>
		<path fill="#000000" d="M43.18,14.842c-0.041,0.15-0.149,0.286-0.257,0.414c-0.54,0.343-1.21,0.517-1.871,0.436
			c-0.036-0.012-0.038-0.064-0.018-0.088c0.419-0.143,0.876-0.193,1.257-0.426c0.277-0.148,0.562-0.31,0.871-0.351L43.18,14.842z"/>
		<path fill="#000000" d="M31.055,19.741c-0.073-0.033-0.784,1.079-0.073,1.693c0.94,0.812,2.008-0.557,1.779-0.888
			c-0.129-0.05-0.407,0.788-1.196,0.61C30.618,20.941,31.127,19.774,31.055,19.741z"/>
		<path fill="#000000" d="M38.299,21.182c0.025,0.279,1.131,0.832,1.651,0.05c0.704-1.058-0.306-1.677-0.636-1.448
			c-0.051,0.126,0.609,0.407,0.279,1.117C39.235,21.678,38.286,21.03,38.299,21.182z"/>
	</g>
</g>
</svg>
