<?xml version="1.0" encoding="utf-8"?>
<!-- Generator: Adobe Illustrator 16.0.0, SVG Export Plug-In . SVG Version: 6.00 Build 0)  -->
<!DOCTYPE svg PUBLIC "-//W3C//DTD SVG 1.1//EN" "http://www.w3.org/Graphics/SVG/1.1/DTD/svg11.dtd">
<svg version="1.1" id="Layer_1" xmlns="http://www.w3.org/2000/svg" xmlns:xlink="http://www.w3.org/1999/xlink" x="0px" y="0px"
	   viewBox="0 0 49 49" enable-background="new 0 0 49 49" xml:space="preserve">
<g>
	<path fill="#E30918" d="M24.5,0.4C11.196,0.4,0.4,11.196,0.4,24.5c0,13.305,10.796,24.1,24.1,24.1c13.305,0,24.1-10.795,24.1-24.1
		C48.572,11.196,37.805,0.4,24.5,0.4z"/>
	<g>
		<path fill="#FFFFFF" d="M1.246,24.5c0-5.609,2.001-10.768,5.299-14.798l0,0c4.256-5.158,10.711-8.456,17.927-8.456l0,0
			c12.854,0,23.282,10.4,23.282,23.254l0,0c0,12.825-10.428,23.254-23.254,23.254l0,0C11.646,47.754,1.246,37.325,1.246,24.5
			L1.246,24.5z M1.584,24.5c0,6.314,2.565,12.064,6.708,16.207l0,0c4.144,4.145,9.865,6.709,16.208,6.709l0,0
			c6.314,0,12.064-2.564,16.207-6.709l0,0c4.145-4.143,6.709-9.865,6.709-16.207l0,0c0-6.313-2.564-12.063-6.709-16.207l0,0
			C36.564,4.149,30.842,1.584,24.5,1.584l0,0c-7.103,0-13.474,3.241-17.673,8.344l0,0l0,0C3.557,13.874,1.584,18.947,1.584,24.5
			L1.584,24.5z"/>
	</g>
	<g>
		<circle fill="#FFFFFF" cx="6.911" cy="33.942" r="0.563"/>
		<circle fill="#FFFFFF" cx="41.891" cy="34.253" r="0.563"/>
	</g>
	<g>
		<g>
			<g>
				<path fill="#FFFFFF" d="M40.398,17.82c-0.875-2.058-2.115-3.891-3.693-5.469s-3.41-2.818-5.469-3.692
					c-2.113-0.902-4.369-1.354-6.708-1.354c-2.311,0-4.566,0.451-6.708,1.354c-2.058,0.874-3.89,2.114-5.468,3.692
					c-1.578,1.578-2.818,3.411-3.692,5.469c-0.902,2.113-1.353,4.368-1.353,6.708c0,2.339,0.451,4.595,1.353,6.708
					c0.874,2.059,2.114,3.891,3.692,5.469c1.579,1.578,3.411,2.818,5.468,3.692c0.648,0.282,1.297,0.507,1.973,0.704
					c0,0,0,0,0.028,0c0.338,0.113,0.677,0.197,1.015,0.254c1.212,0.254,2.452,0.395,3.721,0.395c0.761,0,1.522-0.056,2.284-0.141
					l0,0c0.451-0.027,0.732-0.084,0.959-0.141c1.184-0.226,2.338-0.564,3.467-1.043c2.057-0.874,3.889-2.114,5.467-3.692
					l-0.111-0.112l0.111,0.112c1.58-1.579,2.82-3.411,3.693-5.468c0.902-2.115,1.354-4.369,1.354-6.709
					C41.75,22.188,41.299,19.934,40.398,17.82z M13.845,37.578c-0.028-0.027-0.057-0.084-0.057-0.141
					c0-0.027,0.028-0.057,0.028-0.084c0.084-0.141,0.197-0.311,0.31-0.423c0.169,0.395,0.62,1.128,1.522,1.944
					C15.029,38.48,14.437,38.029,13.845,37.578z M13.704,27.375c0.367,0.338,0.423,0.648,0.423,0.846c0,0.084,0,0.141-0.028,0.197
					c0,0.028,0,0.028-0.028,0.057l0,0c-0.028,0.027-0.141,0.281-0.536,0.281c-0.057,0-0.141,0-0.197-0.027
					c-0.677-0.142-1.325-0.395-1.889-0.451h-0.028l1.325-1.805C13.168,26.84,13.535,27.206,13.704,27.375z M10.97,24.359
					l8.569-8.653l-5.158,12.036c-0.084-0.197-0.226-0.424-0.423-0.648C13.479,26.643,11.505,24.839,10.97,24.359z M13.253,29.066
					c0.084,0.028,0.197,0.028,0.282,0.028c0.31,0,0.536-0.112,0.648-0.226c0.141-0.113,0.197-0.226,0.197-0.254l0,0l0,0l0,0v-0.028
					l5.271-12.317c0,0.085,0.028,0.254,0.056,0.311c0.084,1.381,0.395,2.339,0.733,3.101c0.197,0.423,0.395,0.761,0.536,0.986
					c0.084,0.112,0.141,0.197,0.197,0.281c0.028,0.028,0.028,0.057,0.056,0.057l-1.24,4.228c-0.028,0.057,0,0.142,0.057,0.197
					l0.282,0.227c0,0,0.028,0.027,0.028,0.084c-0.028,0.057-1.353,5.045-1.353,5.045l-4.285,4.905
					c-0.31-0.254-1.24-1.128-2.48-3.044c-1.071-1.664-1.381-2.707-1.381-3.299c0-0.31,0.084-0.479,0.169-0.592l0,0l0,0
					c0,0,0,0,0.028-0.027c0.084-0.113,0.226-0.142,0.31-0.142h0.028C11.9,28.672,12.548,28.926,13.253,29.066z M22.33,10.942
					c-0.028-0.085-0.113-0.141-0.226-0.113c0.084-0.056,0.141-0.141,0.226-0.197l0.733-0.084c0.084,0,0.169-0.113,0.141-0.197
					c0-0.085-0.113-0.169-0.197-0.142l-0.113,0.028c0.226-0.141,0.479-0.254,0.677-0.338c0.141-0.057,0.253-0.085,0.338-0.113
					c0.085-0.027,0.113-0.027,0.113-0.027c0.085-0.028,0.141-0.113,0.113-0.226c-0.028-0.085-0.113-0.142-0.226-0.113
					c0,0-0.282,0.085-0.676,0.254c0.056-0.085,0.028-0.197-0.056-0.254c-0.085-0.057-0.197-0.028-0.254,0.028l-0.395,0.563
					c-0.028,0.028-0.084,0.057-0.113,0.085c-0.056,0.028-0.113,0.085-0.169,0.112l0.028-0.084c0.057-0.085,0-0.197-0.084-0.226
					c-0.084-0.057-0.197,0-0.226,0.084l-0.423,0.846c-0.113,0.113-0.197,0.197-0.282,0.282c0-0.451,0.141-1.24,0.648-1.635
					s0.902-0.451,1.269-0.451c0.197,0,0.395,0.028,0.535,0.057c0.085,0,0.338,0.084,0.564,0.141s0.451,0.113,0.451,0.113h0.056
					c0.253,0,0.394,0.056,0.451,0.141c0.057,0.057,0.085,0.169,0.085,0.254c0,0.084-0.028,0.197-0.085,0.253
					c-0.027,0.028-0.027,0.057-0.057,0.057l-1.296,0.142c-0.057,0-0.084,0.027-0.113,0.056l-0.817,1.071h-0.395h-0.028
					c-0.028,0-0.084,0.028-0.169,0.085c-0.085,0.056-0.169,0.197-0.169,0.366c0,0.31,0.113,0.535,0.226,0.677l0.028,0.027L21.907,13
					c-0.084-0.028-0.226-0.057-0.338-0.169c-0.169-0.113-0.31-0.282-0.366-0.564c-0.028-0.169-0.028-0.31-0.028-0.423
					c0-0.112,0-0.197,0.028-0.253l0,0c0,0,0.084-0.085,0.197-0.197l0.733-0.254C22.33,11.14,22.386,11.026,22.33,10.942z
					 M24.979,12.267c0,0,0,0.057-0.056,0.085c-0.057,0.028-0.084,0.085-0.084,0.112c0,0.057,0,0.113,0.028,0.142
					c0,0,0,0.028,0,0.057c0,0.027-0.028,0.056-0.028,0.056c-0.028,0.057-0.028,0.085-0.028,0.142l0,0
					c0,0.027,0.028,0.084,0.028,0.141c0,0.028-0.028,0.141-0.085,0.169c-0.056,0.028-0.169,0.057-0.31,0.057h-0.366
					c-0.084,0-0.169,0.057-0.169,0.141c0,0,0,0.057,0,0.113c0,0.084,0,0.225,0.085,0.395c0.028,0.056,0.056,0.112,0.113,0.169l0,0
					l0,0l0.62,0.677l-1.607,0.112l-1.099-0.846c0.056-0.028,0.084-0.057,0.084-0.057c0.056-0.027,0.084-0.084,0.084-0.141v-0.507
					l0.705-0.705c0.057-0.057,0.057-0.113,0.057-0.169c-0.028-0.057-0.057-0.113-0.113-0.113l0,0
					c-0.028-0.028-0.254-0.084-0.254-0.507c0-0.057,0.028-0.085,0.028-0.085s0,0,0.028,0h0.451c0.057,0,0.113-0.028,0.141-0.057
					c0,0,0.733-0.958,0.789-1.015c0.057-0.056,0.113-0.056,0.113-0.056l0.987-0.113c0,0,0.056,0,0.056,0.057
					c0,0.084,0.029,0.197,0.029,0.31c0,0.057-0.029,0.057-0.057,0.057c-0.113,0-0.254,0-0.395,0c-0.141,0-0.31,0.085-0.395,0.169
					c-0.084,0.057-0.084,0.197,0,0.254c0.028,0.028,0.113,0.057,0.226,0.085s0.254,0.084,0.31,0.056
					c0.084-0.027,0.113-0.112,0.113-0.197c0-0.084,0.056-0.141,0.141-0.141c0.027,0,0.057,0.028,0.057,0.057
					c0.027,0.169,0.056,0.395,0.056,0.507c0,0.057,0,0.113,0,0.169c0,0.057-0.056,0.057-0.085,0.057c-0.056,0-0.112,0-0.112,0
					c-0.056,0-0.084,0.028-0.113,0.057c-0.028,0.028-0.056,0.085-0.056,0.112L24.979,12.267z M22.978,15.143
					c0.028,0.027,0.056,0.027,0.112,0.027l0,0l2.001-0.141c0.057,0,0.113-0.057,0.141-0.112c0.028-0.057,0-0.142-0.027-0.17
					l-0.367-0.395c0.197,0.057,0.394,0.113,0.535,0.17c0.113,0.027,0.311,0.197,0.48,0.422c0.168,0.198,0.311,0.451,0.395,0.648
					c-0.084,0.367-0.17,0.705-0.281,1.071l-0.875,0.648l-1.945-1.297c-0.084-0.141-0.564-0.789-0.987-1.24
					c-0.225-0.226-0.563-0.31-0.874-0.31c-0.057,0-0.113,0-0.169,0c0.084-0.057,0.169-0.085,0.253-0.142
					c0.113-0.056,0.254-0.141,0.367-0.197L22.978,15.143z M21.287,14.804c0.253,0,0.507,0.085,0.648,0.226
					c0.225,0.226,0.479,0.535,0.648,0.789c0.197,0.254,0.31,0.423,0.31,0.451s0.028,0.028,0.057,0.057l2.085,1.381
					c0.057,0.028,0.141,0.028,0.197,0l2.65-2.001l0,0c0,0,0.057-0.057,0.141-0.113c0.084-0.056,0.17-0.141,0.225-0.169
					c0.143-0.084,0.734-0.423,1.1-0.451c0.029,0,0.057,0,0.086,0c0.168,0,0.309,0.028,0.365,0.085s0.086,0.085,0.086,0.197
					c0,0.197,0,0.535,0,0.535c0,0.085,0.055,0.142,0.141,0.142c0.057,0,0.141,0.028,0.141,0.112c0,0.113-0.084,0.141-0.113,0.141
					c-0.057,0-0.113,0.028-0.141,0.028h-0.17h-0.055c0,0-0.227,0.057-0.451,0.113c-0.113,0.028-0.254,0.057-0.34,0.084
					c-0.055,0-0.084,0.028-0.141,0.028c-0.027,0-0.027,0-0.027,0l0,0c-0.141,0-0.395,0.028-0.395,0.028
					c-0.057,0-0.086,0.028-0.113,0.085c0,0-0.281,0.423-0.648,0.901c-0.395,0.423-0.816,0.987-1.127,1.269
					c-0.281,0.282-0.535,0.508-0.705,0.677c-0.057,0.057-0.113,0.085-0.141,0.112c-0.029,0.028-0.057,0.028-0.113,0.028
					c-0.254-0.112-0.789-0.31-1.438-0.592c-0.902-0.395-2.029-0.902-2.875-1.353c-0.169-0.085-0.479-0.282-0.705-0.536
					c-0.028-0.028-0.057-0.056-0.084-0.084l-0.028-0.028c-0.028-0.028-0.028-0.057-0.057-0.085c0-0.028-0.028-0.028-0.028-0.057
					c0-0.027-0.028-0.027-0.028-0.056s-0.028-0.028-0.028-0.057v-0.028c-0.028-0.028-0.056-0.084-0.056-0.141c0,0,0,0,0-0.028
					s-0.028-0.057-0.028-0.085l0,0l0,0c-0.028-0.056-0.028-0.084-0.028-0.141c0-0.028,0-0.028,0-0.057s0-0.028,0-0.056
					c0-0.028,0-0.085,0-0.113s0-0.057,0-0.084c0-0.028,0-0.057,0-0.057l0,0c0-0.057,0.028-0.113,0.028-0.169l0,0l0,0
					c0-0.028,0.028-0.085,0.028-0.113l0,0c0-0.028,0.028-0.057,0.028-0.112c0,0,0,0,0-0.028c0.028-0.028,0.028-0.057,0.057-0.085
					v-0.028c0.028-0.027,0.056-0.084,0.056-0.112l0,0C20.413,15.001,20.864,14.804,21.287,14.804z M26.699,12.183
					c0-0.085,0.027-0.085,0.027-0.085c0.254,0.028,0.395,0.169,0.508,0.254c0.057,0.057,0.084,0.141,0.113,0.197
					c0,0.028,0.027,0.057,0.027,0.057l0,0l0,0c0,0.084,0.084,0.141,0.17,0.141h3.383c0.084,0,0.168-0.057,0.168-0.141
					c0-0.028,0.029-0.113,0.141-0.226c0.086-0.085,0.227-0.169,0.508-0.197c0.027,0,0.057,0.028,0.057,0.057c0,0.366,0,1.099,0,2.17
					c0,0.874,0.225,1.578,0.451,2.283c0.225,0.705,0.422,1.409,0.422,2.283c0,0.479-0.084,0.93-0.254,1.353
					c-0.168-0.084-0.281-0.141-0.365-0.169c-0.029,0-0.057,0-0.086,0c-0.141,0-0.225,0.057-0.309,0.113
					c-0.086,0.056-0.141,0.112-0.197,0.226c0,0.027-0.029,0.084-0.029,0.112c0,0.085,0.029,0.169,0.057,0.197
					c-0.027,0.028-0.084,0.057-0.113,0.113c-0.055,0.056-0.111,0.112-0.168,0.169c-0.057,0.056-0.084,0.112-0.113,0.197
					c-0.027,0.057-0.027,0.112-0.027,0.169c0,0.112,0.027,0.197,0.084,0.31c-0.535,0.311-1.184,0.479-1.973,0.479
					c-1.156,0-1.973-0.395-2.537-0.986c-0.395-0.423-0.648-0.958-0.762-1.522c0.17-0.141,0.48-0.395,0.846-0.789
					c0.057-0.057,0.141-0.141,0.197-0.226c0.113,0.423,0.367,0.789,0.678,1.071c0.449,0.366,1.014,0.592,1.635,0.592h0.027l0,0
					h0.027c1.297,0,2.283-1.155,2.283-2.424c0-0.563-0.141-0.958-0.252-1.578c-0.113-0.62-0.254-1.466-0.254-2.988
					c0-0.057-0.029-0.085-0.057-0.112c-0.029-0.028-0.084-0.057-0.113-0.057h-3.326c-0.057,0-0.084,0.028-0.113,0.057
					c-0.027,0.027-0.055,0.084-0.055,0.112c0,1.071-0.057,1.775-0.17,2.312l-0.789,0.592c0.057-0.226,0.113-0.451,0.168-0.677
					v-0.028c0.057-0.31,0.086-0.62,0.086-0.93C26.727,13.507,26.699,12.605,26.699,12.183z M31.52,21.738
					c-0.086-0.142-0.113-0.226-0.113-0.282c0-0.028,0-0.028,0-0.057l0,0c0-0.028,0.113-0.141,0.197-0.226
					c0.084-0.084,0.168-0.141,0.168-0.141c0.057-0.028,0.086-0.112,0.086-0.141c0-0.057-0.029-0.085-0.029-0.113
					s-0.027-0.056-0.027-0.056c0-0.028-0.029-0.085,0.027-0.142s0.141-0.028,0.17-0.028c0.057,0.028,0.17,0.085,0.281,0.142
					c0.141,0.084,0.311,0.226,0.367,0.31c0.057,0.085,0.113,0.226,0.113,0.311c0,0.056-0.029,0.112-0.057,0.141
					c-0.057,0.057-0.564,0.479-0.621,0.535c-0.057,0.028-0.281,0.142-0.451,0.197c-0.057,0.028-0.111,0.028-0.141,0.057
					c-0.057,0.028-0.084-0.028-0.084-0.028s0-0.028,0-0.056c0.027-0.028,0.057-0.057,0.084-0.085
					c0.029-0.028,0.084-0.085,0.084-0.197C31.547,21.822,31.547,21.766,31.52,21.738z M32.025,33.746c0,0,0,0.056-0.027,0.084
					c-0.029,0.028-1.27,0.705-1.27,0.705l-0.141-12.149c0.141-0.056,0.283-0.084,0.395-0.141L32.025,33.746z M26.445,39.354
					c0,0,0.451,0.593,0.479,0.62c0.029,0.028,0,0.057,0,0.057c-0.676,0.563-1.775,0.93-3.044,1.07
					c0.197-0.901,0.958-4.51,1.522-8.174c0.592-3.777,0.846-7.356,0.902-8.117c0,0,0.451-0.028,0.535-0.028s0.084,0.028,0.084,0.084
					c0,0.057-0.508,14.376-0.508,14.376C26.416,39.299,26.416,39.326,26.445,39.354z M20.413,25.092c0,0,1.127-3.89,1.127-3.946
					c0.028-0.056,0.057-0.056,0.057-0.056s0.817-0.226,0.958-0.282c0.141-0.057,0.338-0.057,0.338-0.057l2.82-0.169
					c0.141,0.339,0.338,0.648,0.619,0.931c0.227,0.253,0.508,0.451,0.818,0.62c0,0,0,2.142,0,2.198c0,0.028-0.029,0.085-0.113,0.085
					s-2.847,0.197-3.524,0.253c-0.084,0-0.226,0.028-0.31,0.057c-0.113,0.028-2.508,0.677-2.508,0.677s-0.085,0-0.113-0.028
					c-0.028-0.028-0.057-0.057-0.141-0.112C20.385,25.232,20.413,25.092,20.413,25.092z M21.484,20.724
					c-0.282-0.367-1.071-1.494-1.325-3.523c0.028,0.027,0.028,0.056,0.056,0.056c0.282,0.311,0.62,0.508,0.817,0.592
					c1.72,0.931,4.51,2.03,4.51,2.03l0,0c0.027,0.112,0.057,0.226,0.084,0.338l-2.621,0.197c0,0-0.31,0-0.536,0.085
					c-0.253,0.084-0.874,0.253-0.93,0.253C21.512,20.779,21.484,20.751,21.484,20.724z M27.262,24.726l0.113-0.028
					c0.084-0.028,0.141-0.084,0.141-0.169v-2.255c0.451,0.197,0.986,0.282,1.607,0.282l0,0c0.395,0,0.762-0.057,1.1-0.113
					l0.168,13.896l0,0c0,0,0,0,0,0.029c0,0.141-0.027,0.648-0.451,0.93c-0.506,0.367-1.635,0.959-3.156,0.986L27.262,24.726z
					 M27.207,18.412c0.395-0.508,0.844-1.1,1.098-1.438v2.875c-0.168-0.085-0.338-0.169-0.479-0.311
					C27.488,19.258,27.262,18.891,27.207,18.412z M28.645,19.962v-3.241c0.027,0,0.055,0,0.084,0c0.084,0,0.141-0.028,0.254-0.028
					c0.027,0,0.057-0.028,0.111-0.028v3.383C28.926,20.047,28.785,20.019,28.645,19.962z M29.434,20.047V16.58
					c0.168-0.028,0.309-0.085,0.338-0.085h0.057v3.495C29.715,20.019,29.574,20.047,29.434,20.047z M30.504,15.79
					c-0.027-0.056-0.057-0.141-0.17-0.197c-0.027,0-0.055-0.028-0.084-0.028c0-0.112,0-0.253,0-0.366c0-0.084,0-0.169-0.027-0.226
					v-1.381h0.535c0,1.438,0.141,2.283,0.254,2.875c0.141,0.648,0.254,1.015,0.254,1.522c0,0.563-0.227,1.071-0.564,1.466
					c-0.141,0.169-0.311,0.281-0.479,0.395v-3.383h0.027c0.029,0,0.029,0,0.057,0h0.027c0.057,0,0.113-0.028,0.143-0.057
					c0.084-0.084,0.084-0.141,0.084-0.197c0-0.056,0.027-0.141,0.027-0.197C30.531,15.932,30.531,15.875,30.504,15.79z
					 M29.828,13.563v1.071c-0.113-0.057-0.254-0.057-0.424-0.057v-0.986h0.424V13.563z M29.066,13.563v1.043
					c-0.141,0.028-0.311,0.085-0.451,0.141v-1.184H29.066z M28.305,13.563v1.354c-0.111,0.056-0.197,0.112-0.254,0.141
					c-0.168,0.112-0.365,0.282-0.395,0.31l0,0c0.057-0.45,0.113-1.043,0.113-1.832h0.535V13.563z M14.606,36.395
					c0.057-0.057,4.708-5.412,4.708-5.412c0.028-0.027,0.028-0.056,0.028-0.056s1.381-5.103,1.381-5.13
					c0-0.028,0.057-0.057,0.057-0.057s2.452-0.676,2.537-0.705c0.084-0.027,0.226-0.027,0.226-0.027l1.353-0.085
					c-0.028,0.169-0.056,0.423-0.084,0.733c-0.226,1.719-0.93,5.439-2.65,7.441c-2.565,3.016-6.116,3.326-7.441,3.326
					c-0.028,0-0.056,0-0.084,0C14.606,36.451,14.55,36.451,14.606,36.395z M14.521,36.789c0.057,0,0.141,0,0.197,0
					c1.381,0,5.018-0.31,7.695-3.467c2.199-2.593,2.734-7.582,2.818-8.428l0.678-0.056c0,0.366-0.057,1.212-0.17,2.339
					c-0.141,1.521-0.367,3.58-0.705,5.693c-0.338,2.115-0.732,4.2-1.042,5.779c-0.226,1.155-0.423,2.029-0.507,2.396
					c0,0.028-0.057,0.085-0.141,0.085c-0.197,0-0.395,0.027-0.564,0.027c-0.62,0-1.268-0.057-1.917-0.169
					c-0.338-0.085-0.677-0.169-1.015-0.253c-2.396-0.762-3.777-1.805-4.566-2.678c-0.395-0.424-0.648-0.818-0.789-1.1
					c-0.028-0.057-0.057-0.085-0.057-0.113C14.465,36.818,14.494,36.789,14.521,36.789z M24.472,41.385
					c0.987-0.17,1.86-0.508,2.509-0.959l0.535,0.169c0.029,0,0.029,0,0.057,0c0,0,0.508-0.028,0.535-0.028
					c0.141,0,0.197,0.085,0.197,0.113c0,0.027,0,0.057,0,0.057s0,0.084-0.057,0.141c-0.055,0.057-0.449,0.169-0.592,0.197
					c-1.043,0.197-2.086,0.281-3.156,0.281C24.5,41.385,24.472,41.385,24.472,41.385z M40.088,31.067
					c-0.846,2.001-2.059,3.806-3.607,5.356c-1.551,1.55-3.355,2.762-5.355,3.607c-0.791,0.338-1.607,0.592-2.426,0.817l-0.027-0.339
					c0-0.197-0.225-0.31-0.367-0.31h-0.732c0,0-0.225-0.056-0.254-0.056c-0.027,0-0.027-0.029-0.027-0.057
					c0.057-0.057,0.057-0.141,0-0.227l-0.564-0.732l0.029-0.508c1.635-0.027,2.818-0.647,3.381-1.07
					c0.537-0.395,0.592-1.015,0.592-1.213c0-0.027,0-0.056,0-0.056l-0.027-1.438c0,0,0,0,0.027,0l0,0l1.551-0.874
					c0.057-0.027,0.086-0.084,0.086-0.169L31.35,22.527c0.057-0.028,0.197-0.057,0.338-0.113c0.197-0.084,0.395-0.169,0.535-0.226
					c0.113-0.084,0.564-0.479,0.678-0.592c0.084-0.112,0.141-0.226,0.141-0.366c0-0.197-0.084-0.338-0.141-0.479
					c-0.057-0.112-0.141-0.197-0.254-0.281c0.225-0.479,0.311-0.986,0.311-1.551c0-0.958-0.227-1.691-0.451-2.396
					c-0.227-0.705-0.424-1.381-0.424-2.199c0-1.521,0.029-2.424,0.029-2.424c0-0.057-0.029-0.084-0.057-0.112
					c-0.029-0.028-0.086-0.057-0.113-0.057c-0.508,0-0.816,0.169-1.014,0.366c-0.086,0.085-0.143,0.169-0.17,0.254h-3.072
					c-0.029-0.085-0.084-0.169-0.17-0.282c-0.168-0.197-0.479-0.423-0.986-0.395c-0.057,0-0.084,0.028-0.113,0.057
					c-0.027,0.028-0.055,0.085-0.055,0.112c0,0,0,1.156,0,2.763c0,0.113,0,0.254-0.029,0.366c-0.057-0.112-0.141-0.197-0.197-0.31
					c-0.197-0.254-0.395-0.479-0.648-0.536c-0.226-0.056-0.563-0.169-0.958-0.281c-0.141-0.057-0.197-0.113-0.253-0.197
					c-0.028-0.057-0.028-0.085-0.056-0.142h0.197l0,0c0.169,0,0.31-0.027,0.451-0.084c0.113-0.057,0.226-0.141,0.282-0.282
					c0.027-0.084,0.027-0.141,0.027-0.197s0-0.141-0.027-0.169l0.084-0.141c0.028-0.057,0.028-0.113,0-0.142
					c0.028-0.028,0.057-0.084,0.057-0.141v-0.169h0.028c0.056,0,0.112-0.028,0.169-0.057c0.029,0,0.057-0.028,0.084-0.057
					c0.029-0.027,0.057-0.084,0.057-0.141s0-0.169-0.027-0.338c-0.029-0.423-0.113-1.156-0.113-1.382
					c0.084-0.084,0.197-0.281,0.197-0.535c0-0.169-0.057-0.366-0.197-0.508c-0.141-0.141-0.366-0.225-0.676-0.225
					c-0.141-0.028-0.846-0.226-1.043-0.254c-0.141-0.028-0.338-0.057-0.592-0.057c-0.395,0-0.902,0.112-1.466,0.535
					c-0.705,0.564-0.761,1.579-0.79,2.03c0,0.084,0,0.141,0,0.197c-0.028,0.084-0.056,0.226-0.056,0.45c0,0.142,0,0.282,0.028,0.479
					c0.056,0.451,0.338,0.733,0.592,0.846c0.113,0.085,0.254,0.113,0.338,0.141v0.339c-0.141,0.056-0.987,0.451-1.833,1.015
					c-0.028,0.028-0.084,0.057-0.141,0.141l0,0l-9.273,9.442c-0.028,0.028-0.028,0.085-0.028,0.142s0.028,0.084,0.056,0.112
					c0,0,0.648,0.592,1.353,1.24c0.169,0.169,0.367,0.338,0.536,0.479l-1.719,2.34c-0.141,0.197-0.226,0.451-0.226,0.789
					c0,0.705,0.366,1.805,1.438,3.496c1.24,1.916,2.199,2.818,2.537,3.1l-0.451,0.508c-0.028,0.028-0.169,0.17-0.31,0.367
					c-0.084,0.112-0.169,0.225-0.226,0.338c-0.028,0.027-0.028,0.057-0.057,0.084c-0.31-0.254-0.592-0.535-0.902-0.816
					c-1.55-1.551-2.762-3.355-3.608-5.356c-0.874-2.085-1.325-4.284-1.325-6.567s0.451-4.481,1.325-6.567
					c0.846-2.001,2.058-3.806,3.608-5.355c1.55-1.551,3.354-2.763,5.355-3.608c2.086-0.873,4.285-1.324,6.568-1.324
					s4.482,0.451,6.568,1.324c2,0.846,3.805,2.058,5.355,3.608c1.549,1.55,2.762,3.354,3.607,5.355
					c0.873,2.086,1.324,4.284,1.324,6.567C41.412,26.783,40.961,29.01,40.088,31.067z"/>
			</g>
		</g>
	</g>
	<g>
		<path fill="#FFFFFF" d="M4.825,25.966c0.197-0.028,0.367-0.028,0.507,0c0.141,0.028,0.254,0.085,0.367,0.169
			c0.084,0.084,0.169,0.197,0.226,0.338c0.056,0.142,0.112,0.311,0.112,0.508c0.028,0.169,0.028,0.338,0,0.479
			c-0.028,0.142-0.056,0.283-0.141,0.396c-0.057,0.112-0.169,0.197-0.282,0.282c-0.113,0.084-0.423,0.141-0.423,0.141
			c-0.028,0-0.085,0-0.113,0.027l-1.522,0.197c-0.028,0-0.056,0.029-0.056,0.057v0.227c0,0.027-0.028,0.056-0.056,0.056H3.388
			c-0.028,0-0.056-0.028-0.056-0.056L3.19,27.77c0-0.027,0.028-0.057,0.056-0.057h0.057c0.028,0,0.056,0.029,0.056,0.057
			l0.057,0.197c0,0.028,0.028,0.057,0.056,0.057l1.72-0.226c0.197-0.028,0.366-0.112,0.479-0.253
			c0.113-0.142,0.141-0.339,0.113-0.593c-0.028-0.253-0.113-0.423-0.254-0.535c-0.141-0.112-0.563-0.085-0.563-0.085
			c-0.028,0-0.084,0-0.113,0l-1.55,0.197c-0.028,0-0.057,0.028-0.057,0.057v0.226c0,0.028-0.028,0.056-0.056,0.056H3.134
			c-0.028,0-0.057-0.027-0.057-0.056l-0.113-0.931c0-0.027,0.028-0.057,0.057-0.057h0.056c0.028,0,0.057,0.029,0.057,0.057
			l0.084,0.226c0,0.028,0.028,0.057,0.056,0.057L4.825,25.966z"/>
		<path fill="#FFFFFF" d="M2.965,23.57c0-0.028,0.028-0.057,0.057-0.085l2.142-1.297l-1.804-0.141c-0.028,0-0.056,0.028-0.056,0.057
			L3.247,22.33c0,0.028-0.028,0.056-0.056,0.056H3.134c-0.028,0-0.057-0.027-0.057-0.056l0.057-0.874
			c0-0.028,0.028-0.057,0.056-0.057h0.056c0.028,0,0.057,0.028,0.057,0.057l0.028,0.226c0,0.028,0.028,0.057,0.056,0.057
			l2.565,0.197c0.028,0,0.057,0.028,0.057,0.056l-0.028,0.254c0,0.028-0.028,0.057-0.056,0.085l-2.48,1.466l2.085,0.169
			c0.028,0,0.057-0.028,0.057-0.057l0.056-0.226c0-0.028,0.028-0.057,0.057-0.057h0.056c0.028,0,0.057,0.028,0.057,0.057
			l-0.057,0.874c0,0.028-0.028,0.057-0.056,0.057H5.643c-0.028,0-0.056-0.028-0.056-0.057l-0.028-0.226
			c0-0.028-0.028-0.057-0.056-0.057l-2.283-0.169c-0.028,0-0.057,0.028-0.057,0.057l-0.056,0.197c0,0.028-0.028,0.057-0.057,0.057
			H2.993c-0.028,0-0.057-0.028-0.057-0.057L2.965,23.57z"/>
		<path fill="#FFFFFF" d="M3.867,18.778c0.028,0,0.057,0.028,0.057,0.057v0.226c0,0.027,0.028,0.056,0.056,0.056l2.227,0.564
			c0.028,0,0.056,0,0.084-0.028l0.084-0.197c0-0.028,0.057-0.028,0.084-0.028l0.057,0.028c0.028,0,0.056,0.028,0.028,0.056
			l-0.254,1.015c0,0.028-0.028,0.057-0.056,0.028l-0.057-0.028c-0.028,0-0.056-0.027-0.056-0.056v-0.226
			c0-0.028-0.028-0.057-0.057-0.057l-2.227-0.563c-0.028,0-0.057,0-0.084,0.028L3.642,19.85c0,0.028-0.057,0.028-0.085,0.028
			L3.5,19.85c-0.028,0-0.056-0.028-0.028-0.057l0.254-1.015c0-0.028,0.028-0.057,0.056-0.028L3.867,18.778z"/>
		<path fill="#FFFFFF" d="M7.362,17.087c0.028,0.028,0.028,0.057,0.028,0.085l-0.113,0.281c0,0.028-0.056,0.057-0.084,0.057
			l-2.734-0.197c-0.028,0-0.057,0.028-0.084,0.028l-0.113,0.141C4.233,17.51,4.205,17.51,4.177,17.51l-0.056-0.028
			c-0.028,0-0.028-0.028-0.028-0.057l0.367-0.873c0-0.028,0.028-0.028,0.056-0.028l0.057,0.028c0.028,0,0.056,0.056,0.028,0.084
			l0.028,0.169c0,0.028,0,0.057,0.057,0.057l2.17,0.169l-1.607-1.521c-0.028-0.028-0.056-0.028-0.056,0l-0.113,0.169
			c-0.028,0.028-0.057,0.028-0.084,0.028L4.91,15.678c-0.028,0-0.028-0.057-0.028-0.057l0.338-0.789
			c0-0.028,0.057-0.028,0.057-0.028l0.056,0.028c0.028,0,0.057,0.057,0.028,0.085l-0.056,0.197c0,0.028,0,0.056,0.028,0.084
			L7.362,17.087z"/>
		<path fill="#FFFFFF" d="M12.802,9.646C12.858,9.617,12.943,9.589,13,9.562c0.084-0.028,0.141-0.057,0.169-0.085
			c0.169-0.113,0.254-0.226,0.282-0.366c0.028-0.142,0-0.254-0.085-0.395c-0.056-0.085-0.112-0.113-0.197-0.17
			c-0.084-0.027-0.141-0.056-0.225-0.056c-0.085,0-0.169,0-0.254,0.028c-0.084,0.027-0.169,0.027-0.253,0.056
			c-0.141,0.028-0.254,0.028-0.367,0.057c-0.113,0-0.197,0.028-0.282,0c-0.084,0-0.169-0.028-0.254-0.085
			c-0.084-0.027-0.141-0.112-0.197-0.197c-0.084-0.084-0.113-0.197-0.141-0.31c-0.028-0.113,0-0.226,0.028-0.311
			c0.028-0.112,0.113-0.226,0.197-0.31c0.084-0.113,0.197-0.197,0.338-0.311c0.057-0.027,0.113-0.084,0.169-0.112
			c0.057-0.028,0.113-0.057,0.197-0.113c0.057-0.027,0.113-0.056,0.198-0.084c0.056-0.028,0.113-0.057,0.113-0.057
			c0.028,0,0.056,0,0.056,0s0.028,0.028,0.028,0.057l0.225,0.395c0,0.028,0,0.057-0.028,0.085l-0.141,0.112
			c-0.028,0.028-0.056,0.028-0.084,0l-0.254-0.226c-0.056,0-0.113,0-0.169,0.028s-0.141,0.057-0.197,0.112
			c-0.141,0.113-0.226,0.197-0.254,0.339c-0.028,0.112,0,0.226,0.085,0.338c0.056,0.085,0.113,0.113,0.169,0.141
			c0.056,0.028,0.113,0.028,0.197,0.028c0.056,0,0.141,0,0.226-0.028c0.084-0.027,0.141-0.027,0.226-0.056
			c0.113-0.028,0.225-0.028,0.338-0.057s0.226-0.028,0.338-0.028s0.226,0.028,0.31,0.057s0.169,0.112,0.254,0.226
			c0.084,0.141,0.141,0.254,0.141,0.395c0,0.112,0,0.226-0.056,0.338c-0.057,0.113-0.113,0.226-0.226,0.311
			c-0.084,0.112-0.226,0.197-0.338,0.31c-0.113,0.085-0.253,0.169-0.366,0.226c-0.141,0.057-0.31,0.141-0.31,0.141
			c-0.028,0-0.057,0.028-0.057,0c0,0-0.028-0.027-0.028-0.056l-0.226-0.395c-0.028-0.028,0-0.057,0.028-0.085l0.141-0.112
			c0.028-0.028,0.057-0.028,0.084,0L12.802,9.646z"/>
		<path fill="#FFFFFF" d="M14.86,5.418c0,0.027,0,0.056-0.028,0.084l-0.169,0.141c-0.028,0.028-0.028,0.057-0.028,0.085l1.1,2.029
			c0,0.028,0.056,0.028,0.084,0.028l0.226-0.057c0.028,0,0.056,0,0.084,0.028l0.028,0.057c0,0.028,0,0.057-0.028,0.085l-0.902,0.479
			c-0.028,0-0.056,0-0.084-0.028l-0.028-0.056c0-0.028,0-0.057,0.028-0.085l0.169-0.141c0.028-0.028,0.028-0.057,0.028-0.085
			l-1.127-2.029c0-0.028-0.056-0.028-0.084-0.028L13.93,5.981c-0.028,0-0.056,0-0.084-0.028l-0.028-0.057
			c0-0.028,0-0.056,0.028-0.084l0.902-0.479c0.028,0,0.057,0,0.084,0.028L14.86,5.418z"/>
		<path fill="#FFFFFF" d="M16.016,4.741c0-0.028,0.028-0.028,0.056-0.057l2.143-0.761c0.028,0,0.056-0.028,0.084,0
			c0,0,0.028,0.028,0.056,0.057l0.197,0.45c0,0.028,0,0.057-0.028,0.057l-0.169,0.057c-0.028,0-0.056,0-0.084-0.028L18.129,4.29
			c-0.028-0.028-0.056-0.028-0.084-0.028l-0.282,0.085c-0.028,0-0.084,0.028-0.113,0.028l-0.226,0.084l0.79,2.199
			c0,0.027,0.028,0.056,0.056,0.027l0.226-0.027c0.028,0,0.056,0,0.056,0.027l0.028,0.057c0,0.028,0,0.057-0.028,0.057l-0.986,0.366
			c-0.028,0-0.057,0-0.057-0.028l-0.028-0.056c0-0.028,0-0.057,0.028-0.085l0.197-0.113c0.028-0.027,0.028-0.056,0.028-0.084
			l-0.761-2.171l-0.226,0.085c-0.028,0-0.084,0.028-0.084,0.028l-0.226,0.084c-0.028,0-0.057,0.057-0.057,0.085l0.028,0.254
			c0,0.028-0.028,0.057-0.056,0.057l-0.169,0.056c-0.028,0-0.056,0-0.056-0.028l-0.141-0.45C15.987,4.798,15.987,4.77,16.016,4.741z
			"/>
		<path fill="#FFFFFF" d="M21.23,5.051l-0.958,0.17l-0.141,0.873c0,0.028,0.028,0.057,0.056,0.057h0.198
			c0.028,0,0.056,0.028,0.056,0.057v0.056c0,0.028,0,0.057-0.028,0.057l-0.846,0.169c-0.028,0-0.056,0-0.056-0.027V6.404
			c0-0.028,0-0.057,0.028-0.085l0.169-0.084c0.028,0,0.057-0.057,0.057-0.085L20.3,3.416c0-0.028,0.028-0.056,0.057-0.056
			l0.366-0.057c0.028,0,0.057,0,0.084,0.028l1.353,2.367c0,0.028,0.057,0.057,0.085,0.057h0.169c0.028,0,0.056,0.028,0.056,0.057
			v0.056c0,0.028,0,0.057-0.028,0.057l-0.958,0.169c-0.028,0-0.057,0-0.057-0.028V6.01c0-0.028,0-0.057,0.028-0.085l0.169-0.084
			c0.028,0,0.028-0.028,0.028-0.057L21.23,5.051z M20.525,3.782L20.3,4.995l0.79-0.142L20.525,3.782z"/>
		<path fill="#FFFFFF" d="M23.852,5.643c0.056,0.028,0.141,0.057,0.197,0.057c0.084,0.028,0.141,0.028,0.197,0.028
			c0.197,0,0.338-0.057,0.451-0.141c0.113-0.085,0.169-0.197,0.169-0.366c0-0.085-0.028-0.17-0.056-0.226
			c-0.028-0.057-0.084-0.113-0.169-0.17C24.584,4.77,24.5,4.741,24.416,4.685c-0.085-0.028-0.169-0.084-0.226-0.112
			c-0.113-0.057-0.226-0.113-0.31-0.17c-0.084-0.056-0.169-0.112-0.226-0.169c-0.056-0.056-0.113-0.141-0.141-0.197
			c-0.028-0.084-0.056-0.169-0.056-0.281c0-0.113,0.028-0.226,0.084-0.339c0.057-0.084,0.113-0.169,0.226-0.226
			c0.084-0.056,0.197-0.112,0.338-0.141c0.141-0.028,0.282-0.057,0.451-0.057c0.057,0,0.113,0,0.197,0
			c0.057,0,0.141,0.028,0.197,0.028c0.057,0,0.141,0.028,0.198,0.028c0.057,0.028,0.112,0.028,0.112,0.028
			c0.028,0,0.057,0.028,0.057,0.028s0,0.028,0,0.056l-0.057,0.451c0,0.028-0.028,0.057-0.056,0.057h-0.17
			c-0.027,0-0.056-0.028-0.056-0.057l-0.084-0.338c-0.028-0.028-0.084-0.057-0.169-0.057C24.669,3.19,24.584,3.19,24.5,3.19
			c-0.169,0-0.31,0.028-0.395,0.113c-0.085,0.084-0.141,0.197-0.141,0.31c0,0.085,0.028,0.169,0.056,0.226
			c0.028,0.057,0.085,0.113,0.141,0.142c0.057,0.027,0.113,0.084,0.197,0.112c0.057,0.028,0.141,0.057,0.197,0.112
			c0.084,0.057,0.197,0.113,0.31,0.17c0.113,0.056,0.197,0.112,0.282,0.197c0.084,0.056,0.169,0.141,0.225,0.253
			c0.057,0.085,0.086,0.197,0.086,0.311c0,0.169-0.057,0.282-0.113,0.395s-0.141,0.197-0.254,0.254
			c-0.113,0.057-0.226,0.112-0.366,0.141c-0.141,0.028-0.282,0.028-0.451,0.028c-0.141,0-0.282,0-0.423-0.028
			s-0.31-0.057-0.31-0.057c-0.028,0-0.056-0.027-0.056-0.027s0-0.028,0-0.057l0.056-0.451c0-0.028,0.028-0.057,0.057-0.057h0.169
			c0.028,0,0.056,0.028,0.056,0.057L23.852,5.643z"/>
		<path fill="#FFFFFF" d="M31.293,6.799c-0.311,0.169-0.676,0.169-1.1,0.057c-0.197-0.057-0.365-0.17-0.535-0.282
			c-0.141-0.112-0.254-0.254-0.311-0.395c-0.084-0.141-0.111-0.338-0.111-0.508c0-0.197,0.027-0.395,0.111-0.62
			c0.086-0.226,0.17-0.423,0.311-0.592c0.113-0.169,0.254-0.281,0.424-0.366c0.141-0.085,0.338-0.141,0.506-0.141
			c0.197,0,0.367,0.028,0.592,0.084c0.197,0.057,0.367,0.142,0.508,0.254s0.254,0.254,0.338,0.395
			c0.086,0.141,0.113,0.338,0.113,0.536c0,0.197-0.027,0.395-0.113,0.647C31.828,6.319,31.604,6.63,31.293,6.799z M31.547,4.713
			c-0.084-0.254-0.254-0.395-0.508-0.479c-0.254-0.084-0.479-0.056-0.705,0.085c-0.197,0.141-0.365,0.423-0.506,0.817
			c-0.141,0.423-0.17,0.732-0.086,0.986c0.086,0.254,0.254,0.395,0.508,0.479c0.254,0.084,0.479,0.057,0.705-0.085
			c0.197-0.141,0.367-0.423,0.508-0.817S31.631,4.967,31.547,4.713z"/>
		<path fill="#FFFFFF" d="M32.984,7.645c0.057,0.057,0.084,0.112,0.17,0.141c0.055,0.057,0.111,0.085,0.168,0.113
			c0.17,0.084,0.311,0.141,0.451,0.112s0.254-0.112,0.311-0.226c0.057-0.084,0.057-0.169,0.057-0.226
			c0-0.084-0.029-0.141-0.057-0.226C34.055,7.25,34,7.193,33.971,7.108c-0.057-0.084-0.113-0.141-0.141-0.226
			c-0.084-0.112-0.141-0.197-0.197-0.31c-0.057-0.085-0.113-0.169-0.141-0.254c-0.029-0.084-0.029-0.169-0.029-0.254
			c0-0.084,0.029-0.169,0.086-0.281c0.057-0.113,0.141-0.197,0.225-0.254s0.197-0.085,0.311-0.112c0.113,0,0.225,0,0.365,0.027
			c0.143,0.028,0.283,0.085,0.424,0.17c0.057,0.027,0.113,0.056,0.17,0.112c0.055,0.028,0.111,0.085,0.168,0.141
			c0.057,0.057,0.113,0.085,0.17,0.142c0.057,0.056,0.084,0.084,0.084,0.084c0.027,0.028,0.027,0.057,0.027,0.057
			s-0.027,0.028-0.027,0.057l-0.254,0.366c-0.027,0.028-0.057,0.028-0.084,0.028l-0.17-0.085c-0.027,0-0.027-0.056-0.027-0.084
			l0.084-0.339C34.986,6.038,34.957,6.01,34.9,5.953c-0.055-0.057-0.111-0.085-0.197-0.141c-0.141-0.085-0.281-0.113-0.395-0.085
			c-0.111,0.028-0.225,0.085-0.281,0.226C34,6.038,33.971,6.094,33.971,6.179c0,0.057,0.029,0.141,0.057,0.197
			s0.057,0.112,0.113,0.197c0.057,0.057,0.084,0.112,0.141,0.197s0.113,0.197,0.197,0.282c0.057,0.084,0.113,0.197,0.17,0.31
			c0.055,0.113,0.055,0.197,0.084,0.311c0,0.112-0.029,0.226-0.084,0.31c-0.086,0.141-0.17,0.226-0.283,0.311
			c-0.113,0.056-0.225,0.084-0.338,0.112c-0.113,0-0.254,0-0.395-0.057c-0.141-0.056-0.281-0.112-0.424-0.197
			c-0.141-0.084-0.252-0.141-0.365-0.253C32.73,7.813,32.59,7.673,32.59,7.673c-0.027-0.028-0.027-0.057-0.027-0.057
			S32.59,7.588,32.59,7.56l0.225-0.395c0.029-0.028,0.057-0.028,0.086-0.028l0.168,0.085c0.029,0,0.029,0.057,0.029,0.084
			L32.984,7.645z"/>
		<path fill="#FFFFFF" d="M35.973,9.533c-0.029,0.028,0,0.056,0,0.084l0.365,0.282c0.029,0.028,0.057,0.057,0.086,0.057l0.197,0.141
			c0.027,0.028,0.057,0.028,0.084,0l0.225-0.197c0.029-0.028,0.057-0.028,0.086,0l0.141,0.112c0.027,0.028,0.027,0.057,0,0.085
			l-0.311,0.366c-0.027,0.028-0.027,0.057-0.057,0.057c0,0-0.027,0-0.057-0.028l-1.521-1.212c-0.027-0.028-0.027-0.057,0-0.085
			l0.029-0.056c0.027-0.028,0.055-0.028,0.084-0.028l0.197,0.112c0.027,0,0.057,0,0.084-0.028l1.41-1.804
			c0.027-0.028,0.027-0.057,0-0.085l-0.141-0.169c-0.029-0.028-0.029-0.056,0-0.084l0.027-0.057c0.027-0.028,0.057-0.028,0.084,0
			l0.818,0.648c0.027,0.028,0.027,0.057,0,0.084l-0.029,0.057c-0.027,0.028-0.055,0.028-0.084,0.028l-0.197-0.112
			c-0.027,0-0.057,0-0.084,0.027L35.973,9.533z"/>
		<path fill="#FFFFFF" d="M39.383,12.746c-0.367-0.028-0.676-0.197-0.986-0.535c-0.141-0.169-0.254-0.339-0.311-0.508
			s-0.084-0.338-0.084-0.507c0.027-0.17,0.057-0.339,0.168-0.508c0.086-0.169,0.227-0.338,0.424-0.479
			c0.197-0.169,0.367-0.281,0.564-0.366c0.197-0.084,0.365-0.112,0.535-0.112c0.168,0,0.338,0.056,0.508,0.141
			c0.168,0.085,0.309,0.226,0.449,0.366c0.143,0.169,0.254,0.339,0.311,0.508s0.086,0.338,0.086,0.507
			c-0.029,0.17-0.057,0.339-0.17,0.508c-0.084,0.169-0.227,0.338-0.424,0.479C40.088,12.605,39.721,12.774,39.383,12.746z
			 M40.65,11.111c0.057-0.254,0-0.479-0.168-0.677c-0.17-0.197-0.395-0.31-0.648-0.281s-0.535,0.169-0.846,0.45
			c-0.338,0.282-0.508,0.564-0.564,0.79c-0.055,0.253,0,0.479,0.197,0.676c0.17,0.197,0.395,0.311,0.648,0.282
			s0.537-0.169,0.846-0.451C40.398,11.619,40.596,11.337,40.65,11.111z"/>
		<path fill="#FFFFFF" d="M41.836,14.55c0.027-0.027,0.027-0.056,0-0.084l-0.311-0.536l-1.016,0.62l0.34,0.564
			c0.027,0.028,0.027,0.056,0.055,0.084l0.143,0.197c0.027,0.028,0.055,0.028,0.084,0.028l0.281-0.084c0.029,0,0.057,0,0.084,0.027
			l0.086,0.17c0.027,0.027,0,0.056-0.029,0.056l-0.422,0.226c-0.029,0-0.057,0.028-0.057,0.028s-0.027,0-0.057-0.028l-1.07-1.804
			c-0.029-0.028,0-0.057,0.027-0.085l0.057-0.027c0.027-0.028,0.057,0,0.084,0l0.141,0.169c0.029,0.028,0.057,0.028,0.086,0
			l1.973-1.185c0.027-0.027,0.027-0.056,0.027-0.084l-0.084-0.197c0-0.028,0-0.057,0.029-0.085l0.055-0.028
			c0.029-0.028,0.057,0,0.086,0.028l1.014,1.72c0.029,0.028,0.029,0.057,0.029,0.084c0,0.028-0.029,0.028-0.057,0.057l-0.424,0.254
			c-0.027,0.028-0.057,0-0.084-0.028l-0.084-0.169c-0.029-0.028,0-0.057,0-0.085l0.225-0.226c0.029-0.027,0.029-0.056,0.029-0.084
			l-0.113-0.113c0-0.027-0.029-0.056-0.057-0.084l-0.311-0.508l-0.902,0.536l0.311,0.535c0.029,0.028,0.057,0.028,0.086,0.028
			l0.197-0.085c0.027,0,0.055,0,0.084,0.028l0.084,0.142c0.029,0.027,0,0.056-0.027,0.084l-0.678,0.395
			c-0.027,0.028-0.057,0-0.084-0.028l-0.084-0.141c-0.029-0.028,0-0.057,0-0.085L41.836,14.55z"/>
		<path fill="#FFFFFF" d="M7.897,13.338c-0.028,0-0.056,0-0.084,0.028l-0.338,0.508l1.015,0.648l0.366-0.564
			c0.028-0.028,0.028-0.056,0.057-0.084l0.113-0.197c0.028-0.028,0-0.057,0-0.085l-0.198-0.197c-0.028-0.028-0.028-0.057,0-0.085
			l0.113-0.169c0.028-0.028,0.057-0.028,0.084,0l0.395,0.282c0.028,0.028,0.056,0.028,0.056,0.057c0,0,0,0.027,0,0.056L8.32,15.312
			C8.292,15.34,8.264,15.34,8.236,15.34L8.18,15.312c-0.028-0.028-0.028-0.057-0.028-0.085l0.084-0.197c0-0.028,0-0.057-0.028-0.085
			l-1.973-1.296c-0.028-0.028-0.057,0-0.085,0l-0.141,0.169c-0.028,0.028-0.057,0.028-0.084,0l-0.057-0.028
			C5.84,13.761,5.84,13.732,5.84,13.704l1.1-1.69c0.028-0.028,0.028-0.057,0.056-0.057s0.057,0,0.084,0.028l0.423,0.254
			c0.028,0.027,0.028,0.056,0.028,0.084l-0.113,0.141c-0.028,0.028-0.056,0.028-0.084,0.028L7.052,12.38
			c-0.028,0-0.057,0-0.085,0.028l-0.141,0.197c-0.028,0.028-0.057,0.057-0.057,0.084l-0.338,0.508l0.874,0.563l0.338-0.507
			c0.028-0.028,0-0.057,0-0.085l-0.169-0.141c-0.028-0.028-0.028-0.057,0-0.085l0.084-0.141c0.028-0.028,0.056-0.028,0.084-0.028
			l0.648,0.423c0.028,0.028,0.028,0.057,0.028,0.085l-0.084,0.141c-0.028,0.028-0.056,0.028-0.084,0.028L7.897,13.338z"/>
		<path fill="#FFFFFF" d="M44.598,16.833c0,0.028,0,0.057,0,0.085l-1.467,2.029l1.721-0.592c0.027,0,0.057-0.028,0.027-0.057
			l-0.027-0.226c0-0.028,0.027-0.056,0.027-0.056l0.057-0.028c0.029,0,0.057,0,0.057,0.028l0.281,0.846c0,0.027,0,0.056-0.027,0.056
			l-0.057,0.028c-0.027,0-0.057,0-0.084-0.028l-0.113-0.197c-0.027-0.028-0.057-0.028-0.084-0.028l-2.424,0.846
			c-0.029,0-0.057,0-0.057-0.028l-0.086-0.226c0-0.027,0-0.056,0-0.084l1.721-2.34l-2.002,0.677c-0.027,0-0.057,0.028-0.027,0.057
			l0.027,0.226c0,0.027-0.027,0.056-0.027,0.056l-0.057,0.028c-0.029,0-0.057,0-0.057-0.028l-0.281-0.846
			c0-0.027,0-0.056,0.027-0.056l0.057-0.028c0.027,0,0.057,0,0.084,0.028l0.113,0.197c0.027,0.028,0.057,0.028,0.084,0.028
			l2.17-0.762c0.029,0,0.057-0.028,0.029-0.056l-0.029-0.226c0-0.028,0.029-0.057,0.029-0.057l0.057-0.028
			c0.027,0,0.057,0,0.057,0.028L44.598,16.833z"/>
		<path fill="#FFFFFF" d="M43.076,21.23c-0.029,0.057-0.029,0.141-0.029,0.226s0,0.141,0,0.197c0.029,0.197,0.084,0.338,0.197,0.423
			c0.086,0.085,0.227,0.141,0.367,0.112c0.084,0,0.168-0.056,0.225-0.084c0.057-0.057,0.113-0.113,0.141-0.169
			c0.029-0.085,0.086-0.142,0.113-0.226c0.029-0.085,0.057-0.169,0.084-0.254c0.057-0.112,0.086-0.226,0.113-0.338
			c0.029-0.113,0.084-0.197,0.141-0.254c0.057-0.085,0.113-0.141,0.197-0.169c0.086-0.057,0.17-0.085,0.283-0.085
			c0.111-0.028,0.225,0,0.338,0.028s0.197,0.112,0.254,0.169c0.084,0.085,0.141,0.197,0.197,0.311
			c0.057,0.112,0.084,0.281,0.113,0.423c0,0.056,0,0.112,0.027,0.197c0,0.084,0,0.141,0,0.226c0,0.084,0,0.141,0,0.197
			c0,0.056-0.027,0.141-0.027,0.141c0,0.028-0.029,0.057-0.029,0.057s-0.027,0-0.057,0h-0.451c-0.027,0-0.057-0.028-0.057-0.057
			l-0.027-0.169c0-0.028,0.027-0.057,0.027-0.085l0.311-0.141c0.029-0.028,0.029-0.085,0.057-0.169c0.027-0.085,0-0.142,0-0.226
			c-0.027-0.169-0.084-0.282-0.17-0.367c-0.084-0.084-0.197-0.112-0.338-0.112c-0.084,0-0.168,0.028-0.197,0.085
			c-0.057,0.027-0.084,0.084-0.141,0.141c-0.027,0.057-0.057,0.112-0.084,0.197c-0.029,0.085-0.057,0.141-0.057,0.226
			c-0.027,0.112-0.084,0.197-0.113,0.31c-0.027,0.113-0.084,0.226-0.141,0.311c-0.057,0.084-0.113,0.169-0.197,0.254
			c-0.084,0.056-0.197,0.112-0.311,0.112c-0.168,0.028-0.309,0-0.422-0.057c-0.113-0.056-0.197-0.112-0.283-0.197
			c-0.084-0.084-0.141-0.197-0.168-0.338c-0.057-0.141-0.084-0.282-0.113-0.451c-0.027-0.141-0.027-0.281-0.027-0.423
			c0-0.141,0.027-0.338,0.027-0.338c0-0.028,0-0.057,0.029-0.057c0,0,0.027,0,0.055,0h0.451c0.029,0,0.057,0.028,0.057,0.057
			l0.029,0.169c0,0.028-0.029,0.057-0.029,0.085L43.076,21.23z"/>
		<path fill="#FFFFFF" d="M45.838,25.092c-0.027,0-0.057-0.027-0.057-0.057l-0.057-0.225c0-0.028-0.027-0.057-0.057-0.057h-2.311
			c-0.027,0-0.057,0.028-0.057,0.057l-0.027,0.225c0,0.029-0.029,0.057-0.057,0.057H43.16c-0.029,0-0.057-0.027-0.057-0.057v-1.042
			c0-0.028,0.027-0.057,0.057-0.057h0.057c0.027,0,0.057,0.028,0.057,0.057l0.057,0.226c0,0.027,0.027,0.056,0.055,0.056h2.313
			c0.027,0,0.057-0.028,0.057-0.056l0.027-0.226c0-0.028,0.029-0.057,0.057-0.057h0.057c0.027,0,0.057,0.028,0.057,0.057v1.042
			c0,0.029-0.029,0.057-0.057,0.057H45.838z"/>
		<path fill="#FFFFFF" d="M43.217,26.867c-0.029,0.057-0.057,0.113-0.086,0.197c-0.027,0.085-0.055,0.142-0.055,0.197
			c-0.029,0.197,0,0.339,0.055,0.48c0.057,0.112,0.17,0.197,0.34,0.225c0.084,0.028,0.168,0,0.254-0.027
			c0.084-0.029,0.141-0.085,0.197-0.142c0.055-0.056,0.111-0.112,0.168-0.197s0.113-0.142,0.141-0.226
			c0.086-0.113,0.141-0.197,0.227-0.281c0.057-0.085,0.141-0.142,0.197-0.197c0.057-0.057,0.141-0.085,0.225-0.113
			c0.086-0.028,0.17-0.028,0.283,0c0.111,0.028,0.225,0.057,0.309,0.141c0.086,0.057,0.141,0.141,0.197,0.254
			s0.086,0.226,0.086,0.367c0,0.141,0,0.281-0.029,0.45c0,0.057-0.027,0.112-0.027,0.197c-0.029,0.057-0.029,0.142-0.057,0.197
			c-0.029,0.057-0.057,0.142-0.084,0.197c-0.029,0.057-0.057,0.112-0.057,0.112c0,0.029-0.029,0.057-0.029,0.057s-0.027,0-0.057,0
			l-0.422-0.112c-0.027,0-0.057-0.028-0.057-0.057l0.029-0.169c0-0.028,0.027-0.057,0.055-0.057l0.34-0.027
			c0.027-0.029,0.055-0.085,0.084-0.142c0.027-0.056,0.057-0.141,0.057-0.226c0.027-0.169,0-0.31-0.057-0.422
			c-0.057-0.113-0.17-0.17-0.281-0.198c-0.086,0-0.17,0-0.227,0.028s-0.113,0.057-0.168,0.113c-0.057,0.057-0.086,0.112-0.143,0.169
			c-0.027,0.056-0.084,0.112-0.141,0.197s-0.141,0.169-0.197,0.282c-0.057,0.084-0.141,0.168-0.225,0.253
			c-0.086,0.085-0.17,0.142-0.283,0.169c-0.084,0.028-0.197,0.057-0.338,0.028c-0.168-0.028-0.281-0.085-0.365-0.169
			c-0.086-0.084-0.17-0.169-0.197-0.281c-0.057-0.113-0.086-0.227-0.086-0.395c0-0.142,0-0.283,0.029-0.451
			c0.027-0.142,0.057-0.282,0.111-0.424c0.057-0.141,0.113-0.31,0.113-0.31c0-0.028,0.029-0.056,0.029-0.056s0.027,0,0.055,0.027
			l0.424,0.113c0.027,0,0.057,0.027,0.027,0.057l-0.027,0.168c0,0.029-0.027,0.057-0.057,0.057L43.217,26.867z"/>
	</g>
	<g>
		<path fill="#FFFFFF" d="M12.125,41.694c0.028,0,0.057,0,0.085-0.028l1.184-1.691l-2.198,1.24c-0.028,0-0.057,0-0.085,0
			l-0.084-0.084c-0.028-0.029-0.028-0.057-0.028-0.085l0.648-2.396l-1.353,1.465c-0.028,0.029-0.028,0.057,0,0.085l0.141,0.169
			c0.028,0.028,0.028,0.057,0,0.085l-0.057,0.056c-0.028,0.029-0.056,0.029-0.084,0l-0.648-0.619c-0.028-0.029-0.028-0.057,0-0.085
			l0.056-0.057c0.028-0.028,0.056-0.028,0.084,0l0.197,0.112c0.028,0.029,0.057,0,0.084,0l1.522-1.69
			c0.028-0.028,0.028-0.057,0-0.085l-0.141-0.169c-0.028-0.028-0.028-0.056,0-0.085l0.056-0.056c0.028-0.028,0.057-0.028,0.085,0
			l0.676,0.563c0.028,0.028,0.028,0.057,0.028,0.084l-0.536,2.086l1.86-1.014c0.028,0,0.057,0,0.084,0l0.648,0.535
			c0.028,0.027,0.028,0.057,0,0.084l-0.056,0.057C14.268,40.2,14.24,40.2,14.211,40.2l-0.197-0.112c-0.028,0-0.056,0-0.084,0.027
			l-1.296,1.832c-0.028,0.029,0,0.057,0,0.085l0.141,0.169c0.028,0.028,0.028,0.057,0,0.085l-0.028,0.056
			c-0.028,0.029-0.056,0.029-0.084,0l-0.845-0.619c-0.028-0.028-0.028-0.057,0-0.085l0.028-0.056
			c0.028-0.029,0.057-0.029,0.084-0.029L12.125,41.694z"/>
		<path fill="#FFFFFF" d="M17.086,41.525c0.198,0.112,0.367,0.225,0.536,0.338c0.141,0.141,0.254,0.281,0.338,0.423
			c0.084,0.169,0.113,0.339,0.113,0.536s-0.084,0.422-0.197,0.647s-0.254,0.396-0.395,0.536c-0.141,0.141-0.31,0.225-0.507,0.254
			c-0.169,0.056-0.367,0.056-0.564,0c-0.197-0.029-0.564-0.197-0.564-0.197c-0.028,0-0.056-0.029-0.084-0.057l-0.986-0.508
			c-0.028,0-0.028-0.057-0.028-0.084l0.028-0.057c0-0.028,0.056-0.028,0.084-0.028l0.226,0.056c0.028,0,0.056,0,0.084-0.027
			l1.043-2.059c0-0.027,0-0.056-0.028-0.084l-0.169-0.141c-0.028-0.028-0.028-0.057-0.028-0.085l0.028-0.056
			c0-0.029,0.056-0.029,0.056-0.029L17.086,41.525z M17.538,42.737c0.028-0.169,0.028-0.31,0-0.423
			c-0.028-0.141-0.113-0.254-0.197-0.338c-0.113-0.113-0.338-0.254-0.338-0.254c-0.028-0.028-0.056-0.028-0.084-0.057l-0.253-0.141
			l-1.1,2.17l0.254,0.141c0.113,0.057,0.226,0.113,0.338,0.142c0.112,0.028,0.225,0.056,0.31,0.056c0.169,0,0.338-0.084,0.479-0.197
			c0.169-0.112,0.31-0.31,0.423-0.563C17.453,43.075,17.509,42.906,17.538,42.737z"/>
		<path fill="#FFFFFF" d="M21.991,43.555c0-0.085,0-0.113,0-0.17c0-0.084-0.028-0.112-0.113-0.168
			c-0.028-0.029-0.056-0.029-0.113-0.057c-0.056-0.028-0.141-0.057-0.197-0.057c-0.141-0.028-0.282-0.028-0.395,0
			s-0.226,0.084-0.338,0.169s-0.197,0.197-0.253,0.339c-0.084,0.141-0.113,0.31-0.169,0.507c-0.084,0.423-0.056,0.733,0.085,0.987
			c0.141,0.225,0.366,0.365,0.705,0.45c0.084,0.028,0.197,0.028,0.31,0.028c0.084,0,0.197-0.028,0.338-0.028
			c0.057,0,0.085,0.028,0.085,0.028v0.057c0,0,0,0.057-0.057,0.084c-0.113,0.057-0.253,0.085-0.395,0.085
			c-0.169,0.028-0.338,0.028-0.536-0.028c-0.197-0.028-0.366-0.084-0.507-0.169c-0.169-0.085-0.282-0.197-0.395-0.339
			c-0.113-0.141-0.169-0.31-0.197-0.479c-0.028-0.197-0.028-0.423,0-0.677c0.056-0.253,0.113-0.479,0.226-0.648
			c0.112-0.169,0.253-0.31,0.395-0.395c0.169-0.085,0.338-0.169,0.536-0.197c0.197-0.028,0.395-0.028,0.62,0.028
			c0.141,0.028,0.282,0.057,0.422,0.113c0.085,0.027,0.169,0.084,0.254,0.112c0.113,0.056,0.084,0.141,0.084,0.141l-0.113,0.366
			c0,0-0.028,0.085-0.113,0.085c-0.056,0-0.113-0.028-0.113-0.028S21.991,43.668,21.991,43.555z"/>
		<path fill="#FFFFFF" d="M26.361,43.668c-0.029-0.086-0.029-0.113-0.057-0.17c-0.029-0.084-0.057-0.113-0.141-0.141
			c-0.029,0-0.086-0.028-0.113-0.028c-0.057,0-0.141-0.028-0.227,0c-0.141,0-0.281,0.028-0.395,0.112
			c-0.112,0.057-0.197,0.141-0.281,0.254c-0.085,0.113-0.141,0.226-0.169,0.395c-0.028,0.141-0.056,0.338-0.028,0.535
			c0.028,0.424,0.141,0.733,0.31,0.931c0.198,0.197,0.452,0.282,0.79,0.254c0.113,0,0.197-0.028,0.311-0.057
			c0.084-0.028,0.197-0.056,0.309-0.112c0.057-0.028,0.086,0.027,0.086,0.027l0.027,0.057c0,0,0.027,0.057-0.027,0.085
			c-0.113,0.056-0.227,0.141-0.34,0.169c-0.168,0.057-0.338,0.084-0.535,0.113c-0.197,0-0.365,0-0.535-0.057
			s-0.311-0.113-0.451-0.226c-0.141-0.112-0.226-0.254-0.31-0.423s-0.141-0.395-0.141-0.648c-0.028-0.254,0-0.508,0.084-0.676
			c0.057-0.197,0.169-0.367,0.282-0.48c0.141-0.141,0.282-0.225,0.479-0.31s0.395-0.112,0.621-0.112c0.141,0,0.281,0,0.422,0.027
			c0.084,0.029,0.17,0.029,0.254,0.057c0.113,0.028,0.113,0.113,0.113,0.113l-0.029,0.395c0,0,0,0.084-0.084,0.084
			c-0.057,0-0.113,0-0.113,0S26.389,43.752,26.361,43.668z"/>
		<path fill="#FFFFFF" d="M30.645,42.766c-0.057-0.085-0.057-0.113-0.084-0.17c-0.029-0.084-0.084-0.084-0.17-0.112
			c-0.027,0-0.084,0-0.111,0c-0.057,0-0.143,0-0.227,0.028c-0.141,0.027-0.254,0.084-0.365,0.169
			c-0.113,0.085-0.17,0.169-0.227,0.31c-0.057,0.113-0.084,0.254-0.084,0.424c0,0.168,0.027,0.338,0.084,0.535
			c0.113,0.395,0.281,0.676,0.508,0.846c0.225,0.141,0.508,0.169,0.816,0.084c0.086-0.027,0.197-0.057,0.283-0.112
			c0.084-0.057,0.168-0.112,0.281-0.169c0.057-0.028,0.084,0,0.084,0l0.029,0.057c0,0,0.027,0.056,0,0.084
			c-0.086,0.084-0.197,0.17-0.311,0.254c-0.141,0.084-0.311,0.169-0.508,0.226c-0.197,0.056-0.365,0.085-0.535,0.056
			c-0.17,0-0.338-0.056-0.479-0.112c-0.143-0.085-0.283-0.197-0.395-0.339c-0.113-0.168-0.227-0.365-0.283-0.619
			c-0.084-0.254-0.084-0.479-0.057-0.705c0.029-0.197,0.086-0.395,0.197-0.535c0.113-0.17,0.227-0.282,0.395-0.395
			c0.17-0.113,0.367-0.197,0.564-0.254c0.141-0.028,0.281-0.057,0.424-0.085c0.084,0,0.197,0,0.281,0
			c0.113,0,0.141,0.085,0.141,0.085l0.057,0.395c0,0,0,0.084-0.057,0.113c-0.057,0.027-0.113,0.027-0.113,0.027
			S30.674,42.85,30.645,42.766z"/>
		<path fill="#FFFFFF" d="M34.197,42.061l-1.27-0.563c-0.027,0-0.057-0.028-0.084,0l-0.197,0.056c-0.029,0-0.057,0-0.084-0.027
			l-0.029-0.057c-0.027-0.028,0-0.057,0.029-0.084l0.9-0.508c0.029-0.028,0.057,0,0.086,0.027l0.027,0.057
			c0.029,0.028,0,0.057,0,0.085l-0.113,0.112c-0.027,0.029-0.027,0.057,0,0.057l0.902,0.423l0.113-1.015
			c0-0.028-0.029-0.057-0.057-0.028l-0.17,0.057c-0.027,0-0.055,0-0.084-0.028l-0.027-0.057c-0.029-0.027,0-0.057,0.027-0.084
			l0.732-0.424c0.029-0.027,0.057,0,0.086,0.029l0.027,0.057c0.029,0.027,0,0.056,0,0.084l-0.168,0.141
			c-0.029,0.028-0.029,0.057-0.057,0.085l-0.141,1.269l1.408,0.648c0.029,0,0.057,0.027,0.084,0l0.197-0.057
			c0.029,0,0.057,0,0.086,0.027l0.027,0.057c0.029,0.029,0,0.057-0.027,0.085l-0.902,0.536c-0.029,0-0.057,0-0.084-0.029
			l-0.029-0.056c-0.027-0.028,0-0.057,0-0.085l0.113-0.112c0.027-0.028,0.027-0.057,0-0.057l-1.043-0.507l-0.141,1.184
			c0,0.027,0.027,0.057,0.057,0.027l0.141-0.056c0.027,0,0.057,0,0.084,0.028l0.029,0.057c0,0.027,0,0.056-0.029,0.084l-0.732,0.423
			c-0.029,0.028-0.057,0-0.084-0.028l-0.029-0.057c-0.027-0.027,0-0.057,0-0.084l0.17-0.141c0.027-0.029,0.027-0.057,0.057-0.085
			L34.197,42.061z"/>
		<path fill="#FFFFFF" d="M37.326,38.199c0.027,0.027,0.027,0.057,0,0.084l-0.143,0.17c-0.027,0.027-0.027,0.056,0,0.084l1.523,1.72
			c0.027,0.028,0.057,0.028,0.084,0l0.197-0.112c0.027-0.029,0.057,0,0.084,0l0.057,0.056c0.029,0.028,0.029,0.057,0,0.085
			l-0.789,0.676c-0.027,0.028-0.057,0.028-0.084,0l-0.057-0.057c-0.029-0.027-0.029-0.056,0-0.084l0.141-0.169
			c0.029-0.028,0.029-0.057,0-0.085l-1.521-1.719c-0.029-0.029-0.057-0.029-0.086,0l-0.197,0.112c-0.027,0.028-0.055,0-0.084,0
			l-0.057-0.056c-0.027-0.029-0.027-0.057,0-0.086l0.789-0.676c0.029-0.028,0.057-0.028,0.086,0L37.326,38.199z"/>
	</g>
	<g>
		<path fill="#FFFFFF" d="M11.421,11.224c0.028,0,0.057,0,0.084-0.027l0.423-0.451c0.028-0.028,0.028-0.057,0-0.085l-0.056-0.057
			c-0.028-0.027-0.056-0.027-0.084,0l-0.169,0.113c-0.028,0.028-0.056,0.028-0.084,0.028l-1.269-0.197
			c-0.028,0-0.028-0.028-0.028-0.057c0,0,0.169-0.338,0.141-0.508c0-0.169-0.084-0.338-0.225-0.479
			C10.04,9.392,9.927,9.336,9.814,9.336c-0.113-0.028-0.226,0-0.338,0.027c-0.113,0.028-0.197,0.085-0.31,0.17
			C9.082,9.617,8.94,9.759,8.94,9.759C8.913,9.786,8.884,9.814,8.856,9.843l-0.761,0.789c-0.028,0.028-0.028,0.057,0,0.085
			l0.056,0.057c0.028,0.028,0.056,0.028,0.084,0l0.169-0.142c0.028-0.028,0.056-0.028,0.084,0l1.663,1.579
			c0.028,0.028,0.028,0.056,0,0.084l-0.113,0.197c-0.028,0.028,0,0.057,0,0.085l0.056,0.057c0.028,0.028,0.057,0.028,0.084,0
			l0.705-0.762c0.028-0.028,0.028-0.056,0-0.084l-0.056-0.057c-0.028-0.028-0.056-0.028-0.084,0l-0.169,0.141
			c-0.028,0.028-0.057,0.028-0.085,0L9.73,11.14l0.113-0.113c0.028-0.027,0.056-0.027,0.084-0.027L11.421,11.224z M9.645,10.942
			c-0.028,0.028-0.028,0.028-0.028,0.028L8.8,10.182L8.94,10.04c0.028-0.028,0.057-0.057,0.085-0.084c0,0,0.084-0.085,0.141-0.142
			C9.223,9.759,9.307,9.73,9.363,9.73c0.057,0,0.141,0,0.197,0c0.057,0.028,0.141,0.084,0.226,0.141
			c0.169,0.169,0.254,0.311,0.226,0.451c0,0.141-0.197,0.395-0.197,0.395c-0.028,0.028-0.057,0.057-0.057,0.085L9.645,10.942z"/>
	</g>
</g>
</svg>
