<?xml version="1.0" encoding="utf-8"?>
<!-- Generator: Adobe Illustrator 24.1.2, SVG Export Plug-In . SVG Version: 6.00 Build 0)  -->
<svg version="1.1" baseProfile="tiny" id="Lager_1" xmlns="http://www.w3.org/2000/svg" xmlns:xlink="http://www.w3.org/1999/xlink"
	 x="0px" y="0px" viewBox="0 0 516.2 191.8" overflow="visible" xml:space="preserve">
<g>
	<path fill="#717171" d="M52.7,54.6c13.4,0,22.9,4.2,28.6,12.6c3.6,5.4,5.5,12,5.5,19.8c0,10.6-2.9,18.7-8.7,24.2
		c-5.7,5.5-14.2,8.2-25.4,8.2c-14,0-23.7-4.4-29.3-13.1v4.4c0,2.1-0.8,3.9-2.3,5.4c-1.5,1.5-3.3,2.3-5.5,2.3H0v-4.1h15.6
		c0.8,0,1.5-0.4,2.1-1.1c0.6-0.7,0.8-1.6,0.8-2.5V33.9c0-1-0.3-1.8-0.8-2.6c-0.6-0.7-1.3-1.1-2.1-1.1h-3v-4h3c2.2,0,4,0.8,5.5,2.3
		c1.5,1.5,2.3,3.3,2.3,5.4v34.3C29,59.1,38.7,54.6,52.7,54.6z M52.7,115.4c19.6,0,29.3-9.5,29.3-28.4c0-6.9-1.6-12.7-4.8-17.4
		c-4.9-7.3-13.1-11-24.6-11c-11.5,0-19.7,3.7-24.6,11C25,74.3,23.4,80.1,23.4,87C23.4,105.9,33.2,115.4,52.7,115.4z"/>
	<path fill="#717171" d="M102.4,55.6v62.8h-4.9V55.6H102.4z"/>
	<path fill="#717171" d="M147.4,54.5c13.4,0,22.9,4.2,28.6,12.6c3.7,5.4,5.5,12,5.5,19.9c0,10.6-2.9,18.7-8.7,24.2
		c-5.8,5.5-14.3,8.3-25.5,8.3c-11.2,0-19.7-2.8-25.5-8.3c-5.8-5.5-8.7-13.6-8.7-24.2c0-7.9,1.8-14.5,5.5-19.9
		C124.4,58.7,134,54.5,147.4,54.5z M147.4,115.5c19.6,0,29.3-9.5,29.3-28.5c0-6.9-1.6-12.7-4.7-17.5c-4.9-7.3-13.1-11-24.6-11
		c-11.5,0-19.7,3.7-24.6,11c-3.1,4.8-4.7,10.6-4.7,17.5C118,106,127.8,115.5,147.4,115.5z"/>
	<path fill="#717171" d="M258.7,88.9h-63.5c0.7,17.6,10.5,26.4,29.3,26.4c6.9,0,12.8-1.2,17.6-3.6c2.5-1.2,4.2-2.5,5.2-3.7
		c0.5-0.6,0.8-1.4,0.8-2.1v-4.8h4.9v4.8c0,1.6-0.5,3-1.6,4.4c-1.3,1.6-3.4,3.2-6.3,4.7c-5.6,3-12.4,4.4-20.6,4.4
		c-11.2,0-19.7-2.8-25.5-8.3c-5.8-5.5-8.7-13.6-8.7-24.2c0-7.9,1.8-14.5,5.5-19.9c5.7-8.4,15.2-12.6,28.6-12.6
		c13.4,0,22.9,4.2,28.6,12.6c3.7,5.4,5.5,12,5.5,19.9V88.9z M224.5,58.4c-10.7,0-18.5,3.1-23.5,9.4c-3.5,4.4-5.5,10.1-5.8,17.1h58.6
		c-0.4-7-2.3-12.6-5.9-17.1C243,61.5,235.2,58.4,224.5,58.4z"/>
</g>
<g>
	<path fill="#717171" d="M399.2,97.4h4.8v7c0,2-0.7,3.9-2,5.6c-1.2,1.5-3.3,3-6.1,4.4c-5.5,2.8-12.3,4.2-20.4,4.2
		c-11.6,0-20.3-3.4-26.3-10.3c-5.1-5.8-7.6-13.2-7.6-22.1c0-9,2.5-16.4,7.6-22.2c6-6.9,14.8-10.4,26.3-10.4c8.1,0,14.9,1.4,20.4,4.2
		c2.9,1.5,4.9,3,6.2,4.5c1.3,1.7,1.9,3.6,1.9,5.6v6.8h-4.8v-6.8c0-1.2-0.4-2.4-1.2-3.3c-1-1.2-2.7-2.3-5.1-3.5
		c-4.7-2.3-10.5-3.4-17.4-3.4c-11.6,0-19.8,3.9-24.7,11.7c-2.9,4.8-4.4,10.4-4.4,16.8c0,6.4,1.5,12,4.4,16.7
		c4.9,7.8,13.1,11.7,24.7,11.7c6.9,0,12.7-1.1,17.4-3.3c2.5-1.2,4.2-2.3,5.1-3.5c0.8-1,1.2-2.1,1.2-3.3V97.4z"/>
	<path fill="#717171" d="M480.9,87.9h-63.5c0.7,17.6,10.5,26.4,29.3,26.4c6.9,0,12.8-1.2,17.6-3.6c2.5-1.2,4.2-2.5,5.2-3.7
		c0.5-0.6,0.8-1.4,0.8-2.1v-4.8h4.9v4.8c0,1.6-0.5,3-1.6,4.4c-1.3,1.6-3.4,3.2-6.3,4.7c-5.6,3-12.4,4.4-20.6,4.4
		c-11.2,0-19.7-2.8-25.5-8.3c-5.8-5.5-8.7-13.6-8.7-24.2c0-7.9,1.8-14.5,5.5-19.9c5.7-8.4,15.2-12.6,28.6-12.6
		c13.4,0,22.9,4.2,28.6,12.6c3.7,5.4,5.5,12,5.5,19.9V87.9z M446.7,57.4c-10.7,0-18.5,3.1-23.5,9.4c-3.5,4.4-5.5,10.1-5.8,17.1h58.6
		c-0.4-7-2.3-12.6-5.9-17.1C465.2,60.5,457.4,57.4,446.7,57.4z"/>
	<path fill="#717171" d="M491.4,67.7V33.4c0-2.1,0.8-3.9,2.3-5.4c1.5-1.5,3.3-2.3,5.5-2.3h3v4h-3c-0.8,0-1.5,0.4-2.1,1.1
		c-0.6,0.7-0.8,1.6-0.8,2.6v76.9c0,0.9,0.3,1.8,0.8,2.5c0.6,0.7,1.3,1.1,2.1,1.1h15.6v4.1h-15.6c-2.2,0-4-0.8-5.5-2.3
		c-1.5-1.5-2.3-3.3-2.3-5.4v-4.4V67.7z"/>
</g>
<g>
	<path fill="#3BB26F" d="M284.4,60.9c-21.9-19-35.2-26.8-37.4-49.1c-9.5,26.4,11.7,52.4,27.8,65.2c4.2,3.3,8.3,6.6,12.3,9.9
		c3.9-4.7,7.8-9.4,11.5-13.8C294.4,69.6,289.7,65.6,284.4,60.9z"/>
	<path fill="#3BB26F" d="M338.9,107.5c-10.3-9.7-17.9-16.1-26.1-22.8c-3.9,5-7.7,9.7-11.4,14.1c11.8,9.9,21.2,17.9,25,20.9
		c23.2,18.7,16.6,49.3,20.4,34.6S353.1,120.8,338.9,107.5z"/>
	<path fill="#FFB126" d="M252.4,129.9c-16.9,22.6-6,51.5-2.3,59.7c-3.9-9.4-0.2-32.9,10.7-45.4c11.3-12.9,25.1-26.7,40.7-45.4
		c-4.5-3.8-9.4-7.8-14.4-11.9C274.6,101.8,261.7,117.4,252.4,129.9z"/>
	<path fill="#FFB126" d="M250.6,190.6c-0.1-0.1-0.1-0.2-0.1-0.3C251.3,192.1,251.5,192.4,250.6,190.6z"/>
	<path fill="#FFB126" d="M322.9,71.3c22.1-30.6,6.3-62.5,6.3-62.5c5.6,25.5-3.6,31-16.8,47.6c-4,5-8.7,10.7-13.7,16.7
		c5.2,4.4,9.8,8,14.2,11.6C316.1,80.5,319.5,76,322.9,71.3z"/>
	<path fill="#FFB126" d="M250.1,189.6c0.1,0.3,0.2,0.5,0.4,0.8C250.3,190.1,250.2,189.8,250.1,189.6z"/>
	<path fill="#E2A611" d="M298.6,73.1c-3.7,4.5-7.6,9.1-11.5,13.8c5.1,4.1,9.9,8.1,14.4,11.9c3.7-4.4,7.5-9.1,11.4-14.1
		C308.4,81.1,303.9,77.4,298.6,73.1z"/>
	<ellipse fill="#FFB126" cx="281.6" cy="16.6" rx="16" ry="16.6"/>
</g>
<g>
	<path fill="#717171" d="M9,143.2h0.6v0.9c0,0.3-0.1,0.5-0.2,0.8c-0.2,0.3-0.5,0.6-0.9,0.9c-0.8,0.6-1.8,0.9-3,0.9
		c-1.7,0-3-0.7-3.8-2c-0.7-1.1-1.1-2.6-1.1-4.4c0-1.8,0.4-3.3,1.1-4.4c0.9-1.4,2.2-2,3.8-2c1.2,0,2.2,0.3,3,0.9
		c0.4,0.3,0.7,0.6,0.9,0.9c0.1,0.2,0.2,0.5,0.2,0.8v0.9H9v-0.9c0-0.2,0-0.3-0.1-0.5c-0.2-0.3-0.4-0.5-0.8-0.8
		c-0.7-0.5-1.6-0.7-2.6-0.7c-1.8,0-3,0.8-3.7,2.4c-0.4,1-0.7,2.1-0.7,3.5c0,1.3,0.2,2.5,0.7,3.5c0.7,1.6,2,2.4,3.7,2.4
		c1,0,1.9-0.3,2.6-0.8c0.4-0.3,0.6-0.5,0.8-0.8c0.1-0.2,0.1-0.3,0.1-0.5V143.2z"/>
	<path fill="#717171" d="M19.9,142.6h-7.3c0.1,2.4,1.2,3.6,3.3,3.6c0.8,0,1.5-0.2,2-0.5c0.3-0.2,0.5-0.3,0.6-0.5
		c0.1-0.1,0.1-0.2,0.1-0.3v-0.7h0.6v0.7c0,0.2-0.1,0.4-0.2,0.6c-0.1,0.2-0.4,0.4-0.7,0.6c-0.6,0.4-1.4,0.6-2.3,0.6
		c-1.3,0-2.2-0.4-2.9-1.1c-0.7-0.8-1-1.9-1-3.3c0-1.1,0.2-2,0.6-2.7c0.7-1.1,1.7-1.7,3.3-1.7s2.6,0.6,3.3,1.7
		c0.4,0.7,0.6,1.6,0.6,2.7V142.6z M16,138.4c-1.2,0-2.1,0.4-2.7,1.3c-0.4,0.6-0.6,1.4-0.7,2.3h6.7c0-0.9-0.3-1.7-0.7-2.3
		C18.1,138.8,17.2,138.4,16,138.4z"/>
	<path fill="#717171" d="M26.6,137.9c1.3,0,2.3,0.5,2.8,1.5c0.4,0.6,0.5,1.4,0.5,2.3v4.9h-0.5v-4.9c0-0.8-0.2-1.5-0.5-2
		c-0.5-0.8-1.3-1.3-2.4-1.3c-1.1,0-1.9,0.4-2.4,1.3c-0.3,0.6-0.4,1.2-0.4,2v3.9c0,0.3-0.1,0.5-0.3,0.7c-0.2,0.2-0.4,0.3-0.6,0.3
		h-0.7v-0.6h0.7c0.1,0,0.2,0,0.2-0.1c0.1-0.1,0.1-0.2,0.1-0.3v-6.5c0-0.1,0-0.3-0.1-0.4c-0.1-0.1-0.1-0.1-0.2-0.1h-0.7V138h0.7
		c0.2,0,0.5,0.1,0.6,0.3c0.2,0.2,0.3,0.5,0.3,0.7v0.3C24.4,138.4,25.3,137.9,26.6,137.9z"/>
	<path fill="#717171" d="M32.9,138.6v5.4c0,1.5,0.6,2.2,1.9,2.2h0.1v0.6h-0.1c-0.8,0-1.4-0.2-1.8-0.7s-0.6-1.1-0.6-2v-9h0.6v3H35
		v0.6H32.9z"/>
	<path fill="#717171" d="M41.9,137.9v0.5h-0.1c-1.1,0-1.9,0.4-2.4,1.3c-0.3,0.5-0.5,1.2-0.5,2v4.9h-0.6v-7.5c0-0.1,0-0.3-0.1-0.4
		c-0.1-0.1-0.1-0.1-0.2-0.1h-0.7V138h0.7c0.2,0,0.5,0.1,0.6,0.3c0.2,0.2,0.3,0.5,0.3,0.7v0.3c0.6-1,1.5-1.5,2.8-1.5H41.9z"/>
	<path fill="#717171" d="M52.2,142.6h-7.3c0.1,2.4,1.2,3.6,3.3,3.6c0.8,0,1.5-0.2,2-0.5c0.3-0.2,0.5-0.3,0.6-0.5
		c0.1-0.1,0.1-0.2,0.1-0.3v-0.7h0.6v0.7c0,0.2-0.1,0.4-0.2,0.6c-0.1,0.2-0.4,0.4-0.7,0.6c-0.6,0.4-1.4,0.6-2.3,0.6
		c-1.3,0-2.2-0.4-2.9-1.1c-0.7-0.8-1-1.9-1-3.3c0-1.1,0.2-2,0.6-2.7c0.7-1.1,1.7-1.7,3.3-1.7s2.6,0.6,3.3,1.7
		c0.4,0.7,0.6,1.6,0.6,2.7V142.6z M48.3,138.4c-1.2,0-2.1,0.4-2.7,1.3c-0.4,0.6-0.6,1.4-0.7,2.3h6.7c0-0.9-0.3-1.7-0.7-2.3
		C50.4,138.8,49.5,138.4,48.3,138.4z"/>
	<path fill="#717171" d="M64.4,137.9c1.5,0,2.6,0.6,3.3,1.7c0.4,0.7,0.6,1.6,0.6,2.7c0,1.5-0.3,2.6-1,3.3c-0.7,0.8-1.6,1.1-2.9,1.1
		s-2.2-0.4-2.9-1.1c-0.7-0.8-1-1.9-1-3.3c0-1.1,0.2-2,0.6-2.7C61.8,138.5,62.9,137.9,64.4,137.9z M64.4,146.2c2.2,0,3.3-1.3,3.3-3.9
		c0-0.9-0.2-1.7-0.5-2.4c-0.6-1-1.5-1.5-2.8-1.5s-2.3,0.5-2.8,1.5c-0.4,0.7-0.5,1.4-0.5,2.4C61,144.9,62.2,146.2,64.4,146.2z"/>
	<path fill="#717171" d="M74,134.4c-0.7,0-1.2,0.3-1.5,1c-0.2,0.3-0.3,0.7-0.3,1.1v3.3h1.9v0.6h-1.9v5.3c0,0.3-0.1,0.5-0.3,0.7
		c-0.2,0.2-0.4,0.3-0.6,0.3h-0.7v-0.6h0.7c0.1,0,0.2,0,0.2-0.1c0.1-0.1,0.1-0.2,0.1-0.3v-9.1c0-0.4,0.1-0.9,0.4-1.3
		c0.4-0.9,1.1-1.3,2-1.3h0.1v0.6H74z"/>
	<path fill="#717171" d="M90.5,135.6v-0.7c0-0.1,0-0.2-0.1-0.2s-0.2-0.1-0.3-0.1h-6v5.2h5.7v0.6H84v5.8h6c0.1,0,0.2,0,0.3-0.1
		c0.1-0.1,0.1-0.1,0.1-0.2V145H91v0.7c0,0.2-0.1,0.4-0.3,0.6s-0.5,0.3-0.7,0.3h-7.6v-0.6h1.1v-11.5h-1.1V134H90
		c0.3,0,0.5,0.1,0.7,0.2c0.2,0.2,0.3,0.4,0.3,0.6v0.7H90.5z"/>
	<path fill="#717171" d="M101.1,146.1v0.6h-0.9c-0.3,0-0.6-0.1-0.8-0.4l-2.2-3.5l-2.2,3.5c-0.2,0.3-0.4,0.4-0.8,0.4h-1v-0.6h1
		c0.1,0,0.2-0.1,0.3-0.2l2.2-3.6c0,0,0,0,0,0c0,0,0,0,0-0.1l-2.1-3.4c-0.1-0.1-0.2-0.2-0.3-0.2h-1V138h1c0.3,0,0.6,0.1,0.8,0.4
		l2,3.3l2-3.3c0.2-0.3,0.4-0.4,0.8-0.4h1v0.6h-1c-0.1,0-0.2,0.1-0.3,0.2l-2,3.4c0,0,0,0,0,0c0,0,0,0,0,0.1l2.2,3.6
		c0.1,0.1,0.2,0.2,0.3,0.2H101.1z"/>
	<path fill="#717171" d="M109.9,143.9h0.5v0.9c0,0.3-0.1,0.5-0.2,0.8c-0.1,0.2-0.4,0.4-0.7,0.6c-0.6,0.4-1.4,0.6-2.3,0.6
		c-1.3,0-2.3-0.5-3-1.4c-0.6-0.8-0.9-1.8-0.9-3c0-1.2,0.3-2.2,0.9-3c0.7-0.9,1.7-1.4,3-1.4c0.9,0,1.7,0.2,2.3,0.6
		c0.3,0.2,0.6,0.4,0.7,0.6c0.1,0.2,0.2,0.5,0.2,0.8v0.9h-0.5v-0.9c0-0.2,0-0.3-0.1-0.5c-0.1-0.2-0.3-0.3-0.6-0.5
		c-0.5-0.3-1.2-0.5-2-0.5c-1.3,0-2.3,0.5-2.8,1.6c-0.3,0.7-0.5,1.4-0.5,2.3c0,0.9,0.2,1.6,0.5,2.3c0.6,1.1,1.5,1.6,2.8,1.6
		c0.8,0,1.4-0.2,2-0.5c0.3-0.2,0.5-0.3,0.6-0.5c0.1-0.1,0.1-0.3,0.1-0.4V143.9z"/>
	<path fill="#717171" d="M120.7,142.6h-7.3c0.1,2.4,1.2,3.6,3.3,3.6c0.8,0,1.5-0.2,2-0.5c0.3-0.2,0.5-0.3,0.6-0.5
		c0.1-0.1,0.1-0.2,0.1-0.3v-0.7h0.6v0.7c0,0.2-0.1,0.4-0.2,0.6c-0.1,0.2-0.4,0.4-0.7,0.6c-0.6,0.4-1.4,0.6-2.3,0.6
		c-1.3,0-2.2-0.4-2.9-1.1c-0.7-0.8-1-1.9-1-3.3c0-1.1,0.2-2,0.6-2.7c0.7-1.1,1.7-1.7,3.3-1.7s2.6,0.6,3.3,1.7
		c0.4,0.7,0.6,1.6,0.6,2.7V142.6z M116.8,138.4c-1.2,0-2.1,0.4-2.7,1.3c-0.4,0.6-0.6,1.4-0.7,2.3h6.7c0-0.9-0.3-1.7-0.7-2.3
		C118.9,138.8,118,138.4,116.8,138.4z"/>
	<path fill="#717171" d="M124,135v11.6h-0.5V135H124z"/>
	<path fill="#717171" d="M127.6,135v11.6H127V135H127.6z"/>
	<path fill="#717171" d="M138.2,142.6h-7.3c0.1,2.4,1.2,3.6,3.3,3.6c0.8,0,1.5-0.2,2-0.5c0.3-0.2,0.5-0.3,0.6-0.5
		c0.1-0.1,0.1-0.2,0.1-0.3v-0.7h0.6v0.7c0,0.2-0.1,0.4-0.2,0.6c-0.1,0.2-0.4,0.4-0.7,0.6c-0.6,0.4-1.4,0.6-2.3,0.6
		c-1.3,0-2.2-0.4-2.9-1.1c-0.7-0.8-1-1.9-1-3.3c0-1.1,0.2-2,0.6-2.7c0.7-1.1,1.7-1.7,3.3-1.7s2.6,0.6,3.3,1.7
		c0.4,0.7,0.6,1.6,0.6,2.7V142.6z M134.3,138.4c-1.2,0-2.1,0.4-2.7,1.3c-0.4,0.6-0.6,1.4-0.7,2.3h6.7c0-0.9-0.3-1.7-0.7-2.3
		C136.4,138.8,135.5,138.4,134.3,138.4z"/>
	<path fill="#717171" d="M144.9,137.9c1.3,0,2.3,0.5,2.8,1.5c0.4,0.6,0.5,1.4,0.5,2.3v4.9h-0.5v-4.9c0-0.8-0.2-1.5-0.5-2
		c-0.5-0.8-1.3-1.3-2.4-1.3c-1.1,0-1.9,0.4-2.4,1.3c-0.3,0.6-0.4,1.2-0.4,2v3.9c0,0.3-0.1,0.5-0.3,0.7c-0.2,0.2-0.4,0.3-0.6,0.3
		h-0.7v-0.6h0.7c0.1,0,0.2,0,0.2-0.1c0.1-0.1,0.1-0.2,0.1-0.3v-6.5c0-0.1,0-0.3-0.1-0.4c-0.1-0.1-0.1-0.1-0.2-0.1h-0.7V138h0.7
		c0.2,0,0.5,0.1,0.6,0.3c0.2,0.2,0.3,0.5,0.3,0.7v0.3C142.7,138.4,143.6,137.9,144.9,137.9z"/>
	<path fill="#717171" d="M157.3,143.9h0.5v0.9c0,0.3-0.1,0.5-0.2,0.8c-0.1,0.2-0.4,0.4-0.7,0.6c-0.6,0.4-1.4,0.6-2.3,0.6
		c-1.3,0-2.3-0.5-3-1.4c-0.6-0.8-0.9-1.8-0.9-3c0-1.2,0.3-2.2,0.9-3c0.7-0.9,1.7-1.4,3-1.4c0.9,0,1.7,0.2,2.3,0.6
		c0.3,0.2,0.6,0.4,0.7,0.6c0.1,0.2,0.2,0.5,0.2,0.8v0.9h-0.5v-0.9c0-0.2,0-0.3-0.1-0.5c-0.1-0.2-0.3-0.3-0.6-0.5
		c-0.5-0.3-1.2-0.5-2-0.5c-1.3,0-2.3,0.5-2.8,1.6c-0.3,0.7-0.5,1.4-0.5,2.3c0,0.9,0.2,1.6,0.5,2.3c0.6,1.1,1.5,1.6,2.8,1.6
		c0.8,0,1.4-0.2,2-0.5c0.3-0.2,0.5-0.3,0.6-0.5c0.1-0.1,0.1-0.3,0.1-0.4V143.9z"/>
	<path fill="#717171" d="M168.1,142.6h-7.3c0.1,2.4,1.2,3.6,3.3,3.6c0.8,0,1.5-0.2,2-0.5c0.3-0.2,0.5-0.3,0.6-0.5
		c0.1-0.1,0.1-0.2,0.1-0.3v-0.7h0.6v0.7c0,0.2-0.1,0.4-0.2,0.6c-0.1,0.2-0.4,0.4-0.7,0.6c-0.6,0.4-1.4,0.6-2.3,0.6
		c-1.3,0-2.2-0.4-2.9-1.1c-0.7-0.8-1-1.9-1-3.3c0-1.1,0.2-2,0.6-2.7c0.7-1.1,1.7-1.7,3.3-1.7s2.6,0.6,3.3,1.7
		c0.4,0.7,0.6,1.6,0.6,2.7V142.6z M164.2,138.4c-1.2,0-2.1,0.4-2.7,1.3c-0.4,0.6-0.6,1.4-0.7,2.3h6.7c0-0.9-0.3-1.7-0.7-2.3
		C166.3,138.8,165.4,138.4,164.2,138.4z"/>
	<path fill="#717171" d="M179.8,134.4c-0.7,0-1.2,0.3-1.5,1c-0.2,0.3-0.3,0.7-0.3,1.1v3.3h1.9v0.6H178v5.3c0,0.3-0.1,0.5-0.3,0.7
		c-0.2,0.2-0.4,0.3-0.6,0.3h-0.7v-0.6h0.7c0.1,0,0.2,0,0.2-0.1c0.1-0.1,0.1-0.2,0.1-0.3v-9.1c0-0.4,0.1-0.9,0.4-1.3
		c0.4-0.9,1.1-1.3,2-1.3h0.1v0.6H179.8z"/>
	<path fill="#717171" d="M186.1,137.9c1.5,0,2.6,0.6,3.3,1.7c0.4,0.7,0.6,1.6,0.6,2.7c0,1.5-0.3,2.6-1,3.3c-0.7,0.8-1.6,1.1-2.9,1.1
		s-2.2-0.4-2.9-1.1c-0.7-0.8-1-1.9-1-3.3c0-1.1,0.2-2,0.6-2.7C183.5,138.5,184.6,137.9,186.1,137.9z M186.1,146.2
		c2.2,0,3.3-1.3,3.3-3.9c0-0.9-0.2-1.7-0.5-2.4c-0.6-1-1.5-1.5-2.8-1.5s-2.3,0.5-2.8,1.5c-0.4,0.7-0.5,1.4-0.5,2.4
		C182.8,144.9,183.9,146.2,186.1,146.2z"/>
	<path fill="#717171" d="M196.9,137.9v0.5h-0.1c-1.1,0-1.9,0.4-2.4,1.3c-0.3,0.5-0.5,1.2-0.5,2v4.9h-0.6v-7.5c0-0.1,0-0.3-0.1-0.4
		c-0.1-0.1-0.1-0.1-0.2-0.1h-0.7V138h0.7c0.2,0,0.5,0.1,0.6,0.3c0.2,0.2,0.3,0.5,0.3,0.7v0.3c0.6-1,1.5-1.5,2.8-1.5H196.9z"/>
	<path fill="#717171" d="M213.7,143.2h0.6v0.9c0,0.3-0.1,0.5-0.2,0.8c-0.2,0.3-0.5,0.6-0.9,0.9c-0.8,0.6-1.8,0.9-3,0.9
		c-1.7,0-3-0.7-3.8-2c-0.7-1.1-1.1-2.6-1.1-4.4c0-1.8,0.4-3.3,1.1-4.4c0.9-1.4,2.2-2,3.8-2c1.2,0,2.2,0.3,3,0.9
		c0.4,0.3,0.7,0.6,0.9,0.9c0.1,0.2,0.2,0.5,0.2,0.8v0.9h-0.6v-0.9c0-0.2,0-0.3-0.1-0.5c-0.2-0.3-0.4-0.5-0.8-0.8
		c-0.7-0.5-1.6-0.7-2.6-0.7c-1.8,0-3,0.8-3.7,2.4c-0.4,1-0.7,2.1-0.7,3.5c0,1.3,0.2,2.5,0.7,3.5c0.7,1.6,2,2.4,3.7,2.4
		c1,0,1.9-0.3,2.6-0.8c0.4-0.3,0.6-0.5,0.8-0.8c0.1-0.2,0.1-0.3,0.1-0.5V143.2z"/>
	<path fill="#717171" d="M220.5,137.9c1.5,0,2.6,0.6,3.3,1.7c0.4,0.7,0.6,1.6,0.6,2.7c0,1.5-0.3,2.6-1,3.3c-0.7,0.8-1.6,1.1-2.9,1.1
		s-2.2-0.4-2.9-1.1c-0.7-0.8-1-1.9-1-3.3c0-1.1,0.2-2,0.6-2.7C217.9,138.5,219,137.9,220.5,137.9z M220.5,146.2
		c2.2,0,3.3-1.3,3.3-3.9c0-0.9-0.2-1.7-0.5-2.4c-0.6-1-1.5-1.5-2.8-1.5s-2.3,0.5-2.8,1.5c-0.4,0.7-0.5,1.4-0.5,2.4
		C217.2,144.9,218.3,146.2,220.5,146.2z"/>
	<path fill="#717171" d="M236,137.9c1.1,0,1.9,0.4,2.4,1.3c0.3,0.5,0.5,1.2,0.5,2v5.4h-0.5v-5.4c0-0.7-0.1-1.2-0.4-1.7
		c-0.4-0.7-1-1.1-2-1.1c-0.9,0-1.6,0.4-2,1.1c-0.3,0.5-0.4,1-0.4,1.7v5.4h-0.5v-5.4c0-0.7-0.1-1.2-0.4-1.7c-0.4-0.7-1-1.1-2-1.1
		c-0.9,0-1.6,0.4-2,1.1c-0.3,0.5-0.4,1-0.4,1.7v4.4c0,0.3-0.1,0.5-0.3,0.7c-0.2,0.2-0.4,0.3-0.6,0.3h-0.7v-0.6h0.7
		c0.1,0,0.2,0,0.2-0.1c0.1-0.1,0.1-0.2,0.1-0.3v-6.5c0-0.1,0-0.3-0.1-0.4c-0.1-0.1-0.1-0.1-0.2-0.1h-0.7V138h0.7
		c0.2,0,0.4,0.1,0.6,0.3c0.2,0.2,0.3,0.4,0.3,0.7c0.5-0.8,1.3-1.2,2.4-1.2c1.3,0,2.2,0.6,2.6,1.7C233.8,138.4,234.7,137.9,236,137.9
		z"/>
	<path fill="#717171" d="M246.3,137.9c1.5,0,2.6,0.6,3.3,1.7c0.4,0.7,0.6,1.6,0.6,2.7c0,1.5-0.3,2.6-1,3.3c-0.7,0.8-1.6,1.1-2.9,1.1
		c-1.6,0-2.7-0.6-3.4-1.8v4.7c0,0.3-0.1,0.5-0.3,0.7c-0.2,0.2-0.4,0.3-0.6,0.3h-0.7v-0.6h0.7c0.1,0,0.2,0,0.2-0.1
		c0.1-0.1,0.1-0.2,0.1-0.4v-10.5c0-0.1,0-0.2-0.1-0.3c-0.1-0.1-0.1-0.1-0.2-0.1h-0.7V138h0.7c0.2,0,0.5,0.1,0.6,0.3
		c0.2,0.2,0.3,0.5,0.3,0.7v0.7C243.6,138.5,244.7,137.9,246.3,137.9z M246.3,146.2c2.2,0,3.4-1.3,3.4-3.9c0-0.9-0.2-1.7-0.5-2.4
		c-0.6-1-1.5-1.5-2.8-1.5s-2.3,0.5-2.8,1.5c-0.4,0.7-0.5,1.4-0.5,2.4C242.9,144.9,244,146.2,246.3,146.2z"/>
	<path fill="#717171" d="M259.6,138.6c-0.1,0-0.2,0-0.2,0.1c-0.1,0.1-0.1,0.2-0.1,0.3v6.5c0,0.1,0,0.2,0.1,0.3
		c0.1,0.1,0.1,0.1,0.2,0.1h0.7v0.6h-0.7c-0.2,0-0.4-0.1-0.6-0.3c-0.2-0.2-0.3-0.5-0.3-0.7v-0.3c-0.6,1-1.5,1.5-2.8,1.5
		s-2.3-0.5-2.8-1.5c-0.4-0.6-0.5-1.4-0.6-2.3V138h0.5v4.9c0,0.8,0.2,1.5,0.5,2c0.5,0.8,1.3,1.3,2.4,1.3s1.9-0.4,2.4-1.3
		c0.3-0.5,0.5-1.2,0.5-2v-3.8c0-0.3,0.1-0.5,0.3-0.7c0.2-0.2,0.4-0.3,0.6-0.3h0.7v0.6H259.6z"/>
	<path fill="#717171" d="M263.2,138.6v5.4c0,1.5,0.6,2.2,1.9,2.2h0.1v0.6h-0.1c-0.8,0-1.4-0.2-1.8-0.7s-0.6-1.1-0.6-2v-9h0.6v3h2.2
		v0.6H263.2z"/>
	<path fill="#717171" d="M276.2,146.1v0.6h-0.7c-0.2,0-0.4-0.1-0.6-0.3c-0.2-0.2-0.3-0.5-0.3-0.7v0c-0.6,0.8-1.7,1.2-3.2,1.2
		c-2.4,0-3.6-1-3.6-3c0-1,0.3-1.8,0.9-2.3s1.5-0.7,2.7-0.7c1.6,0,2.6,0.3,3.2,1V141c0-0.6-0.2-1.1-0.5-1.6c-0.5-0.7-1.4-1-2.5-1
		c-0.7,0-1.4,0.2-2,0.5c-0.2,0.1-0.2,0.2-0.2,0.4v0.8h-0.6v-0.8c0-0.4,0.2-0.7,0.5-0.9c0.7-0.4,1.4-0.6,2.2-0.6c1.4,0,2.4,0.4,3,1.2
		c0.4,0.5,0.6,1.1,0.6,1.9v4.6c0,0.1,0,0.2,0.1,0.3s0.1,0.1,0.2,0.1H276.2z M271.4,146.2c2.1,0,3.2-0.8,3.2-2.5
		c0-0.9-0.2-1.5-0.6-1.8c-0.5-0.4-1.3-0.6-2.6-0.6c-1.2,0-2.1,0.3-2.5,0.8c-0.3,0.4-0.5,0.9-0.5,1.7c0,0.7,0.2,1.3,0.5,1.7
		C269.3,145.9,270.2,146.2,271.4,146.2z"/>
	<path fill="#717171" d="M279.1,138.6v5.4c0,1.5,0.6,2.2,1.9,2.2h0.1v0.6h-0.1c-0.8,0-1.4-0.2-1.8-0.7s-0.6-1.1-0.6-2v-9h0.6v3h2.2
		v0.6H279.1z"/>
	<path fill="#717171" d="M284.5,138v8.6h-0.6V138H284.5z"/>
	<path fill="#717171" d="M291.1,137.9c1.5,0,2.6,0.6,3.3,1.7c0.4,0.7,0.6,1.6,0.6,2.7c0,1.5-0.3,2.6-1,3.3c-0.7,0.8-1.6,1.1-2.9,1.1
		s-2.2-0.4-2.9-1.1c-0.7-0.8-1-1.9-1-3.3c0-1.1,0.2-2,0.6-2.7C288.5,138.5,289.6,137.9,291.1,137.9z M291.1,146.2
		c2.2,0,3.3-1.3,3.3-3.9c0-0.9-0.2-1.7-0.5-2.4c-0.6-1-1.5-1.5-2.8-1.5s-2.3,0.5-2.8,1.5c-0.4,0.7-0.5,1.4-0.5,2.4
		C287.8,144.9,288.9,146.2,291.1,146.2z"/>
	<path fill="#717171" d="M301.8,137.9c1.3,0,2.3,0.5,2.8,1.5c0.4,0.6,0.5,1.4,0.5,2.3v4.9h-0.5v-4.9c0-0.8-0.2-1.5-0.5-2
		c-0.5-0.8-1.3-1.3-2.4-1.3c-1.1,0-1.9,0.4-2.4,1.3c-0.3,0.6-0.4,1.2-0.4,2v3.9c0,0.3-0.1,0.5-0.3,0.7c-0.2,0.2-0.4,0.3-0.6,0.3
		h-0.7v-0.6h0.7c0.1,0,0.2,0,0.2-0.1c0.1-0.1,0.1-0.2,0.1-0.3v-6.5c0-0.1,0-0.3-0.1-0.4c-0.1-0.1-0.1-0.1-0.2-0.1h-0.7V138h0.7
		c0.2,0,0.5,0.1,0.6,0.3c0.2,0.2,0.3,0.5,0.3,0.7v0.3C299.6,138.4,300.5,137.9,301.8,137.9z"/>
	<path fill="#717171" d="M315.9,146.1v0.6h-0.7c-0.2,0-0.4-0.1-0.6-0.3c-0.2-0.2-0.3-0.5-0.3-0.7v0c-0.6,0.8-1.7,1.2-3.2,1.2
		c-2.4,0-3.6-1-3.6-3c0-1,0.3-1.8,0.9-2.3s1.5-0.7,2.7-0.7c1.6,0,2.6,0.3,3.2,1V141c0-0.6-0.2-1.1-0.5-1.6c-0.5-0.7-1.4-1-2.5-1
		c-0.7,0-1.4,0.2-2,0.5c-0.2,0.1-0.2,0.2-0.2,0.4v0.8h-0.6v-0.8c0-0.4,0.2-0.7,0.5-0.9c0.7-0.4,1.4-0.6,2.2-0.6c1.4,0,2.4,0.4,3,1.2
		c0.4,0.5,0.6,1.1,0.6,1.9v4.6c0,0.1,0,0.2,0.1,0.3s0.1,0.1,0.2,0.1H315.9z M311.2,146.2c2.1,0,3.2-0.8,3.2-2.5
		c0-0.9-0.2-1.5-0.6-1.8c-0.5-0.4-1.3-0.6-2.6-0.6c-1.2,0-2.1,0.3-2.5,0.8c-0.3,0.4-0.5,0.9-0.5,1.7c0,0.7,0.2,1.3,0.5,1.7
		C309.1,145.9,309.9,146.2,311.2,146.2z"/>
	<path fill="#717171" d="M319.2,135v11.6h-0.5V135H319.2z"/>
	<path fill="#717171" d="M334.7,139.9c0.7,0.3,1.2,0.7,1.6,1.4c0.4,0.6,0.6,1.2,0.6,1.9c0,0.9-0.3,1.7-0.9,2.4
		c-0.6,0.7-1.4,1.1-2.4,1.1h-5.8v-0.6h1.1v-11.5h-1.1V134h5.6c0.9,0,1.6,0.3,2.1,1c0.5,0.6,0.7,1.3,0.7,2.1c0,0.6-0.1,1.1-0.4,1.6
		C335.6,139.3,335.2,139.6,334.7,139.9z M333.3,139.7c0.7,0,1.3-0.3,1.8-0.8c0.4-0.5,0.6-1.1,0.6-1.8c0-0.7-0.2-1.3-0.6-1.8
		c-0.4-0.6-1-0.8-1.7-0.8h-4v5.2H333.3z M333.7,146.1c0.8,0,1.4-0.3,2-0.9c0.5-0.6,0.7-1.2,0.7-2c0-0.7-0.2-1.4-0.7-2
		c-0.5-0.6-1.2-0.9-2-0.9h-4.1v5.8H333.7z"/>
	<path fill="#717171" d="M340.1,138v8.6h-0.6V138H340.1z"/>
	<path fill="#717171" d="M346.7,137.9c1.5,0,2.6,0.6,3.3,1.7c0.4,0.7,0.6,1.6,0.6,2.7c0,1.5-0.3,2.6-1,3.3c-0.7,0.8-1.6,1.1-2.9,1.1
		s-2.2-0.4-2.9-1.1c-0.7-0.8-1-1.9-1-3.3c0-1.1,0.2-2,0.6-2.7C344.1,138.5,345.2,137.9,346.7,137.9z M346.7,146.2
		c2.2,0,3.3-1.3,3.3-3.9c0-0.9-0.2-1.7-0.5-2.4c-0.6-1-1.5-1.5-2.8-1.5s-2.3,0.5-2.8,1.5c-0.4,0.7-0.5,1.4-0.5,2.4
		C343.4,144.9,344.5,146.2,346.7,146.2z"/>
	<path fill="#717171" d="M362.2,137.9c1.1,0,1.9,0.4,2.4,1.3c0.3,0.5,0.5,1.2,0.5,2v5.4h-0.5v-5.4c0-0.7-0.1-1.2-0.4-1.7
		c-0.4-0.7-1-1.1-2-1.1c-0.9,0-1.6,0.4-2,1.1c-0.3,0.5-0.4,1-0.4,1.7v5.4h-0.5v-5.4c0-0.7-0.1-1.2-0.4-1.7c-0.4-0.7-1-1.1-2-1.1
		c-0.9,0-1.6,0.4-2,1.1c-0.3,0.5-0.4,1-0.4,1.7v4.4c0,0.3-0.1,0.5-0.3,0.7c-0.2,0.2-0.4,0.3-0.6,0.3H353v-0.6h0.7
		c0.1,0,0.2,0,0.2-0.1c0.1-0.1,0.1-0.2,0.1-0.3v-6.5c0-0.1,0-0.3-0.1-0.4c-0.1-0.1-0.1-0.1-0.2-0.1H353V138h0.7
		c0.2,0,0.4,0.1,0.6,0.3c0.2,0.2,0.3,0.4,0.3,0.7c0.5-0.8,1.3-1.2,2.4-1.2c1.3,0,2.2,0.6,2.6,1.7C360,138.4,360.9,137.9,362.2,137.9
		z"/>
	<path fill="#717171" d="M371.4,137.9c1.5,0,2.6,0.6,3.3,1.7c0.4,0.7,0.6,1.6,0.6,2.7c0,1.5-0.3,2.6-1,3.3c-0.7,0.8-1.6,1.1-2.9,1.1
		s-2.2-0.4-2.9-1.1c-0.7-0.8-1-1.9-1-3.3c0-1.1,0.2-2,0.6-2.7C368.8,138.5,369.9,137.9,371.4,137.9z M371.4,146.2
		c2.2,0,3.3-1.3,3.3-3.9c0-0.9-0.2-1.7-0.5-2.4c-0.6-1-1.5-1.5-2.8-1.5s-2.3,0.5-2.8,1.5c-0.4,0.7-0.5,1.4-0.5,2.4
		C368.1,144.9,369.2,146.2,371.4,146.2z"/>
	<path fill="#717171" d="M378.6,135v11.6H378V135H378.6z"/>
	<path fill="#717171" d="M389.2,142.6h-7.3c0.1,2.4,1.2,3.6,3.3,3.6c0.8,0,1.5-0.2,2-0.5c0.3-0.2,0.5-0.3,0.6-0.5
		c0.1-0.1,0.1-0.2,0.1-0.3v-0.7h0.6v0.7c0,0.2-0.1,0.4-0.2,0.6c-0.1,0.2-0.4,0.4-0.7,0.6c-0.6,0.4-1.4,0.6-2.3,0.6
		c-1.3,0-2.2-0.4-2.9-1.1c-0.7-0.8-1-1.9-1-3.3c0-1.1,0.2-2,0.6-2.7c0.7-1.1,1.7-1.7,3.3-1.7s2.6,0.6,3.3,1.7
		c0.4,0.7,0.6,1.6,0.6,2.7V142.6z M385.3,138.4c-1.2,0-2.1,0.4-2.7,1.3c-0.4,0.6-0.6,1.4-0.7,2.3h6.7c0-0.9-0.3-1.7-0.7-2.3
		C387.4,138.8,386.5,138.4,385.3,138.4z"/>
	<path fill="#717171" d="M398.2,143.9h0.5v0.9c0,0.3-0.1,0.5-0.2,0.8c-0.1,0.2-0.4,0.4-0.7,0.6c-0.6,0.4-1.4,0.6-2.3,0.6
		c-1.3,0-2.3-0.5-3-1.4c-0.6-0.8-0.9-1.8-0.9-3c0-1.2,0.3-2.2,0.9-3c0.7-0.9,1.7-1.4,3-1.4c0.9,0,1.7,0.2,2.3,0.6
		c0.3,0.2,0.6,0.4,0.7,0.6c0.1,0.2,0.2,0.5,0.2,0.8v0.9h-0.5v-0.9c0-0.2,0-0.3-0.1-0.5c-0.1-0.2-0.3-0.3-0.6-0.5
		c-0.5-0.3-1.2-0.5-2-0.5c-1.3,0-2.3,0.5-2.8,1.6c-0.3,0.7-0.5,1.4-0.5,2.3c0,0.9,0.2,1.6,0.5,2.3c0.6,1.1,1.5,1.6,2.8,1.6
		c0.8,0,1.4-0.2,2-0.5c0.3-0.2,0.5-0.3,0.6-0.5c0.1-0.1,0.1-0.3,0.1-0.4V143.9z"/>
	<path fill="#717171" d="M408.1,138.6c-0.1,0-0.2,0-0.2,0.1c-0.1,0.1-0.1,0.2-0.1,0.3v6.5c0,0.1,0,0.2,0.1,0.3
		c0.1,0.1,0.1,0.1,0.2,0.1h0.7v0.6h-0.7c-0.2,0-0.4-0.1-0.6-0.3c-0.2-0.2-0.3-0.5-0.3-0.7v-0.3c-0.6,1-1.5,1.5-2.8,1.5
		s-2.3-0.5-2.8-1.5c-0.4-0.6-0.5-1.4-0.6-2.3V138h0.5v4.9c0,0.8,0.2,1.5,0.5,2c0.5,0.8,1.3,1.3,2.4,1.3s1.9-0.4,2.4-1.3
		c0.3-0.5,0.5-1.2,0.5-2v-3.8c0-0.3,0.1-0.5,0.3-0.7c0.2-0.2,0.4-0.3,0.6-0.3h0.7v0.6H408.1z"/>
	<path fill="#717171" d="M412.1,135v11.6h-0.5V135H412.1z"/>
	<path fill="#717171" d="M423.2,146.1v0.6h-0.7c-0.2,0-0.4-0.1-0.6-0.3c-0.2-0.2-0.3-0.5-0.3-0.7v0c-0.6,0.8-1.7,1.2-3.2,1.2
		c-2.4,0-3.6-1-3.6-3c0-1,0.3-1.8,0.9-2.3s1.5-0.7,2.7-0.7c1.6,0,2.6,0.3,3.2,1V141c0-0.6-0.2-1.1-0.5-1.6c-0.5-0.7-1.4-1-2.5-1
		c-0.7,0-1.4,0.2-2,0.5c-0.2,0.1-0.2,0.2-0.2,0.4v0.8h-0.6v-0.8c0-0.4,0.2-0.7,0.5-0.9c0.7-0.4,1.4-0.6,2.2-0.6c1.4,0,2.4,0.4,3,1.2
		c0.4,0.5,0.6,1.1,0.6,1.9v4.6c0,0.1,0,0.2,0.1,0.3s0.1,0.1,0.2,0.1H423.2z M418.5,146.2c2.1,0,3.2-0.8,3.2-2.5
		c0-0.9-0.2-1.5-0.6-1.8c-0.5-0.4-1.3-0.6-2.6-0.6c-1.2,0-2.1,0.3-2.5,0.8c-0.3,0.4-0.5,0.9-0.5,1.7c0,0.7,0.2,1.3,0.5,1.7
		C416.4,145.9,417.2,146.2,418.5,146.2z"/>
	<path fill="#717171" d="M430.1,137.9v0.5H430c-1.1,0-1.9,0.4-2.4,1.3c-0.3,0.5-0.5,1.2-0.5,2v4.9h-0.6v-7.5c0-0.1,0-0.3-0.1-0.4
		c-0.1-0.1-0.1-0.1-0.2-0.1h-0.7V138h0.7c0.2,0,0.5,0.1,0.6,0.3c0.2,0.2,0.3,0.5,0.3,0.7v0.3c0.6-1,1.5-1.5,2.8-1.5H430.1z"/>
	<path fill="#717171" d="M448.5,146.1v0.6h-0.9c-0.4,0-0.6-0.2-0.8-0.5l-3.2-5.2H440v4.7c0,0.3-0.1,0.5-0.3,0.7
		c-0.2,0.2-0.4,0.3-0.6,0.3h-0.7v-0.6h0.7c0.1,0,0.2,0,0.2-0.1c0.1-0.1,0.1-0.2,0.1-0.3v-11h-1.1V134h5.8c1,0,1.7,0.4,2.4,1.1
		c0.6,0.7,0.9,1.5,0.9,2.4c0,0.9-0.3,1.7-0.9,2.4c-0.6,0.7-1.4,1.1-2.4,1.1h0l3,4.9c0.1,0.1,0.2,0.2,0.4,0.2H448.5z M440,140.4h4.2
		c0.8,0,1.4-0.3,2-0.9c0.5-0.6,0.7-1.2,0.7-2c0-0.8-0.2-1.4-0.7-2c-0.5-0.6-1.2-0.9-2-0.9H440V140.4z"/>
	<path fill="#717171" d="M458.6,142.6h-7.3c0.1,2.4,1.2,3.6,3.3,3.6c0.8,0,1.5-0.2,2-0.5c0.3-0.2,0.5-0.3,0.6-0.5
		c0.1-0.1,0.1-0.2,0.1-0.3v-0.7h0.6v0.7c0,0.2-0.1,0.4-0.2,0.6c-0.1,0.2-0.4,0.4-0.7,0.6c-0.6,0.4-1.4,0.6-2.3,0.6
		c-1.3,0-2.2-0.4-2.9-1.1c-0.7-0.8-1-1.9-1-3.3c0-1.1,0.2-2,0.6-2.7c0.7-1.1,1.7-1.7,3.3-1.7s2.6,0.6,3.3,1.7
		c0.4,0.7,0.6,1.6,0.6,2.7V142.6z M454.7,138.4c-1.2,0-2.1,0.4-2.7,1.3c-0.4,0.6-0.6,1.4-0.7,2.3h6.7c0-0.9-0.3-1.7-0.7-2.3
		C456.8,138.8,455.9,138.4,454.7,138.4z"/>
	<path fill="#717171" d="M463.8,141.9c1,0.3,1.6,0.6,2,0.9c0.6,0.4,0.9,0.9,0.9,1.6c0,0.8-0.3,1.3-0.8,1.7c-0.5,0.4-1.3,0.6-2.2,0.6
		c-1,0-1.8-0.3-2.5-0.9c-0.1-0.1-0.2-0.3-0.2-0.5v-0.7h0.6v0.7c0,0,0,0.1,0,0.1c0.5,0.5,1.2,0.7,2.1,0.7c0.6,0,1.2-0.1,1.6-0.3
		c0.6-0.3,0.9-0.8,0.9-1.5c0-0.4-0.2-0.8-0.6-1.1c-0.4-0.3-1-0.5-1.9-0.8c-1-0.3-1.6-0.6-2-0.9c-0.5-0.4-0.7-0.9-0.7-1.5
		c0-0.7,0.2-1.2,0.7-1.6c0.5-0.4,1.2-0.6,2-0.6c0.8,0,1.5,0.3,2.1,0.8c0.1,0.1,0.2,0.3,0.2,0.5v0.7h-0.6v-0.7c0,0,0,0,0-0.1
		c-0.5-0.4-1.1-0.7-1.7-0.7c-0.6,0-1,0.1-1.4,0.3c-0.5,0.3-0.8,0.7-0.8,1.3c0,0.4,0.2,0.8,0.5,1
		C462.3,141.3,462.9,141.6,463.8,141.9z"/>
	<path fill="#717171" d="M477,142.6h-7.3c0.1,2.4,1.2,3.6,3.3,3.6c0.8,0,1.5-0.2,2-0.5c0.3-0.2,0.5-0.3,0.6-0.5
		c0.1-0.1,0.1-0.2,0.1-0.3v-0.7h0.6v0.7c0,0.2-0.1,0.4-0.2,0.6c-0.1,0.2-0.4,0.4-0.7,0.6c-0.6,0.4-1.4,0.6-2.3,0.6
		c-1.3,0-2.2-0.4-2.9-1.1c-0.7-0.8-1-1.9-1-3.3c0-1.1,0.2-2,0.6-2.7c0.7-1.1,1.7-1.7,3.3-1.7s2.6,0.6,3.3,1.7
		c0.4,0.7,0.6,1.6,0.6,2.7V142.6z M473.1,138.4c-1.2,0-2.1,0.4-2.7,1.3c-0.4,0.6-0.6,1.4-0.7,2.3h6.7c0-0.9-0.3-1.7-0.7-2.3
		C475.2,138.8,474.3,138.4,473.1,138.4z"/>
	<path fill="#717171" d="M487.7,146.1v0.6H487c-0.2,0-0.4-0.1-0.6-0.3c-0.2-0.2-0.3-0.5-0.3-0.7v0c-0.6,0.8-1.7,1.2-3.2,1.2
		c-2.4,0-3.6-1-3.6-3c0-1,0.3-1.8,0.9-2.3s1.5-0.7,2.7-0.7c1.6,0,2.6,0.3,3.2,1V141c0-0.6-0.2-1.1-0.5-1.6c-0.5-0.7-1.4-1-2.5-1
		c-0.7,0-1.4,0.2-2,0.5c-0.2,0.1-0.2,0.2-0.2,0.4v0.8h-0.6v-0.8c0-0.4,0.2-0.7,0.5-0.9c0.7-0.4,1.4-0.6,2.2-0.6c1.4,0,2.4,0.4,3,1.2
		c0.4,0.5,0.6,1.1,0.6,1.9v4.6c0,0.1,0,0.2,0.1,0.3s0.1,0.1,0.2,0.1H487.7z M483,146.2c2.1,0,3.2-0.8,3.2-2.5c0-0.9-0.2-1.5-0.6-1.8
		c-0.5-0.4-1.3-0.6-2.6-0.6c-1.2,0-2.1,0.3-2.5,0.8c-0.3,0.4-0.5,0.9-0.5,1.7c0,0.7,0.2,1.3,0.5,1.7
		C480.9,145.9,481.8,146.2,483,146.2z"/>
	<path fill="#717171" d="M494.6,137.9v0.5h-0.1c-1.1,0-1.9,0.4-2.4,1.3c-0.3,0.5-0.5,1.2-0.5,2v4.9h-0.6v-7.5c0-0.1,0-0.3-0.1-0.4
		c-0.1-0.1-0.1-0.1-0.2-0.1h-0.7V138h0.7c0.2,0,0.5,0.1,0.6,0.3c0.2,0.2,0.3,0.5,0.3,0.7v0.3c0.6-1,1.5-1.5,2.8-1.5H494.6z"/>
	<path fill="#717171" d="M503.6,143.9h0.5v0.9c0,0.3-0.1,0.5-0.2,0.8c-0.1,0.2-0.4,0.4-0.7,0.6c-0.6,0.4-1.4,0.6-2.3,0.6
		c-1.3,0-2.3-0.5-3-1.4c-0.6-0.8-0.9-1.8-0.9-3c0-1.2,0.3-2.2,0.9-3c0.7-0.9,1.7-1.4,3-1.4c0.9,0,1.7,0.2,2.3,0.6
		c0.3,0.2,0.6,0.4,0.7,0.6c0.1,0.2,0.2,0.5,0.2,0.8v0.9h-0.5v-0.9c0-0.2,0-0.3-0.1-0.5c-0.1-0.2-0.3-0.3-0.6-0.5
		c-0.5-0.3-1.2-0.5-2-0.5c-1.3,0-2.3,0.5-2.8,1.6c-0.3,0.7-0.5,1.4-0.5,2.3c0,0.9,0.2,1.6,0.5,2.3c0.6,1.1,1.5,1.6,2.8,1.6
		c0.8,0,1.4-0.2,2-0.5c0.3-0.2,0.5-0.3,0.6-0.5c0.1-0.1,0.1-0.3,0.1-0.4V143.9z"/>
	<path fill="#717171" d="M510.9,137.9c1.3,0,2.3,0.5,2.8,1.5c0.4,0.6,0.5,1.4,0.5,2.3v4.9h-0.5v-4.9c0-0.8-0.2-1.5-0.5-2
		c-0.5-0.8-1.3-1.3-2.4-1.3c-1.1,0-1.9,0.4-2.4,1.3c-0.3,0.6-0.4,1.2-0.4,2v3.9c0,0.3-0.1,0.5-0.3,0.7c-0.2,0.2-0.4,0.3-0.6,0.3
		h-0.7v-0.6h0.7c0.1,0,0.2,0,0.2-0.1c0.1-0.1,0.1-0.2,0.1-0.3V135c0-0.1,0-0.3-0.1-0.4c-0.1-0.1-0.1-0.1-0.2-0.1h-0.7V134h0.7
		c0.2,0,0.5,0.1,0.6,0.3c0.2,0.2,0.3,0.5,0.3,0.7v4.3C508.7,138.4,509.6,137.9,510.9,137.9z"/>
</g>
</svg>
