<?xml version="1.0" encoding="utf-8"?>
<!-- Generator: Adobe Illustrator 24.0.1, SVG Export Plug-In . SVG Version: 6.00 Build 0)  -->
<svg version="1.1" id="Layer_1" xmlns="http://www.w3.org/2000/svg" xmlns:xlink="http://www.w3.org/1999/xlink" x="0px" y="0px"
	 viewBox="0 0 439.9 284.4" style="enable-background:new 0 0 439.9 284.4;" xml:space="preserve">
<style type="text/css">
	.st0{fill:#EE7601;}
	.st1{fill:#54504D;}
</style>
<path class="st0" d="M354.3,0h3.2c6.2,0.6,12.1,3.8,15.7,8.9c5.4,7.3,5.4,18-0.1,25.2c-4.9,6.9-14.2,10.2-22.4,8.1
	c-5.2-1.1-9.3-4.7-12.7-8.6c-4.5,2.5-9.1,5-13.7,7.5c0.4,3.7,0.7,7.7-1,11.1c-2.7,6.2-9.7,10.2-16.4,9.3c-3.8-0.3-6.9-2.5-9.9-4.7
	c-3.7,2.2-7.3,4.4-10.9,6.7c0.4,5-0.8,10.5-5.3,13.4c-4.5,3.5-10.7,2.5-15.4-0.2c-3.8,2.5-7.6,5.1-11.3,7.8
	c-0.3,3.3-0.7,7.1-3.6,9.1c-2.9,2.7-7.1,2.1-10.6,1.1c-15.1,11.2-29.6,23.2-43,36.4c8.9,22.2,16.6,45.1,20,68.9
	c1.3,7.5,0.1,15.9-5.2,21.7c-3.3,3.9-9.1,5.7-13.9,3.6c-1.1-0.5-1.9-1.6-1.4-2.8c2.4-2.6,6-4.4,6.8-8.1c1.2-5.7,0.1-11.6-0.7-17.3
	c-3.2-19.1-8.7-37.8-14.9-56.1c-5.5,6-10.8,12.1-16,18.4c3.3,0.1,6.7-0.3,9.9,0.4c3.8,1.1,3.4,7.5-0.6,8c-5.4,0.5-10.8,0.1-16.1,0.2
	c-3.8,5-7.5,10.1-11,15.3c8.1,0,16.1,0,24.2,0c2.1,0,4.6,0.1,5.7,2.2c1.7,2.7-0.6,6.5-3.7,6.3c-10.5,0.2-21.1,0-31.6,0.1
	c-3.1,5.2-6,10.6-8.7,16.1c12.8,0,25.6,0,38.4,0c1.9,0.1,4.2,0,5.4,1.8c2.1,2.6,0,7-3.4,6.7c-14.7,0.2-29.3,0-44,0.1
	c-3.8,10.4-6.6,21.6-5.5,32.8c0.9,9.7,5.1,19.5,12.9,25.6c1.7,1.7,4.8,2.7,4.8,5.4c-0.9,3.8-5.5,4.6-8.7,3.6
	c-9.1-3.2-17.6-9.1-22.9-17.2c-5.3-8-6.8-18-5.9-27.4c1.7-16.8,9-32.4,17.5-46.7c14.7-24.1,33.6-45.5,54.9-63.9
	c-12.8-33.4-28.7-66.1-51.5-94c-3.2-4.3-8-7.5-9.3-12.9c2.3,1,4.5,2.2,6.2,4c27.3,27.1,48.2,60.1,63.9,95.1
	c13.6-11.5,28.3-21.7,43.2-31.5c-0.1-3.8,0.6-8.1,4.2-10.2c3.4-2.5,7.8-1.3,11.2,0.4c3.7-2.2,7.4-4.5,11.1-6.7
	c-0.7-3.2-1.6-6.6-0.4-9.8c1.8-5.4,7.5-9.2,13.2-8.4c3.8,0.2,6.8,2.9,9.4,5.4c3.5-2,7-3.9,10.5-5.8c-1.8-4.4-2.8-9.3-0.9-13.8
	c2.7-7.6,11.8-12.1,19.5-9.6c4.4,1.1,7.4,4.6,10,8.2c4.5-2.4,9-4.7,13.5-6.9c-2.1-5.1-3.2-10.8-1.6-16.2C337.6,7,345.6,0.7,354.3,0z
	"/>
<path class="st1" d="M101.6,75.5c6.5,0,12.9,0,19.4,0c-5.9,27.5-11.9,54.9-17.9,82.4c-1,4.3-1.5,8.6-1.7,13c-6.9,0-13.7,0-20.6,0
	c1.8-4.9,3.6-9.9,4.7-15c4.9-22.6,9.8-45.2,14.6-67.8C101.1,83.9,101.5,79.7,101.6,75.5z"/>
<path class="st1" d="M136.2,78.2c6.2-2.9,13.7,3.1,12.4,9.7c-0.7,6.5-9.3,10-14.3,5.8C128.7,90,129.9,80.5,136.2,78.2z"/>
<path class="st1" d="M12.7,113.8c3.4-4.3,9.1-5.4,14.3-5.4c13,0,26,0,39.1,0c4,0.1,8.5,0.1,11.7,2.9c3.2,3,2.7,7.9,2,11.8
	c-1.5,7.1-3.2,14.2-4.8,21.4c-18.2,0-36.4,0-54.6,0c-1.4,5.9-3,11.9-3.6,17.9c6.4,0.8,12.8,0.5,19.2,0.5c11.6-0.3,23.4,0.8,35-0.9
	c-1.2,2.9-2.4,5.9-3.6,8.8c-17.4,0.1-34.8,0-52.2,0.1c-3.9,0-8.2,0.1-11.7-2.2c-2.2-1.3-2.8-3.9-3.4-6.2v-2.1
	c1.3-9.1,3.9-17.8,5.8-26.8C7.5,126.9,8.2,119.4,12.7,113.8z M26.3,119.2c-1.7,5.7-2.6,11.5-4.1,17.3c12.5,0,25,0,37.5,0
	c1.2-5.8,3-11.5,3.8-17.4c0.5-2.6-2.7-2.5-4.4-2.6c-9.1,0-18.1,0-27.1,0C29.8,116.3,27,116.8,26.3,119.2z"/>
<path class="st1" d="M127.3,108.4c6.1,0,12.2,0,18.3,0c-3.9,17.2-7.8,34.5-11.7,51.7c-0.8,3.5-1.2,7.2-1.5,10.8
	c-6.5,0-12.9,0-19.4,0c4.1-9.5,5.7-19.8,8.2-29.8C123.5,130.2,127.1,119.5,127.3,108.4z"/>
<path class="st1" d="M233.4,108.4c6.1,0,12.2,0,18.3,0c-3.8,16.9-7.6,33.9-11.5,50.8c-0.9,3.8-1.4,7.8-1.7,11.7
	c-6.5,0-12.9,0-19.4,0c1.8-4.5,3.5-9,4.5-13.7c2.7-11.7,5.4-23.3,8.1-35C232.7,117.6,233.3,113,233.4,108.4z"/>
<path class="st1" d="M292.5,108.7c6.5-0.7,13.1-0.2,19.7-0.3c1.2,2.3,2.5,4.6,3.7,6.9c-1.3,1.4-2.5,2.8-3.8,4.3
	c-8-0.9-16-1.4-24-0.7c-2.8,0.3-3.9,3.3-4.4,5.6c-2.6,11.5-5.1,23-7.7,34.4c-1,3.9-1.4,8-1.6,12c-6.4,0-12.9,0-19.3,0
	c1.7-4.4,3.1-9,4.2-13.7c3-12.8,5.8-25.5,8.8-38.3c0.8-3.5,1.2-7,1.4-10.6c5.4,0.1,10.9,0,16.3,0c-0.2,1.9-0.5,3.9-0.8,5.8
	C286.8,111.8,289.1,109.1,292.5,108.7z"/>
<path class="st1" d="M172.6,264c0.8-3.8,3-8,7.2-8.6c6.9-0.6,13.9-0.1,20.9-0.3c-0.4,1.6-0.8,3.3-1.2,4.9c-4.7,0.2-9.6-0.5-14.3,0.5
	c-2.7,5.8-3.5,12.5-5.1,18.8c4.8,0.3,9.6,0.2,14.5,0.2c-0.4,1.6-0.8,3.3-1.2,4.9c-6.8-0.2-13.6,0.3-20.4-0.2c-2.5-0.1-4.1-2.7-3.7-5
	C169.8,273.9,171.5,269,172.6,264z"/>
<path class="st1" d="M208.5,255.6c5.8-1.1,11.7-0.2,17.5-0.5c2.9,0.1,7.1-0.5,8.2,3c0.8,5.1-1.7,10-2.6,14.9c-0.9,4.3-2.5,10-7.5,11
	c-6.7,0.6-13.4,0.2-20,0.3c-2.5,0.2-5.2-1.5-5.2-4.2c0.1-4.8,1.9-9.3,2.9-13.9C202.7,262,204,257,208.5,255.6z M215.2,260.3
	c-1.3,0.8-1.2,2.5-1.7,3.7c-1.3,5.1-2.6,10.1-3.7,15.3c2.7,0.1,5.4,0.4,8.1-0.1c1.4-0.3,1.3-2.1,1.8-3.1c1.4-5.3,2.8-10.6,3.8-15.9
	C220.7,260,217.9,259.7,215.2,260.3z"/>
<path class="st1" d="M233.3,284.3c2.4-9.7,4.9-19.5,7.3-29.2c4.9,0,9.7,0,14.6,0c2,8,3.9,16,6,23.9c2-8,4-15.9,6-23.9
	c1.6,0,3.3,0,4.9,0c-2.4,9.7-4.9,19.4-7.3,29.2c-4.8,0-9.7,0-14.5,0c-2-8.1-4-16.1-6.1-24.2c-2,8.1-4,16.1-6.1,24.2
	C236.6,284.3,235,284.3,233.3,284.3z"/>
<path class="st1" d="M276.3,255.1c4,0,7.9,0,11.9,0c0.9,7.5,1.6,15,2.6,22.5c5.1-7.3,9.7-15,14.5-22.5c1.8,0,3.6,0,5.4,0
	c-6.2,9.7-12.4,19.5-18.6,29.2c-4.2,0-8.3,0-12.5,0C278.5,274.6,277.4,264.8,276.3,255.1z"/>
<path class="st1" d="M315,255.1c8.4,0,16.9,0,25.3,0c-0.4,1.6-0.8,3.2-1.2,4.9c-4.7,0-9.4,0-14.1,0c-0.6,2.3-1.1,4.5-1.7,6.8
	c4.3,0,8.6,0,13,0c-0.4,1.6-0.8,3.3-1.3,4.9c-4.3,0-8.6,0-13,0c-0.7,2.6-1.3,5.1-2,7.7c4.7,0,9.4,0,14.1,0c-0.4,1.6-0.8,3.3-1.2,4.9
	c-8.4,0-16.9,0-25.3,0C310.1,274.5,312.5,264.8,315,255.1z"/>
<path class="st1" d="M344.6,255.1c7.8,0,15.6-0.1,23.4,0c2.1,0,5.1,0.5,5.6,2.9c0.1,3.6-1,7.2-2.3,10.6c-0.7,2.1-3.1,2.5-4.9,3.4
	c0.9,4.1,1.9,8.1,2.9,12.2c-4.1,0-8.1,0-12.2,0c-0.7-4.2-1.4-8.4-2.1-12.6c-0.9,0-2.5,0-3.4,0c-1.1,4.2-2.1,8.4-3.2,12.6
	c-3.7,0-7.4,0-11.2,0C339.7,274.5,342.2,264.8,344.6,255.1z M354.5,260c-0.6,2.3-1.1,4.5-1.6,6.8c2.5-0.1,5.1,0.2,7.6-0.4
	c1.5-1.7,1.3-4.3,2-6.4C359.9,260,357.2,260,354.5,260z"/>
<path class="st1" d="M383.6,255.5c8.4-0.8,16.8-0.1,25.2-0.4c-0.4,1.6-0.8,3.2-1.1,4.9c-5.6,0.1-11.2-0.2-16.8,0.1
	c-1.7-0.2-2.2,1.6-2.6,2.9c-1.4,5.4-2.8,10.8-3.9,16.3c2.5,0.1,5.1,0.3,7.6-0.2c1.1-2.3,1.6-4.9,2.3-7.4c-2,0-4.1,0-6.1,0
	c0.4-1.6,0.9-3.3,1.3-4.9c5.7,0,11.4,0,17.2,0c-1.5,5.8-2.9,11.7-4.4,17.5c-3,0-6.1,0-9.1,0c0.2-0.5,0.6-1.5,0.8-2
	c-1.7,1.4-3.7,2.3-6,2.1c-4.2-0.2-8.6,0.7-12.6-0.8c-3.9-3.1-1-8.6-0.3-12.6C376.9,265.4,376.9,257.4,383.6,255.5z"/>
<path class="st1" d="M414.5,255.1c8.5,0,16.9,0,25.4,0c-0.4,1.6-0.9,3.2-1.3,4.8c-4.7,0-9.4,0-14.2,0c-0.5,2.3-1.1,4.5-1.7,6.8
	c4.3,0,8.6,0,13,0c-0.4,1.6-0.8,3.3-1.2,4.9c-4.3,0-8.6,0-13,0c-0.7,2.6-1.3,5.2-2,7.8c4.7,0,9.4,0,14.2,0c-0.4,1.6-0.9,3.3-1.3,4.9
	c-8.4,0-16.8,0-25.3,0C409.7,274.5,412.1,264.8,414.5,255.1z"/>
</svg>
