<svg xmlns="http://www.w3.org/2000/svg" xmlns:xlink="http://www.w3.org/1999/xlink" xml:space="preserve" viewBox="0 0 201.1 90.4"><defs><linearGradient id="c" x1="344.8" x2="386.4" y1="276.3" y2="276.6" gradientUnits="userSpaceOnUse"><stop offset="0" stop-color="#020203"/><stop offset="1" stop-opacity="0"/></linearGradient><linearGradient id="b" x1="405" x2="435.4" y1="259.9" y2="259.9" gradientUnits="userSpaceOnUse"><stop offset="0" stop-color="#25e3ff"/><stop offset="0" stop-color="#20dcff"/><stop offset=".7" stop-color="#1a9ae6"/><stop offset="1" stop-color="#337ee7"/></linearGradient><linearGradient xlink:href="#a" id="o" x1="268.6" x2="261.6" y1="160.9" y2="116.5" gradientTransform="rotate(180 351.7 208.6)" gradientUnits="userSpaceOnUse"/><linearGradient id="f" x1="370.7" x2="385.4" y1="261" y2="258.7" gradientTransform="translate(-317.7 -249.1)" gradientUnits="userSpaceOnUse"><stop offset="0" stop-color="#ff2c97"/><stop offset="1" stop-color="#c945bd"/></linearGradient><linearGradient id="l" x1="344.8" x2="386.4" y1="276.3" y2="276.6" gradientUnits="userSpaceOnUse"><stop offset="0" stop-color="#7042ad"/><stop offset=".1" stop-color="#7442ab"/><stop offset=".3" stop-color="#8242a8"/><stop offset=".4" stop-color="#973fa3"/><stop offset=".6" stop-color="#b33b9a"/><stop offset=".7" stop-color="#d3338e"/><stop offset=".9" stop-color="#f7227f"/><stop offset="1" stop-color="#ff0071"/></linearGradient><linearGradient id="a" x1="266.8" x2="261.6" y1="164.6" y2="116.5" gradientTransform="rotate(180 351.7 208.6)" gradientUnits="userSpaceOnUse"><stop offset=".2" stop-color="#337ee7"/><stop offset=".7" stop-color="#4e4dc4"/></linearGradient><linearGradient id="p" x1="426.4" x2="403.2" y1="294.4" y2="268.5" gradientUnits="userSpaceOnUse"><stop offset="0" stop-color="#4e4dc4"/><stop offset=".5" stop-color="#7c49c0"/><stop offset=".8" stop-color="#ab47be"/><stop offset="1" stop-color="#c945bd"/></linearGradient><linearGradient xlink:href="#b" id="s" x1="405" x2="427.9" y1="259.9" y2="259.8" gradientTransform="rotate(-2.8 428.2 253.2)" gradientUnits="userSpaceOnUse"/><radialGradient xlink:href="#c" id="h" cx="58.2" cy="33.7" r="11.2" fx="58.2" fy="33.7" gradientTransform="matrix(-.56195 .2992 -.53337 -1.28284 99.4 64)" gradientUnits="userSpaceOnUse"/><radialGradient xlink:href="#c" id="j" cx="58.2" cy="33.7" r="11.2" fx="58.2" fy="33.7" gradientTransform="matrix(-.67078 .3156 -.63667 -1.35315 114.4 68)" gradientUnits="userSpaceOnUse"/><radialGradient xlink:href="#c" id="m" cx="58.2" cy="33.7" r="11.2" fx="58.2" fy="33.7" gradientTransform="matrix(-.56195 .2992 -.53337 -1.28284 99.4 64)" gradientUnits="userSpaceOnUse"/><radialGradient xlink:href="#c" id="q" cx="60.5" cy="28.8" r="11.2" fx="60.5" fy="28.8" gradientTransform="matrix(-.17023 .58504 -.59658 -.15513 78.5 9)" gradientUnits="userSpaceOnUse"/><filter id="k" width="1.1" height="1" x="0" y="0" color-interpolation-filters="sRGB"><feGaussianBlur stdDeviation=".3"/></filter><filter id="i" width="1.1" height="1" x="0" y="0" color-interpolation-filters="sRGB"><feGaussianBlur stdDeviation=".2"/></filter><filter id="n" width="1.1" height="1" x="0" y="0" color-interpolation-filters="sRGB"><feGaussianBlur stdDeviation=".2"/></filter><filter id="r" width="1.1" height="1" x="0" y="0" color-interpolation-filters="sRGB"><feGaussianBlur stdDeviation=".2"/></filter></defs><path fill="#020203" d="M148.6 7.9v2h2.8v.5h-2.8v2h3.2v.5H148V7.4h3.8V8h-3.2zm8 5.1c-1.5 0-2.4-1-2.4-2.4V7.4h.7v3.2c0 1.1.6 1.8 1.7 1.8s1.7-.7 1.7-1.8V7.4h.6v3.2c0 1.4-1.1 2.4-2.3 2.4zm7.7-1.8h-1.9v1.7h-.6V7.3h2c1.5 0 2.3.7 2.3 2 0 .9-.5 1.5-1.3 1.7l1.3 2h-.7zm-.4-.6c1 0 1.6-.5 1.6-1.3 0-.9-.6-1.3-1.6-1.3h-1.5v2.6zm10.2-.4c0 1.5-1.3 2.8-2.9 2.8a3 3 0 0 1-3-2.9c0-1.5 1.3-2.8 3-2.8 1.6 0 2.9 1.3 2.9 2.9zm-5.2 0c0 1.2 1 2.2 2.3 2.2 1.3 0 2.2-1 2.2-2.3 0-1.3-1-2.1-2.2-2.1-1.2 0-2.3 1-2.3 2.1zm9.7-2.8c1.4 0 2.2.6 2.2 1.8 0 1.3-.8 2-2.2 2h-1.5v1.7h-.6V7.4zm-1.5 3.2h1.5c1 0 1.6-.5 1.6-1.3 0-.9-.6-1.3-1.6-1.3H177v2.6zm6.6-2.7v2h2.9v.5h-2.9v2h3.3v.5h-4V7.4h3.8V8h-3.2zm6.3 3.6-.6 1.4h-.7l2.5-5.5h.7l2.5 5.5h-.7l-.6-1.4h-3zm1.5-3.4-1.2 2.8h2.5zm9 4.8-3.3-4.4v4.4h-.7V7.4h.7l3.3 4.4V7.4h.7v5.5zm-51.1 9.6-2.4-5.6h.7l2 4.9 1.9-4.9h.6l-2.2 5.6h-.7zm5.1 0v-5.6h.6v5.6zm6.1-1.7h-1.9v1.7h-.6v-5.6h2c1.5 0 2.3.7 2.3 2 0 .9-.5 1.5-1.3 1.7l1.3 2h-.7zm1.2-2c0-.8-.6-1.2-1.6-1.2h-1.5v2.5h2c1 0 1-.7 1.1-1.3zm3.8 2.3-.7 1.4h-.6l2.5-5.6h.6l2.5 5.6h-.6l-.7-1.4zm1.5-3.4-1.3 2.8h2.5zm8 4.2v.6h-3v-5.6h.6v5zm-21.8 7.4c0 1.6-1.3 2.8-3 2.8a2.8 2.8 0 0 1-2.9-2.8c0-1.6 1.3-2.8 3-2.8 1.6 0 2.9 1.2 2.9 2.8zm-5.3 0c0 1.3 1 2.2 2.3 2.2 1.3 0 2.3-1 2.3-2.2 0-1.2-1-2.2-2.3-2.2-1.3 0-2.3 1-2.3 2.2zm12.2.6c0 1.4-.8 2.2-2.3 2.2-1.5 0-2.4-.8-2.4-2.3v-3.3h.7v3.3c0 1.1.6 1.7 1.7 1.7s1.7-.6 1.7-1.7v-3.3h.6v3.3zm4.5-2.8v5h-.6v-5h-1.8v-.6h4.3v.6zm6.4-.6c1.1 0 1.8.5 1.8 1.4 0 .7-.4 1.1-1 1.3.8.1 1.3.6 1.3 1.4 0 1-.8 1.5-2 1.5h-2.4v-5.6zm-1.7 2.4h1.7c.7 0 1.1-.3 1.1-.9 0-.6-.4-.9-1.1-.9h-1.7zm0 2.6h1.7c.9 0 1.4-.4 1.4-1s-.5-1-1.4-1h-1.7zm8.8-1.2h-1.9v1.8h-.6v-5.6h2.1c1.4 0 2.2.7 2.2 1.9 0 1-.4 1.6-1.2 1.8l1.3 2h-.7zm-.4-.6c1 0 1.6-.4 1.6-1.3 0-.8-.6-1.3-1.6-1.3h-1.5v2.6zm5.6-2.6V29h2.8v.6h-2.8v2h3.2v.5h-3.9v-5.6h3.8v.6zm6.3 3.6-.7 1.4h-.6l2.5-5.6h.6l2.5 5.6h-.7l-.6-1.4zm1.5-3.4-1.3 2.8h2.5zm6.7 2.2-1.1 1.1v1.5h-.6v-5.6h.6v3.2l3-3.2h.8l-2.3 2.4 2.4 3.2h-.8zm-47.5 10.4h-1.8v1.8h-.7v-5.6h2.1c1.4 0 2.2.7 2.2 1.9 0 1-.4 1.5-1.2 1.8l1.3 1.9h-.7zm-.3-.6c1 0 1.5-.4 1.5-1.3s-.5-1.3-1.6-1.3h-1.4v2.6h1.4zm5.5-2.6v1.9h2.8v.6h-2.8v1.9h3.2v.6H155v-5.6h3.8v.6h-3.1zm9.2-.1-.3.6a3 3 0 0 0-1.5-.5c-.7 0-1.2.3-1.2.8 0 1.4 3.2.7 3.2 2.7 0 1-.9 1.5-2 1.5-.9 0-1.7-.3-2.2-.8l.3-.6c.5.5 1.2.8 1.9.8.8 0 1.3-.4 1.3-.9 0-1.5-3.2-.7-3.2-2.7 0-.9.8-1.4 2-1.4.6 0 1.3.2 1.7.5zm4.8-.5c1.4 0 2.2.7 2.2 1.9s-.8 2-2.2 2h-1.5v1.7h-.6v-5.6zm-1.5 3.2h1.5c1 0 1.6-.4 1.6-1.3s-.6-1.3-1.6-1.3H168v2.6zm11.4-.4c0 1.6-1.4 2.8-3 2.8s-3-1.2-3-2.8c0-1.6 1.4-2.8 3-2.8s3 1.2 3 2.8zm-5.3 0c0 1.2 1 2.2 2.3 2.2 1.3 0 2.3-1 2.3-2.2 0-1.2-1-2.2-2.3-2.2-1.3 0-2.3 1-2.3 2.2zm11.6 2.8-3.3-4.5v4.5h-.7v-5.6h.7l3.4 4.5v-4.5h.6v5.6zm7.1-5.1-.3.6a3 3 0 0 0-1.5-.5c-.8 0-1.2.3-1.2.8 0 1.4 3.1.7 3.1 2.7 0 1-.8 1.5-2 1.5a3 3 0 0 1-2.1-.8l.2-.6c.6.5 1.3.8 1.9.8.8 0 1.3-.4 1.3-.9 0-1.5-3.1-.7-3.1-2.7 0-.9.7-1.4 1.9-1.4.6 0 1.3.2 1.8.5zm3.3.1v1.9h2.8v.6h-2.8v1.9h3.3v.6h-4v-5.6h3.9v.6zm-47.8 13.2-.6 1.4h-.7l2.5-5.6h.7l2.5 5.6h-.7l-.6-1.4h-3zm1.5-3.5-1.2 2.8h2.5zm8.1 4.3v.6h-3.1v-5.6h.6v5zm5.4 0v.6h-3.1v-5.6h.6v5zm2.2.6v-5.6h.7v5.6zm4.1-1.4-.6 1.4h-.7l2.5-5.6h.7l2.5 5.6h-.7l-.6-1.4h-3zm1.5-3.5-1.2 2.8h2.5zm9 4.9-3.4-4.5v4.5h-.6v-5.6h.7l3.3 4.5v-4.5h.7v5.6zm8-4.8-.3.5c-.5-.5-1-.7-1.7-.7-1.3 0-2.3 1-2.3 2.2 0 1.2 1 2.2 2.3 2.2.6 0 1.2-.3 1.7-.7l.3.4a3 3 0 0 1-2 1 2.8 2.8 0 0 1-3-3c0-1.5 1.4-2.7 3-2.7a3 3 0 0 1 2 .8zm3.1-.2v1.8h2.8v.6h-2.8v2h3.2v.6h-3.8v-5.6h3.7v.6z" class="st7"/><path fill="#30383b" d="M14.4 69.9H5.6v5.2h8.6v3.1H5.6v7.4h8.8v3.2H2.2V66.7h12.2v3.1zm14.3-3.2 6 15.3L41 66.7h3.6l-9.9 23.7L25 66.7zM54 77.6c0-3.1 1.2-5.8 3.5-8s5-3.3 8.2-3.3c3 0 5.9 1.2 8 3.3 2.2 2 3.5 5 3.5 8.1a11.5 11.5 0 0 1-11.7 11.4c-2.8 0-5.4-1-7.7-3-2.5-2-3.8-5-3.8-8.5zm3.4 0a8 8 0 0 0 2.5 6 7.9 7.9 0 0 0 5.7 2.4c4.6.1 8.4-3.7 8.3-8.3a8.1 8.1 0 0 0-8.3-8.3c-2.3 0-4.2.8-5.8 2.4a8 8 0 0 0-2.4 5.9zm40.2 1.7 6.8 9.5h-4l-6.3-9h-.6v9H90V66.7h4c2.8 0 5 .5 6.2 1.6a6 6 0 0 1 2.2 4.9c0 1.5-.5 2.9-1.4 4a6 6 0 0 1-3.5 2.1zm-4.2-2.5h1.1c3.2 0 4.7-1.2 4.7-3.6 0-2.3-1.5-3.4-4.6-3.4h-1.2zm36.1 6.6H120l-2.4 5.4H114l11-23.5 10.5 23.5h-3.7zm-1.4-3.1-3.2-7.5-3.5 7.5z" class="st8"/><g transform="translate(-317.7 -249.1)"><path fill="url(#d)" d="m343.1 304 1.4-12.8c8 0 14.5-6.6 14.5-14.6h12.9c0 15.1-10.4 27.5-25.6 27.6z"/><linearGradient id="d" x1="344.5" x2="371.9" y1="290.4" y2="290.4" gradientUnits="userSpaceOnUse"><stop offset="0" stop-color="#2e71d0"/><stop offset=".1" stop-color="#2a79d3"/><stop offset=".3" stop-color="#228ade"/><stop offset=".6" stop-color="#13a8ed"/><stop offset=".8" stop-color="#16cffc"/><stop offset="1" stop-color="#25e3ff"/></linearGradient></g><g transform="translate(-243.3 -294.7)"><path fill="url(#e)" d="M311.6 349.7v-13c8 0 14.6-6.5 14.6-14.5h12.5a27 27 0 0 1-27 27.5z"/><linearGradient id="e" x1="386.4" x2="413.7" y1="290.4" y2="290.4" gradientTransform="translate(-74.8 45.6)" gradientUnits="userSpaceOnUse"><stop offset="0" stop-color="#fe0573"/><stop offset=".5" stop-color="#ff783b"/><stop offset="1" stop-color="#ffd025"/></linearGradient></g><path fill="url(#f)" d="M54.3 27.5h-13A27.8 27.8 0 0 1 69.1.1l-.4 13c-8 0-14.5 6.5-14.5 14.4z"/><path fill="#30383b" d="M95.6 27.5H82.8" class="st8"/><g transform="translate(-318 -249.1)"><path fill="url(#g)" d="m344.7 262.2-.1-13a27.5 27.5 0 0 0 2 55l-1.4-13a15 15 0 0 1-15.1-14.5c0-8 6.6-14.5 14.6-14.5z"/><linearGradient id="g" x1="330.8" x2="331.3" y1="301.1" y2="256.2" gradientUnits="userSpaceOnUse"><stop offset=".2" stop-color="#2c75d2"/><stop offset=".6" stop-color="#4645b0"/><stop offset=".8" stop-color="#6543ad"/><stop offset=".9" stop-color="#7042ad"/></linearGradient></g><path fill="url(#h)" d="M52.6 33c.6 7.8-7.8 18.2-14.5 20L34 41.3c4.1-1.3 7.4-7.1 7.8-11.4 3.1-5.9 11.5-3 10.8 3.2z" filter="url(#i)" transform="matrix(1.05121 0 0 1.08328 -2.6 -3.1)"/><path fill="url(#j)" d="M58.5 35.3c.2 7.9-9.5 18.7-17.4 21.3L36.2 44c5-1.3 9.8-10 10-14.5 3.8-6.2 13-.6 12.3 5.9z" filter="url(#k)" transform="matrix(-.92012 .04032 -.04074 -.85239 98.03 49.17)"/><path fill="url(#l)" d="M372.1 276.6a27.6 27.6 0 0 0-27.7-27.4h-.3v13c8 0 14.9 6.4 14.9 14.4a27.49 27.49 0 0 0 27.4 27.5v-13c-8 0-14.3-6.5-14.3-14.5z" transform="translate(-317.7 -249.1)"/><path fill="url(#m)" d="M52.6 33c.2 7.5-7.8 18.2-14.5 20L34 41.3c4.1-1.3 8.2-7.8 8.4-12 3.1-5.9 10.9-2.3 10.2 3.8z" filter="url(#n)" transform="matrix(1.05121 0 0 1.08328 38.4 -3.3)"/><path fill="url(#o)" d="m427.4 291.1.6 13a27.5 27.5 0 0 0 27.5-27.5 27.3 27.3 0 0 0-27.4-27.4l-.4 13c8.7-.1 14.9 6.4 14.9 14.4s-7.2 14.5-15.2 14.5z" transform="translate(-317.9 -249.1)"/><path fill="url(#p)" d="M400.8 276.6a27.4 27.4 0 0 0 27.3 27.5v-13c-8 0-14.4-6.5-14.4-14.5a27 27 0 0 0-26.5-27.4h-.5l-.4 13c8 0 14.5 6.5 14.5 14.4z" transform="translate(-317.9 -249.1)"/><path fill="url(#q)" d="M52.9 32.9C53 40.5 44.8 51.2 38 53l-4-12c4.1-1.2 7.6-7 7.8-11.3 3.1-5.9 11.7-3 11 3z" filter="url(#r)" transform="matrix(.77414 -.75829 .8361 .76568 20.3 24.3)"/><path fill="url(#s)" d="M412.4 271.4a6.5 6.5 0 0 1-5.7-10.1 26.7 26.7 0 0 1 21.5-12.1l.3 13c-2.5.2-7 .4-11.5 6-1.5 1.5-3 3-4.6 3.2z" transform="translate(-318 -249.1)"/></svg>