<?xml version="1.0" encoding="UTF-8" standalone="no"?>
<!-- Created with Inkscape (http://www.inkscape.org/) -->

<svg
   xmlns:dc="http://purl.org/dc/elements/1.1/"
   xmlns:cc="http://creativecommons.org/ns#"
   xmlns:rdf="http://www.w3.org/1999/02/22-rdf-syntax-ns#"
   xmlns:svg="http://www.w3.org/2000/svg"
   xmlns="http://www.w3.org/2000/svg"
   xmlns:sodipodi="http://sodipodi.sourceforge.net/DTD/sodipodi-0.dtd"
   xmlns:inkscape="http://www.inkscape.org/namespaces/inkscape"
   width="33.239784mm"
   height="6.1614294mm"
   viewBox="0 0 33.239784 6.1614294"
   version="1.1"
   id="svg1229"
   inkscape:version="0.92.4 5da689c313, 2019-01-14"
   sodipodi:docname="NeLS_logo.svg">
  <defs
     id="defs1223" />
  <sodipodi:namedview
     id="base"
     pagecolor="#ffffff"
     bordercolor="#666666"
     borderopacity="1.0"
     inkscape:pageopacity="0.0"
     inkscape:pageshadow="2"
     inkscape:zoom="5.6"
     inkscape:cx="54.73953"
     inkscape:cy="-43.238698"
     inkscape:document-units="mm"
     inkscape:current-layer="layer1"
     showgrid="false"
     inkscape:window-width="1680"
     inkscape:window-height="1002"
     inkscape:window-x="1920"
     inkscape:window-y="30"
     inkscape:window-maximized="1"
     fit-margin-top="0"
     fit-margin-left="0"
     fit-margin-right="0"
     fit-margin-bottom="0" />
  <metadata
     id="metadata1226">
    <rdf:RDF>
      <cc:Work
         rdf:about="">
        <dc:format>image/svg+xml</dc:format>
        <dc:type
           rdf:resource="http://purl.org/dc/dcmitype/StillImage" />
        <dc:title></dc:title>
      </cc:Work>
    </rdf:RDF>
  </metadata>
  <g
     inkscape:label="Layer 1"
     inkscape:groupmode="layer"
     id="layer1"
     transform="translate(-88.541437,-24.25611)">
    <g
       id="g2052">
      <g
         aria-label="NeLS"
         style="font-style:normal;font-variant:normal;font-weight:bold;font-stretch:normal;font-size:4.52346373px;line-height:1.25;font-family:Arial;-inkscape-font-specification:'Arial Bold';letter-spacing:0px;word-spacing:0px;fill:#000080;fill-opacity:1;stroke:none;stroke-width:0.10601868"
         id="text1876">
        <path
           d="m 88.652102,27.54932 v -3.237987 h 0.636112 l 1.325233,2.162339 v -2.162339 h 0.607399 V 27.54932 H 90.564855 L 89.2595,25.437781 v 2.111539 z"
           style="fill:#000080;fill-opacity:1;stroke-width:0.10601868"
           id="path2054"
           inkscape:connector-curvature="0" />
        <path
           d="m 93.266123,26.802772 0.618442,0.10381 q -0.119271,0.340143 -0.377691,0.51905 -0.256212,0.176698 -0.642739,0.176698 -0.611816,0 -0.905576,-0.399779 -0.231916,-0.320265 -0.231916,-0.808393 0,-0.583102 0.304804,-0.912202 0.304804,-0.331308 0.770844,-0.331308 0.523467,0 0.826062,0.346769 0.302595,0.344561 0.289343,1.057978 h -1.554941 q 0.0066,0.27609 0.150193,0.430701 0.143567,0.152402 0.357813,0.152402 0.145776,0 0.245169,-0.07951 0.09939,-0.07951 0.150193,-0.256212 z m 0.03534,-0.627277 q -0.0066,-0.269464 -0.139149,-0.408614 -0.132524,-0.141358 -0.322474,-0.141358 -0.203202,0 -0.335725,0.147984 -0.132524,0.147985 -0.130315,0.401988 z"
           style="fill:#000080;fill-opacity:1;stroke-width:0.10601868"
           id="path2056"
           inkscape:connector-curvature="0" />
        <path
           d="m 94.445581,27.54932 v -3.211482 h 0.653781 v 2.665928 h 1.62562 v 0.545554 z"
           style="fill:#000080;fill-opacity:1;stroke-width:0.10601868"
           id="path2058"
           inkscape:connector-curvature="0" />
        <path
           d="m 97.025369,26.49576 0.636112,-0.06185 q 0.05743,0.320265 0.231916,0.470458 0.176697,0.150193 0.474875,0.150193 0.315847,0 0.474875,-0.132523 0.161237,-0.134732 0.161237,-0.313639 0,-0.114853 -0.06847,-0.194367 -0.06626,-0.08172 -0.234125,-0.141358 -0.114853,-0.03976 -0.523467,-0.141359 -0.525676,-0.130314 -0.737713,-0.320264 -0.298178,-0.267256 -0.298178,-0.651574 0,-0.247376 0.139149,-0.461623 0.141359,-0.216454 0.404197,-0.329099 0.265046,-0.112645 0.638321,-0.112645 0.609607,0 0.916619,0.267255 0.309222,0.267256 0.324683,0.713418 l -0.653782,0.02871 q -0.04197,-0.249586 -0.181116,-0.357813 -0.13694,-0.110436 -0.413031,-0.110436 -0.284925,0 -0.446162,0.117062 -0.10381,0.0751 -0.10381,0.200994 0,0.114854 0.09718,0.196576 0.123689,0.10381 0.600773,0.216455 0.477084,0.112645 0.704582,0.234125 0.229707,0.119271 0.357813,0.329099 0.130315,0.20762 0.130315,0.514633 0,0.278299 -0.154611,0.521258 -0.15461,0.24296 -0.437327,0.362231 -0.282716,0.117062 -0.704582,0.117062 -0.614025,0 -0.943125,-0.282716 -0.329099,-0.284926 -0.393152,-0.828271 z"
           style="fill:#000080;fill-opacity:1;stroke-width:0.10601868"
           id="path2060"
           inkscape:connector-curvature="0" />
      </g>
      <path
         inkscape:connector-curvature="0"
         id="path1878"
         d="M 88.599848,28.394125 H 121.60763"
         style="fill:none;stroke:#000000;stroke-width:0.26458332px;stroke-linecap:butt;stroke-linejoin:miter;stroke-opacity:1" />
      <g
         id="text1882"
         style="font-style:normal;font-variant:normal;font-weight:bold;font-stretch:normal;font-size:2.11666656px;line-height:1.25;font-family:Arial;-inkscape-font-specification:'Arial Bold';letter-spacing:0px;word-spacing:0px;fill:#000000;fill-opacity:1;stroke:none;stroke-width:0.26458332"
         aria-label="Norwegian e-Infrastructure for Life Sciences">
        <g
           transform="translate(0,-1.3703435)"
           id="g2005">
          <path
             inkscape:connector-curvature="0"
             d="m 88.541437,31.453789 v -1.136365 h 0.223242 l 0.465088,0.758868 v -0.758868 h 0.213165 v 1.136365 h -0.230218 l -0.458112,-0.74104 v 0.74104 z"
             style="font-size:1.58749998px;fill:#ff0000;fill-opacity:1;stroke-width:0.26458332"
             id="path1884" />
          <path
             inkscape:connector-curvature="0"
             d="m 89.633618,31.030559 q 0,-0.108521 0.05348,-0.210065 0.05349,-0.101544 0.151154,-0.155029 0.09844,-0.05349 0.219366,-0.05349 0.186811,0 0.306183,0.121698 0.119373,0.120923 0.119373,0.306183 0,0.18681 -0.120923,0.310058 -0.120148,0.122473 -0.303082,0.122473 -0.113172,0 -0.216266,-0.05116 -0.10232,-0.05116 -0.155805,-0.149604 -0.05348,-0.09922 -0.05348,-0.24107 z m 0.223242,0.01163 q 0,0.122473 0.05814,0.187585 0.05814,0.06511 0.143402,0.06511 0.08527,0 0.142627,-0.06511 0.05814,-0.06511 0.05814,-0.189135 0,-0.120923 -0.05814,-0.186035 -0.05736,-0.06511 -0.142627,-0.06511 -0.08527,0 -0.143402,0.06511 -0.05814,0.06511 -0.05814,0.187585 z"
             style="font-size:1.58749998px;stroke-width:0.26458332"
             id="path1886" />
          <path
             inkscape:connector-curvature="0"
             d="m 90.862225,31.453789 h -0.217816 v -0.823206 h 0.202313 v 0.117047 q 0.05194,-0.08294 0.09302,-0.109295 0.04186,-0.02636 0.09457,-0.02636 0.07441,0 0.143402,0.04108 l -0.06744,0.189911 q -0.05503,-0.03566 -0.102319,-0.03566 -0.04573,0 -0.07752,0.02558 -0.03178,0.0248 -0.05038,0.09069 -0.01783,0.06589 -0.01783,0.275952 z"
             style="font-size:1.58749998px;stroke-width:0.26458332"
             id="path1888" />
          <path
             inkscape:connector-curvature="0"
             d="m 91.424982,31.453789 -0.26045,-0.823206 h 0.211615 l 0.154255,0.539502 0.141851,-0.539502 h 0.210065 l 0.137201,0.539502 0.157355,-0.539502 h 0.214715 l -0.264325,0.823206 h -0.209289 l -0.141852,-0.529425 -0.139526,0.529425 z"
             style="font-size:1.58749998px;stroke-width:0.26458332"
             id="path1890" />
          <path
             inkscape:connector-curvature="0"
             d="m 92.983026,31.191789 0.217041,0.03643 q -0.04186,0.119373 -0.13255,0.18216 -0.08992,0.06201 -0.225568,0.06201 -0.214715,0 -0.31781,-0.140301 -0.08139,-0.112396 -0.08139,-0.283704 0,-0.204639 0.10697,-0.320135 0.10697,-0.116272 0.270526,-0.116272 0.18371,0 0.289905,0.121698 0.106195,0.120923 0.101544,0.371295 h -0.545703 q 0.0023,0.09689 0.05271,0.151153 0.05039,0.05349 0.125574,0.05349 0.05116,0 0.08604,-0.02791 0.03488,-0.02791 0.05271,-0.08992 z m 0.0124,-0.220141 q -0.0023,-0.09457 -0.04883,-0.143402 -0.04651,-0.04961 -0.113171,-0.04961 -0.07131,0 -0.117822,0.05194 -0.04651,0.05194 -0.04573,0.141077 z"
             style="font-size:1.58749998px;stroke-width:0.26458332"
             id="path1892" />
          <path
             inkscape:connector-curvature="0"
             d="m 93.369049,31.508049 0.248822,0.03023 q 0.0062,0.04341 0.02868,0.05969 0.03101,0.02325 0.09767,0.02325 0.08527,0 0.127899,-0.02558 0.02868,-0.01705 0.04341,-0.05504 0.01008,-0.02713 0.01008,-0.09999 v -0.120147 q -0.09767,0.133325 -0.246497,0.133325 -0.165881,0 -0.262774,-0.140302 -0.07596,-0.110846 -0.07596,-0.275952 0,-0.206964 0.09922,-0.31626 0.09999,-0.109295 0.248047,-0.109295 0.152704,0 0.251923,0.1341 v -0.115497 h 0.203863 v 0.738715 q 0,0.145727 -0.02403,0.217816 -0.02403,0.07209 -0.06744,0.113171 -0.04341,0.04108 -0.116272,0.06434 -0.07209,0.02326 -0.182935,0.02326 -0.209289,0 -0.296881,-0.07209 -0.08759,-0.07131 -0.08759,-0.181384 0,-0.01085 7.75e-4,-0.02635 z m 0.194562,-0.482916 q 0,0.131 0.05038,0.192236 0.05116,0.06046 0.125574,0.06046 0.07984,0 0.134875,-0.06201 0.05504,-0.06279 0.05504,-0.18526 0,-0.127899 -0.05271,-0.189911 -0.05271,-0.06201 -0.133325,-0.06201 -0.07829,0 -0.12945,0.06124 -0.05038,0.06046 -0.05038,0.18526 z"
             style="font-size:1.58749998px;stroke-width:0.26458332"
             id="path1894" />
          <path
             inkscape:connector-curvature="0"
             d="m 94.358911,30.518962 v -0.201538 h 0.217816 v 0.201538 z m 0,0.934827 v -0.823206 h 0.217816 v 0.823206 z"
             style="font-size:1.58749998px;stroke-width:0.26458332"
             id="path1896" />
          <path
             inkscape:connector-curvature="0"
             d="m 94.96275,30.881731 -0.197662,-0.03566 q 0.03333,-0.119373 0.114721,-0.176733 0.08139,-0.05736 0.241846,-0.05736 0.145728,0 0.217041,0.03488 0.07131,0.03411 0.09999,0.08759 0.02946,0.05271 0.02946,0.194562 l -0.0023,0.254248 q 0,0.10852 0.01008,0.160455 0.01085,0.05116 0.03953,0.110071 h -0.21549 q -0.0085,-0.0217 -0.02093,-0.06434 -0.0054,-0.01938 -0.0078,-0.02558 -0.05581,0.05426 -0.119372,0.08139 -0.06356,0.02713 -0.135651,0.02713 -0.127124,0 -0.200763,-0.06899 -0.07286,-0.06899 -0.07286,-0.174408 0,-0.06976 0.03333,-0.124023 0.03333,-0.05504 0.09302,-0.08372 0.06046,-0.02946 0.173633,-0.05116 0.152704,-0.02868 0.211615,-0.05348 v -0.0217 q 0,-0.06279 -0.03101,-0.08914 -0.03101,-0.02713 -0.117047,-0.02713 -0.05814,0 -0.09069,0.02326 -0.03256,0.02248 -0.05271,0.07984 z m 0.291455,0.176733 q -0.04186,0.01395 -0.13255,0.03333 -0.09069,0.01938 -0.118597,0.03798 -0.04263,0.03023 -0.04263,0.07674 0,0.04573 0.03411,0.07906 0.03411,0.03333 0.08682,0.03333 0.05891,0 0.112397,-0.03876 0.03953,-0.02946 0.05194,-0.07209 0.0085,-0.02791 0.0085,-0.106195 z"
             style="font-size:1.58749998px;stroke-width:0.26458332"
             id="path1898" />
          <path
             inkscape:connector-curvature="0"
             d="m 96.431652,31.453789 h -0.217816 v -0.42013 q 0,-0.133325 -0.01395,-0.172082 -0.01395,-0.03953 -0.04573,-0.06124 -0.03101,-0.0217 -0.07519,-0.0217 -0.05659,0 -0.101544,0.03101 -0.04496,0.03101 -0.06201,0.08217 -0.01628,0.05116 -0.01628,0.189135 v 0.372846 h -0.217816 v -0.823206 h 0.202313 v 0.120923 q 0.107745,-0.139526 0.271301,-0.139526 0.07209,0 0.131775,0.02636 0.05969,0.02558 0.08992,0.06589 0.03101,0.04031 0.04263,0.09147 0.0124,0.05116 0.0124,0.146503 z"
             style="font-size:1.58749998px;stroke-width:0.26458332"
             id="path1900" />
          <path
             inkscape:connector-curvature="0"
             d="m 97.570343,31.191789 0.217041,0.03643 q -0.04186,0.119373 -0.13255,0.18216 -0.08992,0.06201 -0.225568,0.06201 -0.214716,0 -0.31781,-0.140301 -0.08139,-0.112396 -0.08139,-0.283704 0,-0.204639 0.10697,-0.320135 0.10697,-0.116272 0.270526,-0.116272 0.18371,0 0.289905,0.121698 0.106195,0.120923 0.101544,0.371295 h -0.545703 q 0.0023,0.09689 0.05271,0.151153 0.05038,0.05349 0.125573,0.05349 0.05116,0 0.08604,-0.02791 0.03488,-0.02791 0.05271,-0.08992 z m 0.0124,-0.220141 q -0.0023,-0.09457 -0.04883,-0.143402 -0.04651,-0.04961 -0.113172,-0.04961 -0.07131,0 -0.117822,0.05194 -0.04651,0.05194 -0.04573,0.141077 z"
             style="font-size:1.58749998px;fill:#ff0202;fill-opacity:1;stroke-width:0.26458332"
             id="path1902" />
          <path
             inkscape:connector-curvature="0"
             d="M 97.951715,31.150706 V 30.93289 h 0.42788 v 0.217816 z"
             style="font-size:1.58749998px;stroke-width:0.26458332"
             id="path1904" />
          <path
             inkscape:connector-curvature="0"
             d="m 98.499743,31.453789 v -1.136365 h 0.229444 v 1.136365 z"
             style="font-size:1.58749998px;stroke-width:0.26458332"
             id="path1906" />
          <path
             inkscape:connector-curvature="0"
             d="m 99.695019,31.453789 h -0.217816 v -0.42013 q 0,-0.133325 -0.01395,-0.172082 -0.01395,-0.03953 -0.04573,-0.06124 -0.03101,-0.0217 -0.07519,-0.0217 -0.05658,0 -0.101544,0.03101 -0.04496,0.03101 -0.06201,0.08217 -0.01628,0.05116 -0.01628,0.189135 v 0.372846 h -0.217817 v -0.823206 h 0.202314 v 0.120923 q 0.107745,-0.139526 0.271301,-0.139526 0.07209,0 0.131775,0.02636 0.05969,0.02558 0.08992,0.06589 0.03101,0.04031 0.04263,0.09147 0.0124,0.05116 0.0124,0.146503 z"
             style="font-size:1.58749998px;stroke-width:0.26458332"
             id="path1908" />
          <path
             inkscape:connector-curvature="0"
             d="m 99.820593,30.630583 h 0.120923 v -0.06201 q 0,-0.103869 0.0217,-0.155029 0.02248,-0.05116 0.08139,-0.08294 0.0597,-0.03256 0.15038,-0.03256 0.093,0 0.18216,0.02791 l -0.0295,0.151928 q -0.0519,-0.0124 -0.1,-0.0124 -0.0473,0 -0.0682,0.02248 -0.0202,0.0217 -0.0202,0.08449 v 0.05814 h 0.16278 V 30.8019 h -0.16278 v 0.651898 H 99.941432 V 30.8019 h -0.120923 z"
             style="font-size:1.58749998px;stroke-width:0.26458332"
             id="path1910" />
          <path
             inkscape:connector-curvature="0"
             d="m 100.6531,31.453789 h -0.21782 v -0.823206 h 0.20232 v 0.117047 q 0.0519,-0.08294 0.093,-0.109295 0.0418,-0.02636 0.0946,-0.02636 0.0744,0 0.14341,0.04108 l -0.0674,0.189911 q -0.055,-0.03566 -0.10232,-0.03566 -0.0457,0 -0.0775,0.02558 -0.0318,0.0248 -0.0504,0.09069 -0.0178,0.06589 -0.0178,0.275952 z"
             style="font-size:1.58749998px;stroke-width:0.26458332"
             id="path1912" />
          <path
             inkscape:connector-curvature="0"
             d="m 101.22516,30.881731 -0.19766,-0.03566 q 0.0333,-0.119373 0.11472,-0.176733 0.0814,-0.05736 0.24184,-0.05736 0.14573,0 0.21704,0.03488 0.0713,0.03411 0.1,0.08759 0.0294,0.05271 0.0294,0.194562 l -0.002,0.254248 q 0,0.10852 0.0101,0.160455 0.0109,0.05116 0.0395,0.110071 h -0.21549 q -0.009,-0.0217 -0.0209,-0.06434 -0.005,-0.01938 -0.008,-0.02558 -0.0558,0.05426 -0.11938,0.08139 -0.0636,0.02713 -0.13565,0.02713 -0.12712,0 -0.20076,-0.06899 -0.0729,-0.06899 -0.0729,-0.174408 0,-0.06976 0.0333,-0.124023 0.0333,-0.05504 0.093,-0.08372 0.0605,-0.02946 0.17363,-0.05116 0.1527,-0.02868 0.21161,-0.05348 v -0.0217 q 0,-0.06279 -0.031,-0.08914 -0.031,-0.02713 -0.11705,-0.02713 -0.0581,0 -0.0907,0.02326 -0.0326,0.02248 -0.0527,0.07984 z m 0.29145,0.176733 q -0.0418,0.01395 -0.13255,0.03333 -0.0907,0.01938 -0.11859,0.03798 -0.0426,0.03023 -0.0426,0.07674 0,0.04573 0.0341,0.07906 0.0341,0.03333 0.0868,0.03333 0.0589,0 0.11239,-0.03876 0.0395,-0.02946 0.0519,-0.07209 0.009,-0.02791 0.009,-0.106195 z"
             style="font-size:1.58749998px;stroke-width:0.26458332"
             id="path1914" />
          <path
             inkscape:connector-curvature="0"
             d="m 101.86853,31.218919 0.21859,-0.03333 q 0.014,0.06356 0.0566,0.09689 0.0426,0.03256 0.11937,0.03256 0.0845,0 0.12712,-0.03101 0.0287,-0.0217 0.0287,-0.05814 0,-0.0248 -0.0155,-0.04108 -0.0163,-0.0155 -0.0729,-0.02868 -0.26355,-0.05814 -0.33409,-0.106196 -0.0977,-0.06666 -0.0977,-0.18526 0,-0.10697 0.0845,-0.179834 0.0845,-0.07286 0.262,-0.07286 0.16898,0 0.25115,0.05504 0.0822,0.05504 0.11317,0.162781 l -0.20541,0.03798 q -0.0132,-0.04806 -0.0504,-0.07364 -0.0364,-0.02558 -0.10464,-0.02558 -0.086,0 -0.12325,0.02403 -0.0248,0.01705 -0.0248,0.04418 0,0.02325 0.0217,0.03953 0.0294,0.0217 0.20309,0.06124 0.1744,0.03953 0.24339,0.09689 0.0682,0.05814 0.0682,0.162005 0,0.113172 -0.0946,0.194562 -0.0946,0.08139 -0.27983,0.08139 -0.16821,0 -0.26665,-0.06821 -0.0977,-0.06821 -0.1279,-0.18526 z"
             style="font-size:1.58749998px;stroke-width:0.26458332"
             id="path1916" />
          <path
             inkscape:connector-curvature="0"
             d="m 103.20566,30.630583 v 0.173633 h -0.14883 v 0.331763 q 0,0.100769 0.004,0.117822 0.005,0.01628 0.0194,0.02713 0.0155,0.01085 0.0372,0.01085 0.0302,0 0.0876,-0.02093 l 0.0186,0.168982 q -0.076,0.03256 -0.17209,0.03256 -0.0589,0 -0.10619,-0.01938 -0.0473,-0.02015 -0.0698,-0.05116 -0.0217,-0.03178 -0.0302,-0.08527 -0.007,-0.03798 -0.007,-0.153479 v -0.358893 h -0.1 v -0.173633 h 0.1 v -0.163556 l 0.21859,-0.127124 v 0.29068 z"
             style="font-size:1.58749998px;stroke-width:0.26458332"
             id="path1918" />
          <path
             inkscape:connector-curvature="0"
             d="m 103.56533,31.453789 h -0.21782 v -0.823206 h 0.20231 v 0.117047 q 0.0519,-0.08294 0.093,-0.109295 0.0419,-0.02636 0.0946,-0.02636 0.0744,0 0.1434,0.04108 l -0.0674,0.189911 q -0.055,-0.03566 -0.10232,-0.03566 -0.0457,0 -0.0775,0.02558 -0.0318,0.0248 -0.0504,0.09069 -0.0178,0.06589 -0.0178,0.275952 z"
             style="font-size:1.58749998px;stroke-width:0.26458332"
             id="path1920" />
          <path
             inkscape:connector-curvature="0"
             d="M 104.51643,31.453789 V 31.33054 q -0.045,0.06589 -0.1186,0.10387 -0.0729,0.03798 -0.15425,0.03798 -0.0829,0 -0.14883,-0.03643 -0.0659,-0.03643 -0.0953,-0.102319 -0.0295,-0.06589 -0.0295,-0.182159 v -0.520899 h 0.21782 v 0.378272 q 0,0.173632 0.0116,0.213165 0.0124,0.03876 0.0442,0.06201 0.0318,0.02248 0.0806,0.02248 0.0558,0 0.1,-0.03023 0.0442,-0.03101 0.0605,-0.07596 0.0163,-0.04573 0.0163,-0.222467 v -0.347266 h 0.21781 v 0.823206 z"
             style="font-size:1.58749998px;stroke-width:0.26458332"
             id="path1922" />
          <path
             inkscape:connector-curvature="0"
             d="m 105.6621,30.873979 -0.21472,0.03876 q -0.0108,-0.06434 -0.0496,-0.09689 -0.038,-0.03256 -0.0992,-0.03256 -0.0814,0 -0.13022,0.05659 -0.0481,0.05581 -0.0481,0.187585 0,0.146503 0.0488,0.206964 0.0496,0.06046 0.13255,0.06046 0.062,0 0.10155,-0.03488 0.0395,-0.03566 0.0558,-0.121698 l 0.21394,0.03643 q -0.0333,0.147278 -0.1279,0.222467 -0.0946,0.07519 -0.25347,0.07519 -0.18061,0 -0.28836,-0.113946 -0.10697,-0.113947 -0.10697,-0.315485 0,-0.203863 0.10775,-0.317035 0.10774,-0.113946 0.29145,-0.113946 0.15038,0 0.23875,0.06511 0.0891,0.06434 0.1279,0.196887 z"
             style="font-size:1.58749998px;stroke-width:0.26458332"
             id="path1924" />
          <path
             inkscape:connector-curvature="0"
             d="m 106.2047,30.630583 v 0.173633 h -0.14883 v 0.331763 q 0,0.100769 0.004,0.117822 0.005,0.01628 0.0194,0.02713 0.0155,0.01085 0.0372,0.01085 0.0302,0 0.0876,-0.02093 l 0.0186,0.168982 q -0.076,0.03256 -0.17208,0.03256 -0.0589,0 -0.1062,-0.01938 -0.0473,-0.02015 -0.0698,-0.05116 -0.0217,-0.03178 -0.0302,-0.08527 -0.007,-0.03798 -0.007,-0.153479 v -0.358893 h -0.1 v -0.173633 h 0.1 v -0.163556 l 0.21859,-0.127124 v 0.29068 z"
             style="font-size:1.58749998px;stroke-width:0.26458332"
             id="path1926" />
          <path
             inkscape:connector-curvature="0"
             d="M 106.89768,31.453789 V 31.33054 q -0.045,0.06589 -0.1186,0.10387 -0.0729,0.03798 -0.15425,0.03798 -0.0829,0 -0.14883,-0.03643 -0.0659,-0.03643 -0.0953,-0.102319 -0.0295,-0.06589 -0.0295,-0.182159 v -0.520899 h 0.21782 v 0.378272 q 0,0.173632 0.0116,0.213165 0.0124,0.03876 0.0442,0.06201 0.0318,0.02248 0.0806,0.02248 0.0558,0 0.1,-0.03023 0.0442,-0.03101 0.0605,-0.07596 0.0163,-0.04573 0.0163,-0.222467 v -0.347266 h 0.21781 v 0.823206 z"
             style="font-size:1.58749998px;stroke-width:0.26458332"
             id="path1928" />
          <path
             inkscape:connector-curvature="0"
             d="m 107.53408,31.453789 h -0.21782 v -0.823206 h 0.20231 v 0.117047 q 0.0519,-0.08294 0.093,-0.109295 0.0419,-0.02636 0.0946,-0.02636 0.0744,0 0.1434,0.04108 l -0.0674,0.189911 q -0.055,-0.03566 -0.10232,-0.03566 -0.0457,0 -0.0775,0.02558 -0.0318,0.0248 -0.0504,0.09069 -0.0178,0.06589 -0.0178,0.275952 z"
             style="font-size:1.58749998px;stroke-width:0.26458332"
             id="path1930" />
          <path
             inkscape:connector-curvature="0"
             d="m 108.42007,31.191789 0.21704,0.03643 q -0.0419,0.119373 -0.13255,0.18216 -0.0899,0.06201 -0.22557,0.06201 -0.21471,0 -0.31781,-0.140301 -0.0814,-0.112396 -0.0814,-0.283704 0,-0.204639 0.10697,-0.320135 0.10697,-0.116272 0.27053,-0.116272 0.18371,0 0.2899,0.121698 0.1062,0.120923 0.10155,0.371295 h -0.54571 q 0.002,0.09689 0.0527,0.151153 0.0504,0.05349 0.12558,0.05349 0.0512,0 0.086,-0.02791 0.0349,-0.02791 0.0527,-0.08992 z m 0.0124,-0.220141 q -0.002,-0.09457 -0.0488,-0.143402 -0.0465,-0.04961 -0.11317,-0.04961 -0.0713,0 -0.11783,0.05194 -0.0465,0.05194 -0.0457,0.141077 z"
             style="font-size:1.58749998px;stroke-width:0.26458332"
             id="path1932" />
          <path
             inkscape:connector-curvature="0"
             d="m 109.17196,30.630583 h 0.12092 v -0.06201 q 0,-0.103869 0.0217,-0.155029 0.0225,-0.05116 0.0814,-0.08294 0.0597,-0.03256 0.15038,-0.03256 0.093,0 0.18216,0.02791 l -0.0295,0.151928 q -0.0519,-0.0124 -0.1,-0.0124 -0.0473,0 -0.0682,0.02248 -0.0202,0.0217 -0.0202,0.08449 v 0.05814 h 0.16278 V 30.8019 h -0.16278 v 0.651898 H 109.2928 V 30.8019 h -0.12092 z"
             style="font-size:1.58749998px;stroke-width:0.26458332"
             id="path1934" />
          <path
             inkscape:connector-curvature="0"
             d="m 109.74557,31.030559 q 0,-0.108521 0.0535,-0.210065 0.0535,-0.101544 0.15116,-0.155029 0.0984,-0.05349 0.21936,-0.05349 0.18681,0 0.30619,0.121698 0.11937,0.120923 0.11937,0.306183 0,0.18681 -0.12092,0.310058 -0.12015,0.122473 -0.30309,0.122473 -0.11317,0 -0.21626,-0.05116 -0.10232,-0.05116 -0.15581,-0.149604 -0.0535,-0.09922 -0.0535,-0.24107 z m 0.22324,0.01163 q 0,0.122473 0.0581,0.187585 0.0581,0.06511 0.1434,0.06511 0.0853,0 0.14263,-0.06511 0.0581,-0.06511 0.0581,-0.189135 0,-0.120923 -0.0581,-0.186035 -0.0574,-0.06511 -0.14263,-0.06511 -0.0853,0 -0.1434,0.06511 -0.0581,0.06511 -0.0581,0.187585 z"
             style="font-size:1.58749998px;stroke-width:0.26458332"
             id="path1936" />
          <path
             inkscape:connector-curvature="0"
             d="m 110.97418,31.453789 h -0.21782 v -0.823206 h 0.20231 v 0.117047 q 0.0519,-0.08294 0.093,-0.109295 0.0419,-0.02636 0.0946,-0.02636 0.0744,0 0.1434,0.04108 l -0.0674,0.189911 q -0.055,-0.03566 -0.10232,-0.03566 -0.0457,0 -0.0775,0.02558 -0.0318,0.0248 -0.0504,0.09069 -0.0178,0.06589 -0.0178,0.275952 z"
             style="font-size:1.58749998px;stroke-width:0.26458332"
             id="path1938" />
          <path
             inkscape:connector-curvature="0"
             d="m 111.83226,31.453789 v -1.127063 h 0.22945 v 0.935602 h 0.5705 v 0.191461 z"
             style="font-size:1.58749998px;fill:#ff0000;fill-opacity:1;stroke-width:0.26458332"
             id="path1940" />
          <path
             inkscape:connector-curvature="0"
             d="m 112.79422,30.518962 v -0.201538 h 0.21782 v 0.201538 z m 0,0.934827 v -0.823206 h 0.21782 v 0.823206 z"
             style="font-size:1.58749998px;stroke-width:0.26458332"
             id="path1942" />
          <path
             inkscape:connector-curvature="0"
             d="m 113.13994,30.630583 h 0.12092 v -0.06201 q 0,-0.103869 0.0217,-0.155029 0.0225,-0.05116 0.0814,-0.08294 0.0597,-0.03256 0.15038,-0.03256 0.093,0 0.18216,0.02791 l -0.0294,0.151928 q -0.0519,-0.0124 -0.1,-0.0124 -0.0473,0 -0.0682,0.02248 -0.0202,0.0217 -0.0202,0.08449 v 0.05814 h 0.16279 V 30.8019 h -0.16279 v 0.651898 h -0.21781 V 30.8019 h -0.12092 z"
             style="font-size:1.58749998px;stroke-width:0.26458332"
             id="path1944" />
          <path
             inkscape:connector-curvature="0"
             d="m 114.24064,31.191789 0.21704,0.03643 q -0.0418,0.119373 -0.13255,0.18216 -0.0899,0.06201 -0.22556,0.06201 -0.21472,0 -0.31781,-0.140301 -0.0814,-0.112396 -0.0814,-0.283704 0,-0.204639 0.10697,-0.320135 0.10697,-0.116272 0.27052,-0.116272 0.18371,0 0.28991,0.121698 0.10619,0.120923 0.10154,0.371295 h -0.5457 q 0.002,0.09689 0.0527,0.151153 0.0504,0.05349 0.12557,0.05349 0.0512,0 0.086,-0.02791 0.0349,-0.02791 0.0527,-0.08992 z m 0.0124,-0.220141 q -0.002,-0.09457 -0.0488,-0.143402 -0.0465,-0.04961 -0.11317,-0.04961 -0.0713,0 -0.11782,0.05194 -0.0465,0.05194 -0.0457,0.141077 z"
             style="font-size:1.58749998px;stroke-width:0.26458332"
             id="path1946" />
          <path
             inkscape:connector-curvature="0"
             d="m 115.03129,31.084044 0.22324,-0.0217 q 0.0202,0.112396 0.0814,0.165106 0.062,0.05271 0.16666,0.05271 0.11085,0 0.16666,-0.04651 0.0566,-0.04728 0.0566,-0.110071 0,-0.04031 -0.024,-0.06821 -0.0233,-0.02868 -0.0822,-0.04961 -0.0403,-0.01395 -0.18371,-0.04961 -0.18449,-0.04573 -0.2589,-0.112397 -0.10465,-0.09379 -0.10465,-0.228668 0,-0.08682 0.0488,-0.162005 0.0496,-0.07597 0.14185,-0.115497 0.093,-0.03953 0.22402,-0.03953 0.21394,0 0.32168,0.09379 0.10852,0.09379 0.11395,0.250372 l -0.22944,0.01008 q -0.0147,-0.08759 -0.0636,-0.125573 -0.0481,-0.03876 -0.14495,-0.03876 -0.1,0 -0.15658,0.04108 -0.0364,0.02635 -0.0364,0.07054 0,0.04031 0.0341,0.06899 0.0434,0.03643 0.21084,0.07597 0.16743,0.03953 0.24727,0.08216 0.0806,0.04186 0.12557,0.115497 0.0457,0.07286 0.0457,0.180609 0,0.09767 -0.0543,0.182935 -0.0543,0.08527 -0.15348,0.127124 -0.0992,0.04108 -0.24728,0.04108 -0.21549,0 -0.33098,-0.09922 -0.1155,-0.09999 -0.13798,-0.29068 z"
             style="font-size:1.58749998px;fill:#ff0000;fill-opacity:1;stroke-width:0.26458332"
             id="path1948" />
          <path
             inkscape:connector-curvature="0"
             d="m 116.86451,30.873979 -0.21471,0.03876 q -0.0109,-0.06434 -0.0496,-0.09689 -0.038,-0.03256 -0.0992,-0.03256 -0.0814,0 -0.13022,0.05659 -0.0481,0.05581 -0.0481,0.187585 0,0.146503 0.0488,0.206964 0.0496,0.06046 0.13255,0.06046 0.062,0 0.10154,-0.03488 0.0395,-0.03566 0.0558,-0.121698 l 0.21394,0.03643 q -0.0333,0.147278 -0.1279,0.222467 -0.0946,0.07519 -0.25348,0.07519 -0.18061,0 -0.28835,-0.113946 -0.10697,-0.113947 -0.10697,-0.315485 0,-0.203863 0.10774,-0.317035 0.10775,-0.113946 0.29146,-0.113946 0.15038,0 0.23874,0.06511 0.0892,0.06434 0.1279,0.196887 z"
             style="font-size:1.58749998px;stroke-width:0.26458332"
             id="path1950" />
          <path
             inkscape:connector-curvature="0"
             d="m 117.02962,30.518962 v -0.201538 h 0.21781 v 0.201538 z m 0,0.934827 v -0.823206 h 0.21781 v 0.823206 z"
             style="font-size:1.58749998px;stroke-width:0.26458332"
             id="path1952" />
          <path
             inkscape:connector-curvature="0"
             d="m 117.94739,31.191789 0.21704,0.03643 q -0.0418,0.119373 -0.13255,0.18216 -0.0899,0.06201 -0.22556,0.06201 -0.21472,0 -0.31781,-0.140301 -0.0814,-0.112396 -0.0814,-0.283704 0,-0.204639 0.10697,-0.320135 0.10697,-0.116272 0.27052,-0.116272 0.18371,0 0.28991,0.121698 0.10619,0.120923 0.10154,0.371295 h -0.5457 q 0.002,0.09689 0.0527,0.151153 0.0504,0.05349 0.12557,0.05349 0.0512,0 0.086,-0.02791 0.0349,-0.02791 0.0527,-0.08992 z m 0.0124,-0.220141 q -0.002,-0.09457 -0.0488,-0.143402 -0.0465,-0.04961 -0.11317,-0.04961 -0.0713,0 -0.11782,0.05194 -0.0465,0.05194 -0.0457,0.141077 z"
             style="font-size:1.58749998px;stroke-width:0.26458332"
             id="path1954" />
          <path
             inkscape:connector-curvature="0"
             d="m 119.10236,31.453789 h -0.21781 v -0.42013 q 0,-0.133325 -0.014,-0.172082 -0.014,-0.03953 -0.0457,-0.06124 -0.031,-0.0217 -0.0752,-0.0217 -0.0566,0 -0.10154,0.03101 -0.045,0.03101 -0.062,0.08217 -0.0163,0.05116 -0.0163,0.189135 v 0.372846 h -0.21782 v -0.823206 h 0.20231 v 0.120923 q 0.10775,-0.139526 0.2713,-0.139526 0.0721,0 0.13178,0.02636 0.0597,0.02558 0.0899,0.06589 0.031,0.04031 0.0426,0.09147 0.0124,0.05116 0.0124,0.146503 z"
             style="font-size:1.58749998px;stroke-width:0.26458332"
             id="path1956" />
          <path
             inkscape:connector-curvature="0"
             d="m 120.04106,30.873979 -0.21471,0.03876 q -0.0109,-0.06434 -0.0496,-0.09689 -0.038,-0.03256 -0.0992,-0.03256 -0.0814,0 -0.13022,0.05659 -0.0481,0.05581 -0.0481,0.187585 0,0.146503 0.0488,0.206964 0.0496,0.06046 0.13255,0.06046 0.062,0 0.10154,-0.03488 0.0395,-0.03566 0.0558,-0.121698 l 0.21394,0.03643 q -0.0333,0.147278 -0.1279,0.222467 -0.0946,0.07519 -0.25348,0.07519 -0.18061,0 -0.28835,-0.113946 -0.10697,-0.113947 -0.10697,-0.315485 0,-0.203863 0.10774,-0.317035 0.10775,-0.113946 0.29146,-0.113946 0.15038,0 0.23874,0.06511 0.0891,0.06434 0.1279,0.196887 z"
             style="font-size:1.58749998px;stroke-width:0.26458332"
             id="path1958" />
          <path
             inkscape:connector-curvature="0"
             d="m 120.68289,31.191789 0.21704,0.03643 q -0.0419,0.119373 -0.13255,0.18216 -0.0899,0.06201 -0.22557,0.06201 -0.21472,0 -0.31781,-0.140301 -0.0814,-0.112396 -0.0814,-0.283704 0,-0.204639 0.10697,-0.320135 0.10697,-0.116272 0.27052,-0.116272 0.18371,0 0.28991,0.121698 0.10619,0.120923 0.10154,0.371295 h -0.5457 q 0.002,0.09689 0.0527,0.151153 0.0504,0.05349 0.12557,0.05349 0.0512,0 0.0861,-0.02791 0.0349,-0.02791 0.0527,-0.08992 z m 0.0124,-0.220141 q -0.002,-0.09457 -0.0488,-0.143402 -0.0465,-0.04961 -0.11317,-0.04961 -0.0713,0 -0.11782,0.05194 -0.0465,0.05194 -0.0457,0.141077 z"
             style="font-size:1.58749998px;stroke-width:0.26458332"
             id="path1960" />
          <path
             inkscape:connector-curvature="0"
             d="m 121.01232,31.218919 0.2186,-0.03333 q 0.014,0.06356 0.0566,0.09689 0.0426,0.03256 0.11937,0.03256 0.0845,0 0.12713,-0.03101 0.0287,-0.0217 0.0287,-0.05814 0,-0.0248 -0.0155,-0.04108 -0.0163,-0.0155 -0.0729,-0.02868 -0.26355,-0.05814 -0.33409,-0.106196 -0.0977,-0.06666 -0.0977,-0.18526 0,-0.10697 0.0845,-0.179834 0.0845,-0.07286 0.26199,-0.07286 0.16899,0 0.25115,0.05504 0.0822,0.05504 0.11317,0.162781 l -0.20541,0.03798 q -0.0132,-0.04806 -0.0504,-0.07364 -0.0364,-0.02558 -0.10465,-0.02558 -0.086,0 -0.12325,0.02403 -0.0248,0.01705 -0.0248,0.04418 0,0.02325 0.0217,0.03953 0.0295,0.0217 0.20309,0.06124 0.17441,0.03953 0.2434,0.09689 0.0682,0.05814 0.0682,0.162005 0,0.113172 -0.0946,0.194562 -0.0946,0.08139 -0.27983,0.08139 -0.1682,0 -0.26665,-0.06821 -0.0977,-0.06821 -0.1279,-0.18526 z"
             style="font-size:1.58749998px;stroke-width:0.26458332"
             id="path1962" />
        </g>
      </g>
    </g>
  </g>
</svg>
