<?xml version="1.0" encoding="UTF-8"?>
<svg width="1200pt" height="1200pt" version="1.1" viewBox="0 0 1200 1200" xmlns="http://www.w3.org/2000/svg">
 <g fill="#fff">
  <path d="m225 562.5h150c20.711 0 37.5 20.711 37.5 37.5v450c0 20.711-16.789 37.5-37.5 37.5h-150c-20.711 0-37.5-20.711-37.5-37.5v-450c0-20.711 16.789-37.5 37.5-37.5z"/>
  <path d="m525 375h150c20.711 0 37.5 20.711 37.5 37.5v637.5c0 20.711-16.789 37.5-37.5 37.5h-150c-20.711 0-37.5-20.711-37.5-37.5v-637.5c0-20.711 16.789-37.5 37.5-37.5z"/>
  <path d="m825 112.5h150c20.711 0 37.5 20.711 37.5 37.5v900c0 20.711-16.789 37.5-37.5 37.5h-150c-20.711 0-37.5-20.711-37.5-37.5v-900c0-20.711 16.789-37.5 37.5-37.5z"/>
 </g>
</svg>
