<?xml version="1.0" encoding="UTF-8"?>
<svg width="1200pt" height="1200pt" version="1.1" viewBox="0 0 1200 1200" xmlns="http://www.w3.org/2000/svg">
 <g fill="#fff">
  <path d="m967.14 1048.1c17.004-29.043 17.324-63.902 0.85156-93.25l-102.9-183.35h-530.18l-102.9 183.35c-16.473 29.348-16.152 64.207 0.85156 93.25 17.004 29.043 47.246 46.383 80.902 46.383h572.47c33.652 0 63.898-17.34 80.902-46.383z"/>
  <path d="m451.48 563.84-90.266 160.84h477.56l-90.266-160.84c-21.582-38.457-32.984-82.086-32.984-126.18l-0.003906-204.03c0-12.941 10.492-23.438 23.438-23.438h12.637c28.871 0 52.363-23.488 52.363-52.363 0-28.871-23.488-52.363-52.363-52.363h-303.2c-28.871 0-52.363 23.488-52.363 52.363 0 28.871 23.488 52.363 52.363 52.363h12.637c12.945 0 23.438 10.496 23.438 23.438v204.03c0 44.094-11.41 87.723-32.988 126.18z"/>
 </g>
</svg>
