<?xml version="1.0" encoding="UTF-8"?>
<svg width="700pt" height="700pt" version="1.1" viewBox="0 0 700 700" xmlns="http://www.w3.org/2000/svg">
 <path fill="#fff" d="m508.83 0c24.605 0 46.977 9.6953 63.383 26.098 15.66 16.406 26.098 38.027 26.098 62.637 0 24.605-10.438 46.977-26.098 63.383-16.406 16.406-38.773 26.098-63.383 26.098-23.117 0-44.742-8.9492-60.398-23.863l-172.25 99.922c2.2383 8.2031 3.7266 16.406 3.7266 25.352 0 8.9492-1.4922 17.895-3.7266 26.098l172.25 99.176c16.406-14.168 37.285-23.117 60.398-23.117 24.605 0 46.977 9.6953 63.383 26.098 15.66 16.406 26.098 38.027 26.098 62.637 0 24.605-10.438 46.977-26.098 63.383-16.406 15.66-38.773 26.098-63.383 26.098-24.605 0-46.977-10.438-62.637-26.098-16.406-16.406-26.098-38.773-26.098-63.383 0-7.457 0.74609-14.914 2.2383-21.625l-174.49-100.66c-14.914 12.676-35.047 20.879-57.418 20.879-24.605 0-46.23-10.438-62.637-26.098-16.406-16.406-26.098-38.773-26.098-63.383 0-24.605 9.6953-46.23 26.098-62.637 16.406-16.406 38.027-26.098 62.637-26.098 22.371 0 42.504 8.2031 57.418 20.879l174.49-100.66c-1.4922-6.7109-2.2383-14.168-2.2383-22.371 0-24.605 9.6953-46.23 26.098-62.637 15.66-16.406 38.027-26.098 62.637-26.098z"/>
</svg>
