<?xml version="1.0" encoding="UTF-8"?>
<svg width="700pt" height="700pt" version="1.1" viewBox="0 0 700 700" xmlns="http://www.w3.org/2000/svg">
 <g>
  <path  fill="#fff" d="m175 262.5h70c9.6641 0 17.5 9.6641 17.5 17.5v210c0 9.6641-7.8359 17.5-17.5 17.5h-70c-9.6641 0-17.5-9.6641-17.5-17.5v-210c0-9.6641 7.8359-17.5 17.5-17.5z"/>
  <path  fill="#fff" d="m315 175h70c9.6641 0 17.5 9.6641 17.5 17.5v297.5c0 9.6641-7.8359 17.5-17.5 17.5h-70c-9.6641 0-17.5-9.6641-17.5-17.5v-297.5c0-9.6641 7.8359-17.5 17.5-17.5z"/>
  <path  fill="#fff" d="m455 52.5h70c9.6641 0 17.5 9.6641 17.5 17.5v420c0 9.6641-7.8359 17.5-17.5 17.5h-70c-9.6641 0-17.5-9.6641-17.5-17.5v-420c0-9.6641 7.8359-17.5 17.5-17.5z"/>
 </g>
</svg>
