<?xml version="1.0" encoding="UTF-8"?>
<svg width="700pt" height="700pt" version="1.1" viewBox="0 0 700 700" xmlns="http://www.w3.org/2000/svg" xmlns:xlink="http://www.w3.org/1999/xlink">
 <defs>
  <symbol id="f" overflow="visible">
   <path fill="#fff" d="m39.078-2.3281c-2.0117 1.043-4.1094 1.8281-6.2969 2.3594s-4.4648 0.79688-6.8281 0.79688c-7.0859 0-12.699-1.9766-16.844-5.9375-4.1367-3.957-6.2031-9.3281-6.2031-16.109 0-6.7891 2.0664-12.164 6.2031-16.125 4.1445-3.9688 9.7578-5.9531 16.844-5.9531 2.3633 0 4.6406 0.26562 6.8281 0.79688s4.2852 1.3242 6.2969 2.375v8.7969c-2.0312-1.3828-4.0391-2.3984-6.0156-3.0469-1.9688-0.64453-4.0469-0.96875-6.2344-0.96875-3.9062 0-6.9844 1.2578-9.2344 3.7656-2.2422 2.5-3.3594 5.9531-3.3594 10.359 0 4.3867 1.1172 7.8359 3.3594 10.344 2.25 2.5 5.3281 3.75 9.2344 3.75 2.1875 0 4.2656-0.32031 6.2344-0.96875 1.9766-0.64453 3.9844-1.6602 6.0156-3.0469z"/>
  </symbol>
  <symbol id="e" overflow="visible">
   <path fill="#fff" d="m16.031-40.953v9.0625h10.516v7.2812h-10.516v13.531c0 1.4805 0.28906 2.4805 0.875 3 0.59375 0.52344 1.7656 0.78125 3.5156 0.78125h5.2344v7.2969h-8.7344c-4.0312 0-6.8867-0.83594-8.5625-2.5156-1.6797-1.6875-2.5156-4.5391-2.5156-8.5625v-13.531h-5.0781v-7.2812h5.0781v-9.0625z"/>
  </symbol>
  <symbol id="d" overflow="visible">
   <path fill="#fff" d="m26.594-27.234v-17.078h10.266v44.312h-10.266v-4.6094c-1.3984 1.875-2.9453 3.25-4.6406 4.125-1.6875 0.875-3.6406 1.3125-5.8594 1.3125-3.9297 0-7.1562-1.5625-9.6875-4.6875-2.5234-3.125-3.7812-7.1445-3.7812-12.062 0-4.9141 1.2578-8.9375 3.7812-12.062 2.5312-3.125 5.7578-4.6875 9.6875-4.6875 2.1953 0 4.1445 0.44531 5.8438 1.3281 1.707 0.88672 3.2578 2.2578 4.6562 4.1094zm-6.7188 20.656c2.1875 0 3.8516-0.79688 5-2.3906 1.1445-1.5938 1.7188-3.9102 1.7188-6.9531 0-3.0391-0.57422-5.3594-1.7188-6.9531-1.1484-1.5938-2.8125-2.3906-5-2.3906-2.168 0-3.8242 0.79688-4.9688 2.3906-1.1484 1.5938-1.7188 3.9141-1.7188 6.9531 0 3.043 0.57031 5.3594 1.7188 6.9531 1.1445 1.5938 2.8008 2.3906 4.9688 2.3906z"/>
  </symbol>
  <symbol id="c" overflow="visible">
   <path fill="#fff" d="m21.875-6.5781c2.1758 0 3.8359-0.79688 4.9844-2.3906 1.1562-1.5938 1.7344-3.9102 1.7344-6.9531 0-3.0391-0.57812-5.3594-1.7344-6.9531-1.1484-1.5938-2.8086-2.3906-4.9844-2.3906-2.1875 0-3.8672 0.80469-5.0312 2.4062-1.168 1.6055-1.75 3.918-1.75 6.9375 0 3.0234 0.58203 5.3359 1.75 6.9375 1.1641 1.6055 2.8438 2.4062 5.0312 2.4062zm-6.7812-20.656c1.4062-1.8516 2.9609-3.2227 4.6719-4.1094 1.707-0.88281 3.6719-1.3281 5.8906-1.3281 3.9375 0 7.1641 1.5625 9.6875 4.6875 2.5195 3.125 3.7812 7.1484 3.7812 12.062 0 4.918-1.2617 8.9375-3.7812 12.062-2.5234 3.125-5.75 4.6875-9.6875 4.6875-2.2188 0-4.1836-0.44531-5.8906-1.3281-1.7109-0.88281-3.2656-2.2539-4.6719-4.1094v4.6094h-10.188v-44.312h10.188z"/>
  </symbol>
  <symbol id="b" overflow="visible">
   <path fill="#fff" d="m16.312-34.234v25.953h3.9375c4.4766 0 7.8984-1.1094 10.266-3.3281 2.3633-2.2266 3.5469-5.457 3.5469-9.6875 0-4.2188-1.1797-7.4258-3.5312-9.625-2.3555-2.207-5.7812-3.3125-10.281-3.3125zm-10.953-8.2812h11.562c6.4453 0 11.25 0.46094 14.406 1.375 3.1641 0.91797 5.8789 2.4805 8.1406 4.6875 2 1.918 3.4844 4.1328 4.4531 6.6406 0.96875 2.5 1.4531 5.3398 1.4531 8.5156 0 3.2109-0.48438 6.0742-1.4531 8.5938-0.96875 2.5117-2.4531 4.7266-4.4531 6.6406-2.2734 2.1992-5.0078 3.7617-8.2031 4.6875-3.1875 0.91797-7.9688 1.375-14.344 1.375h-11.562z"/>
  </symbol>
  <symbol id="a" overflow="visible">
   <path fill="#fff" d="m4.9062-44.312h10.188v24.125l11.734-11.703h11.844l-15.578 14.625 16.812 17.266h-12.359l-12.453-13.297v13.297h-10.188z"/>
  </symbol>
 </defs>
 <g>
  <path fill="#fff" d="m325.62 286.88c-1.8789-4.1797-6.0352-6.875-10.617-6.8828h-57.75c3.0352-35 21.934-120.05 132.07-164.15 5.2148-2.0625 8.2266-7.543 7.1719-13.047-1.0586-5.5078-5.8828-9.4844-11.488-9.4727-135.45 0-213.15 94.152-221.08 186.67h-58.918c-4.6055 0.011719-8.7734 2.7305-10.641 6.9414-1.8633 4.2109-1.0781 9.125 2.0078 12.543l105 116.67v-0.003906c2.2109 2.4336 5.3438 3.8203 8.6328 3.8203s6.4219-1.3867 8.6328-3.8203l105-116.67v0.003906c3.1016-3.4375 3.8789-8.3789 1.9844-12.602z"/>
  <path fill="#fff" d="m603.63 260.52-105-116.67v0.003906c-2.2109-2.4336-5.3438-3.8203-8.6328-3.8203s-6.4219 1.3867-8.6328 3.8203l-105 116.67v-0.003906c-3.0859 3.418-3.8711 8.332-2.0078 12.543 1.8672 4.2109 6.0352 6.9297 10.641 6.9414h58.332c-3.0352 35-21.934 120.05-132.07 164.15-5.1289 2.0117-8.1523 7.3359-7.25 12.773 0.90234 5.4336 5.4805 9.4961 10.984 9.7461 135.45 0 213.15-94.148 221.67-186.67h58.332c4.6055-0.011719 8.7734-2.7305 10.641-6.9414 1.8633-4.2109 1.0781-9.125-2.0078-12.543z"/>
  <use x="70" y="735" xlink:href="#f"/>
  <use x="220.503906" y="735" xlink:href="#e"/>
  <use x="287.953125" y="735" xlink:href="#d"/>
  <use x="350.015625" y="735" xlink:href="#c"/>
  <use x="450.105469" y="735" xlink:href="#b"/>
  <use x="677.800781" y="735" xlink:href="#a"/>
 </g>
</svg>
