<?xml version="1.0" encoding="UTF-8"?>
<svg width="700pt" height="700pt" version="1.1" viewBox="0 0 700 700" xmlns="http://www.w3.org/2000/svg">
 <g>
  <path fill="#fff" d="m94 182.4v97.602c0 52.801 115.2 96 256 96s256-43.199 256-96v-97.602c-51.199 43.199-153.6 65.602-256 65.602s-204.8-22.398-256-65.602z"/>
  <path fill="#fff" d="m94 342.4v97.602c0 52.801 115.2 96 256 96s256-43.199 256-96v-97.602c-51.199 43.199-153.6 65.602-256 65.602s-204.8-22.398-256-65.602z"/>
  <path fill="#fff" d="m350 216c140.8 0 256-43.199 256-96s-115.2-96-256-96-256 43.199-256 96 115.2 96 256 96z"/>
 </g>
</svg>
