<?xml version="1.0" encoding="UTF-8"?>
<svg width="1200pt" height="1200pt" version="1.1" viewBox="0 0 1200 1200" xmlns="http://www.w3.org/2000/svg">
 <g fill="#fff">
  <path d="m799 135.94h-579.04c-38.77 0-70.312 31.543-70.312 70.312v787.5c0 38.77 31.543 70.312 70.312 70.312h579.04c38.77 0 70.312-31.543 70.312-70.312l-0.003906-312.02-185.89 185.89c-2.9219 2.9219-6.5664 5.0195-10.562 6.0781l-194.28 51.543c-1.9883 0.52734-4.0078 0.78125-6.0078 0.78125-6.1289 0-12.109-2.4062-16.559-6.8516-5.9062-5.8984-8.2305-14.488-6.1016-22.559l51.543-195.6c1.0586-4.0195 3.1719-7.6875 6.1133-10.625l333.17-332.22-0.47656-0.47656 29.055-29.051-0.003906-122.39c-0.003906-38.77-31.547-70.312-70.316-70.312z"/>
  <path d="m505.5 869.61 116.2-30.828-85.371-86.16z"/>
  <path d="m1019.5 345.29c-27.363-27.367-71.934-27.402-99.348-0.089843l-13.062 13.023 109.73 109.73 12.953-12.953c27.414-27.414 27.414-72.02 0-99.438z"/>
  <path d="m557.2 707.1 109.72 110.73 316.73-316.73-109.77-109.77z"/>
 </g>
</svg>
