<?xml version="1.0" encoding="UTF-8"?>
<svg width="1200pt" height="1200pt" version="1.1" viewBox="0 0 1200 1200" xmlns="http://www.w3.org/2000/svg">
 <g fill="#fff">
  <path d="m51.43 390.86v209.14c0 113.14 246.86 205.71 548.57 205.71s548.57-92.57 548.57-205.71v-209.14c-109.71 92.57-329.14 140.57-548.57 140.57-219.43 0.003907-438.86-47.996-548.57-140.57z"/>
  <path d="m51.43 733.71v209.14c0 113.14 246.86 205.71 548.57 205.71s548.57-92.57 548.57-205.71v-209.14c-109.71 92.57-329.14 140.57-548.57 140.57-219.43 0-438.86-48-548.57-140.57z"/>
  <path d="m600 462.86c301.71 0 548.57-92.57 548.57-205.71s-246.86-205.71-548.57-205.71-548.57 92.57-548.57 205.71 246.86 205.71 548.57 205.71z"/>
 </g>
</svg>
