<?xml version="1.0" encoding="UTF-8"?>
<svg width="1200pt" height="1200pt" version="1.1" viewBox="0 0 1200 1200" xmlns="http://www.w3.org/2000/svg">
 <g fill="#fff">
  <path d="m562.8 439.82c-2.043 1.9102-3.7891 4.1562-5.0742 6.6445-21.008 40.746 26.977 84.738 64.824 49.379 2.0469-1.9102 3.7891-4.1562 5.0742-6.6406 21.02-40.75-26.973-84.754-64.824-49.383z"/>
  <path d="m377.42 433.35c-40.684-22.262-79.738 16.797-57.473 57.473 2.2422 4.0938 5.6211 7.4766 9.7188 9.7188 40.68 22.266 79.742-16.797 57.473-57.473-2.2422-4.0977-5.6289-7.4805-9.7188-9.7188z"/>
  <path d="m855.68 433.35c-40.684-22.262-79.734 16.797-57.469 57.477 2.2422 4.0938 5.625 7.4766 9.7188 9.7188 40.684 22.262 79.734-16.797 57.469-57.477-2.2383-4.0977-5.6211-7.4766-9.7188-9.7188z"/>
  <path d="m1122 751.94v-566.78c0-32.359-26.234-58.594-58.594-58.594h-926.84c-32.359 0-58.594 26.234-58.594 58.594v566.78c0 32.359 26.234 58.594 58.594 58.594h926.83c32.363 0 58.598-26.234 58.598-58.594zm-698.25-228.52c-1.418 2.3594-3.2656 4.457-5.4297 6.1602-93.348 73.402-200.82-34.078-127.41-127.42 1.7031-2.1641 3.8008-4.0156 6.1602-5.4297 91.457-54.898 181.59 35.23 126.68 126.69zm237.64 2.832c-1.3516 2.0586-3.0391 3.9023-4.9766 5.4258-90.312 71.059-193.14-29.559-132.48-122.26 1.3516-2.0625 3.0391-3.9023 4.9766-5.4258 90.316-71.07 193.15 29.555 132.48 122.26zm236.13 1.3945c-1.4023 1.9258-3.1094 3.6367-5.0352 5.0352-90.984 66.172-192.6-35.449-126.41-126.43 1.4023-1.9258 3.1094-3.6367 5.0352-5.0352 90.984-66.176 192.6 35.445 126.41 126.43z"/>
  <path d="m923.13 1026.6h-96.363c-10.578 0-19.957-6.8125-23.234-16.871l-44.074-135.41c-3.2734-10.062-12.652-16.871-23.234-16.871h-286.86c-10.578 0-19.961 6.8125-23.234 16.871l-44.074 135.41c-3.2734 10.062-12.652 16.871-23.234 16.871h-96.363c-12.547 0-23.559 9.4648-24.309 21.988-0.81641 13.602 9.9688 24.887 23.395 24.887h662.5c13.422 0 24.211-11.285 23.395-24.887-0.74609-12.523-11.758-21.988-24.305-21.988z"/>
 </g>
</svg>
