<?xml version="1.0" encoding="UTF-8"?>
<svg width="1200pt" height="1200pt" version="1.1" viewBox="0 0 1200 1200" xmlns="http://www.w3.org/2000/svg">
 <g fill="#fff">
  <path d="m547.75 614.75c-1.9727-4.3867-5.168-8.1094-9.2031-10.727-4.0352-2.6172-8.7383-4.0117-13.547-4.0234h-123.75c6.5-75 47-257.25 283-351.75 7.2812-2.875 12.793-8.9961 14.895-16.535 2.1016-7.543 0.55078-15.629-4.1914-21.859-4.7422-6.2266-12.125-9.875-19.953-9.8555-290.25 0-456.75 201.75-473.75 400h-126.25c-6.4766 0.015625-12.691 2.543-17.344 7.0508-4.6484 4.5078-7.3672 10.645-7.582 17.117-0.21875 6.4727 2.0859 12.773 6.4258 17.582l225 250c4.7383 5.2109 11.457 8.1836 18.5 8.1836s13.762-2.9727 18.5-8.1836l225-250c3.2539-3.6016 5.3867-8.0742 6.1406-12.867 0.75391-4.7969 0.097656-9.707-1.8906-14.133z"/>
  <path d="m1143.5 558.25-225-250c-4.7383-5.2109-11.457-8.1836-18.5-8.1836s-13.762 2.9727-18.5 8.1836l-225 250c-4.3398 4.8086-6.6445 11.109-6.4258 17.582 0.21484 6.4727 2.9336 12.609 7.582 17.117 4.6523 4.5078 10.867 7.0352 17.344 7.0508h125c-6.5 75-47 257.25-283 351.75-7.1641 2.8086-12.637 8.7617-14.836 16.137-2.1953 7.3789-0.875 15.355 3.5859 21.625 4.4609 6.2734 11.562 10.141 19.25 10.488 290.25 0 456.75-201.75 475-400h125c6.4766-0.015625 12.691-2.543 17.344-7.0508 4.6484-4.5078 7.3672-10.645 7.582-17.117 0.21875-6.4727-2.0859-12.773-6.4258-17.582z"/>
 </g>
</svg>
