<?xml version="1.0" encoding="UTF-8"?>
<svg width="1200pt" height="1200pt" version="1.1" viewBox="0 0 1200 1200" xmlns="http://www.w3.org/2000/svg">
 <path d="m940.35 0c52.73 0 100.66 20.773 135.82 55.926 33.555 35.152 55.926 81.492 55.926 134.22 0 52.73-22.371 100.66-55.926 135.82-35.152 35.152-83.09 55.926-135.82 55.926-49.535 0-95.871-19.176-129.43-51.133l-369.11 214.11c4.793 17.578 7.9883 35.152 7.9883 54.328s-3.1953 38.348-7.9883 55.926l369.11 212.52c35.152-30.359 79.895-49.535 129.43-49.535 52.73 0 100.66 20.773 135.82 55.926 33.555 35.152 55.926 81.492 55.926 134.22 0 52.73-22.371 100.66-55.926 135.82-35.152 33.555-83.09 55.926-135.82 55.926-52.73 0-100.66-22.371-134.22-55.926-35.152-35.152-55.926-83.09-55.926-135.82 0-15.98 1.5977-31.957 4.793-46.34l-373.9-215.71c-31.957 27.164-75.102 44.742-123.04 44.742-52.73 0-99.066-22.371-134.22-55.926-35.152-35.152-55.926-83.09-55.926-135.82s20.773-99.066 55.926-134.22c35.152-35.152 81.492-55.926 134.22-55.926 47.938 0 91.078 17.578 123.04 44.742l373.9-215.71c-3.1953-14.379-4.793-30.359-4.793-47.938 0-52.73 20.773-99.066 55.926-134.22 33.555-35.152 81.492-55.926 134.22-55.926z" fill="#fff"/>
</svg>
