<?xml version="1.0" encoding="utf-8"?>
<!-- Generator: Adobe Illustrator 24.1.2, SVG Export Plug-In . SVG Version: 6.00 Build 0)  -->
<svg version="1.1" baseProfile="basic" id="Layer_1"
	 xmlns="http://www.w3.org/2000/svg" xmlns:xlink="http://www.w3.org/1999/xlink" x="0px" y="0px" viewBox="0 0 581.4 370.9"
	 xml:space="preserve">
<path fill="#006373" d="M291.8,292.9c0,0-6.6-1-6.8-4.1c-6-135.2-18.4-129.9-278.3-135.2c-4.9-0.1-6.8-7.1-6.8-7.1h291.8V292.9z"/>
<path fill="#860052" d="M289.6,0c0,0,6.6,1,6.8,4.1c6,135.2,18.4,129.9,278.3,135.2c4.9,0.1,6.8,7.1,6.8,7.1H289.6V0z"/>
<path fill="#495965" d="M242,325.2l-0.7-0.4c-0.2,0.2-0.6,0.5-1.1,0.5c-0.6,0-2.1-1.3-4.6-2.7c-2.5-1.4-6.1-2.7-11.1-2.7
	c-14.9,0-22.9,12.3-22.9,25.5c0,13.2,8.1,25.5,22.6,25.5c11.5,0,14.7-6.4,17.5-6.4c0.3,0,0.5,0.1,0.6,0.1l0.5-0.3l-6.1-8.3l-0.7,0.4
	c0.1,0.3,0.1,0.7,0.1,1c0,3.3-5.9,6.8-11.5,6.6c-10.8-0.2-15.1-9.3-15.1-18.8c0-9.4,4.6-18.5,14.9-18.5c5.5,0,11,2.9,11,5.5
	c0,0.6,0.1,1,0,1.3l0.8,0.3L242,325.2z M268.7,365.1l0.8,0.3c0.3-0.3,0.7-0.5,1-0.5c0.7-0.1,6.3,6,19,6c10.8,0,18.1-6.2,18.1-15.4
	c0-20.3-29.5-10.4-29.5-21.4c0-4.2,2.5-7.4,10.2-7.4c6,0,13.1,2.6,13.1,6.2c0,0.3,0,0.5-0.1,0.7l0.9,0.4l4.8-10.3l-0.7-0.3
	c-0.5,0.6-1.2,0.8-1.6,0.8c-0.8,0-2.3-1.1-4.8-2.2c-2.5-1.1-6.1-2.2-11.2-2.2c-10.8,0-18.4,5.2-18.4,14.5c0,19.4,29.3,9.1,29.3,21.6
	c0,5.7-4.1,8.2-10,8.2c-6.9,0-15.2-3.8-15.2-7.4c0-0.3,0-0.7,0.1-1l-0.8-0.4L268.7,365.1z M374.6,325.2l-0.7-0.4
	c-0.2,0.2-0.6,0.5-1.1,0.5c-0.6,0-2.1-1.3-4.6-2.7c-2.5-1.4-6.1-2.7-11.1-2.7c-14.9,0-22.9,12.3-22.9,25.5
	c0,13.2,8.1,25.5,22.6,25.5c11.5,0,14.7-6.4,17.5-6.4c0.3,0,0.5,0.1,0.6,0.1l0.5-0.3l-6.1-8.3l-0.7,0.4c0.1,0.3,0.1,0.7,0.1,1
	c0,3.3-5.9,6.8-11.5,6.6c-10.8-0.2-15.1-9.3-15.1-18.8c0-9.4,4.6-18.5,14.9-18.5c5.5,0,11,2.9,11,5.5c0,0.6,0.1,1,0,1.3l0.8,0.3
	L374.6,325.2z"/>
</svg>
