<?xml version="1.0" encoding="utf-8"?>
<!-- Generator: Adobe Illustrator 17.0.0, SVG Export Plug-In . SVG Version: 6.00 Build 0)  -->
<!DOCTYPE svg PUBLIC "-//W3C//DTD SVG 1.1//EN" "http://www.w3.org/Graphics/SVG/1.1/DTD/svg11.dtd">
<svg version="1.1" id="DTL" xmlns="http://www.w3.org/2000/svg" xmlns:xlink="http://www.w3.org/1999/xlink" x="0px" y="0px"
	 width="220px" height="72.674px" viewBox="0 0 220 72.674" enable-background="new 0 0 220 72.674" xml:space="preserve">
<g>
	<path fill="#58595B" d="M10.13,38.272V14.581h5.656c2.603,0,4.644,1.151,6.119,3.446c1.301,2.047,1.952,4.619,1.952,7.708
		c0,3.345-0.721,6.207-2.161,8.586c-1.575,2.633-3.683,3.951-6.322,3.951H10.13 M19.795,5.241H0v41.928h18.972
		c4.969,0,8.877-2.15,11.724-6.455c2.57-3.884,3.855-8.67,3.855-14.351s-1.234-10.509-3.7-14.478
		C28.107,7.456,24.422,5.241,19.795,5.241"/>
	<polyline fill="#58595B" points="71.078,5.241 39.149,5.241 39.149,14.581 49.69,14.581 49.69,47.169 60.538,47.169 60.538,14.581 
		71.078,14.581 71.078,5.241 	"/>
	<polygon fill="#58595B" points="89.199,5.241 89.199,38.771 104.575,38.771 104.575,47.169 78.297,47.169 78.297,5.241 	"/>
	<path fill="#EC008C" d="M156.985,19.218c3.859,0,6.987,3.128,6.987,6.987c0,3.859-3.128,6.985-6.987,6.985
		c-3.859,0-6.987-3.126-6.987-6.985c0-3.859-3.128-6.987-6.987-6.987c-3.861,0-6.989-3.129-6.989-6.989
		c0-3.858,3.128-6.987,6.989-6.987c3.859,0,6.987,3.129,6.987,6.987C149.998,16.088,153.126,19.218,156.985,19.218"/>
	<path fill="#51247F" d="M177.978,40.18c0,3.859-3.128,6.989-6.989,6.989c-3.857,0-6.985-3.13-6.985-6.989
		c0-3.858,3.128-6.989,6.985-6.989c3.861,0,6.989-3.126,6.989-6.985c0-3.859,3.128-6.987,6.987-6.987
		c3.859,0,6.987,3.128,6.987,6.987c0,3.859-3.128,6.985-6.987,6.985C181.106,33.19,177.978,36.322,177.978,40.18"/>
	<circle fill="#EC008C" cx="143.009" cy="40.18" r="6.988"/>
	<path fill="#FFFFFF" d="M199.036,46.645c-1.136,0-2.264-0.307-3.259-0.889c-1.976-1.159-3.204-3.294-3.204-5.577
		c0-2.281,1.228-4.416,3.204-5.574c0.995-0.582,2.121-0.892,3.259-0.892c4.142,0,7.511-3.368,7.511-7.509s-3.37-7.511-7.511-7.511
		c-3.564,0-6.463-2.901-6.463-6.465c0-3.563,2.899-6.463,6.463-6.463c3.564,0,6.463,2.9,6.463,6.463
		c0,4.143,3.372,7.514,7.514,7.514c2.602,0,4.94,1.549,5.955,3.947c0.336,0.796,0.508,1.643,0.508,2.516
		c0,0.872-0.172,1.719-0.508,2.516c-1.015,2.397-3.353,3.945-5.955,3.945c-4.144,0-7.514,3.372-7.514,7.514
		c0,0.87-0.17,1.718-0.508,2.516C203.978,45.095,201.64,46.645,199.036,46.645z"/>
	<path fill="#6D6E71" d="M199.036,6.289c3.276,0,5.939,2.665,5.939,5.939c0,4.432,3.605,8.038,8.038,8.038
		c2.391,0,4.541,1.423,5.472,3.626c0.309,0.733,0.467,1.511,0.467,2.313c0,0.801-0.158,1.579-0.467,2.311
		c-0.932,2.203-3.081,3.626-5.474,3.626c-4.43,0-8.036,3.606-8.036,8.038c0,0.801-0.156,1.578-0.465,2.311
		c-0.934,2.205-3.081,3.63-5.474,3.63c-1.044,0-2.08-0.282-2.993-0.817c-1.818-1.065-2.946-3.028-2.946-5.124
		c0-2.094,1.128-4.058,2.946-5.122c0.913-0.535,1.949-0.819,2.993-0.819c4.43,0,8.036-3.603,8.036-8.033
		c0-4.431-3.605-8.036-8.036-8.036c-3.276,0-5.939-2.666-5.939-5.941C193.097,8.954,195.76,6.289,199.036,6.289 M199.036,5.241
		c-3.859,0-6.987,3.129-6.987,6.987c0,3.86,3.128,6.989,6.987,6.989s6.987,3.128,6.987,6.987c0,3.859-3.128,6.985-6.987,6.985
		c-1.288,0-2.487,0.355-3.523,0.963c-2.07,1.213-3.464,3.455-3.464,6.026c0,2.571,1.394,4.815,3.464,6.029
		c1.036,0.606,2.236,0.96,3.523,0.96c2.895,0,5.378-1.761,6.439-4.269c0.352-0.837,0.549-1.757,0.549-2.721
		c0-3.858,3.128-6.989,6.987-6.989c0,0,0,0,0.002,0c2.893,0,5.376-1.759,6.439-4.265c0.352-0.836,0.549-1.756,0.549-2.72
		s-0.197-1.886-0.549-2.721c-1.063-2.507-3.546-4.267-6.439-4.267c-3.859,0-6.989-3.129-6.989-6.989
		C206.023,8.37,202.895,5.241,199.036,5.241L199.036,5.241z"/>
	<circle fill="#51247F" cx="170.99" cy="12.228" r="6.987"/>
	<rect x="120.822" y="0" fill="#6D6E71" width="1.048" height="52.41"/>
	<g>
		<path fill="#6D6E71" d="M0,64.987h1.689c1.09,0,1.9,0.137,2.429,0.405c0.53,0.272,0.966,0.712,1.308,1.32
			c0.343,0.608,0.515,1.318,0.515,2.127c0,0.579-0.095,1.112-0.288,1.593c-0.19,0.485-0.456,0.886-0.795,1.206
			c-0.337,0.319-0.702,0.543-1.094,0.663c-0.395,0.123-1.077,0.184-2.049,0.184H0V64.987z M1.417,66.364v4.729h0.662
			c0.652,0,1.124-0.074,1.418-0.225c0.296-0.147,0.535-0.401,0.722-0.755c0.187-0.352,0.28-0.788,0.28-1.304
			c0-0.794-0.222-1.415-0.667-1.853c-0.401-0.395-1.043-0.592-1.93-0.592H1.417z"/>
		<path fill="#6D6E71" d="M7.98,64.987h1.434v4.85c0,0.42,0.036,0.71,0.108,0.886c0.074,0.174,0.195,0.309,0.364,0.416
			c0.167,0.102,0.37,0.154,0.609,0.154c0.251,0,0.468-0.055,0.647-0.174c0.184-0.113,0.309-0.26,0.379-0.438
			c0.069-0.178,0.103-0.522,0.103-1.022v-4.672h1.433v4.471c0,0.753-0.042,1.277-0.127,1.568c-0.085,0.293-0.248,0.577-0.487,0.847
			c-0.241,0.272-0.516,0.475-0.829,0.604c-0.31,0.131-0.676,0.197-1.09,0.197c-0.543,0-1.015-0.125-1.419-0.377
			c-0.403-0.248-0.69-0.561-0.864-0.936c-0.172-0.377-0.261-1.009-0.261-1.904V64.987z"/>
		<path fill="#6D6E71" d="M14.705,64.987h4.143v1.411h-1.365v6.089h-1.448v-6.089h-1.33V64.987z"/>
		<path fill="#6D6E71" d="M27.446,66.305l-0.998,0.952c-0.678-0.716-1.443-1.075-2.292-1.075c-0.714,0-1.318,0.244-1.809,0.733
			c-0.489,0.491-0.736,1.095-0.736,1.812c0,0.5,0.11,0.942,0.325,1.331c0.218,0.387,0.525,0.692,0.921,0.913
			c0.397,0.221,0.838,0.33,1.325,0.33c0.415,0,0.792-0.074,1.136-0.231c0.343-0.154,0.72-0.434,1.129-0.843l0.967,1.011
			c-0.553,0.538-1.076,0.913-1.569,1.124c-0.494,0.207-1.055,0.313-1.687,0.313c-1.165,0-2.118-0.368-2.862-1.11
			c-0.741-0.737-1.112-1.685-1.112-2.84c0-0.747,0.168-1.413,0.507-1.994c0.339-0.581,0.822-1.048,1.452-1.4
			c0.632-0.352,1.309-0.53,2.036-0.53c0.618,0,1.213,0.129,1.786,0.393C26.538,65.453,27.03,65.824,27.446,66.305z"/>
		<path fill="#6D6E71" d="M29.418,64.987h1.447v2.829h2.503v-2.829h1.441v7.499h-1.441v-3.288h-2.503v3.288h-1.447V64.987z"/>
	</g>
	<g>
		<path fill="#6D6E71" d="M41.16,64.989h4.147v1.406H43.94v6.091h-1.447v-6.091H41.16V64.989z"/>
		<path fill="#6D6E71" d="M47.02,64.989h4.095v1.396h-2.676v1.355h2.676v1.374h-2.676v1.974h2.676v1.398H47.02V64.989z"/>
		<path fill="#6D6E71" d="M60.066,66.305l-0.996,0.952c-0.681-0.719-1.445-1.075-2.293-1.075c-0.718,0-1.319,0.246-1.811,0.735
			c-0.489,0.489-0.737,1.093-0.737,1.812c0,0.498,0.11,0.942,0.329,1.331c0.217,0.389,0.524,0.692,0.919,0.913
			c0.4,0.221,0.838,0.334,1.325,0.334c0.416,0,0.794-0.078,1.136-0.233c0.342-0.154,0.72-0.436,1.132-0.843l0.966,1.007
			c-0.554,0.54-1.078,0.917-1.57,1.126c-0.493,0.207-1.054,0.311-1.686,0.311c-1.167,0-2.122-0.366-2.862-1.108
			c-0.744-0.739-1.116-1.685-1.116-2.842c0-0.745,0.17-1.413,0.508-1.992c0.339-0.579,0.824-1.05,1.454-1.404
			c0.63-0.35,1.308-0.528,2.037-0.528c0.617,0,1.213,0.131,1.786,0.389C59.158,65.451,59.652,65.826,60.066,66.305z"/>
		<path fill="#6D6E71" d="M62.041,64.989h1.448v2.829h2.504v-2.829h1.441v7.497h-1.441V69.2h-2.504v3.286h-1.448V64.989z"/>
		<path fill="#6D6E71" d="M76.716,66.305l-1.014,0.952c-0.69-0.719-1.463-1.075-2.327-1.075c-0.729,0-1.341,0.246-1.839,0.735
			c-0.499,0.489-0.748,1.093-0.748,1.812c0,0.498,0.112,0.942,0.332,1.331c0.221,0.389,0.534,0.692,0.939,0.913
			c0.403,0.221,0.85,0.334,1.343,0.334c0.42,0,0.806-0.078,1.156-0.233c0.347-0.154,0.73-0.436,1.145-0.843l0.983,1.007
			c-0.561,0.54-1.092,0.917-1.593,1.126c-0.501,0.207-1.071,0.311-1.714,0.311c-1.184,0-2.154-0.366-2.906-1.108
			c-0.756-0.739-1.133-1.685-1.133-2.842c0-0.745,0.173-1.413,0.515-1.992c0.345-0.579,0.837-1.05,1.476-1.404
			c0.64-0.35,1.33-0.528,2.068-0.528c0.629,0,1.232,0.131,1.816,0.389C75.795,65.451,76.296,65.826,76.716,66.305z"/>
		<path fill="#6D6E71" d="M78.701,64.989h4.093v1.396h-2.675v1.355h2.675v1.374h-2.675v1.974h2.675v1.398h-4.093V64.989z"/>
		<path fill="#6D6E71" d="M84.862,64.989h1.371l3.206,4.934v-4.934h1.429v7.497h-1.374l-3.204-4.918v4.918h-1.428V64.989z"/>
		<path fill="#6D6E71" d="M92.57,64.989h4.146v1.406h-1.367v6.091h-1.446v-6.091H92.57V64.989z"/>
		<path fill="#6D6E71" d="M98.521,64.989h1.512c0.83,0,1.418,0.076,1.77,0.223c0.35,0.145,0.635,0.391,0.848,0.737
			c0.215,0.342,0.319,0.749,0.319,1.218c0,0.491-0.115,0.903-0.354,1.237c-0.233,0.33-0.59,0.581-1.067,0.749l1.777,3.333h-1.561
			l-1.686-3.173h-0.13v3.173h-1.428V64.989z M99.949,67.92h0.446c0.453,0,0.766-0.059,0.939-0.18
			c0.17-0.117,0.255-0.315,0.255-0.594c0-0.162-0.041-0.305-0.124-0.426c-0.087-0.121-0.202-0.209-0.342-0.262
			c-0.144-0.051-0.404-0.08-0.783-0.08h-0.391V67.92z"/>
		<path fill="#6D6E71" d="M105.215,64.989h4.095v1.396h-2.678v1.355h2.678v1.374h-2.678v1.974h2.678v1.398h-4.095V64.989z"/>
	</g>
	<g>
		<path fill="#6D6E71" d="M115.661,64.989h3.72v1.39h-2.305v1.361h2.305v1.374h-2.305v3.372h-1.415V64.989z"/>
		<path fill="#6D6E71" d="M125.191,64.8c1.063,0,1.976,0.383,2.739,1.151c0.764,0.77,1.142,1.705,1.142,2.811
			c0,1.091-0.377,2.017-1.128,2.776c-0.753,0.758-1.669,1.136-2.741,1.136c-1.124,0-2.06-0.389-2.803-1.169
			c-0.747-0.776-1.118-1.699-1.118-2.768c0-0.721,0.174-1.378,0.518-1.98c0.348-0.602,0.825-1.081,1.431-1.429
			C123.84,64.976,124.491,64.8,125.191,64.8z M125.176,66.196c-0.692,0-1.275,0.242-1.748,0.723c-0.471,0.485-0.71,1.095-0.71,1.843
			c0,0.827,0.299,1.484,0.893,1.965c0.465,0.377,0.995,0.565,1.593,0.565c0.678,0,1.253-0.244,1.728-0.733
			c0.477-0.491,0.717-1.093,0.717-1.81c0-0.715-0.242-1.314-0.721-1.812C126.448,66.442,125.864,66.196,125.176,66.196z"/>
		<path fill="#6D6E71" d="M130.972,64.989h1.509c0.829,0,1.421,0.074,1.771,0.221c0.352,0.147,0.633,0.393,0.848,0.737
			c0.213,0.344,0.321,0.749,0.321,1.218c0,0.493-0.121,0.905-0.356,1.236c-0.235,0.33-0.592,0.581-1.067,0.751l1.777,3.333h-1.56
			l-1.685-3.175h-0.135v3.175h-1.423V64.989z M132.395,67.92h0.448c0.459,0,0.768-0.061,0.94-0.18
			c0.17-0.119,0.256-0.315,0.256-0.592c0-0.166-0.045-0.309-0.127-0.428c-0.084-0.121-0.201-0.209-0.34-0.262
			c-0.141-0.051-0.403-0.08-0.782-0.08h-0.395V67.92z"/>
	</g>
	<g>
		<path fill="#6D6E71" d="M142.126,64.989h1.425v6.136h2.082v1.361h-3.507V64.989z"/>
		<path fill="#6D6E71" d="M147.346,64.989h1.415v7.497h-1.415V64.989z"/>
		<path fill="#6D6E71" d="M151.119,64.989h3.72v1.39h-2.303v1.361h2.303v1.374h-2.303v3.372h-1.417V64.989z"/>
		<path fill="#6D6E71" d="M156.844,64.989h4.09v1.394h-2.672v1.357h2.672v1.374h-2.672v1.967h2.672v1.404h-4.09V64.989z"/>
	</g>
	<g>
		<path fill="#6D6E71" d="M171.864,66.008l-1.056,0.934c-0.371-0.518-0.747-0.776-1.132-0.776c-0.188,0-0.342,0.051-0.461,0.152
			c-0.119,0.1-0.178,0.213-0.178,0.336c0,0.127,0.043,0.246,0.129,0.358c0.115,0.154,0.463,0.471,1.048,0.966
			c0.543,0.454,0.872,0.739,0.987,0.858c0.291,0.293,0.495,0.573,0.616,0.841c0.117,0.264,0.18,0.557,0.18,0.872
			c0,0.614-0.213,1.122-0.637,1.525c-0.424,0.399-0.981,0.6-1.662,0.6c-0.534,0-0.999-0.129-1.398-0.393
			c-0.393-0.262-0.737-0.674-1.015-1.232l1.198-0.723c0.36,0.661,0.778,0.993,1.249,0.993c0.244,0,0.45-0.07,0.616-0.215
			c0.166-0.141,0.248-0.305,0.248-0.495c0-0.168-0.061-0.336-0.186-0.508c-0.129-0.17-0.405-0.43-0.835-0.782
			c-0.815-0.663-1.343-1.179-1.579-1.539c-0.24-0.36-0.358-0.725-0.358-1.083c0-0.52,0.197-0.964,0.594-1.339
			c0.395-0.368,0.884-0.557,1.468-0.557c0.375,0,0.731,0.086,1.069,0.26C171.103,65.234,171.471,65.548,171.864,66.008z"/>
		<path fill="#6D6E71" d="M180.67,66.307l-0.997,0.95c-0.68-0.716-1.441-1.075-2.293-1.075c-0.715,0-1.319,0.244-1.81,0.733
			c-0.489,0.491-0.735,1.093-0.735,1.812c0,0.497,0.109,0.944,0.328,1.333c0.217,0.385,0.522,0.69,0.919,0.913
			c0.399,0.221,0.839,0.33,1.324,0.33c0.414,0,0.792-0.076,1.136-0.233c0.342-0.152,0.721-0.434,1.13-0.841l0.966,1.009
			c-0.555,0.54-1.077,0.913-1.57,1.124c-0.491,0.207-1.052,0.313-1.685,0.313c-1.163,0-2.121-0.368-2.86-1.11
			c-0.743-0.739-1.116-1.683-1.116-2.84c0-0.747,0.17-1.415,0.506-1.994c0.342-0.579,0.825-1.05,1.454-1.4
			c0.631-0.352,1.308-0.53,2.037-0.53c0.618,0,1.214,0.129,1.785,0.389C179.763,65.453,180.256,65.824,180.67,66.307z"/>
		<path fill="#6D6E71" d="M182.545,64.989h1.419v7.497h-1.419V64.989z"/>
		<path fill="#6D6E71" d="M186.511,64.989h4.094v1.394h-2.676v1.357h2.676v1.374h-2.676v1.967h2.676v1.404h-4.094V64.989z"/>
		<path fill="#6D6E71" d="M192.734,64.989h1.372l3.206,4.932v-4.932h1.427v7.497h-1.374l-3.2-4.918v4.918h-1.431V64.989z"/>
		<path fill="#6D6E71" d="M207.798,66.307l-0.999,0.95c-0.678-0.716-1.441-1.075-2.289-1.075c-0.717,0-1.323,0.244-1.812,0.733
			c-0.489,0.491-0.737,1.093-0.737,1.812c0,0.497,0.111,0.944,0.326,1.333c0.217,0.385,0.524,0.69,0.923,0.913
			c0.395,0.221,0.837,0.33,1.325,0.33c0.414,0,0.792-0.076,1.136-0.233c0.34-0.152,0.717-0.434,1.128-0.841l0.968,1.009
			c-0.555,0.54-1.077,0.913-1.57,1.124c-0.493,0.207-1.056,0.313-1.685,0.313c-1.169,0-2.121-0.368-2.864-1.11
			c-0.743-0.739-1.114-1.683-1.114-2.84c0-0.747,0.174-1.415,0.508-1.994c0.338-0.579,0.823-1.05,1.456-1.4
			c0.629-0.352,1.308-0.53,2.035-0.53c0.618,0,1.214,0.129,1.785,0.389C206.887,65.453,207.383,65.824,207.798,66.307z"/>
		<path fill="#6D6E71" d="M209.782,64.989h4.09v1.394h-2.672v1.357h2.672v1.374h-2.672v1.967h2.672v1.404h-4.09V64.989z"/>
		<path fill="#6D6E71" d="M219.867,66.008l-1.054,0.934c-0.373-0.518-0.751-0.776-1.134-0.776c-0.188,0-0.338,0.051-0.459,0.152
			c-0.119,0.1-0.178,0.213-0.178,0.336c0,0.127,0.039,0.246,0.125,0.358c0.117,0.154,0.465,0.471,1.048,0.966
			c0.543,0.454,0.874,0.739,0.991,0.858c0.289,0.293,0.493,0.573,0.614,0.841c0.121,0.264,0.18,0.557,0.18,0.872
			c0,0.614-0.211,1.122-0.635,1.525c-0.428,0.399-0.983,0.6-1.664,0.6c-0.534,0-1.001-0.129-1.394-0.393
			c-0.399-0.262-0.735-0.674-1.022-1.232l1.2-0.723c0.362,0.661,0.778,0.993,1.247,0.993c0.246,0,0.45-0.07,0.616-0.215
			c0.168-0.141,0.25-0.305,0.25-0.495c0-0.168-0.059-0.336-0.188-0.508c-0.125-0.17-0.401-0.43-0.831-0.782
			c-0.817-0.663-1.345-1.179-1.585-1.539c-0.235-0.36-0.354-0.725-0.354-1.083c0-0.52,0.199-0.964,0.594-1.339
			c0.395-0.368,0.886-0.557,1.468-0.557c0.373,0,0.729,0.086,1.069,0.26C219.109,65.234,219.474,65.548,219.867,66.008z"/>
	</g>
</g>
</svg>
