<?xml version="1.0" encoding="utf-8"?>
<svg xmlns="http://www.w3.org/2000/svg" width="174.022" height="55" viewBox="0 0 174.022 55">
  <defs>
    <style>
      .cls-1 {
        fill: #c2e1f3;
      }

      .cls-2 {
        fill: #002551;
      }
    </style>
  </defs>
  <g id="Gruppe_228" data-name="Gruppe 228" transform="translate(-16.171 -17.008)">
    <rect id="Rechteck_192" data-name="Rechteck 192" class="cls-1" width="34.465" height="34.465" transform="translate(34.32 18.996)"/>
    <path id="Pfad_49" data-name="Pfad 49" class="cls-2" d="M92.514,71.141V55.929h13.768V71.141h7.025v-34.8h-7.025V50.038H92.514V36.345H85.489v34.8Zm34.869-34.8h-7.025v34.8h7.025Zm21.559,34.8V42.229h10.3V36.345H131.587v5.885h10.327V71.141Zm16.265-2.431q3.54,3.05,10.138,3.05a19.783,19.783,0,0,0,7.572-1.268,9.963,9.963,0,0,0,4.7-3.885,10.231,10.231,0,0,0,1.663-5.6,10.347,10.347,0,0,0-1.388-5.541,9.773,9.773,0,0,0-3.845-3.538,34.293,34.293,0,0,0-7.584-2.506q-5.128-1.207-6.46-2.327a2.659,2.659,0,0,1-1.041-2.111,2.533,2.533,0,0,1,1.112-2.159,8.038,8.038,0,0,1,4.8-1.259,7.086,7.086,0,0,1,4.45,1.175,5.968,5.968,0,0,1,1.935,3.857l7.028-.308a10.133,10.133,0,0,0-3.478-7.667q-3.31-2.875-9.863-2.874a17.449,17.449,0,0,0-6.848,1.212,9.445,9.445,0,0,0-4.345,3.523,8.952,8.952,0,0,0-1.508,4.976,9.052,9.052,0,0,0,3.2,7q2.284,2.041,7.931,3.442Q177.764,57,179,57.425a5.763,5.763,0,0,1,2.524,1.507,3.155,3.155,0,0,1,.727,2.1,4.271,4.271,0,0,1-1.722,3.359,7.833,7.833,0,0,1-5.114,1.435,7.554,7.554,0,0,1-5.093-1.614,8.319,8.319,0,0,1-2.5-5.054l-6.836.664q.685,5.841,4.222,8.891" transform="translate(0.916 0.248)"/>
    <path id="Pfad_50" data-name="Pfad 50" class="cls-2" d="M70.768,36.229a1.981,1.981,0,0,0-1.6-1.943V20.933a1.981,1.981,0,1,0-2.324-2.317H53.5a1.979,1.979,0,0,0-3.888,0H36.265a1.98,1.98,0,0,0-3.889,0H16.171L32.676,35.121a1.982,1.982,0,0,0,2.751,2.751L42.4,44.845l-6.973,6.972a1.982,1.982,0,0,0-2.751,2.751l-16.5,16.5H17.25L33.214,55.1a1.982,1.982,0,0,0,2.751-2.75l6.972-6.973,6.972,6.972A1.982,1.982,0,0,0,52.66,55.1L69.166,71.611V55.4a1.98,1.98,0,0,0,0-3.887V38.172A1.982,1.982,0,0,0,70.768,36.229Zm-34.8,1.106a1.982,1.982,0,0,0-2.75-2.751L18,19.376H32.377a1.981,1.981,0,0,0,3.886,0H49.61a1.981,1.981,0,0,0,3.886,0H66.843a1.962,1.962,0,0,0,.3.724L52.66,34.584a1.982,1.982,0,0,0-2.751,2.751l-6.972,6.972ZM53.2,54.568a1.982,1.982,0,0,0-2.75-2.751l-6.973-6.972,6.973-6.972a1.981,1.981,0,0,0,2.75-2.751L67.683,20.636a1.966,1.966,0,0,0,.723.3V34.285a1.98,1.98,0,0,0,0,3.887V51.517a1.98,1.98,0,0,0,0,3.888V69.776Z" transform="translate(0 0)"/>
  </g>
</svg>
