<?xml version="1.0" encoding="UTF-8" standalone="no"?>
<svg
   xmlns:dc="http://purl.org/dc/elements/1.1/"
   xmlns:cc="http://creativecommons.org/ns#"
   xmlns:rdf="http://www.w3.org/1999/02/22-rdf-syntax-ns#"
   xmlns:svg="http://www.w3.org/2000/svg"
   xmlns="http://www.w3.org/2000/svg"
   xmlns:sodipodi="http://sodipodi.sourceforge.net/DTD/sodipodi-0.dtd"
   xmlns:inkscape="http://www.inkscape.org/namespaces/inkscape"
   height="390.26004"
   width="923.0769"
   viewBox="-48.855 -34.425 325.69999 100.76026"
   version="1.1"
   id="svg10"
   sodipodi:docname="logo-university-of-manchester.svg"
   inkscape:version="0.92.5 (2060ec1f9f, 2020-04-08)">
  <metadata
     id="metadata16">
    <rdf:RDF>
      <cc:Work
         rdf:about="">
        <dc:format>image/svg+xml</dc:format>
        <dc:type
           rdf:resource="http://purl.org/dc/dcmitype/StillImage" />
        <dc:title></dc:title>
      </cc:Work>
    </rdf:RDF>
  </metadata>
  <defs
     id="defs14" />
  <sodipodi:namedview
     pagecolor="#ffffff"
     bordercolor="#666666"
     borderopacity="1"
     objecttolerance="10"
     gridtolerance="10"
     guidetolerance="10"
     inkscape:pageopacity="0"
     inkscape:pageshadow="2"
     inkscape:window-width="1920"
     inkscape:window-height="968"
     id="namedview12"
     showgrid="false"
     inkscape:zoom="1.1566667"
     inkscape:cx="461.53846"
     inkscape:cy="195.13002"
     inkscape:window-x="0"
     inkscape:window-y="27"
     inkscape:window-maximized="1"
     inkscape:current-layer="svg10" />
  <path
     d="m -48.755,-52.527534 h 325.5 v 101.1 h -325.5 z"
     id="path2"
     inkscape:connector-curvature="0"
     style="fill:#6b2c90" />
  <path
     d="m 167.045,-18.127534 c 0,-2.3 2,-3.7 5,-3.7 3.1,0 5.9,2 7.2,4.9 h 0.7 l -0.6,-4.4 c -1.5,-0.7 -4.8,-1.7 -7.7,-1.7 -4.5,0 -7.8,2.9 -7.8,6.3 0,7.0999997 14.2,8.6999997 14.2,14.5999999 0,3.2000001 -3.2,4.6000002 -6.1,4.6000002 -3.5,0 -6.7,-2.10000013 -7.6,-6.1000001 h -0.8 l 0.9,6.1000001 c 2.3,0.6 5.4,1.4 7.9,1.4 5.2,0 9,-3.40000013 9,-7.3000001 -0.2,-7.6 -14.3,-8.9 -14.3,-14.7 m 14.8,-4.4 h 20.9 l 0.6,5.6 h -0.7 c -0.6,-3.6 -1.4,-4 -3,-4 h -5.6 v 20.1999999 c 0,2.2000001 0.7,3.0000002 3.2,3.0000002 h 0.9 v 0.8 h -11.7 v -0.8 h 0.9 c 2.5,0 3.2,-0.8000001 3.2,-3.0000002 V -20.927534 h -5.6 c -1.6,0 -2.3,0.4 -2.9,4 h -0.7 z m -21.7,1 c -0.6,-4.1 -1.9,-4.4 -3.6,-4.4 h -11 v 12 h 8.6 c 1.8,0 2.6,-0.2 2.9,-3.1 h 0.9 v 8.2999997 h -0.9 c -0.4,-3.4999997 -1.3,-3.2999997 -3.4,-3.2999997 h -8.1 v 10.4999999 c 0,2.30000007 1,2.7000001 2.9,2.7000001 h 7.4 c 3.4,0 4.5,-0.70000003 5.7,-4.9 h 0.9 l -0.8,6.7000001 h -24.4 v -0.9 c 3.9,-0.1 4.2,-0.6000001 4.2,-3.6000002 V -23.027534 c 0,-3 -0.3,-3.6 -4.2,-3.6 v -0.9 h 23.4 l 0.4,6.1 h -0.9 z m 24,49.500001 h -0.7 c -0.5,2.399999 -1.2,2.999999 -3.2,2.999999 h -9.2 c 4.9,-4.299999 12.4,-9.899999 12.4,-15.799999 0,-3.9 -3,-6.9000009 -7.1,-6.9000009 -4.2,0 -7.4,3.0000009 -7.9,7.5000009 h 0.6 c 0.9,-3.2 3.4,-5.3 6.1,-5.3 2.9,0 5.1,2.3 5.1,5.2 0,7 -11.4,15.599999 -12.4,16.599999 v 1.1 h 15.5 l 0.3,-2.4 z m -46.6,5.399999 v -0.9 c 3.7,0 3.9,-0.6 3.9,-2.6 V 11.672467 c -1.3,1.1 -3.6,2.5 -5.1,3.2 l -0.3,-0.6 c 2.4,-1.5 5.8,-4.5000003 6.8,-5.8000009 h 1.4 V 29.272467 c 0,2.499999 0.5,2.999999 4.2,3.099999 v 0.9 h -10.9 z m 47,-6.999999 v -0.9 l 12.4,-16.9000009 h 1.2 V 24.472467 h 3.2 v 2 h -3.2 v 6.999999 h -2.8 v -6.999999 h -10.8 m 10.8,-14.1 -8.8,12.1 h 8.8 z m -35.3,7.4 c 4.5,1.8 6.5,3.8 6.5,6.9 0,4.099999 -3.7,7.199999 -8.4,7.199999 -4.6,0 -8.3,-2.9 -8.3,-6.399999 0,-2.7 2.1,-5 6.3,-6.5 -4,-1.6 -6,-3.6 -6,-6.2 0,-3.4 3.6,-6.3000009 7.8,-6.3000009 4.2,0 7.7,2.5000009 7.7,5.6000009 0.1,2.4 -1.8,4.3 -5.6,5.7 m -3.1,1.5 c -2.9,1.4 -4.7,3.5 -4.7,6 0,3.299999 2.6,5.499999 5.9,5.499999 3.2,0 5.9,-2.1 5.9,-5.099999 0,-2.6 -2.1,-4.4 -7.1,-6.4 m 1,-12.0000006 c -3,0 -5.5,1.7000006 -5.5,4.1000006 0,2.2 1.2,3.6 6.8,5.8 2.4,-1.4 4.1,-3.1 4.1,-5.3 0,-2.8 -2.4,-4.6000006 -5.4,-4.6000006 z"
     id="path4"
     inkscape:connector-curvature="0"
     style="fill:#ffd300" />
  <path
     d="m 225.545,-21.527534 -0.4,-6.1 h -23.4 v 0.9 c 3.9,0.1 4.2,0.6 4.2,3.6 v 21.4999999 c 0,3.0000001 -0.3,3.5000002 -4.2,3.6000002 v 0.9 h 24.4 l 0.8,-6.7000001 h -0.9 c -1.2,4.19999997 -2.3,4.9 -5.7,4.9 h -7.4 c -1.8,0 -2.9,-0.40000003 -2.9,-2.7000001 V -11.927534 h 8.1 c 2,0 3,-0.2 3.4,3.2999997 h 0.9 v -8.2999997 h -0.9 c -0.2,2.9 -1.1,3.1 -2.9,3.1 h -8.6 v -12 h 11 c 1.7,0 3,0.3 3.6,4.4 h 0.9 m -163.7,-6.2 v 0.9 c 3.9,0.1 4.2,0.6 4.2,3.6 v 19.6 l -20.6,-24.1 h -7.4 v 0.9 c 1.7,0 2.6,0.4 3.8,1.2 v 24.1999999 c 0,1.90000007 -0.7,3.2000002 -2.4,3.2000002 -1.3,0 -1.9,-1.50000013 -2.6,-3.0000002 l -11.5,-26.4999999 h -3.5 l -10.6,24.8 c -1.9,4.1 -2.2,4.8000001 -3.3,4.8000001 -1.3,0 -1.7,-1.10000013 -1.9,-4.4000001 l -1.5,-21.7 c 0,-1.9 0.6,-2.6 4.3,-2.6 v -0.9 h -8.3 l -10.8,24.9 -10.9,-24.9 h -8.7 v 0.9 c 3.7,0 4.3,0.6 4.3,2.6 l -1.3,21 c -0.2,4.5 -0.7,5.3000001 -4.3,5.3000001 v 0.9 h 10.3 v -0.9 c -2.2,-0.1 -4.1,-0.6 -3.9,-3.2000002 l 1.3,-22.1999999 h 0.1 l 11.5,26.3000001 h 1.1 l 11.2,-26.3000001 h 0.1 l 1.4,22.0999999 c 0.2,2.6000001 -2.1,3.3000002 -4.4,3.3000002 v 0.9 h 19 v -0.9 h -0.2 c -2.7,0 -4,-0.5 -4,-1.80000013 0,-0.70000003 0.6,-2.20000007 1,-3.09999997 l 2.7,-6.5000003 h 13.1 l 3.2,7.7000002 c 0.2,0.5 0.5,1.20000004 0.5,2.00000007 0,1.40000013 -1,1.70000013 -3.8,1.70000013 h -0.7 v 0.9 h 20.1 v -0.9 c -4.2,0 -4.4,-0.7000001 -4.4,-4.3000002 V -23.327534 l 22.9,26.7000001 h 1.3 V -24.127534 c 0,-1.9 0.2,-2.6 3.9,-2.6 v -0.9 z m -44.8,16.4 5.6,-13.4 5.6,13.4 z m 119.5,13.3000001 v 0.9 h -12.2 v -0.9 c 3.7,-0.1 4.2,-0.6000001 4.2,-3.2000002 V -11.927534 h -18.1 v 10.3999999 c 0,3.0000001 0.3,3.5000002 4.2,3.6000002 v 0.9 h -12.2 v -0.9 c 3.7,0 3.9,-0.6000001 3.9,-2.6000002 V -24.127534 c 0,-1.9 -0.2,-2.6 -3.9,-2.6 v -0.9 h 12.2 v 0.9 c -3.9,0.1 -4.2,0.6 -4.2,3.6 v 9.2 h 18.1 v -9.6 c 0,-2.6 -0.5,-3.1 -4.2,-3.2 v -0.9 h 12.2 v 0.9 c -3.7,0 -3.9,0.6 -3.9,2.6 v 23.5999999 c 0,2.0000001 0.2,2.6000002 3.9,2.6000002 z m -47.7,-30.4000001 c 5.2,0 9,1.7 11.3,2.7 l 0.4,6.1 h -0.9 c -1.6,-4.6 -5,-7.6 -10.4,-7.6 -8.2,0 -12.3,6.4 -12.3,14.6 0,8.9 5.4,14.9000001 12.9,14.9000001 2.2,0 7.9,-1.50000013 11.2,-7.5000004 h 0.9 l -2.4,5.80000027 c -2.9,1.40000013 -5.3,3.00000013 -11.1,3.00000013 -10,0 -16,-6.6000001 -16,-15.7000001 0,-9.4 6.1,-16.3 16.4,-16.3 z m 167.1,25.6 -3.9,-3.7000003 c -2.3,-2.3 -3.8,-3.4 -5.6,-4.7999997 4.1,-1.2 6.6,-4.3 6.6,-8 0,-5.1 -4.1,-8.8 -13.3,-8.8 -3.2,0 -4.2,0 -6.2,0.2 -2,0.1 -5.1,0.3 -6.2,0.3 v 0.9 h 1.1 c 2.9,0 3.7,0.9 3.7,4 v 20.6999999 c 0,3.3000001 -1,4.1000002 -4,4.1000002 h -0.8 v 0.9 h 14 v -0.9 h -1.1 c -2.8,0 -4,-0.7000001 -4,-3.7000002 v -8.2000002 c 0.8,0.1 1.4,0.1 2.5,0.1 1.3,0 2.1,0 3.3,-0.1 3.8,2.2 6.7,5.5000003 8.5,7.1000003 4.5,4.3000001 5.6,6.1000001 14.2,5.7000001 v -0.9 c -3.9,-0.3 -5.9,-1.90000016 -8.8,-4.9000001 z m -16.8,-8.2 c -1.1,0 -1.9,0 -3.1,-0.1 v -15.8 c 0.9,-0.1 1.5,-0.1 2.5,-0.1 7.6,0 9.7,3.4 9.7,8 0.1,5.9 -3.6,8 -9.1,8 z m 16.8,8.2 -3.9,-3.7000003 c -2.3,-2.3 -3.8,-3.4 -5.6,-4.7999997 4.1,-1.2 6.6,-4.3 6.6,-8 0,-5.1 -4.1,-8.8 -13.3,-8.8 -3.2,0 -4.2,0 -6.2,0.2 -2,0.1 -5.1,0.3 -6.2,0.3 v 0.9 h 1.1 c 2.9,0 3.7,0.9 3.7,4 v 20.6999999 c 0,3.3000001 -1,4.1000002 -4,4.1000002 h -0.8 v 0.9 h 14 v -0.9 h -1.1 c -2.8,0 -4,-0.7000001 -4,-3.7000002 v -8.2000002 c 0.8,0.1 1.4,0.1 2.5,0.1 1.3,0 2.1,0 3.3,-0.1 3.8,2.2 6.7,5.5000003 8.5,7.1000003 4.5,4.3000001 5.6,6.1000001 14.2,5.7000001 v -0.9 c -3.9,-0.3 -5.9,-1.90000016 -8.8,-4.9000001 z m -16.8,-8.2 c -1.1,0 -1.9,0 -3.1,-0.1 v -15.8 c 0.9,-0.1 1.5,-0.1 2.5,-0.1 7.6,0 9.7,3.4 9.7,8 0.1,5.9 -3.6,8 -9.1,8 z"
     id="path6"
     inkscape:connector-curvature="0"
     style="fill:#ffffff" />
  <path
     d="m -41.355,61.772466 v 16.5 h -2 v -16.5 h -5.5 v -1.8 h 13 v 1.8 h -5.5 m 16.6,16.5 v -8.7 c 0,-2.1 -0.6,-3.3 -2.5,-3.3 -2.4,0 -4.1,2.4 -4.1,5.6 v 6.5 h -2 v -19.7 h 2 v 6.6 c 0,0.9 -0.1,2 -0.2,2.7 h 0.1 c 0.8,-2 2.5,-3.2 4.8,-3.2 3.1,0 4,1.9 4,4.3 v 9.4 h -2.1 m 10.9,-12.3 c -1.9,0 -3.2,1.4 -3.6,3.5 h 6.8 c 0.1,-2.1 -1.1,-3.5 -3.2,-3.5 m 5.3,5 h -9 c -0.1,4 1.5,5.7 4.5,5.7 1.4,0 2.9,-0.4 3.9,-0.9 l 0.2,1.7 c -1.2,0.5 -2.8,0.8 -4.4,0.8 -4.1,0 -6.2,-2.2 -6.2,-6.9 0,-4 2.2,-7 5.9,-7 3.7,0 5.2,2.6 5.2,5.5 0,0.3 0,0.7 -0.1,1.1 z m 15.4,7.3 c -5.7,0 -6.7,-3.2 -6.7,-6.3 v -12.2 h 2.1 v 12 c 0,2.6 0.9,4.8 4.8,4.8 3.4,0 5,-1.4 5,-5.3 v -11.5 h 2 v 11.3 c 0,4.8 -2.4,7.2 -7.2,7.2 m 19.8,-0.2 v -8.7 c 0,-2.1 -0.6,-3.3 -2.5,-3.3 -2.4,0 -4.1,2.4 -4.1,5.6 v 6.5 h -2 v -13.4 h 2 c 0,0.9 -0.1,2.2 -0.2,3 h 0.1 c 0.8,-1.9 2.5,-3.3 4.8,-3.3 3.1,0 4,1.9 4,4.3 v 9.4 h -2.1 m 5.9,-0.1 v -13.4 h 2 v 13.4 h -2 m 1,-15.9 c -0.8,0 -1.4,-0.6 -1.4,-1.4 0,-0.8 0.6,-1.4 1.4,-1.4 0.8,0 1.4,0.6 1.4,1.4 0.1,0.8 -0.6,1.4 -1.4,1.4 z m 10.4,15.9 h -2.1 l -5.1,-13.4 h 2.3 l 3.1,8.8 c 0.3,0.8 0.5,1.6 0.8,2.4 0.2,-0.7 0.5,-1.5 0.7,-2.3 l 3.2,-8.9 h 2.3 l -5.2,13.4 m 11.5,-12.1 c -1.9,0 -3.2,1.4 -3.6,3.5 h 6.8 c 0.1,-2.1 -1.1,-3.5 -3.2,-3.5 m 5.3,5 h -9 c -0.1,4 1.5,5.7 4.5,5.7 1.4,0 2.9,-0.4 3.9,-0.9 l 0.2,1.7 c -1.2,0.5 -2.8,0.8 -4.4,0.8 -4.1,0 -6.2,-2.2 -6.2,-6.9 0,-4 2.2,-7 5.9,-7 3.7,0 5.2,2.6 5.2,5.5 0,0.3 0,0.7 -0.1,1.1 z m 9.7,-4.6 c -3,-0.5 -4.4,1.8 -4.4,6.3 v 5.4 h -2 v -13.4 h 2 c 0,0.9 -0.1,2.2 -0.3,3.4 0.5,-2 1.9,-4 4.8,-3.7 l -0.1,2 m 4.7,11.9 c -1,0 -2,-0.1 -2.8,-0.3 l 0.1,-1.9 c 0.9,0.2 1.9,0.4 3,0.4 1.9,0 3.3,-0.9 3.3,-2.3 0,-3.2 -6.5,-1.2 -6.5,-6 0,-2.2 1.8,-3.9 5.2,-3.9 0.8,0 1.8,0.1 2.6,0.3 l -0.1,1.8 c -0.9,-0.3 -1.9,-0.5 -2.8,-0.5 -2,0 -2.9,0.8 -2.9,2.1 0,3.2 6.6,1.4 6.6,6 -0.1,2.5 -2.2,4.3 -5.7,4.3 m 8.7,-0.2 v -13.4 h 2 v 13.4 h -2 m 1.1,-15.9 c -0.8,0 -1.4,-0.6 -1.4,-1.4 0,-0.8 0.6,-1.4 1.4,-1.4 0.8,0 1.4,0.6 1.4,1.4 0,0.8 -0.7,1.4 -1.4,1.4 z m 9.3,16.1 c -2.7,0 -3.5,-1.2 -3.5,-4 v -8 h -2.9 v -1.6 h 2.9 v -4.5 l 2,-0.6 v 5 h 3.9 v 1.6 h -3.9 v 7.2 c 0,2.4 0.4,3 2,3 0.7,0 1.4,-0.1 1.9,-0.2 v 1.8 c -0.6,0.2 -1.5,0.3 -2.4,0.3 m 9.9,1.2 c -1.6,4.1 -2.8,5.5 -5.7,5.5 -0.5,0 -1.2,-0.1 -1.7,-0.1 l 0.2,-1.9 c 0.5,0.2 1.1,0.3 1.7,0.3 1.6,0 2.4,-0.8 3.5,-3.6 l 0.6,-1.6 -5.1,-13.4 h 2.3 l 2.8,7.7 c 0.4,1.2 0.7,2.2 1,3.2 0.2,-0.9 0.8,-2.5 1.4,-4.1 l 2.4,-6.8 h 2.2 l -5.6,14.8 m 18.1,-13.4 c -2.1,0 -4.1,1.6 -4.1,5.2 0,3.4 1.5,5.3 4.1,5.3 2.1,0 4,-1.6 4,-5.3 0,-3.3 -1.4,-5.2 -4,-5.2 m -0.3,12.2 c -3.6,0 -5.9,-2.2 -5.9,-6.9 0,-3.8 2.4,-7 6.4,-7 3.3,0 6,1.8 6,6.7 -0.1,4.1 -2.6,7.2 -6.5,7.2 z m 17.3,-18.1 c -0.7,-0.2 -1.4,-0.3 -2.1,-0.3 -2.1,0 -3,1.2 -3,3.8 v 1 h 4 v 1.6 h -4 v 11.8 h -2 v -11.8 h -2.9 v -1.6 h 2.9 v -0.9 c 0,-3.8 1.9,-5.5 5.1,-5.5 0.8,0 1.5,0.1 2.2,0.2 l -0.2,1.7 m 24.4,17.9 -1.6,-11.3 c -0.3,-2.2 -0.5,-3.6 -0.6,-4.6 h -0.1 c -0.2,0.8 -0.5,1.8 -0.9,3.1 l -4.3,12.8 h -2.4 l -4.1,-12 c -0.5,-1.3 -0.9,-2.8 -1.2,-3.9 -0.1,1.5 -0.3,2.9 -0.5,4.8 l -1.3,11 h -2.1 l 2.6,-18.3 h 2.6 l 4.2,12.3 c 0.5,1.3 0.8,2.5 1,3.5 h 0.1 c 0.3,-1.2 0.5,-2.1 1,-3.4 l 4.3,-12.5 h 2.7 l 2.7,18.3 h -2.1 m 12.7,-6.1 c -5.1,0 -6.1,1.6 -6.1,2.9 0,1.2 0.9,2 2.2,2 2.4,0 3.9,-2.4 3.9,-4.7 v -0.2 m 0.1,6.3 c 0,-1 0,-2.1 0.1,-2.8 h -0.1 c -0.6,1.7 -2.4,3.1 -4.7,3.1 -2.1,0 -3.7,-1.1 -3.7,-3.3 0,-2.8 2.9,-4.8 8.2,-4.8 v -1.1 c 0,-2 -0.7,-3.2 -3.1,-3.2 -1.3,0 -2.9,0.4 -4.1,1.2 l -0.2,-1.8 c 1.3,-0.6 2.8,-1 4.7,-1 3.7,0 4.8,1.8 4.8,4.4 v 5.3 c 0,1.3 0,2.8 0.1,4 z m 14.5,0 v -8.7 c 0,-2.1 -0.6,-3.3 -2.5,-3.3 -2.4,0 -4.1,2.4 -4.1,5.6 v 6.5 h -2 v -13.4 h 2 c 0,0.9 -0.1,2.2 -0.2,3 h 0.1 c 0.8,-1.9 2.5,-3.3 4.8,-3.3 3.1,0 4,1.9 4,4.3 v 9.4 h -2.1 m 10.9,0.1 c -3,0 -5.8,-1.3 -5.8,-6.4 0,-4.4 2.2,-7.4 6.6,-7.4 1.1,0 2.2,0.2 3.2,0.5 l -0.2,1.8 c -0.9,-0.4 -1.9,-0.6 -3.1,-0.6 -2.9,0 -4.3,2.1 -4.3,5.4 0,2.8 0.9,5 4.1,5 1.2,0 2.5,-0.3 3.4,-0.8 l 0.2,1.8 c -1,0.3 -2.4,0.7 -4.1,0.7 m 15.5,-0.2 v -8.7 c 0,-2.1 -0.6,-3.3 -2.5,-3.3 -2.4,0 -4.1,2.4 -4.1,5.6 v 6.5 h -2 v -19.7 h 2 v 6.6 c 0,0.9 -0.1,2 -0.2,2.7 h 0.1 c 0.8,-2 2.5,-3.2 4.8,-3.2 3.1,0 4,1.9 4,4.3 v 9.4 h -2.1 m 10.9,-12.3 c -1.9,0 -3.2,1.4 -3.6,3.5 h 6.8 c 0.1,-2.1 -1.1,-3.5 -3.2,-3.5 m 5.3,5 h -9 c -0.1,4 1.5,5.7 4.5,5.7 1.4,0 2.9,-0.4 3.9,-0.9 l 0.2,1.7 c -1.2,0.5 -2.8,0.8 -4.4,0.8 -4.1,0 -6.2,-2.2 -6.2,-6.9 0,-4 2.2,-7 5.9,-7 3.7,0 5.2,2.6 5.2,5.5 0,0.3 0,0.7 -0.1,1.1 z m 5.4,7.3 c -1,0 -2,-0.1 -2.8,-0.3 l 0.1,-1.9 c 0.9,0.2 1.9,0.4 3,0.4 1.9,0 3.3,-0.9 3.3,-2.3 0,-3.2 -6.5,-1.2 -6.5,-6 0,-2.2 1.8,-3.9 5.2,-3.9 0.8,0 1.8,0.1 2.6,0.3 l -0.1,1.8 c -0.9,-0.3 -1.9,-0.5 -2.8,-0.5 -2,0 -2.9,0.8 -2.9,2.1 0,3.2 6.6,1.4 6.6,6 -0.1,2.5 -2.2,4.3 -5.7,4.3 m 13,0 c -2.7,0 -3.5,-1.2 -3.5,-4 v -8 h -2.9 v -1.6 h 2.9 v -4.5 l 2,-0.6 v 5 h 3.9 v 1.6 h -3.9 v 7.2 c 0,2.4 0.4,3 2,3 0.7,0 1.4,-0.1 1.9,-0.2 v 1.8 c -0.6,0.2 -1.6,0.3 -2.4,0.3 m 10,-12.3 c -1.9,0 -3.2,1.4 -3.6,3.5 h 6.8 c 0.1,-2.1 -1.2,-3.5 -3.2,-3.5 m 5.3,5 h -9 c -0.1,4 1.5,5.7 4.5,5.7 1.4,0 2.9,-0.4 3.9,-0.9 l 0.2,1.7 c -1.2,0.5 -2.8,0.8 -4.4,0.8 -4.1,0 -6.2,-2.2 -6.2,-6.9 0,-4 2.2,-7 5.9,-7 3.7,0 5.2,2.6 5.2,5.5 -0.1,0.3 -0.1,0.7 -0.1,1.1 z m 9.5,-4.6 c -3,-0.5 -4.4,1.8 -4.4,6.3 v 5.4 h -2 v -13.4 h 2 c 0,0.9 -0.1,2.2 -0.3,3.4 0.5,-2 1.9,-4 4.8,-3.7 l -0.1,2"
     id="path8"
     inkscape:connector-curvature="0"
     style="fill:#737373" />
</svg>
