<?xml version="1.0" encoding="UTF-8" standalone="no"?>
<!-- Created with Inkscape (http://www.inkscape.org/) -->

<svg
   xmlns:dc="http://purl.org/dc/elements/1.1/"
   xmlns:cc="http://creativecommons.org/ns#"
   xmlns:rdf="http://www.w3.org/1999/02/22-rdf-syntax-ns#"
   xmlns:svg="http://www.w3.org/2000/svg"
   xmlns="http://www.w3.org/2000/svg"
   xmlns:sodipodi="http://sodipodi.sourceforge.net/DTD/sodipodi-0.dtd"
   xmlns:inkscape="http://www.inkscape.org/namespaces/inkscape"
   id="svg7122"
   version="1.1"
   inkscape:version="0.48.5 r10040"
   xml:space="preserve"
   width="713.16632"
   height="380.02206"
   viewBox="0 0 713.16632 380.02206"
   sodipodi:docname="nbislogo-text-orange-mm-4.svg"><metadata
     id="metadata7128"><rdf:RDF><cc:Work
         rdf:about=""><dc:format>image/svg+xml</dc:format><dc:type
           rdf:resource="http://purl.org/dc/dcmitype/StillImage" /><dc:title /></cc:Work></rdf:RDF></metadata><defs
     id="defs7126" /><sodipodi:namedview
     pagecolor="#ffffff"
     bordercolor="#000000"
     borderopacity="0"
     objecttolerance="10"
     gridtolerance="10"
     guidetolerance="10"
     inkscape:pageopacity="0"
     inkscape:pageshadow="2"
     inkscape:window-width="1586"
     inkscape:window-height="916"
     id="namedview7124"
     showgrid="false"
     fit-margin-top="0"
     fit-margin-left="0"
     fit-margin-right="0"
     fit-margin-bottom="0"
     inkscape:zoom="1.0263264"
     inkscape:cx="245.84634"
     inkscape:cy="287.42954"
     inkscape:window-x="55"
     inkscape:window-y="57"
     inkscape:window-maximized="0"
     inkscape:current-layer="g7130"
     showguides="true"
     inkscape:guide-bbox="true"
     borderlayer="false" /><g
     id="g7130"
     inkscape:groupmode="layer"
     inkscape:label="ink_ext_XXXXXX"
     transform="matrix(1.25,0,0,-1.25,-35.076172,380.02206)"><path
       inkscape:connector-curvature="0"
       id="path7134"
       style="fill:#8f3b1b;fill-opacity:1;fill-rule:nonzero;stroke:none"
       d="m 367.927,292.638 0,0 c -0.85,1.678 -2.571,2.737 -4.453,2.737 l -4.067,0 c -2.049,0 -3.381,-2.158 -2.462,-3.99 l 6.799,-13.56 6.209,-10.562 c 4.875,-8.292 11.477,-15.437 19.358,-20.95 l 40.424,-28.281 c 5.497,-3.846 10.172,-8.749 13.752,-14.423 l 13.194,-21.202 1.932,17.081 -10.634,18.964 c -3.041,5.423 -7.322,10.051 -12.493,13.505 l -43.778,29.241 -4.241,3.866 c -6.856,6.251 -12.518,13.697 -16.707,21.976 l -2.833,5.598" /><path
       inkscape:connector-curvature="0"
       id="path7136"
       style="fill:#8f3b1b;fill-opacity:1;fill-rule:nonzero;stroke:none"
       d="m 391.895,134.173 0,0 -14.611,13.321 -8.774,21.492 0.319,8.239 -4.262,-14.725 2.298,-9.005 c 2.611,-10.238 8.977,-19.119 17.833,-24.881 l 38.252,-24.888 c 3.76,-2.446 8.148,-3.7479 12.634,-3.7479 l 1.574,0 c 3.975,0 5.374,5.2699 1.922,7.2409 l -47.185,26.954" /><path
       inkscape:connector-curvature="0"
       id="path7138"
       style="fill:#8f3b1b;fill-opacity:1;fill-rule:nonzero;stroke:none"
       d="m 455.814,266.492 0,0 0.167,-0.315 c 0.747,-1.405 0.904,-3.05 0.436,-4.571 l -1.657,-5.382 c -0.494,-1.606 -2.592,-1.991 -3.624,-0.664 l -21.868,28.116 c -2.33,2.997 -0.063,7.346 3.728,7.151 l 6.802,-0.348 c 2.085,-0.107 3.96,-1.301 4.94,-3.144 l 11.076,-20.843" /><path
       inkscape:connector-curvature="0"
       id="path7140"
       style="fill:#85be42;fill-opacity:1;fill-rule:nonzero;stroke:none"
       d="m 443.887,281.032 0,0 c 1.154,-2.174 -0.585,-4.756 -3.034,-4.504 l -32.02,3.304 c -0.209,0.022 -0.42,0.022 -0.629,0 l -35.885,-3.675 c -1.293,-0.133 -2.53,0.562 -3.09,1.735 l -3.779,7.912 c -1.09,2.282 0.886,4.831 3.368,4.346 l 38.476,-7.524 c 0.306,-0.06 0.62,-0.073 0.93,-0.039 l 30.012,3.329 c 1.743,0.194 3.428,-0.696 4.25,-2.245 l 1.401,-2.639" /><path
       inkscape:connector-curvature="0"
       id="path7142"
       style="fill:#85be42;fill-opacity:1;fill-rule:nonzero;stroke:none"
       d="m 453.697,259.865 0,0 c 0.241,-0.399 0.389,-0.847 0.431,-1.312 l 0,0 c 0.177,-1.93 -1.454,-3.541 -3.382,-3.341 l -26.633,2.763 c -0.189,0.02 -0.38,0.022 -0.569,0.007 l -33.982,-2.793 c -0.855,-0.071 -1.7,0.219 -2.332,0.799 l -2.997,2.747 c -2.168,1.988 -0.578,5.594 2.352,5.333 l 36.252,-3.222 c 0.32,-0.029 0.643,-0.007 0.957,0.065 l 22.313,5.091 c 2.036,0.464 4.14,-0.429 5.22,-2.216 l 2.37,-3.921" /><path
       inkscape:connector-curvature="0"
       id="path7144"
       style="fill:#85be42;fill-opacity:1;fill-rule:nonzero;stroke:none"
       d="m 412.438,241.871 18.351,-3.063 c 0.523,-0.087 1.059,-0.038 1.557,0.143 l 7.529,2.732 c 2.437,0.884 4.808,-1.456 3.956,-3.904 l -0.146,-0.422 c -0.46,-1.321 -1.753,-2.166 -3.148,-2.057 l -8.299,0.653 c -0.43,0.034 -0.862,-0.023 -1.268,-0.167 l -9.747,-3.452 c -1.126,-0.398 -2.381,-0.11 -3.219,0.741 l -6.637,6.734 c -0.83,0.843 -0.096,2.257 1.071,2.062" /><path
       inkscape:connector-curvature="0"
       id="path7146"
       style="fill:#85be42;fill-opacity:1;fill-rule:nonzero;stroke:none"
       d="m 372.962,148.345 0,0 c 0.482,-1.474 1.986,-2.36 3.509,-2.065 l 19.056,3.685 c 0.247,0.048 0.499,0.065 0.75,0.052 l 14.136,-0.762 c 1.217,-0.066 2.358,0.593 2.91,1.68 l 0.499,0.983 c 1.193,2.351 -0.929,5.015 -3.487,4.379 l -13.843,-3.442 c -0.391,-0.097 -0.798,-0.117 -1.196,-0.057 l -21.991,3.276 c -1.385,0.206 -2.503,-1.117 -2.068,-2.448 l 1.725,-5.281" /><path
       inkscape:connector-curvature="0"
       id="path7148"
       style="fill:#85be42;fill-opacity:1;fill-rule:nonzero;stroke:none"
       d="m 437.76,217.472 -4.777,-2.32 c -0.432,-0.21 -0.907,-0.316 -1.387,-0.309 l -19.538,0.271 c -1.444,0.02 -2.708,-0.966 -3.038,-2.372 l -1.05,-4.463 c -0.557,-2.366 1.72,-4.412 4.013,-3.609 l 20.402,7.152 c 0.514,0.18 1.066,0.22 1.6,0.117 l 4.983,-0.959 c 2.647,-0.509 4.623,2.39 3.181,4.668 l -0.444,0.702 c -0.838,1.323 -2.536,1.806 -3.945,1.122" /><path
       inkscape:connector-curvature="0"
       id="path7150"
       style="fill:#85be42;fill-opacity:1;fill-rule:nonzero;stroke:none"
       d="m 454.034,195.286 0,0 c 0.757,-2.052 -0.808,-4.217 -2.994,-4.141 l -24.365,0.846 c -0.235,0.008 -0.47,-0.01 -0.7,-0.056 l -39.713,-7.801 c -2.677,-0.526 -4.663,2.434 -3.163,4.712 l 5.231,7.944 c 0.636,0.965 1.758,1.492 2.907,1.366 l 34.628,-3.813 c 0.303,-0.033 0.609,-0.022 0.908,0.035 l 23.202,4.384 c 1.498,0.283 2.981,-0.557 3.509,-1.987 l 0.55,-1.489" /><path
       inkscape:connector-curvature="0"
       id="path7152"
       style="fill:#85be42;fill-opacity:1;fill-rule:nonzero;stroke:none"
       d="m 421.342,113.879 0,0 c 2.585,-1.802 1.111,-5.864 -2.028,-5.589 l -21.113,1.513 c -0.251,-0.009 -0.499,-0.017 -0.749,-0.026 l -23.044,-3.245 c -2.579,-0.363 -4.415,2.442 -3.05,4.66 l 2.703,4.395 c 0.711,1.155 2.094,1.709 3.405,1.363 l 19.63,-5.175 c 0.495,-0.13 1.016,-0.135 1.513,-0.014 l 18.994,3.22 c 1.114,0.189 2.257,-0.067 3.183,-0.714 l 0.556,-0.388" /><path
       inkscape:connector-curvature="0"
       id="path7154"
       style="fill:#85be42;fill-opacity:1;fill-rule:nonzero;stroke:none"
       d="m 444.008,180.473 -5.912,-11.826 c -0.575,-1.148 -1.801,-1.819 -3.078,-1.683 l -32.188,3.419 c -0.27,0.029 -0.543,0.021 -0.811,-0.022 l -31.345,-5.015 c -2.561,-0.41 -4.45,2.34 -3.147,4.583 l 1.854,3.196 c 0.586,1.01 1.693,1.601 2.859,1.526 l 29.8,-1.911 c 0.255,-0.017 0.51,-0.001 0.761,0.046 l 41.207,7.687 0,0" /><path
       inkscape:connector-curvature="0"
       id="path7156"
       style="fill:#f47d20;fill-opacity:1;fill-rule:nonzero;stroke:none"
       d="m 450.038,253.093 6.643,10.136 -0.364,-15.19 c -0.039,-1.622 -0.595,-3.189 -1.587,-4.473 l -6.894,-8.918 c -5.04,-6.521 -11.016,-12.261 -17.735,-17.035 l -40.959,-29.108 c -2.556,-1.816 -4.898,-3.915 -6.984,-6.256 0,0 -14.115,-14.326 -17.591,-19.749 0.55,2.805 0.695,4.323 0.695,4.323 1.379,8.592 4.918,16.693 10.285,23.543 l 3.408,4.35 c 2.686,3.428 5.874,6.433 9.456,8.911 l 40.17,27.794 c 3.183,2.203 6.157,4.696 8.882,7.446 l 5.857,5.911 c 2.514,2.538 4.765,5.324 6.718,8.315 l 0,0" /><path
       inkscape:connector-curvature="0"
       id="path7158"
       style="fill:#f47d20;fill-opacity:1;fill-rule:nonzero;stroke:none"
       d="m 423.174,165.621 -26.962,-18.656 c -8.72,-6.033 -16.179,-13.708 -21.96,-22.597 l -15.204,-23.375 c -0.678,-1.0418 0.07,-2.42 1.313,-2.42 l 7.102,0 c 1.753,0 3.377,0.9219 4.276,2.427 l 3.672,6.152 c 6.519,10.921 15.239,20.366 25.607,27.733 l 27.793,19.752 c 7.6,5.401 14.703,11.469 21.225,18.131 l 4.553,4.651 c 2.137,2.184 3.385,5.085 3.5,8.138 l 0.524,13.931 -0.039,-0.066 c -2.577,-5.963 -5.279,-8.687 -7.932,-11.598 l -1.134,-1.137 c -0.853,-0.856 -1.756,-1.66 -2.704,-2.408 l -23.63,-18.658" /><path
       style="fill:#f47d20;fill-opacity:1;fill-rule:nonzero;stroke:none"
       d="m 35.076172,7.3027344 0,260.3593756 56.02539,0 0,-150.42578 73.365238,150.42578 66.50976,0 0,-260.3593756 -56.02539,0 0,150.0820356 L 101.13281,7.3027344 Z"
       transform="matrix(0.8,0,0,-0.8,0,309.474)"
       id="path7160"
       inkscape:connector-curvature="0"
       sodipodi:nodetypes="ccccccccccc" /><path
       inkscape:connector-curvature="0"
       id="path7162"
       style="fill:#f47d20;fill-opacity:1;fill-rule:nonzero;stroke:none"
       d="m 251.029,186.097 0,-54.281 28.779,0 c 12.157,0 21.132,2.326 26.926,6.982 5.792,4.652 8.691,11.774 8.691,21.369 0,17.285 -12.348,25.93 -37.042,25.93 l -27.354,0 z m 0,35.046 25.645,0 c 11.967,0 20.633,1.852 26,5.557 5.365,3.704 8.049,9.83 8.049,18.378 0,7.978 -2.92,13.699 -8.761,17.167 -5.841,3.466 -15.08,5.201 -27.71,5.201 l -23.223,0 0,-46.303 z m -44.165,82.489 64.823,0 c 29.538,0 50.979,-4.202 64.325,-12.608 13.343,-8.405 20.017,-21.776 20.017,-40.105 0,-12.444 -2.921,-22.652 -8.762,-30.63 -5.841,-7.979 -13.606,-12.776 -23.293,-14.39 l 0,-1.425 c 13.199,-2.945 22.723,-8.454 28.564,-16.526 5.841,-8.073 8.761,-18.806 8.761,-32.198 0,-18.997 -6.862,-33.814 -20.585,-44.449 -13.727,-10.638 -32.365,-15.9569 -55.92,-15.9569 l -77.93,0 0,208.2879" /><path
       inkscape:connector-curvature="0"
       id="path7164"
       style="fill:#f47d20;fill-opacity:1;fill-rule:nonzero;stroke:none"
       d="m 594.3,154.48948 c 0,-18.32777 -6.767,-32.76526 -20.301,-43.31735 C 560.463,100.62005 541.634,95.3441 517.51,95.3441 c -22.225,0 -41.886,4.072415 -58.982,12.21842 l 0,39.98546 c 14.056,-6.11023 25.952,-10.4137 35.688,-12.91237 9.735,-2.49964 18.64,-3.74799 26.714,-3.74799 9.686,0 17.117,1.8048 22.295,5.41442 5.175,3.60962 7.764,8.97532 7.764,16.10392 0,3.97993 -1.139,7.52036 -3.418,10.62127 -2.28,3.09995 -5.629,6.08587 -10.045,8.95583 -4.416,2.86801 -13.415,7.44922 -26.997,13.74363 -12.729,5.8325 -22.274,11.43111 -28.636,16.8007 -6.364,5.3657 -11.446,11.61431 -15.244,18.74292 -3.8,7.12568 -5.698,15.45683 -5.698,24.98957 0,17.95648 6.243,32.07238 18.734,42.34576 12.488,10.27434 29.751,15.41201 51.787,15.41201 10.827,0 17.16219,-1.47302 26.92311,-4.22923 10.87104,-3.06968 16.42989,-4.32218 26.90789,-8.34952 l 0.5631,-40.83702 c -14.47881,9.59481 -24.41794,12.94566 -32.78115,15.55582 -7.55321,2.35736 -16.01095,2.0386 -23.03795,2.0386 -8.359,0 -14.77,-1.89739 -19.233,-5.69217 -4.465,-3.79575 -6.697,-8.74533 -6.697,-14.85556 0,-3.79575 0.902,-7.10424 2.708,-9.92644 1.803,-2.82416 4.677,-5.55281 8.62,-8.1918 3.94,-2.63705 13.27,-7.38198 27.994,-14.22992 19.468,-9.0718 32.814,-18.166 40.034,-27.28165 7.216,-9.11857 10.827,-20.29435 10.827,-33.52928"
       sodipodi:nodetypes="ccscccscscccccscssccsscscsccc" /><path
       inkscape:connector-curvature="0"
       id="path7166"
       style="fill:#85be42;fill-opacity:1;fill-rule:nonzero;stroke:none"
       d="m 52.133112,43.9039 -4.088749,0 -16.842478,27.1383 -0.169013,0 c 0.224489,-3.184 0.337663,-6.1043 0.337663,-8.7582 l 0,-18.3801 -3.309597,0 0,32.3371 4.047082,0 16.800372,-27.0281 0.168689,0 c -0.0283,0.3973 -0.09159,1.6769 -0.189942,3.8371 -0.09864,2.159 -0.133616,3.7051 -0.105692,4.634 l 0,18.557 3.351665,0 0,-32.3371" /><path
       inkscape:connector-curvature="0"
       id="path7168"
       style="fill:#85be42;fill-opacity:1;fill-rule:nonzero;stroke:none"
       d="m 75.025513,57.573 -3.583541,10.0192 c -0.463941,1.2687 -0.941893,2.8238 -1.433282,4.668 -0.309454,-1.4161 -0.751666,-2.9731 -1.327972,-4.668 l -3.626046,-10.0192 9.970841,0 z m 4.954017,-13.6691 -3.836764,10.2852 -12.352402,0 -3.794259,-10.2852 -3.626046,0 12.184095,32.4699 3.014383,0 12.120717,-32.4699 -3.709724,0" /><path
       inkscape:connector-curvature="0"
       id="path7170"
       style="fill:#85be42;fill-opacity:1;fill-rule:nonzero;stroke:none"
       d="m 97.412038,43.9039 -3.583636,0 0,28.9961 -9.75936,0 0,3.341 23.102738,0 0,-3.341 -9.759742,0 0,-28.9961" /><path
       inkscape:connector-curvature="0"
       id="path7172"
       style="fill:#85be42;fill-opacity:1;fill-rule:nonzero;stroke:none"
       d="m 111.80891,43.9039 3.58359,0 0,32.3371 -3.58359,0 0,-32.3371 z" /><path
       inkscape:connector-curvature="0"
       id="path7174"
       style="fill:#85be42;fill-opacity:1;fill-rule:nonzero;stroke:none"
       d="m 126.03766,60.1172 c 0,-4.3801 0.88824,-7.7012 2.66662,-9.9652 1.77743,-2.2629 4.35922,-3.395 7.74634,-3.395 3.41476,0 5.99274,1.1282 7.73586,3.384 1.74312,2.2559 2.6142,5.5809 2.6142,9.9762 0,4.3488 -0.86823,7.6488 -2.60372,9.8976 -1.73549,2.2481 -4.30394,3.3731 -7.70441,3.3731 -3.41475,0 -6.01084,-1.132 -7.78827,-3.3957 -1.77838,-2.2633 -2.66662,-5.5563 -2.66662,-9.875 z m 24.55709,0 c 0,-5.1762 -1.24754,-9.2461 -3.74166,-12.2102 -2.49411,-2.9629 -5.96224,-4.4449 -10.40247,-4.4449 -4.53935,0 -8.04178,1.4559 -10.50826,4.368 -2.46648,2.9121 -3.69905,7.0219 -3.69905,12.3308 0,5.2629 1.23638,9.345 3.70953,12.2422 2.47315,2.8969 5.98702,4.3469 10.53971,4.3469 4.42689,0 7.88358,-1.4762 10.37103,-4.4238 2.48744,-2.9492 3.73117,-7.0203 3.73117,-12.209" /><path
       inkscape:connector-curvature="0"
       id="path7176"
       style="fill:#85be42;fill-opacity:1;fill-rule:nonzero;stroke:none"
       d="m 181.53913,43.9039 -4.08856,0 -16.84219,27.1383 -0.16964,0 c 0.22491,-3.184 0.33833,-6.1043 0.33833,-8.7582 l 0,-18.3801 -3.30992,0 0,32.3371 4.04662,0 16.80026,-27.0281 0.16964,0 c -0.0286,0.3973 -0.0924,1.6769 -0.19061,3.8371 -0.0982,2.159 -0.13343,3.7051 -0.10483,4.634 l 0,18.557 3.3509,0 0,-32.3371" /><path
       inkscape:connector-curvature="0"
       id="path7178"
       style="fill:#85be42;fill-opacity:1;fill-rule:nonzero;stroke:none"
       d="m 204.4322,57.573 -3.5844,10.0192 c -0.46318,1.2687 -0.94161,2.8238 -1.43338,4.668 -0.30879,-1.4161 -0.751,-2.9731 -1.32759,-4.668 l -3.62633,-10.0192 9.9717,0 z m 4.95297,-13.6691 -3.83601,10.2852 -12.3524,0 -3.79407,-10.2852 -3.62633,0 12.18372,32.4699 3.01447,0 12.12082,-32.4699 -3.7102,0" /><path
       inkscape:connector-curvature="0"
       id="path7180"
       style="fill:#85be42;fill-opacity:1;fill-rule:nonzero;stroke:none"
       d="m 217.3326,43.9039 0,32.3371 3.58344,0 0,-28.9308 13.59613,0 0,-3.4063 -17.17957,0" /><path
       inkscape:connector-curvature="0"
       id="path7182"
       style="fill:#85be42;fill-opacity:1;fill-rule:nonzero;stroke:none"
       d="m 252.93753,59.209 0,-12.0981 6.42923,0 c 2.48745,0 4.35923,0.5051 5.61724,1.5153 1.25802,1.0097 1.88703,2.591 1.88703,4.7437 0,2.0063 -0.6433,3.4801 -1.92896,4.425 -1.28566,0.943 -3.24321,1.4141 -5.87075,1.4141 l -6.13379,0 z m 0,3.1859 5.9022,0 c 2.52938,0 4.34874,0.416 5.45999,1.25 1.10934,0.8321 1.66497,2.2371 1.66497,4.2133 0,1.8129 -0.61853,3.1219 -1.85558,3.925 -1.2361,0.8039 -3.20413,1.2059 -5.9022,1.2059 l -5.26938,0 0,-10.5942 z m -3.58345,13.8461 8.70606,0 c 4.08856,0 7.04681,-0.6422 8.87379,-1.925 1.82699,-1.2828 2.74,-3.3101 2.74,-6.082 0,-1.9168 -0.50892,-3.4988 -1.52773,-4.7442 -1.0188,-1.2468 -2.50555,-2.0539 -4.45834,-2.4226 l 0,-0.2211 c 4.67945,-0.8402 7.01917,-3.4199 7.01917,-7.741 0,-2.8903 -0.93112,-5.1461 -2.79242,-6.768 -1.86224,-1.6223 -4.46596,-2.4332 -7.81019,-2.4332 l -10.75034,0 0,32.3371" /><path
       inkscape:connector-curvature="0"
       id="path7184"
       style="fill:#85be42;fill-opacity:1;fill-rule:nonzero;stroke:none"
       d="m 277.32592,43.9039 3.5836,0 0,32.3371 -3.5836,0 0,-32.3371 z" /><path
       inkscape:connector-curvature="0"
       id="path7186"
       style="fill:#85be42;fill-opacity:1;fill-rule:nonzero;stroke:none"
       d="m 291.55487,60.1172 c 0,-4.3801 0.88824,-7.7012 2.66661,-9.9652 1.77743,-2.2629 4.35923,-3.395 7.74635,-3.395 3.41475,0 5.99274,1.1282 7.73585,3.384 1.74217,2.2559 2.61325,5.5809 2.61325,9.9762 0,4.3488 -0.86727,7.6488 -2.60181,9.8976 -1.73645,2.2481 -4.3049,3.3731 -7.70536,3.3731 -3.41476,0 -6.01085,-1.132 -7.78828,-3.3957 -1.77837,-2.2633 -2.66661,-5.5563 -2.66661,-9.875 z m 24.55708,0 c 0,-5.1762 -1.24753,-9.2461 -3.74165,-12.2102 -2.49412,-2.9629 -5.96224,-4.4449 -10.40247,-4.4449 -4.53935,0 -8.04179,1.4559 -10.50827,4.368 -2.46647,2.9121 -3.69971,7.0219 -3.69971,12.3308 0,5.2629 1.23705,9.345 3.7102,12.2422 2.47315,2.8969 5.98702,4.3469 10.53971,4.3469 4.42689,0 7.88358,-1.4762 10.37198,-4.4238 2.48649,-2.9492 3.73021,-7.0203 3.73021,-12.209" /><path
       inkscape:connector-curvature="0"
       id="path7188"
       style="fill:#85be42;fill-opacity:1;fill-rule:nonzero;stroke:none"
       d="m 322.9834,43.9039 3.58434,0 0,32.3371 -3.58434,0 0,-32.3371 z" /><path
       inkscape:connector-curvature="0"
       id="path7190"
       style="fill:#85be42;fill-opacity:1;fill-rule:nonzero;stroke:none"
       d="m 359.09233,43.9039 -4.08952,0 -16.84219,27.1383 -0.16869,0 c 0.22492,-3.184 0.33738,-6.1043 0.33738,-8.7582 l 0,-18.3801 -3.30992,0 0,32.3371 4.04758,0 16.80121,-27.0281 0.16773,0 c -0.0286,0.3973 -0.0915,1.6769 -0.18965,3.8371 -0.0982,2.159 -0.13343,3.7051 -0.10484,4.634 l 0,18.557 3.35091,0 0,-32.3371" /><path
       inkscape:connector-curvature="0"
       id="path7192"
       style="fill:#85be42;fill-opacity:1;fill-rule:nonzero;stroke:none"
       d="m 371.15119,43.9039 -3.5844,0 0,32.3371 17.17957,0 0,-3.341 -13.59517,0 0,-11.8328 12.77365,0 0,-3.3391 -12.77365,0 0,-13.8242" /><path
       inkscape:connector-curvature="0"
       id="path7194"
       style="fill:#85be42;fill-opacity:1;fill-rule:nonzero;stroke:none"
       d="m 392.04001,60.1172 c 0,-4.3801 0.88919,-7.7012 2.66661,-9.9652 1.77838,-2.2629 4.36018,-3.395 7.74635,-3.395 3.4157,0 5.99369,1.1282 7.73585,3.384 1.74312,2.2559 2.6142,5.5809 2.6142,9.9762 0,4.3488 -0.86727,7.6488 -2.60276,9.8976 -1.73549,2.2481 -4.3049,3.3731 -7.70441,3.3731 -3.41475,0 -6.01085,-1.132 -7.78923,-3.3957 -1.77742,-2.2633 -2.66661,-5.5563 -2.66661,-9.875 z m 24.55708,0 c 0,-5.1762 -1.24658,-9.2461 -3.7407,-12.2102 -2.49507,-2.9629 -5.96224,-4.4449 -10.40342,-4.4449 -4.5384,0 -8.04179,1.4559 -10.50731,4.368 -2.46648,2.9121 -3.69972,7.0219 -3.69972,12.3308 0,5.2629 1.23705,9.345 3.7102,12.2422 2.47315,2.8969 5.98607,4.3469 10.53971,4.3469 4.42689,0 7.88358,-1.4762 10.37103,-4.4238 2.48744,-2.9492 3.73021,-7.0203 3.73021,-12.209" /><path
       inkscape:connector-curvature="0"
       id="path7196"
       style="fill:#85be42;fill-opacity:1;fill-rule:nonzero;stroke:none"
       d="m 427.05294,60.5809 4.91103,0 c 2.53033,0 4.38496,0.5273 5.56482,1.582 1.18083,1.0531 1.77076,2.634 1.77076,4.7441 0,2.1371 -0.60042,3.6789 -1.80221,4.6219 -1.20178,0.9441 -3.12979,1.416 -5.78593,1.416 l -4.65847,0 0,-12.364 z m 0,-3.2289 0,-13.4481 -3.5844,0 0,32.3371 8.4535,0 c 3.77977,0 6.57314,-0.7601 8.37916,-2.2789 1.80506,-1.5191 2.70855,-3.8039 2.70855,-6.8562 0,-4.277 -2.0662,-7.1668 -6.19764,-8.67 l 8.36963,-14.532 -4.23819,0 -7.46138,13.4481 -6.42923,0" /><path
       inkscape:connector-curvature="0"
       id="path7198"
       style="fill:#85be42;fill-opacity:1;fill-rule:nonzero;stroke:none"
       d="m 463.79373,43.9039 -10.45489,28.6652 -0.16869,0 c 0.19728,-2.2711 0.29544,-4.9691 0.29544,-8.0953 l 0,-20.5699 -3.30992,0 0,32.3371 5.39614,0 9.76012,-26.6738 0.16869,0 9.84399,26.6738 5.3542,0 0,-32.3371 -3.58344,0 0,20.8352 c 0,2.389 0.0982,4.9839 0.29449,7.7847 l -0.16774,0 -10.53971,-28.6199 -2.88868,0" /><path
       inkscape:connector-curvature="0"
       id="path7200"
       style="fill:#85be42;fill-opacity:1;fill-rule:nonzero;stroke:none"
       d="m 503.54901,57.573 -3.58345,10.0192 c -0.46318,1.2687 -0.94161,2.8238 -1.43338,4.668 -0.30878,-1.4161 -0.751,-2.9731 -1.32663,-4.668 l -3.62634,-10.0192 9.9698,0 z m 4.95392,-13.6691 -3.836,10.2852 -12.35241,0 -3.79406,-10.2852 -3.62634,0 12.18467,32.4699 3.01353,0 12.12081,-32.4699 -3.7102,0" /><path
       inkscape:connector-curvature="0"
       id="path7202"
       style="fill:#85be42;fill-opacity:1;fill-rule:nonzero;stroke:none"
       d="m 524.33601,43.9039 -3.58345,0 0,28.9961 -9.76012,0 0,3.341 23.10369,0 0,-3.341 -9.76012,0 0,-28.9961" /><path
       inkscape:connector-curvature="0"
       id="path7204"
       style="fill:#85be42;fill-opacity:1;fill-rule:nonzero;stroke:none"
       d="m 540.33174,43.9039 3.58434,0 0,32.3371 -3.58434,0 0,-32.3371 z" /><path
       inkscape:connector-curvature="0"
       id="path7206"
       style="fill:#85be42;fill-opacity:1;fill-rule:nonzero;stroke:none"
       d="m 563.96453,73.343 c -3.38617,0 -6.06041,-1.184 -8.01987,-3.55 -1.96136,-2.3668 -2.94109,-5.6071 -2.94109,-9.7211 0,-4.2321 0.94447,-7.5008 2.83435,-9.809 1.89084,-2.307 4.58605,-3.4609 8.08467,-3.4609 2.15007,0 4.60225,0.405 7.35655,1.216 l 0,-3.295 c -2.13672,-0.841 -4.77094,-1.2609 -7.90455,-1.2609 -4.53935,0 -8.04178,1.4449 -10.50826,4.3348 -2.46648,2.8902 -3.69876,6.9972 -3.69876,12.3203 0,3.3308 0.59374,6.2508 1.78124,8.759 1.18749,2.5058 2.90106,4.4367 5.14262,5.7937 2.24156,1.3563 4.87959,2.0352 7.91598,2.0352 3.23082,0 6.0566,-0.6192 8.47352,-1.8582 l -1.5182,-3.2289 c -2.3321,1.15 -4.6661,1.725 -6.9982,1.725" /><path
       inkscape:connector-curvature="0"
       id="path7208"
       style="fill:#85be42;fill-opacity:1;fill-rule:nonzero;stroke:none"
       d="m 594.3,52.5078 c 0,-2.8457 -0.98259,-5.0648 -2.95062,-6.6578 -1.96709,-1.5922 -4.63752,-2.3879 -8.01034,-2.3879 -3.65397,0 -6.4645,0.4938 -8.43158,1.482 l 0,3.627 c 1.26469,-0.5609 2.64184,-1.0031 4.13145,-1.327 1.48961,-0.325 2.96492,-0.4871 4.42689,-0.4871 2.38832,0 4.18672,0.475 5.39613,1.427 1.20846,0.9512 1.81269,2.275 1.81269,3.9699 0,1.1211 -0.21443,2.0391 -0.6433,2.7543 -0.42792,0.7148 -1.14461,1.375 -2.15007,1.9789 -1.00451,0.6051 -2.53224,1.291 -4.58414,2.057 -2.86676,1.077 -4.9158,2.352 -6.14428,3.827 -1.23038,1.4738 -1.84509,3.398 -1.84509,5.7719 0,2.4922 0.893,4.475 2.6771,5.9511 1.78505,1.4739 4.14574,2.211 7.08302,2.211 3.06309,0 5.88124,-0.5903 8.45255,-1.7699 l -1.11792,-3.2731 c -2.54272,1.1199 -5.01587,1.6809 -7.41849,1.6809 -1.89751,0 -3.38045,-0.4282 -4.44881,-1.2828 -1.06837,-0.8551 -1.60112,-2.0422 -1.60112,-3.5614 0,-1.1199 0.19633,-2.0386 0.58994,-2.7527 0.3936,-0.7152 1.05692,-1.3723 1.99186,-1.9691 0.93398,-0.5981 2.36355,-1.2571 4.28965,-1.979 3.23272,-1.2101 5.45618,-2.507 6.67226,-3.8929 1.21513,-1.386 1.82222,-3.186 1.82222,-5.3973" /><path
       inkscape:connector-curvature="0"
       id="path7210"
       style="fill:#85be42;fill-opacity:1;fill-rule:nonzero;stroke:none"
       d="m 28.060938,0.442969 3.790906,0 0,32.3359 -3.790906,0 0,-32.3359 z" /><path
       inkscape:connector-curvature="0"
       id="path7212"
       style="fill:#85be42;fill-opacity:1;fill-rule:nonzero;stroke:none"
       d="m 66.262192,0.442969 -4.326131,0 -17.818648,27.137931 -0.178365,0 c 0.237451,-3.184 0.357234,-6.1039 0.357234,-8.759 l 0,-18.378931 -3.501458,0 0,32.335931 4.281666,0 17.773679,-27.02773 0.178869,0 c -0.02995,0.39766 -0.0969,1.67774 -0.201253,3.83672 -0.103954,2.16011 -0.141059,3.70621 -0.111516,4.63401 l 0,18.557 3.545923,0 0,-32.335931" /><path
       inkscape:connector-curvature="0"
       id="path7214"
       style="fill:#85be42;fill-opacity:1;fill-rule:nonzero;stroke:none"
       d="m 79.018563,0.442969 -3.790936,0 0,32.335931 18.175075,0 0,-3.3398 -14.384139,0 0,-11.8332 13.514497,0 0,-3.3387 -13.514497,0 0,-13.824231" /><path
       inkscape:connector-curvature="0"
       id="path7216"
       style="fill:#85be42;fill-opacity:1;fill-rule:nonzero;stroke:none"
       d="m 102.59107,17.1199 5.19618,0 c 2.67628,0 4.6389,0.527 5.88775,1.5813 1.24825,1.0539 1.87238,2.6347 1.87238,4.7437 0,2.1383 -0.63421,3.6801 -1.90565,4.6231 -1.27195,0.9441 -3.3121,1.416 -6.12188,1.416 l -4.92878,0 0,-12.3641 z m 0,-3.2289 0,-13.448031 -3.790937,0 0,32.335931 8.942647,0 c 3.99925,0 6.95361,-0.7598 8.8643,-2.2777 1.9107,-1.5192 2.86554,-3.8043 2.86554,-6.8563 0,-4.2769 -2.18495,-7.1668 -6.55615,-8.6711 l 8.85301,-14.530831 -4.48181,0 -7.89504,13.448031 -6.80156,0" /><path
       inkscape:connector-curvature="0"
       id="path7218"
       style="fill:#85be42;fill-opacity:1;fill-rule:nonzero;stroke:none"
       d="m 142.287,14.1121 -3.79114,10.0188 c -0.49103,1.2691 -0.99618,2.8242 -1.51645,4.6671 -0.32669,-1.4152 -0.79554,-2.9718 -1.40454,-4.6671 l -3.83651,-10.0188 10.54864,0 z M 147.52804,0.442969 143.4687,10.727 l -13.06833,0 -4.01397,-10.284031 -3.8355,0 12.88987,32.469131 3.18919,0 12.82332,-32.469131 -3.92524,0" /><path
       inkscape:connector-curvature="0"
       id="path7220"
       style="fill:#85be42;fill-opacity:1;fill-rule:nonzero;stroke:none"
       d="m 174.3332,9.04688 c 0,-2.84571 -1.04055,-5.06602 -3.12265,-6.65782 C 169.12946,0.796875 166.30526,0 162.73696,0 c -3.86575,0 -6.83917,0.494141 -8.92027,1.4832 l 0,3.62578 c 1.33799,-0.56015 2.79496,-1.00312 4.3709,-1.32617 1.57595,-0.32461 3.13677,-0.48672 4.68246,-0.48672 2.52776,0 4.4314,0.475 5.7099,1.42696 1.2785,0.95078 1.91775,2.27383 1.91775,3.96992 0,1.12109 -0.22687,2.03793 -0.67958,2.75393 -0.45474,0.7152 -1.21297,1.375 -2.27569,1.9793 -1.06273,0.6047 -2.68002,1.2898 -4.84984,2.057 -3.03391,1.077 -5.20071,2.3508 -6.50039,3.8258 -1.30169,1.475 -1.95203,3.3992 -1.95203,5.773 0,2.4918 0.94375,4.475 2.83226,5.95 1.88751,1.475 4.38603,2.2121 7.49254,2.2121 3.24163,0 6.2221,-0.591 8.94346,-1.7703 l -1.18171,-3.2726 c -2.6911,1.1199 -5.3086,1.6808 -7.85048,1.6808 -2.00648,0 -3.57536,-0.4281 -4.70565,-1.2832 -1.12927,-0.8547 -1.69492,-2.0429 -1.69492,-3.5609 0,-1.1207 0.20771,-2.0391 0.62514,-2.7527 0.41541,-0.7161 1.11818,-1.3723 2.10731,-1.9704 0.98811,-0.5968 2.50053,-1.2566 4.53827,-1.9789 3.41908,-1.2089 5.7714,-2.507 7.05797,-3.8918 1.28556,-1.3859 1.92884,-3.1863 1.92884,-5.39722" /><path
       inkscape:connector-curvature="0"
       id="path7222"
       style="fill:#85be42;fill-opacity:1;fill-rule:nonzero;stroke:none"
       d="m 191.03739,0.442969 -3.79113,0 0,28.996131 -10.3248,0 0,3.3398 24.44174,0 0,-3.3398 -10.32581,0 0,-28.996131" /><path
       inkscape:connector-curvature="0"
       id="path7224"
       style="fill:#85be42;fill-opacity:1;fill-rule:nonzero;stroke:none"
       d="m 210.05963,17.1199 5.19668,0 c 2.67598,0 4.6391,0.527 5.88735,1.5813 1.24926,1.0539 1.87339,2.6347 1.87339,4.7437 0,2.1383 -0.63522,3.6801 -1.90666,4.6231 -1.27144,0.9441 -3.3122,1.416 -6.12128,1.416 l -4.92948,0 0,-12.3641 z m 0,-3.2289 0,-13.448031 -3.79114,0 0,32.335931 8.94345,0 c 3.99885,0 6.95311,-0.7598 8.8638,-2.2777 1.9107,-1.5192 2.86554,-3.8043 2.86554,-6.8563 0,-4.2769 -2.18495,-7.1668 -6.55584,-8.6711 l 8.85371,-14.530831 -4.48282,0 -7.89484,13.448031 -6.80186,0" /><path
       inkscape:connector-curvature="0"
       id="path7226"
       style="fill:#85be42;fill-opacity:1;fill-rule:nonzero;stroke:none"
       d="m 259.12259,32.7789 0,-20.9238 c 0,-3.68596 -1.12322,-6.58322 -3.36766,-8.69221 C 253.5105,1.05508 250.42516,0 246.49992,0 c -3.92423,0 -6.96118,1.06211 -9.10982,3.18594 -2.14865,2.12304 -3.22247,5.04219 -3.22247,8.75896 l 0,20.834 3.79114,0 0,-21.1 c 0,-2.69882 0.7431,-4.76992 2.23032,-6.21484 1.4862,-1.44609 3.67216,-2.16797 6.55584,-2.16797 2.75059,0 4.87,0.72579 6.35621,2.17774 1.4862,1.45312 2.23031,3.53633 2.23031,6.24917 l 0,21.0559 3.79114,0" /><path
       inkscape:connector-curvature="0"
       id="path7228"
       style="fill:#85be42;fill-opacity:1;fill-rule:nonzero;stroke:none"
       d="m 281.71414,29.882 c -3.58343,0 -6.41166,-1.184 -8.4857,-3.55 -2.07403,-2.3672 -3.11155,-5.607 -3.11155,-9.7211 0,-4.232 0.99921,-7.50192 2.99964,-9.80895 1.99942,-2.30781 4.84983,-3.46093 8.55224,-3.46093 2.27468,0 4.86899,0.4039 7.78292,1.21601 l 0,-3.29609 C 287.19213,0.421094 284.40423,0 281.089,0 c -4.80244,0 -8.50787,1.44609 -11.1163,4.33594 -2.61044,2.88906 -3.91414,6.99606 -3.91414,12.31996 0,3.3312 0.62715,6.2511 1.88447,8.7582 1.25531,2.5058 3.06921,4.4379 5.44069,5.7949 2.37148,1.3558 5.16341,2.0351 8.37478,2.0351 3.41909,0 6.40763,-0.6191 8.96463,-1.8582 l -1.60518,-3.23 c -2.46827,1.15 -4.93655,1.7261 -7.40381,1.7261" /><path
       inkscape:connector-curvature="0"
       id="path7230"
       style="fill:#85be42;fill-opacity:1;fill-rule:nonzero;stroke:none"
       d="m 306.60154,0.442969 -3.79113,0 0,28.996131 -10.32581,0 0,3.3398 24.44174,0 0,-3.3398 -10.3248,0 0,-28.996131" /><path
       inkscape:connector-curvature="0"
       id="path7232"
       style="fill:#85be42;fill-opacity:1;fill-rule:nonzero;stroke:none"
       d="m 346.45285,32.7789 0,-20.9238 c 0,-3.68596 -1.12222,-6.58322 -3.36665,-8.69221 C 340.84076,1.05508 337.75642,0 333.83119,0 c -3.92524,0 -6.96219,1.06211 -9.10982,3.18594 -2.14865,2.12304 -3.22247,5.04219 -3.22247,8.75896 l 0,20.834 3.79114,0 0,-21.1 c 0,-2.69882 0.7431,-4.76992 2.23031,-6.21484 1.48621,-1.44609 3.67216,-2.16797 6.55686,-2.16797 2.74958,0 4.86798,0.72579 6.35519,2.17774 1.48621,1.45312 2.23032,3.53633 2.23032,6.24917 l 0,21.0559 3.79013,0" /><path
       inkscape:connector-curvature="0"
       id="path7234"
       style="fill:#85be42;fill-opacity:1;fill-rule:nonzero;stroke:none"
       d="m 358.87588,17.1199 5.19467,0 c 2.67698,0 4.6391,0.527 5.88735,1.5813 1.24926,1.0539 1.87339,2.6347 1.87339,4.7437 0,2.1383 -0.63522,3.6801 -1.90565,4.6231 -1.27145,0.9441 -3.31221,1.416 -6.12229,1.416 l -4.92747,0 0,-12.3641 z m 0,-3.2289 0,-13.448031 -3.79214,0 0,32.335931 8.94244,0 c 3.99985,0 6.95412,-0.7598 8.86481,-2.2777 1.91069,-1.5192 2.86554,-3.8043 2.86554,-6.8563 0,-4.2769 -2.18495,-7.1668 -6.55686,-8.6711 l 8.85473,-14.530831 -4.48282,0 -7.89484,13.448031 -6.80086,0" /><path
       inkscape:connector-curvature="0"
       id="path7236"
       style="fill:#85be42;fill-opacity:1;fill-rule:nonzero;stroke:none"
       d="m 401.4919,0.442969 -18.17528,0 0,32.335931 18.17528,0 0,-3.3398 -14.38314,0 0,-10.4172 13.514,0 0,-3.318 -13.514,0 0,-11.89882 14.38314,0 0,-3.362111" /><path
       inkscape:connector-curvature="0"
       id="path7238"
       style="fill:#85be42;fill-opacity:1;fill-rule:nonzero;stroke:none"
       d="m 438.9808,9.04688 c 0,-2.84571 -1.04055,-5.06602 -3.12164,-6.65782 C 433.77706,0.796875 430.95286,0 427.38355,0 c -3.86474,0 -6.83816,0.494141 -8.92026,1.4832 l 0,3.62578 c 1.33899,-0.56015 2.79596,-1.00312 4.3719,-1.32617 1.57595,-0.32461 3.13677,-0.48672 4.68246,-0.48672 2.52776,0 4.43039,0.475 5.7099,1.42696 1.2785,0.95078 1.91775,2.27383 1.91775,3.96992 0,1.12109 -0.22787,2.03793 -0.68059,2.75393 -0.45272,0.7152 -1.21095,1.375 -2.27468,1.9793 -1.06273,0.6047 -2.68002,1.2898 -4.84984,2.057 -3.03291,1.077 -5.20071,2.3508 -6.50139,3.8258 -1.30069,1.475 -1.95103,3.3992 -1.95103,5.773 0,2.4918 0.94375,4.475 2.83126,5.95 1.88851,1.475 4.38602,2.2121 7.49455,2.2121 3.24062,0 6.22109,-0.591 8.94245,-1.7703 l -1.18272,-3.2726 c -2.6911,1.1199 -5.30759,1.6808 -7.84947,1.6808 -2.00749,0 -3.57536,-0.4281 -4.70565,-1.2832 -1.13028,-0.8547 -1.69492,-2.0429 -1.69492,-3.5609 0,-1.1207 0.20872,-2.0391 0.62413,-2.7527 0.41642,-0.7161 1.11919,-1.3723 2.10832,-1.9704 0.98811,-0.5968 2.50053,-1.2566 4.53827,-1.9789 3.41908,-1.2089 5.77241,-2.507 7.05797,-3.8918 1.28556,-1.3859 1.92884,-3.1863 1.92884,-5.39722" /><path
       inkscape:connector-curvature="0"
       id="path7240"
       style="fill:#85be42;fill-opacity:1;fill-rule:nonzero;stroke:none"
       d="m 474.10427,0.442969 -3.74576,0 -6.57803,21.653131 c -0.31357,0.9578 -0.66244,2.168 -1.04861,3.6277 -0.38718,1.4594 -0.58783,2.3364 -0.60194,2.6321 -0.32769,-1.9469 -0.84797,-4.077 -1.56183,-6.393 l -6.37738,-21.519931 -3.74677,0 -8.67525,32.335931 4.01396,0 5.15131,-19.9719 c 0.71387,-2.8019 1.23414,-5.33903 1.56082,-7.60817 0.4013,2.69805 0.99719,5.33707 1.78466,7.91717 l 5.84299,19.6629 4.01397,0 6.13236,-19.8391 c 0.71387,-2.2859 1.31682,-4.86597 1.80684,-7.74097 0.28232,2.09336 0.81772,4.64414 1.6062,7.65237 l 5.12912,19.9277 4.01397,0 -8.72063,-32.335931" /><path
       inkscape:connector-curvature="0"
       id="path7242"
       style="fill:#85be42;fill-opacity:1;fill-rule:nonzero;stroke:none"
       d="m 506.10712,0.442969 -18.17629,0 0,32.335931 18.17629,0 0,-3.3398 -14.38414,0 0,-10.4172 13.515,0 0,-3.318 -13.515,0 0,-11.89882 14.38414,0 0,-3.362111" /><path
       inkscape:connector-curvature="0"
       id="path7244"
       style="fill:#85be42;fill-opacity:1;fill-rule:nonzero;stroke:none"
       d="m 535.34324,16.7879 c 0,4.2172 -1.06676,7.3941 -3.19927,9.5332 -2.13454,2.1379 -5.30457,3.2059 -9.51213,3.2059 l -5.50824,0 0,-25.83286 4.61591,0 c 4.51912,0 7.91703,1.10195 10.19171,3.30703 2.27468,2.20391 3.41202,5.46603 3.41202,9.78673 z m 4.01397,0.1332 c 0,-5.3391 -1.45999,-9.41915 -4.38199,-12.24219 -2.922,-2.82383 -7.12452,-4.235941 -12.61158,-4.235941 l -9.03219,0 0,32.335931 9.99207,0 c 5.06863,0 9.00899,-1.393 11.81907,-4.1801 2.80908,-2.7867 4.21462,-6.6789 4.21462,-11.6777" /><path
       inkscape:connector-curvature="0"
       id="path7246"
       style="fill:#85be42;fill-opacity:1;fill-rule:nonzero;stroke:none"
       d="m 561.6032,0.442969 -18.17628,0 0,32.335931 18.17628,0 0,-3.3398 -14.38414,0 0,-10.4172 13.515,0 0,-3.318 -13.515,0 0,-11.89882 14.38414,0 0,-3.362111" /><path
       inkscape:connector-curvature="0"
       id="path7248"
       style="fill:#85be42;fill-opacity:1;fill-rule:nonzero;stroke:none"
       d="m 594.3,0.442969 -4.32754,0 -17.81835,27.137931 -0.17847,0 c 0.23796,-3.184 0.35694,-6.1039 0.35694,-8.759 l 0,-18.378931 -3.50176,0 0,32.335931 4.28217,0 17.77498,-27.02773 0.17746,0 c -0.0303,0.39766 -0.0968,1.67774 -0.20065,3.83672 -0.10385,2.16011 -0.14116,3.70621 -0.11091,4.63401 l 0,18.557 3.54613,0 0,-32.335931" /></g></svg>