<?xml version="1.0" encoding="UTF-8" standalone="no"?>
<!-- Created with Inkscape (http://www.inkscape.org/) -->

<svg
   version="1.1"
   id="svg2"
   xml:space="preserve"
   width="127.26773"
   height="127.26933"
   viewBox="0 0 127.26773 127.26933"
   xmlns="http://www.w3.org/2000/svg"
   xmlns:svg="http://www.w3.org/2000/svg"><defs
     id="defs6" /><g
     id="g8"
     transform="matrix(1.3333333,0,0,-1.3333333,0,127.26933)"><g
       id="g10"
       transform="scale(0.1)"><path
         d="M 477.219,954.52 C 213.684,954.52 0,740.801 0,477.234 0,213.68 213.684,0 477.219,0 c 263.609,0 477.289,213.68 477.289,477.234 0,263.567 -213.68,477.286 -477.289,477.286"
         style="fill:#ed1c24;fill-opacity:1;fill-rule:nonzero;stroke:none"
         id="path56" /><path
         d="m 23.5117,477.234 c 0,-125.293 50.7852,-238.699 132.8983,-320.816 v 0 C 238.531,74.2969 351.93,23.5156 477.223,23.5156 v 0 c 125.316,0.0078 238.734,50.7813 320.863,132.9024 v 0 c 82.117,82.117 132.894,195.523 132.894,320.816 v 0 c 0,125.293 -50.777,238.723 -132.894,320.852 v 0 C 715.957,880.203 602.535,931.004 477.223,931.004 v 0 c -140.95,0 -266.868,-64.285 -350.098,-165.145 v 0 h -0.008 C 62.3945,687.402 23.5117,586.875 23.5117,477.234 Z m -6.8476,0 C 16.6602,588.504 56.1367,690.605 121.84,770.215 v 0 c 84.465,102.371 212.324,167.637 355.383,167.637 v 0 c 254.398,0 460.609,-206.262 460.613,-460.618 v 0 C 937.832,222.891 731.621,16.668 477.223,16.6602 v 0 C 222.883,16.668 16.6641,222.891 16.6641,477.234 v 0"
         style="fill:#ffffff;fill-opacity:1;fill-rule:nonzero;stroke:none"
         id="path58" /><path
         d="m 117.867,290.398 c 0.071,6.02 5.004,10.84 11.024,10.762 6.015,-0.066 10.843,-5 10.773,-11.023 -0.07,-6.016 -5.012,-10.84 -11.027,-10.774 -6.02,0.078 -10.84,5.012 -10.77,11.035"
         style="fill:#ffffff;fill-opacity:1;fill-rule:nonzero;stroke:none"
         id="path60" /><path
         d="m 811.074,283.895 c 0.071,6.015 5.004,10.839 11.028,10.761 6.011,-0.066 10.836,-5 10.765,-11.015 -0.07,-6.024 -5.008,-10.848 -11.019,-10.77 -6.024,0.067 -10.848,5 -10.774,11.024"
         style="fill:#ffffff;fill-opacity:1;fill-rule:nonzero;stroke:none"
         id="path62" /><path
         d="m 785.98,346.797 c -16.886,-39.777 -40.941,-75.5 -71.648,-106.211 -30.695,-30.664 -66.406,-54.777 -106.207,-71.621 -15.66,-6.633 -31.684,-12.004 -48.008,-16.125 l -0.387,6.66 c 0,4.004 -4.531,6.016 -7.015,6.016 l -14.371,-0.223 c 0,0 -4.422,1.074 -4.953,1.238 -0.539,0.168 -0.407,0.735 -0.321,0.844 1.012,1.219 1.067,2.984 0.082,4.273 l -10.961,14.297 0.352,10.168 c 32.227,0.789 55.957,13.028 67.031,21.102 10.887,8.058 11.582,20.363 11.602,24.015 0,0.528 -0.016,0.887 -0.02,1.043 l -0.332,28.555 c 0.106,0.051 0.211,0.07 0.313,0.129 l -0.004,0.008 30.543,17.14 c 1.176,0.665 1.847,1.942 1.738,3.301 l -20.055,223.426 c 0.875,0.305 3.715,1.281 6.914,2.481 3.903,1.496 8.02,3.085 10.454,4.679 2.195,1.543 11.39,9.278 13.609,11.582 1.937,2.059 2.672,4.719 2.652,7.071 -0.035,3.679 -1.453,6.953 -2.883,9.539 -1.261,2.179 -2.996,3.964 -4.875,5.507 4.208,9.375 6.34,19.778 6.336,30.52 0.004,18.738 -4.476,33.484 -8.796,47.441 -4.336,13.973 -8.493,27.149 -8.493,43.368 0,30.117 0.313,48 0.313,48.039 0.015,0.918 -0.336,1.804 -0.985,2.461 -0.636,0.652 -1.519,1.023 -2.437,1.023 -10.113,0.039 -16.395,-3.309 -19.836,-7.031 -1.617,-1.739 -2.602,-3.477 -3.203,-4.871 h -61.793 c -0.606,1.543 -1.609,3.535 -3.281,5.566 -3.34,4.129 -9.614,8.106 -19.41,8.055 -0.911,0 -1.786,-0.36 -2.43,-1.016 -0.645,-0.644 -1,-1.523 -0.996,-2.441 0,-0.047 0.191,-22.715 0.183,-54.492 0.016,-2.5 -0.105,-4.969 -0.316,-7.422 -1.258,2.004 -2.625,3.996 -4.07,5.89 -3.828,4.903 -7.844,9.219 -12.805,10.848 -4.477,1.367 -11.102,3.43 -18.871,5.801 -2.848,0.898 -4.027,2.207 -4.832,3.644 -0.465,0.848 -0.731,1.797 -0.871,2.684 l 3.785,-0.078 h 0.187 c 3.414,0.117 6.325,0.566 8.813,1.593 2.449,0.985 4.695,2.832 5.523,5.567 0.426,1.394 0.563,2.734 0.563,3.926 -0.004,1.347 -0.168,2.519 -0.34,3.379 l 1.621,2.851 c 0.531,0.926 0.59,2.031 0.199,2.977 0.742,0.695 1.145,1.699 1.078,2.734 l -0.238,3.516 c 0.164,0.031 0.336,0.058 0.512,0.09 1.043,0.195 2.125,0.437 3.25,0.945 0.558,0.273 1.172,0.597 1.805,1.23 0.625,0.598 1.304,1.739 1.293,3.067 -0.012,0.929 -0.204,3.117 -0.497,6.554 -0.738,8.438 -2.086,22.743 -2.503,27.188 1.398,1.883 3.804,5.742 3.91,10.762 0.011,3.234 -0.934,7.039 -3.883,10.019 -2.875,2.91 -7.34,4.617 -13.324,4.688 -2.653,0.703 -16.477,4.375 -20.473,4.968 -2.977,0.422 -6.953,1.114 -11.648,1.114 -7.989,0.031 -18.098,-2.129 -29.067,-10.614 -14.18,-11.171 -15.344,-31.171 -15.437,-40.066 0,-1.723 0.054,-3.051 0.105,-3.832 -0.473,-1.426 -1.191,-4.375 -1.191,-9.07 0,-2.578 0.215,-5.676 0.8,-9.348 1.383,-8.887 6.875,-14.246 11.723,-17.012 2.461,-1.414 4.785,-2.265 6.516,-2.761 v -6.516 c -2.692,-1.356 -19.781,-8.867 -36.207,-20.184 -0.34,-0.312 -1.699,-1.086 -2.969,-2.527 -0.035,-0.031 -0.078,-0.051 -0.105,-0.082 L 201.781,482.129 c -0.648,-0.656 -1.011,-1.574 -0.984,-2.5 0.023,-0.93 0.43,-1.816 1.117,-2.441 0.027,-0.02 12.727,-11.575 26.813,-24.465 3.507,-3.211 7.101,-6.504 10.609,-9.727 L 205.492,396.57 c -2.855,-3.632 -4.687,-8.894 -4.672,-15.898 0.043,-14.168 7.055,-35.692 28.559,-69.18 24.535,-38.133 43.332,-55.722 50.254,-61.504 l -8.934,-10.261 c -0.304,-0.325 -3.164,-3.352 -6.121,-7.258 -1.547,-2.031 -3.117,-4.305 -4.351,-6.602 -0.301,-0.574 -0.582,-1.133 -0.848,-1.699 -6.051,5.246 -11.938,10.715 -17.656,16.426 -30.672,30.703 -54.75,66.426 -71.559,106.203 -17.465,41.152 -26.301,84.93 -26.301,130.105 0,45.078 8.836,88.821 26.301,130 16.809,39.864 40.887,75.567 71.559,106.282 30.742,30.652 66.422,54.754 106.238,71.609 41.223,17.395 84.937,26.191 130.109,26.203 45.094,-0.012 88.844,-8.808 130.055,-26.203 39.801,-16.855 75.512,-40.957 106.207,-71.609 30.719,-30.715 54.762,-66.418 71.652,-106.27 17.383,-41.184 26.204,-84.934 26.204,-130.012 0,-45.175 -8.821,-88.953 -26.208,-130.105 z M 476.586,142.742 c 19.582,3.371 36.875,9.785 49.527,18.906 l 10.762,-3.085 c 0.387,-0.118 0.797,-0.165 1.207,-0.145 0,0 10.008,0.535 10.84,0.594 2.851,0.176 4.129,-1.504 4.152,-2.098 0.024,-0.605 0.086,-1.34 0.086,-1.34 0,0 0.121,-1.777 -1.047,-2.937 -1.066,-1.067 -8.793,-3.203 -11.605,-4.094 -20.434,-3.855 -41.285,-5.82 -62.438,-5.82 -0.492,0 -0.992,0.019 -1.484,0.019 z m -196.813,90.91 c 1.235,-0.027 2.61,-0.05 4.153,-0.058 27.191,0.008 99.625,6.25 152.402,68.465 43.442,51.562 54.336,149.98 56.035,167.207 l 13.61,0.968 c -0.485,-7.05 -1.692,-23.742 -3.805,-46.308 -2.836,-30.266 -7.289,-70.996 -13.754,-112.871 -6.476,-41.887 -14.269,-83.399 -20.441,-114.426 -4.567,-22.957 -8.239,-40.125 -9.844,-47.539 -0.145,-0.664 -0.984,-1.895 -2.582,-1.895 -3.766,0 -7.567,-0.34 -11.414,-0.332 -12.5,-0.008 -25.395,1.164 -38.125,3.625 -6.668,1.465 -13.289,3.125 -19.856,5 -47.211,14.883 -74.609,35.907 -90.238,52.938 -7.832,8.547 -12.711,16.133 -15.617,21.543 -0.469,0.871 -0.883,1.672 -1.25,2.422 -0.399,0.812 0.051,1.281 0.726,1.261 z m 1.649,7.957 c 0.863,0.989 93.183,106.985 93.183,106.985 0.34,0.39 0.586,0.847 0.715,1.347 0,0 27.317,100.801 27.508,101.512 0.192,0.703 0.902,0.899 0.902,0.899 0,0 48.418,13.253 50.286,13.789 1.867,0.527 4.547,0.754 4.547,0.754 l 26.886,1.894 c -0.316,-3.137 -0.871,-8.176 -1.758,-14.66 -4.574,-34.07 -18.515,-107.598 -52.586,-147.637 -50.722,-59.929 -120.902,-66.054 -147.179,-66.043 -0.586,0 -1.145,0 -1.68,0.008 -1,0 -1.687,0.156 -0.824,1.152 z m 271.129,451.946 v -26.739 c -2.297,-1.281 -4.071,-2.394 -5.035,-2.968 -3.09,-1.973 -7.266,-5.703 -8.063,-6.407 l -0.019,-0.019 c 1.203,9.129 2.058,20.644 2.171,36.133 z m 15.558,0 v -20.442 c -2.996,-0.644 -5.968,-1.687 -8.711,-2.879 v 23.321 z m 15.039,0 v -21.047 c -2.468,0.918 -5.226,1.23 -8.187,1.269 v 19.778 z m 13.075,-44.063 c -0.395,1.219 -1.164,3.047 -3.512,3.836 -0.606,0.176 -1.258,0.344 -1.871,0.481 -0.016,2.156 -0.039,5.164 -0.039,7.507 0.039,1.653 -0.254,3.235 -0.801,4.668 v 27.571 h 10.746 c 0.184,-28.254 2.649,-45.02 5.113,-57.18 2.582,-12.676 4.996,-19.957 4.985,-30.086 0.008,-10.898 -4.199,-21.281 -11.094,-28.859 -2.84,-3.125 -6.129,-5.762 -9.75,-7.801 v 66.629 c 0.242,0.031 0.496,0.058 0.715,0.078 0.336,0.031 0.629,0.07 0.848,0.09 0.21,0.019 0.292,0.008 0.292,0.019 1.282,0 2.184,0.625 2.637,1.063 1.453,1.621 1.43,2.57 1.817,3.91 0.261,1.266 0.414,2.703 0.421,4.148 -0.007,1.309 -0.109,2.598 -0.507,3.926 z m -21.262,-84.355 v 68.789 c 3.152,0.769 5.898,1.472 6.918,1.726 h 1.269 v -68.984 c -2.617,-0.82 -5.351,-1.336 -8.187,-1.531 z m -15.563,1.746 v 64.14 c 0.614,0.04 1.204,0.059 1.672,0.059 1.41,0.031 2.84,0.352 5.008,0.781 0.645,0.137 1.324,0.293 2.031,0.45 v -67.04 c -2.98,0.274 -5.89,0.821 -8.711,1.61 z m -28.621,30.93 c 8,9.812 16.825,21.863 21.774,28.718 v -57.148 c -3.426,1.582 -6.606,3.566 -9.406,5.949 -6.446,5.516 -10.989,12.988 -12.368,22.481 z m 1.34,-125.352 2.492,0.508 c 1.586,0.32 2.731,1.726 2.735,3.347 l 0.117,44.434 c 9.137,-3.691 19.769,-5.82 31.875,-5.82 0.039,0 0.074,0 0.113,0 7.77,-0.008 14.989,0.863 21.668,2.414 l 3.192,-275.246 0.007,-0.184 c 0,0 0.016,-0.187 0.016,-0.684 0.02,-2.824 -0.734,-12.687 -8.801,-18.476 -10.004,-7.324 -32.429,-18.977 -62.754,-19.785 z M 417.602,551.68 c -5.407,7.422 -21.149,29.472 -26.469,69.675 0.371,-0.417 0.742,-0.839 1.117,-1.238 5.703,-5.969 12.16,-9.933 16.016,-11.914 34.316,-18.39 89.425,-40.078 89.484,-40.109 0.031,-0.008 0.07,-0.02 0.105,-0.028 0.489,-2.296 1.129,-4.562 1.856,-6.808 l -51.703,-3.164 c 0,0 -6.07,-0.262 -10.445,-1.512 -5.29,-1.496 -17.375,-4.922 -18.188,-5.195 -1.012,-0.324 -1.598,0.039 -1.773,0.293 z m -21.055,-86.477 c 0,0 22.285,77.004 22.586,78.039 0.297,1.035 1.332,1.328 1.332,1.328 0,0 16.305,4.571 18.898,5.41 2.594,0.84 6.864,1.153 6.864,1.153 l 56.039,3.437 c 2.929,-6.574 6.937,-12.773 12.113,-18.234 4.543,-4.793 9.969,-8.984 16.246,-12.371 0,0 -0.117,-42.617 -0.117,-43.43 0,-0.808 -0.395,-1.719 -2.192,-1.863 -1.796,-0.149 -56.367,-3.977 -69.961,-4.934 -1.937,-0.125 -4.246,-0.468 -6.324,-1.035 -2.074,-0.574 -49.59,-13.601 -49.59,-13.601 0,0 -1.621,-0.254 -2.437,0.378 -0.809,0.657 -1.234,0.989 -2.695,2.149 -1.457,1.164 -0.762,3.574 -0.762,3.574 z M 516.008,182.754 c 0,0 8.887,-11.516 9.226,-12.031 0.34,-0.52 0.075,-1.125 -0.171,-1.321 C 511.617,158.426 489.824,150.75 464.898,148 c 3.926,18.113 19.067,89.41 30.282,162.008 11.558,74.855 16.695,145.93 17.691,160.703 0,0 8.992,0.586 10.567,0.742 1.566,0.156 1.765,-0.769 1.734,-1.726 -0.035,-0.969 -9.867,-284.778 -9.867,-284.778 -0.032,-0.789 0.222,-1.57 0.703,-2.195 z m 110.285,111.258 c 0,0 0.125,-0.996 -0.68,-1.453 -0.804,-0.45 -24.883,-13.965 -24.883,-13.965 l -2.785,240.625 c 2.731,0.886 5.352,1.922 7.868,3.066 z m -10.059,237.773 c -1.847,2.61 -2.457,4.375 -2.433,5.528 0,0.402 0.054,0.761 0.183,1.191 H 614 c 0.258,0.637 2.313,2.832 4.145,4.387 1.851,1.621 3.503,2.871 3.511,2.879 0.965,0.597 1.582,2.14 1.508,3.058 -0.059,1.367 -0.414,1.844 -0.625,2.383 -0.234,0.477 -0.484,0.898 -0.664,1.289 -0.234,0.508 -0.383,1.648 0.648,2.676 1.168,1.172 2.809,0.691 3.157,0.547 1.254,-0.508 3.351,-1.465 5.367,-2.668 2.98,-1.739 5.984,-4.188 7.094,-6.239 1.117,-1.933 2.031,-4.464 1.992,-6.171 -0.016,-1.133 -0.477,-2.004 -1.031,-2.629 -1.098,-1.25 -11.164,-9.696 -12.2,-10.34 -1.074,-0.762 -5.382,-2.598 -9.035,-3.946 -1.066,-0.402 -2.097,-0.781 -3.019,-1.113 -1.254,-0.527 -1.453,0.301 -1.453,0.301 0,0 -0.254,0.754 0.242,1.23 0.578,0.469 1.16,0.997 1.711,1.602 0.605,0.801 1.492,1.543 1.629,3.684 0.011,0.722 -0.223,1.629 -0.743,2.351 z m -95.125,189.59 c 0,1.504 0.524,1.75 0.778,1.719 5.226,-0.828 8.054,-3.086 9.886,-5.242 1.122,-1.36 1.805,-2.735 2.196,-3.743 0.195,-0.507 0.324,-0.918 0.39,-1.179 0.036,-0.137 0.055,-0.227 0.067,-0.274 l 0.004,-0.011 c 0.277,-1.641 1.715,-2.852 3.379,-2.852 h 66.82 c 1.699,0 3.137,1.242 3.391,2.922 0.066,0.332 0.597,2.488 2.742,4.551 1.789,1.679 4.73,3.504 10.062,4.168 0.731,0.156 0.852,-0.555 0.852,-1.192 0,-7.07 -0.25,-21.816 -0.25,-43.222 0,-17.43 4.492,-31.485 8.804,-45.399 4.321,-13.945 8.485,-27.773 8.485,-45.41 0,-9.434 -1.797,-18.469 -5.277,-26.641 -3.071,1.707 -5.645,2.754 -7.071,3.164 -0.488,0.125 -0.972,0.184 -1.426,0.184 -2.711,-0.117 -4.453,-1.316 -6.175,-2.508 -1.688,-1.367 -2.973,-2.324 -3.942,-4.445 -0.273,-0.703 -0.386,-1.422 -0.386,-2.09 0.042,-1.875 0.679,-3.164 1.171,-4.16 -0.707,-0.574 -1.539,-1.27 -2.394,-2.039 -1.113,-0.996 -2.277,-2.09 -3.281,-3.235 -1.008,-1.171 -1.914,-2.207 -2.489,-3.914 -0.328,-1.035 -0.496,-2.121 -0.492,-3.214 0.012,-2.09 0.59,-4.032 1.555,-5.958 -10.363,-6.015 -23.367,-9.558 -39.059,-9.57 -22.855,0.02 -39.234,7.863 -50.097,19.27 -8.086,8.504 -13.102,19.101 -15.129,30.066 3.375,2.852 9.293,8.067 16.808,15.598 1.274,1.289 2.668,2.801 4.145,4.461 2.414,-8.582 7.234,-15.731 13.531,-21.063 8.77,-7.449 20.273,-11.476 32.184,-11.836 0.207,-0.039 0.422,-0.07 0.64,-0.07 0.094,0 0.184,0.019 0.27,0.031 0.277,-0.012 0.554,-0.039 0.832,-0.039 25.734,0.078 45.012,22.84 45.062,48.086 -0.015,11.328 -2.656,19.238 -5.121,31.453 C 610.09,650 607.59,667 607.59,696.98 c 0,0.899 -0.367,1.778 -1.008,2.415 -0.637,0.644 -1.519,1.003 -2.422,1.003 h -65.972 c -0.903,0 -1.786,-0.359 -2.422,-0.996 -0.633,-0.644 -1.004,-1.523 -1.004,-2.422 -0.004,-21.453 -1.379,-35.222 -3.157,-45.507 l -15.492,-11.766 c 1.231,4.453 2.332,8.973 3.203,13.594 0.059,0.195 0.098,0.39 0.118,0.594 1.093,5.949 1.793,12.07 1.82,18.418 0,22.511 -0.094,40.48 -0.145,49.062 z m -107.32,-52.227 c 5.234,0.02 9.91,-1.503 12.633,-4.265 4.445,-4.445 9.254,-10.5 12.894,-15.41 3.649,-4.914 6.122,-8.653 6.133,-8.664 0.25,-0.379 0.563,-0.692 0.938,-0.946 l 41.047,-27.636 c 1.214,-0.832 2.808,-0.782 3.984,0.105 l 52.266,39.719 0.218,0.183 c 0,0 1.157,1.047 2.676,2.317 1.504,1.258 3.406,2.762 4.582,3.496 2.723,1.797 14.254,8.633 21.59,8.836 0.648,0.031 1.27,0.051 1.863,0.051 3.535,0.019 6.145,-0.598 7.438,-1.457 1.242,-0.887 1.804,-1.602 1.898,-4.161 0,-4.179 0.071,-10.351 0.071,-10.351 0.019,-1.66 1.21,-2.762 2.843,-3.047 1.289,0 3.016,-0.371 3.016,-2.352 0,-2.265 -1.551,-2.609 -2.281,-2.695 -1.25,-0.156 -2.422,-0.305 -2.907,-0.371 l -3.226,0.008 -0.863,-0.106 c -0.012,0 -4.411,-1.144 -9.149,-2.277 -2.359,-0.566 -4.808,-1.141 -6.789,-1.551 -0.988,-0.207 -1.867,-0.383 -2.535,-0.5 -0.328,-0.047 -0.609,-0.097 -0.813,-0.117 -0.195,-0.027 -0.246,-0.019 -0.246,-0.027 -3.023,-0.012 -7.707,-0.528 -7.777,-0.539 -0.973,-0.106 -1.863,-0.633 -2.426,-1.426 -0.012,-0.02 -5.789,-8.231 -13.051,-17.918 -7.242,-9.68 -16.019,-20.879 -21.628,-26.496 -5.833,-5.84 -10.68,-10.254 -14.047,-13.192 -1.051,-0.918 -1.961,-1.679 -2.707,-2.304 -0.379,-0.325 -1.321,-0.742 -2.289,-0.344 -5.02,2.062 -15.723,6.348 -28.61,11.855 -17.988,7.688 -40.23,17.668 -57.094,26.7 -3.359,1.718 -9.308,5.39 -14.23,10.578 -0.531,0.554 -1.043,1.14 -1.547,1.726 -0.16,0.196 -0.32,0.391 -0.476,0.578 -0.379,0.457 -0.747,0.926 -1.094,1.407 -0.278,0.371 -0.539,0.75 -0.797,1.121 -0.223,0.324 -0.438,0.644 -0.645,0.976 -0.246,0.383 -0.48,0.774 -0.711,1.164 -0.086,0.164 -0.171,0.332 -0.261,0.489 -0.457,0.828 -0.875,1.687 -1.246,2.558 -0.051,0.125 -0.106,0.242 -0.161,0.36 -0.207,0.519 -0.402,1.027 -0.578,1.543 0,0.011 0,0.011 0,0.011 -0.004,0.008 -0.004,0.02 -0.007,0.028 -0.309,0.918 -0.551,1.855 -0.75,2.824 -0.086,0.41 -0.168,0.82 -0.231,1.238 -0.051,0.313 -0.094,0.637 -0.129,0.949 -0.082,0.801 -0.144,1.59 -0.144,2.411 0,0.539 0.023,1.086 0.062,1.632 0.035,0.45 0.082,0.918 0.149,1.375 0.007,0.079 0.011,0.157 0.023,0.235 0.156,1.094 0.387,2.219 0.703,3.359 0,0.012 0,0.012 0,0.012 l 0.004,0.008 c 0.191,0.695 0.414,1.398 0.668,2.121 0.016,0.039 0.023,0.066 0.039,0.105 0.238,0.656 0.516,1.34 0.813,2.012 0.043,0.098 0.082,0.195 0.125,0.293 0.285,0.625 0.605,1.269 0.937,1.914 0.078,0.137 0.145,0.285 0.223,0.43 0.418,0.773 0.871,1.554 1.371,2.363 v 0 c 3.105,5.207 12.047,9.152 20.238,9.062 z m 33.52,-6.55 c 0.605,-0.481 1.347,-0.723 2.117,-0.723 0.07,0 0.148,0 0.222,0 l 39.864,2.715 c 1.308,0.086 2.445,0.906 2.937,2.129 0.5,1.211 0.254,2.586 -0.613,3.562 l -7.172,8.039 c 4.168,-1.277 7.762,-2.394 10.539,-3.242 2.133,-0.535 6.047,-3.984 9.363,-8.449 3.137,-4.102 6.016,-8.961 7.907,-12.879 -1.414,-7.07 -3.442,-14.043 -5.586,-21.066 l -17.668,-13.418 -38.453,25.91 c -1.95,2.879 -10.895,15.906 -19.5,24.551 -4.563,4.511 -11.024,6.269 -17.477,6.277 -1.191,-0.008 -2.387,-0.078 -3.586,-0.203 1.688,0.926 3.375,1.824 5.024,2.695 2.503,1.328 4.906,2.578 7.043,3.68 z m 39.703,56.855 c 0,0 0.054,-1.066 -0.856,-1.574 -0.906,-0.508 -1.527,-1.406 -1.699,-2.43 -0.164,-1.027 0.277,-2.004 0.832,-2.844 0.133,-0.203 0.164,-0.644 -0.07,-1.054 -0.231,-0.41 -0.672,-1.192 -0.672,-1.192 -0.484,-0.839 -0.582,-1.836 -0.285,-2.754 0,0 0,0 0.039,-0.136 0.113,-0.399 0.363,-1.531 0.355,-2.703 0,-0.664 -0.531,-2.578 -1.867,-3.164 -1.273,-0.547 -3.437,-0.977 -6.273,-1.075 l -7.223,0.145 c -1.676,0.039 -3.137,-1.152 -3.434,-2.801 -0.031,-0.156 -0.195,-1.086 -0.195,-2.492 0.004,-1.883 0.277,-4.688 1.809,-7.547 0.574,-1.105 1.371,-2.187 2.375,-3.184 0.015,-0.011 0.019,-0.031 0.035,-0.05 h -0.004 l 12.187,-13.653 -31.574,-2.148 -21.5,16.816 c 1.059,0.528 1.672,0.84 1.672,0.84 1.172,0.578 1.902,1.758 1.902,3.067 v 9.933 l 13.805,13.84 c 0.852,0.848 1.192,2.105 0.899,3.258 -0.297,1.172 -1.196,2.101 -2.344,2.441 v 0.012 c -0.625,0.43 -4.758,1.746 -4.899,10.203 0.051,1.387 0.387,1.574 0.688,1.895 0.109,0.089 0.23,0.168 0.336,0.214 l 8.972,0.079 c 1.063,0.011 2.055,0.507 2.704,1.347 0,0 14.367,18.996 15.359,20.227 0.984,1.25 2.488,1.336 2.488,1.336 l 19.465,2.129 c 0,0 0.996,0.058 1.149,-1.153 0.164,-1.797 0.371,-3.972 0.589,-6.347 0.043,-0.996 -0.617,-1.368 -0.992,-1.375 -2.472,-0.079 -5.047,-0.149 -7.793,-0.254 -2.879,-0.11 -6.015,-1.426 -8.086,-3.176 -1.531,-1.289 -1.586,-3.691 -0.156,-5.066 0.785,-0.762 2.496,-1.016 4.367,-1.583 2.363,-0.714 4.985,-1.613 6.297,-1.191 1.676,0.535 2.313,2.02 2.43,3.641 0.125,1.808 1.211,3.047 3.035,3.047 0.769,0 1.238,-0.633 1.309,-1.289 0.347,-3.407 0.972,-7.723 1.179,-10.176 0.106,-1.199 0.203,-2.313 0.278,-3.25 0.027,-1.219 -1.043,-1.321 -1.59,-1.379 -1.133,-0.145 -2.032,-0.176 -2.032,-0.184 -0.925,-0.039 -1.781,-0.449 -2.394,-1.144 -0.621,-0.692 -0.93,-1.582 -0.859,-2.508 z m -52.371,26.172 c -0.61,1.746 -2.477,2.695 -4.231,2.156 1.492,1.328 2.973,2.617 4.403,3.84 l 14.707,1.922 c 1.875,0.254 3.195,1.973 2.953,3.848 -0.246,1.875 -1.969,3.195 -3.844,2.949 l -2.242,-0.293 c 4.593,2.707 9.304,4.894 13.183,6.496 2.621,1.082 4.868,1.902 6.446,2.449 1.578,0.539 2.441,0.793 2.445,0.801 1.812,0.539 2.848,2.441 2.309,4.258 -0.54,1.808 -2.446,2.844 -4.254,2.304 -0.11,-0.039 -5.832,-1.726 -13.231,-5.066 1.074,1.543 0.703,3.672 -0.84,4.754 -1.547,1.086 -3.679,0.715 -4.769,-0.828 l -7.871,-11.192 c -0.703,-0.46 -1.41,-0.929 -2.106,-1.406 -1.011,-0.715 -2.125,-1.554 -3.301,-2.48 l 0.801,1.562 c 0.864,1.68 0.199,3.75 -1.476,4.61 -1.688,0.867 -3.75,0.203 -4.614,-1.485 l -8.625,-16.777 c -2.14,-1.984 -4.132,-3.859 -5.836,-5.481 0.27,8.965 2.68,24.727 12.735,32.239 9.883,7.566 18.07,9.168 24.887,9.199 4.023,0 7.554,-0.606 10.683,-1.055 1.488,-0.195 6.754,-1.465 11.328,-2.629 4.625,-1.179 8.778,-2.285 8.782,-2.293 l 0.886,-0.109 c 5.059,-0.02 7.559,-1.316 8.906,-2.664 1.348,-1.359 1.879,-3.184 1.891,-5.195 0.02,-1.731 -0.723,-3.672 -1.566,-5.137 -0.305,-0.539 -0.59,-0.969 -0.856,-1.34 l -25.57,-2.801 c -0.934,-0.109 -1.781,-0.586 -2.359,-1.328 l -16.11,-21.223 -7.875,-0.058 -0.719,-0.086 c -0.316,-0.078 -1.757,-0.402 -3.359,-1.731 -1.613,-1.277 -3.203,-3.847 -3.152,-7.148 -0.028,-6.394 2.172,-10.781 4.597,-13.328 0.254,-0.274 0.504,-0.52 0.754,-0.754 l -10.496,-10.516 c -1.629,0.438 -4.273,1.356 -6.765,3.094 -3.18,2.246 -6.082,5.539 -7.028,11.301 -0.531,3.328 -0.719,6.074 -0.719,8.262 0.008,2.312 0.207,3.984 0.422,5.144 0.039,0.039 0.082,0.059 0.121,0.098 0.004,0.012 1.547,1.515 3.957,3.82 l 14.481,4.949 c 1.789,0.618 2.746,2.559 2.137,4.348 z M 254.844,386.816 c 1.926,-0.371 3.73,-0.546 5.41,-0.546 6.035,-0.02 10.434,2.285 13.109,4.628 2.7,2.352 3.817,4.649 3.957,4.922 l 0.008,0.028 c 0.008,0.011 0.012,0.019 0.012,0.019 0.019,0.039 0.043,0.098 0.082,0.188 l 0.191,0.457 104.239,243.769 c 0.218,-1.621 0.699,-4.785 1.144,-6.297 1.617,-27.382 7.902,-46.562 14.508,-61.289 3.82,-8.527 7.711,-15.039 10.758,-19.621 1.523,-2.293 2.836,-4.121 3.812,-5.449 0.328,-0.449 0.621,-0.84 0.86,-1.16 l -24.305,-83.977 c -0.387,-1.328 0.078,-2.773 1.156,-3.633 l 5.789,-4.597 c 0,0 0.735,-0.676 0.387,-1.934 -0.336,-1.261 -27.039,-99.824 -27.039,-99.824 l -84.785,-97.344 c -6.266,5.203 -24.672,22.235 -48.996,60.039 -21.196,32.899 -27.52,53.641 -27.477,65.477 0.012,5.891 1.477,9.465 3.215,11.68 0.023,0.031 0.051,0.05 0.074,0.078 l 0.082,0.117 c 0.102,0.129 0.211,0.266 0.313,0.383 1.941,2.156 4.32,2.91 6.117,2.91 0.226,0 0.445,-0.012 0.656,-0.039 9.434,-1.094 22.754,-6.211 36.723,-8.985 z m -45.68,93.036 169.524,171.406 -101.625,-238.582 c -1.516,3.984 -4.192,8.34 -8.649,12.637 -9.504,9.218 -48.672,44.91 -59.25,54.539 z m 54.481,-59.454 c 6.98,-6.824 8.23,-12.761 8.269,-16.777 0,-1.609 -0.234,-2.918 -0.453,-3.777 -0.109,-0.43 -0.215,-0.754 -0.285,-0.949 -0.02,-0.047 -0.028,-0.086 -0.043,-0.118 -0.313,-0.468 -3.047,-5.652 -10.879,-5.652 -1.215,0 -2.566,0.117 -4.094,0.418 -13.262,2.578 -26.359,7.715 -37.191,9.055 -0.18,0.027 -0.391,0.019 -0.578,0.039 l 26.023,35.691 c 8.496,-7.82 15.859,-14.668 19.231,-17.93 z m 2.835,-202.207 c -0.511,0.422 -1.386,1.875 -0.945,2.969 0.188,0.461 0.438,0.949 0.715,1.457 1.477,2.742 3.867,5.938 5.867,8.348 3.547,-7.637 12.094,-22.41 30.145,-38.348 -12.457,7.723 -24.403,16.25 -35.782,25.574 z m 525.817,391.387 c -17.234,40.664 -41.801,77.121 -73.125,108.449 -31.305,31.27 -67.77,55.879 -108.387,73.075 -42.051,17.746 -86.726,26.738 -132.715,26.738 -46.058,0 -90.715,-8.992 -132.781,-26.738 C 304.668,773.906 268.23,749.285 236.887,718.027 205.59,686.699 181.008,650.242 163.855,609.57 c -17.82,-42.011 -26.843,-86.691 -26.843,-132.668 0,-46.074 9.023,-90.781 26.851,-132.773 17.145,-40.586 41.727,-77.07 73.016,-108.387 31.351,-31.289 67.789,-55.898 108.402,-73.086 12.731,-5.383 25.699,-9.953 38.867,-13.711 0.122,-0.039 0.227,-0.078 0.344,-0.117 6.606,-2.07 13.321,-3.711 20.071,-5.031 23.968,-5.262 48.527,-7.93 73.507,-7.93 15.215,0 30.285,1.008 45.16,2.969 0.04,0 0.075,0 0.11,0 8.668,0.5 14.773,1.809 18.801,3.047 23.484,4.453 46.437,11.379 68.644,20.773 40.617,17.188 77.082,41.797 108.387,73.086 l -2.418,2.422 2.418,-2.422 c 31.332,31.317 55.891,67.801 73.117,108.387 17.746,41.992 26.75,86.699 26.75,132.773 0,45.977 -9.004,90.657 -26.742,132.676"
         style="fill:#ffffff;fill-opacity:1;fill-rule:nonzero;stroke:none"
         id="path64" /><path
         d="m 87.4414,448.223 c 3.9258,0.507 7.3008,0.468 10.1055,-0.11 2.8201,-0.593 5.1911,-1.746 7.1411,-3.457 1.949,-1.718 3.492,-4.004 4.632,-6.863 1.141,-2.852 1.973,-6.289 2.5,-10.324 0.446,-3.438 0.493,-6.621 0.137,-9.531 -0.355,-2.918 -1.219,-5.489 -2.602,-7.723 -1.375,-2.227 -3.296,-4.063 -5.761,-5.508 -2.465,-1.445 -8.3284,-2.687 -8.3284,-2.687 -0.5625,-0.118 -1.4804,-0.274 -2.0429,-0.34 l -30.2188,-3.957 c -0.5625,-0.078 -1.0508,-0.594 -1.0859,-1.172 l -0.2539,-4.453 c -0.0313,-0.567 -0.5196,-1.094 -1.086,-1.172 l -1.3398,-0.176 c -0.5625,-0.066 -1.082,0.332 -1.1602,0.898 L 55.4141,412 c -0.0664,0.566 0.332,1.086 0.8984,1.164 l 1.3359,0.176 c 0.5664,0.066 1.1719,-0.313 1.3516,-0.852 l 1.375,-4.16 c 0.1797,-0.547 0.793,-0.926 1.3594,-0.848 l 33.8203,4.415 c 4.1445,0.546 7.2503,2.207 9.3163,4.988 2.07,2.793 2.789,6.621 2.145,11.515 -0.661,5.047 -2.371,8.555 -5.145,10.52 -2.7694,1.961 -11.1913,1.891 -11.1913,1.891 -0.5742,0 -1.5,-0.067 -2.0625,-0.145 l -30.7031,-4.016 c -0.5664,-0.066 -1.0547,-0.593 -1.0821,-1.171 l -0.2578,-4.442 c -0.0351,-0.578 -0.5234,-1.094 -1.0898,-1.172 l -1.3321,-0.175 c -0.5664,-0.079 -1.0898,0.332 -1.164,0.898 l -2.3828,18.25 c -0.0782,0.566 0.3203,1.086 0.8867,1.164 l 1.3359,0.164 c 0.5664,0.078 1.1719,-0.301 1.3516,-0.84 l 1.3984,-4.246 c 0.1758,-0.539 0.7852,-0.918 1.3438,-0.851 l 30.5195,3.996"
         style="fill:#ffffff;fill-opacity:1;fill-rule:nonzero;stroke:none"
         id="path66" /><path
         d="m 50.9531,495.547 c 0.043,0.574 0.4805,1.277 0.9688,1.562 l 42.6914,25.43 -35.7227,2.637 c -0.5703,0.039 -1.1562,-0.371 -1.3086,-0.93 l -1.1523,-4.226 c -0.1445,-0.547 -0.7344,-0.957 -1.3008,-0.918 l -1.3437,0.097 c -0.5664,0.047 -0.9961,0.547 -0.9532,1.114 l 1.3282,17.546 c 0.0429,0.567 0.5429,0.996 1.1132,0.957 l 1.3438,-0.105 c 0.5664,-0.039 1.082,-0.539 1.1484,-1.106 l 0.4961,-4.433 c 0.0625,-0.567 0.5821,-1.063 1.1485,-1.113 L 110,528.223 c 0.566,-0.039 0.996,-0.547 0.957,-1.114 l -0.383,-4.98 c -0.043,-0.566 -0.476,-1.27 -0.969,-1.563 l -49.3159,-28.925 41.5589,-3.145 c 0.562,-0.051 1.148,0.359 1.3,0.918 l 1.153,4.227 c 0.148,0.547 0.738,0.968 1.304,0.918 l 1.344,-0.098 c 0.567,-0.039 0.996,-0.535 0.957,-1.102 l -1.336,-17.558 c -0.043,-0.567 -0.547,-0.996 -1.109,-0.957 l -1.34,0.105 c -0.57,0.039 -1.09,0.539 -1.152,1.106 l -0.496,4.441 c -0.067,0.559 -0.582,1.067 -1.149,1.106 l -45.4763,3.445 c -0.5704,0.039 -1.1563,-0.371 -1.3008,-0.926 l -1.168,-4.308 c -0.1484,-0.547 -0.7305,-0.965 -1.3047,-0.918 l -1.3359,0.097 c -0.5742,0.039 -0.9961,0.547 -0.957,1.113 l 1.1718,15.442"
         style="fill:#ffffff;fill-opacity:1;fill-rule:nonzero;stroke:none"
         id="path68" /><path
         d="m 68.4805,590.281 c 0.5586,-0.136 0.9843,-0.711 0.9531,-1.277 l -0.2383,-4.387 c -0.0351,-0.566 0.3906,-1.152 0.9453,-1.289 l 44.2504,-11.043 c 0.55,-0.148 1.199,0.164 1.437,0.684 l 1.848,3.972 c 0.238,0.52 0.887,0.832 1.441,0.696 l 1.309,-0.324 c 0.551,-0.145 0.89,-0.711 0.75,-1.258 l -4.977,-19.922 c -0.136,-0.547 -0.703,-0.891 -1.25,-0.742 l -1.304,0.32 c -0.555,0.137 -0.985,0.723 -0.95,1.289 l 0.239,4.375 c 0.031,0.566 -0.395,1.145 -0.954,1.293 l -44.2417,11.043 c -0.5508,0.137 -1.1992,-0.168 -1.4414,-0.684 l -1.8477,-3.976 c -0.2383,-0.516 -0.8906,-0.828 -1.4414,-0.692 l -1.3047,0.332 c -0.5547,0.125 -0.8945,0.692 -0.7539,1.25 l 4.9727,19.911 c 0.1367,0.558 0.7031,0.89 1.2539,0.753 l 1.3047,-0.324"
         style="fill:#ffffff;fill-opacity:1;fill-rule:nonzero;stroke:none"
         id="path70" /><path
         d="m 137.816,623.867 c 0.407,-0.402 0.563,-1.152 0.336,-1.679 l -2.398,-5.645 c -0.227,-0.527 -0.871,-0.918 -1.441,-0.891 l -53.7114,3.633 c -0.5703,0.039 -1.3164,-0.312 -1.6446,-0.762 l -1.9765,-2.714 c -0.336,-0.457 -1.0313,-0.653 -1.5625,-0.43 l -1.2383,0.527 c -0.5234,0.215 -0.7734,0.832 -0.5469,1.36 L 81,634.578 c 0.2266,0.527 0.8359,0.774 1.3594,0.547 l 1.2383,-0.527 c 0.5273,-0.215 0.8711,-0.86 0.7656,-1.414 l -0.6328,-3.457 c -0.1016,-0.567 0.2734,-1.055 0.8437,-1.106 l 43.1408,-3.34 -31.6798,30.313 c -0.4102,0.39 -1.0118,0.324 -1.3321,-0.145 l -2.3789,-3.488 c -0.3164,-0.477 -1.0039,-0.684 -1.5351,-0.457 l -1.2383,0.527 c -0.5235,0.223 -0.7695,0.84 -0.5469,1.356 l 6.6367,15.597 c 0.2227,0.528 0.8399,0.77 1.3633,0.547 l 1.2344,-0.527 c 0.5273,-0.227 0.8633,-0.859 0.7422,-1.418 l -0.8399,-4.063 c -0.1172,-0.546 0.1211,-1.335 0.5313,-1.726 l 39.1441,-37.93"
         style="fill:#ffffff;fill-opacity:1;fill-rule:nonzero;stroke:none"
         id="path72" /><path
         d="m 245.73,771.27 c 1.297,0.339 2.637,0.847 4.036,1.511 1.394,0.657 2.531,1.321 3.402,1.953 3.094,2.297 5.02,4.746 5.781,7.364 0.758,2.617 0.223,5.175 -1.621,7.656 -1.094,1.484 -2.355,2.512 -3.789,3.078 -1.426,0.555 -2.937,0.848 -4.547,0.879 -1.597,0.027 -3.262,-0.117 -4.972,-0.441 -1.715,-0.321 -3.43,-0.602 -5.129,-0.86 -2.578,-0.34 -4.907,-0.652 -7,-0.926 -2.094,-0.265 -4.008,-0.293 -5.743,-0.089 -1.734,0.195 -3.332,0.722 -4.796,1.562 -1.465,0.832 -2.856,2.148 -4.18,3.945 -1.449,1.953 -2.317,3.996 -2.602,6.114 -0.289,2.109 -0.054,4.25 0.696,6.379 0.746,2.136 1.976,4.246 3.699,6.335 1.726,2.083 3.879,4.075 6.449,5.977 0.957,0.715 2.043,1.418 3.246,2.102 1.207,0.691 2.445,1.347 3.703,1.984 1.254,0.613 2.5,1.187 3.742,1.695 1.239,0.508 2.379,0.871 2.379,0.871 0.547,0.164 1.106,0.215 1.246,0.098 0.149,-0.117 0.497,-0.625 0.774,-1.113 l 4.32,-7.61 c 0.278,-0.496 0.133,-1.179 -0.32,-1.523 l -2.848,-2.098 c -0.457,-0.332 -1.191,-0.312 -1.629,0.047 l -5.3,4.445 c -0.934,-0.019 -2.028,-0.273 -3.282,-0.761 -1.254,-0.489 -2.629,-1.281 -4.105,-2.375 -2.66,-1.973 -4.317,-4.149 -4.961,-6.551 -0.649,-2.402 -0.172,-4.699 1.445,-6.875 1.031,-1.406 2.145,-2.363 3.348,-2.891 1.195,-0.527 2.473,-0.8 3.828,-0.812 1.359,-0.008 2.77,0.137 4.227,0.441 1.457,0.301 2.961,0.594 4.515,0.867 2.137,0.293 4.375,0.645 6.703,1.055 2.325,0.402 4.59,0.559 6.782,0.461 2.195,-0.09 4.257,-0.539 6.199,-1.34 1.929,-0.789 3.597,-2.226 4.992,-4.297 1.777,-2.664 2.777,-5.214 3.02,-7.636 0.238,-2.422 -0.083,-4.735 -0.977,-6.942 -0.895,-2.207 -2.32,-4.347 -4.27,-6.398 -1.953,-2.051 -4.242,-4.043 -6.847,-5.977 -2.36,-1.738 -4.821,-3.242 -7.395,-4.5 -2.566,-1.261 -5.914,-2.617 -5.914,-2.617 -0.527,-0.215 -1.062,-0.285 -1.18,-0.148 -0.128,0.117 -0.464,0.636 -0.75,1.125 L 235.738,772 c -0.289,0.5 -0.148,1.184 0.313,1.516 l 2.844,2.109 c 0.457,0.34 1.195,0.313 1.628,-0.051 l 5.207,-4.304"
         style="fill:#ffffff;fill-opacity:1;fill-rule:nonzero;stroke:none"
         id="path74" /><path
         d="m 286.609,855.359 c 0.27,-0.507 0.129,-1.211 -0.304,-1.57 l -3.41,-2.766 c -0.434,-0.359 -0.582,-1.062 -0.305,-1.562 l 21.586,-40.184 c 0.273,-0.5 0.937,-0.761 1.476,-0.597 l 4.192,1.308 c 0.547,0.168 1.207,-0.097 1.48,-0.605 l 0.633,-1.18 c 0.27,-0.5 0.078,-1.133 -0.418,-1.406 l -18.082,-9.719 c -0.504,-0.273 -1.133,-0.078 -1.406,0.422 l -0.637,1.191 c -0.269,0.497 -0.125,1.2 0.316,1.563 l 3.399,2.773 c 0.445,0.36 0.586,1.055 0.316,1.563 l -21.597,40.164 c -0.262,0.508 -0.934,0.781 -1.477,0.605 l -4.183,-1.296 c -0.543,-0.176 -1.211,0.097 -1.477,0.593 l -0.641,1.184 c -0.269,0.508 -0.078,1.14 0.418,1.406 l 18.082,9.727 c 0.504,0.261 1.133,0.066 1.407,-0.43 l 0.632,-1.184"
         style="fill:#ffffff;fill-opacity:1;fill-rule:nonzero;stroke:none"
         id="path76" /><path
         d="m 309.07,868.484 c 0.125,0.332 0.66,0.754 1.196,0.95 l 42.207,15.351 c 0.535,0.195 1.195,0.281 1.468,0.184 0.27,-0.086 0.664,-0.594 0.879,-1.121 l 3.637,-9.035 c 0.215,-0.528 -0.051,-1.114 -0.586,-1.309 l -3.398,-1.238 c -0.535,-0.196 -1.235,0.027 -1.559,0.507 l -2.969,4.395 c -0.316,0.477 -1.023,0.73 -1.57,0.566 l -4.414,-1.308 c -0.547,-0.156 -1.434,-0.449 -1.969,-0.645 l -4.289,-1.554 15.848,-43.622 c 0.199,-0.527 0.812,-0.898 1.375,-0.8 l 4.332,0.691 c 0.566,0.09 1.18,-0.273 1.379,-0.808 l 0.461,-1.27 c 0.195,-0.539 -0.086,-1.133 -0.618,-1.32 l -19.292,-7.02 c -0.54,-0.195 -1.133,0.09 -1.329,0.625 l -0.461,1.27 c -0.195,0.527 0.043,1.211 0.536,1.492 l 3.761,2.258 c 0.493,0.293 0.735,0.965 0.539,1.504 l -15.871,43.613 -4.281,-1.574 c -0.535,-0.196 -1.402,-0.536 -1.93,-0.77 l -4.222,-1.836 c -0.524,-0.226 -0.903,-0.879 -0.844,-1.445 l 0.551,-5.274 c 0.062,-0.566 -0.328,-1.191 -0.864,-1.386 l -3.398,-1.231 c -0.539,-0.195 -1.117,0.086 -1.297,0.633 l -2.898,8.945 c -0.176,0.539 -0.219,1.25 -0.11,1.582"
         style="fill:#ffffff;fill-opacity:1;fill-rule:nonzero;stroke:none"
         id="path78" /><path
         d="m 398.711,887.352 -4.32,-23.993 15.898,2.996 z m 13.707,-24.813 -18.855,-3.566 -2.911,-17.274 c -0.089,-0.558 0.293,-1.027 0.868,-1.047 l 3.906,-0.066 c 0.57,-0.012 1.121,-0.481 1.222,-1.043 l 0.254,-1.32 c 0.106,-0.555 -0.265,-1.106 -0.824,-1.211 l -16.5,-3.117 c -0.555,-0.098 -1.101,0.273 -1.203,0.832 l -0.25,1.328 c -0.105,0.554 0.234,1.191 0.758,1.414 l 3.379,1.437 c 0.527,0.215 1.039,0.86 1.144,1.414 l 10.41,54.239 c 0.11,0.558 0.657,1.105 1.211,1.211 l 7.235,1.367 c 0.558,0.097 1.25,-0.215 1.527,-0.711 l 26.84,-47.168 c 0.277,-0.5 0.976,-0.918 1.551,-0.93 l 3.578,-0.117 c 0.574,-0.02 1.129,-0.488 1.23,-1.043 l 0.246,-1.328 c 0.11,-0.559 -0.261,-1.106 -0.824,-1.203 l -18.887,-3.574 c -0.558,-0.098 -1.105,0.265 -1.214,0.82 l -0.246,1.328 c -0.106,0.566 0.238,1.203 0.757,1.426 l 3.379,1.437 c 0.528,0.215 0.735,0.809 0.461,1.309 l -8.242,15.156"
         style="fill:#ffffff;fill-opacity:1;fill-rule:nonzero;stroke:none"
         id="path80" /><path
         d="m 464.641,850.906 c 1.242,-0.476 2.629,-0.867 4.148,-1.152 1.516,-0.293 2.816,-0.438 3.902,-0.43 3.848,0.012 6.852,0.852 9.012,2.52 2.16,1.66 3.235,4.035 3.223,7.129 -0.008,1.847 -0.422,3.418 -1.238,4.707 -0.821,1.308 -1.872,2.441 -3.153,3.41 -1.273,0.976 -2.699,1.824 -4.273,2.586 -1.574,0.754 -3.125,1.535 -4.645,2.344 -2.281,1.23 -4.347,2.363 -6.191,3.39 -1.848,1.016 -3.414,2.117 -4.688,3.309 -1.281,1.191 -2.261,2.551 -2.945,4.101 -0.684,1.543 -1.035,3.418 -1.047,5.645 -0.008,2.441 0.5,4.601 1.52,6.476 1.019,1.875 2.464,3.457 4.332,4.735 1.859,1.289 4.101,2.265 6.726,2.922 2.629,0.664 5.539,0.996 8.739,1.015 1.191,0 2.48,-0.07 3.863,-0.226 1.387,-0.157 2.765,-0.36 4.148,-0.594 1.387,-0.246 2.731,-0.52 4.028,-0.832 1.3,-0.32 2.437,-0.711 2.437,-0.711 0.535,-0.187 1.016,-0.488 1.066,-0.656 0.04,-0.184 0.024,-0.789 -0.042,-1.367 l -1.012,-8.68 c -0.067,-0.567 -0.582,-1.035 -1.156,-1.035 l -3.54,-0.012 c -0.566,-0.008 -1.14,0.449 -1.277,0.996 l -1.656,6.719 c -0.762,0.539 -1.797,0.976 -3.102,1.328 -1.297,0.344 -2.871,0.52 -4.711,0.508 -3.308,-0.008 -5.933,-0.801 -7.875,-2.352 -1.945,-1.554 -2.91,-3.683 -2.902,-6.398 0.012,-1.738 0.34,-3.172 0.996,-4.317 0.656,-1.121 1.524,-2.097 2.613,-2.91 1.09,-0.808 2.309,-1.523 3.668,-2.136 1.356,-0.625 2.743,-1.282 4.161,-1.985 1.898,-1.015 3.906,-2.051 6.031,-3.105 2.113,-1.043 4.027,-2.254 5.742,-3.633 1.707,-1.375 3.113,-2.957 4.203,-4.746 1.09,-1.778 1.586,-3.926 1.488,-6.414 -0.144,-3.203 -0.839,-5.852 -2.074,-7.942 -1.234,-2.097 -2.867,-3.769 -4.894,-5.027 -2.028,-1.262 -4.434,-2.129 -7.227,-2.637 -2.785,-0.5 -5.809,-0.754 -9.062,-0.761 -2.922,-0.02 -5.793,0.222 -8.618,0.73 -2.816,0.5 -6.316,1.379 -6.316,1.379 -0.551,0.144 -1.027,0.398 -1.047,0.574 -0.023,0.176 0.012,0.793 0.067,1.359 l 0.949,8.692 c 0.062,0.555 0.582,1.023 1.148,1.023 l 3.539,0.02 c 0.571,0 1.153,-0.449 1.289,-0.996 l 1.653,-6.563"
         style="fill:#ffffff;fill-opacity:1;fill-rule:nonzero;stroke:none"
         id="path82" /><path
         d="m 617.133,868.816 c -1.508,4.766 -4.809,7.969 -9.91,9.629 -5.16,1.672 -9.739,1.067 -13.743,-1.797 -4,-2.859 -7.308,-8.32 -9.917,-16.367 -2.645,-8.152 -3.227,-14.609 -1.747,-19.363 1.481,-4.758 4.793,-7.969 9.946,-9.641 5.156,-1.668 9.738,-1.074 13.746,1.789 4,2.872 7.308,8.329 9.918,16.375 2.64,8.145 3.211,14.61 1.707,19.375 z m -5.121,-40.976 c -6.199,-3.328 -13.535,-3.613 -21.985,-0.879 -4.074,1.332 -7.515,3.098 -10.332,5.324 -2.808,2.215 -4.949,4.852 -6.41,7.891 -1.465,3.047 -2.222,6.465 -2.269,10.273 -0.043,3.809 0.66,7.957 2.113,12.442 1.519,4.695 3.476,8.621 5.871,11.785 2.387,3.156 5.117,5.547 8.184,7.179 3.058,1.641 6.425,2.528 10.089,2.676 3.665,0.145 7.508,-0.422 11.532,-1.73 4.023,-1.297 7.449,-3.067 10.289,-5.301 2.836,-2.227 4.992,-4.875 6.476,-7.961 1.481,-3.066 2.25,-6.531 2.321,-10.371 0.062,-3.836 -0.641,-8.027 -2.11,-12.566 -2.972,-9.192 -7.562,-15.442 -13.769,-18.762"
         style="fill:#ffffff;fill-opacity:1;fill-rule:nonzero;stroke:none"
         id="path84" /><path
         d="m 645.449,811.102 c 0.86,-1.024 1.887,-2.032 3.074,-3.016 1.196,-0.988 2.262,-1.731 3.219,-2.246 3.379,-1.836 6.422,-2.547 9.113,-2.129 2.692,0.418 4.782,1.992 6.254,4.707 0.879,1.621 1.274,3.191 1.184,4.727 -0.094,1.531 -0.473,3.027 -1.121,4.5 -0.652,1.464 -1.488,2.902 -2.508,4.316 -1.027,1.418 -2.008,2.844 -2.949,4.289 -1.406,2.176 -2.672,4.168 -3.801,5.945 -1.121,1.789 -1.969,3.508 -2.516,5.168 -0.55,1.66 -0.75,3.321 -0.609,5.008 0.145,1.68 0.746,3.496 1.805,5.449 1.164,2.141 2.644,3.801 4.445,4.942 1.793,1.164 3.82,1.855 6.07,2.082 2.254,0.222 4.688,0 7.309,-0.684 2.625,-0.683 5.332,-1.789 8.141,-3.312 1.054,-0.567 2.148,-1.25 3.281,-2.051 1.14,-0.801 2.258,-1.649 3.355,-2.52 1.098,-0.879 2.137,-1.765 3.129,-2.664 0.989,-0.91 1.797,-1.797 1.797,-1.797 0.383,-0.421 0.66,-0.91 0.609,-1.093 -0.042,-0.176 -0.351,-0.703 -0.683,-1.172 l -5.063,-7.121 c -0.332,-0.469 -1.015,-0.625 -1.511,-0.36 l -3.11,1.7 c -0.5,0.261 -0.789,0.937 -0.64,1.492 l 1.773,6.679 c -0.406,0.84 -1.098,1.731 -2.066,2.657 -0.981,0.929 -2.278,1.836 -3.895,2.715 -2.91,1.574 -5.586,2.148 -8.043,1.718 -2.449,-0.429 -4.32,-1.836 -5.613,-4.218 -0.828,-1.52 -1.227,-2.938 -1.199,-4.247 0.027,-1.32 0.32,-2.589 0.886,-3.82 0.567,-1.23 1.293,-2.441 2.188,-3.641 0.894,-1.191 1.793,-2.433 2.691,-3.73 1.172,-1.809 2.438,-3.684 3.789,-5.617 1.352,-1.942 2.45,-3.926 3.289,-5.957 0.84,-2.031 1.309,-4.09 1.415,-6.18 0.093,-2.09 -0.5,-4.211 -1.786,-6.348 -1.672,-2.734 -3.547,-4.718 -5.644,-5.968 -2.09,-1.231 -4.328,-1.914 -6.707,-2.039 -2.379,-0.137 -4.914,0.254 -7.606,1.16 -2.679,0.898 -5.453,2.129 -8.308,3.683 -2.574,1.395 -4.969,2.989 -7.203,4.786 -2.235,1.804 -4.871,4.246 -4.871,4.246 -0.422,0.402 -0.708,0.851 -0.641,1.015 0.062,0.168 0.383,0.696 0.707,1.153 l 5.012,7.168 c 0.328,0.461 1.004,0.617 1.507,0.351 l 3.106,-1.687 c 0.504,-0.274 0.797,-0.95 0.648,-1.496 l -1.703,-6.543"
         style="fill:#ffffff;fill-opacity:1;fill-rule:nonzero;stroke:none"
         id="path86" /><path
         d="m 704.703,773.719 c -0.355,-0.449 -0.273,-1.102 0.176,-1.453 l 7.008,-5.5 c 0.449,-0.348 1.199,-0.907 1.668,-1.219 l 3.726,-2.57 c 0.469,-0.321 1.215,-0.293 1.66,0.058 l 4.559,3.684 c 0.445,0.359 1.18,0.359 1.621,0.008 l 2.848,-2.235 c 0.449,-0.344 0.515,-0.988 0.152,-1.426 l -6.058,-7.199 c -0.375,-0.429 -0.833,-0.937 -1.032,-1.121 -0.207,-0.187 -0.738,-0.051 -1.183,0.301 l -30.36,23.801 c -0.449,0.351 -0.527,1.004 -0.172,1.453 l 0.825,1.054 c 0.351,0.45 1.058,0.606 1.562,0.344 l 3.899,-2.004 c 0.507,-0.254 1.211,-0.105 1.562,0.344 l 28.141,35.887 c 0.343,0.449 0.332,1.172 -0.047,1.601 l -2.875,3.313 c -0.371,0.43 -0.395,1.152 -0.043,1.601 l 0.828,1.043 c 0.352,0.45 1.008,0.539 1.457,0.188 l 16.09,-12.617 c 0.445,-0.352 0.523,-1.008 0.18,-1.457 l -0.836,-1.055 c -0.352,-0.449 -1.051,-0.605 -1.559,-0.34 l -3.898,2 c -0.508,0.266 -1.219,0.11 -1.567,-0.34 l -28.332,-36.144"
         style="fill:#ffffff;fill-opacity:1;fill-rule:nonzero;stroke:none"
         id="path88" /><path
         d="m 797.328,742.48 c 1.141,4.864 -0.066,9.305 -3.617,13.329 -3.578,4.062 -7.828,5.879 -12.734,5.461 -4.903,-0.43 -10.532,-3.438 -16.875,-9.036 -6.43,-5.671 -10.215,-10.925 -11.364,-15.769 -1.156,-4.844 0.055,-9.297 3.645,-13.371 3.582,-4.063 7.828,-5.879 12.734,-5.457 4.906,0.429 10.531,3.437 16.875,9.031 6.43,5.676 10.207,10.937 11.336,15.812 z m -25.277,-32.656 c -7.031,0.301 -13.481,3.789 -19.36,10.457 -2.832,3.215 -4.894,6.485 -6.175,9.836 -1.289,3.34 -1.789,6.688 -1.5,10.051 0.293,3.367 1.379,6.695 3.281,10 1.898,3.297 4.617,6.512 8.152,9.625 3.707,3.273 7.395,5.656 11.055,7.148 3.668,1.504 7.238,2.168 10.703,2.012 3.469,-0.156 6.816,-1.101 10.051,-2.84 3.23,-1.738 6.246,-4.191 9.039,-7.363 2.801,-3.164 4.848,-6.437 6.148,-9.797 1.313,-3.367 1.813,-6.758 1.52,-10.156 -0.285,-3.399 -1.387,-6.766 -3.285,-10.106 -1.899,-3.339 -4.645,-6.582 -8.223,-9.746 -7.242,-6.379 -14.375,-9.425 -21.406,-9.121"
         style="fill:#ffffff;fill-opacity:1;fill-rule:nonzero;stroke:none"
         id="path90" /><path
         d="m 820.645,674.043 c 0.429,0.359 0.546,1.062 0.257,1.562 l -6.179,10.497 -20.325,-12.247 6.649,-11.187 c 0.285,-0.492 0.789,-1.273 1.105,-1.742 l 2.551,-3.738 c 0.32,-0.481 1.024,-0.715 1.567,-0.54 l 5.55,1.836 c 0.539,0.176 1.223,-0.078 1.508,-0.566 l 1.899,-3.184 c 0.285,-0.488 0.117,-1.113 -0.387,-1.386 l -8.254,-4.52 c -0.496,-0.273 -1.113,-0.578 -1.367,-0.676 -0.258,-0.097 -0.703,0.227 -0.989,0.715 l -21.363,35.957 c -0.289,0.489 -0.129,1.133 0.363,1.414 l 1.157,0.696 c 0.492,0.293 1.199,0.183 1.582,-0.246 l 2.91,-3.282 c 0.375,-0.429 1.086,-0.535 1.574,-0.242 l 39.215,23.289 c 0.488,0.293 0.727,0.969 0.535,1.504 l -1.488,4.121 c -0.192,0.539 0.055,1.215 0.543,1.504 l 1.156,0.684 c 0.492,0.293 1.129,0.136 1.418,-0.348 l 20.371,-34.289 c 0.285,-0.488 0.5,-1.133 0.473,-1.445 -0.031,-0.305 -0.446,-0.801 -0.922,-1.106 l -8.195,-5.254 c -0.477,-0.312 -1.11,-0.164 -1.395,0.332 l -1.855,3.117 c -0.289,0.477 -0.192,1.2 0.222,1.59 l 4.442,4.192 c 0.414,0.39 0.539,1.121 0.281,1.629 l -2.109,4.101 c -0.258,0.508 -0.711,1.32 -1.004,1.809 l -5.989,10.144 -17.972,-10.722 6.195,-10.45 c 0.289,-0.488 0.961,-0.73 1.492,-0.523 l 4.106,1.539 c 0.531,0.195 1.203,-0.047 1.492,-0.535 l 1.558,-2.617 c 0.29,-0.5 0.125,-1.133 -0.363,-1.426 l -13.258,-7.871 c -0.492,-0.293 -1.125,-0.129 -1.418,0.359 l -1.558,2.617 c -0.289,0.489 -0.172,1.204 0.262,1.563 l 3.957,3.371"
         style="fill:#ffffff;fill-opacity:1;fill-rule:nonzero;stroke:none"
         id="path92" /><path
         d="m 148.637,698.34 c -0.524,0.223 -1.203,0.019 -1.52,-0.461 l -6.691,-10.176 19.961,-12.832 7.101,10.899 c 0.309,0.48 0.793,1.281 1.075,1.777 l 2.234,3.926 c 0.281,0.5 0.183,1.242 -0.215,1.64 l -4.094,4.18 c -0.398,0.402 -0.468,1.125 -0.16,1.602 l 2.024,3.105 c 0.308,0.469 0.941,0.598 1.41,0.273 l 7.699,-5.418 c 0.465,-0.324 1.008,-0.742 1.211,-0.929 0.199,-0.184 0.105,-0.731 -0.203,-1.211 l -22.84,-35.039 c -0.313,-0.469 -0.957,-0.606 -1.43,-0.293 l -1.129,0.734 c -0.476,0.313 -0.691,0.996 -0.476,1.524 l 1.66,4.062 c 0.215,0.527 0,1.211 -0.481,1.524 l -38.207,24.902 c -0.476,0.312 -1.191,0.223 -1.582,-0.176 l -3.046,-3.156 c -0.403,-0.41 -1.114,-0.488 -1.59,-0.176 l -1.129,0.734 c -0.477,0.313 -0.614,0.958 -0.305,1.438 l 21.777,33.395 c 0.309,0.48 0.797,0.957 1.086,1.066 0.282,0.105 0.911,-0.051 1.403,-0.344 l 8.332,-5.027 c 0.484,-0.293 0.633,-0.93 0.316,-1.406 l -1.973,-3.028 c -0.308,-0.48 -1.003,-0.703 -1.535,-0.508 l -5.718,2.129 c -0.532,0.203 -1.247,-0.011 -1.586,-0.468 l -2.746,-3.692 c -0.34,-0.461 -0.875,-1.222 -1.184,-1.699 l -6.469,-9.856 17.571,-11.394 6.64,10.176 c 0.309,0.468 0.227,1.179 -0.191,1.57 l -3.188,3 c -0.414,0.391 -0.5,1.102 -0.191,1.57 l 1.668,2.559 c 0.308,0.48 0.957,0.617 1.433,0.305 l 12.918,-8.418 c 0.481,-0.313 0.618,-0.957 0.305,-1.438 l -1.664,-2.558 c -0.313,-0.477 -0.996,-0.672 -1.52,-0.45 l -4.761,2.063"
         style="fill:#ffffff;fill-opacity:1;fill-rule:nonzero;stroke:none"
         id="path94" /><path
         d="m 875.316,629.227 c 0.18,-0.536 0.059,-1.356 -0.273,-1.817 l -29.113,-40.32 33.875,11.797 c 0.531,0.195 0.914,0.801 0.832,1.367 l -0.625,4.344 c -0.086,0.57 0.293,1.172 0.828,1.359 l 1.273,0.438 c 0.539,0.195 1.133,-0.098 1.317,-0.645 l 5.75,-16.621 c 0.191,-0.535 -0.102,-1.133 -0.641,-1.328 l -1.269,-0.43 c -0.536,-0.183 -1.211,0.059 -1.5,0.559 l -2.215,3.875 c -0.285,0.488 -0.957,0.742 -1.492,0.558 l -47.954,-16.582 c -0.535,-0.187 -1.125,0.106 -1.316,0.637 l -1.633,4.723 c -0.183,0.547 -0.062,1.359 0.278,1.828 l 33.781,46.16 -39.414,-13.641 c -0.535,-0.195 -0.903,-0.8 -0.828,-1.367 l 0.625,-4.348 c 0.082,-0.566 -0.293,-1.171 -0.832,-1.355 l -1.274,-0.441 c -0.535,-0.196 -1.133,0.097 -1.312,0.636 l -5.758,16.641 c -0.188,0.527 0.101,1.133 0.64,1.316 l 1.274,0.43 c 0.539,0.195 1.207,-0.059 1.488,-0.555 l 2.227,-3.867 c 0.285,-0.5 0.957,-0.754 1.496,-0.566 l 43.097,14.91 c 0.54,0.187 0.911,0.793 0.832,1.359 l -0.644,4.414 c -0.09,0.567 0.289,1.18 0.824,1.368 l 1.278,0.449 c 0.535,0.176 1.128,-0.11 1.312,-0.645 l 5.066,-14.64"
         style="fill:#ffffff;fill-opacity:1;fill-rule:nonzero;stroke:none"
         id="path96" /><path
         d="m 845.391,542.012 c -0.301,-1.301 -0.496,-2.727 -0.578,-4.27 -0.079,-1.543 -0.04,-2.851 0.113,-3.926 0.554,-3.808 1.797,-6.66 3.742,-8.574 1.945,-1.914 4.453,-2.644 7.516,-2.207 1.824,0.266 3.32,0.891 4.496,1.887 1.172,0.984 2.148,2.187 2.933,3.582 0.782,1.398 1.438,2.93 1.969,4.59 0.527,1.66 1.082,3.312 1.676,4.922 0.906,2.433 1.742,4.64 2.504,6.601 0.758,1.973 1.633,3.676 2.633,5.11 1.003,1.425 2.218,2.586 3.656,3.484 1.429,0.879 3.246,1.484 5.449,1.809 2.41,0.339 4.617,0.136 6.621,-0.618 1.996,-0.742 3.766,-1.961 5.293,-3.621 1.524,-1.672 2.797,-3.761 3.816,-6.269 1.024,-2.512 1.758,-5.352 2.211,-8.516 0.172,-1.183 0.278,-2.461 0.309,-3.848 0.035,-1.398 0.035,-2.793 -0.016,-4.191 -0.043,-1.406 -0.132,-2.773 -0.265,-4.102 -0.145,-1.347 -0.371,-2.519 -0.371,-2.519 -0.106,-0.566 -0.332,-1.074 -0.504,-1.141 -0.172,-0.078 -0.778,-0.148 -1.344,-0.148 l -8.75,-0.203 c -0.57,-0.012 -1.098,0.437 -1.18,1.004 l -0.504,3.496 c -0.078,0.566 0.286,1.203 0.817,1.418 l 6.422,2.566 c 0.425,0.82 0.718,1.906 0.886,3.242 0.164,1.34 0.114,2.922 -0.152,4.746 -0.469,3.274 -1.605,5.762 -3.41,7.473 -1.813,1.719 -4.059,2.371 -6.746,1.981 -1.711,-0.243 -3.09,-0.77 -4.125,-1.571 -1.035,-0.812 -1.879,-1.808 -2.528,-3 -0.652,-1.179 -1.195,-2.5 -1.617,-3.926 -0.422,-1.425 -0.883,-2.89 -1.379,-4.382 -0.75,-2.024 -1.5,-4.161 -2.242,-6.399 -0.75,-2.246 -1.683,-4.304 -2.808,-6.199 -1.125,-1.887 -2.5,-3.488 -4.118,-4.816 -1.617,-1.329 -3.668,-2.118 -6.152,-2.364 -3.187,-0.3 -5.91,0.02 -8.156,0.957 -2.238,0.938 -4.121,2.325 -5.649,4.153 -1.527,1.836 -2.73,4.101 -3.609,6.797 -0.879,2.683 -1.551,5.644 -2.016,8.855 -0.414,2.902 -0.57,5.781 -0.464,8.645 0.109,2.871 0.5,6.445 0.5,6.445 0.062,0.566 0.253,1.074 0.429,1.121 0.168,0.051 0.778,0.098 1.348,0.117 l 8.734,0.266 c 0.571,0.019 1.106,-0.442 1.184,-0.996 l 0.5,-3.496 c 0.086,-0.567 -0.281,-1.211 -0.805,-1.418 l -6.269,-2.547"
         style="fill:#ffffff;fill-opacity:1;fill-rule:nonzero;stroke:none"
         id="path98" /><path
         d="m 900.137,465.164 c -0.571,0 -1.129,0.461 -1.235,1.016 l -0.855,4.308 c -0.109,0.555 -0.664,1.016 -1.231,1.016 l -45.605,-0.207 c -0.574,0 -1.129,-0.457 -1.231,-1.016 l -0.808,-4.316 c -0.106,-0.555 -0.656,-1.016 -1.227,-1.016 l -1.343,-0.008 c -0.571,0 -1.039,0.457 -1.043,1.036 l -0.09,20.515 c -0.004,0.567 0.465,1.047 1.031,1.047 h 1.348 c 0.57,0.008 1.121,-0.449 1.234,-1.008 l 0.852,-4.304 c 0.105,-0.559 0.664,-1.016 1.234,-1.008 l 45.605,0.187 c 0.571,0.008 1.122,0.469 1.223,1.024 l 0.809,4.316 c 0.105,0.567 0.664,1.027 1.23,1.027 l 1.344,0.008 c 0.574,0 1.039,-0.468 1.043,-1.035 l 0.094,-20.527 c 0,-0.567 -0.465,-1.035 -1.036,-1.035 l -1.343,-0.02"
         style="fill:#ffffff;fill-opacity:1;fill-rule:nonzero;stroke:none"
         id="path100" /><path
         d="m 847.949,430.438 c -0.676,-1.153 -1.273,-2.45 -1.804,-3.907 -0.532,-1.453 -0.875,-2.715 -1.047,-3.789 -0.594,-3.797 -0.243,-6.894 1.054,-9.297 1.293,-2.39 3.473,-3.836 6.528,-4.316 1.828,-0.281 3.441,-0.125 4.855,0.48 1.41,0.594 2.695,1.454 3.856,2.559 1.164,1.102 2.242,2.375 3.234,3.809 0.988,1.433 2.008,2.839 3.047,4.218 1.586,2.051 3.031,3.907 4.336,5.575 1.305,1.66 2.64,3.019 4.023,4.093 1.375,1.082 2.875,1.825 4.512,2.254 1.629,0.43 3.543,0.469 5.742,0.129 2.41,-0.371 4.461,-1.223 6.149,-2.531 1.691,-1.309 3.019,-2.977 3.992,-5.02 0.961,-2.05 1.57,-4.422 1.804,-7.117 0.239,-2.695 0.106,-5.625 -0.394,-8.781 -0.18,-1.18 -0.465,-2.442 -0.832,-3.777 -0.371,-1.348 -0.793,-2.676 -1.246,-4.004 -0.453,-1.328 -0.949,-2.598 -1.473,-3.84 -0.519,-1.238 -1.086,-2.293 -1.086,-2.293 -0.265,-0.5 -0.636,-0.93 -0.816,-0.949 -0.188,-0.008 -0.781,0.109 -1.332,0.254 l -8.414,2.382 c -0.551,0.157 -0.922,0.743 -0.84,1.309 l 0.551,3.496 c 0.09,0.559 0.625,1.055 1.199,1.105 l 6.887,0.567 c 0.652,0.664 1.25,1.609 1.8,2.84 0.555,1.23 0.969,2.754 1.258,4.582 0.512,3.261 0.156,5.976 -1.07,8.144 -1.223,2.168 -3.176,3.465 -5.859,3.875 -1.708,0.274 -3.18,0.18 -4.411,-0.293 -1.222,-0.468 -2.324,-1.172 -3.297,-2.109 -0.968,-0.945 -1.867,-2.039 -2.695,-3.281 -0.824,-1.239 -1.695,-2.508 -2.613,-3.789 -1.313,-1.719 -2.652,-3.536 -4.027,-5.457 -1.372,-1.926 -2.875,-3.625 -4.504,-5.098 -1.625,-1.465 -3.411,-2.598 -5.352,-3.391 -1.93,-0.8 -4.129,-0.945 -6.574,-0.449 -3.141,0.656 -5.645,1.758 -7.508,3.313 -1.871,1.562 -3.262,3.437 -4.187,5.632 -0.915,2.207 -1.399,4.719 -1.45,7.551 -0.047,2.832 0.176,5.86 0.684,9.071 0.457,2.89 1.156,5.695 2.101,8.39 0.942,2.703 2.368,6.016 2.368,6.016 0.222,0.527 0.554,0.949 0.742,0.949 0.176,-0.012 0.777,-0.141 1.328,-0.285 l 8.422,-2.324 c 0.547,-0.149 0.926,-0.735 0.836,-1.301 l -0.547,-3.496 c -0.086,-0.567 -0.625,-1.055 -1.191,-1.114 l -6.739,-0.585"
         style="fill:#ffffff;fill-opacity:1;fill-rule:nonzero;stroke:none"
         id="path102" /><path
         d="m 232.484,136.75 c 0.512,-0.238 1.2,-0.051 1.516,0.426 l 23.48,33.73 -43.714,-24.765 c -0.5,-0.274 -1.266,-0.215 -1.711,0.148 l -1.746,1.414 c -0.442,0.363 -0.684,1.113 -0.539,1.66 l 12.648,47.219 -26.543,-28.914 c -0.406,-0.402 -0.465,-1.105 -0.129,-1.566 l 2.66,-3.614 c 0.344,-0.468 0.301,-1.179 -0.09,-1.601 l -0.91,-0.977 c -0.39,-0.41 -1.051,-0.437 -1.465,-0.035 l -12.937,12.047 c -0.414,0.391 -0.441,1.047 -0.055,1.465 l 0.918,0.976 c 0.387,0.422 1.098,0.512 1.582,0.215 l 3.731,-2.363 c 0.484,-0.293 1.207,-0.215 1.605,0.187 l 30.028,33.309 c 0.375,0.43 0.378,1.133 0.011,1.574 l -2.84,3.367 c -0.367,0.442 -0.371,1.164 -0.015,1.602 l 0.844,1.039 c 0.359,0.445 1.015,0.516 1.46,0.145 l 13.536,-10.997 c 0.445,-0.363 0.687,-1.105 0.543,-1.648 l -10.762,-41.566 37.047,20.187 c 0.496,0.274 1.265,0.203 1.707,-0.156 l 12.969,-10.539 c 0.445,-0.36 0.511,-1.016 0.152,-1.453 l -0.848,-1.047 c -0.355,-0.438 -1.062,-0.586 -1.558,-0.313 L 269.172,168 c -0.504,0.27 -1.192,0.113 -1.535,-0.332 l -25.602,-36.391 c -0.316,-0.468 -0.258,-1.191 0.129,-1.621 l 3.008,-3.222 c 0.387,-0.418 0.43,-1.133 0.094,-1.59 l -0.793,-1.086 c -0.336,-0.457 -0.989,-0.555 -1.446,-0.223 l -16.64,12.195 c -0.457,0.333 -0.563,0.989 -0.219,1.446 l 0.785,1.074 c 0.336,0.469 1.035,0.645 1.547,0.402 l 3.984,-1.902"
         style="fill:#ffffff;fill-opacity:1;fill-rule:nonzero;stroke:none"
         id="path104" /><path
         d="m 339.68,115.645 c 0.562,3.144 0.492,5.984 -0.215,8.543 -0.715,2.55 -2.059,4.835 -4.027,6.835 -1.969,2.012 -6.86,4.942 -6.86,4.942 -0.492,0.293 -1.305,0.742 -1.808,0.996 l -5.176,2.676 -21.985,-43.0081 4.93,-2.5391 c 2.379,-1.2109 4.676,-2.1875 6.891,-2.9296 2.222,-0.7422 4.355,-1.0821 6.398,-1.0352 3.262,0.2734 6.449,1.5625 9.578,3.8477 3.125,2.2968 5.996,5.9961 8.61,11.1053 1.875,3.895 3.093,7.422 3.664,10.567 z m -9.27,24.011 c 4.02,-2.051 7.528,-4.363 10.531,-6.933 2.997,-2.555 5.254,-5.43 6.778,-8.614 1.523,-3.183 2.191,-6.718 2.011,-10.593 -0.183,-3.887 -1.472,-8.164 -3.863,-12.844 -2.238,-4.3829 -4.859,-7.8712 -7.871,-10.4689 -3.012,-2.5976 -6.277,-4.3242 -9.808,-5.1953 -3.532,-0.8672 -7.29,-0.9453 -11.274,-0.2539 -3.98,0.7031 -11.348,3.8789 -11.348,3.8789 -0.523,0.2227 -1.363,0.6172 -1.875,0.8789 l -19.742,10.0977 c -0.508,0.2539 -0.707,0.8906 -0.453,1.3946 l 0.609,1.184 c 0.258,0.507 0.918,0.8 1.465,0.632 l 4.239,-1.23 c 0.546,-0.164 1.207,0.117 1.464,0.625 l 20.707,40.508 c 0.262,0.507 0.106,1.203 -0.343,1.562 l -3.485,2.707 c -0.449,0.352 -0.601,1.055 -0.343,1.551 l 0.609,1.203 c 0.266,0.508 0.891,0.711 1.391,0.449 l 20.601,-10.539"
         style="fill:#ffffff;fill-opacity:1;fill-rule:nonzero;stroke:none"
         id="path106" /><path
         d="m 427.676,99.6094 c -0.125,1.9136 -0.063,2.2456 -0.125,3.5936 -0.078,1.672 -0.613,2.297 -2.278,3.36 -0.656,0.417 -1.39,0.761 -2.16,1.105 -1.222,0.555 -2.617,0.973 -4.168,1.25 -2.836,0.516 -5.504,0.484 -7.976,-0.082 -2.489,-0.555 -4.723,-1.68 -6.715,-3.359 -1.988,-1.668 -3.691,-3.895 -5.117,-6.6997 -1.418,-2.7929 -2.481,-6.1328 -3.192,-10.0195 -1.492,-8.25 -0.906,-14.6758 1.77,-19.2851 2.676,-4.6094 7.308,-7.5196 13.894,-8.711 1.93,-0.3515 4.02,-0.4883 6.278,-0.4023 1.926,0.0781 4.144,0.3437 6.679,0.6562 1.317,0.1641 1.446,-0.8008 1.446,-0.8008 l 0.136,-1.0351 c 0,0 0.129,-1.2031 -0.867,-1.5742 -2.218,-0.8399 -4.754,-1.4336 -7.605,-1.8242 -3.289,-0.4493 -6.891,-0.3243 -10.801,0.3906 -3.746,0.6836 -7.168,1.8281 -10.242,3.4258 -3.086,1.6132 -5.633,3.75 -7.633,6.4257 -2.008,2.668 -3.379,5.9102 -4.129,9.7383 -0.738,3.8164 -0.652,8.2813 0.281,13.3985 0.934,5.1562 2.504,9.4648 4.707,12.9178 2.207,3.449 4.868,6.133 7.985,8.078 3.113,1.934 6.613,3.153 10.496,3.66 3.883,0.5 7.988,0.364 12.328,-0.429 2.945,-0.535 5.656,-1.309 8.125,-2.332 1.715,-0.723 3.336,-1.446 4.859,-2.2 2.11,-1.035 1.551,-2.82 1.551,-2.82 l -2.254,-7.4725 c 0,0 -0.543,-1.6406 -1.988,-1.3945 -1.281,0.2226 -2.055,0.3789 -2.055,0.3789 0,0 -1.101,0.1562 -1.23,2.0625"
         style="fill:#ffffff;fill-opacity:1;fill-rule:nonzero;stroke:none"
         id="path108" /><path
         d="m 514.352,97.6758 c -0.579,1.8164 -0.59,2.1562 -0.973,3.4572 -0.473,1.59 -1.137,2.07 -3.008,2.715 -0.73,0.254 -1.527,0.418 -2.359,0.574 -1.324,0.246 -2.774,0.312 -4.344,0.226 -2.887,-0.168 -5.465,-0.832 -7.734,-1.972 -2.282,-1.133 -4.188,-2.7541 -5.731,-4.844 -1.543,-2.1015 -2.664,-4.6679 -3.383,-7.7265 -0.722,-3.0547 -0.961,-6.543 -0.726,-10.4883 0.5,-8.3672 2.594,-14.4805 6.285,-18.3281 3.684,-3.8399 8.875,-5.5664 15.559,-5.1641 1.96,0.1133 4.019,0.4766 6.195,1.0898 1.851,0.5274 3.941,1.3204 6.332,2.2266 1.234,0.4688 1.598,-0.4375 1.598,-0.4375 l 0.375,-0.9766 c 0,0 0.414,-1.1328 -0.465,-1.7382 -1.961,-1.3399 -4.282,-2.5196 -6.961,-3.5743 -3.094,-1.2109 -6.621,-1.9335 -10.586,-2.1679 -3.805,-0.2266 -7.395,0.0664 -10.77,0.8984 -3.375,0.8281 -6.355,2.3125 -8.933,4.4336 -2.578,2.1289 -4.68,4.9492 -6.305,8.4766 -1.633,3.5429 -2.602,7.9101 -2.91,13.0937 -0.309,5.2344 0.195,9.7852 1.523,13.6641 1.321,3.8672 3.274,7.1172 5.84,9.7347 2.567,2.617 5.684,4.629 9.336,6.035 3.648,1.418 7.676,2.258 12.074,2.512 2.989,0.183 5.809,0.058 8.449,-0.352 1.84,-0.285 3.586,-0.605 5.239,-0.969 2.297,-0.515 2.176,-2.383 2.176,-2.383 l -0.422,-7.7926 c 0,0 -0.133,-1.7265 -1.598,-1.8242 -1.305,-0.0898 -2.086,-0.1094 -2.086,-0.1094 0,0 -1.105,-0.1171 -1.687,1.711"
         style="fill:#ffffff;fill-opacity:1;fill-rule:nonzero;stroke:none"
         id="path110" /><path
         d="m 598.887,115.516 c -0.949,1.672 -1.035,1.992 -1.676,3.175 -0.801,1.477 -1.551,1.797 -3.512,2.032 -0.769,0.097 -1.582,0.086 -2.426,0.058 -1.339,-0.031 -2.777,-0.265 -4.296,-0.683 -2.778,-0.774 -5.164,-1.953 -7.149,-3.547 -1.984,-1.59 -3.519,-3.563 -4.578,-5.938 -1.07,-2.371 -1.629,-5.136 -1.691,-8.261 -0.063,-3.1332 0.429,-6.6098 1.492,-10.4106 2.238,-8.0859 5.57,-13.6133 9.984,-16.6016 4.418,-2.9882 9.848,-3.582 16.305,-1.7851 1.883,0.5156 3.82,1.3086 5.824,2.3633 1.699,0.9062 3.582,2.1172 5.723,3.5039 1.113,0.7226 1.656,-0.0977 1.656,-0.0977 l 0.57,-0.8789 c 0,0 0.641,-1.0156 -0.09,-1.7851 -1.632,-1.7188 -3.66,-3.3672 -6.058,-4.9532 -2.77,-1.8437 -6.067,-3.289 -9.895,-4.3554 -3.675,-1.0157 -7.246,-1.4727 -10.715,-1.3672 -3.476,0.1094 -6.699,0.9179 -9.667,2.4531 -2.965,1.5313 -5.614,3.8672 -7.946,6.9727 -2.34,3.1132 -4.199,7.1757 -5.586,12.1875 -1.406,5.0468 -1.863,9.6093 -1.386,13.6793 0.488,4.063 1.71,7.641 3.671,10.743 1.961,3.097 4.579,5.722 7.856,7.871 3.277,2.14 7.039,3.8 11.289,4.984 2.883,0.797 5.66,1.277 8.324,1.422 1.863,0.109 3.641,0.156 5.328,0.148 2.356,-0.011 2.633,-1.867 2.633,-1.867 l 1.223,-7.715 c 0,0 0.222,-1.707 -1.184,-2.117 -1.254,-0.351 -2.012,-0.547 -2.012,-0.547 0,0 -1.062,-0.344 -2.011,1.317"
         style="fill:#ffffff;fill-opacity:1;fill-rule:nonzero;stroke:none"
         id="path112" /><path
         d="m 669.242,129.305 -25.105,11.386 c -0.52,0.235 -1.395,0.293 -1.934,0.129 l -3.769,-1.172 c -0.547,-0.168 -1.223,0.098 -1.504,0.586 l -0.66,1.172 c -0.286,0.496 -0.11,1.121 0.386,1.414 l 18.067,10.285 c 0.492,0.282 1.129,0.106 1.414,-0.382 l 0.66,-1.172 c 0.281,-0.488 0.168,-1.211 -0.25,-1.59 l -2.238,-2.063 c -0.426,-0.378 -0.344,-0.898 0.168,-1.14 l 17.89,-8.516 2.203,19.969 c 0.063,0.578 -0.332,0.898 -0.875,0.734 l -3.125,-0.988 c -0.547,-0.176 -1.218,0.09 -1.504,0.586 l -0.66,1.164 c -0.281,0.496 -0.105,1.133 0.387,1.418 l 14.309,8.141 c 0.492,0.285 1.128,0.109 1.41,-0.379 l 0.664,-1.172 c 0.285,-0.488 0.16,-1.203 -0.266,-1.582 l -3.265,-2.871 c -0.43,-0.383 -0.829,-1.145 -0.887,-1.711 l -2.774,-25.399 27.813,-12.949 c 0.516,-0.234 1.387,-0.293 1.933,-0.129 l 3.84,1.211 c 0.539,0.168 1.219,-0.097 1.5,-0.594 l 0.66,-1.164 c 0.286,-0.484 0.11,-1.132 -0.386,-1.414 l -18.133,-10.332 c -0.5,-0.273 -1.129,-0.109 -1.41,0.391 l -0.664,1.16 c -0.285,0.5 -0.168,1.211 0.258,1.594 l 2.433,2.199 c 0.426,0.367 0.356,0.887 -0.16,1.129 l -20.895,10.012 -2.539,-23.371 c -0.062,-0.567 0.332,-0.887 0.875,-0.731 l 2.985,0.918 c 0.543,0.168 1.219,-0.098 1.504,-0.598 l 0.664,-1.16 c 0.277,-0.5 0.105,-1.125 -0.387,-1.418 l -14.379,-8.1833 c -0.492,-0.2813 -1.129,-0.1055 -1.41,0.3828 l -0.66,1.1601 c -0.289,0.5 -0.164,1.211 0.258,1.5938 l 3.265,2.8711 c 0.434,0.3711 0.836,1.1445 0.903,1.7075 l 3.39,28.867"
         style="fill:#ffffff;fill-opacity:1;fill-rule:nonzero;stroke:none"
         id="path114" /><path
         d="m 731.453,205.645 c 0.379,-0.43 0.402,-1.153 0.055,-1.594 l -2.703,-3.496 c -0.348,-0.45 -0.325,-1.172 0.05,-1.59 l 30.09,-34.113 c 0.375,-0.43 1.082,-0.547 1.578,-0.254 l 3.797,2.246 c 0.489,0.285 1.2,0.176 1.575,-0.254 l 0.886,-0.996 c 0.375,-0.426 0.332,-1.082 -0.093,-1.465 l -15.465,-13.641 c -0.43,-0.383 -1.086,-0.343 -1.465,0.086 l -0.887,1.008 c -0.375,0.418 -0.394,1.141 -0.047,1.59 l 2.703,3.488 c 0.348,0.449 0.325,1.172 -0.05,1.602 l -30.09,34.113 c -0.375,0.426 -1.082,0.543 -1.578,0.25 l -3.797,-2.246 c -0.492,-0.293 -1.203,-0.176 -1.578,0.254 l -0.887,0.996 c -0.371,0.43 -0.332,1.086 0.09,1.465 l 15.472,13.644 c 0.426,0.379 1.086,0.332 1.461,-0.09 l 0.883,-1.003"
         style="fill:#ffffff;fill-opacity:1;fill-rule:nonzero;stroke:none"
         id="path116" /><path
         d="m 183.297,745.957 c -0.391,-0.422 -0.684,-0.676 -0.684,-0.676 l -16.425,15.539 2.937,3.047 c 0.395,0.418 1.051,1.082 1.461,1.473 0,0 1.793,1.75 3.051,2.687 1.261,0.926 2.551,1.532 3.863,1.817 1.316,0.273 2.672,0.183 4.066,-0.274 1.395,-0.468 2.832,-1.418 4.329,-2.832 3.261,-3.105 4.804,-6.125 4.628,-9.062 -0.175,-2.942 -3.914,-8.047 -3.914,-8.047 -0.336,-0.461 -0.929,-1.172 -1.32,-1.582 z m 35.101,-5.773 c 0.555,-0.098 1.336,0.148 1.731,0.566 l 8.601,9.035 c 0.391,0.418 0.375,1.074 -0.039,1.465 l -0.972,0.926 c -0.414,0.402 -1.133,0.449 -1.602,0.129 l -3.273,-2.278 c -0.465,-0.332 -1.313,-0.515 -1.871,-0.429 l -25.68,4.179 c -0.563,0.09 -0.824,0.586 -0.586,1.106 0,0 3.145,6.777 3.02,10.301 -0.129,3.527 -1.707,6.73 -4.731,9.609 -2.16,2.051 -4.34,3.242 -6.531,3.586 -2.195,0.32 -4.336,0.098 -6.426,-0.684 -2.09,-0.773 -4.101,-1.945 -6.039,-3.507 -1.937,-1.563 -4.684,-4.266 -4.684,-4.266 -0.406,-0.402 -1.062,-1.067 -1.457,-1.477 l -15.101,-15.867 c -0.391,-0.422 -0.375,-1.074 0.035,-1.465 l 0.977,-0.929 c 0.41,-0.391 1.128,-0.45 1.589,-0.118 l 3.629,2.61 c 0.465,0.332 1.184,0.281 1.594,-0.11 l 33.035,-31.445 c 0.41,-0.391 0.492,-1.101 0.192,-1.578 l -2.422,-3.75 c -0.313,-0.48 -0.227,-1.195 0.183,-1.594 l 0.981,-0.929 c 0.414,-0.391 1.066,-0.372 1.465,0.039 l 14.148,14.875 c 0.391,0.41 0.375,1.062 -0.035,1.464 l -0.977,0.926 c -0.414,0.391 -1.129,0.442 -1.589,0.11 l -3.571,-2.551 c -0.465,-0.32 -1.179,-0.281 -1.594,0.117 l -15.222,14.484 2.258,2.371 c 0.394,0.411 1.171,0.665 1.73,0.559 l 29.234,-5.48"
         style="fill:#ffffff;fill-opacity:1;fill-rule:nonzero;stroke:none"
         id="path118" /></g></g></svg>
