<?xml version="1.0" encoding="utf-8"?>
<!-- Generator: Adobe Illustrator 19.1.0, SVG Export Plug-In . SVG Version: 6.00 Build 0)  -->
<svg version="1.1" id="Layer_1" xmlns="http://www.w3.org/2000/svg" xmlns:xlink="http://www.w3.org/1999/xlink" x="0px" y="0px"
	 viewBox="-1382.5 554.8 365.5 309.1" style="enable-background:new -1382.5 554.8 365.5 309.1;" xml:space="preserve">
<style type="text/css">
	.st0{fill:#5C5C5C;stroke:#5C5C5C;stroke-miterlimit:10;}
	.st1{fill:#5C5C5C;}
	.st2{fill:#E31B1D;}
	.st3{fill:#00A4DD;}
</style>
<title>University-of-Luxembourg-Fr</title>
<g id="_Group_">
	<polyline id="_Path_" class="st0" points="-1382.5,743.2 -1017.5,743.2 -1017.5,741.7 -1382.5,741.7 	"/>
	<path id="_Compound_Path_" class="st1" d="M-1365.5,803.5c-8,0-13.6-5.1-13.6-13.7v-21.6h4.8v21.6c0,6.7,4.2,9.2,8.8,9.2
		c4.5,0,8.9-2.6,8.9-9.2v-21.6h4.7v21.6C-1351.9,798-1357.8,803.5-1365.5,803.5 M-1315.2,802.9v-34.8h-4.8v24.6
		c0,0.4,0.1,1.1,0.1,1.1c-0.2-0.3-0.4-0.7-0.6-1l-18-24.7h-4v34.8h4.8v-25c0-0.4-0.1-1.2-0.1-1.2s0.4,0.7,0.6,0.9l18.2,25.2
		L-1315.2,802.9L-1315.2,802.9z M-1305.6,802.9h4.8v-34.8h-4.8V802.9z M-1266.2,768.1h-4.5l-8.9,25.1c-0.1,0.4-0.3,1.2-0.3,1.2
		c-0.1-0.4-0.2-0.8-0.3-1.2l-8.8-25.1h-4.6l12.2,34.8h2.9L-1266.2,768.1z M-1238.6,802.9v-4.5h-15.6v-10.2h14.3v-4.5h-14.3v-11.1
		h14.7v-4.5h-19.4v34.8L-1238.6,802.9L-1238.6,802.9z M-1205.3,802.9l-12.8-14.6c5.5-0.1,9.8-4.5,9.9-10c0-5.6-4.3-10.2-10.8-10.2
		h-11.2v34.8h4.8v-16.2l14,16.2L-1205.3,802.9z M-1219.8,772.6c4.5,0,6.7,3.2,6.7,5.6c0,3.7-2.5,6.4-6.8,6.4h-5.5v-12L-1219.8,772.6
		 M-1189.9,803.5c5.8,0,10.7-3.5,10.7-9.8c0-5.8-4.2-8.3-8.1-10.3c-4.3-2.1-7.6-3.4-7.6-7.2c0-2.6,2.3-4,5-4
		c2.5-0.1,4.9,0.7,6.9,2.2l2.6-3.9c-2.7-1.9-6-3-9.4-2.9c-6.2,0-10,3.8-10,9c0,6.6,5,8.8,10,11.3c3.1,1.6,5.8,3.2,5.8,6.1
		c0,3.3-2.4,4.9-5.9,4.9c-2.6,0-5.2-0.9-7.2-2.6l-2.7,3.7C-1197.2,802.3-1193.6,803.6-1189.9,803.5 M-1171.4,802.9h4.8v-34.8h-4.8
		V802.9z M-1139.6,772.6v-4.5h-19.2v4.5h7.1v30.3h4.8v-30.3H-1139.6z M-1111.4,802.9v-4.5h-15.6v-10.2h14.3v-4.5h-14.3v-11.1h14.7
		v-4.5h-19.4v34.8L-1111.4,802.9L-1111.4,802.9z M-1116,758.4h-4.6l-4.4,7h4.6L-1116,758.4z M-1075.2,802.9c11.9,0,19-7.8,19-17.5
		c0-9.5-6.7-17.3-18.6-17.3h-8.9v34.8L-1075.2,802.9 M-1074.9,772.4c8.3,0,13.7,5.9,13.7,13c0,6.5-4.3,13.1-14.6,13.1h-3.1v-26.2
		H-1074.9 M-1034.7,803.5c7.8,0,13.6-5.4,13.6-13.7v-21.6h-4.7v21.6c0,6.7-4.4,9.2-8.9,9.2c-4.6,0-8.8-2.5-8.8-9.2v-21.6h-4.8v21.6
		C-1048.3,798.3-1042.7,803.5-1034.7,803.5 M-1361,863.3v-4.5h-13.2v-30.3h-4.8v34.8H-1361z M-1338.4,863.9
		c7.8,0,13.6-5.4,13.6-13.7v-21.6h-4.7v21.6c0,6.7-4.4,9.2-8.9,9.2c-4.6,0-8.8-2.5-8.8-9.2v-21.6h-4.8v21.6
		C-1352,858.7-1346.4,863.9-1338.4,863.9 M-1285.8,863.3l-12.1-18.6l10.6-16.2h-5.5l-6.7,10.2c-0.6,0.9-1.1,1.9-1.1,1.9
		s-0.6-1-1.1-1.8l-6.7-10.3h-5.9l10.7,16.4l-12,18.3h5.5l7.7-11.8c0.7-1,1.6-2.5,1.6-2.5s0.9,1.6,1.5,2.4l7.8,11.9L-1285.8,863.3
		L-1285.8,863.3z M-1256,863.3v-4.5h-15.6v-10.2h14.3v-4.5h-14.3V833h14.7v-4.5h-19.4v34.8H-1256z M-1209.9,863.3v-34.8h-4.2
		l-12.7,17l-13.1-17h-4v34.8h4.8v-25.2c0-0.4,0-0.9-0.1-1.3c0.1,0.3,0.3,0.5,0.5,0.8l11,14.3h1.9l10.9-14.7c0.2-0.3,0.3-0.5,0.5-0.8
		c-0.1,0.4-0.1,0.9-0.1,1.3v25.6L-1209.9,863.3z M-1186.3,863.3c7.7,0,10.7-5.1,10.7-9.4c0-3.7-2.4-7-5.9-8.3c2.2-1.4,4-4,4-8
		c0-5.4-4.2-9-10.1-9h-9.2v34.8L-1186.3,863.3 M-1188.3,833c3.9,0,6,1.9,6,5c0,2.9-1.2,6-6.4,6h-3.2v-11L-1188.3,833 M-1186.3,848.5
		c3.5,0,5.8,2,5.8,5c0,3.2-2,5.3-6.3,5.3h-5.1v-10.3L-1186.3,848.5 M-1149.7,863.9c9.8,0,17.8-7.9,17.8-17.7c0-0.1,0-0.2,0-0.2
		c0-10.1-7.2-18-18-18c-10,0-17.6,7.7-17.6,17.9c-0.3,9.7,7.4,17.8,17.1,18C-1150.2,863.9-1150,863.9-1149.7,863.9 M-1149.9,832.6
		c7.7,0,13,5.6,13,13.1c0,8.3-6,13.5-12.8,13.5c-7.2-0.1-13-6.1-12.9-13.3c0,0,0,0,0,0C-1162.6,838.2-1157.4,832.6-1149.9,832.6
		 M-1109,863.9c7.8,0,13.6-5.4,13.6-13.7v-21.6h-4.7v21.6c0,6.7-4.4,9.2-8.9,9.2c-4.6,0-8.8-2.5-8.8-9.2v-21.6h-4.8v21.6
		C-1122.6,858.7-1117,863.9-1109,863.9 M-1059.7,863.3l-12.8-14.6c5.5-0.1,9.8-4.5,9.9-9.9c0-5.6-4.3-10.2-10.8-10.2h-11.2v34.8h4.8
		v-16.2l14,16.2H-1059.7z M-1074.2,833c4.5,0,6.7,3.2,6.7,5.6c0,3.7-2.5,6.4-6.8,6.4h-5.5v-12H-1074.2 M-1036.4,863.9
		c8.8,0,15.9-7.2,15.9-16c0,0,0-0.1,0-0.1h-16v4.5h10.5c-1.2,4.2-5.2,7-10.2,7c-7,0-12.8-6.2-12.8-13.2c0-8,5.6-13.3,12.6-13.3
		c3.7-0.1,7.2,1.2,10,3.6l2.9-3.5c-3.5-3.2-8.1-4.9-12.8-4.7c-9.6,0-17.7,7.2-17.7,18C-1054.1,855.7-1046.2,863.8-1036.4,863.9"/>
	<path id="_Compound_Path_2" class="st2" d="M-1208.5,595c5,0,9.6-2.9,11.8-7.4h1.5v115.9c0,7.3-6,13.3-13.3,13.2
		c-7.3,0-13.2-5.9-13.2-13.2V587.7h1.5C-1218.1,592.2-1213.5,595-1208.5,595 M-1219.6,568.3c0,6.1,5,11.1,11.1,11.1
		c6.1,0,11.1-5,11.1-11.1c0-6.1-5-11.1-11.1-11.1c0,0,0,0,0,0C-1214.6,557.2-1219.6,562.1-1219.6,568.3 M-1219.6,568.3
		c0,6.1,5,11.1,11.1,11.1c6.1,0,11.1-5,11.1-11.1c0-6.1-5-11.1-11.1-11.1c0,0,0,0,0,0C-1214.6,557.2-1219.6,562.1-1219.6,568.3
		 M-1352.5,716.8V600.9c0-7.3-6-13.3-13.3-13.3c-7.3,0-13.3,5.9-13.3,13.3v102.6c0,7.3,6,13.3,13.3,13.3c0,0,0,0,0,0L-1352.5,716.8
		L-1352.5,716.8z M-1345.3,716.8h5.6c7.3,0,13.3-7.1,13.3-14.4h0c0,7.1,1.4,14.4,7.7,14.4h0V600.9c0-7.3-5.9-13.3-13.3-13.3
		c-7.3,0-13.3,5.9-13.3,13.3c0,0,0,0,0,0L-1345.3,716.8L-1345.3,716.8 M-1266.6,587.6v115.9c0,7.3,6,13.3,13.3,13.3
		c7.3,0,13.3-5.9,13.3-13.3V600.9c0-7.3-5.9-13.3-13.3-13.3H-1266.6z M-1279.4,587.6c-7.3,0-13.3,7.1-13.3,14.4h0
		c0-7.1-1.5-14.4-7.7-14.4h0v115.9c0,7.3,6,13.3,13.3,13.3c7.3,0,13.3-5.9,13.3-13.3V587.6H-1279.4L-1279.4,587.6z"/>
	<path id="_Compound_Path_3" class="st3" d="M-1112.9,562.1c5,0,9.6-2.9,11.8-7.4h1.5v148.8c0,7.3-6,13.3-13.3,13.3
		s-13.3-6-13.3-13.3V554.8h1.5C-1122.5,559.3-1117.9,562.1-1112.9,562.1 M-1054.7,716.8V600.9c0-7.3-5.9-13.3-13.3-13.3
		c-7.3,0-13.3,5.9-13.3,13.3c0,0,0,0,0,0v102.6c0,7.3,5.9,13.3,13.3,13.3L-1054.7,716.8L-1054.7,716.8z M-1041.9,716.8
		c7.3,0,13.3-7.1,13.3-14.4h0c0,7.1,1.5,14.4,7.7,14.4h0V600.9c0-7.3-5.9-13.3-13.3-13.3s-13.3,5.9-13.3,13.3v115.9H-1041.9z
		 M-1173.9,703.5c0,7.4,6,13.3,13.3,13.3s13.3-6,13.3-13.3c0-7.4-6-13.3-13.3-13.3C-1168,690.2-1173.9,696.1-1173.9,703.5
		C-1173.9,703.5-1173.9,703.5-1173.9,703.5"/>
</g>
</svg>
