<?xml version="1.0" encoding="utf-8"?>
<!-- Generator: Adobe Illustrator 24.2.0, SVG Export Plug-In . SVG Version: 6.00 Build 0)  -->
<svg version="1.1" id="Layer_1" xmlns="http://www.w3.org/2000/svg" xmlns:xlink="http://www.w3.org/1999/xlink" x="0px" y="0px"
	 viewBox="0 0 271.64 98.41" style="enable-background:new 0 0 271.64 98.41;" xml:space="preserve">
<style type="text/css">
	.st0{fill:#3ABBBA;}
	.st1{fill:#5A2A82;}
	.st2{fill:#FF681E;}
	.st3{fill:#1B2944;}
</style>
<circle class="st0" cx="54.44" cy="21.63" r="17.42"/>
<path class="st1" d="M38.58,36.54L6.7,4.66C5.78,3.74,4.2,4.39,4.2,5.7v30.9c0,1.35,1.1,2.45,2.45,2.45h30.89
	C38.85,39.05,39.51,37.47,38.58,36.54z"/>
<path class="st2" d="M54.61,93.32V45.79c0-1.07-0.87-1.93-1.93-1.93H5.15c-0.85,0-1.27,1.02-0.67,1.62l48.5,48.5
	C53.58,94.59,54.61,94.16,54.61,93.32z"/>
<g>
	<path class="st3" d="M73.93,57.69c-0.08,0.18-0.28,0.3-0.48,0.3s-0.4-0.12-0.48-0.3l-6.09-13.43c-0.06-0.14,0.06-0.32,0.22-0.32
		h2.84c0.22,0,0.42,0.14,0.5,0.34l3.04,7.54l3.04-7.54c0.08-0.2,0.28-0.34,0.5-0.34h2.84c0.16,0,0.28,0.18,0.2,0.32L73.93,57.69z"/>
	<path class="st3" d="M85.95,57.47c0,0.2-0.16,0.36-0.36,0.36h-2.46c-0.2,0-0.36-0.16-0.36-0.36V44.3c0-0.2,0.16-0.36,0.36-0.36
		h2.46c0.2,0,0.36,0.16,0.36,0.36V57.47z"/>
	<path class="st3" d="M100.25,53.6c0,1.88-1.17,4.23-5.02,4.23h-4.96c-0.2,0-0.36-0.16-0.36-0.36V44.3c0-0.2,0.16-0.36,0.36-0.36
		h4.96c3.85,0,5.02,2.36,5.02,4.25c0,0.95-0.73,2.24-1.79,2.68C99.5,51.26,100.25,52.35,100.25,53.6z M97.04,48.18
		c0-0.32-0.22-1.31-1.61-1.31h-2.36v2.76h2.4C96.84,49.59,97.04,48.56,97.04,48.18z M97.04,53.6c0-0.42-0.2-1.29-1.57-1.33h-2.4v2.6
		h2.36C96.82,54.87,97.04,53.92,97.04,53.6z"/>
	<path class="st3" d="M108.35,49.59c0.2,0,0.36,0.16,0.36,0.36v1.69c0,0.2-0.16,0.36-0.36,0.36h-4.96c-0.2,0-0.36-0.16-0.36-0.36
		v-1.69c0-0.2,0.16-0.36,0.36-0.36H108.35z"/>
	<path class="st3" d="M119.99,52.37V44.3c0-0.2,0.16-0.36,0.36-0.36h2.48c0.2,0,0.36,0.16,0.36,0.36v8.07
		c0,2.36-1.43,5.59-5.55,5.59s-5.55-3.23-5.55-5.59V44.3c0-0.2,0.16-0.36,0.36-0.36h2.46c0.2,0,0.36,0.16,0.36,0.36v8.07
		c0,0.73,0.5,2.66,2.38,2.66C119.52,55.03,119.99,53.1,119.99,52.37z"/>
	<path class="st3" d="M132.77,53.12c-0.2,0-0.36-0.16-0.36-0.36v-2.2c0-0.2,0.16-0.36,0.36-0.36h5.12c0.2,0,0.36,0.16,0.36,0.36
		v4.94c0,0.24-0.1,0.46-0.26,0.62c-1.31,1.21-2.88,1.88-4.92,1.88c-5.28,0-6.9-4.17-6.9-7.14c0-2.9,1.63-7.12,6.9-7.12
		c2.12,0,3.69,0.83,5.04,2.16c0.14,0.14,0.14,0.38,0,0.52l-1.49,1.63c-0.14,0.14-0.36,0.14-0.5,0.02c-0.83-0.73-2.08-1.33-3.05-1.33
		c-3.21,0-3.67,3.05-3.67,4.09c0,1.03,0.46,4.25,3.67,4.25c0.67,0,1.53-0.24,1.98-0.58v-1.37H132.77z"/>
	<path class="st3" d="M144.7,52.45v2.42h6.07c0.2,0,0.36,0.16,0.36,0.36v2.24c0,0.2-0.16,0.36-0.36,0.36h-8.89
		c-0.2,0-0.36-0.16-0.36-0.36V44.3c0-0.2,0.16-0.36,0.36-0.36h8.89c0.2,0,0.36,0.16,0.36,0.36v2.24c0,0.2-0.16,0.36-0.36,0.36h-6.07
		v2.6h4.66c0.2,0,0.36,0.16,0.36,0.36v2.24c0,0.2-0.16,0.36-0.36,0.36H144.7z"/>
	<path class="st3" d="M154.66,57.82c-0.2,0-0.36-0.16-0.36-0.36V44.04c0-0.16,0.12-0.3,0.28-0.3c0.2,0,0.38,0.08,0.52,0.2l7.54,7.04
		V44.3c0-0.2,0.16-0.36,0.36-0.36h2.46c0.2,0,0.36,0.16,0.36,0.36v13.37c0,0.14-0.12,0.26-0.26,0.26c-0.16,0-0.32-0.06-0.44-0.18
		l-7.62-7.2v6.92c0,0.2-0.16,0.36-0.36,0.36H154.66z"/>
	<path class="st3" d="M172.11,46.89h-3.27c-0.2,0-0.36-0.16-0.36-0.36V44.3c0-0.2,0.16-0.36,0.36-0.36h9.78
		c0.2,0,0.36,0.16,0.36,0.36v2.24c0,0.2-0.16,0.36-0.36,0.36h-3.31v10.57c0,0.2-0.16,0.36-0.36,0.36h-2.48
		c-0.2,0-0.36-0.16-0.36-0.36V46.89z"/>
	<path class="st3" d="M77.95,66.51c-0.14,0.12-0.36,0.12-0.5-0.02c-0.83-0.85-2.16-1.57-3.21-1.57c-3.21,0-3.67,3.09-3.67,4.13
		c0,1.03,0.46,4.11,3.69,4.11c1.11,0,2.42-0.63,3.35-1.41c0.16-0.12,0.38-0.12,0.5,0.04l1.37,1.63c0.14,0.16,0.12,0.4-0.02,0.54
		c-1.45,1.37-3.11,2.24-5.22,2.24c-5.28,0-6.9-4.17-6.9-7.14c0-2.9,1.63-7.12,6.9-7.12c2.26,0,3.91,0.97,5.34,2.52
		c0.14,0.14,0.12,0.38-0.02,0.52L77.95,66.51z"/>
	<path class="st3" d="M86.17,70.63v2.42h6.07c0.2,0,0.36,0.16,0.36,0.36v2.24c0,0.2-0.16,0.36-0.36,0.36h-8.89
		c-0.2,0-0.36-0.16-0.36-0.36V62.48c0-0.2,0.16-0.36,0.36-0.36h8.89c0.2,0,0.36,0.16,0.36,0.36v2.24c0,0.2-0.16,0.36-0.36,0.36
		h-6.07v2.6h4.66c0.2,0,0.36,0.16,0.36,0.36v2.24c0,0.2-0.16,0.36-0.36,0.36H86.17z"/>
	<path class="st3" d="M96.13,76.01c-0.2,0-0.36-0.16-0.36-0.36V62.22c0-0.16,0.12-0.3,0.28-0.3c0.2,0,0.38,0.08,0.52,0.2l7.54,7.04
		v-6.68c0-0.2,0.16-0.36,0.36-0.36h2.46c0.2,0,0.36,0.16,0.36,0.36v13.37c0,0.14-0.12,0.26-0.26,0.26c-0.16,0-0.32-0.06-0.44-0.18
		l-7.62-7.2v6.92c0,0.2-0.16,0.36-0.36,0.36H96.13z"/>
	<path class="st3" d="M113.59,65.08h-3.27c-0.2,0-0.36-0.16-0.36-0.36v-2.24c0-0.2,0.16-0.36,0.36-0.36h9.78
		c0.2,0,0.36,0.16,0.36,0.36v2.24c0,0.2-0.16,0.36-0.36,0.36h-3.31v10.57c0,0.2-0.16,0.36-0.36,0.36h-2.48
		c-0.2,0-0.36-0.16-0.36-0.36V65.08z"/>
	<path class="st3" d="M126.5,70.63v2.42h6.07c0.2,0,0.36,0.16,0.36,0.36v2.24c0,0.2-0.16,0.36-0.36,0.36h-8.89
		c-0.2,0-0.36-0.16-0.36-0.36V62.48c0-0.2,0.16-0.36,0.36-0.36h8.89c0.2,0,0.36,0.16,0.36,0.36v2.24c0,0.2-0.16,0.36-0.36,0.36
		h-6.07v2.6h4.66c0.2,0,0.36,0.16,0.36,0.36v2.24c0,0.2-0.16,0.36-0.36,0.36H126.5z"/>
	<path class="st3" d="M143.88,70.81l2.28,4.88c0.08,0.14-0.04,0.32-0.2,0.32h-2.76c-0.22,0-0.42-0.12-0.52-0.32l-2.02-4.34h-1.41
		v4.3c0,0.2-0.16,0.36-0.36,0.36h-2.44c-0.2,0-0.36-0.16-0.36-0.36V62.48c0-0.2,0.16-0.36,0.36-0.36h4.96c3.85,0,5.02,2.7,5.02,4.58
		C146.44,68.67,145.37,70.08,143.88,70.81z M143.27,66.71c0-0.58-0.32-1.65-1.75-1.65h-2.26v3.31h2.34
		C142.95,68.33,143.27,67.22,143.27,66.71z"/>
	<path class="st3" d="M158.72,70.63v5.02c0,0.2-0.16,0.36-0.36,0.36h-2.44c-0.2,0-0.36-0.16-0.36-0.36V62.48
		c0-0.2,0.16-0.36,0.36-0.36h8.87c0.2,0,0.36,0.16,0.36,0.36v2.24c0,0.2-0.16,0.36-0.36,0.36h-6.07v2.6h4.68
		c0.2,0,0.36,0.16,0.36,0.36v2.24c0,0.2-0.16,0.36-0.36,0.36H158.72z"/>
	<path class="st3" d="M180.72,69.05c0,2.98-1.63,7.18-6.88,7.18c-5.28,0-6.9-4.21-6.9-7.18c0-2.9,1.63-7.16,6.9-7.16
		C179.1,61.89,180.72,66.15,180.72,69.05z M177.49,69.05c0-1.03-0.46-4.17-3.65-4.17c-3.21,0-3.67,3.13-3.67,4.17
		c0,1.03,0.46,4.21,3.67,4.21C177.03,73.25,177.49,70.08,177.49,69.05z"/>
	<path class="st3" d="M191.68,70.81l2.28,4.88c0.08,0.14-0.04,0.32-0.2,0.32H191c-0.22,0-0.42-0.12-0.52-0.32l-2.02-4.34h-1.41v4.3
		c0,0.2-0.16,0.36-0.36,0.36h-2.44c-0.2,0-0.36-0.16-0.36-0.36V62.48c0-0.2,0.16-0.36,0.36-0.36h4.96c3.85,0,5.02,2.7,5.02,4.58
		C194.24,68.67,193.16,70.08,191.68,70.81z M191.06,66.71c0-0.58-0.32-1.65-1.75-1.65h-2.26v3.31h2.34
		C190.74,68.33,191.06,67.22,191.06,66.71z"/>
	<path class="st3" d="M206.56,75.65c0,0.2-0.16,0.36-0.36,0.36h-2.48c-0.2,0-0.36-0.16-0.36-0.36V62.48c0-0.2,0.16-0.36,0.36-0.36h5
		c3.85,0,5.02,2.7,5.02,4.58c0,2.78-2.44,4.64-4.78,4.64h-2.4V75.65z M210.56,66.71c0-0.58-0.32-1.65-1.75-1.65h-2.26v3.31h2.32
		C210.25,68.33,210.56,67.22,210.56,66.71z"/>
	<path class="st3" d="M219.91,73.05h4.66c0.2,0,0.36,0.16,0.36,0.36v2.24c0,0.2-0.16,0.36-0.36,0.36h-7.5
		c-0.2,0-0.36-0.16-0.36-0.36V62.48c0-0.2,0.16-0.36,0.36-0.36h2.48c0.2,0,0.36,0.16,0.36,0.36V73.05z"/>
	<path class="st3" d="M240.01,75.69c0.08,0.14-0.04,0.32-0.2,0.32h-2.84c-0.22,0-0.42-0.14-0.5-0.34l-0.99-2.48h-4.09l-0.99,2.48
		c-0.08,0.2-0.28,0.34-0.5,0.34h-2.84c-0.16,0-0.28-0.18-0.22-0.32l6.09-13.41c0.08-0.2,0.28-0.32,0.48-0.32s0.4,0.12,0.48,0.32
		L240.01,75.69z M232.39,70.71h2.08l-1.03-2.58L232.39,70.71z"/>
	<path class="st3" d="M243.1,76.01c-0.2,0-0.36-0.16-0.36-0.36V62.22c0-0.16,0.12-0.3,0.28-0.3c0.2,0,0.38,0.08,0.52,0.2l7.54,7.04
		v-6.68c0-0.2,0.16-0.36,0.36-0.36h2.46c0.2,0,0.36,0.16,0.36,0.36v13.37c0,0.14-0.12,0.26-0.26,0.26c-0.16,0-0.32-0.06-0.44-0.18
		l-7.62-7.2v6.92c0,0.2-0.16,0.36-0.36,0.36H243.1z"/>
	<path class="st3" d="M260.56,65.08h-3.27c-0.2,0-0.36-0.16-0.36-0.36v-2.24c0-0.2,0.16-0.36,0.36-0.36h9.78
		c0.2,0,0.36,0.16,0.36,0.36v2.24c0,0.2-0.16,0.36-0.36,0.36h-3.31v10.57c0,0.2-0.16,0.36-0.36,0.36h-2.48
		c-0.2,0-0.36-0.16-0.36-0.36V65.08z"/>
	<path class="st3" d="M77.97,90.05c0,2.42-2.1,4.3-5.14,4.3c-1.92,0-3.49-0.48-5.18-1.35c-0.18-0.08-0.24-0.3-0.16-0.48l1.09-2.02
		c0.08-0.18,0.3-0.24,0.48-0.16c1.27,0.58,2.5,1.03,3.65,1.03c1.03,0,1.9-0.5,1.9-1.19c0-0.87-1.07-1.25-2.38-1.67
		c-2-0.66-4.52-1.43-4.52-4.29c0-2.6,1.92-4.15,4.58-4.15c0.87,0,2.7,0.12,5.02,1.19c0.18,0.1,0.26,0.3,0.18,0.5l-0.89,2.04
		C76.53,84,76.33,84.08,76.13,84c-0.87-0.32-2.52-0.91-3.63-0.91c-0.83,0-1.61,0.26-1.59,1.01c0.08,0.85,1.47,1.23,3.02,1.79
		C75.85,86.56,77.97,87.51,77.97,90.05z"/>
	<path class="st3" d="M87.26,93.84c0,0.2-0.16,0.36-0.36,0.36h-2.44c-0.2,0-0.36-0.16-0.36-0.36v-5.77l-4.56-7.46
		c-0.08-0.12,0.02-0.3,0.18-0.3h2.8c0.22,0,0.42,0.12,0.54,0.3l2.62,4.36l2.62-4.36c0.1-0.18,0.32-0.3,0.54-0.3h2.82
		c0.16,0,0.26,0.18,0.18,0.3l-4.56,7.42V93.84z"/>
	<path class="st3" d="M104.02,90.05c0,2.42-2.1,4.3-5.14,4.3c-1.92,0-3.49-0.48-5.18-1.35c-0.18-0.08-0.24-0.3-0.16-0.48l1.09-2.02
		c0.08-0.18,0.3-0.24,0.48-0.16c1.27,0.58,2.5,1.03,3.65,1.03c1.03,0,1.9-0.5,1.9-1.19c0-0.87-1.07-1.25-2.38-1.67
		c-2-0.66-4.52-1.43-4.52-4.29c0-2.6,1.92-4.15,4.58-4.15c0.87,0,2.7,0.12,5.02,1.19c0.18,0.1,0.26,0.3,0.18,0.5l-0.89,2.04
		c-0.08,0.18-0.28,0.26-0.48,0.18c-0.87-0.32-2.52-0.91-3.63-0.91c-0.83,0-1.61,0.26-1.59,1.01c0.08,0.85,1.47,1.23,3.01,1.79
		C101.9,86.56,104.02,87.51,104.02,90.05z"/>
	<path class="st3" d="M109.34,83.27h-3.27c-0.2,0-0.36-0.16-0.36-0.36v-2.24c0-0.2,0.16-0.36,0.36-0.36h9.78
		c0.2,0,0.36,0.16,0.36,0.36v2.24c0,0.2-0.16,0.36-0.36,0.36h-3.31v10.57c0,0.2-0.16,0.36-0.36,0.36h-2.48
		c-0.2,0-0.36-0.16-0.36-0.36V83.27z"/>
	<path class="st3" d="M122.26,88.82v2.42h6.07c0.2,0,0.36,0.16,0.36,0.36v2.24c0,0.2-0.16,0.36-0.36,0.36h-8.89
		c-0.2,0-0.36-0.16-0.36-0.36V80.67c0-0.2,0.16-0.36,0.36-0.36h8.89c0.2,0,0.36,0.16,0.36,0.36v2.24c0,0.2-0.16,0.36-0.36,0.36
		h-6.07v2.6h4.66c0.2,0,0.36,0.16,0.36,0.36v2.24c0,0.2-0.16,0.36-0.36,0.36H122.26z"/>
	<path class="st3" d="M143.51,80.45c0.08-0.18,0.26-0.3,0.46-0.3s0.38,0.12,0.46,0.32l4.82,13.39c0.06,0.16-0.06,0.34-0.24,0.34
		h-2.66c-0.22,0-0.4-0.14-0.48-0.34l-2.28-6.82l-3.21,7.02c-0.08,0.18-0.26,0.3-0.46,0.3s-0.38-0.12-0.46-0.3l-3.21-7.02l-2.28,6.82
		c-0.08,0.2-0.26,0.34-0.48,0.34h-2.66c-0.18,0-0.3-0.18-0.24-0.34l4.82-13.39c0.08-0.2,0.26-0.32,0.44-0.32
		c0.2,0,0.4,0.12,0.48,0.3l3.59,7.54L143.51,80.45z"/>
	<path class="st3" d="M161.78,90.05c0,2.42-2.1,4.3-5.14,4.3c-1.92,0-3.49-0.48-5.18-1.35c-0.18-0.08-0.24-0.3-0.16-0.48l1.09-2.02
		c0.08-0.18,0.3-0.24,0.48-0.16c1.27,0.58,2.5,1.03,3.65,1.03c1.03,0,1.9-0.5,1.9-1.19c0-0.87-1.07-1.25-2.38-1.67
		c-2-0.66-4.52-1.43-4.52-4.29c0-2.6,1.92-4.15,4.58-4.15c0.87,0,2.7,0.12,5.02,1.19c0.18,0.1,0.26,0.3,0.18,0.5l-0.89,2.04
		c-0.08,0.18-0.28,0.26-0.48,0.18c-0.87-0.32-2.52-0.91-3.63-0.91c-0.83,0-1.61,0.26-1.59,1.01c0.08,0.85,1.47,1.23,3.02,1.79
		C159.66,86.56,161.78,87.51,161.78,90.05z"/>
	<path class="st3" d="M181.24,89.97c0,1.88-1.17,4.23-5.02,4.23h-4.96c-0.2,0-0.36-0.16-0.36-0.36V80.67c0-0.2,0.16-0.36,0.36-0.36
		h4.96c3.85,0,5.02,2.36,5.02,4.25c0,0.95-0.73,2.24-1.79,2.68C180.49,87.63,181.24,88.72,181.24,89.97z M178.03,84.56
		c0-0.32-0.22-1.31-1.61-1.31h-2.36V86h2.4C177.83,85.96,178.03,84.93,178.03,84.56z M178.03,89.97c0-0.42-0.2-1.29-1.57-1.33h-2.4
		v2.6h2.36C177.81,91.24,178.03,90.29,178.03,89.97z"/>
	<path class="st3" d="M187.59,93.84c0,0.2-0.16,0.36-0.36,0.36h-2.46c-0.2,0-0.36-0.16-0.36-0.36V80.67c0-0.2,0.16-0.36,0.36-0.36
		h2.46c0.2,0,0.36,0.16,0.36,0.36V93.84z"/>
	<path class="st3" d="M204.55,87.23c0,2.98-1.63,7.18-6.88,7.18c-5.28,0-6.9-4.21-6.9-7.18c0-2.9,1.63-7.16,6.9-7.16
		C202.92,80.07,204.55,84.34,204.55,87.23z M201.32,87.23c0-1.03-0.46-4.17-3.65-4.17c-3.21,0-3.67,3.13-3.67,4.17
		c0,1.03,0.46,4.21,3.67,4.21C200.86,91.44,201.32,88.27,201.32,87.23z"/>
	<path class="st3" d="M210.92,91.24h4.66c0.2,0,0.36,0.16,0.36,0.36v2.24c0,0.2-0.16,0.36-0.36,0.36h-7.5
		c-0.2,0-0.36-0.16-0.36-0.36V80.67c0-0.2,0.16-0.36,0.36-0.36h2.48c0.2,0,0.36,0.16,0.36,0.36V91.24z"/>
	<path class="st3" d="M231.51,87.23c0,2.98-1.63,7.18-6.88,7.18c-5.28,0-6.9-4.21-6.9-7.18c0-2.9,1.63-7.16,6.9-7.16
		C229.89,80.07,231.51,84.34,231.51,87.23z M228.28,87.23c0-1.03-0.46-4.17-3.65-4.17c-3.21,0-3.67,3.13-3.67,4.17
		c0,1.03,0.46,4.21,3.67,4.21C227.82,91.44,228.28,88.27,228.28,87.23z"/>
	<path class="st3" d="M240.5,89.5c-0.2,0-0.36-0.16-0.36-0.36v-2.2c0-0.2,0.16-0.36,0.36-0.36h5.12c0.2,0,0.36,0.16,0.36,0.36v4.94
		c0,0.24-0.1,0.46-0.26,0.62c-1.31,1.21-2.88,1.88-4.92,1.88c-5.28,0-6.9-4.17-6.9-7.14c0-2.9,1.63-7.12,6.9-7.12
		c2.12,0,3.69,0.83,5.04,2.16c0.14,0.14,0.14,0.38,0,0.52l-1.49,1.63c-0.14,0.14-0.36,0.14-0.5,0.02c-0.83-0.73-2.08-1.33-3.05-1.33
		c-3.21,0-3.67,3.05-3.67,4.09c0,1.03,0.46,4.25,3.67,4.25c0.67,0,1.53-0.24,1.98-0.58V89.5H240.5z"/>
	<path class="st3" d="M255.76,93.84c0,0.2-0.16,0.36-0.36,0.36h-2.44c-0.2,0-0.36-0.16-0.36-0.36v-5.77l-4.56-7.46
		c-0.08-0.12,0.02-0.3,0.18-0.3h2.8c0.22,0,0.42,0.12,0.54,0.3l2.62,4.36l2.62-4.36c0.1-0.18,0.32-0.3,0.54-0.3h2.82
		c0.16,0,0.26,0.18,0.18,0.3l-4.56,7.42V93.84z"/>
</g>
</svg>
