<?xml version="1.0" encoding="UTF-8" standalone="no"?>
<svg
   id="_50"
   data-name="50"
   viewBox="0 0 460 460"
   version="1.1"
   xmlns="http://www.w3.org/2000/svg"
   xmlns:svg="http://www.w3.org/2000/svg">
  <defs
     id="defs4">
    <style
       id="style2">
      .cls-1 {
        fill: #c33669;
        isolation: isolate;
        opacity: .5;
      }

      .cls-1, .cls-2 {
        stroke-width: 0px;
      }

      .cls-2 {
        fill: #2a2e3d;
      }
    </style>
  </defs>
  <g
     id="g881"
     transform="matrix(1.8398338,0,0,1.8398338,-193.49727,-185.94048)"
     style="stroke-width:0.543528">
    <path
       style="opacity:0.5;fill:#c33669;fill-opacity:1;stroke-width:0.0722892;stroke-linecap:round;stroke-linejoin:round;stop-color:#000000"
       d="m 225.12034,203.60671 c -8.88663,-2.78628 -42.82374,-14.81455 -61.42386,-21.77035 -10.38051,-3.88195 -14.56199,-5.58741 -14.56199,-5.93929 0,-0.91526 60.31787,-22.89791 75.84132,-27.64012 l 4.1328,-1.26252 2.69195,0.70061 c 10.88174,2.83211 77.20457,26.52285 78.84566,28.16395 0.50326,0.50325 -19.52676,8.07097 -49.04361,18.52961 C 249.36904,198.72329 230.63881,205.01245 230,205 c -0.25562,-0.005 -2.45146,-0.63197 -4.87966,-1.39329 z"
       id="path4912" />
    <path
       style="opacity:0.5;fill:#c33669;fill-opacity:1;stroke-width:0.0722892;stroke-linecap:round;stroke-linejoin:round;stop-color:#000000"
       d="m 194.07051,299.5728 c -15.16615,-5.52812 -32.07122,-11.68697 -37.56682,-13.68632 l -9.99201,-3.63518 v -44.85093 c 0,-24.66801 0.0478,-44.85093 0.10614,-44.85093 0.11089,0 32.85263,11.80934 48.38218,17.45056 16.0868,5.84365 27.20592,10.08907 27.49554,10.49813 0.17038,0.24067 0.21199,16.0639 0.10413,39.61845 -0.17093,37.34291 -0.36124,49.57361 -0.77066,49.5279 -0.10102,-0.0115 -12.59239,-4.54354 -27.75855,-10.07168 z"
       id="path4988" />
    <path
       style="opacity:0.5;fill:#c33669;fill-opacity:1;stroke-width:0.0722892;stroke-linecap:round;stroke-linejoin:round;stop-color:#000000"
       d="M 239.95484,295.32437 C 239.67495,269.67944 239.70332,225.46697 240,225 c 0.38149,-0.60051 5.88747,-2.67338 43.43484,-16.35215 13.71769,-4.99746 26.41918,-9.63188 28.22554,-10.2987 l 3.28428,-1.21242 0.19901,5.44659 c 0.31267,8.55699 0.63286,77.60122 0.37552,80.97571 l -0.23098,3.02902 -1.08264,0.45235 c -3.61641,1.51104 -73.40834,27.10611 -73.91218,27.10611 -0.0731,0 -0.22554,-8.46996 -0.33852,-18.82214 z"
       id="path5027" />
    <path
       d="m 190.33333,134.66667 c -18.26666,6.53333 -37.73333,13.46666 -43.2,15.46666 -11.33333,4.13334 -20.92397,7.99244 -24.39063,15.59244 -2.26667,4.93334 -0.9444,11.61063 -1.50261,62.40756 0,24.92203 0.32941,38.45804 0.32941,55.95643 0,21.22349 7.4305,15.64357 69.16383,37.3769 20.13333,7.06667 30.95751,11.80255 38.93333,11.86667 7.73846,0.0622 18.8,-4.8 38.93334,-11.86667 61.73333,-21.73333 70.18115,-19.52834 70.26181,-37.58704 -0.78618,-23.98468 -0.33967,-88.06893 -0.52482,-104.99658 0.40452,-22.00911 -6.35388,-22.26233 -62.27033,-41.68304 -28.54792,-10.09217 -38.96708,-14.53333 -46.8,-14.4 -7.13578,-0.11633 -18,4.4 -38.93333,11.86667 z m 75.6,26.93333 c 18.93333,6.8 34.4,12.66667 34.4,13.06667 0,0.93333 -68,25.33333 -70.66667,25.33333 C 227,200 159,175.6 159,174.66667 159,173.6 225.66666,149.6 229,149.46667 230.33333,149.33333 247,154.8 265.93333,161.6 Z m -69.06667,55.6 c 10.13334,3.73333 18.66667,6.93333 19.06667,7.2 0.26667,0.26667 0.26667,18 0.13333,39.33333 l -0.4,38.66667 -18,-6.53334 c -9.86666,-3.6 -24.79999,-8.93333 -32.93333,-12 L 149.66667,278.4 v -39.06667 -39.2 l 14.4,5.2 c 7.86666,2.8 22.53333,8.13334 32.79999,11.86667 z m 112.26667,61.06666 c -0.26667,0.26667 -15.06667,5.86667 -32.93333,12.26667 L 243.66666,302.4 l -0.4,-38.66667 C 243.13333,242.4 243.13333,224.66667 243.53333,224.4 243.8,224.13333 258.6,218.53333 276.46666,212.13333 L 309,200.26667 l 0.4,38.66666 c 0.13333,21.33334 0.13333,39.06667 -0.26667,39.33333 z"
       id="path2"
       style="fill:#2a2e3d;fill-opacity:1;stroke-width:0.0724701" />
  </g>
</svg>
