<?xml version="1.0" encoding="UTF-8"?>
<svg id="_50" data-name="50" xmlns="http://www.w3.org/2000/svg" viewBox="0 0 460 460">
  <defs>
    <style>
      .cls-1 {
        fill: #c33669;
        isolation: isolate;
        opacity: .5;
      }

      .cls-1, .cls-2 {
        stroke-width: 0px;
      }

      .cls-2 {
        fill: #2a2e3d;
      }
    </style>
  </defs>
  <g>
    <path class="cls-1" d="M329.03,131.48c-24.46,0-44.3-18.93-44.3-42.28V30H123.49c-24.46,0-44.3,18.93-44.3,42.28v287.53c0,23.35,19.84,42.28,44.3,42.28h214.4c24.46,0,44.3-18.93,44.3-42.28v-228.33h-53.16Z"/>
    <path class="cls-1" d="M382.19,131.48h-53.16c-24.46,0-44.3-18.93-44.3-42.28V30l97.45,101.48Z"/>
    <path class="cls-2" d="M382.19,131.48h-53.16c-24.46,0-44.3-18.93-44.3-42.28V30l97.45,101.48Z"/>
  </g>
  <g>
    <path class="cls-2" d="M405.45,425.59h0c5.87-5.88,5.87-15.41,0-21.29l-35.56-35.62-21.27,21.29,35.56,35.62c5.87,5.88,15.4,5.88,21.27,0Z"/>
    <path class="cls-2" d="M328.97,280.14c-35.77,0-64.78,29.03-64.78,64.84s29,64.84,64.78,64.84,64.78-29.03,64.78-64.84-29-64.84-64.78-64.84ZM328.97,380.94c-19.86,0-35.96-16.1-35.96-35.96s16.1-35.96,35.96-35.96,35.96,16.1,35.96,35.96-16.1,35.96-35.96,35.96Z"/>
  </g>
</svg>