<?xml version="1.0" encoding="UTF-8"?>
<svg id="_50" data-name="50" xmlns="http://www.w3.org/2000/svg" viewBox="0 0 460 460">
  <defs>
    <style>
      .cls-1 {
        fill: #c33669;
        isolation: isolate;
        opacity: .5;
      }

      .cls-1, .cls-2 {
        stroke-width: 0px;
      }

      .cls-2 {
        fill: #2a2e3d;
      }
    </style>
  </defs>
  <path class="cls-1" d="M402.67,314v-160c0-22.1-17.9-40-40-40h-40v-60h-160v60h-40c-22.1,0-40,17.9-40,40v160c-22.1,0-40,17.9-40,40v60c0,11.04,8.96,20,20,20h360c11.04,0,20-8.96,20-20v-60c0-22.1-17.9-40-40-40Z"/>
  <path class="cls-2" d="M262.67,214h-40v-40h40v40Z"/>
  <path class="cls-2" d="M262.67,294h-40v-40h40v40Z"/>
  <path class="cls-2" d="M262.67,374h-40v-40h40v40Z"/>
  <path class="cls-2" d="M342.67,214h-40v-40h40v40Z"/>
  <path class="cls-2" d="M342.67,294h-40v-40h40v40Z"/>
  <path class="cls-2" d="M342.67,374h-40v-40h40v40Z"/>
  <path class="cls-2" d="M182.67,214h-40v-40h40v40Z"/>
  <path class="cls-2" d="M182.67,294h-40v-40h40v40Z"/>
  <path class="cls-2" d="M182.67,374h-40v-40h40v40Z"/>
  <path class="cls-2" d="M322.67,34h-160c-22.1,0-40,17.9-40,40v40h60v-40h40v40h40v-40h40v40h60v-40c0-22.1-17.9-40-40-40Z"/>
</svg>