<?xml version="1.0" encoding="UTF-8"?>
<svg id="_50" data-name="50" xmlns="http://www.w3.org/2000/svg" viewBox="0 0 460 460">
  <defs>
    <style>
      .cls-1 {
        fill: #c33669;
        isolation: isolate;
        opacity: .5;
      }

      .cls-1, .cls-2 {
        stroke-width: 0px;
      }

      .cls-2 {
        fill: #2a2e3d;
      }
    </style>
  </defs>
  <path class="cls-1" d="M230.01,30C119.55,30,30.01,119.54,30.01,230c0,31.84,7.64,61.82,20.86,88.54l-20.1,80.38c-4.58,18.3,12,34.9,30.32,30.32l80.38-20.1c26.72,13.22,56.7,20.86,88.54,20.86,110.46,0,199.99-89.54,199.99-200S340.46,30,230.01,30"/>
  <path class="cls-2" d="M230.01,200c16.57,0,30,13.43,30,30s-13.43,30-30,30-30-13.43-30-30,13.43-30,30-30"/>
  <path class="cls-2" d="M330.01,200c16.57,0,30,13.43,30,30s-13.43,30-30,30-30-13.43-30-30,13.43-30,30-30"/>
  <path class="cls-2" d="M130.01,200c16.57,0,30,13.43,30,30s-13.43,30-30,30-30-13.43-30-30,13.43-30,30-30"/>
</svg>