<?xml version="1.0" encoding="UTF-8"?>
<svg id="_50" data-name="50" xmlns="http://www.w3.org/2000/svg" viewBox="0 0 460 460">
  <defs>
    <style>
      .cls-1 {
        fill: #c33669;
        isolation: isolate;
        opacity: .5;
      }

      .cls-1, .cls-2 {
        stroke-width: 0px;
      }

      .cls-2 {
        fill: #2a2e3d;
      }
    </style>
  </defs>
  <g>
    <path class="cls-1" d="M141.84,173.84c5.83-3.08,12.41-3.1,18.02-.69,4.68,2.02,10.16.71,13.54-3.11,6.03-6.8,10.96-14.57,14.54-23.08,2.06-4.88.5-10.37-3.41-13.94-4.37-3.99-7.03-9.81-6.78-16.21s3.34-11.99,8.02-15.64c4.15-3.26,6.13-8.62,4.47-13.64-2.93-8.76-7.26-16.9-12.73-24.12-3.08-4.05-8.44-5.77-13.26-4.13-5.79,1.97-12.35,1.43-17.93-2.07-5.6-3.52-8.92-9.24-9.61-15.34-.57-4.98-4.34-9.08-9.26-10.1-4.47-.95-9.08-1.53-13.81-1.71-4.73-.18-9.38.05-13.9.65-4.98.64-9.05,4.44-10,9.36-1.16,6.02-4.91,11.48-10.76,14.56-5.83,3.06-12.41,3.1-18.02.69-4.68-2.02-10.17-.71-13.54,3.09-6.03,6.8-10.96,14.58-14.56,23.1-2.04,4.86-.48,10.37,3.41,13.94,4.38,3.99,7.04,9.81,6.8,16.21s-3.34,11.99-8.02,15.64c-4.15,3.26-6.13,8.63-4.47,13.64,2.93,8.76,7.26,16.9,12.73,24.12,3.08,4.05,8.44,5.77,13.26,4.13,5.77-1.97,12.35-1.45,17.91,2.07,5.6,3.52,8.92,9.24,9.61,15.32.57,4.98,4.34,9.08,9.24,10.12,4.5.95,9.11,1.53,13.84,1.71,4.73.18,9.38-.05,13.9-.65,4.96-.65,9.04-4.46,9.99-9.38,1.17-6.01,4.92-11.46,10.77-14.54Z"/>
    <path class="cls-2" d="M110.41,80.54c-18.62,0-33.69,15.08-33.69,33.69s15.08,33.69,33.69,33.69,33.69-15.08,33.69-33.69-15.08-33.69-33.69-33.69Z"/>
  </g>
  <g>
    <path class="cls-1" d="M379.04,364.02c6.65-8.36,16.41-12.71,26.32-12.78,8.24-.07,15.55-5.59,18.09-13.44,4.51-14,6.77-28.79,6.53-43.77-.13-8.58-6.02-15.72-14.15-18.46-9.13-3.09-16.86-9.98-20.67-19.64-3.82-9.68-2.86-19.98,1.7-28.46,4.05-7.56,3.49-16.81-2.26-23.15-10.07-11.1-21.8-20.37-34.65-27.53-7.21-4.02-16.3-3.06-22.39,2.53-7.29,6.72-17.38,10.2-27.96,8.63-10.61-1.58-19.27-7.9-24.29-16.5-4.1-7.01-12.36-10.67-20.34-8.99-7.28,1.49-14.5,3.64-21.63,6.45-7.14,2.81-13.88,6.17-20.23,10.01-6.95,4.21-10.52,12.51-8.72,20.45,2.19,9.69.18,20.22-6.49,28.64-6.65,8.36-16.41,12.71-26.32,12.78-8.24.07-15.55,5.59-18.09,13.44-4.51,14-6.77,28.79-6.53,43.77.13,8.58,6.02,15.72,14.15,18.46,9.13,3.11,16.86,9.98,20.68,19.66,3.82,9.68,2.86,19.98-1.7,28.46-4.05,7.56-3.49,16.81,2.26,23.15,10.07,11.1,21.8,20.37,34.65,27.53,7.21,4.02,16.3,3.06,22.39-2.53,7.29-6.72,17.38-10.2,27.96-8.63,10.61,1.58,19.27,7.9,24.29,16.5,4.1,7.01,12.36,10.67,20.34,8.99,7.27-1.51,14.49-3.66,21.62-6.47,7.14-2.81,13.88-6.17,20.23-10.01,6.95-4.21,10.52-12.51,8.72-20.45-2.19-9.69-.19-20.24,6.49-28.64Z"/>
    <path class="cls-2" d="M274.19,247.14c-27,10.65-40.26,41.16-29.61,68.17,10.65,27,41.16,40.26,68.17,29.61,27-10.65,40.26-41.16,29.61-68.17-10.65-27-41.16-40.26-68.17-29.61Z"/>
  </g>
</svg>