<?xml version="1.0" encoding="UTF-8"?>
<svg id="_50" data-name="50" xmlns="http://www.w3.org/2000/svg" viewBox="0 0 460 460">
  <defs>
    <style>
      .cls-1 {
        fill: #c33669;
        isolation: isolate;
        opacity: .5;
      }

      .cls-1, .cls-2 {
        stroke-width: 0px;
      }

      .cls-2 {
        fill: #2a2e3d;
      }
    </style>
  </defs>
  <path class="cls-1" d="M366.58,89.61v180c0,33.14-26.86,60-60,60h-121.68l-38.44,40-13.32,13.86c-10.48,10.88-28.76,6.7-33.44-7.66l-15.12-46.4c-32.2-1.08-58-27.36-58-59.8V89.61c0-33.14,26.86-60,60-60h219.99c26.13,0,48.35,16.69,56.58,40,2.22,6.26,3.42,12.99,3.42,20Z"/>
  <path class="cls-2" d="M426.59,129.61v180c0,32.44-25.8,58.72-58,59.8l-15.12,46.4c-4.68,14.36-22.96,18.54-33.44,7.66l-51.76-53.86h-121.81l38.44-40h121.68c33.14,0,60-26.86,60-60V89.61c0-7.01-1.2-13.74-3.42-20h3.43c33.14,0,60,26.86,60,60Z"/>
</svg>