<?xml version="1.0" encoding="utf-8"?>
<!-- Generator: Adobe Illustrator 26.0.1, SVG Export Plug-In . SVG Version: 6.00 Build 0)  -->
<svg version="1.1" id="Layer_2" xmlns="http://www.w3.org/2000/svg" xmlns:xlink="http://www.w3.org/1999/xlink" x="0px" y="0px"
	 viewBox="0 0 479.66 479.66" style="enable-background:new 0 0 479.66 479.66;" xml:space="preserve">
<style type="text/css">
	.st0{fill:#2A2E3D;}
</style>
<g>
	<g>
		<path class="st0" d="M59.3,119.78l40.31,8.12l18.41,41.22c-11.09,19.04-17.52,40.37-18.83,62.37l-29.18-7.51
			c-3.09-0.79-6.27-1.2-9.45-1.2c-8.88,0-17.52,3.14-24.34,8.83l-13.21,11.04c-0.01-0.93-0.02-1.85-0.02-2.78
			C23,196.8,35.53,155.39,59.3,119.78 M55.69,95.89c-4.82,0-9.43,2.34-12.27,6.39C16.06,141.23,0,188.68,0,239.89
			c0,6.98,0.3,13.89,0.88,20.71c0.71,8.26,7.66,13.59,14.93,13.59c3.3,0,6.66-1.09,9.54-3.5l25.62-21.42
			c2.72-2.27,6.12-3.48,9.59-3.48c1.24,0,2.49,0.15,3.72,0.47l39.02,10.04c1.26,0.32,2.52,0.48,3.76,0.48
			c8.07,0,15.03-6.6,14.9-15.13c-0.01-0.59-0.01-1.17-0.01-1.76c0-22.92,6.56-44.29,17.89-62.39c2.62-4.19,2.91-9.43,0.9-13.94
			l-21.8-48.82c-1.97-4.41-5.95-7.6-10.69-8.56l-49.6-9.99C57.65,95.98,56.66,95.89,55.69,95.89L55.69,95.89z"/>
	</g>
	<g>
		<path class="st0" d="M221.05,23.92l18.8,36.57l-20.72,40.08c-21.82,3.21-42.49,11.5-60.5,24.23l-12.34-27.5
			c-4.99-11.12-15.1-19.21-27.05-21.64l-16.87-3.43c15.14-12.43,31.82-22.71,49.76-30.66C174.01,31.88,197.16,25.96,221.05,23.92
			 M225.79,0.55c-0.3,0-0.61,0.01-0.91,0.03c-58.1,3.56-110.61,27.81-150.24,65.48c-8.76,8.32-4.49,23.07,7.34,25.47l32.68,6.65
			c4.72,0.96,8.68,4.13,10.65,8.52l16.51,36.78c2.54,5.66,8.01,8.79,13.62,8.79c3.35,0,6.75-1.11,9.62-3.47
			c16.98-13.96,37.92-23.26,60.9-25.95c4.99-0.58,9.38-3.54,11.68-8l24.55-47.5c2.22-4.29,2.23-9.4,0.02-13.69L239.08,8.68
			C236.51,3.68,231.36,0.55,225.79,0.55L225.79,0.55z"/>
	</g>
	<g>
		<path class="st0" d="M434.07,143.68c14.74,29.75,22.48,62.7,22.48,96.2c0,10.15-0.71,20.33-2.11,30.34l-39.88,10.1l-34.41-29.22
			c0.3-3.75,0.46-7.5,0.46-11.21c0-18.48-3.49-36.33-10.4-53.17l29.53-5.83c11.96-2.36,22.12-10.39,27.17-21.49L434.07,143.68
			 M433.47,110.71c-5.51,0-11,2.97-13.64,8.76l-13.85,30.39c-2,4.38-5.98,7.53-10.7,8.46l-39.52,7.81
			c-9.7,1.92-14.84,12.53-10.43,21.39c7.85,15.78,12.27,33.56,12.27,52.38c0,4.41-0.26,8.76-0.74,13.04
			c-0.56,4.93,1.46,9.81,5.24,13.02l40.73,34.58c2.73,2.32,6.17,3.55,9.67,3.55c1.22,0,2.45-0.15,3.67-0.46l49.08-12.42
			c5.77-1.46,10.13-6.2,11.09-12.07c2.11-12.77,3.2-25.88,3.2-39.25c0-44.49-12.12-86.14-33.24-121.85
			C443.39,113.11,438.42,110.71,433.47,110.71L433.47,110.71z"/>
	</g>
	<g>
		<path class="st0" d="M285.07,27.86c42.77,9.12,82.05,31.16,112.32,63.21l-16.98,37.44l-44.33,8.67
			c-16.26-15.26-35.73-26.36-56.98-32.52l13.78-26.79c5.58-10.84,5.59-23.79,0.04-34.64L285.07,27.86 M270.5,2.21
			c-10.89,0-18.45,11.63-13.26,21.76l15.22,29.74c2.19,4.29,2.19,9.36-0.02,13.64L254,103.17c-4.5,8.75,0.53,19.41,10.15,21.44
			c22.69,4.77,42.97,16.08,58.79,31.85c2.83,2.82,6.63,4.38,10.54,4.38c0.94,0,1.89-0.09,2.83-0.27l52.58-10.28
			c4.74-0.93,8.75-4.09,10.74-8.49l20.89-46.07c2.46-5.43,1.46-11.79-2.53-16.22c-36.97-41.06-87.93-69.28-145.38-77.15
			C271.91,2.26,271.2,2.21,270.5,2.21L270.5,2.21z"/>
	</g>
	<g>
		<path class="st0" d="M64.82,279.55l43.69,11.33c7.98,20.55,20.64,38.87,37.02,53.62l-24.09,18.13
			c-9.74,7.33-15.39,18.99-15.11,31.17l0.39,17.22c-34.44-26.82-60.14-63.49-73.43-105.01L64.82,279.55 M62.82,255.77
			c-3.47,0-6.89,1.21-9.61,3.5l-38.79,32.56c-4.54,3.81-6.42,9.95-4.75,15.64c16.01,54.6,50.91,101.12,97.15,131.99
			c2.62,1.75,5.47,2.54,8.25,2.54c7.89,0,15.2-6.38,15-15.32l-0.76-33.39c-0.11-4.81,2.11-9.38,5.95-12.28l32.21-24.25
			c7.88-5.93,7.93-17.7,0.14-23.75c-17.63-13.69-31.27-32.27-38.88-53.72c-1.68-4.73-5.53-8.36-10.39-9.62l-51.78-13.43
			C65.33,255.93,64.07,255.77,62.82,255.77L62.82,255.77z"/>
	</g>
	<g>
		<path class="st0" d="M362.68,308.63l23,19.46c6.84,5.79,15.54,8.97,24.51,8.97c3.11,0,6.22-0.38,9.24-1.14l16.76-4.21
			c-18.45,39.4-48.54,72.58-86.2,94.87l-32.78-24.87l1.37-45.1C336.89,344.23,351.95,327.83,362.68,308.63 M360.17,280.97
			c-5.55,0-10.98,3.08-13.57,8.63c-9.56,20.51-24.84,37.82-43.8,49.85c-4.24,2.69-6.93,7.25-7.08,12.26l-1.62,53.44
			c-0.15,4.83,2.05,9.44,5.9,12.36l40.32,30.6c2.66,2.02,5.84,3.04,9.05,3.04c2.52,0,5.06-0.64,7.35-1.92
			c48.77-27.3,87.02-71.14,107.15-123.94C467.72,315.22,460.03,305,450,305c-1.21,0-2.46,0.15-3.73,0.47l-32.44,8.15
			c-1.2,0.3-2.43,0.45-3.64,0.45c-3.5,0-6.92-1.23-9.65-3.53l-30.76-26.02C366.94,282.1,363.53,280.97,360.17,280.97L360.17,280.97z
			"/>
	</g>
	<g>
		<path class="st0" d="M197.7,374.31c13.58,4.25,27.71,6.4,42.07,6.4c7.7,0,15.39-0.63,22.96-1.87l-0.86,30.11
			c-0.35,12.19,5.24,23.87,14.93,31.26l13.75,10.47c-16.55,3.97-33.57,5.98-50.78,5.98c-26.62,0-52.54-4.75-77.14-14.13l-1.01-41.16
			L197.7,374.31 M196.25,350.44c-3.22,0-6.4,1.02-9.06,3.01l-42.69,32.01c-3.87,2.9-6.09,7.49-5.97,12.32l1.24,50.63
			c0.15,5.95,3.81,11.24,9.32,13.5c27.97,11.44,58.59,17.75,90.68,17.75c25.49,0,50.06-3.98,73.11-11.35
			c11.5-3.68,14.07-18.81,4.47-26.13l-26.6-20.27c-3.83-2.92-6.02-7.5-5.88-12.31l1.14-40.27c0.24-8.63-6.75-15.35-14.92-15.35
			c-1.17,0-2.37,0.14-3.58,0.43c-8.9,2.15-18.18,3.3-27.74,3.3c-13.47,0-26.42-2.26-38.48-6.43
			C199.65,350.72,197.94,350.44,196.25,350.44L196.25,350.44z"/>
	</g>
</g>
</svg>
