<?xml version="1.0" encoding="UTF-8"?>
<svg id="_50" data-name="50" xmlns="http://www.w3.org/2000/svg" viewBox="0 0 460 460">
  <defs>
    <style>
      .cls-1 {
        isolation: isolate;
      }

      .cls-1, .cls-2, .cls-3 {
        stroke-width: 0px;
      }

      .cls-1, .cls-3 {
        fill: #c33669;
        opacity: .5;
      }

      .cls-2 {
        fill: #2a2e3d;
      }
    </style>
  </defs>
  <path class="cls-1" d="M403.94,428.9l-11.16-5.87c-2.73-1.44-6-1.44-8.73,0l-11.16,5.86c-6.88,3.61-14.92-2.23-13.6-9.89l2.14-12.43c.52-3.04-.49-6.15-2.69-8.3l-9.03-8.81c-5.56-5.43-2.49-14.88,5.2-16l12.48-1.81c3.05-.44,5.7-2.36,7.06-5.13l5.58-11.31c3.44-6.97,13.38-6.97,16.82,0l5.58,11.31c1.36,2.77,4.01,4.69,7.06,5.13l12.48,1.82c7.69,1.12,10.76,10.58,5.19,16l-9.03,8.8c-2.21,2.15-3.22,5.26-2.7,8.3l2.13,12.43c1.31,7.66-6.73,13.5-13.61,9.88"/>
  <path class="cls-1" d="M428.43,70c0,22.09-17.91,40-40,40s-40-17.91-40-40,17.91-40,40-40,40,17.91,40,40"/>
  <path class="cls-2" d="M408.43,270h-40c-11.04,0-20-8.96-20-20v-40c0-11.04,8.96-20,20-20h40c11.04,0,20,8.96,20,20v40c0,11.04-8.96,20-20,20"/>
  <path class="cls-1" d="M58.69,38.26c6.21-11.01,21.75-11.01,27.96,0l13.25,23.48,13.25,23.48c6.21,11.01-1.55,24.78-13.98,24.78h-53c-12.43,0-20.2-13.77-13.98-24.78l13.25-23.48,13.25-23.48Z"/>
  <path class="cls-1" d="M92.67,430h-40c-11.04,0-20-8.96-20-20v-40c0-11.04,8.96-20,20-20h40c11.04,0,20,8.96,20,20v40c0,11.04-8.96,20-20,20"/>
  <path class="cls-2" d="M112.67,230c0,22.09-17.91,40-40,40s-40-17.91-40-40,17.91-40,40-40,40,17.91,40,40"/>
  <path class="cls-2" d="M248.96,110h-40c-11.04,0-20-8.96-20-20v-40c0-11.04,8.96-20,20-20h40c11.04,0,20,8.96,20,20v40c0,11.04-8.96,20-20,20"/>
  <path class="cls-2" d="M214.98,358.26c6.21-11.01,21.75-11.01,27.96,0l13.25,23.48,13.25,23.48c6.21,11.01-1.55,24.78-13.98,24.78h-53c-12.43,0-20.2-13.77-13.98-24.78l13.25-23.48,13.25-23.48Z"/>
  <path class="cls-3" d="M244.11,190h-30.29c-4.92,0-9.46,2.62-11.92,6.88l-15.15,26.23c-2.46,4.26-2.46,9.51,0,13.77l15.15,26.23c2.46,4.26,7,6.88,11.92,6.88h30.29c4.92,0,9.46-2.62,11.92-6.88l15.15-26.23c2.46-4.26,2.46-9.51,0-13.77l-15.15-26.23c-2.46-4.26-7-6.88-11.92-6.88"/>
</svg>