<?xml version="1.0" encoding="UTF-8"?>
<svg id="_50" data-name="50" xmlns="http://www.w3.org/2000/svg" viewBox="0 0 460 460">
  <defs>
    <style>
      .cls-1 {
        fill: #c33669;
        isolation: isolate;
        opacity: .5;
      }

      .cls-1, .cls-2 {
        stroke-width: 0px;
      }

      .cls-2 {
        fill: #2a2e3d;
      }
    </style>
  </defs>
  <g>
    <path class="cls-1" d="M329.03,131.48c-24.46,0-44.3-18.93-44.3-42.28V30H123.49c-24.46,0-44.3,18.93-44.3,42.28v287.53c0,23.35,19.84,42.28,44.3,42.28h214.4c24.46,0,44.3-18.93,44.3-42.28v-228.33h-53.16Z"/>
    <path class="cls-1" d="M382.18,131.48h-53.16c-24.46,0-44.3-18.93-44.3-42.28V30l97.45,101.48Z"/>
    <path class="cls-2" d="M382.18,131.48h-53.16c-24.46,0-44.3-18.93-44.3-42.28V30l97.45,101.48Z"/>
  </g>
  <path class="cls-2" d="M404.16,357.09c-7.44-7.44-19.5-7.44-26.94,0l-7.9,7.9v-70.99c0-10.52-8.53-19.05-19.05-19.05s-19.05,8.53-19.05,19.05v70.94l-7.89-7.87c-7.45-7.43-19.51-7.41-26.94.04-7.43,7.45-7.41,19.51.04,26.94l39.11,39.01s.07.06.11.1c3.49,4.18,8.75,6.85,14.62,6.85,5.56,0,10.54-2.39,14.02-6.19.29-.26.58-.5.86-.78l39.01-39.01c7.44-7.44,7.44-19.5,0-26.94Z"/>
</svg>