<?xml version="1.0" encoding="UTF-8"?>
<svg id="_50" data-name="50" xmlns="http://www.w3.org/2000/svg" viewBox="0 0 460 460">
  <defs>
    <style>
      .cls-1 {
        fill: #c33669;
        isolation: isolate;
        opacity: .5;
      }

      .cls-1, .cls-2 {
        stroke-width: 0px;
      }

      .cls-2 {
        fill: #2a2e3d;
      }
    </style>
  </defs>
  <path class="cls-1" d="M361.33,436H94.67c-36.82,0-66.67-29.84-66.67-66.67V102.67c0-36.82,29.84-66.67,66.67-66.67h266.67c36.82,0,66.67,29.84,66.67,66.67v266.67c0,36.82-29.84,66.67-66.67,66.67Z"/>
  <path class="cls-2" d="M361.33,436H94.67c-36.82,0-66.67-29.84-66.67-66.67h0c0-36.82,29.84-66.67,66.67-66.67h266.67c36.82,0,66.67,29.84,66.67,66.67h0c0,36.82-29.84,66.67-66.67,66.67ZM361.33,347.11c-12.22,0-22.22,10-22.22,22.22s10,22.22,22.22,22.22,22.22-10,22.22-22.22-10-22.22-22.22-22.22ZM161.33,347.11c-12.27,0-22.22,9.96-22.22,22.22s9.96,22.22,22.22,22.22,22.22-9.96,22.22-22.22-9.96-22.22-22.22-22.22ZM228,347.11c-12.27,0-22.22,9.96-22.22,22.22s9.96,22.22,22.22,22.22,22.22-9.96,22.22-22.22-9.96-22.22-22.22-22.22ZM94.67,347.11c-12.27,0-22.22,9.96-22.22,22.22s9.96,22.22,22.22,22.22,22.22-9.96,22.22-22.22-9.96-22.22-22.22-22.22Z"/>
</svg>