<?xml version="1.0" encoding="UTF-8"?>
<svg id="_50" data-name="50" xmlns="http://www.w3.org/2000/svg" viewBox="0 0 460 460">
  <defs>
    <style>
      .cls-1 {
        fill: #c33669;
        isolation: isolate;
        opacity: .5;
      }

      .cls-1, .cls-2 {
        stroke-width: 0px;
      }

      .cls-2 {
        fill: #2a2e3d;
      }
    </style>
  </defs>
  <g>
    <path class="cls-1" d="M329.03,131.48c-24.46,0-44.3-18.93-44.3-42.28V30H123.49c-24.46,0-44.3,18.93-44.3,42.28v287.53c0,23.35,19.84,42.28,44.3,42.28h214.4c24.46,0,44.3-18.93,44.3-42.28v-228.33h-53.16Z"/>
    <path class="cls-1" d="M382.18,131.48h-53.16c-24.46,0-44.3-18.93-44.3-42.28V30l97.45,101.48Z"/>
    <path class="cls-2" d="M382.18,131.48h-53.16c-24.46,0-44.3-18.93-44.3-42.28V30l97.45,101.48Z"/>
  </g>
  <path class="cls-2" d="M413.08,277.66l-10.31-9.2c-5.4-4.81-13.67-4.34-18.48,1.06l-107.64,120.67-.89,1c-1.41,1.58-2.37,3.49-2.8,5.56l-2.88,13.85-2.63,12.65c-.88,4.23,3.15,7.82,7.25,6.47l12.27-4.05,13.43-4.43c2-.66,3.8-1.84,5.2-3.41l.89-1,107.64-120.67c4.81-5.4,4.34-13.67-1.06-18.48Z"/>
</svg>