<?xml version="1.0" encoding="UTF-8"?>
<svg id="_50" data-name="50" xmlns="http://www.w3.org/2000/svg" viewBox="0 0 460 460">
  <defs>
    <style>
      .cls-1 {
        fill: #c33669;
        isolation: isolate;
        opacity: .5;
      }

      .cls-1, .cls-2 {
        stroke-width: 0px;
      }

      .cls-2 {
        fill: #2a2e3d;
      }
    </style>
  </defs>
  <path class="cls-1" d="M319.62,30.04c-88.53-2.19-86.81,95.27-153.97,99.45C-42.7,149.94,1.99,462.54,210.94,427.22c117.68,1.98,219.12-109.31,217.37-238.19,10.74-74.45-29.93-160.92-108.68-158.99"/>
  <path class="cls-2" d="M321.03,236.94c-51.7-48.76-126.19,29.53-74.92,78.74,51.71,48.76,126.19-29.53,74.92-78.74M265.81,289.9c-23.69-.11-23.69-36.12,0-36.23,23.69.11,23.68,36.12,0,36.23"/>
  <path class="cls-2" d="M296.24,162.28c-46.32,17.86-79.41,40.29-108.54,72.46-7.08,7.08-18.55,7.08-25.61,0-27.31-32.72,83.1-86.86,109.03-98.28,16.04-6.77,18.13-6.8,25.13.21,7.06,7.06,7.35,22.77,0,25.61"/>
  <path class="cls-2" d="M332.23,108.75c23.69.11,23.69,36.12,0,36.23-23.69-.11-23.69-36.13,0-36.23"/>
  <path class="cls-2" d="M188.72,348.77h0c10,0,18.11-8.11,18.11-18.11.51-14.43,2.05-35.91-18.11-36.23-10.05-.11-18.25,8.51-18.11,18.12-.52,14.85-1.96,35.83,18.11,36.22"/>
  <path class="cls-2" d="M120.55,276.31c23.69.11,23.69,36.12,0,36.23-23.69-.11-23.69-36.13,0-36.23"/>
</svg>