<?xml version="1.0" encoding="UTF-8"?>
<svg id="_50" data-name="50" xmlns="http://www.w3.org/2000/svg" viewBox="0 0 460 460">
  <defs>
    <style>
      .cls-1 {
        fill: #c33669;
        isolation: isolate;
        opacity: .5;
      }

      .cls-1, .cls-2 {
        stroke-width: 0px;
      }

      .cls-2 {
        fill: #2a2e3d;
      }
    </style>
  </defs>
  <circle class="cls-1" cx="230" cy="230" r="200"/>
  <g id="yP0B4o">
    <path class="cls-2" d="M216.58,187.53c19.3,0,38.59,0,57.89,0,2.49.02,2.78.5,1.79,2.83-3.74,8.82-7.56,17.61-11.25,26.46-.64,1.58-1.67,2.22-3.38,2.22-37.71-.03-75.43-.02-113.14-.03-3.93-.74-4.39-.4-4.36,4.36.9,3.61-2.5,19.91,3.17,17.65,33.88-.27,67.78-.02,101.66-.09,1.79.53,7.18-1.01,5.85,2.15-3.88,8.89-7.57,17.86-11.35,26.79-1.05,2.49-1.56,2.67-4.3,2.63-26.77-.33-53.54-.06-80.3-.09-7.24-1.41,5.79,12.97,7.02,15.17,24.3,30.07,68.91,39.06,103.92,23.85,28.38-13.4,14.19-17.67,32.05,12.62.9,3.64,8.29,10.98,4.65,13.54-27.55,19.33-62.28,27.32-95.45,21.06-44.88-7.19-84.37-39.88-99.07-83-1.15-3.25-1.18-3.24-4.62-3.24-13.12,0-26.24,0-39.36,0-2.87,0-3.03-.27-1.72-2.89,4.41-8.84,8.86-17.66,13.23-26.52,2.26-4.24,16.45-1.35,21.3-1.91,1.44.09,2.15-.45,1.99-1.92-.62-5.8-.17-11.63-.02-17.44.08-2.7.07-2.7-2.71-2.71-10.83,0-21.65,0-32.48,0-2.68,0-2.81-.29-1.62-2.64,3.12-6.19,6.16-12.42,9.25-18.63,2.39-3.2,2.83-9.85,7.46-10.23,8.41.05,16.83.02,25.24.02,2.82,0,2.83,0,3.76-2.6,9.98-28.64,30.24-53.28,56.68-68.21,41.15-23.88,94.89-23.71,134.49,3.39,2.03,1.26,2.24,1.88,1.33,4.04-24.38,57.04-4.23,27.53-53.95,18.57-36.08-6.9-76.03,9.55-93.29,42.69-.97,1.8-.73,2.14,1.25,2.14,19.47,0,38.95,0,58.42,0h0Z"/>
  </g>
</svg>