<?xml version="1.0" encoding="UTF-8"?>
<svg id="_50" data-name="50" xmlns="http://www.w3.org/2000/svg" viewBox="0 0 460 460">
  <defs>
    <style>
      .cls-1 {
        fill: #c33669;
        opacity: .5;
      }

      .cls-1, .cls-2 {
        stroke-width: 0px;
      }

      .cls-1, .cls-2, .cls-3 {
        isolation: isolate;
      }

      .cls-2 {
        fill: #2a2e3d;
      }
    </style>
  </defs>
  <g>
    <circle class="cls-1" cx="117.28" cy="90" r="45"/>
    <path class="cls-1" d="M171.21,157.89h-102.41c-21.43,0-38.79,17.36-38.79,38.79s17.36,38.79,38.79,38.79h102.41c21.43,0,38.79-17.36,38.79-38.79s-17.36-38.79-38.79-38.79Z"/>
    <g class="cls-3">
      <circle class="cls-2" cx="342.72" cy="90" r="45"/>
      <path class="cls-2" d="M391.21,157.89h-102.98c-21.43,0-38.79,17.36-38.79,38.79s17.36,38.79,38.79,38.79h102.98c21.43,0,38.79-17.36,38.79-38.79s-17.36-38.79-38.79-38.79Z"/>
    </g>
  </g>
  <path class="cls-1" d="M430,350.22c0-5.84-2.51-11.07-6.5-14.73-.27-.3-.52-.61-.81-.9l-40.96-40.96c-7.81-7.81-20.47-7.81-28.28,0s-7.81,20.47,0,28.28l8.3,8.3h-91.32c-11.05,0-20,8.95-20,20s8.95,20,20,20h91.27s-8.27,8.29-8.27,8.29c-7.8,7.82-7.78,20.48.04,28.28,3.9,3.89,9.01,5.84,14.12,5.84s10.25-1.96,14.16-5.88l40.96-41.07s.07-.08.1-.11c4.39-3.67,7.19-9.18,7.19-15.36Z"/>
  <path class="cls-2" d="M191.56,332.59h-91.3l8.3-8.3c7.81-7.81,7.81-20.47,0-28.28-7.81-7.81-20.47-7.81-28.28,0l-40.96,40.96c-.29.29-.55.6-.81.9-3.99,3.66-6.5,8.89-6.5,14.73,0,6.17,2.8,11.69,7.2,15.36.03.03.06.07.1.11l40.96,41.07c3.91,3.92,9.03,5.88,14.16,5.88s10.22-1.95,14.12-5.84c7.82-7.8,7.84-20.46.04-28.28l-8.27-8.29h91.25c11.05,0,20-8.95,20-20s-8.95-20-20-20Z"/>
</svg>