<?xml version="1.0" encoding="UTF-8"?>
<svg id="_50" data-name="50" xmlns="http://www.w3.org/2000/svg" viewBox="0 0 460 460">
  <defs>
    <style>
      .cls-1 {
        fill: #c33669;
        isolation: isolate;
        opacity: .5;
      }

      .cls-1, .cls-2 {
        stroke-width: 0px;
      }

      .cls-2 {
        fill: #2a2e3d;
      }
    </style>
  </defs>
  <path class="cls-2" d="M410,281.01H98.26s8.3-8.3,8.3-8.3c7.81-7.81,7.81-20.47,0-28.28s-20.47-7.81-28.28,0l-40.96,40.96c-.29.29-.55.6-.81.9-3.99,3.66-6.5,8.89-6.5,14.73,0,6.17,2.8,11.69,7.19,15.36.04.04.07.08.1.11l40.96,41.07c3.91,3.92,9.03,5.88,14.16,5.88s10.22-1.95,14.12-5.84c7.82-7.8,7.84-20.46.04-28.28l-8.27-8.29h311.69c11.05,0,20-8.95,20-20s-8.95-20-20-20Z"/>
  <path class="cls-1" d="M430,159.01c0-5.84-2.51-11.07-6.5-14.73-.27-.3-.53-.61-.81-.9l-40.96-40.96c-7.81-7.81-20.47-7.81-28.28,0s-7.81,20.47,0,28.28l8.3,8.3H50c-11.05,0-20,8.95-20,20s8.95,20,20,20h311.69s-8.27,8.29-8.27,8.29c-7.8,7.82-7.78,20.48.04,28.28,3.9,3.89,9.01,5.84,14.12,5.84s10.25-1.96,14.16-5.88l40.96-41.07s.07-.08.1-.11c4.39-3.67,7.19-9.18,7.19-15.36Z"/>
</svg>