<?xml version="1.0" encoding="UTF-8"?>
<svg id="_50" data-name="50" xmlns="http://www.w3.org/2000/svg" viewBox="0 0 460 460">
  <defs>
    <style>
      .cls-1 {
        fill: #c33669;
        isolation: isolate;
        opacity: .5;
      }

      .cls-1, .cls-2 {
        stroke-width: 0px;
      }

      .cls-2 {
        fill: #2a2e3d;
      }
    </style>
  </defs>
  <rect class="cls-1" x="30" y="119.51" width="310.44" height="310.47" rx="50" ry="50"/>
  <path class="cls-2" d="M424.42,35.58c-3.93-3.93-9.15-5.76-14.29-5.54-.38-.02-.76-.06-1.15-.06h-140.95c-10.52,0-19.05,8.53-19.05,19.05s8.53,19.05,19.05,19.05h96.96s-200.51,200.51-200.51,200.51c-7.44,7.44-7.44,19.5,0,26.94,3.72,3.72,8.59,5.58,13.47,5.58s9.75-1.86,13.47-5.58l200.42-200.42v96.79c0,10.52,8.53,19.05,19.05,19.05s19.05-8.53,19.05-19.05V50.93c0-.05,0-.1,0-.16.49-5.43-1.34-11.04-5.5-15.2Z"/>
</svg>