<?xml version="1.0" encoding="UTF-8"?>
<svg id="_50" data-name="50" xmlns="http://www.w3.org/2000/svg" viewBox="0 0 460 460">
  <defs>
    <style>
      .cls-1 {
        fill: #c33669;
        isolation: isolate;
        opacity: .5;
      }

      .cls-1, .cls-2 {
        stroke-width: 0px;
      }

      .cls-2 {
        fill: #2a2e3d;
      }
    </style>
  </defs>
  <g>
    <path class="cls-1" d="M323.62,297.5h-178.19c-17.07,0-30.9-13.94-30.9-31.14V121.63h209.1c17.07,0,30.9,13.94,30.9,31.14v113.59c0,17.2-13.84,31.14-30.9,31.14Z"/>
    <path class="cls-2" d="M203.33,121.63h-88.8v-17.61c0-11.9,8.74-21.52,19.54-21.52h38.31c8.06,0,15.43,5.01,19.06,12.97l11.9,26.16Z"/>
  </g>
  <path class="cls-2" d="M410,337.5h-160v-40h-40v40H50c-11.05,0-20,8.95-20,20h0c0,11.05,8.95,20,20,20h360c11.05,0,20-8.95,20-20h0c0-11.05-8.95-20-20-20Z"/>
</svg>