<?xml version="1.0" encoding="UTF-8"?>
<svg id="_50" data-name="50" xmlns="http://www.w3.org/2000/svg" viewBox="0 0 460 460">
  <defs>
    <style>
      .cls-1 {
        fill: #c33669;
        isolation: isolate;
        opacity: .5;
      }

      .cls-1, .cls-2 {
        stroke-width: 0px;
      }

      .cls-2 {
        fill: #2a2e3d;
      }
    </style>
  </defs>
  <path class="cls-1" d="M322.34,137.14h-.11c-10.52.06-19,8.64-18.94,19.16.1,17.22-3.56,40.97-21.57,56.38-11.82,10.11-28.92,15.89-45.47,21.47-3.97,1.34-6.99,2.22-16.99,5.12-7.75,2.25-19.47,5.66-38.77,11.35-1.33.39-2.65.73-4.06,1.09-3.32.85-7.09,1.81-11.73,3.67l-1.55.62c-2.34.93-4.63,1.85-6.88,2.77V126.01c0-10.52-8.53-19.05-19.05-19.05s-19.05,8.53-19.05,19.05v161.85c-.74,3.01-.73,6.13,0,9.1v37.76c0,10.52,8.53,19.05,19.05,19.05s19.05-8.53,19.05-19.05v-34.05c5.11-2.95,13.14-6.16,21-9.3l1.56-.62c2.34-.94,4.31-1.44,7.03-2.13,1.6-.41,3.41-.87,5.41-1.46,19.23-5.67,30.9-9.06,38.62-11.31,10.32-3,13.8-4.01,18.55-5.61,19.04-6.43,40.63-13.72,58.04-28.62,29.11-24.9,35.04-60.27,34.9-85.55-.06-10.48-8.58-18.94-19.04-18.94Z"/>
  <circle class="cls-2" cx="137.23" cy="80.09" r="50.09"/>
  <circle class="cls-2" cx="322.77" cy="113.48" r="50.09"/>
  <circle class="cls-2" cx="137.23" cy="379.91" r="50.09"/>
</svg>