<?xml version="1.0" encoding="UTF-8"?>
<svg id="_50" data-name="50" xmlns="http://www.w3.org/2000/svg" viewBox="0 0 460 460">
  <defs>
    <style>
      .cls-1 {
        fill: #c33669;
        isolation: isolate;
        opacity: .5;
      }

      .cls-1, .cls-2 {
        stroke-width: 0px;
      }

      .cls-2 {
        fill: #2a2e3d;
      }
    </style>
  </defs>
  <g>
    <path class="cls-1" d="M149.42,306.46c-.23-.09-.45-.19-.68-.28.23.09.45.19.68.28Z"/>
    <path class="cls-1" d="M146.91,305.36c-.23-.11-.47-.23-.7-.35.23.12.47.24.7.35Z"/>
    <path class="cls-1" d="M148.16,305.94c-.23-.1-.46-.21-.69-.32.23.11.46.22.69.32Z"/>
    <path class="cls-1" d="M150.68,306.94c-.22-.08-.45-.17-.67-.25.22.08.45.17.67.25Z"/>
    <path class="cls-1" d="M155.81,308.42c-.23-.05-.45-.11-.68-.16.23.05.45.11.68.16Z"/>
    <path class="cls-1" d="M154.52,308.12c-.22-.06-.45-.12-.67-.18.22.06.45.12.67.18Z"/>
    <path class="cls-1" d="M153.24,307.77c-.23-.07-.46-.14-.68-.21.23.07.45.14.68.21Z"/>
    <path class="cls-1" d="M151.96,307.38c-.23-.07-.46-.15-.68-.23.23.08.45.16.68.23Z"/>
    <path class="cls-1" d="M144.44,304.06c-.24-.14-.48-.29-.71-.43.24.14.48.29.71.43Z"/>
    <path class="cls-1" d="M127.54,324.5c-.4-.48-.77-.97-1.12-1.46.35.49.72.97,1.12,1.46Z"/>
    <path class="cls-1" d="M140.81,301.69c-.4-.29-.79-.6-1.19-.91.39.31.79.62,1.19.91Z"/>
    <path class="cls-1" d="M128,325.04c-.11-.13-.23-.26-.33-.39.11.13.22.26.33.39Z"/>
    <path class="cls-1" d="M380,181.45c-.26-152.87-299.77-152.86-299.99,0-.71,52.26,50.37,105.74,112.54,111.11v.13c-3.77,3.51-8.71,9.01-11.99,16.64-.08,0-.16.01-.25.02-3.65,9.1-4.22,18.67-3.94,29.4.02,0,.05,0,.07,0,.18,18.89,1.05,16.01.55,46.87-.12,6.74-.29,10.53-2.82,14.3-1.65,2.45-4.89,5-11.3,10.01-2.17,1.69-5.45,2.25-5.65,4.29,1.24,7.41,13.46,5.09,16.95,4.29,3.97-.27,20.14-5.73,24.01-17.16,0,0,0-62.9,0-62.9.6-6.77,3.02-11.1,7.06-15.72v82.91c.38,1.43.69,3.52,0,5.72-1.79,4.41-11.58,13.07-9.89,14.3,2.05,8.67,15.37,1.22,22.6-5.72,2.02-.66,10.43-15,9.89-21.44,0,0,0-75.58,0-75.58l8.47.07v75.95c-.53,6.45,7.85,20.78,9.89,21.44,7.23,6.94,20.54,14.39,22.6,5.72,1.68-1.25-8.09-9.86-9.89-14.3-.69-2.2-.38-4.28,0-5.72v-82.91c4.02,4.58,6.47,8.98,7.06,15.73,0,0,0,62.9,0,62.9.29.68.74,1.7,1.41,2.86,7.51,12.84,29.67,19.06,38.14,12.87,3.8-3.57-.74-5-4.24-7.15-12.02-9.5-14-9.99-14.12-24.3-2.77-42.29,10.09-67.44-15.54-92.92l.03-.57h7.61c-.11-.15-.22-.3-.34-.45,58.8-15.84,101.06-59.39,101.06-110.67Z"/>
    <path class="cls-1" d="M145.67,304.74c-.23-.12-.46-.25-.69-.38.23.13.46.26.69.38Z"/>
    <path class="cls-1" d="M142.01,302.53c-.26-.18-.53-.37-.79-.56.26.19.53.38.79.56Z"/>
    <path class="cls-1" d="M157.1,308.7c-.23-.04-.46-.1-.69-.14.23.05.46.1.69.14Z"/>
    <path class="cls-1" d="M143.22,303.33c-.25-.16-.5-.33-.76-.49.25.17.5.33.76.49Z"/>
    <path class="cls-1" d="M166.23,309.71c-.21,0-.41-.02-.62-.03.21,0,.41.02.62.03Z"/>
    <path class="cls-1" d="M172.74,309.72c-.19,0-.37,0-.56.01.19,0,.37,0,.56-.01Z"/>
    <path class="cls-1" d="M174.03,309.68c-.18,0-.35.01-.53.02.18,0,.35-.01.53-.02Z"/>
    <path class="cls-1" d="M175.31,309.62c-.16,0-.32.01-.48.02.16,0,.32-.01.48-.02Z"/>
    <path class="cls-1" d="M171.44,309.75c-.2,0-.4,0-.6,0,.2,0,.4,0,.6,0Z"/>
    <path class="cls-1" d="M177.86,309.49c-.13,0-.25.01-.38.02.13,0,.25-.01.38-.02Z"/>
    <path class="cls-1" d="M179.11,309.42c-.09,0-.19.01-.28.02.09,0,.19-.01.28-.02Z"/>
    <path class="cls-1" d="M176.13,309.59c.15,0,.31-.01.46-.02-.15,0-.31.02-.46.02Z"/>
    <path class="cls-1" d="M169.53,309.77c.2,0,.41,0,.61,0-.2,0-.41,0-.61,0Z"/>
    <path class="cls-1" d="M167.54,309.74c-.21,0-.42-.01-.63-.02.21,0,.42.01.63.02Z"/>
    <path class="cls-1" d="M161,309.3c-.22-.03-.44-.06-.67-.09.22.03.44.06.67.09Z"/>
    <path class="cls-1" d="M168.84,309.76c-.21,0-.41,0-.62,0,.21,0,.41,0,.62,0Z"/>
    <path class="cls-1" d="M162.31,309.44c-.22-.02-.43-.05-.65-.07.22.02.43.05.65.07Z"/>
    <path class="cls-1" d="M159.7,309.13c-.23-.03-.45-.07-.67-.1.22.03.45.07.67.1Z"/>
    <path class="cls-1" d="M158.4,308.93c-.22-.04-.45-.08-.67-.12.22.04.45.08.67.12Z"/>
    <path class="cls-1" d="M163.62,309.56c-.21-.02-.43-.04-.64-.05.21.02.43.04.64.05Z"/>
    <path class="cls-1" d="M164.92,309.64c-.21-.01-.42-.03-.63-.04.21.01.42.03.63.04Z"/>
  </g>
  <g>
    <path class="cls-2" d="M104.69,93.94l39.28-22.96c6.36-3.72,6.36-13,0-16.72l-39.28-22.96c-6.36-3.72-14.31.93-14.31,8.36v45.91c0,7.43,7.95,12.08,14.31,8.36Z"/>
    <path class="cls-2" d="M313.31,70.98l39.28,22.96c6.36,3.72,14.31-.93,14.31-8.36v-45.91c0-7.43-7.95-12.08-14.31-8.36l-39.28,22.96c-6.36,3.72-6.36,13,0,16.72Z"/>
  </g>
  <path class="cls-2" d="M171.33,309.35c-13.43.83-28.14,1.43-40.69-8.57-7.95-6.99-5.37-12.34-16.14-23.76-4.5-4.77-8.36-8.76-14.67-10.39-9.1-2.36-20.89.8-22.01,5.94-1.42,6.55,15.87,9.86,29.34,29.7,7.01,10.32,5.66,14.33,10.27,20.79,6.15,8.61,19.37,16.62,49.95,15.7-.28-10.74.29-20.3,3.94-29.4Z"/>
</svg>