<?xml version="1.0" encoding="UTF-8"?>
<svg id="_50" data-name="50" xmlns="http://www.w3.org/2000/svg" viewBox="0 0 460 460">
  <defs>
    <style>
      .cls-1 {
        fill: #c33669;
        isolation: isolate;
        opacity: .5;
      }

      .cls-1, .cls-2, .cls-3 {
        stroke-width: 0px;
      }

      .cls-2 {
        fill: none;
      }

      .cls-3 {
        fill: #2a2e3d;
      }
    </style>
  </defs>
  <rect class="cls-2" x="31.34" y="40" width="400" height="400"/>
  <g>
    <path class="cls-1" d="M230,30c110.46,0,200,89.54,200,200s-89.54,200-200,200S30,340.46,30,230,119.54,30,230,30"/>
    <path class="cls-3" d="M268.41,102.48l-96.13,72.1c-13.38,10.03-21.26,25.79-21.25,42.5v120.17c0,20.87,23.84,32.8,40.56,20.27l96.13-72.1c13.38-10.02,21.26-25.79,21.25-42.5v-120.17c-.03-20.88-23.87-32.82-40.56-20.28M212.11,265.77c-19.77-9.88-27.77-33.9-17.89-53.66,9.88-19.77,33.9-27.77,53.67-17.89,19.77,9.88,27.77,33.9,17.89,53.67-9.88,19.77-33.9,27.77-53.66,17.89"/>
  </g>
</svg>