<?xml version="1.0" encoding="UTF-8"?>
<svg id="_50" data-name="50" xmlns="http://www.w3.org/2000/svg" viewBox="0 0 460 460">
  <defs>
    <style>
      .cls-1 {
        fill: #c33669;
        isolation: isolate;
        opacity: .5;
      }

      .cls-1, .cls-2 {
        stroke-width: 0px;
      }

      .cls-2 {
        fill: #2a2e3d;
      }
    </style>
  </defs>
  <path class="cls-1" d="M377.28,117.06h-100.85v-50.66c0-7.24-5.72-13.17-12.72-13.17h-72.05c-6.99,0-12.72,5.93-12.72,13.17v50.66h-96.23c-6.99,0-12.72,5.93-12.72,13.17v265.62c0,7.24,5.72,13.17,12.72,13.17h294.57c6.99,0,12.72-5.93,12.72-13.17V130.23c0-7.24-5.72-13.17-12.72-13.17Z"/>
  <path class="cls-2" d="M294.73,430h-122.53v-116.35c0-17.52,13.72-31.73,30.63-31.73h61.26c16.91,0,30.63,14.22,30.63,31.73v116.35Z"/>
  <path class="cls-2" d="M267.64,30h-81.88c-15.01,0-27.29,12.72-27.29,28.27v84.82c0,15.55,12.28,28.27,27.29,28.27h81.88c15.01,0,27.29-12.72,27.29-28.27V58.27c0-15.55-12.28-28.27-27.29-28.27ZM253.99,114.82h-13.65v14.14c0,7.77-6.14,14.14-13.65,14.14s-13.65-6.36-13.65-14.14v-14.14h-13.65c-7.51,0-13.65-6.36-13.65-14.14s6.14-14.14,13.65-14.14h13.65v-14.14c0-7.77,6.14-14.14,13.65-14.14s13.65,6.36,13.65,14.14v14.14h13.65c7.51,0,13.65,6.36,13.65,14.14s-6.14,14.14-13.65,14.14Z"/>
</svg>