<?xml version="1.0" encoding="UTF-8"?>
<svg id="_50" data-name="50" xmlns="http://www.w3.org/2000/svg" viewBox="0 0 460 460">
  <defs>
    <style>
      .cls-1 {
        fill: #c33669;
        isolation: isolate;
        opacity: .5;
      }

      .cls-1, .cls-2 {
        stroke-width: 0px;
      }

      .cls-2 {
        fill: #2a2e3d;
      }
    </style>
  </defs>
  <path class="cls-2" d="M377.69,70H82.31c-28.77,0-52.31,23.54-52.31,52.31v215.38c0,28.77,23.54,52.31,52.31,52.31h295.38c28.77,0,52.31-23.54,52.31-52.31V122.31c0-28.77-23.54-52.31-52.31-52.31ZM330,110c22.1,0,40,17.9,40,40s-17.9,40-40,40-40-17.9-40-40,17.9-40,40-40ZM370,330H90c-11.04,0-20-9.04-20-20,0-52.76,36-160,76-160s67.14,114,116,114c39.04,0,63.76-16,80-16s48,34.72,48,62c0,11.12-8.96,20-20,20Z"/>
  <path class="cls-1" d="M370,150c0,22.1-17.9,40-40,40s-40-17.9-40-40,17.9-40,40-40,40,17.9,40,40Z"/>
  <path class="cls-1" d="M390,310c0,11.12-8.96,20-20,20H90c-11.04,0-20-9.04-20-20,0-52.76,36-160,76-160s67.14,114,116,114c39.04,0,63.76-16,80-16s48,34.72,48,62Z"/>
</svg>