<?xml version="1.0" encoding="UTF-8"?>
<svg id="_50" data-name="50" xmlns="http://www.w3.org/2000/svg" viewBox="0 0 460 460">
  <defs>
    <style>
      .cls-1 {
        fill: #c33669;
        isolation: isolate;
        opacity: .5;
      }

      .cls-1, .cls-2 {
        stroke-width: 0px;
      }

      .cls-2 {
        fill: #2a2e3d;
      }
    </style>
  </defs>
  <g>
    <path class="cls-1" d="M128.96,320.75c10.54,8.75,15.85,21.38,15.66,34.09-.15,10.57,6.74,20.09,16.74,23.56,17.84,6.17,36.75,9.48,55.98,9.6,11.01.07,20.35-7.27,24.09-17.62,4.22-11.61,13.28-21.33,25.78-25.94,12.53-4.62,25.71-3.11,36.48,2.98,9.59,5.4,21.47,4.95,29.77-2.25,14.53-12.6,26.75-27.36,36.3-43.63,5.37-9.13,4.39-20.8-2.61-28.76-8.42-9.53-12.6-22.55-10.29-36.07,2.32-13.55,10.68-24.48,21.85-30.66,9.12-5.06,14.04-15.55,12.11-25.81-1.71-9.37-4.26-18.68-7.67-27.9-3.41-9.23-7.53-17.96-12.28-26.2-5.21-9.02-15.76-13.83-26-11.75-12.49,2.54-25.95-.34-36.56-9.12-10.54-8.75-15.85-21.38-15.66-34.09.15-10.57-6.74-20.09-16.74-23.56-17.84-6.17-36.75-9.48-55.98-9.6-11.01-.07-20.35,7.27-24.09,17.62-4.25,11.62-13.28,21.33-25.81,25.95-12.53,4.62-25.71,3.11-36.48-2.98-9.59-5.4-21.47-4.95-29.77,2.25-14.53,12.6-26.75,27.36-36.3,43.63-5.37,9.13-4.39,20.8,2.61,28.76,8.42,9.53,12.6,22.55,10.29,36.07-2.32,13.55-10.68,24.48-21.85,30.66-9.12,5.06-14.04,15.55-12.11,25.81,1.73,9.36,4.29,18.67,7.7,27.89,3.41,9.23,7.53,17.96,12.28,26.2,5.21,9.02,15.76,13.83,26,11.75,12.49-2.54,25.98.33,36.56,9.12Z"/>
    <path class="cls-2" d="M281.9,189.66c-12.91-34.91-51.69-52.74-86.64-39.85-34.95,12.89-52.81,51.62-39.91,86.52,12.91,34.91,51.69,52.74,86.64,39.85,34.95-12.89,52.81-51.62,39.91-86.52Z"/>
  </g>
  <path class="cls-2" d="M420.13,269.52c-7.83-7.82-20.52-7.82-28.35,0l-71.77,71.67-39.45-14.33c-3.94-1.43-8.04-1.55-11.82-.58-4.64.33-9.18,2.25-12.73,5.8l-71.84,71.75c-7.83,7.82-7.83,20.5,0,28.31,3.91,3.91,9.05,5.86,14.18,5.86s10.26-1.95,14.18-5.86l64.16-64.08,41.65,15.13c2.26.82,4.58,1.21,6.85,1.21,5.67,0,11.1-2.42,14.89-6.61l80.06-79.96c7.83-7.82,7.83-20.5,0-28.31Z"/>
</svg>