<?xml version="1.0" encoding="UTF-8"?>
<svg id="_50" data-name="50" xmlns="http://www.w3.org/2000/svg" viewBox="0 0 460 460">
  <defs>
    <style>
      .cls-1 {
        fill: #c33669;
        isolation: isolate;
        opacity: .5;
      }

      .cls-1, .cls-2 {
        stroke-width: 0px;
      }

      .cls-2 {
        fill: #2a2e3d;
      }
    </style>
  </defs>
  <path class="cls-2" d="M275.24,70.47c.51-5.7-1.41-11.58-5.77-15.95-4.13-4.13-9.6-6.05-15.01-5.82-.4-.02-.8-.06-1.21-.06h-57.92c-11.05,0-20,8.96-20,20s8.96,20,20,20h11.73L63.86,231.86c-7.81,7.81-7.81,20.47,0,28.29,3.91,3.91,9.02,5.86,14.14,5.86s10.24-1.95,14.14-5.86L235.31,116.97l.02,11.71c.01,11.04,8.97,19.97,20,19.97h.03c11.05-.01,19.99-8.98,19.97-20.03l-.08-58c0-.05,0-.1,0-.15Z"/>
  <path class="cls-1" d="M430,42c0-6.6-5.4-12-12-12h-41.99c-6.6,0-12,5.4-12,12v59.95h-24.93c-11.18,0-20.25,8.55-20.25,19.09v57.63h-68.62c-11.18,0-20.25,8.55-20.25,19.09v64.69h-68.62c-11.18,0-20.25,8.55-20.25,19.09v64.69h-66.65c-24.55,0-44.44,18.75-44.44,41.89s19.88,41.89,44.44,41.89h313.01c23.46,0,42.47-17.92,42.47-40.04V111.35c.05-.44.08-.89.08-1.35V42Z"/>
</svg>