<svg data-name="50" version="1.1" viewBox="0 0 460 460" xmlns="http://www.w3.org/2000/svg">
 <defs>
  <style>.cls-1 {
        fill: #c33669;
        isolation: isolate;
        opacity: .5;
      }

      .cls-1, .cls-2 {
        stroke-width: 0px;
      }

      .cls-2 {
        fill: #2a2e3d;
      }</style>
 </defs>
 <path class="cls-1" d="m230 30a200 200 0 0 0-200 200 200 200 0 0 0 200 200 200 200 0 0 0 200-200 200 200 0 0 0-200-200zm0 46.705a156.22 153.29 0 0 1 156.22 153.29 156.22 153.29 0 0 1-156.22 153.29 156.22 153.29 0 0 1-156.22-153.29 156.22 153.29 0 0 1 156.22-153.29z" style="display:none"/>
 <circle class="cls-1" cx="230" cy="230" r="200"/>
 <path d="m230 182.75c-30.376 0-55.029 24.649-55.029 55.025v137.21c0 30.376 24.653 55.029 55.029 55.029 30.376 0 55.029-24.653 55.029-55.029v-137.21c0-30.376-24.653-55.025-55.029-55.025z" style="fill:#2a2e3d;stroke-width:0px"/>
 <circle class="cls-2" cx="230" cy="85.187" r="55.029" style="fill:#2a2e3d;stroke-width:0px"/>
 <g transform="translate(-8.8658 18.046)" style="display:none">
  <g transform="translate(-1.2723 23.59)">
   <path d="m270.72 203.96c-3.7107 0.75556-7.4214 1.5109-11.133 2.2637-9.5513 1.8335-19.063 3.84-28.521 6.1016-6.0472 1.4741-12.057 3.1273-18.004 4.9648-1.1684 0.38212-2.3416 0.74883-3.5137 1.1191v71.828c0 16.883 13.703 30.586 30.586 30.586s30.586-13.703 30.586-30.586z" style="fill:#2a2e3d;stroke-width:0px"/>
   <path d="m240.14 148.72c-16.883 0-30.586 13.701-30.586 30.584v57.883c5.4167-1.6126 10.864-3.1291 16.355-4.459 9.7075-2.3194 19.467-4.3863 29.27-6.2676 5.1831-1.0511 10.364-2.1116 15.547-3.1641v-43.992c0-16.883-13.703-30.584-30.586-30.584z" style="fill:#2a2e3d;stroke-width:0px"/>
   <circle class="cls-2" cx="240.14" cy="94.494" r="30.586"/>
  </g>
 </g>
</svg>
