<?xml version="1.0" encoding="UTF-8"?>
<svg id="_50" data-name="50" xmlns="http://www.w3.org/2000/svg" viewBox="0 0 460 460">
  <defs>
    <style>
      .cls-1 {
        fill: #c33669;
        isolation: isolate;
        opacity: .5;
      }

      .cls-1, .cls-2 {
        stroke-width: 0px;
      }

      .cls-2 {
        fill: #2a2e3d;
      }
    </style>
  </defs>
  <g>
    <path class="cls-1" d="M122.31,398.21l-65.2,22.45c-13.14,4.53-27.11-4.51-27.11-17.54V125.13c0-7.83,5.24-14.83,13.13-17.54l79.18-27.27v317.89Z"/>
    <polygon class="cls-2" points="122.31 398.21 214.62 430 214.62 112.11 122.31 80.32 122.31 398.21"/>
    <path class="cls-1" d="M214.62,112.11h139.86c9.67,0,17.53,7.85,17.53,17.53v282.83c0,9.67-7.85,17.53-17.53,17.53h-139.86V112.11h0Z"/>
  </g>
  <path class="cls-2" d="M354.67,30.01c-40.73.58-73.17,33.48-73.17,74.18,0,11.29,2.52,21.98,7.04,31.55.29.63.59,1.25.91,1.88.96,1.89,1.99,3.74,3.12,5.54l27.69,49.23,14.44,24.38c9.4,15.87,32.44,15.75,41.67-.23l41.02-70.98c1.9-2.81,3.61-5.77,5.11-8.84.16-.32.32-.65.46-.98,4.52-9.57,7.04-20.26,7.04-31.55,0-41.33-33.83-74.76-75.33-74.17ZM355.75,141.7c-7.48,0-14.46-2.19-20.31-5.97-10.78-6.93-17.78-19.24-17.21-33.13.8-19.4,16.64-35.17,36.06-35.9,21.4-.81,39.01,16.29,39.01,37.49,0,13.24-6.87,24.88-17.24,31.55-5.85,3.78-12.83,5.97-20.31,5.97Z"/>
</svg>