<?xml version="1.0" encoding="UTF-8"?>
<svg id="_50" data-name="50" xmlns="http://www.w3.org/2000/svg" viewBox="0 0 460 460">
  <defs>
    <style>
      .cls-1 {
        fill: #c33669;
        isolation: isolate;
        opacity: .5;
      }

      .cls-1, .cls-2 {
        stroke-width: 0px;
      }

      .cls-2 {
        fill: #2a2e3d;
      }
    </style>
  </defs>
  <g>
    <path class="cls-1" d="M375.37,408.8H78.38c-28.44,0-51.5-23.23-51.5-51.89V115.68h348.5c28.44,0,51.5,23.23,51.5,51.89v189.32c0,28.66-23.06,51.89-51.5,51.89"/>
    <path class="cls-2" d="M174.88,115.68H26.88v-29.35c0-19.83,14.56-35.87,32.56-35.87h63.85c13.44,0,25.72,8.35,31.76,21.62l19.83,43.6Z"/>
  </g>
  <path class="cls-2" d="M238.17,183.46c-36.02,0-65.23,29.23-65.23,65.29,0,15.03,5.08,28.87,13.6,39.91l-34.64,34.67c-3.21,3.21-3.21,8.41,0,11.62h0c3.21,3.21,8.4,3.21,11.61,0l34.62-34.65c11.05,8.61,24.95,13.75,40.04,13.75,36.02,0,65.23-29.23,65.23-65.3s-29.21-65.29-65.23-65.29ZM273.41,284.05c-9.41,9.42-21.93,14.61-35.24,14.61s-25.82-5.19-35.24-14.61c-9.42-9.43-14.61-21.96-14.61-35.29s5.19-25.87,14.61-35.29c9.41-9.42,21.93-14.61,35.24-14.61s25.82,5.19,35.24,14.61c9.42,9.43,14.61,21.96,14.61,35.29s-5.19,25.87-14.61,35.29Z"/>
</svg>