<?xml version="1.0" encoding="UTF-8"?>
<svg id="_50" data-name="50" xmlns="http://www.w3.org/2000/svg" viewBox="0 0 460 460">
  <defs>
    <style>
      .cls-1 {
        fill: #c33669;
        isolation: isolate;
        opacity: .5;
      }

      .cls-1, .cls-2 {
        stroke-width: 0px;
      }

      .cls-2 {
        fill: #2a2e3d;
      }
    </style>
  </defs>
  <path class="cls-1" d="M96.33,118.44h-44.22c-12.2,0-22.11-9.91-22.11-22.11v-44.22c0-12.2,9.91-22.11,22.11-22.11h44.22c12.21,0,22.11,9.91,22.11,22.11v44.22c0,12.2-9.91,22.11-22.11,22.11"/>
  <path class="cls-2" d="M249.12,118.44h-44.22c-12.21,0-22.11-9.91-22.11-22.11v-44.22c0-12.2,9.91-22.11,22.11-22.11h44.22c12.21,0,22.11,9.91,22.11,22.11v44.22c0,12.2-9.91,22.11-22.11,22.11"/>
  <path class="cls-1" d="M407.89,118.44h-44.22c-12.2,0-22.11-9.91-22.11-22.11v-44.22c0-12.2,9.91-22.11,22.11-22.11h44.22c12.21,0,22.11,9.91,22.11,22.11v44.22c0,12.2-9.91,22.11-22.11,22.11"/>
  <path class="cls-2" d="M96.33,273.22h-44.22c-12.2,0-22.11-9.91-22.11-22.11v-44.22c0-12.2,9.91-22.11,22.11-22.11h44.22c12.21,0,22.11,9.91,22.11,22.11v44.22c0,12.2-9.91,22.11-22.11,22.11"/>
  <path class="cls-1" d="M251.11,273.22h-44.22c-12.21,0-22.11-9.91-22.11-22.11v-44.22c0-12.2,9.91-22.11,22.11-22.11h44.22c12.21,0,22.11,9.91,22.11,22.11v44.22c0,12.2-9.91,22.11-22.11,22.11"/>
  <path class="cls-2" d="M405.9,273.22h-44.22c-12.2,0-22.11-9.91-22.11-22.11v-44.22c0-12.2,9.91-22.11,22.11-22.11h44.22c12.21,0,22.11,9.91,22.11,22.11v44.22c0,12.2-9.91,22.11-22.11,22.11"/>
  <path class="cls-1" d="M96.33,430h-44.22c-12.2,0-22.11-9.91-22.11-22.11v-44.22c0-12.2,9.91-22.11,22.11-22.11h44.22c12.21,0,22.11,9.91,22.11,22.11v44.22c0,12.2-9.91,22.11-22.11,22.11"/>
  <path class="cls-2" d="M249.12,430h-44.22c-12.21,0-22.11-9.91-22.11-22.11v-44.22c0-12.2,9.91-22.11,22.11-22.11h44.22c12.21,0,22.11,9.91,22.11,22.11v44.22c0,12.2-9.91,22.11-22.11,22.11"/>
  <path class="cls-1" d="M405.9,430h-44.22c-12.2,0-22.11-9.91-22.11-22.11v-44.22c0-12.2,9.91-22.11,22.11-22.11h44.22c12.21,0,22.11,9.91,22.11,22.11v44.22c0,12.2-9.91,22.11-22.11,22.11"/>
</svg>