<?xml version="1.0" encoding="UTF-8"?>
<svg id="_50" data-name="50" xmlns="http://www.w3.org/2000/svg" viewBox="0 0 460 460">
  <defs>
    <style>
      .cls-1 {
        fill: #c33669;
        isolation: isolate;
        opacity: .5;
      }

      .cls-1, .cls-2 {
        stroke-width: 0px;
      }

      .cls-2 {
        fill: #2a2e3d;
      }
    </style>
  </defs>
  <path class="cls-2" d="M386,307v56.33h-40v-56.33c0-11.05,8.95-20,20-20s20,8.95,20,20Z"/>
  <path class="cls-2" d="M318,333v30.33h-40v-30.33c0-11.05,8.95-20,20-20s20,8.95,20,20Z"/>
  <path class="cls-2" d="M250,307v56.33h-40v-56.33c0-11.05,8.95-20,20-20s20,8.95,20,20Z"/>
  <path class="cls-2" d="M182,333v30.33h-40v-30.33c0-11.05,8.95-20,20-20s20,8.95,20,20Z"/>
  <path class="cls-2" d="M114,307v56.33h-40v-56.33c0-11.05,8.95-20,20-20s20,8.95,20,20Z"/>
  <path class="cls-1" d="M422.31,263.33h-25.64c0-91.9-74.77-166.66-166.67-166.66S63.33,171.43,63.33,263.33h-25.64c-4.24,0-7.69,3.45-7.69,7.69v84.62c0,4.25,3.45,7.69,7.69,7.69h36.31v-56.33c0-11.05,8.95-20,20-20s20,8.95,20,20v56.33h28v-30.33c0-11.05,8.95-20,20-20s20,8.95,20,20v30.33h28v-56.33c0-11.05,8.95-20,20-20s20,8.95,20,20v56.33h28v-30.33c0-11.05,8.95-20,20-20s20,8.95,20,20v30.33h28v-56.33c0-11.05,8.95-20,20-20s20,8.95,20,20v56.33h36.31c4.25,0,7.69-3.44,7.69-7.69v-84.62c0-4.24-3.44-7.69-7.69-7.69ZM246.67,263.33c0-.11-33.34-.11-33.34,0h-66.66c0-45.95,37.38-83.33,83.33-83.33s83.33,37.38,83.33,83.33h-66.66Z"/>
</svg>