<?xml version="1.0" encoding="UTF-8"?>
<svg id="_50" data-name="50" xmlns="http://www.w3.org/2000/svg" viewBox="0 0 460 460">
  <defs>
    <style>
      .cls-1 {
        fill: #c33669;
        isolation: isolate;
        opacity: .5;
      }

      .cls-1, .cls-2 {
        stroke-width: 0px;
      }

      .cls-2 {
        fill: #2a2e3d;
      }
    </style>
  </defs>
  <circle class="cls-1" cx="230" cy="230" r="200"/>
  <path class="cls-2" d="M230,30C119.54,30,30,119.54,30,230s89.54,200,200,200,200-89.54,200-200S340.46,30,230,30ZM388.77,210h-74.19c-2.18-51.56-12.68-97.35-28.29-129.85,21.1,7.91,40.44,20.31,56.85,36.72,25.45,25.45,41.27,57.97,45.63,93.14ZM230,389.81c-3.61-1.82-15.07-11.85-26.12-41.1-10.33-27.32-16.71-61.81-18.42-98.71h89.08c-1.7,36.9-8.09,71.38-18.42,98.71-11.05,29.25-22.52,39.28-26.12,41.1ZM185.46,210c1.7-36.9,8.09-71.38,18.42-98.71,11.05-29.25,22.52-39.28,26.12-41.1,3.61,1.82,15.07,11.85,26.12,41.1,10.33,27.32,16.71,61.81,18.42,98.71h-89.08ZM116.86,116.86c16.41-16.41,35.76-28.8,56.85-36.72-15.62,32.5-26.12,78.29-28.29,129.85h-74.19c4.36-35.16,20.18-67.68,45.63-93.14ZM71.23,250h74.19c2.18,51.56,12.68,97.36,28.29,129.85-21.1-7.91-40.44-20.31-56.85-36.72-25.45-25.45-41.27-57.97-45.63-93.14ZM343.14,343.14c-16.41,16.41-35.76,28.8-56.85,36.72,15.62-32.5,26.12-78.29,28.29-129.85h74.19c-4.36,35.16-20.18,67.68-45.63,93.14Z"/>
</svg>