<?xml version="1.0" encoding="UTF-8"?>
<svg id="_50" data-name="50" xmlns="http://www.w3.org/2000/svg" viewBox="0 0 460 460">
  <defs>
    <style>
      .cls-1 {
        fill: #c33669;
        isolation: isolate;
        opacity: .5;
      }

      .cls-1, .cls-2 {
        stroke-width: 0px;
      }

      .cls-2 {
        fill: #2a2e3d;
      }
    </style>
  </defs>
  <path class="cls-2" d="M115.19,200.86c-2.12.55-4.18,1.22-6.2,2,2.03-.78,4.11-1.44,6.24-2h-.04Z"/>
  <path class="cls-2" d="M429.26,181.48c0,39.2-31.85,71.09-71.01,71.09h-177.43l-79.82-.18c-17.13,0-31.05,13.95-31.05,31.09s13.92,31.09,31.05,31.09h224.34c-2.09,5.75-3.23,11.96-3.23,18.43,0,7.67,1.6,14.96,4.47,21.57H101.01c-39.16,0-71.01-31.89-71.01-71.09s31.85-71.09,71.01-71.09h177.43l79.82.18c17.13,0,31.05-13.95,31.05-31.09s-13.92-31.09-31.05-31.09h-225.22c3.4-7.08,5.3-15.01,5.3-23.39,0-5.79-.91-11.38-2.61-16.61h222.52c39.15,0,71.01,31.89,71.01,71.09Z"/>
  <path class="cls-1" d="M135.73,110.39c-6.99-21.69-27.33-37.39-51.33-37.39-29.79,0-53.94,24.18-53.94,54s24.15,54,53.94,54c21.42,0,39.92-12.5,48.63-30.61,3.4-7.08,5.3-15.01,5.3-23.39,0-5.79-.91-11.38-2.61-16.61Z"/>
  <path class="cls-1" d="M430,333c0,29.82-24.15,54-53.94,54-22.12,0-41.14-13.34-49.46-32.43-2.88-6.61-4.47-13.9-4.47-21.57,0-6.47,1.14-12.68,3.23-18.43,7.52-20.75,27.39-35.57,50.71-35.57,29.79,0,53.94,24.18,53.94,54Z"/>
</svg>