<?xml version="1.0" encoding="UTF-8"?>
<svg id="_50" data-name="50" xmlns="http://www.w3.org/2000/svg" viewBox="0 0 460 460">
  <defs>
    <style>
      .cls-1 {
        fill: #c33669;
        isolation: isolate;
        opacity: .5;
      }

      .cls-1, .cls-2 {
        stroke-width: 0px;
      }

      .cls-2 {
        fill: #2a2e3d;
      }
    </style>
  </defs>
  <g>
    <path class="cls-1" d="M212,318c0,60.75,49.25,110,110,110,19.85,0,38.47-5.26,54.55-14.46l-150.09-150.09c-9.2,16.08-14.46,34.7-14.46,54.55Z"/>
    <path class="cls-1" d="M432,318c0-60.75-49.25-110-110-110-26.41,0-50.64,9.31-69.6,24.82l154.78,154.78c15.51-18.96,24.82-43.19,24.82-69.6Z"/>
    <path class="cls-2" d="M407.18,387.6l-154.78-154.78c-10.41,8.51-19.22,18.89-25.94,30.63l150.09,150.09c11.74-6.72,22.12-15.53,30.63-25.94Z"/>
  </g>
  <g>
    <path class="cls-1" d="M254,231.57v-88.57c0-61.05-49.95-111-111-111s-111,49.95-111,111v89h221.45c.18-.15.37-.29.55-.43Z"/>
    <path class="cls-2" d="M226.46,263.45c6.72-11.74,15.53-22.12,25.94-30.63.34-.28.7-.54,1.04-.82H32v89c0,61.05,49.95,111,111,111,37.63,0,71.03-18.98,91.13-47.83-13.89-18.41-22.13-41.33-22.13-66.17,0-19.85,5.26-38.47,14.46-54.55Z"/>
    <path class="cls-2" d="M254,232v-.43c-.18.15-.37.29-.55.43h.55Z"/>
  </g>
</svg>