<?xml version="1.0" encoding="UTF-8" standalone="no"?>
<svg
   id="_50"
   data-name="50"
   viewBox="0 0 460 460"
   version="1.1"
   xmlns="http://www.w3.org/2000/svg"
   xmlns:svg="http://www.w3.org/2000/svg">
  <defs
     id="defs4">
    <style
       id="style2">
      .cls-1 {
        fill: #c33669;
        isolation: isolate;
        opacity: .5;
      }

      .cls-1, .cls-2 {
        stroke-width: 0px;
      }

      .cls-2 {
        fill: #2a2e3d;
      }
    </style>
  </defs>
  <path
     style="fill:#c3366a;fill-opacity:0.50196081;stroke:#222836;stroke-width:0.133;stroke-linecap:round;stroke-linejoin:round;stop-color:#000000"
     d="m 213.32852,258.08422 c -15.43165,-3.35608 -27.66098,-10.21685 -39.83252,-22.34645 -17.42967,-17.36959 -24.66716,-35.83933 -23.61496,-60.26428 0.80089,-18.59132 6.29328,-33.01178 17.96088,-47.15696 10.15725,-12.31413 21.66525,-20.14224 37.85544,-25.75053 9.3349,-3.233613 10.60874,-3.410282 24.39573,-3.383367 13.63018,0.02665 15.15859,0.238721 24.26218,3.367017 13.1406,4.51556 22.92556,10.45239 31.80355,19.29615 8.68303,8.64956 14.06112,16.51373 18.26498,26.70822 21.8641,53.02101 -17.52503,111.42922 -74.85023,110.99177 -5.42898,-0.0414 -12.73925,-0.69913 -16.24505,-1.46157 z"
     id="path9057" />
  <path
     class="cls-2"
     d="M 227.81642,29.243109 C 145.46721,30.415771 79.87899,96.934037 79.87899,179.22259 c 0,22.82648 5.09501,44.43987 14.233689,63.7888 0.58633,1.27375 1.19288,2.52729 1.83987,3.80104 1.94096,3.82126 4.02344,7.56165 6.308111,11.20095 l 55.98453,99.53478 29.19525,49.29226 c 19.00522,32.08647 65.58822,31.84385 84.24973,-0.46502 l 82.93554,-143.50962 c 3.84148,-5.68135 7.29881,-11.66597 10.33156,-17.873 0.32349,-0.64698 0.64699,-1.31419 0.93004,-1.98139 9.13868,-19.34893 14.2337,-40.96232 14.2337,-63.7888 0,-83.562307 -68.39857,-151.152144 -152.30459,-149.959263 z M 230,255.0615 c -15.12331,0 -29.23569,-4.42781 -41.06341,-12.07033 -21.79534,-14.0113 -35.94817,-38.90005 -34.79572,-66.98329 1.61746,-39.22354 33.64328,-71.10782 72.90725,-72.58376 43.2672,-1.63768 78.87166,32.93564 78.87166,75.79847 0,26.76906 -13.88998,50.30318 -34.85638,63.7888 -11.82772,7.64252 -25.9401,12.07033 -41.0634,12.07033 z"
     id="path14-3"
     style="fill:#2a2e3d;stroke-width:0px" />
</svg>
