<?xml version="1.0" encoding="UTF-8"?>
<svg id="_50" data-name="50" xmlns="http://www.w3.org/2000/svg" viewBox="0 0 460 460">
  <defs>
    <style>
      .cls-1 {
        fill: #c33669;
        isolation: isolate;
        opacity: .5;
      }

      .cls-1, .cls-2 {
        stroke-width: 0px;
      }

      .cls-2 {
        fill: #2a2e3d;
      }
    </style>
  </defs>
  <g>
    <path class="cls-1" d="M137.79,363.12c-4.16,0-8.35-1.36-11.85-4.15-19.71-15.69-35.83-35.97-46.63-58.67-11.17-23.47-16.68-49.7-15.95-75.85.29-10.33,8.76-18.51,19.03-18.51.18,0,.36,0,.55,0,10.52.3,18.8,9.06,18.5,19.58-1.14,40.56,16.43,78.33,48.22,103.64,8.23,6.55,9.59,18.54,3.04,26.77-3.76,4.72-9.31,7.18-14.91,7.18Z"/>
    <path class="cls-1" d="M114.09,156.55c-4.17,0-8.36-1.36-11.87-4.16-8.22-6.57-9.56-18.55-3-26.77,16.32-20.44,37.47-36.9,61.16-47.61,22.9-10.35,48.31-15.43,73.49-14.68,10.52.31,18.79,9.09,18.47,19.6-.31,10.32-8.77,18.48-19.03,18.48-.19,0-.38,0-.58,0-40.63-1.21-78.43,16.28-103.75,47.99-3.76,4.71-9.3,7.16-14.9,7.16Z"/>
    <g>
      <path class="cls-1" d="M228.74,394.99c-1.36,0-2.72-.02-4.07-.05-10.52-.26-18.83-9-18.57-19.52.26-10.52,9.05-18.82,19.52-18.57,40.63,1.04,78.35-16.66,103.52-48.48,6.52-8.25,18.5-9.65,26.76-3.12,8.25,6.53,9.65,18.5,3.12,26.76-16.22,20.52-37.29,37.08-60.93,47.9-21.62,9.9-45.51,15.08-69.34,15.08Z"/>
      <path class="cls-1" d="M375.95,251.8c-.15,0-.3,0-.45,0-10.52-.24-18.84-8.97-18.6-19.49.95-40.56-16.81-78.25-48.72-103.4-8.26-6.51-9.68-18.49-3.17-26.75,6.51-8.26,18.49-9.68,26.75-3.17,19.78,15.59,36,35.8,46.91,58.44,11.28,23.42,16.92,49.62,16.31,75.77-.24,10.37-8.72,18.6-19.03,18.6Z"/>
    </g>
  </g>
  <path class="cls-2" d="M132.08,212.02l-34.36-37.8s-.02-.02-.03-.03l-.08-.08c-.2-.22-.42-.42-.64-.63-.22-.22-.42-.44-.65-.65-.01-.01-.03-.02-.04-.04-.36-.32-.73-.62-1.11-.91-.13-.1-.25-.21-.38-.31-.39-.29-.79-.54-1.19-.79-.13-.08-.26-.18-.4-.26-.35-.21-.71-.38-1.07-.56-.2-.1-.4-.22-.61-.32-.25-.11-.5-.2-.76-.31-.32-.13-.64-.28-.97-.39-.09-.03-.19-.05-.28-.08-1.66-.55-3.37-.88-5.1-.96-2.82-.14-5.67.37-8.32,1.5-.2.08-.41.15-.6.25-.23.11-.45.24-.68.36-.33.17-.67.33-.99.52-.15.09-.28.19-.43.28-.39.25-.79.49-1.16.77-.13.1-.26.21-.39.32-.37.29-.74.58-1.1.9-.01.01-.03.02-.04.03-.23.21-.42.43-.64.64-.21.21-.44.41-.64.64l-.08.08s-.02.02-.03.03l-34.36,37.8c-7.08,7.78-6.5,19.83,1.28,26.91,3.65,3.32,8.23,4.95,12.81,4.95,5.18,0,10.34-2.1,14.1-6.24l20.37-22.41,20.37,22.41c3.76,4.14,8.92,6.24,14.1,6.24,4.57,0,9.16-1.64,12.81-4.95,7.78-7.08,8.36-19.12,1.28-26.91Z"/>
  <path class="cls-2" d="M425.05,246.26c7.08-7.78,6.5-19.83-1.28-26.91-7.78-7.08-19.83-6.5-26.91,1.28l-20.37,22.41-20.37-22.41c-7.08-7.78-19.12-8.36-26.91-1.28-7.78,7.08-8.36,19.12-1.28,26.91l34.36,37.8s.02.02.03.03l.08.08c.13.15.28.27.41.41.28.29.56.59.87.87.03.03.06.05.09.08.2.18.41.34.61.51.29.24.58.48.89.71.23.17.46.32.7.47.3.2.6.4.91.58.23.14.47.26.71.39.33.17.65.34.99.49.23.11.46.21.7.3.36.15.72.28,1.08.4.22.08.44.15.67.22.39.12.78.22,1.18.31.21.05.41.1.62.14.44.09.88.15,1.33.2.17.02.34.05.51.07.61.06,1.23.09,1.84.09,0,0,0,0,0,0s0,0,0,0c.61,0,1.23-.03,1.84-.09.17-.02.34-.05.51-.07.44-.05.89-.12,1.32-.2.21-.04.41-.09.61-.14.4-.09.79-.19,1.18-.31.22-.07.44-.14.66-.22.37-.12.73-.26,1.09-.41.23-.09.46-.19.69-.3.34-.15.67-.32,1-.5.24-.12.47-.25.7-.38.31-.18.61-.38.92-.58.23-.15.46-.3.69-.47.31-.22.6-.47.89-.71.2-.17.41-.32.61-.5.03-.03.06-.05.09-.08.31-.28.58-.58.87-.87.14-.14.28-.26.41-.41l.08-.08s.02-.02.03-.03l34.36-37.8Z"/>
  <path class="cls-2" d="M213.51,376.49l22.41-20.37c7.78-7.08,8.36-19.12,1.28-26.91-7.08-7.78-19.12-8.36-26.91-1.28l-37.8,34.36s-.02.02-.03.03l-.09.08c-.23.21-.43.43-.65.65-.21.21-.43.41-.64.63-.01.01-.02.03-.03.04-.33.37-.64.75-.93,1.14-.09.12-.19.23-.28.35-.3.4-.57.82-.83,1.25-.07.12-.16.23-.23.34-.22.37-.41.75-.6,1.13-.09.18-.2.36-.28.54-.12.27-.22.55-.33.82-.12.3-.26.6-.37.91-.04.11-.06.22-.1.33-.54,1.64-.86,3.34-.94,5.05-.01.3,0,.61,0,.91,0,.3-.01.61,0,.91.08,1.71.4,3.41.95,5.06.04.11.06.22.1.33.11.31.25.61.37.91.11.27.21.55.33.82.09.18.19.36.28.54.19.38.38.76.6,1.13.07.12.15.23.22.34.26.42.53.84.83,1.25.09.12.19.23.28.34.3.39.6.77.94,1.14.01.01.02.03.03.04.13.14.28.27.41.41.29.29.56.6.87.88l37.91,34.47c3.65,3.32,8.23,4.95,12.81,4.95,5.18,0,10.34-2.1,14.1-6.24,7.08-7.78,6.5-19.83-1.28-26.91l-22.41-20.37Z"/>
  <path class="cls-2" d="M283.26,94.8c.29-.39.54-.79.8-1.2.08-.13.18-.26.26-.39.21-.35.39-.72.57-1.08.1-.2.21-.39.31-.59.12-.25.21-.52.32-.77.13-.32.27-.63.39-.96.03-.09.05-.19.08-.28.55-1.66.88-3.38.96-5.11.01-.3,0-.61,0-.91s.01-.61,0-.91c-.08-1.73-.41-3.44-.96-5.11-.03-.09-.05-.19-.08-.28-.11-.32-.26-.64-.39-.96-.11-.26-.2-.52-.32-.77-.09-.2-.21-.39-.31-.59-.18-.36-.36-.73-.57-1.08-.08-.13-.17-.26-.26-.39-.25-.41-.51-.81-.8-1.2-.1-.14-.22-.26-.32-.4-.29-.37-.58-.74-.89-1.09-.01-.01-.02-.03-.04-.04-.22-.24-.45-.45-.67-.67-.2-.2-.39-.42-.61-.61l-.08-.08s-.02-.02-.03-.03l-37.8-34.36c-7.78-7.08-19.83-6.5-26.91,1.28-7.08,7.78-6.5,19.83,1.28,26.91l22.41,20.37-22.41,20.37c-7.78,7.08-8.36,19.12-1.28,26.91,3.76,4.14,8.92,6.24,14.1,6.24,4.57,0,9.16-1.64,12.81-4.95l37.72-34.29s0,0,0,0l.19-.17c.3-.27.57-.56.84-.85.14-.15.3-.28.44-.43.01-.01.02-.03.04-.04.32-.35.61-.72.89-1.09.1-.13.22-.26.32-.4Z"/>
</svg>