<?xml version="1.0" encoding="UTF-8"?>
<svg id="_50" data-name="50" xmlns="http://www.w3.org/2000/svg" viewBox="0 0 460 460">
  <defs>
    <style>
      .cls-1 {
        fill: #c33669;
        isolation: isolate;
        opacity: .5;
      }

      .cls-1, .cls-2 {
        stroke-width: 0px;
      }

      .cls-2 {
        fill: #2a2e3d;
      }
    </style>
  </defs>
  <g>
    <rect class="cls-1" x="30" y="87.14" width="400" height="285.71" rx="50" ry="50"/>
    <ellipse class="cls-2" cx="134.55" cy="179.52" rx="40.91" ry="42.86"/>
    <path class="cls-2" d="M185.07,323.72c-9.26,0-17.57-6.46-19.55-15.88-3.79-18.02-16.31-30.6-30.43-30.6s-26.63,12.58-30.43,30.6c-2.28,10.81-12.88,17.72-23.69,15.45-10.81-2.28-17.72-12.88-15.45-23.69,7.73-36.72,36.34-62.36,69.57-62.36s61.84,25.64,69.57,62.36c2.28,10.81-4.64,21.42-15.45,23.69-1.39.29-2.78.43-4.14.43Z"/>
  </g>
  <path class="cls-2" d="M380.48,192.86h-131.43c-11.05,0-20-8.95-20-20s8.95-20,20-20h131.43c11.05,0,20,8.95,20,20s-8.95,20-20,20Z"/>
  <path class="cls-2" d="M380.48,250h-131.43c-11.05,0-20-8.95-20-20s8.95-20,20-20h131.43c11.05,0,20,8.95,20,20s-8.95,20-20,20Z"/>
  <path class="cls-2" d="M380.48,307.14h-131.43c-11.05,0-20-8.95-20-20s8.95-20,20-20h131.43c11.05,0,20,8.95,20,20s-8.95,20-20,20Z"/>
</svg>