<?xml version="1.0" encoding="UTF-8"?>
<svg id="_50" data-name="50" xmlns="http://www.w3.org/2000/svg" viewBox="0 0 460 460">
  <defs>
    <style>
      .cls-1 {
        fill: #c33669;
        isolation: isolate;
        opacity: .5;
      }

      .cls-1, .cls-2 {
        stroke-width: 0px;
      }

      .cls-2 {
        fill: #2a2e3d;
      }
    </style>
  </defs>
  <g>
    <path class="cls-1" d="M381.96,189.1h-132.86c-12.73,0-23.04-10.32-23.04-23.04V58.96h155.91c12.73,0,23.04,10.32,23.04,23.04v84.06c0,12.73-10.32,23.04-23.04,23.04Z"/>
    <path class="cls-2" d="M292.26,58.96h-66.21v-13.03c0-8.8,6.52-15.93,14.57-15.93h28.56c6.01,0,11.51,3.71,14.21,9.6l8.87,19.36Z"/>
  </g>
  <g>
    <path class="cls-1" d="M381.96,430h-132.86c-12.73,0-23.04-10.32-23.04-23.04v-107.1h155.91c12.73,0,23.04,10.32,23.04,23.04v84.06c0,12.73-10.32,23.04-23.04,23.04Z"/>
    <path class="cls-2" d="M292.26,299.86h-66.21v-13.03c0-8.8,6.52-15.93,14.57-15.93h28.56c6.01,0,11.51,3.71,14.21,9.6l8.87,19.36Z"/>
  </g>
  <path class="cls-2" d="M118.21,162.63h65.74c11.63,0,21.05-9.43,21.05-21.05h0c0-11.63-9.43-21.05-21.05-21.05h-65.74c-11.65,0-21.1-9.45-21.1-21.1v-47.82c0-11.44-8.9-21.21-20.33-21.59-11.96-.4-21.77,9.17-21.77,21.04v336.79c0,11.65,9.45,21.1,21.1,21.1,0,0,26.47,0,52.58-.03v.03h55.26c11.63,0,21.05-9.43,21.05-21.05h0c0-11.63-9.43-21.05-21.05-21.05h-55.26c-6.24,0-10.48,0-10.48,0-11.65,0-21.1-9.45-21.1-21.1v-162.01c0-11.65,9.45-21.1,21.1-21.1Z"/>
</svg>