<?xml version="1.0" encoding="UTF-8"?>
<svg id="_50" data-name="50" xmlns="http://www.w3.org/2000/svg" viewBox="0 0 460 460">
  <defs>
    <style>
      .cls-1 {
        fill: #c33669;
        isolation: isolate;
        opacity: .5;
      }

      .cls-1, .cls-2 {
        stroke-width: 0px;
      }

      .cls-2 {
        fill: #2a2e3d;
      }
    </style>
  </defs>
  <path class="cls-1" d="M377.4,273.56l-60.51-43.56-65.59,47.21c-12.72,9.16-29.9,9.16-42.62,0l-65.59-47.21-60.51,43.56c-20.11,14.47-20.11,44.32,0,58.82l126.09,90.75c12.72,9.16,29.9,9.16,42.62,0l126.1-90.75c20.13-14.49,20.13-44.34,0-58.82"/>
  <path class="cls-2" d="M377.4,200.6l-9.83-7.07-116.27,83.68c-12.72,9.16-29.9,9.16-42.62,0l-116.27-83.7-9.83,7.07c-20.11,14.47-20.11,44.32,0,58.81l126.09,90.75c12.72,9.16,29.9,9.16,42.62,0l126.1-90.75c20.13-14.47,20.13-44.32,0-58.8"/>
  <path class="cls-1" d="M208.69,36.87l-126.1,90.77c-20.13,14.47-20.13,44.32,0,58.8l126.1,90.75c12.72,9.16,29.9,9.16,42.62,0l126.1-90.75c20.11-14.47,20.11-44.32,0-58.81l-126.1-90.75c-12.72-9.16-29.9-9.16-42.62,0"/>
</svg>