<?xml version="1.0" encoding="UTF-8"?>
<svg id="_50" data-name="50" xmlns="http://www.w3.org/2000/svg" viewBox="0 0 460 460">
  <defs>
    <style>
      .cls-1 {
        fill: #c33669;
        opacity: .5;
      }

      .cls-1, .cls-2 {
        isolation: isolate;
        stroke-width: 0px;
      }

      .cls-2 {
        fill: #2a2e3d;
      }
    </style>
  </defs>
  <path class="cls-1" d="M350.47,326.58v20.68c0,22.81-17.94,41.37-40,41.37h-80c-22.06,0-40-18.55-40-41.37v-70.62c67.53-10.28,119.53-70.64,119.53-143.71v-61.57c0-22.81-17.94-41.37-40-41.37h-40v41.37h40v62.05c0,49.77-34.18,91.44-79.53,101.24v-11.49h-40v11.68c-45.82-9.43-80.46-51.38-80.45-101.93l-.02-61.55h40V30h-40c-22.06,0-40,18.55-40,41.37v62.05c0,72.96,52.48,133.51,120.47,143.37v70.48c0,45.63,35.88,82.73,80,82.73h80c44.12,0,80-37.11,80-82.73v-20.68h-40Z"/>
  <path class="cls-2" d="M210,216.15h-80c-11.04,0-20,9.27-20,20.68v17.17c0,33.61,24.34,63.7,56.78,65.46,34.6,1.88,63.22-26.58,63.22-61.95v-20.68c0-11.42-8.96-20.68-20-20.68Z"/>
  <ellipse class="cls-2" cx="370" cy="298.88" rx="60" ry="62.05"/>
  <ellipse class="cls-2" cx="230" cy="50.68" rx="20" ry="20.68"/>
  <ellipse class="cls-2" cx="110" cy="50.68" rx="20" ry="20.68"/>
</svg>