<?xml version="1.0" encoding="UTF-8"?>
<svg id="_50" data-name="50" xmlns="http://www.w3.org/2000/svg" viewBox="0 0 460 460">
  <defs>
    <style>
      .cls-1 {
        fill: #c33669;
        isolation: isolate;
        opacity: .5;
      }

      .cls-1, .cls-2, .cls-3 {
        stroke-width: 0px;
      }

      .cls-2 {
        fill: none;
      }

      .cls-3 {
        fill: #2a2e3d;
      }
    </style>
  </defs>
  <rect class="cls-2" x="63.79" y="76.87" width="342.86" height="342.86"/>
  <g>
    <path class="cls-1" d="M230,87.14c94.68,0,171.43,76.75,171.43,171.43s-76.75,171.43-171.43,171.43S58.57,353.25,58.57,258.57,135.32,87.14,230,87.14"/>
    <path class="cls-3" d="M195.5,284.87c-6.38-10.05-27.9-66.7-45.39-114.01-5.87-15.85,14.01-28.47,25.86-16.43,35.37,35.97,77.47,79.57,83.85,89.6,11.27,17.76,6.02,41.3-11.75,52.57-17.77,11.29-41.3,6.03-52.57-11.73"/>
    <path class="cls-3" d="M258.57,30h-57.14c-15.77,0-28.57,12.8-28.57,28.57s12.8,28.57,28.57,28.57h57.14c15.77,0,28.57-12.8,28.57-28.57s-12.8-28.57-28.57-28.57"/>
    <path class="cls-3" d="M393.07,108.97c-5.2-5.2-8.27-8.27-13.47-13.47-11.16-11.16-29.26-11.16-40.4,0-11.14,11.16-11.16,29.26,0,40.4,5.2,5.2,8.27,8.27,13.47,13.47,11.16,11.16,29.26,11.16,40.4,0,11.14-11.14,11.14-29.24,0-40.4"/>
  </g>
</svg>