<?xml version="1.0" encoding="UTF-8"?>
<svg id="_50" data-name="50" xmlns="http://www.w3.org/2000/svg" viewBox="0 0 460 460">
  <defs>
    <style>
      .cls-1 {
        fill: #c33669;
        isolation: isolate;
        opacity: .5;
      }

      .cls-1, .cls-2 {
        stroke-width: 0px;
      }

      .cls-2 {
        fill: #2a2e3d;
      }
    </style>
  </defs>
  <rect class="cls-1" x="72.47" y="74" width="310.97" height="310.97" rx="48.01" ry="48.01" transform="translate(-95.5 228.4) rotate(-45)"/>
  <g>
    <g>
      <path class="cls-2" d="M227.95,378.76c-8.45,0-15.3-6.85-15.3-15.3v-74.31c0-8.45,6.85-15.3,15.3-15.3s15.3,6.85,15.3,15.3v74.31c0,8.45-6.85,15.3-15.3,15.3Z"/>
      <g>
        <line class="cls-1" x1="196.99" y1="320.11" x2="227.54" y2="289.56"/>
        <path class="cls-2" d="M196.99,335.41c-3.92,0-7.83-1.49-10.82-4.48-5.98-5.98-5.98-15.67,0-21.64l30.55-30.55c5.98-5.98,15.67-5.98,21.64,0,5.98,5.98,5.98,15.67,0,21.64l-30.55,30.55c-2.99,2.99-6.91,4.48-10.82,4.48Z"/>
      </g>
      <g>
        <line class="cls-1" x1="228.36" y1="289.56" x2="258.91" y2="320.11"/>
        <path class="cls-2" d="M258.91,335.41c-3.92,0-7.83-1.49-10.82-4.48l-30.55-30.55c-5.98-5.98-5.98-15.67,0-21.64,5.98-5.98,15.67-5.98,21.64,0l30.55,30.55c5.98,5.98,5.98,15.67,0,21.64-2.99,2.99-6.91,4.48-10.82,4.48Z"/>
      </g>
    </g>
    <g>
      <path class="cls-2" d="M168.29,244.78h-74.31c-8.45,0-15.3-6.85-15.3-15.3s6.85-15.3,15.3-15.3h74.31c8.45,0,15.3,6.85,15.3,15.3s-6.85,15.3-15.3,15.3Z"/>
      <g>
        <line class="cls-1" x1="137.33" y1="198.52" x2="167.87" y2="229.07"/>
        <path class="cls-2" d="M167.88,244.37c-3.92,0-7.83-1.49-10.82-4.48l-30.55-30.55c-5.98-5.98-5.98-15.67,0-21.64,5.98-5.98,15.67-5.98,21.64,0l30.55,30.55c5.98,5.98,5.98,15.67,0,21.64-2.99,2.99-6.91,4.48-10.82,4.48Z"/>
      </g>
      <g>
        <line class="cls-1" x1="167.87" y1="229.89" x2="137.33" y2="260.44"/>
        <path class="cls-2" d="M137.33,275.75c-3.92,0-7.83-1.49-10.82-4.48-5.98-5.98-5.98-15.67,0-21.64l30.55-30.55c5.98-5.98,15.67-5.98,21.64,0,5.98,5.98,5.98,15.67,0,21.64l-30.55,30.55c-2.99,2.99-6.91,4.48-10.82,4.48Z"/>
      </g>
    </g>
    <g>
      <path class="cls-2" d="M227.95,185.12c-8.45,0-15.3-6.85-15.3-15.3v-74.31c0-8.45,6.85-15.3,15.3-15.3s15.3,6.85,15.3,15.3v74.31c0,8.45-6.85,15.3-15.3,15.3Z"/>
      <g>
        <line class="cls-1" x1="258.91" y1="138.85" x2="228.36" y2="169.4"/>
        <path class="cls-2" d="M228.36,184.71c-3.92,0-7.83-1.49-10.82-4.48-5.98-5.98-5.98-15.67,0-21.64l30.55-30.55c5.98-5.98,15.67-5.98,21.64,0,5.98,5.98,5.98,15.67,0,21.64l-30.55,30.55c-2.99,2.99-6.91,4.48-10.82,4.48Z"/>
      </g>
      <g>
        <line class="cls-1" x1="227.54" y1="169.4" x2="196.99" y2="138.85"/>
        <path class="cls-2" d="M227.54,184.71c-3.92,0-7.83-1.49-10.82-4.48l-30.55-30.55c-5.98-5.98-5.98-15.67,0-21.64,5.98-5.98,15.67-5.98,21.64,0l30.55,30.55c5.98,5.98,5.98,15.67,0,21.64-2.99,2.99-6.91,4.48-10.82,4.48Z"/>
      </g>
    </g>
    <g>
      <path class="cls-2" d="M361.93,244.78h-74.31c-8.45,0-15.3-6.85-15.3-15.3s6.85-15.3,15.3-15.3h74.31c8.45,0,15.3,6.85,15.3,15.3s-6.85,15.3-15.3,15.3Z"/>
      <g>
        <line class="cls-1" x1="318.58" y1="260.44" x2="288.03" y2="229.89"/>
        <path class="cls-2" d="M318.58,275.75c-3.92,0-7.83-1.49-10.82-4.48l-30.55-30.55c-5.98-5.98-5.98-15.67,0-21.64,5.98-5.98,15.67-5.98,21.64,0l30.55,30.55c5.98,5.98,5.98,15.67,0,21.64-2.99,2.99-6.9,4.48-10.82,4.48Z"/>
      </g>
      <g>
        <line class="cls-1" x1="288.03" y1="229.07" x2="318.58" y2="198.52"/>
        <path class="cls-2" d="M288.03,244.37c-3.92,0-7.83-1.49-10.82-4.48-5.98-5.98-5.98-15.67,0-21.64l30.55-30.55c5.98-5.98,15.67-5.98,21.64,0,5.98,5.98,5.98,15.67,0,21.64l-30.55,30.55c-2.99,2.99-6.91,4.48-10.82,4.48Z"/>
      </g>
    </g>
    <circle class="cls-2" cx="227.36" cy="230.08" r="30.38"/>
  </g>
</svg>