<?xml version="1.0" encoding="UTF-8"?>
<svg id="_50" data-name="50" xmlns="http://www.w3.org/2000/svg" xmlns:xlink="http://www.w3.org/1999/xlink" viewBox="0 0 460 460">
  <defs>
    <style>
      .cls-1, .cls-2 {
        stroke-width: 0px;
      }

      .cls-1, .cls-3 {
        fill: #c33669;
        isolation: isolate;
        opacity: .5;
      }

      .cls-4 {
        clip-path: url(#clippath);
      }

      .cls-2 {
        fill: #2a2e3d;
      }
    </style>
    <clipPath id="clippath">
      <circle class="cls-1" cx="230" cy="230" r="200"/>
    </clipPath>
  </defs>
  <circle class="cls-3" cx="230" cy="230" r="200"/>
  <g class="cls-4">
    <path class="cls-2" d="M354.08,203.2c-2.27-9.74-14.43-13.13-21.5-6.05l-53.79,53.79c-18.38,18.38-48.18,18.38-66.55,0h0c-18.38-18.38-18.38-48.18,0-66.55l53.79-53.79c7.07-7.07,3.69-19.24-6.05-21.5-9.29-2.16-18.98-3.3-28.93-3.28-69.08.14-125.64,56.69-125.79,125.77-.03,14.47,2.38,28.37,6.84,41.32,1.83,5.31.43,11.2-3.54,15.17l-53.23,53.23c-18.38,18.38-18.38,48.18,0,66.55h0c18.38,18.38,48.18,18.38,66.55,0l53.23-53.23c3.97-3.97,9.86-5.37,15.17-3.54,12.95,4.46,26.85,6.87,41.31,6.84,69.08-.15,125.63-56.7,125.78-125.78.02-9.96-1.11-19.65-3.28-28.95Z"/>
  </g>
</svg>