<?xml version="1.0" encoding="UTF-8" standalone="no"?>
<svg
   id="_50"
   data-name="50"
   viewBox="0 0 460 460"
   version="1.1"
   xmlns="http://www.w3.org/2000/svg"
   xmlns:svg="http://www.w3.org/2000/svg">
  <defs
     id="defs4">
    <style
       id="style2">
      .cls-1 {
        fill: #c33669;
        isolation: isolate;
        opacity: .5;
      }

      .cls-1, .cls-2 {
        stroke-width: 0px;
      }

      .cls-2 {
        fill: #2a2e3d;
      }
    </style>
  </defs>
  <path
     class="cls-1"
     d="M201.44,92.11l-152.44,57.56c-25.33,9.57-25.33,32.15,0,41.71l152.43,57.56c17.52,6.61,39.61,6.61,57.15,0l152.43-57.56c25.33-9.57,25.33-32.15,0-41.71l-152.43-57.56c-17.52-6.62-39.61-6.62-57.13,0Z"
     id="path6" />
  <path
     id="path6-7"
     style="opacity:1;isolation:isolate;fill:#2a2e3d;stroke-width:0px;fill-opacity:1"
     class="cls-1"
     d="m 273.8125,249.4043 c -0.75475,0.58961 -2.00334,1.06307 -3.80859,1.23169 -3.48681,0.32568 -7.01968,0.31413 -10.52735,0.36261 -0.11263,0.002 -0.22525,0.002 -0.33789,0.004 -0.35912,0.3633 -0.77127,0.70295 -1.24219,1.01298 -0.96897,0.63794 -2.07951,1.15361 -3.17578,1.66768 -2.15032,1.00838 -3.72963,1.49787 -5.85547,2.19001 -0.91645,0.79731 -2.31348,1.12729 -3.61132,1.09931 -3.93821,1.1465 -7.92327,2.20826 -11.97461,3.11522 -1.86951,0.3842 -3.82898,0.94324 -5.07813,-1.54538 -1.32982,-0.21116 -1.56746,-0.61377 -1.24609,-2.44756 -2.72113,0.42397 -5.42726,0.89802 -8.12305,1.40148 -3.40592,0.81122 -6.81666,1.61094 -10.25195,2.35115 -0.19463,-0.5341 -2.11087,0.9329 -2.48438,0.37412 -0.98096,-1.46752 -2.28045,-3.07221 -1.95898,-4.69081 0.15923,-0.80169 2.0311,-0.6203 3.0664,-0.89355 0.5469,-0.14434 1.12322,-0.283 1.71094,-0.41728 -1.6448,-0.58692 -2.86876,-1.20834 -3.24609,-2.13676 -1.39306,0.0614 -2.78661,0.1198 -4.17969,0.17985 -3.1062,0.11853 -6.20967,0.32028 -9.32226,0.26621 -1.77449,-0.0349 -3.17429,-0.40884 -4.19532,-1.57128 -0.0703,-0.0801 -0.14257,-0.17529 -0.21875,-0.26475 -0.0463,-0.002 -0.0924,-0.003 -0.13867,-0.004 -1.50702,-0.17531 -2.23161,-0.19005 -2.61523,-0.94678 l -35.78516,9.95428 -15.84375,-4.40734 c -6.23,-1.73127 -12.88867,1.65755 -12.88867,6.57144 v 71.48296 c 0,2.78282 2.2139,5.16813 5.40039,6.3038 -0.0873,-0.0113 -0.10516,-0.008 -0.23047,-0.0216 l 0.57422,0.15971 c 0.0773,0.0247 0.15796,0.043 0.23633,0.0663 l 74.96875,20.85536 c 17.52,4.86969 39.61039,4.86969 57.15039,0 l 74.99804,-20.86543 c 0.0598,-0.0179 0.12246,-0.0301 0.18165,-0.049 l 0.38476,-0.10792 c -0.0122,-0.0107 -0.0249,-0.021 -0.0371,-0.0316 3.19335,-1.13379 5.41211,-3.52305 5.41211,-6.30956 v -71.48358 c 0,-4.90652 -6.65867,-8.30272 -12.88867,-6.57145 l -15.83594,4.40446 z" />
  <path
     id="path8-3"
     style="fill:#2a2e3d;stroke-width:0px"
     class="cls-2"
     d="M 129.86719 222.1875 C 124.87682 222.25631 120.48047 226.30914 120.48047 231.72852 L 120.48047 247.72852 L 120.48047 328.75781 L 120.48047 344.75781 C 120.48047 345.02806 120.5385 345.2823 120.56055 345.54688 A 109.51304 33.402344 0 0 0 120.51172 345.78906 A 109.51304 33.402344 0 0 0 120.6582 346.53125 C 120.67551 346.62306 120.69297 346.71383 120.71289 346.80469 A 109.51304 33.402344 0 0 0 230.02539 379.19141 A 109.51304 33.402344 0 0 0 339.53711 345.78906 A 109.51304 33.402344 0 0 0 339.48828 345.07227 C 339.49182 344.96545 339.51953 344.86549 339.51953 344.75781 L 339.51953 328.75781 L 339.51953 247.72852 L 339.51953 231.72852 C 339.51953 225.06852 332.86086 220.45859 326.63086 222.80859 L 258.57031 248.50781 L 258.58008 248.50781 C 241.04008 255.11781 218.94969 255.11781 201.42969 248.50781 L 133.36914 222.80859 C 132.20102 222.36797 131.01881 222.17162 129.86719 222.1875 z " />
  <path
     class="cls-2"
     d="M87.55,263.63l-.04-.58v-16.23c0-3.96-2.45-7.52-6.16-8.92l-.92-.35c-6.23-2.35-12.89,2.25-12.89,8.92v16.58l-.04.58-8.86,70.34c-.68,5.43.99,10.9,4.49,14.69l.54.59c2.79,3.02,6.49,4.7,10.34,4.7h7.29c3.97,0,7.78-1.79,10.59-4.98l.3-.34c3.33-3.78,4.9-9.12,4.24-14.42l-8.89-70.59Z"
     id="path10" />
</svg>
