<?xml version="1.0" encoding="UTF-8"?>
<svg id="_50" data-name="50" xmlns="http://www.w3.org/2000/svg" viewBox="0 0 460 460">
  <defs>
    <style>
      .cls-1 {
        fill: #c33669;
        isolation: isolate;
        opacity: .5;
      }

      .cls-1, .cls-2 {
        stroke-width: 0px;
      }

      .cls-2 {
        fill: #2a2e3d;
      }
    </style>
  </defs>
  <g>
    <path class="cls-1" d="M411,204.35l-71,26.83-.48.18-80.94,30.61c-17.54,6.63-39.64,6.63-57.16,0l-80.94-30.61-.48-.18-71-26.83c-25.33-9.58-25.33-32.17,0-41.76l152.44-57.62c17.52-6.63,39.62-6.63,57.14,0l152.42,57.62c25.33,9.59,25.33,32.18,0,41.76Z"/>
    <path class="cls-2" d="M87.55,253.65l-.04-.58v-16.25c0-3.97-2.45-7.52-6.16-8.93l-.92-.35c-6.23-2.35-12.89,2.26-12.89,8.93v16.6l-.04.58-8.86,45.39c-.68,5.44.99,10.92,4.49,14.71l.54.59c2.79,3.02,6.49,4.71,10.34,4.71h7.29c3.97,0,7.78-1.79,10.59-4.98l.3-.34c3.33-3.79,4.9-9.13,4.24-14.43l-8.89-45.64Z"/>
  </g>
  <path class="cls-2" d="M339.52,231.37l-80.94,30.61c-17.54,6.63-39.64,6.63-57.16,0l-80.94-30.61-.48-.18v90.96c0,2.21.56,4.28,1.54,6.09,8.76,18.03,53.98,31.76,108.46,31.76s99.7-13.74,108.46-31.76c.98-1.81,1.54-3.89,1.54-6.09v-90.96l-.48.18Z"/>
</svg>