<?xml version="1.0" encoding="UTF-8"?>
<svg id="_50" data-name="50" xmlns="http://www.w3.org/2000/svg" viewBox="0 0 460 460">
  <defs>
    <style>
      .cls-1 {
        fill: #c33669;
        isolation: isolate;
        opacity: .5;
      }

      .cls-1, .cls-2 {
        stroke-width: 0px;
      }

      .cls-2 {
        fill: #2a2e3d;
      }
    </style>
  </defs>
  <path class="cls-1" d="M201.44,92.11l-152.44,57.56c-25.33,9.57-25.33,32.15,0,41.71l152.43,57.56c17.52,6.61,39.61,6.61,57.15,0l152.43-57.56c25.33-9.57,25.33-32.15,0-41.71l-152.43-57.56c-17.52-6.62-39.61-6.62-57.13,0Z"/>
  <path class="cls-2" d="M258.58,283.09c-17.54,6.61-39.63,6.61-57.15,0l-68.06-25.7c-6.23-2.35-12.89,2.25-12.89,8.92v97.03c0,5.26,4.26,9.53,9.52,9.53h200c5.26,0,9.52-4.27,9.52-9.53v-97.03c0-6.66-6.66-11.27-12.89-8.92l-68.06,25.7Z"/>
  <path class="cls-2" d="M87.55,263.63l-.04-.58v-16.23c0-3.96-2.45-7.52-6.16-8.92l-.92-.35c-6.23-2.35-12.89,2.25-12.89,8.92v16.58l-.04.58-8.86,70.34c-.68,5.43.99,10.9,4.49,14.69l.54.59c2.79,3.02,6.49,4.7,10.34,4.7h7.29c3.97,0,7.78-1.79,10.59-4.98l.3-.34c3.33-3.78,4.9-9.12,4.24-14.42l-8.89-70.59Z"/>
</svg>