<?xml version="1.0" encoding="UTF-8"?>
<svg id="_50" data-name="50" xmlns="http://www.w3.org/2000/svg" viewBox="0 0 460 460">
  <defs>
    <style>
      .cls-1 {
        fill: #c33669;
        isolation: isolate;
        opacity: .5;
      }

      .cls-1, .cls-2 {
        stroke-width: 0px;
      }

      .cls-2 {
        fill: #2a2e3d;
      }
    </style>
  </defs>
  <rect class="cls-1" x="30" y="260" width="400" height="170" rx="36.16" ry="36.16"/>
  <path class="cls-2" d="M230.33,288.11c-17.96,0-32.5,14.54-32.5,32.5s14.54,32.5,32.5,32.5,32.5-14.54,32.5-32.5-14.54-32.5-32.5-32.5Z"/>
  <path class="cls-2" d="M270.36,30h-80.05c-63.5,0-114.97,51.48-114.97,114.97v23.03c0,11.05,8.95,20,20,20h0c11.05,0,20-8.95,20-20v-23.03c0-41.41,33.57-74.97,74.97-74.97h80.05c41.41,0,74.97,33.57,74.97,74.97v115.03h40v-115.03c0-63.5-51.48-114.97-114.97-114.97Z"/>
</svg>