<?xml version="1.0" encoding="UTF-8"?>
<svg id="_50" data-name="50" xmlns="http://www.w3.org/2000/svg" viewBox="0 0 460 460">
  <defs>
    <style>
      .cls-1 {
        fill: #c33669;
        isolation: isolate;
        opacity: .5;
      }

      .cls-1, .cls-2 {
        stroke-width: 0px;
      }

      .cls-2 {
        fill: #2a2e3d;
      }
    </style>
  </defs>
  <g>
    <path class="cls-1" d="M374.14,290.13c-7.72-4.44-11.82-13.48-9.4-22.06,3.42-12.1,5.24-24.88,5.24-38.08s-1.82-25.98-5.24-38.08c-2.42-8.56,1.68-17.62,9.4-22.06l3.35-1.93c-5.18-12.32-11.95-24.06-20.06-34.72l-3.44,1.99c-7.8,4.5-17.68,3.28-23.98-3.14-17.66-18.02-40.14-31.3-65.37-37.74-8.68-2.22-14.64-10.2-14.64-19.18v-3.89c-13.22-1.67-26.75-1.69-40-.02v3.91c0,8.98-5.96,16.96-14.66,19.18-25.22,6.42-47.71,19.7-65.37,37.74-6.28,6.42-16.18,7.64-23.96,3.14l-3.44-1.99c-8.08,10.64-14.88,22.37-20.07,34.7l3.37,1.94c7.72,4.44,11.8,13.48,9.4,22.06-3.44,12.1-5.26,24.88-5.26,38.08s1.82,25.98,5.24,38.08c2.42,8.56-1.68,17.62-9.38,22.06l-3.36,1.93c5.18,12.32,11.95,24.06,20.06,34.71l3.44-1.99c7.8-4.5,17.68-3.28,23.98,3.14,17.66,18.02,40.14,31.3,65.37,37.72,8.68,2.24,14.64,10.22,14.64,19.2v3.89c13.22,1.67,26.75,1.69,40,.02v-3.91c0-8.98,5.96-16.96,14.66-19.18,25.22-6.42,47.71-19.7,65.37-37.74,6.3-6.44,16.18-7.64,23.98-3.14l3.42,1.98c8.08-10.63,14.88-22.36,20.07-34.7l-3.35-1.93Z"/>
    <path class="cls-2" d="M262.82,32.72c-22.84-3.84-46.65-3.62-69.47.66-10.84,2.04-18,12.48-15.96,23.34,1.8,9.6,10.2,16.3,19.64,16.3,1.22,0,2.46-.1,3.72-.32,3.07-.58,6.16-1.06,9.26-1.45,13.25-1.67,26.77-1.65,40,.02,2.09.26,4.17.56,6.24.91,10.94,1.8,21.2-5.54,23.02-16.44,1.82-10.9-5.54-21.2-16.44-23.02Z"/>
    <path class="cls-2" d="M103.7,100.22c-8.54-7.02-21.14-5.8-28.16,2.72-14.74,17.88-26.46,38.6-34.16,60.49-3.66,10.42,1.82,21.84,12.24,25.5,9.22,3.24,19.22-.68,23.94-8.86.6-1.04,1.14-2.18,1.56-3.38,1.03-2.95,2.17-5.87,3.39-8.76,5.19-12.34,11.99-24.06,20.07-34.7,1.25-1.65,2.53-3.28,3.84-4.87,7.02-8.56,5.8-21.12-2.72-28.14Z"/>
    <path class="cls-2" d="M110.53,337.05c-.6-1.04-1.32-2.06-2.14-3.06-2.01-2.34-3.95-4.75-5.82-7.21-8.11-10.65-14.88-22.4-20.06-34.71-.82-1.94-1.6-3.9-2.34-5.87-3.9-10.38-15.4-15.6-25.74-11.72-10.34,3.86-15.6,15.4-11.72,25.74,8.12,21.7,20.2,42.22,35.32,59.83,7.18,8.38,19.82,9.34,28.2,2.16,7.42-6.36,9.02-17,4.3-25.16Z"/>
    <path class="cls-2" d="M282.61,403.28c-1.8-9.6-10.2-16.3-19.64-16.3-1.22,0-2.46.1-3.72.32-3.07.58-6.16,1.06-9.26,1.45-13.25,1.67-26.77,1.65-40-.02-2.09-.26-4.17-.56-6.24-.91-10.94-1.8-21.2,5.54-23.02,16.44-1.82,10.9,5.54,21.2,16.44,23.02,22.84,3.84,46.65,3.62,69.47-.66,10.84-2.04,18-12.48,15.96-23.34Z"/>
    <path class="cls-2" d="M406.38,271.08c-9.22-3.24-19.22.7-23.94,8.86-.6,1.04-1.14,2.18-1.56,3.36-1.03,2.95-2.17,5.88-3.39,8.77-5.19,12.35-11.99,24.07-20.07,34.7-1.25,1.65-2.53,3.27-3.84,4.86-7.04,8.58-5.82,21.14,2.72,28.16,8.54,7.02,21.14,5.82,28.16-2.72,14.74-17.88,26.46-38.6,34.16-60.49,3.66-10.42-1.82-21.82-12.24-25.5Z"/>
    <path class="cls-2" d="M417.28,159.79c-8.12-21.7-20.2-42.21-35.32-59.83-7.18-8.38-19.82-9.34-28.2-2.16-7.42,6.36-9.02,17-4.3,25.16.6,1.04,1.32,2.06,2.14,3.06,2.01,2.34,3.95,4.75,5.82,7.21,8.11,10.66,14.88,22.4,20.06,34.72.82,1.94,1.6,3.9,2.33,5.87,3.9,10.38,15.4,15.6,25.74,11.72,10.34-3.86,15.6-15.4,11.72-25.74Z"/>
  </g>
  <circle class="cls-2" cx="230" cy="160.01" r="30"/>
  <circle class="cls-2" cx="160.01" cy="230" r="30"/>
  <circle class="cls-2" cx="230" cy="299.99" r="30"/>
  <circle class="cls-2" cx="299.99" cy="230" r="30"/>
</svg>