<?xml version="1.0" encoding="UTF-8"?>
<svg id="_50" data-name="50" xmlns="http://www.w3.org/2000/svg" viewBox="0 0 460 460">
  <defs>
    <style>
      .cls-1 {
        fill: #c33669;
        isolation: isolate;
        opacity: .5;
      }

      .cls-1, .cls-2 {
        stroke-width: 0px;
      }

      .cls-2 {
        fill: #2a2e3d;
      }
    </style>
  </defs>
  <path class="cls-2" d="M230,294.33c12.65,0,23.2-10.55,23.2-23.2v-92.8c0-12.65-10.55-23.2-23.2-23.2s-23.2,10.55-23.2,23.2v92.8c0,12.65,10.55,23.2,23.2,23.2Z"/>
  <path class="cls-2" d="M230,376.58c21.09,0,25.31-18.98,25.31-27.42s-4.22-27.42-25.31-27.42-25.31,18.98-25.31,27.42,4.22,27.42,25.31,27.42Z"/>
  <path class="cls-1" d="M424,349L264,71c-8-12-20-20-34-20s-28,8-34,20L36,349c-8,12-8,28,0,40,6,12,20,20,34,20h320c14,0,28-8,34-20,8-12,8-28,0-40ZM230,376.58c-21.09,0-25.31-18.98-25.31-27.42s4.22-27.42,25.31-27.42,25.31,18.98,25.31,27.42-4.22,27.42-25.31,27.42ZM206.8,271.13v-92.8c0-12.65,10.55-23.2,23.2-23.2s23.2,10.55,23.2,23.2v92.8c0,12.65-10.55,23.2-23.2,23.2s-23.2-10.55-23.2-23.2Z"/>
</svg>