<?xml version="1.0" encoding="UTF-8"?>
<svg id="_50" data-name="50" xmlns="http://www.w3.org/2000/svg" viewBox="0 0 460 460">
  <defs>
    <style>
      .cls-1 {
        fill: #c33669;
        isolation: isolate;
        opacity: .5;
      }

      .cls-1, .cls-2 {
        stroke-width: 0px;
      }

      .cls-2 {
        fill: #2a2e3d;
      }
    </style>
  </defs>
  <path class="cls-1" d="M335.71,139.09c-26.3,0-47.62-20.35-47.62-45.45V30H114.76c-26.3,0-47.62,20.35-47.62,45.45v309.09c0,25.1,21.32,45.45,47.62,45.45h230.48c26.3,0,47.62-20.35,47.62-45.45v-245.45h-57.14ZM155.71,189.09c12.1,0,21.9,9.36,21.9,20.91s-9.81,20.91-21.9,20.91-21.9-9.36-21.9-20.91,9.81-20.91,21.9-20.91ZM156.67,340.91c-12.1,0-21.9-9.36-21.9-20.91s9.81-20.91,21.9-20.91,21.9,9.36,21.9,20.91-9.81,20.91-21.9,20.91ZM156.67,286.36c-12.1,0-21.9-9.36-21.9-20.91s9.81-20.91,21.9-20.91,21.9,9.36,21.9,20.91-9.81,20.91-21.9,20.91Z"/>
  <ellipse class="cls-1" cx="155.71" cy="210" rx="21.9" ry="20.91"/>
  <ellipse class="cls-1" cx="156.67" cy="320" rx="21.9" ry="20.91"/>
  <ellipse class="cls-1" cx="156.67" cy="265.45" rx="21.9" ry="20.91"/>
  <path class="cls-1" d="M392.86,139.09h-57.14c-26.3,0-47.62-20.35-47.62-45.45V30l104.76,109.09Z"/>
  <path class="cls-2" d="M392.86,139.09h-57.14c-26.3,0-47.62-20.35-47.62-45.45V30l104.76,109.09Z"/>
  <path class="cls-2" d="M306.19,231.82h-85.71c-11.05,0-20-8.95-20-20s8.95-20,20-20h85.71c11.05,0,20,8.95,20,20s-8.95,20-20,20Z"/>
  <path class="cls-2" d="M306.19,286.36h-85.71c-11.05,0-20-8.95-20-20s8.95-20,20-20h85.71c11.05,0,20,8.95,20,20s-8.95,20-20,20Z"/>
  <path class="cls-2" d="M306.19,340.91h-85.71c-11.05,0-20-8.95-20-20s8.95-20,20-20h85.71c11.05,0,20,8.95,20,20s-8.95,20-20,20Z"/>
  <ellipse class="cls-2" cx="155.71" cy="210" rx="21.9" ry="20.91"/>
  <ellipse class="cls-2" cx="156.67" cy="265.45" rx="21.9" ry="20.91"/>
  <ellipse class="cls-2" cx="156.67" cy="320" rx="21.9" ry="20.91"/>
</svg>