<?xml version="1.0" encoding="utf-8"?>
<!-- Generator: Adobe Illustrator 24.1.2, SVG Export Plug-In . SVG Version: 6.00 Build 0)  -->
<svg version="1.1" id="Layer_1" xmlns="http://www.w3.org/2000/svg" xmlns:xlink="http://www.w3.org/1999/xlink" x="0px" y="0px"
	 viewBox="0 0 1839 389.2" style="enable-background:new 0 0 1839 389.2;" xml:space="preserve">
<style type="text/css">
	.st0{fill:#AE315F;}
	.st1{fill:#333333;}
</style>
<g>
	<path class="st0" d="M1215,0c38.3,0,76.7,0,115.1,0c0,49.7,0,99.4,0,149c-0.1,17.1-1.8,34.1-4.2,50.9c4.9,0,9.9,0,14.8,0
		c17.4-30.3,34.8-60.7,52.3-91c41.8,0.1,83.6-0.1,125.5,0.1c-3.5,7-8.3,13.3-12.3,20c-16.1,25.3-32.4,50.4-48.3,75.7
		c-6,8.9-14,16.1-22.3,22.7c-2.1,1.8-5,3-6.2,5.7c5.7,3.4,10.2,8.1,14.7,12.9c6.7,7.2,12.5,15.2,17.2,23.8
		c21.2,35.2,42.5,70.3,63.8,105.4c-0.1-85.1,0-170.2-0.1-255.2c29,0,58,0,87,0c18,0.3,35.9-1.6,53.8-2.1c0.1-23.2-0.3-46.3,0.1-69.5
		c36.7,0.1,73.4,0,110.1,0c0,23,0,46.1,0,69.1c21,0,42-0.1,63,0.1c-0.1,22.3,0,44.6,0,66.9c-21,0-42,0-63,0
		c-0.1,34.2,0,68.4,0,102.5c0,5.3,1.9,11.3,6.8,14.1c6.7,3.8,14.8,3.1,22.2,3.1c7,0,13.9,0,20.9,0c3.9,23.8,8.1,47.5,12,71.2
		c-17.1,7-35.6,9.2-53.8,11.5c-20.3,2-41,4-61.1-0.5c-16.3-3.5-31.8-12-42.3-25.1c-10.7-13.2-14.6-30.5-14.6-47.2
		c-0.2-43.2,0-86.4-0.1-129.6c-10.6,0-21.2,0-31.8,0c0,65.9,0,131.8,0,197.7c-77.1,0.1-154.3-0.3-231.4-0.1
		c-20.9-39.3-41.5-78.7-62.3-118c-4.9-0.1-9.7-0.1-14.5-0.1c2.3,13.2,4.1,26.6,4.1,40c0,26,0,52,0,78c-38.3,0-76.7,0-115.1,0
		C1215,254.7,1215,127.4,1215,0z"/>
	<path class="st0" d="M1549.5,0.7c11.5-1.2,23-0.4,34.5-0.7c10.2,0.2,20.6-0.8,30.7,1.6c7.6,1.8,14.3,7.3,17.2,14.6
		c4,9.4,2.6,19.8,2.9,29.8c-0.3,9.2,0.9,18.8-1.9,27.7c-1.9,6-5.8,11.5-11.4,14.5c-5.8,3.3-12.7,4.1-19.3,4.1c-15.7,0-31.3,0-47,0
		c-8.2-0.1-17-2.3-22.9-8.4c-5.7-6.1-7.6-14.7-7.7-22.8c0-9.7,0-19.4,0-29c0.1-7.9,1.7-16.4,7-22.5
		C1535.9,4.2,1542.7,1.5,1549.5,0.7z"/>
</g>
<path class="st1" d="M682.8,76.2c-6.4-15.8-16-30.7-29.1-41.8c-12.2-10.5-26.8-17.9-42.1-22.6C577.7,1.6,542,0.7,507,1.2
	C459,1.3,411,3.8,363,6.6c0,125.5,0,250.9,0,376.4c41.3,2.1,82.6,4.6,124,5c23.4,0.2,46.8,0.9,70.1-0.9c23.5-1.9,47.4-5.4,69.2-14.9
	c18.7-8.1,35.2-21.5,46.1-38.8c10.4-16.1,16.3-34.7,20.1-53.3c4.8-23.8,6.5-48.2,7-72.5c0.4-22.9-0.2-45.8-2.5-68.6
	C694.7,117.7,690.8,96.2,682.8,76.2z M570.5,259.1c-2,11.3-4.9,23-12.6,31.8c-7.9,8.3-19.9,11-30.9,11.3c-15,0.2-30-0.3-45-0.3
	c0-71.6,0-143.2,0-214.8c15,0,30-0.1,45,0.1c11.7,0.3,24.4,3.4,32.1,12.8c7.8,9.8,10.2,22.5,12.1,34.6c2.8,20,3.2,40.2,3.2,60.4
	C574.3,216.4,574,237.9,570.5,259.1z"/>
<path class="st1" d="M1177.3,51c-0.2-11.2-2-23.1-9.4-32c-6.3-7.7-16.3-11.4-26-12.2c-7.9-0.6-15.9-0.2-23.9-0.3
	c-28.9,0.1-57.8-0.2-86.6,0.2c-11.7-0.5-24.2,2.7-32.9,10.9c-7.2,6.9-11,16.7-12.6,26.4c-8.3,48.4-16.6,96.7-24.9,145.1
	c-3.4,19.6-4.7,39.5-7.2,59.3c-1.5,0-2.9,0-4.3,0c-0.5-6.8-1.2-13.5-1.7-20.3c-1.5-19.9-4.8-39.7-8.6-59.3
	c-7.6-41.8-15.3-83.6-22.9-125.4c-1.7-9.4-5.2-18.9-12.3-25.6c-8.5-8.5-21-11.6-32.7-11.2c-10.5-0.3-21-0.1-31.5-0.1
	c-23.5,0.1-47-0.2-70.5,0.1c-11.5-0.4-24.1,2.8-31.9,11.8c-7.5,8.6-9.5,20.5-9.7,31.6c-4.4,111-8.8,221.9-13,332.9
	c35.6,0,71.1,0,106.7,0c2.8-84,5.4-168,8.1-252.1c0.7-11.9,0.3-23.8,1.4-35.7c2.5,0,5,0,7.5,0.1c12.5,63.9,25,127.8,37.6,191.7
	c1.8,9.8,6,19.6,13.8,26.2c8.5,7.4,20.1,9.7,31.1,9.8c16.7,0.1,33.4,0,50.1,0c10.6,0,21.7,0.5,31.8-3.3c8.4-2.9,15.7-9.1,19.7-17.1
	c3.9-7.3,4.8-15.6,6.4-23.6c11.8-61.3,23.7-122.5,35.5-183.8c2.5,0,5,0,7.5,0c1,10.2,0.8,20.5,1.4,30.7
	c3.4,85.7,6.8,171.4,10.3,257.1c35.6,0,71.1,0,106.7,0C1186,272.4,1181.7,161.7,1177.3,51z"/>
<path class="st1" d="M304.2,267.1c-1.5-7.4-3.5-14.8-6.7-21.6c-5-11.2-13.9-20.2-24-26.9c-9.4-5.7-20.1-8.9-30.9-10.5
	c0-0.7,0-2,0-2.7c16.1-2,32.8-5.8,45.8-15.9c9.7-6.7,17.1-16.5,21.8-27.2c7.2-17.4,9.4-36.5,8.5-55.1c-0.8-19-4-38.5-13.4-55.3
	c-8.2-14.7-21.5-26.1-36.6-33.3c-16.5-7.8-34.6-11.5-52.5-14c-27.2-3.7-54.7-3.4-82-3.4C113,1.5,92,1.2,71,1.9
	C55.8,2.2,40.7,3,25.6,4.2l86.9,64.3c9.9-6.3,21.6-10,34.3-10c35.1,0,63.6,28.5,63.6,63.6s-28.5,63.6-63.6,63.6S83.2,157.1,83.2,122
	c0-6.7,1-13.1,2.9-19.1L0,39.2C0,153.8,0,268.4,0,383c38.9,0,77.8,0,116.8,0c0-45.9,0-91.9,0-137.8c13.2,0.2,26.5,0.3,39.7,0.5
	c7.3,0.4,15.5,1.3,20.8,7c5.8,7,7,16.3,9,24.8c7.6,35.1,15.6,70.2,23,105.4c41.4,0.3,82.9,0,124.3,0.1
	C323.9,344.4,314,305.7,304.2,267.1z"/>
<circle class="st0" cx="146.8" cy="122" r="26.7"/>
</svg>
