<?xml version="1.0" encoding="utf-8"?>
<!-- Generator: Adobe Illustrator 24.1.2, SVG Export Plug-In . SVG Version: 6.00 Build 0)  -->
<svg version="1.1" id="Layer_1" xmlns="http://www.w3.org/2000/svg" xmlns:xlink="http://www.w3.org/1999/xlink" x="0px" y="0px"
	 viewBox="0 0 2165.6 460.9" style="enable-background:new 0 0 2165.6 460.9;" xml:space="preserve">
<style type="text/css">
	.st0{fill:#AE315F;}
	.st1{fill:#333333;}
</style>
<g>
	<path class="st0" d="M1427,0c45,0.1,90,0.1,135,0c0.3,0.9,0.5,1.9,0.6,2.8c0,57.3,0,114.7,0,172c-0.1,20.7-1.8,41.5-5.1,61.9
		c5.9,0,11.9,0,17.8,0c20.7-35.9,41.1-71.9,61.9-107.7c49.7,0.1,99.3,0.1,149,0c-21.6,33.9-43.4,67.8-65,101.6
		c-1.2,1.9-2.3,3.8-3.8,5.5c-3.4,7.4-8.9,13.5-14.4,19.4c-7,6.6-14.1,13.2-22.3,18.5c0,0.6,0,1.7,0,2.3c5.5,3.2,10,7.8,14.4,12.3
		c6.6,6.8,12.7,14.2,17.8,22.1c26.7,44.8,54.1,89.2,80.8,134.1c-0.1-98.4,0-196.7-0.1-295.1c-0.1-2.6-0.1-5.2,0.3-7.8
		c27,0.1,54.1,0,81.1,0.1c15.3-0.1,30.7,0.3,46-0.5c13.2-0.8,26.3-1.4,39.5-2.1c-0.1-26.6-0.1-53.1-0.2-79.7
		c-0.2-1.1,0.2-2.8,1.7-2.6c43,0,85.9,0,128.9,0c0,27.3,0,54.6,0,81.9c24.7,0,49.4,0.1,74-0.1c1.1,5.9,0.2,11.9,0.5,17.8
		c0,20,0,40,0,60c0.3,2.1-2.3,1.5-3.4,1.6c-23.7-0.1-47.4,0-71,0c0,40.5,0,81,0,121.5c0.1,5.8,1.7,12,6.4,15.7
		c4.9,3.9,11.4,4.6,17.5,4.9c11.7,0.1,23.4,0,35,0c4.9,28.1,9.5,56.1,14.3,84.2c-17.8,7.5-37.2,10.2-56.2,12.8
		c-18.9,2.3-38.1,4.1-57.2,3.3c-21.9-1-44.4-7.2-61.5-21.4c-10.5-8.5-18.6-19.9-23.1-32.6c-3.8-10.5-5.3-21.7-5.4-32.9
		c-0.1-51.8-0.2-103.7-0.3-155.5c-12.6,0-25.1,0-37.7,0c0,78.1,0,156.3,0,234.5c-31,0-62,0-93,0c-21.3,0.3-42.6-0.5-63.9-0.3
		c-39.2,0-78.3,0-117.5,0c-24.4-46.6-49.1-93.1-73.5-139.7c-5.8,0-11.6,0-17.4,0c3.5,18.8,5.4,37.9,4.9,57c0,25,0,50,0,74.9
		c-0.1,2.6,0.4,5.3-0.6,7.8c-45-0.1-90-0.1-135,0c-1-2.8-0.4-5.8-0.5-8.7c0-145,0-290,0-435C1426.6,5.9,1426.1,2.8,1427,0z"/>
	<path class="st0" d="M1824.4,0.4c15.8-0.7,31.7-0.1,47.5-0.3c9.3,0.2,18.9-0.8,28,1.7c7.1,1.8,13.7,6.1,17.7,12.4
		c4.8,7.6,6,16.8,5.9,25.6c0,11,0.1,22,0,33c-0.2,9.6-2.7,19.8-9.6,26.9c-7,7-17.3,9.3-26.9,9.4c-16,0-32,0-48,0
		c-8.6-0.1-17.4,0.4-25.5-2.7c-7.8-2.7-14.3-8.9-17.3-16.7c-4.6-11.4-2.9-23.9-3.2-35.9c0.2-12.9-1.5-27,5.3-38.6
		C1803.6,5.9,1814.2,1.2,1824.4,0.4z"/>
	<path class="st0" d="M174.2,121.1c13.6-3.5,28.5,6.9,30.1,20.8c2.3,13.3-8.1,26.9-21.4,28.3c-13.1,2.1-26.4-8.1-27.9-21.3
		C152.9,136.4,161.9,123.5,174.2,121.1z"/>
</g>
<g>
	<g>
		<path class="st1" d="M563.9,1.4c40.8-0.5,82-1.6,122.3,6.2c17.2,3.3,34.2,8,49.8,16.1c15.7,8,30,19.3,40.8,33.3
			c12.7,16.4,21,35.9,26.4,55.8c10.4,39.4,12.3,80.4,12.4,120.9c-0.3,38.9-2.6,78.1-12.8,115.8c-4.8,17.1-11.6,33.7-21.6,48.4
			c-9.7,14.4-22.8,26.4-37.8,35.3c-15.5,9.3-32.9,15.1-50.5,18.9c-37.7,8.2-76.5,8.2-114.9,7.7c-53.7-0.4-107.4-3.1-161-6.3
			c-0.3-148.6-0.1-297.2-0.1-445.9C465.8,4.7,514.8,2.1,563.9,1.4z M557.3,103c0,84.9,0,169.8,0,254.7c17.9,0.1,35.7,0.4,53.6,0.4
			c13.8-0.4,29-3.9,38.1-15.2c9-11.4,12-26.1,14.3-40.2c3.3-23.5,3.9-47.2,3.7-70.9c0.2-24.7-0.3-49.6-3.9-74.1
			c-2.3-14.5-5.6-29.9-15.7-41.3c-9.8-10.3-24.8-13.2-38.5-13.4C591.8,102.9,574.5,103,557.3,103z"/>
	</g>
	<path class="st1" d="M34.7,7.8C82,3.9,129.6,4.8,177,4.4c25.4-0.3,50.8,0.3,76,3.5c19,2.4,38.1,6,56,12.9
		c19,7.4,36.7,19.5,48.3,36.6c4.6,6.8,8.5,14.1,11,22c6.6,16.9,8.6,35.3,9.3,53.4c0.7,20.2-1.8,40.7-9,59.6
		c-5.7,14.8-16.1,27.7-29.1,36.7c-15.4,10.5-33.9,15-52.2,17.1c0,1.1,0,2.2,0,3.4c12.1,1.7,24,5.4,34.7,11.3
		c13.7,8.3,25.5,20.5,31.5,35.5c4.6,10.4,6.2,21.7,9.2,32.5c10.9,42.6,21.8,85.2,32.5,127.9c-49,0-98,0-147,0
		c-9.3-42.4-18.6-84.9-28-127.3c-2-9.1-3.6-18.8-9.5-26.4c-5.6-7-15.2-8.4-23.6-9c-16.3-0.5-32.6-0.4-48.9-0.4c0,54.3,0,108.7,0,163
		c-46.1,0-92.1,0-138.2,0C0,325.7,0,194.7,0,63.6c38.8,21.6,77.7,43,116.6,64.4c-4,13-3.3,27.2,1.3,40c5.2,14,15.2,26.2,28.1,33.9
		c14,8.5,31.2,11.2,47.1,7.9c18.1-3.6,34.3-15.4,43.5-31.4c7.9-13.2,10.5-29.4,7.9-44.5c-2.1-12.3-8-23.9-16.4-33.2
		c-12.2-13.2-29.9-21.3-47.9-21c-15-0.4-29.9,5.3-41.4,14.7c-0.9,0.5-2,2.2-2.9,0.8C102,66,68.2,37.1,34.7,7.8z"/>
	<path class="st1" d="M866.5,16.3c9-6.6,20.5-8.6,31.5-8.7c40.4,0,80.9-0.1,121.3,0c12.6-0.1,25.8,2.7,35.8,10.8
		c9.8,7.8,14.9,20,17.1,32.1c9.2,50,18.3,100.1,27.4,150.1c3.4,18.3,6.8,36.5,8.6,55c1.3,12.8,2.3,25.6,3.4,38.5c1.7,0,3.5,0,5.3,0
		c2.8-22.8,4.3-45.7,8.1-68.4c9.8-57.3,19.6-114.6,29.5-171.9c1.8-11.5,5.6-23.2,13.9-31.7c8.6-9.3,21.3-13.5,33.6-14.4
		c7-0.4,14-0.2,21-0.3c34,0,68.1,0,102.1,0c7.3,0,14.8-0.2,22,1.5c8.9,1.8,17.5,6.2,23.4,13.3c7.8,9.3,10.4,21.7,10.9,33.5
		c5.3,132.6,10.3,265.1,15.6,397.7c-42,0-84-0.1-126.1,0.1c-1.6-10.4-0.8-21-1.7-31.5c-4-103.1-8.2-206.1-12.3-309.2
		c-3.1,0-6.1,0-9.2,0c-14.6,75.4-29.1,150.7-43.7,226c-1.9,13.9-8.1,28.1-20.5,35.6c-9.4,5.9-20.7,7.9-31.6,8c-17.4,0-34.7,0-52.1,0
		c-11-0.2-22,0.6-32.9-0.7c-13.2-1.6-26.3-8-33.7-19.3c-6.8-9.6-8.6-21.5-10.8-32.7c-14.1-72.3-28.4-144.6-42.5-216.9
		c-3.1,0-6.1,0-9.2,0c-3.9,113.5-7.3,227.1-11.1,340.7c-42,0-84-0.1-126,0c-0.5-12.2,0.9-24.5,1-36.7c4.5-113.7,8.9-227.3,13.3-341
		c0.9-12.3-0.1-24.9,3.3-36.9C854,30,859,21.6,866.5,16.3z"/>
</g>
</svg>
