<svg id="Laag_1" data-name="Laag 1" xmlns="http://www.w3.org/2000/svg" viewBox="0 0 803.53 263.12"><defs><style>.cls-1{fill:#15467b;}.cls-2{fill:#f26f21;}.cls-3{fill:#4d4d4f;}</style></defs><title>Logo_ BBMRI-2019_RGB</title><rect class="cls-1" x="105.47" y="251.77" width="84.76" height="3.24" transform="translate(-177.39 276.35) rotate(-72.27)"/><polygon class="cls-1" points="209.26 185.85 181.72 130.2 178.81 131.64 206.35 187.28 209.26 185.85"/><polygon class="cls-1" points="123.41 171.76 98.83 100.52 96.75 102.56 179.71 132.44 181.19 132.97 181.77 131.52 206.56 69.45 203.54 68.26 178.75 130.32 180.81 129.39 97.85 99.53 94.67 98.38 95.77 101.59 120.34 172.81 123.41 171.76"/><rect class="cls-1" x="94.85" y="82.65" width="3.25" height="85.78" transform="translate(-95.11 126.61) rotate(-67.76)"/><polygon class="cls-1" points="22.87 149.64 98.17 102.43 98.58 102.17 98.78 101.72 135.9 20.1 132.96 18.75 95.83 100.39 96.44 99.68 21.15 146.89 22.87 149.64"/><path class="cls-1" d="M221,109.66a22.9,22.9,0,1,0,22.82-23,22.9,22.9,0,0,0-22.82,23" transform="translate(-38.88 -40.72)"/><rect class="cls-2" x="153.94" y="40.79" width="38.73" height="38.72" transform="translate(-39.1 -40.09) rotate(-0.21)"/><path class="cls-1" d="M124.86,293.8a10.1,10.1,0,1,0,10.06-10.15,10.09,10.09,0,0,0-10.06,10.15" transform="translate(-38.88 -40.72)"/><path class="cls-1" d="M256.25,227.25a9.57,9.57,0,1,1-9.59-9.52,9.56,9.56,0,0,1,9.59,9.52" transform="translate(-38.88 -40.72)"/><path class="cls-1" d="M74.68,189A13.79,13.79,0,1,1,60.84,175.2,13.8,13.8,0,0,1,74.68,189" transform="translate(-38.88 -40.72)"/><path class="cls-1" d="M74.67,109.24a17.9,17.9,0,1,1-18-17.82,17.9,17.9,0,0,1,18,17.82" transform="translate(-38.88 -40.72)"/><rect class="cls-2" x="209.91" y="162.42" width="18.45" height="18.43" transform="translate(-39.5 -39.92) rotate(-0.21)"/><rect class="cls-2" x="142.91" y="195.17" width="35.68" height="35.68" transform="translate(-39.66 -40.13) rotate(-0.21)"/><rect class="cls-2" x="124.13" y="129.73" width="24.1" height="24.09" transform="translate(-39.39 -40.22) rotate(-0.21)"/><path class="cls-3" d="M371.26,163.62a24.09,24.09,0,0,1-9.18,8.32,37.47,37.47,0,0,1-12.21,3.81,96.54,96.54,0,0,1-12.76.94l-28.67.1-.33-89,30.31-.11A56.19,56.19,0,0,1,351,89a31.4,31.4,0,0,1,9.91,4,18.68,18.68,0,0,1,8.87,16.42,20.13,20.13,0,0,1-3.1,11.29,19,19,0,0,1-9.67,7.24,23.38,23.38,0,0,1,12.93,7.6,20.42,20.42,0,0,1,4.9,13.62Q374.86,158.2,371.26,163.62Zm-24.59-59.76q-4-2.53-11.34-2.51l-8.05,0,.08,22.31,7.78,0c5.19,0,9.08-1,11.66-3s3.88-4.93,3.86-8.75C350.65,108.23,349.32,105.55,346.67,103.86Zm4.51,36.51q-4.51-3.5-12.71-3.46l-11.06,0,.09,25.88,11.06,0q8.47,0,12.82-3.55a11.54,11.54,0,0,0,4.34-9.52A11.29,11.29,0,0,0,351.18,140.37Z" transform="translate(-38.88 -40.72)"/><path class="cls-3" d="M447.72,163.34a24.16,24.16,0,0,1-9.18,8.32,37.55,37.55,0,0,1-12.21,3.81,96.66,96.66,0,0,1-12.76.94l-28.67.1-.33-89,30.31-.11a56,56,0,0,1,12.56,1.29,31.55,31.55,0,0,1,9.92,4,18.64,18.64,0,0,1,8.86,16.42,20,20,0,0,1-3.1,11.29,19,19,0,0,1-9.66,7.24,23.45,23.45,0,0,1,12.93,7.6,20.47,20.47,0,0,1,4.89,13.62Q451.33,157.92,447.72,163.34Zm-24.59-59.76q-4-2.53-11.34-2.51l-8.06,0,.09,22.31,7.78,0q7.78,0,11.66-3t3.86-8.74C427.11,107.94,425.77,105.27,423.13,103.58Zm4.5,36.51q-4.51-3.5-12.71-3.46l-11.06,0,.1,25.88,11.06,0q8.46,0,12.82-3.56a11.5,11.5,0,0,0,4.33-9.51A11.23,11.23,0,0,0,427.63,140.09Z" transform="translate(-38.88 -40.72)"/><path class="cls-3" d="M550,175.91q-.21-17.85-1.09-35.82T547,105.8h-.14L522.65,176l-18.84.07-25-70h-.13q-.76,16.07-1.38,34.11t-.69,36l-17.06.06q.18-22.19,1.33-44.37t3.25-44.63l26.76-.1L514,154.5h.28l22-67.51,26.63-.1q2.25,22.56,3.64,44.86t1.73,44.1Z" transform="translate(-38.88 -40.72)"/><path class="cls-3" d="M627,175.9l-22.12-37-8.87,0,.13,37.09-19.11.07-.33-89L609.44,87a54.39,54.39,0,0,1,13.38,1.48A31.54,31.54,0,0,1,633.15,93a21.19,21.19,0,0,1,6.71,7.43,21.71,21.71,0,0,1,2.43,10.45,22.92,22.92,0,0,1-5.13,15.25q-5.16,6.21-15,8.92l26.1,40.82Zm-8.25-71.81q-3.63-3.11-11-3.08l-11.88,0,.08,23.84,9.84,0q8,0,12.34-3.55a11.32,11.32,0,0,0,4.26-9.26A10.1,10.1,0,0,0,618.72,104.09Z" transform="translate(-38.88 -40.72)"/><path class="cls-3" d="M655.77,175.79l-.32-89,19.11-.07.33,89Z" transform="translate(-38.88 -40.72)"/><path class="cls-3" d="M705,173.89a11.42,11.42,0,0,1-15.43.06,9.69,9.69,0,0,1-.06-14.41,11.43,11.43,0,0,1,15.43,0,9.68,9.68,0,0,1,.06,14.4Z" transform="translate(-38.88 -40.72)"/><path class="cls-3" d="M774.69,175.36l-.15-38.88q0-8-2.43-11.6t-8.54-3.53a16.9,16.9,0,0,0-9.14,2.77,35.48,35.48,0,0,0-7.9,6.85l.17,44.49-18.3.07-.24-65.66,13.79-.05,1.94,8a38.31,38.31,0,0,1,11-7.5,32.44,32.44,0,0,1,12.69-2.41,30.58,30.58,0,0,1,11.14,1.81,21.16,21.16,0,0,1,7.87,5.2,21.38,21.38,0,0,1,4.67,8,34,34,0,0,1,1.54,10.39l.15,41.94Z" transform="translate(-38.88 -40.72)"/><path class="cls-3" d="M837.42,176.08a35.06,35.06,0,0,1-4.57.34,46.89,46.89,0,0,1-7.71-.55,16.73,16.73,0,0,1-6-2.08,10.79,10.79,0,0,1-4-4.13,14,14,0,0,1-1.46-6.81l-.31-83.25,18.3-.06L832,159c0,3.14,1.88,4.71,5.61,4.69l4.78,0,0,11.48A47.34,47.34,0,0,1,837.42,176.08Z" transform="translate(-38.88 -40.72)"/><path class="cls-3" d="M338.17,207.82l-4.31,34.93h-5L330.77,227H314.33l-1.95,15.79h-5l4.28-34.93h5l-1.93,15.52h16.45l1.92-15.52Z" transform="translate(-38.88 -40.72)"/><path class="cls-3" d="M360,238.18a23.83,23.83,0,0,1-2.45,2.21,13.42,13.42,0,0,1-2.45,1.53,10.45,10.45,0,0,1-2.61.89,14.55,14.55,0,0,1-3,.28,9.79,9.79,0,0,1-3.83-.72,8,8,0,0,1-2.91-2,9.09,9.09,0,0,1-1.84-3.17,12.94,12.94,0,0,1-.64-4.17,18.13,18.13,0,0,1,.4-3.81,17.08,17.08,0,0,1,1.18-3.58,16.8,16.8,0,0,1,1.9-3.15,12.62,12.62,0,0,1,2.55-2.51,11.69,11.69,0,0,1,3.17-1.66,11.25,11.25,0,0,1,3.72-.59,9,9,0,0,1,3.28.53,7.18,7.18,0,0,1,2.3,1.38,5.4,5.4,0,0,1,1.35,1.86,5.05,5.05,0,0,1,.44,2,6.66,6.66,0,0,1-.66,3,6.2,6.2,0,0,1-2.39,2.43,17.78,17.78,0,0,1-4.78,1.88A51.37,51.37,0,0,1,345,232a3.37,3.37,0,0,0,0,.44v.44a7.31,7.31,0,0,0,1.38,4.82,5.13,5.13,0,0,0,4.14,1.63,8,8,0,0,0,2-.24,7.77,7.77,0,0,0,1.59-.57,7.29,7.29,0,0,0,1.23-.74l1-.74a7.84,7.84,0,0,1,.84-.57,1.51,1.51,0,0,1,.81-.23.85.85,0,0,1,.47.13,2.41,2.41,0,0,1,.4.33Zm-7-17.1a6.12,6.12,0,0,0-2.68.59,7.39,7.39,0,0,0-2.19,1.66,10,10,0,0,0-1.65,2.48,15.29,15.29,0,0,0-1.07,3.1,49.79,49.79,0,0,0,5.73-1,13.74,13.74,0,0,0,3.32-1.23,3.71,3.71,0,0,0,1.54-1.42,3.47,3.47,0,0,0,.38-1.61,2.32,2.32,0,0,0-.77-1.69,3,3,0,0,0-1-.62A4.51,4.51,0,0,0,353,221.08Z" transform="translate(-38.88 -40.72)"/><path class="cls-3" d="M378.86,236.57a20.41,20.41,0,0,1-1.83,2.69,13.13,13.13,0,0,1-2.1,2.06,9.14,9.14,0,0,1-2.33,1.31,7.13,7.13,0,0,1-2.54.46,6.18,6.18,0,0,1-2.67-.57,5.74,5.74,0,0,1-2.07-1.68A8,8,0,0,1,364,238.1a13.21,13.21,0,0,1-.48-3.74,17.17,17.17,0,0,1,.55-4.29,16.86,16.86,0,0,1,1.57-4,18.19,18.19,0,0,1,2.44-3.4,15.52,15.52,0,0,1,7-4.42,14.56,14.56,0,0,1,4.25-.62,19.31,19.31,0,0,1,3.15.26,13.71,13.71,0,0,1,3.05.88l-3,23.94H380a1.4,1.4,0,0,1-1.24-.47,2.05,2.05,0,0,1-.32-1.16Zm1.66-15.3a12.08,12.08,0,0,0-1.88-.14,8.46,8.46,0,0,0-4.06,1,10.84,10.84,0,0,0-3.3,2.71,13.2,13.2,0,0,0-2.21,4,13.8,13.8,0,0,0-.81,4.71,7.76,7.76,0,0,0,.92,4.24,3,3,0,0,0,2.68,1.4,4,4,0,0,0,2.25-.74,9.31,9.31,0,0,0,2.09-2,17.51,17.51,0,0,0,1.82-3.08,27.82,27.82,0,0,0,1.47-3.87Z" transform="translate(-38.88 -40.72)"/><path class="cls-3" d="M388.81,242.75l4.35-35.9h4.68l-4.36,35.9Z" transform="translate(-38.88 -40.72)"/><path class="cls-3" d="M401.8,238v-.37a6.62,6.62,0,0,1,0-.67q0-.44.12-1.17c.05-.49.13-1.11.23-1.87l1.48-12H401a.76.76,0,0,1-.59-.26.87.87,0,0,1-.16-.76l.22-1.92,3.77-.56,1.89-7.37a1.35,1.35,0,0,1,.41-.65,1,1,0,0,1,.69-.23h2.53l-1,8.3h6.35l-.39,3.45h-6.37l-1.46,11.77c-.08.67-.15,1.2-.2,1.61s-.08.72-.1,1-.05.4-.05.5,0,.17,0,.22a2.39,2.39,0,0,0,.56,1.72,2,2,0,0,0,1.49.59,3.1,3.1,0,0,0,1.06-.17,4.47,4.47,0,0,0,.79-.38c.22-.14.41-.26.57-.38a.74.74,0,0,1,.42-.17.5.5,0,0,1,.34.11,1.07,1.07,0,0,1,.25.36l1,2.28a9.25,9.25,0,0,1-2.78,1.66,8.59,8.59,0,0,1-3.09.58,5.36,5.36,0,0,1-3.84-1.33A5.13,5.13,0,0,1,401.8,238Z" transform="translate(-38.88 -40.72)"/><path class="cls-3" d="M424.33,223.17a14,14,0,0,1,4.18-4.11,8.85,8.85,0,0,1,4.67-1.39,6.1,6.1,0,0,1,2.79.62,5.05,5.05,0,0,1,1.95,1.81,7.74,7.74,0,0,1,1,2.94,14.57,14.57,0,0,1,0,4l-1.85,15.74h-4.74L434.23,227a7.62,7.62,0,0,0-.33-4.11,2.55,2.55,0,0,0-2.5-1.31,4.62,4.62,0,0,0-2.17.58,9.32,9.32,0,0,0-2.17,1.64,13.87,13.87,0,0,0-2,2.58,19,19,0,0,0-1.57,3.37l-1.58,13H417.2l4.35-35.9h4.75Z" transform="translate(-38.88 -40.72)"/><path class="cls-3" d="M444.88,226.21h11.26l-.48,3.89H444.39Z" transform="translate(-38.88 -40.72)"/><path class="cls-3" d="M474.7,207.82a17.8,17.8,0,0,1,4.92.6,9.2,9.2,0,0,1,3.4,1.7,6.79,6.79,0,0,1,2,2.66,9,9,0,0,1,.65,3.46,12.08,12.08,0,0,1-.62,3.9,10.79,10.79,0,0,1-4.56,5.74,13.48,13.48,0,0,1-3.72,1.57,4.35,4.35,0,0,1,1.41,1.61l7.2,13.69h-4.45a1.79,1.79,0,0,1-1.81-1l-6.22-12.26a2.17,2.17,0,0,0-.73-.87,2.63,2.63,0,0,0-1.32-.25h-3L466,242.75h-5l4.26-34.93Zm-2.19,16.88a9.9,9.9,0,0,0,3.55-.58,7.13,7.13,0,0,0,2.56-1.61,6.68,6.68,0,0,0,1.54-2.43,8.72,8.72,0,0,0,.53-3.07,4.87,4.87,0,0,0-1.6-3.91,7.27,7.27,0,0,0-4.83-1.36h-4.4l-1.6,13Z" transform="translate(-38.88 -40.72)"/><path class="cls-3" d="M494.67,242.75h-5l4.26-34.93h5Z" transform="translate(-38.88 -40.72)"/><path class="cls-3" d="M519.7,224.36a19.55,19.55,0,0,1,2-2.76,13.76,13.76,0,0,1,2.25-2.1,9.35,9.35,0,0,1,2.47-1.35,7.46,7.46,0,0,1,2.63-.48A5.89,5.89,0,0,1,534,220c1.19,1.52,1.78,3.78,1.78,6.76a19.63,19.63,0,0,1-.42,4,22.13,22.13,0,0,1-1.19,3.83,18.11,18.11,0,0,1-1.86,3.38,14.12,14.12,0,0,1-2.44,2.7,10.89,10.89,0,0,1-2.88,1.79,8.34,8.34,0,0,1-3.25.64,7.33,7.33,0,0,1-5.74-2.62l-1.29,10.58H512l4-33.06h2.39a1.67,1.67,0,0,1,1.19.39,1.57,1.57,0,0,1,.41,1.21Zm-1.33,12.87a5,5,0,0,0,2.14,1.69,6.61,6.61,0,0,0,2.48.5,5.36,5.36,0,0,0,2.3-.51,7.17,7.17,0,0,0,2-1.4,10.57,10.57,0,0,0,1.59-2.08,14.4,14.4,0,0,0,1.19-2.54,16.34,16.34,0,0,0,.74-2.81,16.9,16.9,0,0,0,.26-2.9,7.5,7.5,0,0,0-1-4.27,3.22,3.22,0,0,0-2.82-1.44,4.33,4.33,0,0,0-2.27.71,9.56,9.56,0,0,0-2.22,2,17.92,17.92,0,0,0-2,3,24.85,24.85,0,0,0-1.61,3.77Z" transform="translate(-38.88 -40.72)"/><path class="cls-3" d="M554.05,236.57a20.41,20.41,0,0,1-1.83,2.69,13.13,13.13,0,0,1-2.1,2.06,9.31,9.31,0,0,1-2.33,1.31,7.13,7.13,0,0,1-2.54.46,6.14,6.14,0,0,1-2.67-.57,5.74,5.74,0,0,1-2.07-1.68,8,8,0,0,1-1.33-2.74,13.21,13.21,0,0,1-.48-3.74,17.22,17.22,0,0,1,2.12-8.25,17.75,17.75,0,0,1,2.44-3.4,15.52,15.52,0,0,1,7-4.42,14.56,14.56,0,0,1,4.25-.62,19.31,19.31,0,0,1,3.15.26,13.87,13.87,0,0,1,3,.88l-3,23.94h-2.48a1.4,1.4,0,0,1-1.24-.47,2.05,2.05,0,0,1-.32-1.16Zm1.66-15.3a12.08,12.08,0,0,0-1.88-.14,8.46,8.46,0,0,0-4.06,1,10.84,10.84,0,0,0-3.3,2.71,13.2,13.2,0,0,0-2.21,4,13.8,13.8,0,0,0-.81,4.71,7.76,7.76,0,0,0,.92,4.24,3,3,0,0,0,2.68,1.4,4,4,0,0,0,2.25-.74,9.31,9.31,0,0,0,2.09-2,17.51,17.51,0,0,0,1.82-3.08,27.82,27.82,0,0,0,1.47-3.87Z" transform="translate(-38.88 -40.72)"/><path class="cls-3" d="M570.49,224.7a20.39,20.39,0,0,1,2.1-3.49,10.36,10.36,0,0,1,2.33-2.31,5.8,5.8,0,0,1,2.52-1,4.7,4.7,0,0,1,2.61.4l-.85,4.57a4.9,4.9,0,0,0-5.49.85q-2.37,2.13-3.82,7.84l-1.37,11.21h-4.64l3-24.76h2.38a1.7,1.7,0,0,1,1.2.39,1.61,1.61,0,0,1,.41,1.21Z" transform="translate(-38.88 -40.72)"/><path class="cls-3" d="M582.66,238v-.37c0-.16,0-.38,0-.67s.07-.68.13-1.17.13-1.11.23-1.87l1.48-12h-2.65a.78.78,0,0,1-.6-.26.94.94,0,0,1-.16-.76l.22-1.92,3.77-.56L587,211a1.34,1.34,0,0,1,.4-.65,1.09,1.09,0,0,1,.7-.23h2.53l-1,8.3h6.35l-.39,3.45h-6.37l-1.46,11.77c-.08.67-.15,1.2-.2,1.61s-.08.72-.11,1,0,.4,0,.5,0,.17,0,.22a2.39,2.39,0,0,0,.56,1.72,2,2,0,0,0,1.49.59,3,3,0,0,0,1.05-.17,4.15,4.15,0,0,0,.79-.38c.23-.14.42-.26.58-.38a.74.74,0,0,1,.42-.17.5.5,0,0,1,.34.11,1.47,1.47,0,0,1,.25.36l1,2.28a9.08,9.08,0,0,1-2.77,1.66,8.59,8.59,0,0,1-3.09.58,5.36,5.36,0,0,1-3.84-1.33A5.13,5.13,0,0,1,582.66,238Z" transform="translate(-38.88 -40.72)"/><path class="cls-3" d="M604.7,224a15.08,15.08,0,0,1,4.4-4.7,9.1,9.1,0,0,1,5-1.58,6,6,0,0,1,2.76.62,5.08,5.08,0,0,1,2,1.81,7.74,7.74,0,0,1,1,2.94,13.52,13.52,0,0,1,0,4L618,242.75h-4.74L615.13,227a7.38,7.38,0,0,0-.33-4.1,2.53,2.53,0,0,0-2.47-1.3,4.89,4.89,0,0,0-2.28.62A9.15,9.15,0,0,0,607.8,224a14.63,14.63,0,0,0-2,2.74,17.44,17.44,0,0,0-1.57,3.58l-1.39,12.45h-4.74L601,218h2.39a1.69,1.69,0,0,1,1.19.39,1.61,1.61,0,0,1,.41,1.21Z" transform="translate(-38.88 -40.72)"/><path class="cls-3" d="M643.67,238.18a25,25,0,0,1-2.46,2.21,13.42,13.42,0,0,1-2.45,1.53,10.45,10.45,0,0,1-2.61.89,14.55,14.55,0,0,1-3,.28,9.79,9.79,0,0,1-3.83-.72,8,8,0,0,1-2.91-2,9.08,9.08,0,0,1-1.83-3.17A12.67,12.67,0,0,1,624,233a18.13,18.13,0,0,1,.4-3.81,17.08,17.08,0,0,1,1.18-3.58,16.8,16.8,0,0,1,1.9-3.15A12.89,12.89,0,0,1,630,220a11.83,11.83,0,0,1,3.17-1.66,11.25,11.25,0,0,1,3.72-.59,9,9,0,0,1,3.28.53,7.18,7.18,0,0,1,2.3,1.38,5.4,5.4,0,0,1,1.35,1.86,5.05,5.05,0,0,1,.44,2,6.66,6.66,0,0,1-.66,3,6.13,6.13,0,0,1-2.39,2.43,17.78,17.78,0,0,1-4.78,1.88,51.16,51.16,0,0,1-7.81,1.29,3.37,3.37,0,0,0,0,.44v.44a7.31,7.31,0,0,0,1.38,4.82,5.13,5.13,0,0,0,4.14,1.63,8,8,0,0,0,2-.24,7.77,7.77,0,0,0,1.59-.57,7.29,7.29,0,0,0,1.23-.74l1-.74a9,9,0,0,1,.83-.57,1.51,1.51,0,0,1,.81-.23.83.83,0,0,1,.47.13,2.41,2.41,0,0,1,.4.33Zm-7.06-17.1a6.15,6.15,0,0,0-2.68.59,7.22,7.22,0,0,0-2.18,1.66,10,10,0,0,0-1.66,2.48,15.29,15.29,0,0,0-1.07,3.1,49.79,49.79,0,0,0,5.73-1,13.74,13.74,0,0,0,3.32-1.23,3.71,3.71,0,0,0,1.54-1.42,3.47,3.47,0,0,0,.38-1.61,2.33,2.33,0,0,0-.18-.86,2.41,2.41,0,0,0-.58-.83,3.14,3.14,0,0,0-1.05-.62A4.51,4.51,0,0,0,636.61,221.08Z" transform="translate(-38.88 -40.72)"/><path class="cls-3" d="M654,224.7a20.39,20.39,0,0,1,2.1-3.49,10.36,10.36,0,0,1,2.33-2.31,5.8,5.8,0,0,1,2.52-1,4.7,4.7,0,0,1,2.61.4l-.85,4.57a4.9,4.9,0,0,0-5.49.85q-2.37,2.13-3.82,7.84L652,242.75h-4.64l3-24.76h2.38a1.7,1.7,0,0,1,1.2.39,1.61,1.61,0,0,1,.41,1.21Z" transform="translate(-38.88 -40.72)"/></svg>