<svg id="Layer_1" data-name="Layer 1" xmlns="http://www.w3.org/2000/svg" viewBox="0 0 166 125.03"><defs><style>.cls-1{fill:#ee7601;}.cls-2{fill:#544f4c;}</style></defs><title>timelineArtboard 1</title><path class="cls-1" d="M156.61,0a9.39,9.39,0,0,0-8.26,13.88c-.93.47-3.11,1.56-6.16,3.15a7,7,0,0,0-13.28,3.06,6.92,6.92,0,0,0,1,3.53L125,26.34a5.49,5.49,0,0,0-9.49,5.51q-2.59,1.55-5.21,3.17a4,4,0,0,0-2.59-1,4,4,0,0,0-4,4,3.94,3.94,0,0,0,.14,1,187.65,187.65,0,0,0-19.19,14C78.3,38.91,68.94,23.32,55.91,10.64c0,0,0,0,0,0-1.52-1.51-2.79-.84-1,1l.06.07C66,23.6,74.65,40.82,80.57,56.53c-22.46,19.18-47.22,56.33-20.08,68,3.95,1.71,5.75-1.54,4.05-2.55-.31-.17-12.39-6.71-4.71-26.78H79.17a1.88,1.88,0,1,0,0-3.75H61.43a76.08,76.08,0,0,1,3.83-7.1H79.17a1.88,1.88,0,0,0,0-3.76H67.65c1.44-2.14,3-4.39,4.86-6.74h6.66a1.88,1.88,0,0,0,0-3.76H75.49q3.15-3.84,7-8l.07-.07c5.1,14.77,7.56,27.35,7,31.56a4.38,4.38,0,0,1-2.36,3.52c-1,.45-1.34,1.76.15,2.2,4.75,1.4,7.67-3.31,8.2-7.1s-2.07-17.8-8.93-34.46a175,175,0,0,1,19.1-16.15,3.86,3.86,0,0,0,2,.54,4,4,0,0,0,4-4,3.42,3.42,0,0,0-.08-.79c1.8-1.25,3.58-2.47,5.34-3.64a5.49,5.49,0,0,0,8.92-4.29,5.83,5.83,0,0,0-.16-1.33q2.64-1.63,5.1-3.11a7,7,0,0,0,11.77-6.79c3-1.66,5.16-2.84,6.23-3.45A9.39,9.39,0,1,0,156.61,0Z"/><path class="cls-2" d="M49.7,75.21c.35-.76.64-1.58,1-2.57a24.92,24.92,0,0,0,1-3.45l3.57-15.45c.29-1.58.52-2.75.59-3.45A9.54,9.54,0,0,0,56,48.41v-.7H64L59.18,69.19c-.35,1.52-.58,2.69-.7,3.51a12.07,12.07,0,0,0-.18,2.51Z"/><path class="cls-2" d="M29.56,75.21H5.62c-2.4,0-4-.52-4.92-1.63A4.45,4.45,0,0,1,0,70.94a12.52,12.52,0,0,1,.41-3l3-13C4,52.33,5,50.46,6.26,49.34a8.54,8.54,0,0,1,5.62-1.63H29.56c2.51,0,4.15.53,5,1.63a4.17,4.17,0,0,1,.76,2.7A11.48,11.48,0,0,1,34.88,55L33,63.57H8.89L7.61,69.19a7.39,7.39,0,0,0-.18,1.34c0,.3,0,.53.12.65.17.35.7.53,1.52.53H26.63a21.11,21.11,0,0,0,4.56-.47ZM27.68,53.74a4.6,4.6,0,0,0,.24-1.41,1.66,1.66,0,0,0-.12-.58,2,2,0,0,0-1.64-.53H13.75a2.41,2.41,0,0,0-1.75.53,3,3,0,0,0-.82,2L9.71,60.05H26.22Z"/><path class="cls-2" d="M35.52,75.21c.37-.85.68-1.77,1.06-2.88a29.89,29.89,0,0,0,1.05-3.87L43.78,40c.37-1.77.62-3.08.74-3.87s.13-1.7.13-2.89h8.57L45.58,68.46c-.37,1.7-.62,3-.75,3.93a15.27,15.27,0,0,0-.18,2.82Z"/><path class="cls-2" d="M96.4,75.21c.35-.76.64-1.58,1-2.57a25,25,0,0,0,1-3.45L102,53.74c.29-1.58.52-2.75.58-3.45a8.76,8.76,0,0,0,.12-1.88v-.7h8.07l-4.85,21.48c-.35,1.52-.59,2.69-.7,3.51a12.07,12.07,0,0,0-.18,2.51Z"/><path class="cls-2" d="M134.27,52.33c-.89,0-1.76-.11-2.75-.11h-3.93a2.88,2.88,0,0,0-1.75.46,3.13,3.13,0,0,0-1,1.81l-3.28,14.7a21.93,21.93,0,0,0-.82,5.38v.64H112.2c.35-.87.7-1.7.94-2.51s.53-1.93.94-3.51l3.51-15.45c.4-1.52.58-2.7.76-3.58a16.76,16.76,0,0,0,.12-2.45h7.19l-.29,2.81a5.05,5.05,0,0,1,1.81-2.11,5.83,5.83,0,0,1,3.11-.7h7l1.69,3a7.49,7.49,0,0,0-1,1.11c-.41.53-.7.76-.88.76C136.08,52.51,135.14,52.39,134.27,52.33Z"/><path class="cls-2" d="M65.39,38.09a4,4,0,1,1-4-4A4,4,0,0,1,65.39,38.09Z"/></svg>