<?xml version="1.0" encoding="UTF-8" ?>
<!DOCTYPE svg PUBLIC "-//W3C//DTD SVG 1.1//EN" "http://www.w3.org/Graphics/SVG/1.1/DTD/svg11.dtd">
<svg width="1000pt" height="349pt" viewBox="0 0 1000 349" version="1.1" xmlns="http://www.w3.org/2000/svg">
<g id="#9ac331ff">
<path fill="#9ac331" opacity="1.00" d=" M 401.60 65.61 C 413.29 58.55 429.96 61.87 437.82 73.11 C 445.44 83.04 444.85 98.08 436.65 107.49 C 430.74 114.56 421.13 118.28 412.00 117.00 C 395.83 115.27 379.64 126.55 375.30 142.16 C 370.65 156.53 376.92 173.23 389.44 181.49 C 394.48 185.23 401.11 185.97 405.95 190.05 C 414.92 196.93 418.77 209.59 415.21 220.31 C 413.34 226.56 408.99 231.79 403.62 235.39 C 406.99 227.58 407.30 218.30 403.30 210.66 C 398.58 200.99 387.81 194.82 377.09 195.51 C 372.49 195.72 368.09 197.30 364.01 199.33 C 370.10 191.24 374.25 181.15 372.75 170.87 C 371.04 154.82 357.08 141.15 340.97 139.89 C 329.75 138.50 318.95 143.70 310.93 151.23 C 313.01 146.46 313.97 141.20 313.45 136.01 C 312.69 126.60 306.54 117.92 298.03 113.91 C 289.62 109.82 279.20 110.40 271.27 115.33 C 274.23 109.79 278.74 104.99 284.56 102.45 C 295.05 97.46 308.54 99.96 316.42 108.53 C 320.79 112.85 322.12 119.18 326.11 123.78 C 332.99 132.35 343.93 137.59 354.97 137.02 C 369.74 136.76 383.51 126.06 387.57 111.88 C 389.39 106.15 389.41 99.97 388.26 94.10 C 386.19 83.05 391.78 71.08 401.60 65.61 Z" />
</g>
<g id="#009b3cff">
<path fill="#009b3c" opacity="1.00" d=" M 271.27 115.33 C 279.20 110.40 289.62 109.82 298.03 113.91 C 306.54 117.92 312.69 126.60 313.45 136.01 C 313.97 141.20 313.01 146.46 310.93 151.23 C 310.80 151.43 310.54 151.83 310.40 152.02 C 304.02 154.30 297.13 156.20 290.35 154.54 C 280.32 152.61 271.91 144.51 269.44 134.63 C 268.12 128.58 269.20 122.38 269.62 116.30 C 270.03 116.06 270.86 115.58 271.27 115.33 Z" />
<path fill="#009b3c" opacity="1.00" d=" M 364.01 199.33 C 368.09 197.30 372.49 195.72 377.09 195.51 C 387.81 194.82 398.58 200.99 403.30 210.66 C 407.30 218.30 406.99 227.58 403.62 235.39 C 403.55 235.50 403.39 235.71 403.31 235.81 C 393.98 240.43 381.94 241.02 373.20 234.77 C 366.55 230.62 362.64 223.18 361.40 215.60 C 360.68 210.50 361.90 205.42 362.71 200.41 C 363.14 200.05 363.57 199.69 364.01 199.33 Z" />
</g>
<g id="#13a237ff">
<path fill="#13a237" opacity="1.00" d=" M 258.92 132.92 C 260.21 126.24 264.38 120.48 269.62 116.30 C 269.20 122.38 268.12 128.58 269.44 134.63 C 271.91 144.51 280.32 152.61 290.35 154.54 C 297.13 156.20 304.02 154.30 310.40 152.02 C 304.18 160.24 300.32 170.72 302.25 181.10 C 304.43 196.34 317.61 209.06 332.92 210.72 C 343.84 212.31 354.78 207.80 362.71 200.41 C 361.90 205.42 360.68 210.50 361.40 215.60 C 362.64 223.18 366.55 230.62 373.20 234.77 C 381.94 241.02 393.98 240.43 403.31 235.81 C 400.36 241.15 395.91 245.75 390.29 248.25 C 379.89 253.23 366.54 250.83 358.61 242.44 C 353.86 237.79 352.53 230.87 347.99 226.06 C 338.23 214.30 320.53 210.26 306.66 216.73 C 294.50 222.05 285.98 234.70 285.73 247.99 C 285.42 253.40 287.62 258.66 286.81 264.08 C 285.90 274.02 279.09 283.09 269.82 286.78 C 258.56 291.54 244.35 287.79 237.15 277.84 C 230.87 269.62 229.82 257.83 234.55 248.64 C 238.30 241.10 245.70 235.55 253.95 233.98 C 259.86 232.67 265.92 234.70 271.83 233.33 C 285.95 230.98 297.80 219.23 300.36 205.15 C 303.24 191.20 296.52 175.92 284.34 168.56 C 279.98 165.65 274.61 164.76 270.32 161.74 C 261.13 155.64 256.49 143.64 258.92 132.92 Z" />
</g>
<g id="#1d1d1bff">
<path fill="#1d1d1b" opacity="1.00" d=" M 239.49 165.72 C 249.54 163.54 260.74 165.52 268.72 172.23 C 281.40 182.46 283.32 202.83 273.45 215.60 C 265.88 225.84 251.95 229.95 239.77 227.18 C 229.09 224.98 219.86 216.74 216.77 206.23 C 212.98 194.36 216.46 180.20 226.26 172.23 C 230.06 169.05 234.67 166.85 239.49 165.72 M 241.19 174.22 C 235.80 175.69 230.89 179.16 228.05 184.02 C 222.47 193.08 223.87 205.95 231.66 213.30 C 240.09 221.48 254.82 221.49 263.29 213.37 C 272.76 204.55 272.63 187.67 262.93 179.08 C 257.16 173.79 248.64 172.32 241.19 174.22 Z" />
<path fill="#1d1d1b" opacity="1.00" d=" M 530.19 165.31 C 540.91 163.59 552.66 166.79 560.09 174.96 C 570.78 186.38 570.92 205.85 560.42 217.44 C 549.63 229.78 529.25 231.46 516.23 221.75 C 502.32 211.86 499.72 190.31 510.15 177.01 C 514.96 170.68 522.35 166.50 530.19 165.31 M 528.37 174.61 C 518.21 177.71 511.86 188.79 513.31 199.15 C 514.05 206.52 518.53 213.53 525.21 216.88 C 533.99 221.51 545.74 219.84 552.60 212.57 C 560.79 203.95 560.89 188.98 552.70 180.33 C 546.66 173.79 536.67 171.92 528.37 174.61 Z" />
<path fill="#1d1d1b" opacity="1.00" d=" M 732.79 174.83 C 743.91 162.75 765.22 161.11 777.11 172.91 C 781.97 177.45 784.35 183.96 784.92 190.47 C 781.98 190.50 779.05 190.51 776.13 190.53 C 775.20 185.46 773.19 180.21 768.77 177.18 C 760.05 170.89 746.78 172.71 739.71 180.71 C 732.14 189.09 731.85 203.05 739.29 211.61 C 746.46 220.27 760.32 222.01 769.57 215.78 C 772.91 213.60 774.71 209.94 776.07 206.32 C 769.46 206.18 762.86 206.28 756.26 206.25 C 756.25 203.42 756.25 200.58 756.26 197.75 C 765.86 197.75 775.46 197.75 785.07 197.75 C 785.36 205.86 783.50 214.59 777.34 220.31 C 765.03 231.87 743.42 230.06 732.43 217.53 C 721.81 205.93 721.83 186.20 732.79 174.83 Z" />
<path fill="#1d1d1b" opacity="1.00" d=" M 888.68 174.67 C 899.56 163.06 919.90 161.22 931.94 172.06 C 937.31 176.65 940.06 183.55 940.69 190.47 C 937.71 190.50 934.75 190.50 931.79 190.50 C 930.99 186.45 929.82 182.25 926.83 179.23 C 921.49 173.49 912.74 172.30 905.46 174.38 C 897.86 176.58 891.83 183.21 890.20 190.94 C 888.33 198.83 890.66 207.77 896.68 213.34 C 904.06 220.46 916.41 221.50 925.00 215.99 C 928.49 213.82 930.45 210.06 931.81 206.31 C 925.20 206.19 918.60 206.28 912.00 206.25 C 911.99 203.42 911.99 200.58 912.00 197.75 C 921.61 197.76 931.23 197.71 940.85 197.78 C 941.02 205.82 939.30 214.49 933.20 220.20 C 921.14 231.66 899.94 230.18 888.76 218.17 C 877.49 206.66 877.36 186.20 888.68 174.67 Z" />
<path fill="#1d1d1b" opacity="1.00" d=" M 61.52 227.26 C 61.48 206.75 61.48 186.25 61.52 165.74 C 73.26 165.76 85.00 165.74 96.75 165.75 C 96.75 168.50 96.75 171.24 96.76 173.99 C 88.09 174.01 79.42 173.99 70.75 174.00 C 70.75 180.08 70.75 186.17 70.75 192.25 C 78.83 192.25 86.91 192.25 95.00 192.25 C 95.00 195.08 95.00 197.92 94.99 200.75 C 86.91 200.74 78.83 200.75 70.75 200.75 C 70.75 206.75 70.74 212.75 70.75 218.75 C 79.50 218.75 88.25 218.75 97.00 218.75 C 97.00 221.58 97.00 224.41 97.00 227.25 C 85.17 227.26 73.35 227.24 61.52 227.26 Z" />
<path fill="#1d1d1b" opacity="1.00" d=" M 106.00 165.75 C 109.16 165.75 112.31 165.75 115.47 165.73 C 115.54 177.51 115.49 189.28 115.49 201.06 C 115.45 205.74 116.65 210.64 119.88 214.17 C 125.93 221.01 137.98 220.90 143.91 213.95 C 147.26 210.13 148.25 204.90 148.25 199.97 C 148.26 188.56 148.25 177.16 148.25 165.76 C 151.33 165.75 154.41 165.75 157.50 165.75 C 157.50 177.50 157.51 189.26 157.51 201.02 C 157.52 207.80 155.51 214.76 150.93 219.88 C 140.97 231.23 120.56 230.66 111.47 218.50 C 107.37 213.28 105.97 206.50 105.99 199.99 C 106.00 188.58 106.00 177.17 106.00 165.75 Z" />
<path fill="#1d1d1b" opacity="1.00" d=" M 170.50 165.75 C 176.01 165.79 181.52 165.66 187.04 165.78 C 194.47 166.05 202.25 169.05 206.69 175.26 C 211.50 182.09 211.25 192.30 205.43 198.46 C 201.50 203.00 195.57 204.96 189.85 206.06 C 197.56 213.09 205.24 220.14 212.89 227.23 C 208.57 227.26 204.25 227.25 199.93 227.25 C 193.23 220.87 186.45 214.57 179.74 208.19 C 179.75 214.55 179.75 220.90 179.74 227.25 C 176.66 227.25 173.59 227.25 170.51 227.27 C 170.48 206.76 170.50 186.26 170.50 165.75 M 179.75 173.94 C 179.75 181.97 179.75 190.00 179.75 198.03 C 185.90 198.11 192.96 198.17 197.71 193.61 C 202.27 189.29 201.47 181.20 196.48 177.55 C 191.75 173.88 185.43 174.06 179.75 173.94 Z" />
<path fill="#1d1d1b" opacity="1.00" d=" M 431.00 165.75 C 438.34 165.77 445.67 165.72 453.01 165.74 C 458.37 165.76 464.00 167.16 468.06 170.83 C 472.93 175.16 474.08 182.74 471.46 188.57 C 470.24 191.32 467.85 193.27 465.65 195.23 C 474.25 199.34 477.18 211.07 472.16 218.98 C 468.49 224.69 461.38 226.93 454.92 227.17 C 446.95 227.38 438.97 227.19 431.00 227.25 C 431.00 206.75 431.00 186.25 431.00 165.75 M 440.25 174.01 C 440.25 179.84 440.25 185.67 440.25 191.50 C 447.02 191.10 454.73 193.00 460.60 188.63 C 465.21 185.51 464.61 177.55 459.36 175.43 C 453.31 172.99 446.59 174.33 440.25 174.01 M 440.25 199.76 C 440.25 206.09 440.25 212.42 440.25 218.75 C 447.13 218.22 454.56 220.16 461.01 217.04 C 466.64 214.36 466.90 205.43 461.57 202.30 C 455.14 198.54 447.33 200.06 440.25 199.76 Z" />
<path fill="#1d1d1b" opacity="1.00" d=" M 484.75 165.75 C 487.83 165.75 490.91 165.75 494.00 165.75 C 494.00 186.25 494.00 206.75 494.00 227.25 C 490.91 227.25 487.83 227.25 484.75 227.25 C 484.75 206.75 484.75 186.25 484.75 165.75 Z" />
<path fill="#1d1d1b" opacity="1.00" d=" M 578.00 165.75 C 581.08 165.75 584.16 165.75 587.25 165.75 C 587.25 186.25 587.25 206.75 587.25 227.25 C 584.16 227.25 581.08 227.25 578.00 227.25 C 578.00 206.75 578.00 186.25 578.00 165.75 Z" />
<path fill="#1d1d1b" opacity="1.00" d=" M 601.25 165.76 C 603.88 165.75 606.53 165.75 609.17 165.74 C 616.18 176.42 623.11 187.15 630.10 197.85 C 637.07 187.14 644.08 176.46 651.06 165.75 C 653.70 165.75 656.35 165.75 659.00 165.75 C 659.00 186.25 659.00 206.75 659.00 227.25 C 656.08 227.25 653.16 227.25 650.25 227.24 C 650.20 212.36 650.37 197.49 650.15 182.61 C 644.17 191.26 638.68 200.24 632.85 208.99 C 631.14 209.00 629.42 209.02 627.72 209.04 C 621.79 200.18 615.82 191.35 610.03 182.40 C 609.95 197.35 610.02 212.30 610.00 227.25 C 607.08 227.25 604.16 227.25 601.25 227.24 C 601.25 206.75 601.26 186.26 601.25 165.76 Z" />
<path fill="#1d1d1b" opacity="1.00" d=" M 664.52 227.22 C 672.92 206.72 681.36 186.24 689.77 165.75 C 692.97 165.75 696.18 165.75 699.40 165.73 C 707.69 186.20 715.82 206.75 724.05 227.25 C 720.73 227.25 717.40 227.25 714.09 227.25 C 712.23 222.45 710.36 217.66 708.60 212.83 C 699.12 212.65 689.64 212.81 680.17 212.73 C 678.22 217.59 676.25 222.43 674.25 227.27 C 671.00 227.25 667.76 227.25 664.52 227.22 M 694.59 176.71 C 690.92 185.79 687.28 194.89 683.67 203.99 C 690.82 204.01 697.98 204.00 705.14 204.00 C 701.63 194.90 698.09 185.81 694.59 176.71 Z" />
<path fill="#1d1d1b" opacity="1.00" d=" M 794.75 165.75 C 797.83 165.75 800.91 165.75 804.00 165.75 C 804.00 186.25 804.00 206.75 804.00 227.25 C 800.91 227.25 797.83 227.25 794.75 227.25 C 794.75 206.75 794.75 186.25 794.75 165.75 Z" />
<path fill="#1d1d1b" opacity="1.00" d=" M 818.25 165.75 C 820.48 165.75 822.72 165.75 824.96 165.75 C 837.24 181.17 849.47 196.62 861.73 212.05 C 861.77 196.62 861.73 181.19 861.75 165.76 C 864.66 165.75 867.56 165.75 870.48 165.74 C 870.50 186.25 870.54 206.77 870.46 227.28 C 867.99 227.26 865.52 227.24 863.06 227.22 C 850.94 212.21 838.94 197.09 826.76 182.13 C 826.73 197.17 826.75 212.21 826.75 227.25 C 823.91 227.25 821.07 227.24 818.24 227.23 C 818.27 206.74 818.24 186.25 818.25 165.75 Z" />
<path fill="#1d1d1b" opacity="1.00" d=" M 546.00 251.00 C 547.58 251.00 549.16 251.00 550.76 251.01 C 550.77 258.33 550.70 265.66 550.75 272.98 C 550.52 274.61 551.22 276.00 552.58 276.90 C 552.78 278.01 552.99 279.12 553.21 280.23 C 550.59 280.30 546.54 280.51 546.20 277.01 C 545.69 268.36 546.15 259.66 546.00 251.00 Z" />
<path fill="#1d1d1b" opacity="1.00" d=" M 558.10 251.11 C 560.00 250.44 562.64 251.75 562.28 254.02 C 562.35 257.18 556.92 257.51 556.37 254.54 C 555.76 253.10 556.82 251.69 558.10 251.11 Z" />
<path fill="#1d1d1b" opacity="1.00" d=" M 569.72 252.62 C 571.81 249.93 575.57 250.93 578.50 250.87 C 578.32 252.13 578.15 253.39 577.98 254.65 C 576.56 254.85 574.64 254.11 573.64 255.47 C 573.08 256.82 573.00 258.30 572.75 259.73 C 574.16 259.74 575.58 259.75 577.00 259.76 C 576.99 261.09 576.99 262.42 576.99 263.75 C 575.65 263.75 574.33 263.75 573.00 263.75 C 573.00 269.08 573.00 274.42 572.99 279.75 C 571.41 279.75 569.83 279.74 568.25 279.75 C 568.25 274.42 568.25 269.10 568.25 263.78 C 567.56 263.76 566.19 263.73 565.51 263.72 C 565.48 262.55 565.46 261.39 565.44 260.23 C 566.33 259.97 567.23 259.72 568.15 259.50 C 568.38 257.19 567.98 254.47 569.72 252.62 Z" />
<path fill="#1d1d1b" opacity="1.00" d=" M 631.47 251.00 C 633.14 251.00 634.82 251.00 636.50 251.00 C 636.51 260.61 636.48 270.22 636.52 279.82 C 634.81 279.64 632.61 280.24 631.76 278.27 C 628.40 280.74 623.19 281.20 620.44 277.59 C 616.60 272.28 617.37 262.79 623.84 259.84 C 626.51 258.50 629.37 259.73 631.86 260.86 C 631.48 257.58 631.45 254.29 631.47 251.00 M 625.39 264.20 C 622.42 267.01 622.37 272.63 625.33 275.46 C 627.36 277.22 629.64 275.37 631.55 274.43 C 631.48 271.11 631.48 267.80 631.53 264.49 C 629.56 264.01 627.16 262.46 625.39 264.20 Z" />
<path fill="#1d1d1b" opacity="1.00" d=" M 643.19 251.19 C 645.08 250.43 647.80 251.57 647.57 253.90 C 647.75 256.36 644.87 256.85 643.05 256.42 C 641.00 255.29 641.02 252.13 643.19 251.19 Z" />
<path fill="#1d1d1b" opacity="1.00" d=" M 787.24 251.01 C 788.91 251.00 790.58 251.00 792.27 251.00 C 792.28 254.62 792.22 258.24 791.94 261.86 C 794.04 260.49 796.30 258.81 798.98 259.27 C 801.94 259.29 804.19 262.09 804.17 264.95 C 804.43 269.87 804.17 274.81 804.25 279.74 C 802.65 279.74 801.07 279.74 799.49 279.75 C 799.34 275.09 799.86 270.38 799.24 265.76 C 798.77 262.08 793.37 263.41 792.41 266.05 C 791.98 270.60 792.36 275.19 792.25 279.76 C 790.57 279.75 788.91 279.75 787.25 279.75 C 787.25 270.17 787.26 260.59 787.24 251.01 Z" />
<path fill="#1d1d1b" opacity="1.00" d=" M 841.19 252.12 C 843.40 250.00 846.74 250.97 849.49 250.87 C 849.29 252.13 849.11 253.40 848.94 254.66 C 848.20 254.67 846.72 254.69 845.98 254.70 C 843.58 255.02 844.33 258.04 843.75 259.73 C 845.16 259.74 846.57 259.75 848.00 259.76 C 847.99 261.09 847.98 262.42 847.99 263.75 C 846.65 263.75 845.32 263.75 844.00 263.75 C 843.99 269.08 844.00 274.42 843.99 279.76 C 842.40 279.75 840.82 279.74 839.25 279.74 C 839.25 274.42 839.25 269.10 839.25 263.78 C 838.56 263.76 837.19 263.73 836.51 263.72 C 836.48 262.52 836.46 261.33 836.45 260.14 C 837.11 260.03 838.43 259.79 839.09 259.67 C 839.35 257.09 838.99 253.99 841.19 252.12 Z" />
<path fill="#1d1d1b" opacity="1.00" d=" M 431.01 253.25 C 432.66 253.25 434.32 253.24 435.99 253.25 C 436.00 262.08 436.00 270.92 435.99 279.75 C 434.33 279.75 432.66 279.75 431.01 279.75 C 431.00 270.92 431.00 262.08 431.01 253.25 Z" />
<path fill="#1d1d1b" opacity="1.00" d=" M 874.57 254.24 C 875.95 254.24 877.34 254.25 878.75 254.26 C 878.74 256.08 878.73 257.91 878.75 259.74 C 880.40 259.74 882.07 259.74 883.74 259.75 C 883.73 261.08 883.73 262.41 883.75 263.74 C 882.08 263.74 880.41 263.75 878.76 263.76 C 878.80 267.49 878.48 271.25 878.99 274.97 C 879.90 276.67 882.01 276.02 883.60 276.28 C 883.80 277.10 884.21 278.75 884.42 279.57 C 881.15 280.43 876.51 281.03 874.64 277.46 C 872.98 273.11 874.00 268.30 873.75 263.75 C 873.06 263.75 871.69 263.74 871.00 263.74 C 871.00 262.81 871.00 260.97 871.00 260.04 C 871.75 259.95 873.24 259.76 873.99 259.67 C 874.18 257.86 874.36 256.05 874.57 254.24 Z" />
<path fill="#1d1d1b" opacity="1.00" d=" M 774.24 254.29 C 775.56 254.27 776.90 254.25 778.25 254.24 C 778.23 256.07 778.25 257.91 778.25 259.75 C 779.91 259.75 781.57 259.75 783.24 259.75 C 783.25 260.75 783.25 262.74 783.26 263.74 C 781.58 263.74 779.92 263.74 778.26 263.75 C 778.31 267.34 777.94 270.97 778.58 274.53 C 778.99 276.70 781.67 276.04 783.25 276.17 C 783.51 277.38 783.76 278.58 784.04 279.80 C 780.60 280.37 775.65 280.97 774.10 276.94 C 772.88 272.67 773.71 268.14 773.50 263.77 C 772.75 263.76 771.26 263.74 770.51 263.73 C 770.48 262.53 770.46 261.33 770.45 260.13 C 771.52 259.96 772.61 259.80 773.70 259.64 C 773.87 257.85 774.04 256.07 774.24 254.29 Z" />
<path fill="#1d1d1b" opacity="1.00" d=" M 446.25 262.15 C 448.30 260.84 450.34 258.99 452.95 259.22 C 455.13 259.12 456.68 260.83 458.22 262.11 C 460.45 260.55 462.95 258.55 465.88 259.37 C 468.62 259.72 470.28 262.42 470.39 265.01 C 470.70 269.92 470.41 274.83 470.50 279.75 C 468.91 279.74 467.32 279.74 465.74 279.74 C 465.50 274.80 466.38 269.69 465.15 264.85 C 463.44 262.01 460.64 264.48 458.68 265.64 C 458.79 270.34 458.74 275.04 458.75 279.74 C 457.16 279.75 455.58 279.75 454.00 279.76 C 453.86 274.95 454.43 270.08 453.53 265.34 C 452.53 262.16 448.29 263.68 447.14 265.94 C 446.76 270.53 447.09 275.15 447.00 279.75 C 445.33 279.75 443.66 279.75 442.00 279.75 C 441.99 273.08 442.00 266.42 442.00 259.75 C 443.40 259.75 444.81 259.75 446.21 259.75 C 446.22 260.35 446.24 261.55 446.25 262.15 Z" />
<path fill="#1d1d1b" opacity="1.00" d=" M 475.74 261.80 C 479.25 260.04 483.31 258.32 487.26 259.71 C 489.70 260.46 491.11 262.93 491.41 265.34 C 492.01 270.18 491.70 275.07 491.72 279.93 C 490.05 279.53 487.66 280.29 486.88 278.19 C 484.50 279.48 481.80 280.96 479.02 279.99 C 474.53 278.87 473.77 271.87 477.56 269.51 C 480.45 267.65 483.99 267.38 487.26 266.61 C 486.24 265.41 485.65 263.46 483.87 263.26 C 481.62 263.11 479.61 264.34 477.59 265.10 C 476.96 264.00 476.34 262.90 475.74 261.80 M 479.97 273.99 C 479.73 276.96 483.92 276.78 485.50 275.29 C 487.40 274.23 486.46 271.62 486.88 269.86 C 484.48 270.68 480.18 270.71 479.97 273.99 Z" />
<path fill="#1d1d1b" opacity="1.00" d=" M 521.29 260.20 C 524.65 258.44 529.49 259.01 531.74 262.28 C 533.57 264.78 533.41 268.03 533.60 270.97 C 529.22 271.02 524.85 270.95 520.47 271.07 C 521.40 272.86 521.99 275.23 524.13 275.98 C 526.49 277.13 528.96 275.74 531.26 275.12 C 531.80 276.17 532.35 277.23 532.91 278.29 C 529.35 279.97 525.12 281.21 521.38 279.31 C 514.08 275.91 514.16 263.74 521.29 260.20 M 520.40 267.93 C 523.46 268.02 526.53 268.02 529.61 267.94 C 528.83 266.02 528.37 263.29 525.84 263.08 C 522.86 262.80 521.33 265.58 520.40 267.93 Z" />
<path fill="#1d1d1b" opacity="1.00" d=" M 583.43 260.36 C 586.74 258.48 591.47 258.90 593.94 261.98 C 596.01 264.46 595.83 267.87 596.12 270.90 C 591.67 271.04 587.23 270.94 582.80 271.11 C 583.81 272.73 584.37 274.91 586.24 275.79 C 588.66 277.24 591.35 275.77 593.78 275.11 C 594.29 276.15 594.81 277.20 595.34 278.24 C 591.93 279.82 587.98 281.17 584.32 279.55 C 576.67 276.59 576.40 264.18 583.43 260.36 M 582.82 267.91 C 585.90 268.02 588.99 268.02 592.08 267.91 C 591.15 266.00 590.78 262.96 588.03 263.16 C 585.11 262.70 583.83 265.78 582.82 267.91 Z" />
<path fill="#1d1d1b" opacity="1.00" d=" M 656.33 259.52 C 659.70 258.53 663.02 260.00 665.93 261.57 C 665.15 262.56 664.38 263.55 663.62 264.54 C 662.09 263.96 660.62 263.21 659.00 262.96 C 657.46 262.83 655.11 264.78 656.80 266.14 C 659.09 267.68 661.93 268.19 664.18 269.82 C 667.18 272.16 666.53 277.57 663.08 279.18 C 658.99 281.42 654.21 279.90 650.48 277.69 C 651.23 276.57 651.99 275.45 652.76 274.34 C 655.36 275.88 660.45 278.42 661.68 274.00 C 659.18 270.96 654.34 271.13 652.20 267.67 C 650.48 264.44 652.83 260.21 656.33 259.52 Z" />
<path fill="#1d1d1b" opacity="1.00" d=" M 674.28 260.21 C 677.74 258.45 681.86 259.22 684.85 261.56 C 684.09 262.56 683.34 263.56 682.59 264.57 C 680.92 264.10 679.20 262.78 677.42 263.55 C 671.80 265.52 672.54 276.09 678.94 276.30 C 680.37 275.88 681.73 275.25 683.12 274.68 C 683.80 275.74 684.50 276.80 685.20 277.88 C 682.19 279.65 678.60 281.12 675.12 279.79 C 666.76 277.31 666.46 263.59 674.28 260.21 Z" />
<path fill="#1d1d1b" opacity="1.00" d=" M 693.42 259.55 C 697.94 258.23 703.03 260.94 704.60 265.34 C 705.94 269.37 705.53 274.35 702.51 277.54 C 699.42 280.75 694.00 281.17 690.39 278.61 C 683.82 274.00 685.19 261.50 693.42 259.55 M 694.42 263.56 C 689.89 265.90 690.05 274.54 695.09 276.18 C 702.58 276.92 702.01 261.52 694.42 263.56 Z" />
<path fill="#1d1d1b" opacity="1.00" d=" M 732.49 260.50 C 735.97 258.40 741.26 258.85 743.64 262.41 C 745.43 264.88 745.18 268.09 745.37 270.99 C 741.00 271.01 736.65 270.95 732.29 271.08 C 733.27 272.88 733.86 275.40 736.13 276.02 C 738.44 277.07 740.80 275.74 743.02 275.10 C 743.60 276.15 744.19 277.20 744.78 278.26 C 741.14 280.04 736.71 281.24 732.92 279.17 C 726.04 275.69 726.12 264.45 732.49 260.50 M 732.20 267.91 C 735.25 268.01 738.31 268.02 741.38 267.95 C 740.74 265.84 739.84 262.56 736.93 263.15 C 734.22 263.15 733.26 265.94 732.20 267.91 Z" />
<path fill="#1d1d1b" opacity="1.00" d=" M 753.70 262.92 C 755.64 260.27 758.50 258.79 761.84 259.17 C 761.63 260.65 761.42 262.14 761.20 263.63 C 758.42 263.48 755.29 264.41 754.49 267.42 C 753.92 271.49 754.36 275.64 754.26 279.74 C 752.67 279.74 751.08 279.74 749.50 279.75 C 749.49 273.08 749.49 266.41 749.50 259.74 C 750.53 259.75 752.59 259.76 753.62 259.77 C 753.64 260.55 753.68 262.13 753.70 262.92 Z" />
<path fill="#1d1d1b" opacity="1.00" d=" M 809.85 263.84 C 812.35 259.32 819.04 257.60 823.07 261.09 C 825.95 263.48 825.86 267.51 826.11 270.91 C 821.67 271.04 817.23 270.95 812.80 271.11 C 813.81 272.73 814.36 274.90 816.23 275.78 C 818.65 277.24 821.34 275.77 823.78 275.11 C 824.29 276.15 824.80 277.20 825.34 278.24 C 821.74 279.96 817.43 281.26 813.67 279.25 C 808.07 276.60 807.15 268.85 809.85 263.84 M 812.82 267.91 C 815.90 268.01 818.98 268.01 822.06 267.91 C 821.23 265.95 820.75 262.97 818.00 263.15 C 815.09 262.73 813.83 265.79 812.82 267.91 Z" />
<path fill="#1d1d1b" opacity="1.00" d=" M 887.26 259.74 C 888.83 259.74 890.42 259.75 892.01 259.75 C 892.20 264.66 891.45 269.69 892.54 274.51 C 894.00 277.48 898.32 275.63 899.11 273.07 C 899.49 268.64 899.15 264.18 899.25 259.74 C 900.91 259.74 902.58 259.75 904.25 259.76 C 904.25 266.42 904.26 273.08 904.24 279.74 C 902.83 279.75 901.44 279.76 900.05 279.78 C 900.04 279.17 900.02 277.94 900.01 277.33 C 897.66 278.94 895.04 280.94 892.00 280.18 C 889.36 279.87 887.64 277.40 887.41 274.90 C 887.00 269.86 887.35 264.79 887.26 259.74 Z" />
<path fill="#1d1d1b" opacity="1.00" d=" M 913.93 262.88 C 915.99 260.42 918.94 258.49 922.29 259.50 C 922.01 260.88 921.75 262.26 921.50 263.65 C 918.86 263.52 915.73 264.19 914.96 267.13 C 914.45 271.31 914.84 275.54 914.76 279.74 C 913.08 279.74 911.41 279.75 909.76 279.76 C 909.74 273.08 909.74 266.41 909.75 259.73 C 911.16 259.75 912.59 259.77 914.02 259.80 C 914.00 260.57 913.95 262.11 913.93 262.88 Z" />
<path fill="#1d1d1b" opacity="1.00" d=" M 928.25 260.25 C 931.81 258.28 937.02 259.13 939.17 262.80 C 940.70 265.24 940.47 268.23 940.60 270.99 C 936.25 271.01 931.91 270.96 927.57 271.06 C 928.53 273.09 929.44 275.73 931.98 276.20 C 934.13 276.94 936.22 275.64 938.28 275.09 C 938.85 276.13 939.44 277.18 940.04 278.24 C 936.52 279.96 932.30 281.20 928.57 279.35 C 921.21 276.06 921.25 263.93 928.25 260.25 M 927.52 267.93 C 930.54 268.02 933.58 268.02 936.62 267.93 C 935.92 266.00 935.49 263.15 932.87 263.11 C 929.87 262.72 928.49 265.67 927.52 267.93 Z" />
<path fill="#1d1d1b" opacity="1.00" d=" M 498.43 261.37 C 502.83 257.50 509.03 260.41 514.25 259.81 C 514.25 260.74 514.24 262.62 514.24 263.55 C 513.55 263.51 512.15 263.42 511.46 263.37 C 511.59 266.00 512.46 269.20 510.22 271.23 C 507.86 273.82 504.09 273.55 500.92 273.33 C 500.91 274.03 500.90 275.43 500.89 276.13 C 504.54 276.62 508.30 276.14 511.89 277.07 C 514.91 278.06 515.51 282.19 513.74 284.54 C 510.88 288.44 505.39 288.97 500.97 288.25 C 498.36 287.93 495.28 285.97 495.71 282.97 C 495.73 281.39 497.05 280.28 497.78 278.98 C 496.47 276.56 496.55 273.91 498.32 271.75 C 496.00 268.76 495.30 264.08 498.43 261.37 M 502.32 263.34 C 499.89 265.14 500.65 270.01 503.93 270.28 C 506.27 270.60 507.90 268.19 507.52 266.05 C 507.69 263.43 504.34 261.68 502.32 263.34 M 500.81 280.10 C 500.39 281.04 500.02 281.98 499.68 282.95 C 501.09 285.43 504.47 285.61 506.94 284.94 C 508.58 284.44 510.82 283.09 509.71 281.09 C 506.94 279.81 503.76 280.36 500.81 280.10 Z" />
<path fill="#1d1d1b" opacity="1.00" d=" M 556.75 259.75 C 558.41 259.75 560.08 259.75 561.75 259.76 C 561.74 266.42 561.75 273.08 561.75 279.74 C 560.08 279.75 558.41 279.75 556.76 279.76 C 556.74 273.09 556.75 266.42 556.75 259.75 Z" />
<path fill="#1d1d1b" opacity="1.00" d=" M 642.00 259.75 C 643.66 259.75 645.32 259.75 647.00 259.75 C 647.00 266.42 647.00 273.09 646.99 279.75 C 645.32 279.75 643.66 279.75 642.00 279.75 C 641.99 273.08 642.00 266.42 642.00 259.75 Z" />
<path fill="#1d1d1b" opacity="1.00" d=" M 706.89 259.76 C 708.55 259.75 710.22 259.74 711.89 259.74 C 713.58 265.04 715.23 270.36 716.65 275.74 C 718.17 270.43 719.85 265.16 721.38 259.84 C 723.01 259.79 724.64 259.75 726.29 259.71 C 723.97 266.37 721.78 273.08 719.45 279.74 C 717.59 279.74 715.73 279.75 713.89 279.76 C 711.50 273.11 709.24 266.42 706.89 259.76 Z" />
<path fill="#1d1d1b" opacity="1.00" d=" M 850.51 259.75 C 852.08 259.75 853.66 259.75 855.26 259.75 C 855.46 264.74 854.64 269.89 855.93 274.78 C 857.69 277.51 860.81 275.16 862.53 273.62 C 862.47 268.99 862.50 264.37 862.50 259.75 C 864.16 259.75 865.82 259.75 867.50 259.75 C 867.50 266.44 867.49 273.13 867.51 279.82 C 865.52 279.72 862.82 280.35 862.89 277.45 C 860.70 279.24 857.99 280.97 855.03 280.11 C 852.04 279.74 850.68 276.60 850.59 273.92 C 850.31 269.20 850.57 264.47 850.51 259.75 Z" />
<path fill="#1d1d1b" opacity="1.00" d=" M 599.81 275.98 C 600.53 272.37 606.66 273.29 606.45 277.01 C 607.51 281.61 604.33 285.61 600.29 287.34 C 599.87 286.45 599.47 285.56 599.07 284.68 C 600.70 283.47 602.15 282.05 603.35 280.42 C 601.73 279.44 598.95 278.45 599.81 275.98 Z" />
</g>
<g id="#d9004cff">
<path fill="#d9004c" opacity="1.00" d=" M 325.39 174.61 C 331.98 172.04 339.65 178.02 338.77 185.03 C 338.74 192.83 328.46 197.38 322.50 192.47 C 316.01 188.04 317.75 176.72 325.39 174.61 Z" />
</g>
</svg>
