<?xml version="1.0" encoding="utf-8"?>
<!-- Generator: Adobe Illustrator 26.0.1, SVG Export Plug-In . SVG Version: 6.00 Build 0)  -->
<svg version="1.1" id="Layer_1" xmlns="http://www.w3.org/2000/svg" xmlns:xlink="http://www.w3.org/1999/xlink" x="0px" y="0px"
	 viewBox="0 0 479.7 479.7" style="enable-background:new 0 0 479.7 479.7;" xml:space="preserve">
<style type="text/css">
	.st0{fill:#2A2E3D;}
</style>
<g id="_x23_2a2e3dff">
	<path class="st0" d="M229.8,3.3c6.4-4.8,16.8-4.4,22,2c2.1,3.4,3,7.5,3.1,11.5c0,31.7,0,63.3,0,95c-0.1,5.8,0.3,11.5-0.3,17.3
		c2-2.7,4.5-4.8,6.8-7.2c13.6-13.5,27.5-26.6,41-40.1c3-3,6.4-5.9,10.7-6.6c9.8-1.3,19.6,9.8,15.7,19.3c-1.5,3.8-4.5,6.6-7.3,9.4
		c-23.5,23.5-47,47-70.5,70.5c-3.1,3-7.1,5.6-11.6,5.3c-5.1-0.2-9.1-3.8-12.4-7.3c-23.2-23.2-46.3-46.4-69.5-69.5
		c-3.9-3.6-7.8-8.3-7.3-14c0.8-6.7,6.4-12.5,13-13.7c5.1-0.8,9.9,2.2,13.3,5.7c14.2,14.1,28.7,27.9,42.9,42c2,2,4.1,3.9,5.8,6.2
		c-0.5-37.1,0-74.1-0.2-111.2C224.9,12.8,225.7,6.8,229.8,3.3z"/>
	<path class="st0" d="M75.2,162.8c1.5-7.3,8.8-13.7,16.4-12.7c4.8,0.8,8.5,4.3,11.8,7.7c23.7,23.7,47.3,47.3,71,71
		c2.8,3,5.4,6.7,5.3,11c0,4.5-2.7,8.4-5.8,11.5c-24.3,24.3-48.6,48.6-73,73c-3.4,3.4-8.2,6.1-13.2,5.1c-6.4-1.5-11.9-7.1-12.6-13.7
		c-0.4-4.4,1.9-8.4,4.8-11.5c16.1-16.9,32.3-33.6,48.4-50.5c-37,0-74,0-111.1,0c-4.8,0.1-10.1-0.8-13.5-4.5
		c-5.3-6.1-5-16.6,1.4-21.8c3.5-2.5,7.9-3.7,12.2-3.7c37,0,74,0,111,0c-15.3-15.3-30.7-30.7-46-46C78.2,174,74.1,168.8,75.2,162.8z"
		/>
	<path class="st0" d="M378.8,155.4c3.6-3.6,8.9-6.5,14.1-4.9c6.9,1.9,12.7,9,11.6,16.4c-0.9,5-4.7,8.6-8.1,12c-15,15-30,30-45,45
		c37,0,74,0,111,0c4.1,0,8.2,1.2,11.6,3.3c7.3,5.2,7.5,17.4,0.9,23.2c-3.5,2.9-8.1,3.5-12.5,3.5c-37,0-74,0-111,0
		c14.3,15,28.8,29.9,43.1,44.9c3.5,3.8,7.8,7.1,9.6,12.2c3.1,9.4-6.3,19.8-15.9,18.6c-3.9-0.6-7.1-3.1-9.9-5.8
		c-24.3-24.3-48.6-48.6-73-73c-3.1-3.2-5.6-7.3-5.3-11.9c0.3-4.9,3.9-8.8,7.2-12.1C331.2,203,355,179.2,378.8,155.4z"/>
	<path class="st0" d="M232.9,210.5c8.2-1.4,17.3-0.6,24.3,4.4c6.4,4.7,11.5,11.8,12.2,19.9c1.5,10.1-1.3,21.2-9.5,27.7
		c-7.2,7.1-18.2,8.4-27.7,6.5c-6.8-1.3-12.6-5.8-16.8-11.2c-4.8-6.2-6-14.4-5.2-21.9C210.9,223.7,220.9,212.7,232.9,210.5z"/>
	<path class="st0" d="M228.4,305.8c2.9-2.9,6.6-5.5,10.9-5.8c4.5-0.3,8.6,2.3,11.7,5.3c24.3,24.3,48.6,48.6,73,73
		c2.3,2.4,4.6,5.1,5.4,8.5c2.3,9.4-7.3,19.3-16.7,17.7c-5.3-1.1-9-5.5-12.7-9.1c-14.2-14.1-28.8-27.9-42.9-42
		c-0.8-0.9-1.6-1.8-2.3-2.7c0.6,14.1,0.1,28.2,0.3,42.3c0,23.6,0,47.3,0,70.9c-0.4,4.8-1.5,10.4-5.9,13.3c-6.7,4-16.7,3.4-21.4-3.3
		c-2.3-4.2-2.9-9.1-2.7-13.9c0-32.7,0-65.4,0-98c0-3.8-0.2-7.5,0.3-11.2c-1.7,2.3-3.8,4.2-5.8,6.2c-14.2,14.1-28.7,27.9-42.9,42
		c-3.6,3.6-8.5,6.7-13.8,5.6c-6.3-1.5-11.8-7.1-12.5-13.7c-0.4-4.6,2.2-8.8,5.2-11.9C179.7,354.5,204,330.2,228.4,305.8z"/>
</g>
</svg>
