<?xml version="1.0" encoding="UTF-8" ?>
<!DOCTYPE svg PUBLIC "-//W3C//DTD SVG 1.1//EN" "http://www.w3.org/Graphics/SVG/1.1/DTD/svg11.dtd">
<svg width="585pt" height="528pt" viewBox="0 0 585 528" version="1.1" xmlns="http://www.w3.org/2000/svg">
<g id="#ffffffff">
<path fill="#ffffff" opacity="1.00" d=" M 0.00 0.00 L 585.00 0.00 L 585.00 528.00 L 0.00 528.00 L 0.00 0.00 M 284.48 22.48 C 280.37 26.01 279.57 31.93 279.48 37.04 C 279.66 74.10 279.21 111.19 279.71 148.24 C 278.09 145.91 275.98 144.00 273.95 142.03 C 259.72 127.94 245.21 114.14 231.03 100.00 C 227.57 96.50 222.84 93.46 217.69 94.31 C 211.10 95.55 205.49 101.36 204.73 108.05 C 204.25 113.72 208.13 118.39 212.00 122.02 C 235.19 145.17 258.35 168.34 281.51 191.53 C 284.85 194.98 288.84 198.63 293.93 198.80 C 298.42 199.12 302.42 196.47 305.51 193.48 C 329.03 169.99 352.51 146.47 376.03 122.98 C 378.83 120.19 381.90 117.39 383.36 113.61 C 387.32 104.13 377.51 92.99 367.70 94.31 C 363.41 95.03 359.95 97.94 357.00 100.95 C 343.47 114.46 329.60 127.62 316.02 141.08 C 313.69 143.40 311.18 145.57 309.22 148.24 C 309.80 142.51 309.37 136.74 309.50 130.99 C 309.51 99.33 309.49 67.66 309.51 35.99 C 309.41 32.01 308.56 27.91 306.44 24.49 C 301.23 18.12 290.90 17.71 284.48 22.48 M 129.85 181.99 C 128.78 188.01 132.85 193.19 137.00 197.02 C 152.34 212.33 167.66 227.67 182.99 243.00 C 146.00 242.99 109.01 243.02 72.02 242.98 C 67.73 242.97 63.35 244.26 59.82 246.71 C 53.48 251.93 53.15 262.45 58.44 268.52 C 61.84 272.20 67.14 273.07 71.94 273.01 C 108.96 272.99 145.97 273.00 182.99 273.00 C 166.84 289.82 150.68 306.61 134.56 323.46 C 131.68 326.55 129.29 330.55 129.73 334.94 C 130.42 341.56 135.91 347.14 142.28 348.64 C 147.29 349.65 152.07 346.92 155.50 343.50 C 179.83 319.18 204.14 294.84 228.48 270.53 C 231.57 267.47 234.29 263.55 234.30 259.03 C 234.40 254.74 231.87 250.99 229.02 248.02 C 205.37 224.35 181.69 200.71 158.04 177.03 C 154.79 173.64 151.12 170.11 146.29 169.31 C 138.60 168.30 131.37 174.69 129.85 181.99 M 433.48 174.52 C 409.64 198.34 385.83 222.20 361.97 246.01 C 358.60 249.29 355.07 253.12 354.73 258.06 C 354.35 262.64 356.90 266.83 359.99 269.99 C 384.31 294.32 408.65 318.63 432.96 342.97 C 435.68 345.66 438.92 348.15 442.81 348.72 C 452.33 349.85 461.79 339.47 458.66 330.10 C 456.92 325.09 452.58 321.71 449.10 317.94 C 434.82 302.88 420.36 288.00 406.01 273.00 C 443.02 273.00 480.03 272.99 517.03 273.01 C 521.39 273.06 526.06 272.41 529.51 269.52 C 536.11 263.65 535.87 251.53 528.60 246.29 C 525.13 244.18 521.04 242.95 516.97 242.98 C 479.98 243.02 442.99 242.99 406.01 243.00 C 421.01 227.99 436.00 212.99 451.01 198.00 C 454.49 194.62 458.27 190.96 459.14 185.97 C 460.26 178.62 454.43 171.53 447.55 169.60 C 442.34 168.04 437.09 170.91 433.48 174.52 M 287.60 229.69 C 275.59 231.87 265.62 242.83 264.79 255.03 C 264.04 262.62 265.23 270.80 270.00 276.97 C 274.20 282.34 280.01 286.85 286.83 288.16 C 296.37 290.05 307.33 288.74 314.57 281.68 C 322.75 275.14 325.57 264.00 324.09 253.95 C 323.39 245.86 318.29 238.81 311.91 234.08 C 304.94 229.10 295.83 228.28 287.60 229.69 M 283.03 324.95 C 258.70 349.32 234.33 373.66 209.98 398.02 C 206.91 401.18 204.28 405.33 204.73 409.93 C 205.41 416.53 210.87 422.09 217.21 423.62 C 222.51 424.74 227.45 421.65 231.01 418.02 C 245.20 403.88 259.72 390.08 273.94 375.98 C 275.97 373.99 278.09 372.07 279.76 369.76 C 279.34 373.49 279.52 377.25 279.50 381.00 C 279.48 413.68 279.52 446.35 279.48 479.03 C 279.30 483.77 279.90 488.67 282.16 492.90 C 286.86 499.59 296.90 500.26 303.60 496.24 C 307.95 493.38 309.05 487.80 309.48 482.98 C 309.53 459.35 309.48 435.72 309.50 412.09 C 309.33 397.98 309.85 383.85 309.23 369.76 C 309.95 370.69 310.68 371.62 311.51 372.48 C 325.71 386.61 340.23 400.42 354.46 414.53 C 358.18 418.16 361.85 422.50 367.19 423.62 C 376.61 425.25 386.25 415.34 383.91 405.95 C 383.07 402.63 380.84 399.90 378.51 397.50 C 354.17 373.19 329.87 348.85 305.54 324.54 C 302.44 321.51 298.38 318.93 293.88 319.20 C 289.62 319.44 285.95 322.03 283.03 324.95 Z" />
</g>
<g id="#2a2e3dff">
<path fill="#2a2e3d" opacity="1.00" d=" M 284.48 22.48 C 290.90 17.71 301.23 18.12 306.44 24.49 C 308.56 27.91 309.41 32.01 309.51 35.99 C 309.49 67.66 309.51 99.33 309.50 130.99 C 309.37 136.74 309.80 142.51 309.22 148.24 C 311.18 145.57 313.69 143.40 316.02 141.08 C 329.60 127.62 343.47 114.46 357.00 100.95 C 359.95 97.94 363.41 95.03 367.70 94.31 C 377.51 92.99 387.32 104.13 383.36 113.61 C 381.90 117.39 378.83 120.19 376.03 122.98 C 352.51 146.47 329.03 169.99 305.51 193.48 C 302.42 196.47 298.42 199.12 293.93 198.80 C 288.84 198.63 284.85 194.98 281.51 191.53 C 258.35 168.34 235.19 145.17 212.00 122.02 C 208.13 118.39 204.25 113.72 204.73 108.05 C 205.49 101.36 211.10 95.55 217.69 94.31 C 222.84 93.46 227.57 96.50 231.03 100.00 C 245.21 114.14 259.72 127.94 273.95 142.03 C 275.98 144.00 278.09 145.91 279.71 148.24 C 279.21 111.19 279.66 74.10 279.48 37.04 C 279.57 31.93 280.37 26.01 284.48 22.48 Z" />
<path fill="#2a2e3d" opacity="1.00" d=" M 129.85 181.99 C 131.37 174.69 138.60 168.30 146.29 169.31 C 151.12 170.11 154.79 173.64 158.04 177.03 C 181.69 200.71 205.37 224.35 229.02 248.02 C 231.87 250.99 234.40 254.74 234.30 259.03 C 234.29 263.55 231.57 267.47 228.48 270.53 C 204.14 294.84 179.83 319.18 155.50 343.50 C 152.07 346.92 147.29 349.65 142.28 348.64 C 135.91 347.14 130.42 341.56 129.73 334.94 C 129.29 330.55 131.68 326.55 134.56 323.46 C 150.68 306.61 166.84 289.82 182.99 273.00 C 145.97 273.00 108.96 272.99 71.94 273.01 C 67.14 273.07 61.84 272.20 58.44 268.52 C 53.15 262.45 53.48 251.93 59.82 246.71 C 63.35 244.26 67.73 242.97 72.02 242.98 C 109.01 243.02 146.00 242.99 182.99 243.00 C 167.66 227.67 152.34 212.33 137.00 197.02 C 132.85 193.19 128.78 188.01 129.85 181.99 Z" />
<path fill="#2a2e3d" opacity="1.00" d=" M 433.48 174.52 C 437.09 170.91 442.34 168.04 447.55 169.60 C 454.43 171.53 460.26 178.62 459.14 185.97 C 458.27 190.96 454.49 194.62 451.01 198.00 C 436.00 212.99 421.01 227.99 406.01 243.00 C 442.99 242.99 479.98 243.02 516.97 242.98 C 521.04 242.95 525.13 244.18 528.60 246.29 C 535.87 251.53 536.11 263.65 529.51 269.52 C 526.06 272.41 521.39 273.06 517.03 273.01 C 480.03 272.99 443.02 273.00 406.01 273.00 C 420.36 288.00 434.82 302.88 449.10 317.94 C 452.58 321.71 456.92 325.09 458.66 330.10 C 461.79 339.47 452.33 349.85 442.81 348.72 C 438.92 348.15 435.68 345.66 432.96 342.97 C 408.65 318.63 384.31 294.32 359.99 269.99 C 356.90 266.83 354.35 262.64 354.73 258.06 C 355.07 253.12 358.60 249.29 361.97 246.01 C 385.83 222.20 409.64 198.34 433.48 174.52 Z" />
<path fill="#2a2e3d" opacity="1.00" d=" M 287.60 229.69 C 295.83 228.28 304.94 229.10 311.91 234.08 C 318.29 238.81 323.39 245.86 324.09 253.95 C 325.57 264.00 322.75 275.14 314.57 281.68 C 307.33 288.74 296.37 290.05 286.83 288.16 C 280.01 286.85 274.20 282.34 270.00 276.97 C 265.23 270.80 264.04 262.62 264.79 255.03 C 265.62 242.83 275.59 231.87 287.60 229.69 Z" />
<path fill="#2a2e3d" opacity="1.00" d=" M 283.03 324.95 C 285.95 322.03 289.62 319.44 293.88 319.20 C 298.38 318.93 302.44 321.51 305.54 324.54 C 329.87 348.85 354.17 373.19 378.51 397.50 C 380.84 399.90 383.07 402.63 383.91 405.95 C 386.25 415.34 376.61 425.25 367.19 423.62 C 361.85 422.50 358.18 418.16 354.46 414.53 C 340.23 400.42 325.71 386.61 311.51 372.48 C 310.68 371.62 309.95 370.69 309.23 369.76 C 309.85 383.85 309.33 397.98 309.50 412.09 C 309.48 435.72 309.53 459.35 309.48 482.98 C 309.05 487.80 307.95 493.38 303.60 496.24 C 296.90 500.26 286.86 499.59 282.16 492.90 C 279.90 488.67 279.30 483.77 279.48 479.03 C 279.52 446.35 279.48 413.68 279.50 381.00 C 279.52 377.25 279.34 373.49 279.76 369.76 C 278.09 372.07 275.97 373.99 273.94 375.98 C 259.72 390.08 245.20 403.88 231.01 418.02 C 227.45 421.65 222.51 424.74 217.21 423.62 C 210.87 422.09 205.41 416.53 204.73 409.93 C 204.28 405.33 206.91 401.18 209.98 398.02 C 234.33 373.66 258.70 349.32 283.03 324.95 Z" />
</g>
</svg>
