<?xml version="1.0" encoding="utf-8"?>
<!-- Generator: Adobe Illustrator 24.0.1, SVG Export Plug-In . SVG Version: 6.00 Build 0)  -->
<svg version="1.1" id="Layer_1" xmlns="http://www.w3.org/2000/svg" xmlns:xlink="http://www.w3.org/1999/xlink" x="0px" y="0px"
	 viewBox="0 0 684.7 475.1" style="enable-background:new 0 0 684.7 475.1;" xml:space="preserve">
<style type="text/css">
	.st0{fill:#ffffff;}
	.st1{fill:#544F4C;}
</style>
<path class="st0" d="M590.8,0h5.6c12.5,0.8,24.2,8.7,29.6,20c6.4,12.7,4.1,29.1-5.5,39.5c-8.4,9.5-22.1,14-34.5,11
	c-8.7-1.8-16.4-7.3-21.5-14.5c-7.9,4-15.6,8.5-23.4,12.7c1,5.7,1.3,11.9-1,17.4c-3.9,10-14.3,17.2-25.1,16.7
	c-7.1,0.1-13.9-3.2-18.9-8.1c-6.3,3.9-12.6,7.7-18.9,11.5c0.7,5.3,0.4,11-2.5,15.7c-5.1,9.4-18.1,13.4-27.5,8.1
	c-1.5-0.5-3.1-2.5-4.7-1.4c-6.4,4.1-12.6,8.6-19,12.9c0.7,5.4-0.9,11.3-5.3,14.8c-4.8,4.2-12,4.5-17.5,1.6
	c-24.9,18.5-49,38.2-71.1,60c-1.3,1-0.5,2.5-0.1,3.7c13.1,32.6,24.1,66.3,30.5,100.9c1.4,8.5,2.8,17,2.4,25.6
	c-0.7,7.6-3.6,15.1-8.4,21.1c-5.6,7.4-16.4,11-24.9,6.6c-3.1-1.7-1.7-6,1-7.2c5.2-2.7,8.9-7.9,9.3-13.7c0.8-10.3-0.8-20.5-2.5-30.6
	c-5.5-30.3-14.2-60-24.1-89.1c-9.1,10.1-18.2,20.3-26.8,31c4.9-0.2,9.9-0.6,14.8-0.1c3.9,0.2,6.9,4.2,6.3,8
	c-0.4,3.5-3.7,6.4-7.3,6.3c-8.4,0.1-16.8,0-25.1,0c-6.3,8.3-12.4,16.8-18.3,25.4c14.5,0.1,29,0,43.5,0c3.8-0.1,7.4,3.3,7.3,7.2
	c0.1,3.9-3.4,7.3-7.3,7.2c-17.6,0.1-35.2-0.1-52.7,0.1c-5.1,8.8-10.2,17.6-14.3,26.9c22.3,0,44.6,0,67,0c3.9-0.5,7.4,3,7.4,6.8
	c0.3,4-3.4,7.6-7.4,7.4c-24.4,0-48.8,0-73.2,0c-8.5,22.5-13.6,47.9-5.7,71.2c4.3,12.4,12.5,23.6,23.7,30.5c2.8,1.6,2.9,5.5,0.9,7.8
	c-3.6,4.4-10.1,4.3-14.9,2.4c-10.8-4.4-21-10.5-29.1-19c-11.3-11.4-17.2-27.3-17.5-43.2c-0.7-23.3,7.1-45.8,17-66.5
	c9.6-19.9,21.7-38.6,35-56.3c20.4-27,43.6-51.8,69.2-73.8c-9.3-24.1-19.4-47.9-31.2-71c-18.2-35.8-39.6-70.3-67-99.9
	c-1.7-1.7-2.5-3.9-3.1-6.1c3.8-1.1,6.7,1.7,9.1,4.2c46,45.5,81.3,101,107.6,159.8c22.9-19.4,47.5-36.6,72.6-52.9
	c-1.6-7.2,1.9-15.3,8.9-18.1c5.4-2.5,11.4-0.7,16.2,2.1c6.4-3.8,12.7-7.8,19.1-11.6c-2-5.2-3-10.9-1-16.3
	c2.8-8.4,11.3-14.5,20.2-14.2c6.8,0,13.3,3.8,17.1,9.3c6.1-3.3,12.1-6.9,18.2-10.1c-2.9-5.8-4.6-12.5-3-18.9
	c2.1-11.5,12.8-20.7,24.5-21.2c10.4-0.7,20.8,5.4,25.3,14.8c7.8-3.9,15.5-7.9,23.3-11.8c-6.2-11.3-5.6-25.8,1.6-36.5
	C569.9,7,580.1,1.1,590.8,0z"/>
<path class="st0" d="M294.8,399.7c2.3-1.4,5.5-2,7.8-0.2c1.8,1.7,1.3,4.4,0.6,6.5c-2.3,7.1-4.9,14.2-7.2,21.4c5.1-3.6,10.6-7.4,17-8
	c5.4-0.6,11.8-0.2,15.8,4.1c4.2,4.4,4.4,11.1,3.3,16.7c-2.4,11.3-8.4,22.2-17.7,29.2c-6.6,4.7-15.3,7.4-23.3,4.7
	c-3.9-1.2-6.4-4.6-8.1-8.1c-1.1,3.2-2.7,6.5-5.9,8.1c-2.5,1.4-6.3,1.7-8.1-1c-0.6-2-0.2-4,0.4-5.9c6.7-19.6,13.4-39.3,20-59
	C290.5,405,291.8,401.6,294.8,399.7z M305.5,429.8c-8.6,2.7-14,11.1-16.3,19.4c-1.2,4.2-1.8,9.5,1.7,12.9c3.8,3.3,9.6,2.7,13.7,0.3
	c7.1-4,11.1-11.8,12.9-19.5c0.8-3.8,1-8.4-1.8-11.4C313,428.9,308.9,428.9,305.5,429.8z"/>
<path class="st0" d="M359.6,399.8c2.6-1.1,6.3-1.1,7.9,1.6c2.4,7-7.5,14.5-13.3,9.5C351.5,406.7,355.5,401.3,359.6,399.8z"/>
<path class="st0" d="M629.5,399.7c2.4-1.4,5.7-1.9,8.1-0.1c2,2,1.2,5.1,0.5,7.4c-6.7,19.9-13.5,39.8-20.3,59.7c-1.2,3.6-3.8,7-7.6,8
	c-2.2,0.5-5,0.5-6.3-1.8c-1.2-2.4-0.2-5.1,0.5-7.4c6.7-19.7,13.4-39.4,20.1-59C625.4,403.8,627.1,401.2,629.5,399.7z"/>
<path class="st0" d="M471.2,404.1c2.5-3.7,9.6-6,12-1c0.5,6-3,11.4-4.4,17c2.8,0.2,5.8-0.5,8.4,0.8c2.4,1.9,0.9,5.6-1.1,7.2
	c-3.1,2.3-7.2,1.9-10.8,2.1c-3.1,9.7-6.6,19.3-9.7,29c-0.9,2.1-0.6,5.6,2.4,5.2c3.3,0.3,8.6-2.8,10.2,1.6c0.3,3.9-3.4,6.6-6.7,7.7
	c-5,1.5-10.3,1.9-15.4,0.9c-2.7-0.5-5.4-2.5-5.8-5.4c-0.4-3.8,0.7-7.6,1.8-11.2c3.1-9.3,6.3-18.5,9.4-27.7c-2.3-0.2-6.3,0.1-6.4-3.2
	c-0.2-5.1,5.6-7.4,9.9-6.9C467,414.8,468.1,409,471.2,404.1z"/>
<path class="st0" d="M352.5,419.7c2.1-0.8,4.6-1,6.6,0c2.3,1.5,2,4.6,1.3,6.8c-4.3,12.9-8.7,25.7-13,38.5c-1.2,3.9-3.4,7.8-7.4,9.3
	c-2.3,0.8-5.7,1-7.1-1.5c-1.3-2.6-0.1-5.5,0.7-8.1c4.3-12.4,8.4-24.9,12.7-37.3C347.4,424.4,349.3,421.1,352.5,419.7z"/>
<path class="st0" d="M393.4,419.5c7.1-1.1,15.3-0.9,21.1,3.9c4.3,3.5,5.7,9.3,5.3,14.6c-1.5,16.7-14.1,32.4-30.7,36.1
	c-7.1,1.6-15.3,1.6-21.5-2.8c-4.9-3.4-6.9-9.7-6.4-15.4C362.8,438.7,376.1,422.5,393.4,419.5z M392.4,429.7
	c-8.2,2.3-13.1,10.3-15.7,17.8c-1.4,4.5-2.5,10,0.4,14.2c3.3,3.9,9.2,3.5,13.5,1.7c7.4-3.3,12-10.8,14.1-18.4
	c1.2-4.2,1.9-9.2-0.9-12.9C401.1,428.8,396.3,428.8,392.4,429.7z"/>
<path class="st0" d="M520.1,419c6-0.3,12.5,0.5,17.1,4.7c4.3,3.7,5.6,9.8,5,15.2c-1.3,10.3-6.5,20.1-14.4,26.9
	c-7.9,6.8-18.6,10.4-29,8.9c-5.3-0.7-10.7-3.5-13.2-8.3c-3.5-6.3-2.1-14,0.2-20.5C490.9,431.4,504.5,419.8,520.1,419z M514.5,429.8
	c-8.9,2.7-13.7,11.8-16.1,20.1c-1.1,4.4-1.5,10.1,2.5,13.2c4,2.7,9.5,1.8,13.6-0.4c7.5-4.2,11.6-12.5,13.3-20.6
	c0.8-3.8,0.5-8.5-2.8-11.2C522,428.7,518,428.9,514.5,429.8z"/>
<path class="st0" d="M577.4,419.5c6.7-1,14.1-0.7,19.8,3.4c4.5,3.2,6.4,8.8,6.2,14.1c-1.1,17.7-14.7,34.4-32.5,37.5
	c-6.5,1-13.8,1-19.5-2.8c-5.1-3.3-7.4-9.7-6.9-15.6C546.1,438.6,559.7,422.2,577.4,419.5z M575.5,429.8
	c-7.9,2.4-12.7,10.1-15.3,17.5c-1.5,4.5-2.7,10.1,0.2,14.3c3.2,4.1,9.3,3.6,13.7,1.8c8-3.6,12.5-12.1,14.5-20.3
	c0.9-3.9,1-8.7-2.1-11.7C583.6,428.7,579.1,428.9,575.5,429.8z"/>
<path class="st0" d="M657.6,419.9c6.3-1.3,13.1-1.4,19.3,0.6c3.8,1.3,7.5,4.2,7.8,8.5c0.2,5.1-5.5,9.4-10.4,7.6
	c-3.1-1.9-3.3-6.6-6.7-8.1c-4.7-1.5-10.6-0.7-14,3c-1.8,1.8-1.8,5.3,0.8,6.3c7.4,3.8,17.1,3.4,22.9,10.1c3.5,4.2,1.3,10-1.2,14.1
	c-5.3,9-16.1,12.8-26,13c-6.2,0.3-13.2-0.5-17.9-5c-3.8-3.7-3.6-10.8,1.1-13.8c2.2-1.7,6.6-2.5,7.9,0.7c1.1,3,1.8,6.6,5,8.1
	c5.3,2.3,12.1,1.4,16.3-2.6c2.1-2,3-6.1,0.2-7.9c-6.7-3.8-15.2-3.7-21.1-8.9c-3-2.5-3.7-6.9-2.4-10.4
	C641.9,427.2,649.6,421.8,657.6,419.9z"/>
<path class="st0" d="M423.5,460.6c2.9-1.3,7.3-1,8.8,2.4c2.1,7.4-8.2,15.6-14.6,10.5C414.3,468.7,418.8,462.4,423.5,460.6z"/>
<path class="st1" d="M169.3,126.2c10.8-0.6,21.6,0,32.4-0.3c-9,42.8-18.5,85.4-27.6,128.2c-2.1,10.4-5,20.8-4.8,31.5
	c-11.6,0-23.1,0-34.7,0c3.4-8.4,6.3-17.1,8.1-26c7.6-35.2,15.2-70.4,22.8-105.5C167.4,144.8,169.7,135.6,169.3,126.2z"/>
<path class="st1" d="M227.3,130.5c8.8-3.9,20.1,2.8,20.5,12.4c1.2,7.9-5,15.6-12.9,16.5c-7.3,1.1-14.8-3.9-16.6-11
	C216.3,141.4,220.4,133.1,227.3,130.5z"/>
<path class="st1" d="M38.6,181.4c10.4-1,20.9-0.4,31.4-0.3c12.7-0.2,25.3-0.1,38-0.1c5.8,0.1,11.7,0,17.2,2c4.3,1.6,7.6,5.4,8.3,10
	c0.6,4.3,0.3,8.6-0.5,12.8c-2.7,11.8-5.4,23.6-8,35.5c-30.4,0.1-60.8,0-91.3,0c-1.7,8.9-4.7,17.6-5.5,26.7c-0.4,3.7,4.1,4.1,6.7,4.1
	c19.7,0.1,39.4,0,59.1,0c8.1,0.1,16.3-0.3,24.3-1.8c-2.1,5-4.2,10.1-6.2,15.1c-30,0-60.1,0-90.1,0c-5.9-0.1-12.4-0.5-17.3-4.2
	c-3.1-2.2-4.2-6.1-4.7-9.6v-5.8c2.5-14,6.2-27.7,9.2-41.6c2.9-11,4-22.9,10.5-32.6C23.9,185.4,31.3,182.1,38.6,181.4z M43,200.9
	c-1.9,9-4.2,17.9-6,26.9c20.8,0.1,41.6,0,62.4,0c2-8.4,3.8-16.8,5.9-25.2c0.6-2.2,0.4-4.5,0.1-6.8c-2-0.8-4.2-1.5-6.4-1.4
	c-16,0-31.9-0.1-47.9,0C47.2,194.2,43.7,197.1,43,200.9z"/>
<path class="st1" d="M212.3,180.9c10.2-0.2,20.3,0.3,30.5-0.1c-5.4,25.4-11.4,50.6-17,76c-2,9.4-4.9,18.9-4.6,28.6
	c-10.9,0.1-21.8,0-32.8,0c3-7.1,5.7-14.4,7.4-22c4.5-19.4,9-38.8,13.4-58.2C210.8,197.2,212.6,189.1,212.3,180.9z"/>
<path class="st1" d="M389.4,181.1c10.2-0.3,20.4,0.1,30.5-0.2c-5.7,26.4-11.9,52.7-17.8,79.1c-1.8,8.4-4.1,16.8-3.9,25.5
	c-10.9,0-21.8,0-32.8,0c3-7.3,5.8-14.7,7.4-22.4c4.2-18.2,8.4-36.5,12.6-54.7C387.5,199.4,389.7,190.4,389.4,181.1z"/>
<path class="st1" d="M449.3,181c9.1-0.2,18.2,0,27.2-0.1c-0.2,3.4-0.6,6.9-1,10.3c2.9-5.4,8.3-9.8,14.7-9.9
	c10.3-0.4,20.5-0.5,30.8,0c2,3.9,4.4,7.5,6.1,11.5c-2.1,2.1-3.9,4.6-6.1,6.7c-1.6,0.3-3.3,0-4.9-0.2c-10.3-1.4-20.7-1-31.1-1.1
	c-3.1,0-6.8,0.2-8.9,2.9c-2.5,3.4-2.9,7.8-3.9,11.8c-2.7,12.1-5.4,24.1-8.1,36.2c-2.5,12.1-6.3,24-6.3,36.5c-10.8,0-21.6,0-32.4,0
	c3.5-7.6,5.4-15.8,7.4-24c4.3-18.8,8.5-37.6,12.8-56.3C447.5,197.2,449.6,189.2,449.3,181z"/>
</svg>
