<?xml version="1.0" encoding="UTF-8" ?>
<!DOCTYPE svg PUBLIC "-//W3C//DTD SVG 1.1//EN" "http://www.w3.org/Graphics/SVG/1.1/DTD/svg11.dtd">
<svg width="559pt" height="520pt" viewBox="0 0 559 520" version="1.1" xmlns="http://www.w3.org/2000/svg">
<g id="#ffffffff">
<path fill="#ffffff" opacity="1.00" d=" M 0.00 0.00 L 559.00 0.00 L 559.00 520.00 L 0.00 520.00 L 0.00 0.00 M 253.43 72.09 C 253.54 82.33 253.56 92.58 253.42 102.83 C 295.35 95.64 340.53 102.86 376.11 126.87 C 383.00 130.90 388.81 136.43 395.20 141.15 C 388.02 148.66 380.54 155.88 373.23 163.26 C 368.17 168.01 363.57 173.90 362.48 180.94 C 361.53 186.94 363.95 192.89 367.11 197.87 C 371.71 203.92 379.73 205.82 386.97 206.01 C 412.68 205.98 438.38 206.02 464.09 205.99 C 468.73 205.90 473.69 204.43 476.76 200.75 C 479.53 197.51 480.43 193.14 480.51 188.99 C 480.49 163.31 480.51 137.62 480.50 111.94 C 480.35 105.57 478.29 98.96 473.59 94.47 C 467.79 89.05 458.99 86.10 451.27 88.87 C 446.02 90.52 441.99 94.45 438.22 98.26 C 431.10 105.46 423.87 112.55 416.78 119.77 C 410.21 114.48 404.08 108.60 396.94 104.07 C 378.70 90.86 357.61 81.96 335.84 76.49 C 308.98 69.71 280.86 68.56 253.43 72.09 M 116.34 76.28 C 111.56 79.34 108.95 84.81 107.62 90.15 C 106.03 97.85 109.99 105.40 115.26 110.75 C 123.52 119.15 132.03 127.31 140.17 135.83 C 131.73 145.72 123.50 155.88 116.97 167.15 C 107.30 183.93 99.85 202.09 95.84 221.08 C 90.19 245.25 88.98 270.51 93.28 295.00 C 103.26 295.00 113.23 295.00 123.21 295.00 C 121.62 282.76 119.83 270.39 120.99 258.03 C 121.99 239.13 125.85 220.33 132.83 202.72 C 139.33 185.72 149.27 170.26 160.73 156.18 C 168.86 164.43 177.10 172.55 185.25 180.77 C 191.18 186.56 199.52 190.61 207.97 189.11 C 213.77 188.53 218.72 184.55 221.76 179.74 C 224.91 174.06 225.67 167.39 225.52 160.99 C 225.49 136.66 225.50 112.32 225.51 87.99 C 225.42 83.89 224.48 79.52 221.64 76.41 C 218.54 72.82 213.68 71.30 209.08 71.01 C 183.71 70.97 158.34 71.04 132.96 70.98 C 127.04 70.91 121.08 72.68 116.34 76.28 M 447.80 235.00 C 449.83 248.58 451.24 262.38 449.72 276.09 C 448.03 307.68 436.69 338.53 417.88 363.92 C 414.96 367.51 412.06 371.12 409.27 374.82 C 401.49 366.92 393.59 359.14 385.79 351.26 C 381.16 346.95 375.42 343.20 368.93 342.82 C 364.63 342.34 360.63 344.37 356.80 346.00 C 349.26 349.48 345.50 358.05 345.53 366.02 C 345.45 391.69 345.54 417.37 345.48 443.05 C 345.49 447.09 345.79 451.42 348.24 454.82 C 351.21 459.30 356.88 460.91 361.99 460.99 C 385.33 461.01 408.66 461.00 432.00 461.00 C 438.43 461.12 445.21 461.15 451.09 458.16 C 459.33 454.37 463.98 444.99 463.61 436.15 C 463.06 429.81 459.14 424.50 454.73 420.21 C 446.44 411.85 437.96 403.68 429.84 395.16 C 438.21 385.36 446.40 375.32 452.96 364.20 C 475.75 325.67 484.38 279.29 478.50 235.02 C 468.27 234.97 458.03 235.01 447.80 235.00 M 97.36 328.46 C 92.53 331.53 90.65 337.54 90.49 342.99 C 90.49 367.99 90.52 392.99 90.48 417.99 C 90.55 424.06 92.24 430.24 95.95 435.13 C 99.38 440.02 105.02 443.16 110.91 443.88 C 118.21 445.26 125.17 441.10 130.24 436.23 C 138.82 427.56 147.38 418.85 155.99 410.20 C 168.07 420.78 181.29 430.00 195.43 437.61 C 220.51 450.96 248.71 457.98 277.02 459.43 C 289.56 460.71 302.12 459.06 314.53 457.34 C 314.52 447.29 314.41 437.24 314.58 427.19 C 297.07 430.34 279.07 430.74 261.51 427.73 C 237.94 424.33 215.06 415.86 195.15 402.76 C 188.85 399.10 183.53 394.06 177.66 389.77 C 185.00 382.07 192.47 374.50 199.84 366.83 C 204.59 361.69 208.74 355.32 208.87 348.10 C 209.26 342.51 206.84 337.03 203.01 333.05 C 198.13 327.95 190.89 326.18 184.05 326.00 C 158.70 325.99 133.34 326.02 107.99 325.99 C 104.34 326.02 100.46 326.32 97.36 328.46 Z" />
<path fill="#ffffff" opacity="1.00" d=" M 148.45 101.07 C 164.15 100.95 179.85 100.96 195.55 101.07 C 195.59 117.10 195.22 133.16 195.73 149.18 C 180.22 132.91 164.19 117.12 148.45 101.07 Z" />
<path fill="#ffffff" opacity="1.00" d=" M 443.65 135.68 C 446.04 133.31 448.63 131.11 450.64 128.39 C 450.33 144.24 450.56 160.11 450.52 175.96 C 434.63 176.04 418.73 175.99 402.83 175.99 C 416.44 162.56 430.01 149.08 443.65 135.68 Z" />
<path fill="#ffffff" opacity="1.00" d=" M 120.49 356.02 C 136.38 355.98 152.27 356.00 168.16 356.01 C 152.24 372.11 135.97 387.87 120.25 404.17 C 120.81 388.14 120.36 372.07 120.49 356.02 Z" />
<path fill="#ffffff" opacity="1.00" d=" M 375.26 382.83 C 390.97 399.13 407.25 414.89 423.16 430.99 C 407.27 431.00 391.38 431.02 375.49 430.98 C 375.36 414.93 375.81 398.86 375.26 382.83 Z" />
</g>
<g id="#2a2e3dff">
<path fill="#2a2e3d" opacity="1.00" d=" M 253.43 72.09 C 280.86 68.56 308.98 69.71 335.84 76.49 C 357.61 81.96 378.70 90.86 396.94 104.07 C 404.08 108.60 410.21 114.48 416.78 119.77 C 423.87 112.55 431.10 105.46 438.22 98.26 C 441.99 94.45 446.02 90.52 451.27 88.87 C 458.99 86.10 467.79 89.05 473.59 94.47 C 478.29 98.96 480.35 105.57 480.50 111.94 C 480.51 137.62 480.49 163.31 480.51 188.99 C 480.43 193.14 479.53 197.51 476.76 200.75 C 473.69 204.43 468.73 205.90 464.09 205.99 C 438.38 206.02 412.68 205.98 386.97 206.01 C 379.73 205.82 371.71 203.92 367.11 197.87 C 363.95 192.89 361.53 186.94 362.48 180.94 C 363.57 173.90 368.17 168.01 373.23 163.26 C 380.54 155.88 388.02 148.66 395.20 141.15 C 388.81 136.43 383.00 130.90 376.11 126.87 C 340.53 102.86 295.35 95.64 253.42 102.83 C 253.56 92.58 253.54 82.33 253.43 72.09 M 443.65 135.68 C 430.01 149.08 416.44 162.56 402.83 175.99 C 418.73 175.99 434.63 176.04 450.52 175.96 C 450.56 160.11 450.33 144.24 450.64 128.39 C 448.63 131.11 446.04 133.31 443.65 135.68 Z" />
<path fill="#2a2e3d" opacity="1.00" d=" M 116.34 76.28 C 121.08 72.68 127.04 70.91 132.96 70.98 C 158.34 71.04 183.71 70.97 209.08 71.01 C 213.68 71.30 218.54 72.82 221.64 76.41 C 224.48 79.52 225.42 83.89 225.51 87.99 C 225.50 112.32 225.49 136.66 225.52 160.99 C 225.67 167.39 224.91 174.06 221.76 179.74 C 218.72 184.55 213.77 188.53 207.97 189.11 C 199.52 190.61 191.18 186.56 185.25 180.77 C 177.10 172.55 168.86 164.43 160.73 156.18 C 149.27 170.26 139.33 185.72 132.83 202.72 C 125.85 220.33 121.99 239.13 120.99 258.03 C 119.83 270.39 121.62 282.76 123.21 295.00 C 113.23 295.00 103.26 295.00 93.28 295.00 C 88.98 270.51 90.19 245.25 95.84 221.08 C 99.85 202.09 107.30 183.93 116.97 167.15 C 123.50 155.88 131.73 145.72 140.17 135.83 C 132.03 127.31 123.52 119.15 115.26 110.75 C 109.99 105.40 106.03 97.85 107.62 90.15 C 108.95 84.81 111.56 79.34 116.34 76.28 M 148.45 101.07 C 164.19 117.12 180.22 132.91 195.73 149.18 C 195.22 133.16 195.59 117.10 195.55 101.07 C 179.85 100.96 164.15 100.95 148.45 101.07 Z" />
<path fill="#2a2e3d" opacity="1.00" d=" M 447.80 235.00 C 458.03 235.01 468.27 234.97 478.50 235.02 C 484.38 279.29 475.75 325.67 452.96 364.20 C 446.40 375.32 438.21 385.36 429.84 395.16 C 437.96 403.68 446.44 411.85 454.73 420.21 C 459.14 424.50 463.06 429.81 463.61 436.15 C 463.98 444.99 459.33 454.37 451.09 458.16 C 445.21 461.15 438.43 461.12 432.00 461.00 C 408.66 461.00 385.33 461.01 361.99 460.99 C 356.88 460.91 351.21 459.30 348.24 454.82 C 345.79 451.42 345.49 447.09 345.48 443.05 C 345.54 417.37 345.45 391.69 345.53 366.02 C 345.50 358.05 349.26 349.48 356.80 346.00 C 360.63 344.37 364.63 342.34 368.93 342.82 C 375.42 343.20 381.16 346.95 385.79 351.26 C 393.59 359.14 401.49 366.92 409.27 374.82 C 412.06 371.12 414.96 367.51 417.88 363.92 C 436.69 338.53 448.03 307.68 449.72 276.09 C 451.24 262.38 449.83 248.58 447.80 235.00 M 375.26 382.83 C 375.81 398.86 375.36 414.93 375.49 430.98 C 391.38 431.02 407.27 431.00 423.16 430.99 C 407.25 414.89 390.97 399.13 375.26 382.83 Z" />
<path fill="#2a2e3d" opacity="1.00" d=" M 97.36 328.46 C 100.46 326.32 104.34 326.02 107.99 325.99 C 133.34 326.02 158.70 325.99 184.05 326.00 C 190.89 326.18 198.13 327.95 203.01 333.05 C 206.84 337.03 209.26 342.51 208.87 348.10 C 208.74 355.32 204.59 361.69 199.84 366.83 C 192.47 374.50 185.00 382.07 177.66 389.77 C 183.53 394.06 188.85 399.10 195.15 402.76 C 215.06 415.86 237.94 424.33 261.51 427.73 C 279.07 430.74 297.07 430.34 314.58 427.19 C 314.41 437.24 314.52 447.29 314.53 457.34 C 302.12 459.06 289.56 460.71 277.02 459.43 C 248.71 457.98 220.51 450.96 195.43 437.61 C 181.29 430.00 168.07 420.78 155.99 410.20 C 147.38 418.85 138.82 427.56 130.24 436.23 C 125.17 441.10 118.21 445.26 110.91 443.88 C 105.02 443.16 99.38 440.02 95.95 435.13 C 92.24 430.24 90.55 424.06 90.48 417.99 C 90.52 392.99 90.49 367.99 90.49 342.99 C 90.65 337.54 92.53 331.53 97.36 328.46 M 120.49 356.02 C 120.36 372.07 120.81 388.14 120.25 404.17 C 135.97 387.87 152.24 372.11 168.16 356.01 C 152.27 356.00 136.38 355.98 120.49 356.02 Z" />
</g>
</svg>
