<?xml version="1.0" encoding="utf-8"?>
<!-- Generator: Adobe Illustrator 26.0.1, SVG Export Plug-In . SVG Version: 6.00 Build 0)  -->
<svg version="1.1" id="Layer_2_00000117672196932817586520000000549448776724853931_"
	 xmlns="http://www.w3.org/2000/svg" xmlns:xlink="http://www.w3.org/1999/xlink" x="0px" y="0px" viewBox="0 0 227.3 227.1"
	 style="enable-background:new 0 0 227.3 227.1;" xml:space="preserve">
<style type="text/css">
	.st0{fill:#173153;}
</style>
<path class="st0" d="M29.5,60L45,63.1l7.4,16.7c-4.4,8-7.2,16.8-8.2,25.8l-10-2.6c-1.8-0.4-3.6-0.7-5.4-0.7c-5.1,0-10,1.8-13.9,5.1
	l-0.8,0.7C15,90.8,20.3,74.4,29.5,60 M26.6,45.2c-2.5,0-4.8,1.2-6.2,3.2C7.5,66.9,0,89.3,0,113.4c0,2.8,0.1,5.6,0.3,8.4
	c0.3,4.4,3.9,7.2,7.7,7.2c1.7,0,3.4-0.6,4.9-1.8l11-9.2c1.4-1.2,3.2-1.8,4.9-1.8c0.6,0,1.3,0.1,1.9,0.2l17.5,4.5
	c0.6,0.2,1.3,0.2,1.9,0.2c4.1,0,7.6-3.4,7.6-7.7c0,0,0-0.1,0-0.1c0-10.8,3.1-20.8,8.3-29.4c1.3-2.1,1.4-4.8,0.4-7.1L56.5,54.4
	c-1-2.3-3.1-3.9-5.5-4.4l-22.8-4.6C27.7,45.3,27.2,45.2,26.6,45.2L26.6,45.2z"/>
<path class="st0" d="M103,14.3l7.2,14l-8.4,16.2c-9,1.5-17.6,4.8-25.3,9.7l-4.2-9.4c-2.8-6.4-8.6-11-15.5-12.4l-1-0.2
	C69.7,22.4,86,16.2,103,14.3 M106.7,0c-0.2,0-0.3,0-0.5,0C79.3,1.8,54.9,12.9,36.3,30.2c-4.6,4.3-2.4,11.9,3.7,13.2l14,2.8
	c2.4,0.5,4.5,2.1,5.5,4.4L66.9,67c1.3,2.9,4.1,4.5,7,4.5c1.7,0,3.4-0.6,4.8-1.7c7.9-6.3,17.6-10.6,28.2-11.9
	c2.5-0.3,4.7-1.9,5.9-4.2l11.3-21.9c1.1-2.2,1.1-4.8,0-7L113.5,4.2C112.2,1.6,109.6,0,106.7,0L106.7,0z"/>
<path class="st0" d="M205.8,75.3c5,12,7.6,25,7.6,38.1c0,4-0.2,8-0.7,11.9l-15.3,3.9l-13.9-11.8c0.1-1.3,0.1-2.6,0.1-4
	c0-7.9-1.3-15.6-3.8-22.9l10.1-2c6.8-1.3,12.6-5.9,15.5-12.3L205.8,75.3 M205.5,52.9c-2.8,0-5.7,1.5-7,4.5l-5.9,13
	c-1,2.3-3.1,3.9-5.5,4.4l-17.6,3.5c-4.9,1-7.6,6.3-5.4,10.9c3.5,7.3,5.5,15.6,5.5,24.3c0,2-0.1,4-0.3,5.9c-0.3,2.5,0.8,5,2.7,6.6
	l18.8,16c1.4,1.2,3.2,1.8,5,1.8c0.6,0,1.3-0.1,1.9-0.2l22.6-5.7c3-0.8,5.2-3.1,5.7-6.1c1-6,1.5-12.1,1.5-18.3
	c0-20.6-5.5-40-15.1-56.7C210.7,54.2,208.1,52.9,205.5,52.9L205.5,52.9z"/>
<path class="st0" d="M141,17.6c16.5,4.7,31.6,13.7,43.7,26l-6.5,14.4l-17.9,3.5c-6.9-6.2-14.9-10.9-23.5-13.9l4.7-9.2
	c3.2-6.2,3.2-13.6,0-19.8L141,17.6 M129.3,0.9c-5.6,0-9.5,6-6.9,11.2l6.5,12.8c1.1,2.2,1.1,4.8,0,7l-8.2,16c-2.3,4.5,0.2,9.9,5.1,11
	c10.4,2.3,19.8,7.6,27.1,14.8c1.4,1.4,3.3,2.2,5.3,2.2c0.5,0,1-0.1,1.5-0.1L184,71c2.4-0.5,4.5-2.1,5.5-4.4l9.6-21.2
	c1.3-2.8,0.8-6-1.3-8.3C180.7,18.1,157.1,5,130.5,1C130.1,1,129.7,0.9,129.3,0.9L129.3,0.9z"/>
<path class="st0" d="M31.5,135.6l17.7,4.6c3.5,8.4,8.6,16.1,15.1,22.5l-8.2,6.2c-5.6,4.2-8.8,10.9-8.6,17.8l0,1
	c-12.7-11.4-22.4-25.9-28-42L31.5,135.6 M29.9,121c-1.8,0-3.6,0.6-4.9,1.8l-17.8,15c-2.3,2-3.3,5.1-2.5,8
	c7.5,25.3,23.6,46.9,44.9,61.5c1.4,0.9,2.9,1.4,4.3,1.4c4.1,0,7.8-3.3,7.7-7.9l-0.3-14.3c-0.1-2.5,1.1-4.8,3.1-6.3l14.4-10.8
	c4-3,4.1-9,0.2-12.2c-8.1-6.4-14.3-15-17.9-24.9c-0.8-2.4-2.8-4.1-5.3-4.7l-23.9-6.2C31.2,121.1,30.6,121,29.9,121L29.9,121z"/>
<path class="st0" d="M172.7,150.8l7.9,6.7c3.9,3.3,8.9,5.1,14,5.1c1.8,0,3.6-0.2,5.3-0.6l1-0.3c-8.2,14.9-20.3,27.5-34.8,36.6
	l-12.6-9.5l0.6-18.2C161.5,165.1,167.9,158.4,172.7,150.8 M170.9,133.3c-2.8,0-5.6,1.5-6.9,4.3c-4.5,9.4-11.6,17.4-20.4,23
	c-2.1,1.4-3.4,3.7-3.5,6.2l-0.8,24.7c-0.1,2.5,1.1,4.9,3,6.4l18.5,14.1c1.4,1,3,1.6,4.7,1.6c1.3,0,2.6-0.3,3.7-1
	c22.6-12.7,40.4-33,50-57.4c2.1-5.2-1.9-10.6-7.1-10.6c-0.6,0-1.3,0.1-1.9,0.2l-13.9,3.5c-0.6,0.2-1.2,0.2-1.9,0.2
	c-1.8,0-3.6-0.6-5-1.8l-13.7-11.6C174.4,133.9,172.7,133.3,170.9,133.3L170.9,133.3z"/>
<path class="st0" d="M94.3,180.6c6.3,1.8,12.8,2.7,19.3,2.7c2.6,0,5.1-0.1,7.7-0.4l-0.3,10.3c-0.2,7,3,13.6,8.5,17.9l0.8,0.6
	c-5.5,0.9-11.1,1.4-16.8,1.4c-11.5,0-22.8-1.9-33.5-5.8l-0.4-15.8L94.3,180.6 M93.1,165.9c-1.7,0-3.3,0.5-4.7,1.6l-19.7,14.8
	c-2,1.5-3.1,3.9-3.1,6.4l0.6,23.3c0.1,3,1.9,5.8,4.7,6.9c13.2,5.3,27.6,8.3,42.7,8.3c11.6,0,22.9-1.8,33.4-5c6-1.8,7.4-9.7,2.4-13.5
	l-11.4-8.7c-2-1.5-3.1-3.9-3-6.3l0.5-18c0.1-4.4-3.5-7.9-7.7-7.9c-0.6,0-1.1,0.1-1.7,0.2c-4,0.9-8.2,1.4-12.5,1.4
	c-6.3,0-12.4-1.1-18.1-3C94.8,166,94,165.9,93.1,165.9L93.1,165.9z"/>
</svg>
