<?xml version="1.0" encoding="utf-8"?>
<!-- Generator: Adobe Illustrator 26.0.1, SVG Export Plug-In . SVG Version: 6.00 Build 0)  -->
<svg version="1.1" id="Layer_2" xmlns="http://www.w3.org/2000/svg" xmlns:xlink="http://www.w3.org/1999/xlink" x="0px" y="0px"
	 viewBox="0 0 296.09 284.46" style="enable-background:new 0 0 296.09 284.46;" xml:space="preserve">
<style type="text/css">
	.st0{fill:#173153;}
</style>
<path class="st0" d="M69.2,95.05l15.49,3.12l7.44,16.65c-4.41,7.99-7.2,16.76-8.23,25.82l-9.99-2.57c-1.77-0.45-3.58-0.68-5.41-0.68
	c-5.08,0-10.02,1.79-13.92,5.05l-0.8,0.67C54.7,125.95,59.98,109.51,69.2,95.05 M66.29,80.34c-2.46,0-4.82,1.17-6.25,3.23
	c-12.85,18.41-20.39,40.81-20.39,64.97c0,2.83,0.1,5.64,0.31,8.42c0.32,4.36,3.94,7.22,7.74,7.22c1.68,0,3.4-0.56,4.89-1.8
	l10.99-9.19c1.4-1.17,3.15-1.79,4.94-1.79c0.64,0,1.28,0.08,1.92,0.24l17.51,4.51c0.64,0.17,1.29,0.24,1.91,0.24
	c4.11,0,7.61-3.38,7.6-7.74c0-0.04,0-0.07,0-0.11c0-10.78,3.06-20.84,8.35-29.37c1.32-2.13,1.45-4.8,0.43-7.1L96.15,89.5
	c-1.02-2.27-3.07-3.92-5.51-4.41l-22.81-4.6C67.31,80.39,66.8,80.34,66.29,80.34L66.29,80.34z"/>
<path class="st0" d="M142.64,49.44l7.22,14.05l-8.37,16.19c-9,1.54-17.6,4.83-25.32,9.69l-4.22-9.41
	c-2.85-6.36-8.64-10.99-15.47-12.38l-1.01-0.21C109.36,57.48,125.65,51.26,142.64,49.44 M146.35,35.1c-0.16,0-0.32,0.01-0.49,0.02
	c-26.94,1.74-51.32,12.86-69.91,30.14c-4.59,4.27-2.44,11.95,3.7,13.2l14.02,2.85c2.43,0.49,4.47,2.13,5.49,4.39l7.37,16.42
	c1.31,2.91,4.13,4.54,7.03,4.54c1.68,0,3.38-0.55,4.82-1.7c7.92-6.35,17.6-10.6,28.2-11.87c2.53-0.3,4.72-1.9,5.88-4.16l11.32-21.89
	c1.14-2.21,1.15-4.84,0.01-7.05l-10.64-20.69C151.84,36.72,149.21,35.1,146.35,35.1L146.35,35.1z"/>
<path class="st0" d="M245.4,110.41c4.97,12.02,7.56,24.99,7.56,38.13c0,3.97-0.24,7.96-0.7,11.89l-15.32,3.88l-13.9-11.8
	c0.08-1.33,0.12-2.65,0.12-3.97c0-7.89-1.29-15.56-3.83-22.88l10.1-1.99c6.84-1.35,12.65-5.94,15.54-12.29L245.4,110.41
	 M245.2,88.02c-2.84,0-5.67,1.53-7.03,4.51l-5.94,13.04c-1.03,2.26-3.08,3.88-5.51,4.36l-17.64,3.48
	c-4.93,0.97-7.64,6.34-5.45,10.86c3.55,7.34,5.54,15.57,5.54,24.26c0,2.01-0.11,3.99-0.32,5.94c-0.27,2.52,0.78,5,2.71,6.63
	l18.81,15.97c1.41,1.19,3.18,1.83,4.98,1.83c0.63,0,1.26-0.08,1.89-0.24l22.57-5.71c2.95-0.75,5.21-3.15,5.7-6.15
	c0.96-5.95,1.46-12.05,1.46-18.27c0-20.64-5.51-39.99-15.12-56.68C250.35,89.28,247.77,88.02,245.2,88.02L245.2,88.02z"/>
<path class="st0" d="M180.63,52.68c16.46,4.7,31.58,13.65,43.7,25.95l-6.52,14.38l-17.91,3.5c-6.88-6.17-14.87-10.88-23.52-13.91
	l4.72-9.17c3.19-6.2,3.2-13.6,0.02-19.81L180.63,52.68 M168.98,36.03c-5.61,0-9.54,5.97-6.86,11.2L168.65,60
	c1.13,2.21,1.13,4.82-0.01,7.03l-8.23,15.99c-2.29,4.46,0.21,9.93,5.1,11.02c10.43,2.33,19.76,7.57,27.09,14.84
	c1.41,1.4,3.33,2.15,5.29,2.15c0.5,0,1-0.05,1.49-0.14l24.3-4.75c2.44-0.48,4.51-2.11,5.53-4.38l9.61-21.19
	c1.26-2.77,0.79-6.04-1.26-8.3c-17.23-19.02-40.81-32.18-67.39-36.14C169.77,36.06,169.37,36.03,168.98,36.03L168.98,36.03z"/>
<path class="st0" d="M71.13,170.74l17.65,4.58c3.5,8.43,8.62,16.08,15.06,22.54l-8.25,6.21c-5.57,4.19-8.8,10.86-8.64,17.83
	l0.02,1.03c-12.73-11.37-22.41-25.87-27.96-42.01L71.13,170.74 M69.57,156.12c-1.79,0-3.55,0.62-4.95,1.8L46.78,172.9
	c-2.33,1.96-3.32,5.11-2.45,8.03c7.51,25.3,23.59,46.92,44.87,61.48c1.37,0.94,2.88,1.37,4.34,1.37c4.06,0,7.83-3.27,7.73-7.88
	l-0.32-14.33c-0.06-2.48,1.09-4.83,3.07-6.32l14.38-10.82c4.02-3.02,4.1-9.03,0.17-12.16c-8.07-6.42-14.32-15.04-17.86-24.94
	c-0.84-2.36-2.85-4.11-5.27-4.74l-23.93-6.2C70.87,156.21,70.22,156.12,69.57,156.12L69.57,156.12z"/>
<path class="st0" d="M212.36,185.85l7.87,6.66c3.91,3.31,8.89,5.13,14.01,5.13c1.78,0,3.56-0.22,5.28-0.65l1.02-0.26
	c-8.25,14.89-20.26,27.54-34.81,36.57l-12.59-9.55l0.55-18.22C201.17,200.23,207.5,193.54,212.36,185.85 M210.58,168.38
	c-2.82,0-5.58,1.54-6.92,4.34c-4.53,9.42-11.62,17.38-20.38,22.96c-2.11,1.35-3.39,3.69-3.46,6.19l-0.75,24.7
	c-0.08,2.49,1.06,4.86,3.04,6.37l18.55,14.07c1.37,1.04,3.02,1.58,4.68,1.58c1.27,0,2.55-0.32,3.7-0.97
	c22.6-12.74,40.41-32.99,50.03-57.37c2.06-5.22-1.89-10.58-7.1-10.58c-0.63,0-1.27,0.08-1.92,0.24l-13.92,3.5
	c-0.62,0.16-1.25,0.23-1.87,0.23c-1.8,0-3.57-0.63-4.97-1.82l-13.73-11.62C214.08,168.97,212.32,168.38,210.58,168.38L210.58,168.38
	z"/>
<path class="st0" d="M133.97,215.68c6.27,1.8,12.75,2.71,19.34,2.71c2.57,0,5.14-0.14,7.68-0.42l-0.29,10.31
	c-0.2,6.97,2.99,13.65,8.54,17.88l0.84,0.64c-5.52,0.93-11.12,1.4-16.77,1.4c-11.54,0-22.79-1.94-33.52-5.78l-0.39-15.82
	L133.97,215.68 M132.79,200.99c-1.66,0-3.3,0.54-4.66,1.56l-19.73,14.79c-1.99,1.49-3.14,3.86-3.08,6.35l0.57,23.29
	c0.07,3.04,1.92,5.78,4.73,6.92c13.18,5.34,27.58,8.29,42.68,8.29c11.63,0,22.86-1.75,33.42-4.99c5.99-1.84,7.39-9.69,2.41-13.49
	l-11.42-8.7c-1.97-1.5-3.1-3.86-3.03-6.34l0.51-17.97c0.13-4.43-3.46-7.91-7.67-7.91c-0.57,0-1.15,0.06-1.74,0.2
	c-4.02,0.92-8.2,1.41-12.49,1.41c-6.33,0-12.41-1.05-18.08-2.99C134.43,201.13,133.6,200.99,132.79,200.99L132.79,200.99z"/>
</svg>
