<?xml version="1.0" encoding="utf-8"?>
<!-- Generator: Adobe Illustrator 26.0.1, SVG Export Plug-In . SVG Version: 6.00 Build 0)  -->
<svg version="1.1" id="Layer_1" xmlns="http://www.w3.org/2000/svg" xmlns:xlink="http://www.w3.org/1999/xlink" x="0px" y="0px"
	 viewBox="0 0 479.7 479.7" style="enable-background:new 0 0 479.7 479.7;" xml:space="preserve">
<style type="text/css">
	.st0{fill:#2A2E3D;}
</style>
<g id="_x23_2a2e3dff">
	<path class="st0" d="M200,2.4c33.7-4.3,68.2-2.9,101.1,5.4c26.7,6.7,52.6,17.6,75,33.8c8.8,5.6,16.3,12.8,24.3,19.3
		c8.7-8.9,17.6-17.6,26.3-26.4c4.6-4.7,9.6-9.5,16-11.5c9.5-3.4,20.3,0.2,27.4,6.9c5.8,5.5,8.3,13.6,8.5,21.4c0,31.5,0,63,0,94.5
		c-0.1,5.1-1.2,10.5-4.6,14.4c-3.8,4.5-9.9,6.3-15.5,6.4c-31.5,0-63.1,0-94.6,0c-8.9-0.2-18.7-2.6-24.4-10
		c-3.9-6.1-6.8-13.4-5.7-20.8c1.3-8.6,7-15.9,13.2-21.7c9-9.1,18.1-17.9,27-27.1c-7.8-5.8-15-12.6-23.4-17.5
		c-43.7-29.5-99.1-38.3-150.5-29.5C200.1,27.5,200.1,15,200,2.4 M433.4,80.4c-16.7,16.4-33.4,33-50.1,49.5c19.5,0,39,0.1,58.5,0
		c0-19.4-0.2-38.9,0.1-58.4C439.5,74.8,436.3,77.5,433.4,80.4z"/>
	<path class="st0" d="M31.7,7.5C37.5,3.1,44.9,0.9,52.1,1c31.1,0.1,62.3,0,93.4,0c5.6,0.4,11.6,2.2,15.4,6.6
		c3.5,3.8,4.6,9.2,4.7,14.2c0,29.9,0,59.7,0,89.6c0.2,7.9-0.7,16-4.6,23c-3.7,5.9-9.8,10.8-16.9,11.5c-10.4,1.8-20.6-3.1-27.9-10.2
		c-10-10.1-20.1-20.1-30.1-30.2c-14.1,17.3-26.3,36.2-34.2,57.1c-8.6,21.6-13.3,44.7-14.5,67.9c-1.4,15.2,0.8,30.3,2.7,45.4
		c-12.2,0-24.5,0-36.7,0c-5.3-30.1-3.8-61,3.1-90.7c4.9-23.3,14.1-45.6,25.9-66.2c8-13.8,18.1-26.3,28.5-38.4
		C51,70.1,40.5,60.1,30.4,49.8C23.9,43.3,19.1,34,21,24.6C22.7,18,25.9,11.3,31.7,7.5 M71.1,38c19.3,19.7,39,39.1,58,59
		c-0.6-19.7-0.2-39.4-0.2-59C109.7,37.8,90.4,37.8,71.1,38z"/>
	<path class="st0" d="M438.5,202.3c12.6,0,25.1,0,37.7,0c7.2,54.3-3.4,111.2-31.3,158.5c-8,13.6-18.1,26-28.4,38
		c10,10.5,20.4,20.5,30.5,30.7c5.4,5.3,10.2,11.8,10.9,19.6c0.5,10.8-5.3,22.4-15.4,27c-7.2,3.7-15.5,3.6-23.4,3.5
		c-28.6,0-57.3,0-85.9,0c-6.3-0.1-13.2-2.1-16.9-7.6c-3-4.2-3.4-9.5-3.4-14.4c0.1-31.5,0-63,0.1-94.5c0-9.8,4.6-20.3,13.8-24.6
		c4.7-2,9.6-4.5,14.9-3.9c8,0.5,15,5.1,20.7,10.4c9.6,9.7,19.3,19.2,28.8,28.9c3.4-4.5,7-9,10.6-13.4c23.1-31.2,37-69,39.1-107.8
		C442.7,235.9,440.9,219,438.5,202.3 M349.4,383.7c0.7,19.7,0.1,39.4,0.3,59.1c19.5,0,39,0,58.5,0
		C388.7,423,368.7,403.7,349.4,383.7z"/>
	<path class="st0" d="M8.4,317c3.8-2.6,8.6-3,13-3c31.1,0,62.2,0,93.3,0c8.4,0.2,17.3,2.4,23.3,8.7c4.7,4.9,7.7,11.6,7.2,18.5
		c-0.2,8.9-5.3,16.7-11.1,23c-9,9.4-18.2,18.7-27.2,28.1c7.2,5.3,13.7,11.4,21.5,15.9c24.4,16.1,52.5,26.5,81.4,30.6
		c21.5,3.7,43.6,3.2,65.1-0.7c-0.2,12.3-0.1,24.7-0.1,37c-15.2,2.1-30.6,4.1-46,2.6c-34.7-1.8-69.3-10.4-100.1-26.8
		c-17.4-9.3-33.6-20.7-48.4-33.6c-10.6,10.6-21.1,21.3-31.6,31.9c-6.2,6-14.8,11.1-23.7,9.4c-7.2-0.9-14.1-4.7-18.4-10.7
		c-4.6-6-6.6-13.6-6.7-21c0-30.7,0-61.4,0-92C0.2,328.1,2.5,320.7,8.4,317 M36.8,350.8c-0.2,19.7,0.4,39.4-0.3,59.1
		c19.3-20,39.3-39.3,58.8-59.1C75.8,350.8,56.3,350.7,36.8,350.8z"/>
</g>
</svg>
