<?xml version="1.0" encoding="utf-8"?>
<!-- Generator: Adobe Illustrator 26.0.1, SVG Export Plug-In . SVG Version: 6.00 Build 0)  -->
<svg version="1.1" id="Layer_2" xmlns="http://www.w3.org/2000/svg" xmlns:xlink="http://www.w3.org/1999/xlink" x="0px" y="0px"
	 viewBox="0 0 479.66 479.66" style="enable-background:new 0 0 479.66 479.66;" xml:space="preserve">
<style type="text/css">
	.st0{fill:#2A2E3D;}
</style>
<g>
	<g>
		<path class="st0" d="M59.3,119.78l40.32,8.12l18.41,41.22c-11.1,19.05-17.53,40.32-18.83,62.37l-33.1-8.51
			c-2.44-0.63-4.96-0.95-7.49-0.95c-7.03,0-13.88,2.48-19.27,7l-16.31,13.64c-0.01-0.93-0.02-1.85-0.02-2.78
			C23,196.69,35.52,155.38,59.3,119.78 M52.23,95.03c-2.2,0-4.31,1.02-5.64,2.82C17.31,137.61,0,186.72,0,239.89
			c0,12.14,0.9,24.07,2.65,35.73c0.56,3.73,3.73,6.08,7.03,6.08c1.55,0,3.12-0.52,4.48-1.65l39.93-33.38
			c1.28-1.07,2.89-1.64,4.52-1.64c0.59,0,1.18,0.07,1.76,0.22l53.4,13.74c0.6,0.15,1.2,0.23,1.78,0.23c4.04,0,7.41-3.54,6.98-7.83
			c-0.38-3.78-0.57-7.62-0.57-11.5c0-24.24,7.34-46.76,19.9-65.49c1.37-2.05,1.65-4.64,0.65-6.9l-25.22-56.49
			c-0.93-2.08-2.81-3.59-5.04-4.04L53.64,95.17C53.17,95.08,52.7,95.03,52.23,95.03L52.23,95.03z"/>
	</g>
	<g>
		<path class="st0" d="M221.05,23.92l18.8,36.57l-20.72,40.08c-21.77,3.23-42.53,11.58-60.49,24.24L144.63,93.6
			c-3.95-8.81-11.96-15.21-21.42-17.14l-20.85-4.24c13.89-11.41,29.13-21.03,45.54-28.72C171.03,32.65,195.6,26.08,221.05,23.92
			 M230.51,0.31c-0.09,0-0.18,0-0.27,0.01C164.59,2.88,105.72,31.84,63.94,76.89c-3.75,4.05-1.67,10.64,3.74,11.74L118.63,99
			c2.22,0.45,4.1,1.95,5.03,4.02l22.59,50.33c1.21,2.69,3.79,4.15,6.42,4.15c1.76,0,3.53-0.65,4.94-2.02
			c19.01-18.52,44.23-30.67,72.26-33.01c2.46-0.21,4.67-1.6,5.8-3.8l28.39-54.93c1.05-2.03,1.05-4.43,0.01-6.46L236.75,4.14
			C235.54,1.8,233.13,0.31,230.51,0.31L230.51,0.31z"/>
	</g>
	<g>
		<path class="st0" d="M434.07,143.67c14.77,29.74,22.47,62.51,22.47,96.21c0,10.15-0.71,20.31-2.11,30.34l-39.88,10.1l-34.41-29.22
			c0.3-3.75,0.46-7.5,0.46-11.21c0-18.33-3.56-36.38-10.41-53.17l33.52-6.62c9.47-1.87,17.52-8.23,21.52-17.02L434.07,143.67
			 M432.3,102.08c-2.6,0-5.19,1.41-6.42,4.12l-21.57,47.33c-0.94,2.07-2.82,3.55-5.05,3.99l-54.09,10.68
			c-4.81,0.95-7.19,6.39-4.64,10.58c10.83,17.81,17.08,38.72,17.08,61.09c0,5.69-0.43,11.28-1.21,16.75c-0.35,2.44,0.52,4.9,2.4,6.5
			l47.15,40.04c1.29,1.09,2.91,1.68,4.56,1.68c0.58,0,1.16-0.07,1.73-0.22l57.98-14.68c2.64-0.67,4.69-2.8,5.2-5.48
			c2.72-14.45,4.15-29.35,4.15-44.59c0-49.94-15.28-96.31-41.4-134.7C436.72,103.1,434.5,102.08,432.3,102.08L432.3,102.08z"/>
	</g>
	<g>
		<path class="st0" d="M285.06,27.84c18.53,3.93,36.41,10.28,53.43,19c22.11,11.33,41.89,26.18,58.9,44.23l-16.98,37.44l-44.33,8.67
			c-16.22-15.2-35.8-26.33-56.98-32.51l15.64-30.41c4.42-8.58,4.43-18.84,0.03-27.44L285.06,27.84 M256.92,0.75
			c-5.22,0-8.75,5.5-6.32,10.26l23.69,46.3c1.03,2.02,1.03,4.42-0.01,6.44l-25.23,49.04c-2.24,4.36,0.54,9.61,5.4,10.21
			c27.95,3.48,52.85,16.74,71.18,36.25c1.36,1.45,3.23,2.27,5.16,2.27c0.43,0,0.87-0.04,1.31-0.13l60.78-11.88
			c2.24-0.44,4.13-1.93,5.07-4.01l24.68-54.43c1.13-2.48,0.74-5.41-1.04-7.48c-40.37-46.93-98.6-78.05-164.14-82.83
			C257.29,0.75,257.1,0.75,256.92,0.75L256.92,0.75z"/>
	</g>
	<g>
		<path class="st0" d="M64.82,279.55l43.69,11.33c7.98,20.51,20.71,38.9,37.02,53.61l-27.33,20.57
			c-7.71,5.81-12.19,15.04-11.97,24.69l0.48,21.3c-14.39-11.19-27.31-24.17-38.59-38.78c-15.5-20.07-27.2-42.32-34.84-66.25
			L64.82,279.55 M60.86,255c-1.64,0-3.25,0.57-4.53,1.65L10.52,295.1c-2.09,1.75-3.01,4.56-2.3,7.19
			c16.63,61.86,57.38,113.84,111.55,145.22c1.15,0.67,2.37,0.97,3.56,0.97c3.74,0,7.16-3.02,7.07-7.21l-1.18-52.04
			c-0.05-2.27,0.99-4.43,2.81-5.79l44.06-33.17c3.92-2.95,3.69-8.87-0.42-11.54c-22.62-14.7-39.86-36.95-48.19-63.18
			c-0.75-2.35-2.6-4.19-4.98-4.8l-59.86-15.52C62.05,255.07,61.45,255,60.86,255L60.86,255z"/>
	</g>
	<g>
		<path class="st0" d="M362.68,308.62l26.1,22.08c5.42,4.58,12.31,7.11,19.41,7.11c2.47,0,4.93-0.3,7.32-0.91l20.71-5.2
			c-7.82,16.72-17.78,32.38-29.77,46.79c-16.05,19.28-35.01,35.42-56.44,48.09l-32.78-24.87l1.37-45.1
			C336.84,344.25,351.96,327.75,362.68,308.62 M357.02,275.87c-2.81,0-5.55,1.69-6.64,4.64c-9.45,25.75-27.63,47.29-50.96,61.01
			c-2.12,1.25-3.5,3.46-3.57,5.92l-1.87,61.79c-0.07,2.28,0.97,4.45,2.78,5.83l47.64,36.15c1.26,0.95,2.77,1.45,4.29,1.45
			c1.11,0,2.22-0.26,3.24-0.8c55.48-29.42,98.04-79.98,116.92-140.95c1.45-4.69-2.11-9.2-6.68-9.2c-0.57,0-1.16,0.07-1.76,0.22
			l-50.5,12.68c-0.57,0.14-1.14,0.21-1.72,0.21c-1.65,0-3.27-0.58-4.55-1.67l-42.09-35.61C360.2,276.4,358.6,275.87,357.02,275.87
			L357.02,275.87z"/>
	</g>
	<g>
		<path class="st0" d="M197.7,374.31c13.57,4.25,27.68,6.4,42.07,6.4c7.73,0,15.4-0.63,22.96-1.87L261.76,413
			c-0.27,9.65,4.15,18.91,11.83,24.76l16.98,12.93c-16.53,3.97-33.52,5.97-50.79,5.97c-26.65,0-52.55-4.75-77.14-14.13l-1.01-41.16
			L197.7,374.31 M194.96,349.42c-1.54,0-3.07,0.51-4.34,1.46l-49.37,37.02c-1.82,1.37-2.87,3.53-2.82,5.81l1.47,59.8
			c0.07,2.72,1.68,5.19,4.18,6.28c29.31,12.78,61.68,19.87,95.7,19.87c30.86,0,60.35-5.83,87.44-16.45
			c5.14-2.01,6.12-8.85,1.73-12.2l-41.42-31.56c-1.81-1.38-2.84-3.54-2.77-5.81l1.57-55.1c0.12-4.11-3.21-7.24-7.03-7.24
			c-0.74,0-1.51,0.12-2.26,0.37c-11.71,3.9-24.23,6.03-37.25,6.03c-14.93,0-29.2-2.78-42.35-7.84
			C196.63,349.57,195.79,349.42,194.96,349.42L194.96,349.42z"/>
	</g>
</g>
</svg>
