<?xml version="1.0" encoding="utf-8"?>
<!-- Generator: Adobe Illustrator 26.0.1, SVG Export Plug-In . SVG Version: 6.00 Build 0)  -->
<svg version="1.1" id="Layer_1" xmlns="http://www.w3.org/2000/svg" xmlns:xlink="http://www.w3.org/1999/xlink" x="0px" y="0px"
	 viewBox="0 0 390 390.9" style="enable-background:new 0 0 390 390.9;" xml:space="preserve">
<style type="text/css">
	.st0{fill:#2A2E3D;}
</style>
<g id="_x23_2a2e3dff">
	<path class="st0" d="M162.9,1.9c27.4-3.5,55.6-2.4,82.4,4.4c21.8,5.5,42.9,14.4,61.1,27.6c7.1,4.5,13.3,10.4,19.8,15.7
		c7.1-7.2,14.3-14.3,21.4-21.5c3.8-3.8,7.8-7.7,13-9.4c7.7-2.8,16.5,0.2,22.3,5.6c4.7,4.5,6.8,11.1,6.9,17.5c0,25.7,0,51.4,0,77.1
		c-0.1,4.1-1,8.5-3.8,11.8c-3.1,3.7-8,5.1-12.7,5.2c-25.7,0-51.4,0-77.1,0c-7.2-0.2-15.3-2.1-19.9-8.1c-3.2-5-5.6-10.9-4.6-16.9
		c1.1-7,5.7-12.9,10.8-17.7c7.3-7.4,14.8-14.6,22-22.1c-6.4-4.7-12.2-10.2-19.1-14.3c-35.6-24-80.8-31.2-122.7-24
		C163.1,22.4,163.1,12.2,162.9,1.9 M353.2,65.5c-13.6,13.4-27.2,26.9-40.8,40.3c15.9,0,31.8,0,47.7,0c0-15.9-0.2-31.7,0.1-47.6
		C358.1,61,355.6,63.2,353.2,65.5z"/>
	<path class="st0" d="M25.9,6.1c4.7-3.6,10.7-5.4,16.6-5.3c25.4,0.1,50.8,0,76.1,0c4.6,0.3,9.5,1.8,12.6,5.4
		c2.8,3.1,3.8,7.5,3.9,11.6c0,24.3,0,48.7,0,73c0.1,6.4-0.6,13.1-3.8,18.8c-3,4.8-8,8.8-13.8,9.4c-8.4,1.5-16.8-2.6-22.7-8.3
		c-8.1-8.2-16.4-16.3-24.5-24.6c-11.5,14.1-21.4,29.5-27.9,46.5c-7,17.6-10.8,36.4-11.8,55.3c-1.2,12.4,0.6,24.7,2.2,37
		c-10,0-19.9,0-29.9,0c-4.3-24.5-3.1-49.8,2.6-73.9c4-19,11.5-37.2,21.1-53.9C33,85.7,41.2,75.6,49.7,65.7
		C41.5,57.2,33,49,24.8,40.6c-5.3-5.3-9.2-12.9-7.6-20.6C18.5,14.7,21.1,9.2,25.9,6.1 M58,30.9C73.7,47,89.7,62.8,105.2,79
		c-0.5-16-0.1-32.1-0.2-48.1C89.4,30.8,73.7,30.8,58,30.9z"/>
	<path class="st0" d="M357.3,164.9c10.2,0,20.5,0,30.7,0c5.9,44.3-2.8,90.7-25.5,129.2c-6.6,11.1-14.8,21.2-23.1,31
		c8.1,8.5,16.6,16.7,24.9,25c4.4,4.3,8.3,9.6,8.9,15.9c0.4,8.8-4.3,18.2-12.5,22c-5.9,3-12.7,3-19.1,2.8c-23.3,0-46.7,0-70,0
		c-5.1-0.1-10.8-1.7-13.8-6.2c-2.4-3.4-2.8-7.7-2.8-11.8c0.1-25.7,0-51.4,0-77c0-8,3.7-16.5,11.3-20c3.8-1.6,7.8-3.7,12.1-3.2
		c6.5,0.4,12.2,4.1,16.9,8.4c7.8,7.9,15.7,15.7,23.5,23.6c2.8-3.7,5.7-7.3,8.6-10.9c18.8-25.4,30.1-56.2,31.8-87.8
		C360.8,192.2,359.3,178.4,357.3,164.9 M284.8,312.7c0.5,16,0.1,32.1,0.2,48.2c15.9,0,31.8,0,47.7,0
		C316.8,344.7,300.5,329,284.8,312.7z"/>
	<path class="st0" d="M6.9,258.3c3.1-2.1,7-2.4,10.6-2.5c25.3,0,50.7,0,76.1,0c6.8,0.2,14.1,2,19,7c3.8,4,6.2,9.5,5.9,15.1
		c-0.1,7.2-4.3,13.6-9,18.7c-7.4,7.7-14.8,15.2-22.2,22.9c5.9,4.3,11.2,9.3,17.5,13c19.9,13.1,42.8,21.6,66.4,25
		c17.6,3,35.6,2.6,53.1-0.5c-0.2,10-0.1,20.1,0,30.1c-12.4,1.7-25,3.4-37.5,2.1c-28.3-1.4-56.5-8.5-81.6-21.8
		c-14.1-7.6-27.4-16.8-39.4-27.4c-8.6,8.6-17.2,17.4-25.8,26c-5.1,4.9-12,9-19.3,7.6c-5.9-0.7-11.5-3.9-15-8.8
		c-3.7-4.9-5.4-11.1-5.5-17.1c0-25,0-50,0-75C0.2,267.4,2,261.4,6.9,258.3 M30,285.9c-0.1,16.1,0.3,32.1-0.2,48.2
		c15.7-16.3,32-32.1,47.9-48.2C61.8,285.9,45.9,285.8,30,285.9z"/>
</g>
</svg>
