<?xml version="1.0" encoding="utf-8"?>
<!-- Generator: Adobe Illustrator 26.0.1, SVG Export Plug-In . SVG Version: 6.00 Build 0)  -->
<svg version="1.1" id="Layer_2_00000117672196932817586520000000549448776724853931_"
	 xmlns="http://www.w3.org/2000/svg" xmlns:xlink="http://www.w3.org/1999/xlink" x="0px" y="0px" viewBox="0 0 479.7 479.7"
	 style="enable-background:new 0 0 479.7 479.7;" xml:space="preserve">
<style type="text/css">
	.st0{fill:#173153;}
</style>
<g>
	<path class="st0" d="M62.4,126.6l32.7,6.6l15.7,35.2c-9.3,16.9-15.2,35.4-17.4,54.5l-21.1-5.4c-3.7-1-7.6-1.4-11.4-1.4
		c-10.7,0-21.2,3.8-29.4,10.7l-1.7,1.4C31.8,191.9,42.9,157.2,62.4,126.6 M56.3,95.6c-5.2,0-10.2,2.5-13.2,6.8
		C15.9,141.3,0,188.6,0,239.6c0,6,0.2,11.9,0.7,17.8c0.7,9.2,8.3,15.3,16.3,15.3c3.5,0,7.2-1.2,10.3-3.8l23.2-19.4
		c3-2.5,6.7-3.8,10.4-3.8c1.4,0,2.7,0.2,4.1,0.5l37,9.5c1.4,0.4,2.7,0.5,4,0.5c8.7,0,16.1-7.1,16.1-16.3c0-0.1,0-0.1,0-0.2
		c0-22.8,6.5-44,17.6-62c2.8-4.5,3.1-10.1,0.9-15l-21.3-47.7c-2.2-4.8-6.5-8.3-11.6-9.3l-48.2-9.7C58.4,95.7,57.3,95.6,56.3,95.6
		L56.3,95.6z"/>
	<path class="st0" d="M217.5,30.3L232.8,60l-17.7,34.2c-19,3.3-37.2,10.2-53.5,20.5l-8.9-19.9c-6-13.4-18.2-23.2-32.7-26.1l-2.1-0.4
		C147.2,47.3,181.6,34.1,217.5,30.3 M225.4,0c-0.3,0-0.7,0-1,0C167.4,3.7,115.9,27.2,76.7,63.7c-9.7,9-5.2,25.2,7.8,27.9l29.6,6
		c5.1,1,9.4,4.5,11.6,9.3l15.6,34.7c2.8,6.1,8.7,9.6,14.8,9.6c3.5,0,7.1-1.2,10.2-3.6c16.7-13.4,37.2-22.4,59.6-25.1
		c5.3-0.6,10-4,12.4-8.8l23.9-46.2c2.4-4.7,2.4-10.2,0-14.9L239.7,8.9C237,3.4,231.4,0,225.4,0L225.4,0z"/>
	<path class="st0" d="M434.6,159.1c10.5,25.4,16,52.8,16,80.5c0,8.4-0.5,16.8-1.5,25.1l-32.4,8.2L387.4,248c0.2-2.8,0.3-5.6,0.3-8.4
		c0-16.7-2.7-32.9-8.1-48.3l21.3-4.2c14.4-2.9,26.7-12.5,32.8-26L434.6,159.1 M434.2,111.8c-6,0-12,3.2-14.8,9.5l-12.5,27.5
		c-2.2,4.8-6.5,8.2-11.6,9.2l-37.3,7.4c-10.4,2-16.1,13.4-11.5,22.9c7.5,15.5,11.7,32.9,11.7,51.2c0,4.2-0.2,8.4-0.7,12.5
		c-0.6,5.3,1.6,10.6,5.7,14l39.7,33.7c3,2.5,6.7,3.9,10.5,3.9c1.3,0,2.7-0.2,4-0.5l47.7-12.1c6.2-1.6,11-6.7,12-13
		c2-12.6,3.1-25.5,3.1-38.6c0-43.6-11.6-84.5-31.9-119.7C445,114.4,439.6,111.8,434.2,111.8L434.2,111.8z"/>
	<path class="st0" d="M297.8,37.1c34.8,9.9,66.7,28.8,92.3,54.8l-13.8,30.4l-37.8,7.4c-14.5-13-31.4-23-49.7-29.4l10-19.4
		c6.7-13.1,6.8-28.7,0-41.8L297.8,37.1 M273.2,2c-11.8,0-20.2,12.6-14.5,23.7l13.8,27c2.4,4.7,2.4,10.2,0,14.8l-17.4,33.8
		c-4.8,9.4,0.4,21,10.8,23.3c22,4.9,41.7,16,57.2,31.3c3,3,7,4.5,11.2,4.5c1.1,0,2.1-0.1,3.1-0.3l51.3-10c5.2-1,9.5-4.5,11.7-9.3
		L420.7,96c2.7-5.9,1.7-12.8-2.7-17.5c-36.4-40.2-86.2-68-142.3-76.3C274.8,2,274,2,273.2,2L273.2,2z"/>
	<path class="st0" d="M66.5,286.5l37.3,9.7c7.4,17.8,18.2,34,31.8,47.6l-17.4,13.1c-11.8,8.9-18.6,22.9-18.2,37.7l0,2.2
		c-26.9-24-47.3-54.6-59.1-88.7L66.5,286.5 M63.2,255.6c-3.8,0-7.5,1.3-10.5,3.8l-37.7,31.6c-4.9,4.1-7,10.8-5.2,17
		c15.9,53.4,49.8,99.1,94.8,129.9c2.9,2,6.1,2.9,9.2,2.9c8.6,0,16.5-6.9,16.3-16.6l-0.7-30.3c-0.1-5.2,2.3-10.2,6.5-13.3l30.4-22.9
		c8.5-6.4,8.7-19.1,0.4-25.7c-17-13.6-30.2-31.8-37.7-52.7c-1.8-5-6-8.7-11.1-10l-50.5-13.1C65.9,255.8,64.6,255.6,63.2,255.6
		L63.2,255.6z"/>
	<path class="st0" d="M364.8,318.4l16.6,14.1c8.3,7,18.8,10.8,29.6,10.8c3.8,0,7.5-0.5,11.2-1.4l2.2-0.5
		c-17.4,31.5-42.8,58.2-73.5,77.2l-26.6-20.2l1.2-38.5C341.2,348.8,354.5,334.7,364.8,318.4 M361,281.5c-6,0-11.8,3.3-14.6,9.2
		c-9.6,19.9-24.5,36.7-43,48.5c-4.5,2.9-7.2,7.8-7.3,13.1l-1.6,52.2c-0.2,5.3,2.2,10.3,6.4,13.5l39.2,29.7c2.9,2.2,6.4,3.3,9.9,3.3
		c2.7,0,5.4-0.7,7.8-2c47.7-26.9,85.4-69.7,105.7-121.2c4.4-11-4-22.3-15-22.3c-1.3,0-2.7,0.2-4.1,0.5l-29.4,7.4
		c-1.3,0.3-2.6,0.5-3.9,0.5c-3.8,0-7.5-1.3-10.5-3.8l-29-24.5C368.4,282.8,364.7,281.5,361,281.5L361,281.5z"/>
	<path class="st0" d="M199.2,381.4c13.2,3.8,26.9,5.7,40.8,5.7c5.4,0,10.9-0.3,16.2-0.9l-0.6,21.8c-0.4,14.7,6.3,28.8,18,37.8
		l1.8,1.4c-11.7,2-23.5,3-35.4,3c-24.4,0-48.1-4.1-70.8-12.2l-0.8-33.4L199.2,381.4 M196.7,350.4c-3.5,0-7,1.1-9.8,3.3l-41.7,31.2
		c-4.2,3.1-6.6,8.2-6.5,13.4l1.2,49.2c0.1,6.4,4.1,12.2,10,14.6c27.8,11.3,58.3,17.5,90.1,17.5c24.6,0,48.3-3.7,70.6-10.5
		c12.7-3.9,15.6-20.5,5.1-28.5l-24.1-18.4c-4.2-3.2-6.5-8.2-6.4-13.4l1.1-38c0.3-9.4-7.3-16.7-16.2-16.7c-1.2,0-2.4,0.1-3.7,0.4
		c-8.5,1.9-17.3,3-26.4,3c-13.4,0-26.2-2.2-38.2-6.3C200.2,350.7,198.4,350.4,196.7,350.4L196.7,350.4z"/>
</g>
</svg>
