<?xml version="1.0" encoding="UTF-8" ?>
<!DOCTYPE svg PUBLIC "-//W3C//DTD SVG 1.1//EN" "http://www.w3.org/Graphics/SVG/1.1/DTD/svg11.dtd">
<svg width="536pt" height="550pt" viewBox="0 0 536 550" version="1.1" xmlns="http://www.w3.org/2000/svg">
<g id="#ffffffff">
<path fill="#ffffff" opacity="1.00" d=" M 0.00 0.00 L 536.00 0.00 L 536.00 550.00 L 0.00 550.00 L 0.00 0.00 M 87.63 35.72 C 82.35 37.36 80.31 43.14 79.68 48.11 C 79.50 79.30 85.68 110.71 99.08 138.96 C 105.52 152.41 112.29 165.81 121.15 177.85 C 126.31 185.84 132.75 192.87 138.91 200.08 C 143.83 204.84 148.73 209.63 153.65 214.41 C 162.11 221.30 170.52 228.27 179.49 234.51 C 197.71 247.70 215.98 260.83 234.22 274.00 C 213.15 289.32 191.98 304.51 170.86 319.76 C 165.08 324.32 159.34 328.92 153.65 333.58 C 148.67 338.30 143.66 343.01 138.89 347.95 C 132.22 356.00 125.07 363.68 119.49 372.56 C 113.84 379.96 109.78 388.34 105.26 396.43 C 97.35 411.55 90.72 427.39 86.43 443.93 C 81.87 461.90 79.74 480.44 79.60 498.97 C 79.95 503.59 81.85 508.56 86.25 510.73 C 93.82 515.32 106.26 512.51 108.59 503.22 C 110.06 496.94 109.84 490.41 110.57 484.02 C 209.86 483.98 309.16 484.00 408.45 484.01 C 409.22 492.01 408.48 500.58 412.19 507.96 C 417.66 515.56 430.63 515.67 436.47 508.47 C 439.94 502.99 439.58 496.26 439.12 490.07 C 438.20 461.83 431.69 433.76 419.60 408.20 C 412.40 391.97 403.08 376.76 392.45 362.57 C 386.47 355.86 381.25 348.46 374.57 342.41 C 360.38 328.03 343.77 316.36 326.90 305.37 C 322.38 302.17 315.81 301.85 311.33 305.29 C 305.37 308.67 303.40 316.77 305.93 322.90 C 307.88 327.11 311.83 329.87 315.41 332.61 C 328.54 342.39 341.53 352.44 353.17 363.99 C 290.39 364.00 227.61 364.00 164.83 363.99 C 174.21 354.90 184.10 346.28 194.81 338.78 C 245.68 301.92 296.57 265.09 347.43 228.22 C 353.66 223.21 360.28 218.63 366.03 213.04 C 393.60 189.21 413.77 157.57 426.34 123.52 C 434.83 101.36 438.66 77.60 439.31 53.93 C 439.79 49.20 439.09 44.28 436.82 40.06 C 434.22 35.84 428.96 34.59 424.36 34.11 C 419.62 34.68 414.04 36.10 411.79 40.81 C 408.50 48.06 409.48 56.27 408.42 63.99 C 309.14 64.01 209.86 64.00 110.58 64.00 C 110.32 59.12 109.61 54.29 109.47 49.40 C 108.91 44.94 107.90 39.87 104.01 37.06 C 99.13 34.07 92.92 33.19 87.63 35.72 Z" />
<path fill="#ffffff" opacity="1.00" d=" M 115.26 94.01 C 211.49 94.00 307.72 93.98 403.96 94.02 C 400.49 107.66 395.80 121.02 389.30 133.53 C 386.08 140.69 381.63 147.18 377.77 154.00 C 298.97 153.94 220.18 154.11 141.38 153.92 C 129.51 135.53 120.08 115.43 115.26 94.01 Z" />
<path fill="#ffffff" opacity="1.00" d=" M 164.81 184.05 C 227.26 183.94 289.72 184.02 352.17 184.01 C 344.93 191.21 337.12 197.82 329.13 204.19 C 305.90 221.22 282.59 238.15 259.47 255.34 C 236.10 238.36 212.48 221.73 188.95 204.96 C 180.21 198.79 173.48 190.27 164.81 184.05 Z" />
<path fill="#ffffff" opacity="1.00" d=" M 141.35 394.10 C 220.16 393.86 298.97 394.07 377.77 394.00 C 389.48 412.51 398.83 432.63 403.95 453.98 C 307.72 454.02 211.49 454.00 115.26 453.99 C 120.07 432.58 129.49 412.48 141.35 394.10 Z" />
</g>
<g id="#2a2e3dff">
<path fill="#2a2e3d" opacity="1.00" d=" M 87.63 35.72 C 92.92 33.19 99.13 34.07 104.01 37.06 C 107.90 39.87 108.91 44.94 109.47 49.40 C 109.61 54.29 110.32 59.12 110.58 64.00 C 209.86 64.00 309.14 64.01 408.42 63.99 C 409.48 56.27 408.50 48.06 411.79 40.81 C 414.04 36.10 419.62 34.68 424.36 34.11 C 428.96 34.59 434.22 35.84 436.82 40.06 C 439.09 44.28 439.79 49.20 439.31 53.93 C 438.66 77.60 434.83 101.36 426.34 123.52 C 413.77 157.57 393.60 189.21 366.03 213.04 C 360.28 218.63 353.66 223.21 347.43 228.22 C 296.57 265.09 245.68 301.92 194.81 338.78 C 184.10 346.28 174.21 354.90 164.83 363.99 C 227.61 364.00 290.39 364.00 353.17 363.99 C 341.53 352.44 328.54 342.39 315.41 332.61 C 311.83 329.87 307.88 327.11 305.93 322.90 C 303.40 316.77 305.37 308.67 311.33 305.29 C 315.81 301.85 322.38 302.17 326.90 305.37 C 343.77 316.36 360.38 328.03 374.57 342.41 C 381.25 348.46 386.47 355.86 392.45 362.57 C 403.08 376.76 412.40 391.97 419.60 408.20 C 431.69 433.76 438.20 461.83 439.12 490.07 C 439.58 496.26 439.94 502.99 436.47 508.47 C 430.63 515.67 417.66 515.56 412.19 507.96 C 408.48 500.58 409.22 492.01 408.45 484.01 C 309.16 484.00 209.86 483.98 110.57 484.02 C 109.84 490.41 110.06 496.94 108.59 503.22 C 106.26 512.51 93.82 515.32 86.25 510.73 C 81.85 508.56 79.95 503.59 79.60 498.97 C 79.74 480.44 81.87 461.90 86.43 443.93 C 90.72 427.39 97.35 411.55 105.26 396.43 C 109.78 388.34 113.84 379.96 119.49 372.56 C 125.07 363.68 132.22 356.00 138.89 347.95 C 143.66 343.01 148.67 338.30 153.65 333.58 C 159.34 328.92 165.08 324.32 170.86 319.76 C 191.98 304.51 213.15 289.32 234.22 274.00 C 215.98 260.83 197.71 247.70 179.49 234.51 C 170.52 228.27 162.11 221.30 153.65 214.41 C 148.73 209.63 143.83 204.84 138.91 200.08 C 132.75 192.87 126.31 185.84 121.15 177.85 C 112.29 165.81 105.52 152.41 99.08 138.96 C 85.68 110.71 79.50 79.30 79.68 48.11 C 80.31 43.14 82.35 37.36 87.63 35.72 M 115.26 94.01 C 120.08 115.43 129.51 135.53 141.38 153.92 C 220.18 154.11 298.97 153.94 377.77 154.00 C 381.63 147.18 386.08 140.69 389.30 133.53 C 395.80 121.02 400.49 107.66 403.96 94.02 C 307.72 93.98 211.49 94.00 115.26 94.01 M 164.81 184.05 C 173.48 190.27 180.21 198.79 188.95 204.96 C 212.48 221.73 236.10 238.36 259.47 255.34 C 282.59 238.15 305.90 221.22 329.13 204.19 C 337.12 197.82 344.93 191.21 352.17 184.01 C 289.72 184.02 227.26 183.94 164.81 184.05 M 141.35 394.10 C 129.49 412.48 120.07 432.58 115.26 453.99 C 211.49 454.00 307.72 454.02 403.95 453.98 C 398.83 432.63 389.48 412.51 377.77 394.00 C 298.97 394.07 220.16 393.86 141.35 394.10 Z" />
</g>
</svg>
