<?xml version="1.0" encoding="utf-8"?>
<!-- Generator: Adobe Illustrator 26.0.1, SVG Export Plug-In . SVG Version: 6.00 Build 0)  -->
<svg version="1.1" id="Layer_1" xmlns="http://www.w3.org/2000/svg" xmlns:xlink="http://www.w3.org/1999/xlink" x="0px" y="0px"
	 viewBox="0 0 479.7 479.7" style="enable-background:new 0 0 479.7 479.7;" xml:space="preserve">
<style type="text/css">
	.st0{fill:#2A2E3D;}
</style>
<g id="_x23_2a2e3dff">
	<path class="st0" d="M67.9,1.6C73.2-0.9,79.4,0,84.3,3c3.9,2.8,4.9,7.9,5.5,12.3c0.1,4.9,0.8,9.7,1.1,14.6c99.3,0,198.6,0,297.8,0
		c1.1-7.7,0.1-15.9,3.4-23.2c2.2-4.7,7.8-6.1,12.6-6.7c4.6,0.5,9.9,1.7,12.5,6c2.3,4.2,3,9.1,2.5,13.9c-0.6,23.7-4.5,47.4-13,69.6
		c-12.6,34.1-32.7,65.7-60.3,89.5c-5.8,5.6-12.4,10.2-18.6,15.2C276.9,231,226,267.8,175.1,304.7c-10.7,7.5-20.6,16.1-30,25.2
		c62.8,0,125.6,0,188.3,0c-11.6-11.5-24.6-21.6-37.8-31.4c-3.6-2.7-7.5-5.5-9.5-9.7c-2.5-6.1-0.6-14.2,5.4-17.6
		c4.5-3.4,11.1-3.1,15.6,0.1c16.9,11,33.5,22.7,47.7,37c6.7,6,11.9,13.5,17.9,20.2c10.6,14.2,19.9,29.4,27.1,45.6
		c12.1,25.6,18.6,53.6,19.5,81.9c0.5,6.2,0.8,12.9-2.6,18.4c-5.8,7.2-18.8,7.1-24.3-0.5c-3.7-7.4-3-15.9-3.7-23.9
		c-99.3,0-198.6,0-297.9,0c-0.7,6.4-0.5,12.9-2,19.2c-2.3,9.3-14.8,12.1-22.3,7.5c-4.4-2.2-6.3-7.1-6.6-11.8
		c0.1-18.5,2.3-37.1,6.8-55c4.3-16.5,10.9-32.4,18.8-47.5c4.5-8.1,8.6-16.5,14.2-23.9c5.6-8.9,12.7-16.6,19.4-24.6
		c4.8-4.9,9.8-9.7,14.8-14.4c5.7-4.7,11.4-9.3,17.2-13.8c21.1-15.2,42.3-30.4,63.4-45.8c-18.2-13.2-36.5-26.3-54.7-39.5
		c-9-6.2-17.4-13.2-25.8-20.1c-4.9-4.8-9.8-9.6-14.7-14.3c-6.2-7.2-12.6-14.2-17.8-22.2c-8.9-12-15.6-25.4-22.1-38.9
		C66,76.6,59.8,45.2,60,14C60.6,9,62.7,3.2,67.9,1.6 M95.6,59.9c4.8,21.4,14.2,41.5,26.1,59.9c78.8,0.2,157.6,0,236.4,0.1
		c3.9-6.8,8.3-13.3,11.5-20.5c6.5-12.5,11.2-25.9,14.7-39.5C288,59.9,191.8,59.9,95.6,59.9 M145.1,149.9
		c8.7,6.2,15.4,14.7,24.1,20.9c23.5,16.8,47.2,33.4,70.5,50.4c23.1-17.2,46.4-34.1,69.7-51.1c8-6.4,15.8-13,23-20.2
		C270,149.9,207.6,149.8,145.1,149.9 M121.7,360c-11.9,18.4-21.3,38.5-26.1,59.9c96.2,0,192.5,0,288.7,0
		c-5.1-21.3-14.5-41.5-26.2-60C279.3,360,200.5,359.8,121.7,360z"/>
</g>
</svg>
