<?xml version="1.0" encoding="utf-8"?>
<svg version="1.1" id="Layer_1" xmlns="http://www.w3.org/2000/svg" xmlns:xlink="http://www.w3.org/1999/xlink" x="0px" y="0px"
	 viewBox="0 0 248.8 186.7" style="enable-background:new 0 0 248.8 186.7;" xml:space="preserve">
<style type="text/css">
	.st0{fill:#F15A24;}
</style>
<path id="Path" class="st0" d="M183.6,139l-16.8-29.8l-30.1-8.8l23.2-3.4l-21.7-38.5l-21.8-12l21,3.5l45.8,7L114.7,1.8
	c-3.4-3.3-8.4-1.8-10.2,3L87,72.2l24.5,4.1l-27.1,6l-15.1,58l45,6.4l-50.8,8.1L0,186.7c0,0,41.7-1.9,55.9-3.9
	c53.7-7.5,93.2-8.3,147-16.6c9.4-1.5,45.9-25.3,45.9-25.3L183.6,139L183.6,139z"/>
</svg>
