<?xml version="1.0" encoding="utf-8"?>
<!-- Generator: Adobe Illustrator 26.0.1, SVG Export Plug-In . SVG Version: 6.00 Build 0)  -->
<svg version="1.1" id="Layer_1" xmlns="http://www.w3.org/2000/svg" xmlns:xlink="http://www.w3.org/1999/xlink" x="0px" y="0px"
	 viewBox="0 0 599.6 419.9" style="enable-background:new 0 0 599.6 419.9;" xml:space="preserve">
<style type="text/css">
	.st0{fill:#2A2E3D;}
</style>
<g id="_x23_2a2e3dff">
	<path class="st0" d="M277.4,6.2c6-2,11.8-4.6,18-5.8c5.9-1,11.8,0.3,17.4,2.1C401,34.2,489.2,66,577.4,97.7c4.5,1.8,9.2,3.7,13,6.9
		c13.7,12.5,11.7,37.6-3.7,47.8c-6,4-13,5.9-19.7,8.4c-82,29.6-164,59.1-246,88.7c-9.5,3.8-20.1,7.3-30.2,4
		c-16.6-5.7-33-11.8-49.5-17.7c-55.5-20-111.1-39.7-166.6-59.8c0.2,30.6,0,61.2,0.1,91.8c0,1.3,0.2,2.6,0.4,4
		c9.8,43,19.6,86.1,29.3,129.1c1.7,7.4-3,15.2-9.7,18.2c-3.7,1-7.7,0.7-11.5,0.8c-17.7,0-35.4,0-53.1,0c-5.9,0.3-12.2-3.1-14.3-8.9
		c-1.2-3.5-1.4-7.4-0.6-11c9.7-42.1,19.4-84.1,29.1-126.2c0.3-1.3,0.4-2.5,0.4-3.8c0-34.7,0-69.3,0-104c-7.8-3.4-15.8-6.6-23.6-10
		c-8.8-3.8-17.1-10.6-19.6-20.2c-2.9-7.9-1.4-16.7,2.5-24c4.3-6.6,11-11.3,18.3-14C107.3,67.2,192.4,36.7,277.4,6.2 M299.8,30.2
		C213,61.4,126.1,92.7,39.2,123.9c-3.6,1.3-7.1,2.8-10.9,3.5c3,0.5,5.9,1.6,8.7,2.7c12.2,4.8,24.5,9.4,36.7,14.2
		c73.1-22.7,146.2-45.3,219.3-67.9c2.9-0.9,6.1-1.2,9.1-0.9c5.4,0.4,9.8,4.8,11.5,9.7c0.8,4.6,1,10-2.3,13.7
		c-3.7,4.7-9.9,5.8-15.3,7.6c-58.3,18.1-116.5,36.7-174.9,54.6c23.9,8.1,47.5,17,71.4,25.5c35.4,12.8,70.8,25.5,106.2,38.3
		c79.9-28.9,160-57.6,239.9-86.4c10.8-3.7,21.4-8.2,32.4-11.3c-1.8-0.3-3.5-0.6-5.2-1.2c-87.8-31.9-175.7-63.7-263.5-95.6
		C301.6,30,300.7,29.9,299.8,30.2 M58.7,343.8c-3.4,15-6.8,30-10.2,45c7.5,0,15,0,22.5,0c-2.7-12.3-5.6-24.6-8.4-36.9
		c-1.1-4.9-2.4-9.7-2.9-14.7C59.5,339.4,59.2,341.6,58.7,343.8z"/>
	<path class="st0" d="M142.6,240.4c9.8-2.9,19.5,6.6,18.2,16.4c-3.4,26.7-7.3,53.4-10.9,80.1c-0.9,6,1.2,12.4,5.8,16.4
		c3.3,2.8,7,5.1,11,6.8c38.4,17.6,80.4,26.9,122.5,29.1c15.6,1.3,31.3-0.6,46.8-2.1c34.5-4.3,68.6-13.6,100.1-28.6
		c4.5-2.5,9.2-5.5,11.6-10.3c2-3.8,2.4-8.2,1.8-12.4c-3.3-25.6-6.5-51.3-9.7-76.9c-0.8-4.8-0.3-10,2.7-14c5.8-7.3,18.4-6.3,23.3,1.5
		c1.9,2.7,2.7,6.1,3.1,9.3c3.5,25.4,7,50.8,10.5,76.1c1.8,13.7-1.4,28.7-11,39.1c-5.4,6.8-13.1,11.1-20.6,15.2
		c-19.2,8.4-38.8,16.2-59.2,21.4c-28.4,8-57.9,11.2-87.3,12.4c-36.4-0.8-72.9-6-107.6-17.3c-9.8-3.5-19.8-6.7-29.3-11.1
		c-12.6-5-25.6-10.9-34.3-21.6c-9.1-10.7-11.8-25.5-9.9-39.1c3.6-25.8,7.1-51.7,10.8-77.5C131.8,247.2,136.4,241.6,142.6,240.4z"/>
</g>
</svg>
