<?xml version="1.0" encoding="utf-8"?>
<!-- Generator: Adobe Illustrator 26.0.1, SVG Export Plug-In . SVG Version: 6.00 Build 0)  -->
<svg version="1.1" id="Layer_1" xmlns="http://www.w3.org/2000/svg" xmlns:xlink="http://www.w3.org/1999/xlink" x="0px" y="0px"
	 viewBox="0 0 479.7 479.7" style="enable-background:new 0 0 479.7 479.7;" xml:space="preserve">
<style type="text/css">
	.st0{fill:#2A2E3D;}
</style>
<g id="_x23_2a2e3dff">
	<path class="st0" d="M221.8,76.7c4.8-1.6,9.4-3.7,14.4-4.7c4.7-0.8,9.4,0.2,13.9,1.7c70.6,25.4,141.2,50.8,211.8,76.2
		c3.6,1.5,7.4,3,10.4,5.5c10.9,10,9.4,30.1-3,38.2c-4.8,3.2-10.4,4.7-15.7,6.7c-65.6,23.7-131.3,47.3-196.9,71
		c-7.6,3-16,5.8-24.2,3.2c-13.3-4.6-26.4-9.5-39.7-14.1c-44.4-16-88.9-31.8-133.4-47.9c0.2,24.5,0,49,0.1,73.5
		c0,1.1,0.1,2.1,0.4,3.2c7.8,34.4,15.6,68.9,23.4,103.4c1.4,5.9-2.4,12.2-7.8,14.5c-3,0.8-6.1,0.6-9.2,0.6c-14.2,0-28.3,0-42.5,0
		c-4.7,0.2-9.8-2.5-11.5-7.1c-1-2.8-1.2-5.9-0.5-8.8c7.8-33.7,15.5-67.3,23.3-101c0.2-1,0.3-2,0.3-3.1c0-27.7,0-55.5,0-83.2
		c-6.3-2.7-12.6-5.3-18.9-8C9.6,193.5,3,188,1,180.3c-2.3-6.3-1.1-13.4,2-19.2c3.4-5.3,8.8-9,14.7-11.2
		C85.7,125.6,153.7,101.2,221.8,76.7 M239.8,95.9c-69.5,25-139.1,50-208.6,75c-2.9,1-5.7,2.2-8.7,2.8c2.4,0.4,4.7,1.3,7,2.2
		c9.8,3.8,19.6,7.5,29.4,11.4c58.5-18.2,117-36.2,175.5-54.4c2.4-0.7,4.8-1,7.3-0.7c4.3,0.3,7.8,3.8,9.2,7.8c0.7,3.7,0.8,8-1.9,10.9
		c-3,3.8-7.9,4.6-12.2,6.1c-46.7,14.5-93.2,29.3-140,43.7c19.1,6.5,38.1,13.6,57.1,20.4c28.3,10.2,56.7,20.4,85,30.6
		c64-23.1,128-46.1,192-69.1c8.7-2.9,17.1-6.5,25.9-9c-1.4-0.2-2.8-0.5-4.2-1c-70.3-25.5-140.6-51-210.9-76.5
		C241.1,95.8,240.4,95.7,239.8,95.9 M46.8,347c-2.7,12-5.5,24-8.2,36c6,0,12,0,18,0c-2.2-9.9-4.4-19.7-6.7-29.6
		c-0.9-3.9-2-7.8-2.3-11.8C47.4,343.5,47.2,345.3,46.8,347z"/>
	<path class="st0" d="M113.9,264.2c7.9-2.4,15.6,5.3,14.6,13.1c-2.8,21.4-5.9,42.7-8.8,64.1c-0.7,4.8,1,9.9,4.6,13.2
		c2.6,2.3,5.6,4.1,8.8,5.4c30.7,14.1,64.3,21.6,98,23.3c12.5,1.1,25-0.5,37.5-1.7c27.6-3.4,54.9-10.9,80.1-22.9
		c3.6-2,7.4-4.4,9.3-8.2c1.6-3,1.9-6.5,1.4-9.9c-2.6-20.5-5.2-41.1-7.8-61.6c-0.6-3.8-0.3-8,2.2-11.2c4.6-5.8,14.7-5,18.6,1.2
		c1.6,2.2,2.1,4.9,2.5,7.4c2.8,20.3,5.6,40.6,8.4,60.9c1.4,11-1.1,23-8.8,31.3c-4.3,5.4-10.5,8.9-16.5,12.1
		c-15.4,6.7-31.1,13-47.4,17.1c-22.7,6.4-46.3,9-69.9,9.9c-29.1-0.6-58.3-4.8-86.1-13.8c-7.9-2.8-15.9-5.4-23.5-8.9
		c-10-4-20.5-8.7-27.5-17.3c-7.3-8.5-9.5-20.4-7.9-31.3c2.9-20.7,5.6-41.4,8.6-62C105.3,269.6,108.9,265.2,113.9,264.2z"/>
</g>
</svg>
