<?xml version="1.0" encoding="UTF-8" ?>
<!DOCTYPE svg PUBLIC "-//W3C//DTD SVG 1.1//EN" "http://www.w3.org/Graphics/SVG/1.1/DTD/svg11.dtd">
<svg width="717pt" height="621pt" viewBox="0 0 717 621" version="1.1" xmlns="http://www.w3.org/2000/svg">
<g id="#ffffffff">
<path fill="#ffffff" opacity="1.00" d=" M 0.00 0.00 L 717.00 0.00 L 717.00 621.00 L 0.00 621.00 L 0.00 0.00 M 342.19 89.33 C 257.16 119.83 172.12 150.33 87.09 180.84 C 79.77 183.50 73.05 188.22 68.77 194.80 C 64.88 202.09 63.41 210.86 66.30 218.77 C 68.87 228.39 77.11 235.17 85.93 239.01 C 93.74 242.48 101.67 245.65 109.51 249.05 C 109.48 283.72 109.50 318.39 109.50 353.06 C 109.48 354.35 109.34 355.62 109.07 356.89 C 99.37 398.95 89.71 441.02 79.99 483.07 C 79.12 486.70 79.32 490.59 80.56 494.12 C 82.68 499.82 88.96 503.25 94.89 502.97 C 112.59 503.04 130.30 502.97 148.00 503.01 C 151.83 502.96 155.76 503.26 159.50 502.24 C 166.20 499.25 170.93 491.43 169.21 484.07 C 159.49 441.02 149.70 397.98 139.94 354.94 C 139.66 353.63 139.51 352.31 139.50 350.98 C 139.44 320.37 139.62 289.75 139.41 259.14 C 194.90 279.22 250.50 298.99 306.03 318.96 C 322.56 324.81 339.00 330.93 355.58 336.62 C 365.77 339.92 376.32 336.39 385.82 332.62 C 467.81 303.04 549.81 273.47 631.80 243.90 C 638.46 241.39 645.46 239.50 651.45 235.54 C 666.92 225.36 668.86 200.24 655.19 187.76 C 651.41 184.57 646.76 182.68 642.22 180.86 C 554.00 149.13 465.79 117.39 377.57 85.65 C 372.01 83.79 366.08 82.51 360.22 83.52 C 353.99 84.72 348.16 87.29 342.19 89.33 M 207.41 323.59 C 201.18 324.75 196.59 330.33 195.78 336.49 C 192.05 362.30 188.65 388.17 185.00 413.99 C 183.06 427.59 185.81 442.40 194.87 453.07 C 203.63 463.77 216.66 469.59 229.21 474.63 C 238.71 479.00 248.68 482.18 258.52 485.69 C 293.20 497.02 329.67 502.21 366.08 502.98 C 395.48 501.84 424.97 498.61 453.35 490.62 C 473.73 485.51 493.32 477.69 512.53 469.27 C 520.02 465.18 527.75 460.89 533.15 454.10 C 542.77 443.73 545.88 428.75 544.13 415.01 C 540.61 389.63 537.10 364.26 533.63 338.87 C 533.16 335.63 532.44 332.28 530.50 329.57 C 525.61 321.82 513.00 320.85 507.24 328.11 C 504.18 332.09 503.73 337.32 504.51 342.13 C 507.76 367.77 510.95 393.42 514.21 419.07 C 514.80 423.25 514.44 427.65 512.42 431.43 C 510.09 436.25 505.35 439.18 500.86 441.72 C 469.40 456.73 435.34 466.00 400.80 470.31 C 385.26 471.82 369.61 473.78 353.98 472.46 C 311.86 470.25 269.89 460.92 231.48 443.32 C 227.52 441.59 223.76 439.35 220.48 436.53 C 215.90 432.51 213.83 426.08 214.70 420.10 C 218.30 393.40 222.20 366.73 225.65 340.01 C 226.95 330.17 217.23 320.65 207.41 323.59 Z" />
<path fill="#ffffff" opacity="1.00" d=" M 364.63 113.32 C 365.49 113.03 366.34 113.12 367.18 113.58 C 454.99 145.47 542.86 177.22 630.67 209.13 C 632.35 209.74 634.10 210.07 635.88 210.37 C 624.88 213.51 614.31 217.99 603.48 221.66 C 523.51 250.48 443.49 279.17 363.54 308.03 C 328.15 295.24 292.74 282.52 257.35 269.76 C 233.54 261.31 209.89 252.41 185.99 244.27 C 244.35 226.29 302.54 207.76 360.85 189.63 C 366.22 187.85 372.42 186.80 376.11 182.06 C 379.45 178.37 379.27 172.97 378.43 168.39 C 376.74 163.46 372.33 159.04 366.95 158.68 C 363.89 158.39 360.78 158.72 357.84 159.58 C 284.75 182.26 211.61 204.80 138.53 227.53 C 126.32 222.73 114.07 218.06 101.84 213.31 C 99.02 212.16 96.16 211.06 93.14 210.59 C 96.89 209.86 100.42 208.34 104.01 207.08 C 190.89 175.85 277.75 144.57 364.63 113.32 Z" />
<path fill="#ffffff" opacity="1.00" d=" M 123.50 426.99 C 123.99 424.81 124.26 422.59 124.50 420.38 C 124.94 425.37 126.29 430.20 127.38 435.07 C 130.19 447.37 133.00 459.67 135.74 471.99 C 128.25 472.01 120.75 472.00 113.26 471.99 C 116.69 456.99 120.11 441.99 123.50 426.99 Z" />
</g>
<g id="#2a2e3dff">
<path fill="#2a2e3d" opacity="1.00" d=" M 342.19 89.33 C 348.16 87.29 353.99 84.72 360.22 83.52 C 366.08 82.51 372.01 83.79 377.57 85.65 C 465.79 117.39 554.00 149.13 642.22 180.86 C 646.76 182.68 651.41 184.57 655.19 187.76 C 668.86 200.24 666.92 225.36 651.45 235.54 C 645.46 239.50 638.46 241.39 631.80 243.90 C 549.81 273.47 467.81 303.04 385.82 332.62 C 376.32 336.39 365.77 339.92 355.58 336.62 C 339.00 330.93 322.56 324.81 306.03 318.96 C 250.50 298.99 194.90 279.22 139.41 259.14 C 139.62 289.75 139.44 320.37 139.50 350.98 C 139.51 352.31 139.66 353.63 139.94 354.94 C 149.70 397.98 159.49 441.02 169.21 484.07 C 170.93 491.43 166.20 499.25 159.50 502.24 C 155.76 503.26 151.83 502.96 148.00 503.01 C 130.30 502.97 112.59 503.04 94.89 502.97 C 88.96 503.25 82.68 499.82 80.56 494.12 C 79.32 490.59 79.12 486.70 79.99 483.07 C 89.71 441.02 99.37 398.95 109.07 356.89 C 109.34 355.62 109.48 354.35 109.50 353.06 C 109.50 318.39 109.48 283.72 109.51 249.05 C 101.67 245.65 93.74 242.48 85.93 239.01 C 77.11 235.17 68.87 228.39 66.30 218.77 C 63.41 210.86 64.88 202.09 68.77 194.80 C 73.05 188.22 79.77 183.50 87.09 180.84 C 172.12 150.33 257.16 119.83 342.19 89.33 M 364.63 113.32 C 277.75 144.57 190.89 175.85 104.01 207.08 C 100.42 208.34 96.89 209.86 93.14 210.59 C 96.16 211.06 99.02 212.16 101.84 213.31 C 114.07 218.06 126.32 222.73 138.53 227.53 C 211.61 204.80 284.75 182.26 357.84 159.58 C 360.78 158.72 363.89 158.39 366.95 158.68 C 372.33 159.04 376.74 163.46 378.43 168.39 C 379.27 172.97 379.45 178.37 376.11 182.06 C 372.42 186.80 366.22 187.85 360.85 189.63 C 302.54 207.76 244.35 226.29 185.99 244.27 C 209.89 252.41 233.54 261.31 257.35 269.76 C 292.74 282.52 328.15 295.24 363.54 308.03 C 443.49 279.17 523.51 250.48 603.48 221.66 C 614.31 217.99 624.88 213.51 635.88 210.37 C 634.10 210.07 632.35 209.74 630.67 209.13 C 542.86 177.22 454.99 145.47 367.18 113.58 C 366.34 113.12 365.49 113.03 364.63 113.32 M 123.50 426.99 C 120.11 441.99 116.69 456.99 113.26 471.99 C 120.75 472.00 128.25 472.01 135.74 471.99 C 133.00 459.67 130.19 447.37 127.38 435.07 C 126.29 430.20 124.94 425.37 124.50 420.38 C 124.26 422.59 123.99 424.81 123.50 426.99 Z" />
<path fill="#2a2e3d" opacity="1.00" d=" M 207.41 323.59 C 217.23 320.65 226.95 330.17 225.65 340.01 C 222.20 366.73 218.30 393.40 214.70 420.10 C 213.83 426.08 215.90 432.51 220.48 436.53 C 223.76 439.35 227.52 441.59 231.48 443.32 C 269.89 460.92 311.86 470.25 353.98 472.46 C 369.61 473.78 385.26 471.82 400.80 470.31 C 435.34 466.00 469.40 456.73 500.86 441.72 C 505.35 439.18 510.09 436.25 512.42 431.43 C 514.44 427.65 514.80 423.25 514.21 419.07 C 510.95 393.42 507.76 367.77 504.51 342.13 C 503.73 337.32 504.18 332.09 507.24 328.11 C 513.00 320.85 525.61 321.82 530.50 329.57 C 532.44 332.28 533.16 335.63 533.63 338.87 C 537.10 364.26 540.61 389.63 544.13 415.01 C 545.88 428.75 542.77 443.73 533.15 454.10 C 527.75 460.89 520.02 465.18 512.53 469.27 C 493.32 477.69 473.73 485.51 453.35 490.62 C 424.97 498.61 395.48 501.84 366.08 502.98 C 329.67 502.21 293.20 497.02 258.52 485.69 C 248.68 482.18 238.71 479.00 229.21 474.63 C 216.66 469.59 203.63 463.77 194.87 453.07 C 185.81 442.40 183.06 427.59 185.00 413.99 C 188.65 388.17 192.05 362.30 195.78 336.49 C 196.59 330.33 201.18 324.75 207.41 323.59 Z" />
</g>
</svg>
