<?xml version="1.0" encoding="UTF-8" ?>
<!DOCTYPE svg PUBLIC "-//W3C//DTD SVG 1.1//EN" "http://www.w3.org/Graphics/SVG/1.1/DTD/svg11.dtd">
<svg width="653pt" height="653pt" viewBox="0 0 653 653" version="1.1" xmlns="http://www.w3.org/2000/svg">
<g id="#ffffffff">
</g>
<g id="#3e085fff">
<path fill="#3e085f" opacity="1.00" d=" M 163.28 1.18 C 168.17 0.65 173.10 0.93 178.01 0.89 C 281.69 0.93 385.36 0.85 489.03 0.94 C 489.05 55.20 489.21 109.47 488.95 163.72 C 434.72 163.56 380.48 163.71 326.25 163.65 C 274.48 163.56 222.71 163.62 170.95 163.63 C 168.48 163.52 165.96 163.93 163.54 163.38 C 163.13 109.33 163.62 55.24 163.28 1.18 Z" />
<path fill="#3e085f" opacity="1.00" d=" M 0.80 163.88 C 54.94 163.56 109.12 163.72 163.27 163.79 C 163.30 215.86 163.27 267.93 163.27 319.99 C 163.40 322.26 162.85 324.71 163.91 326.82 C 218.00 326.63 272.09 326.68 326.17 326.80 C 326.41 380.95 326.24 435.10 326.27 489.25 C 274.15 489.33 222.03 489.25 169.92 489.27 C 167.68 489.39 165.25 488.85 163.17 489.91 C 163.44 542.58 163.18 595.27 163.31 647.95 C 163.29 649.36 163.23 650.78 163.13 652.20 C 113.75 652.55 64.36 652.25 14.97 652.37 C 10.22 652.22 5.45 652.59 0.73 652.01 C 0.67 525.34 0.73 398.67 0.70 272.00 C 0.77 235.96 0.58 199.92 0.80 163.88 Z" />
<path fill="#3e085f" opacity="1.00" d=" M 326.40 493.02 C 326.50 491.67 325.81 488.95 328.09 489.43 C 372.69 489.43 417.30 489.42 461.90 489.43 C 470.90 489.63 479.96 489.03 488.93 489.72 C 488.93 543.84 489.00 597.97 488.93 652.09 C 436.28 652.34 383.64 652.15 330.99 652.20 C 329.43 652.24 327.87 652.03 326.34 651.77 C 326.51 598.86 326.39 545.94 326.40 493.02 Z" />
</g>
<g id="#ff8f5bff">
<path fill="#ff8f5b" opacity="1.00" d=" M 326.25 163.65 C 380.48 163.71 434.72 163.56 488.95 163.72 C 489.30 217.91 488.97 272.12 489.09 326.31 C 473.74 327.06 458.33 326.47 442.95 326.63 C 404.41 326.65 365.85 326.62 327.31 326.65 C 327.08 326.40 326.63 325.89 326.40 325.63 C 326.24 271.64 326.51 217.64 326.25 163.65 Z" />
</g>
<g id="#ff3a52ff">
<path fill="#ff3a52" opacity="1.00" d=" M 488.99 326.82 C 543.36 326.64 597.74 326.62 652.10 326.80 C 652.09 380.90 652.10 435.01 652.07 489.12 C 597.72 489.53 543.36 489.20 489.01 489.27 C 488.99 435.12 489.02 380.97 488.99 326.82 Z" />
</g>
</svg>
