<?xml version="1.0" encoding="utf-8"?>
<!-- Generator: Adobe Illustrator 24.0.1, SVG Export Plug-In . SVG Version: 6.00 Build 0)  -->
<svg version="1.1" id="Layer_1" xmlns="http://www.w3.org/2000/svg" xmlns:xlink="http://www.w3.org/1999/xlink" x="0px" y="0px"
	 viewBox="0 0 62.9 37.2" style="enable-background:new 0 0 62.9 37.2;" xml:space="preserve">
<style type="text/css">
	.st0{fill:#36A9E1;}
	.st1{fill:#323E50;}
</style>
<path class="st0" d="M13.4,0v2.2H2.4v7.5h9.8v2.2H2.4V21H0V0H13.4z"/>
<path class="st0" d="M29.4,15.6H18L15.6,21h-2.5l9.4-21H25l9.4,21h-2.6L29.4,15.6z M28.4,13.4L23.7,2.6L19,13.4H28.4z"/>
<path class="st0" d="M40.1,0v21h-2.4V0H40.1z"/>
<path class="st0" d="M60.2,21l-4.4-6.7c-0.4,0-0.9,0.1-1.3,0.1h-5.6V21h-2.4V0h8c5.3,0,8.3,2.6,8.3,7.1c0,3.5-1.7,5.8-4.7,6.8
	l4.9,7.2H60.2z M54.4,12.1c3.8,0,6-1.7,6-5c0-3.2-2.2-4.9-6-4.9h-5.6v9.9L54.4,12.1L54.4,12.1z"/>
<g>
	<g>
		<path class="st0" d="M43.1,37.2c-4.7,0-10.2-1.4-15.7-5.7C22,27.3,16.8,25.6,12,26.3c-5.7,0.8-8.8,5.1-8.8,5.1
			c-0.2,0.3-0.7,0.4-1,0.2c-0.3-0.2-0.4-0.7-0.2-1c0.1-0.2,3.4-4.7,9.7-5.7c5.2-0.8,10.7,1.1,16.5,5.5c15.7,12,30.1,0.1,30.3,0
			c0.3-0.3,0.8-0.2,1,0.1c0.3,0.3,0.2,0.8-0.1,1C59.4,31.6,52.6,37.2,43.1,37.2L43.1,37.2z"/>
	</g>
	<g>
		<g>
			<path class="st1" d="M14.1,37.2c-0.8,0-1.5-0.1-2.3-0.2c-6.3-0.9-9.6-5.5-9.7-5.7c-0.2-0.3-0.2-0.8,0.2-1c0.3-0.2,0.8-0.2,1,0.2
				c0,0,3.1,4.3,8.8,5.1c4.7,0.7,9.9-1.1,15.4-5.2c16.6-12.7,31.9-0.1,32.1,0c0.3,0.3,0.3,0.7,0.1,1c-0.3,0.3-0.7,0.3-1,0.1
				C58,31,44,19.5,28.3,31.5C23.4,35.3,18.6,37.2,14.1,37.2L14.1,37.2z"/>
		</g>
	</g>
</g>
</svg>
