<svg id="svg" version="1.1" xmlns="http://www.w3.org/2000/svg" xmlns:xlink="http://www.w3.org/1999/xlink" width="400" height="400" viewBox="0, 0, 400,400"><g id="svgg"><path id="path0" d="M100.464 1.019 C 100.120 1.774,100.000 14.692,100.000 50.987 L 100.000 99.936 101.274 100.216 C 103.376 100.678,298.524 99.983,299.100 99.511 C 299.814 98.927,299.833 3.301,299.120 1.328 L 298.639 0.000 199.784 -0.000 L 100.928 -0.000 100.464 1.019 M-0.000 250.198 L 0.000 400.000 49.750 400.000 L 99.500 400.000 99.750 398.750 C 99.888 398.063,100.003 375.877,100.006 349.450 C 100.010 319.872,100.158 301.169,100.391 300.800 C 100.724 300.274,106.817 300.175,149.952 300.000 C 177.002 299.890,199.283 299.650,199.467 299.467 C 199.979 298.955,200.101 202.136,199.591 201.183 C 199.179 200.412,198.402 200.400,150.760 200.400 C 103.994 200.400,101.556 200.347,100.400 199.313 C 100.290 199.214,100.110 176.963,100.000 149.867 L 99.800 100.600 49.900 100.498 L -0.000 100.397 -0.000 250.198 " stroke="none" fill="#320b63" fill-rule="evenodd"></path><path id="path1" d="M201.600 100.295 C 201.600 100.622,297.992 100.541,298.319 100.214 C 298.427 100.107,276.709 100.013,250.057 100.005 C 223.406 99.997,201.600 100.128,201.600 100.295 M301.090 249.810 L 301.181 298.019 349.390 298.110 L 397.600 298.200 397.605 250.800 C 397.608 224.730,397.719 202.995,397.852 202.500 L 398.093 201.600 349.547 201.600 L 301.000 201.600 301.090 249.810 M200.882 300.878 C 199.993 301.767,200.206 396.777,201.100 398.574 L 201.800 399.980 249.851 399.990 L 297.903 400.000 298.356 398.900 C 298.686 398.097,298.780 384.669,298.704 349.200 L 298.600 300.600 249.982 300.498 C 212.498 300.420,201.253 300.507,200.882 300.878 " stroke="none" fill="#c6214d" fill-rule="evenodd"></path><path id="path2" d="M99.698 51.100 L 99.600 100.000 50.900 100.098 L 2.200 100.195 51.000 100.398 C 95.523 100.582,102.863 100.536,100.702 100.087 C 100.042 99.950,99.997 97.203,99.900 51.071 L 99.797 2.200 99.698 51.100 M298.781 99.791 C 298.228 100.343,292.818 100.410,248.669 100.410 C 199.959 100.409,199.183 100.421,199.588 101.178 C 199.864 101.693,200.000 117.882,200.000 150.200 C 200.000 182.697,200.135 198.705,200.414 199.226 C 200.853 200.046,297.823 200.481,299.102 199.669 C 299.500 199.416,299.582 189.069,299.502 149.261 C 299.410 104.040,299.340 99.232,298.781 99.791 M299.600 249.367 C 299.600 276.299,299.491 298.619,299.357 298.967 C 298.962 299.996,200.145 299.929,199.876 298.900 C 199.702 298.233,199.691 298.233,199.646 298.900 C 199.621 299.285,199.285 299.605,198.900 299.612 C 198.233 299.624,198.233 299.644,198.900 300.032 C 199.561 300.417,199.600 303.169,199.600 348.891 C 199.600 398.438,199.645 400.000,201.080 400.000 C 201.763 400.000,201.721 399.193,200.987 398.224 C 200.139 397.101,200.095 301.551,200.943 300.847 C 201.340 300.517,214.492 300.424,250.043 300.498 L 298.600 300.600 298.600 349.600 C 298.600 376.550,298.446 398.915,298.257 399.300 C 298.009 399.807,298.079 400.000,298.511 400.000 C 299.565 400.000,299.589 398.911,299.595 349.874 C 299.598 317.336,299.735 301.295,300.014 300.774 C 300.420 300.015,301.387 300.000,348.886 300.000 C 385.591 300.000,397.665 299.883,398.672 299.520 L 400.000 299.039 400.000 249.970 L 400.000 200.900 398.750 200.650 C 398.063 200.513,375.473 200.400,348.550 200.400 L 299.600 200.400 299.600 249.367 M397.852 202.500 C 397.719 202.995,397.608 224.730,397.605 250.800 L 397.600 298.200 349.390 298.110 L 301.181 298.019 301.090 249.810 L 301.000 201.600 349.547 201.600 L 398.093 201.600 397.852 202.500 " stroke="none" fill="#fc8c5b" fill-rule="evenodd"></path><path id="path3" d="M0.000 50.254 L 0.000 100.509 1.856 100.254 C 2.877 100.114,25.285 100.000,51.653 100.000 L 99.594 100.000 99.716 51.100 C 99.783 24.205,99.986 1.705,100.166 1.100 L 100.493 0.000 50.247 0.000 L 0.000 0.000 0.000 50.254 M298.800 0.576 C 298.800 0.893,298.980 1.264,299.200 1.400 C 299.962 1.871,299.730 199.464,298.967 199.757 C 296.991 200.515,200.827 199.997,200.414 199.226 C 200.135 198.705,200.000 182.697,200.000 150.200 C 200.000 117.703,199.865 101.695,199.586 101.174 C 199.180 100.415,198.201 100.400,149.586 100.400 L 100.000 100.400 100.000 149.571 C 100.000 193.739,100.064 198.807,100.629 199.371 C 100.974 199.717,101.289 200.043,101.329 200.096 C 101.368 200.149,123.540 200.284,150.600 200.396 L 199.800 200.600 199.902 250.100 L 200.003 299.600 249.559 299.600 C 294.378 299.600,299.138 299.540,299.357 298.967 C 299.491 298.619,299.600 276.296,299.600 249.360 L 299.600 200.385 349.800 200.492 L 400.000 200.600 400.000 100.300 L 400.000 0.000 349.400 0.000 C 305.610 0.000,298.800 0.078,298.800 0.576 M398.400 299.600 C 398.021 299.845,379.856 299.990,349.114 299.994 C 301.648 300.000,300.418 300.019,300.020 300.762 C 299.751 301.265,299.576 318.271,299.506 350.762 L 299.400 400.000 349.700 400.000 L 400.000 400.000 400.000 349.600 C 400.000 296.970,400.050 298.534,398.400 299.600 M101.100 300.275 C 99.980 300.569,99.995 299.968,99.895 351.100 L 99.800 400.000 150.147 400.000 L 200.493 400.000 200.153 399.100 C 199.966 398.605,199.720 376.150,199.606 349.200 L 199.400 300.200 150.600 300.146 C 123.760 300.116,101.485 300.174,101.100 300.275 " stroke="none" fill="#fbfbfb" fill-rule="evenodd"></path></g></svg>