<?xml version="1.0" encoding="UTF-8" ?>
<!DOCTYPE svg PUBLIC "-//W3C//DTD SVG 1.1//EN" "http://www.w3.org/Graphics/SVG/1.1/DTD/svg11.dtd">
<svg width="621pt" height="607pt" viewBox="0 0 621 607" version="1.1" xmlns="http://www.w3.org/2000/svg">
<g id="#ffffffff">
<path fill="#ffffff" opacity="1.00" d=" M 0.00 0.00 L 621.00 0.00 L 621.00 607.00 L 0.00 607.00 L 0.00 0.00 M 196.45 73.64 C 168.92 81.52 141.81 90.98 115.32 101.83 C 115.70 95.55 115.41 89.25 115.52 82.97 C 115.50 78.13 114.62 72.53 110.49 69.42 C 104.82 65.03 96.23 65.04 90.54 69.39 C 86.68 72.27 85.63 77.39 85.49 81.93 C 85.50 230.64 85.50 379.35 85.49 528.05 C 85.67 533.93 87.43 541.36 93.80 543.34 C 99.04 545.80 105.22 544.92 110.04 541.92 C 114.29 538.74 115.23 532.99 115.51 528.04 C 115.45 495.83 115.60 463.61 115.43 431.40 C 117.66 430.75 119.86 429.99 121.91 428.91 C 134.74 421.99 148.56 417.26 162.21 412.29 C 192.21 401.37 224.09 396.19 255.93 395.09 C 276.10 396.28 296.32 398.06 316.11 402.30 C 329.87 404.77 343.26 408.87 356.78 412.37 C 384.16 420.11 412.57 423.58 440.94 424.93 C 469.98 424.92 498.77 419.10 526.32 410.17 C 535.63 406.43 546.03 404.56 553.78 397.76 C 561.36 392.03 564.60 382.25 564.51 373.02 C 564.82 280.68 565.20 188.34 565.47 96.01 C 565.79 86.03 561.11 75.76 552.49 70.45 C 543.53 65.84 532.92 63.05 522.99 66.00 C 517.25 67.32 512.39 70.80 506.90 72.78 C 483.53 82.85 459.16 91.24 433.81 94.39 C 423.60 95.83 413.19 96.45 402.95 95.09 C 377.97 93.22 353.46 86.93 330.21 77.71 C 310.98 70.97 290.81 67.06 270.48 65.77 C 245.54 63.08 220.63 67.91 196.45 73.64 Z" />
<path fill="#ffffff" opacity="1.00" d=" M 159.89 116.11 C 187.62 105.86 216.44 97.95 245.99 95.57 C 259.10 94.47 272.25 95.83 285.21 97.74 C 296.10 99.16 306.79 101.76 317.31 104.87 C 337.34 111.99 357.64 118.95 378.84 121.58 C 390.12 123.46 401.54 124.21 412.94 124.92 C 429.30 124.12 445.69 122.87 461.81 119.83 C 484.41 115.98 505.92 107.74 527.03 99.05 C 529.94 97.73 533.04 96.71 535.61 94.75 C 535.35 188.26 535.57 281.78 535.50 375.29 C 509.68 385.40 482.52 392.28 454.83 394.43 C 433.80 395.88 412.77 393.03 392.08 389.49 C 374.04 386.55 356.52 381.29 339.01 376.20 C 311.50 369.62 283.32 365.94 255.05 365.07 C 228.33 365.51 201.68 369.47 175.99 376.80 C 155.14 382.22 135.28 390.70 115.41 398.89 C 115.59 310.38 115.51 221.87 115.45 133.36 C 130.40 127.99 145.07 121.83 159.89 116.11 Z" />
</g>
<g id="#2a2e3dff">
<path fill="#2a2e3d" opacity="1.00" d=" M 196.45 73.64 C 220.63 67.91 245.54 63.08 270.48 65.77 C 290.81 67.06 310.98 70.97 330.21 77.71 C 353.46 86.93 377.97 93.22 402.95 95.09 C 413.19 96.45 423.60 95.83 433.81 94.39 C 459.16 91.24 483.53 82.85 506.90 72.78 C 512.39 70.80 517.25 67.32 522.99 66.00 C 532.92 63.05 543.53 65.84 552.49 70.45 C 561.11 75.76 565.79 86.03 565.47 96.01 C 565.20 188.34 564.82 280.68 564.51 373.02 C 564.60 382.25 561.36 392.03 553.78 397.76 C 546.03 404.56 535.63 406.43 526.32 410.17 C 498.77 419.10 469.98 424.92 440.94 424.93 C 412.57 423.58 384.16 420.11 356.78 412.37 C 343.26 408.87 329.87 404.77 316.11 402.30 C 296.32 398.06 276.10 396.28 255.93 395.09 C 224.09 396.19 192.21 401.37 162.21 412.29 C 148.56 417.26 134.74 421.99 121.91 428.91 C 119.86 429.99 117.66 430.75 115.43 431.40 C 115.60 463.61 115.45 495.83 115.51 528.04 C 115.23 532.99 114.29 538.74 110.04 541.92 C 105.22 544.92 99.04 545.80 93.80 543.34 C 87.43 541.36 85.67 533.93 85.49 528.05 C 85.50 379.35 85.50 230.64 85.49 81.93 C 85.63 77.39 86.68 72.27 90.54 69.39 C 96.23 65.04 104.82 65.03 110.49 69.42 C 114.62 72.53 115.50 78.13 115.52 82.97 C 115.41 89.25 115.70 95.55 115.32 101.83 C 141.81 90.98 168.92 81.52 196.45 73.64 M 159.89 116.11 C 145.07 121.83 130.40 127.99 115.45 133.36 C 115.51 221.87 115.59 310.38 115.41 398.89 C 135.28 390.70 155.14 382.22 175.99 376.80 C 201.68 369.47 228.33 365.51 255.05 365.07 C 283.32 365.94 311.50 369.62 339.01 376.20 C 356.52 381.29 374.04 386.55 392.08 389.49 C 412.77 393.03 433.80 395.88 454.83 394.43 C 482.52 392.28 509.68 385.40 535.50 375.29 C 535.57 281.78 535.35 188.26 535.61 94.75 C 533.04 96.71 529.94 97.73 527.03 99.05 C 505.92 107.74 484.41 115.98 461.81 119.83 C 445.69 122.87 429.30 124.12 412.94 124.92 C 401.54 124.21 390.12 123.46 378.84 121.58 C 357.64 118.95 337.34 111.99 317.31 104.87 C 306.79 101.76 296.10 99.16 285.21 97.74 C 272.25 95.83 259.10 94.47 245.99 95.57 C 216.44 97.95 187.62 105.86 159.89 116.11 Z" />
</g>
</svg>
