<?xml version="1.0" encoding="utf-8"?>
<!-- Generator: Adobe Illustrator 26.0.1, SVG Export Plug-In . SVG Version: 6.00 Build 0)  -->
<svg version="1.1" id="Layer_1" xmlns="http://www.w3.org/2000/svg" xmlns:xlink="http://www.w3.org/1999/xlink" x="0px" y="0px"
	 viewBox="0 0 479.7 479.7" style="enable-background:new 0 0 479.7 479.7;" xml:space="preserve">
<style type="text/css">
	.st0{fill:#2A2E3D;}
</style>
<g id="_x23_2a2e3dff">
	<path class="st0" d="M110.8,8.7c24.2-5.7,49.1-10.6,74-7.9c20.3,1.3,40.5,5.2,59.7,11.9c23.2,9.2,47.8,15.5,72.7,17.4
		c10.2,1.4,20.6,0.7,30.9-0.7c25.4-3.2,49.7-11.5,73.1-21.6c5.5-2,10.4-5.5,16.1-6.8c9.9-3,20.5-0.2,29.5,4.4
		c8.6,5.3,13.3,15.6,13,25.6c-0.3,92.3-0.6,184.7-1,277c0.1,9.2-3.2,19-10.7,24.7c-7.8,6.8-18.2,8.7-27.5,12.4
		c-27.6,8.9-56.3,14.8-85.4,14.8c-28.4-1.4-56.8-4.8-84.2-12.6c-13.5-3.5-26.9-7.6-40.7-10.1c-19.8-4.2-40-6-60.2-7.2
		c-31.8,1.1-63.7,6.3-93.7,17.2c-13.7,5-27.5,9.7-40.3,16.6c-2.1,1.1-4.2,1.8-6.5,2.5c0.2,32.2,0,64.4,0.1,96.6
		c-0.3,5-1.2,10.7-5.5,13.9c-4.8,3-11,3.9-16.2,1.4c-6.4-2-8.1-9.4-8.3-15.3c0-148.7,0-297.4,0-446.1C0,12.4,1,7.3,4.9,4.4
		c5.7-4.3,14.3-4.4,19.9,0c4.1,3.1,5,8.7,5,13.6c-0.1,6.3,0.2,12.6-0.2,18.9C56.2,26,83.3,16.6,110.8,8.7 M74.2,51.2
		C59.4,56.9,44.7,63,29.8,68.4c0.1,88.5,0.1,177,0,265.5c19.9-8.2,39.7-16.7,60.6-22.1c25.7-7.3,52.3-11.3,79.1-11.7
		c28.3,0.9,56.4,4.5,84,11.1c17.5,5.1,35,10.3,53.1,13.3c20.7,3.5,41.7,6.4,62.8,4.9c27.7-2.1,54.9-9,80.7-19.1
		c0.1-93.5-0.2-187,0.1-280.5c-2.6,2-5.7,3-8.6,4.3c-21.1,8.7-42.6,16.9-65.2,20.8c-16.1,3-32.5,4.3-48.9,5.1
		c-11.4-0.7-22.8-1.5-34.1-3.3C272,54,251.7,47,231.7,39.9c-10.5-3.1-21.2-5.7-32.1-7.1c-13-1.9-26.1-3.3-39.2-2.2
		C130.8,33,102,40.9,74.2,51.2z"/>
</g>
</svg>
