<?xml version="1.0" encoding="utf-8"?>
<!-- Generator: Adobe Illustrator 26.0.1, SVG Export Plug-In . SVG Version: 6.00 Build 0)  -->
<svg version="1.1" id="Layer_1" xmlns="http://www.w3.org/2000/svg" xmlns:xlink="http://www.w3.org/1999/xlink" x="0px" y="0px"
	 viewBox="0 0 360.1 480.1" style="enable-background:new 0 0 360.1 480.1;" xml:space="preserve">
<style type="text/css">
	.st0{fill:#2A2E3D;}
</style>
<g id="_x23_2a2e3dff">
	<path class="st0" d="M57.7,0.3C59.3,0.1,61,0,62.6,0c44,0,87.9,0,131.9,0c8.2-0.1,16.5,0.4,24.4,2.8c9.1,3.2,17.5,8.6,24.4,15.4
		c27.7,27.6,55.3,55.3,83,83c7.6,7.8,15.8,15,22.4,23.6c4.4,6.4,8.3,13.5,9.8,21.2c1.6,7.5,1.6,15.3,1.6,22.9c0,78,0,156,0,234
		c-0.1,9.4,0.5,19-1.4,28.3c-4.3,23.7-24.5,43.5-48.2,47.6c-5.6,0.9-11.2,1.3-16.9,1.2c-72,0-144,0-216,0
		c-9.5-0.1-19.1,0.5-28.5-1.3c-20.6-3.7-38.3-19.3-45.4-38.9C0.8,431.2-0.2,422.1,0,413C0,297.7,0,182.3,0,67
		c-0.3-12.3,1.5-25,7.7-35.8c4.5-7.5,10.2-14.5,17.4-19.5C34.5,4.6,46.1,1,57.7,0.3 M45.1,33.6c-4.5,2.7-8.4,6.3-11.1,10.8
		C30.5,49.9,30,56.7,30,63.1c0,119-0.1,238,0,356.9c-0.5,11.3,6.3,22.2,16.4,27.2c6.8,3.4,14.7,2.8,22.1,2.9c74,0,148,0,222,0
		c5.7,0,11.5,0.3,17.2-0.9c13.1-2.7,23-15.8,22.3-29.2c0.1-80,0-160,0-240c-33.5,0-67,0-100.5,0c-13.7,0.2-28-4.4-37.5-14.5
		c-8.1-9.1-11.9-21.4-12-33.4c0-34,0-68,0-102c-39.1,0-78.3,0-117.4,0C56.6,30,50.3,30.5,45.1,33.6 M210,32c0.1,33.7,0,67.4,0,101
		c0.1,3.7,0.9,7.5,2.7,10.8c2.8,4.6,8.7,5.8,13.7,6.1c33.9,0,67.9,0,101.9,0c-1.7-4.4-4.2-8.6-7.6-12c-32.5-32.5-65.1-65-97.5-97.6
		C219.5,36.6,215,33.6,210,32z"/>
	<path class="st0" d="M104.7,240.1c49.3-0.3,98.5,0,147.8-0.1c5.1,0.2,11.2,1.1,14.5,5.5c3,4.8,3.8,11,1.4,16.2
		c-1.9,6.2-9.1,8-14.8,8.3c-49,0-98,0-147,0c-4.8-0.3-10.4-1.3-13.5-5.5c-3.2-5-3.8-11.5-1.1-16.9
		C93.9,242.4,99.7,240.8,104.7,240.1z"/>
	<path class="st0" d="M104.7,300.1c49.3-0.3,98.6,0,147.9-0.1c5.2,0.2,11.2,1.1,14.4,5.5c3,4.8,3.8,11,1.4,16.2
		c-2,6.2-9.1,8-14.9,8.3c-49,0-98,0-147,0c-4.8-0.3-10.3-1.4-13.4-5.5c-3-4.8-3.8-11-1.4-16.2C93.4,302.7,99.5,300.7,104.7,300.1z"
		/>
	<path class="st0" d="M104.7,360.1c49.3-0.3,98.6,0,147.8-0.1c5.1,0.2,11.1,1.1,14.4,5.5c3,4.8,3.8,11,1.4,16.2
		c-1.9,6.2-9.1,8.1-14.8,8.3c-49,0-98.1,0-147.1,0c-4.8-0.3-10.4-1.4-13.4-5.5c-3-4.8-3.8-11-1.4-16.2
		C93.4,362.7,99.5,360.7,104.7,360.1z"/>
</g>
</svg>
