<?xml version="1.0" encoding="utf-8"?>
<!-- Generator: Adobe Illustrator 26.0.1, SVG Export Plug-In . SVG Version: 6.00 Build 0)  -->
<svg version="1.1" id="Layer_1" xmlns="http://www.w3.org/2000/svg" xmlns:xlink="http://www.w3.org/1999/xlink" x="0px" y="0px"
	 viewBox="0 0 479.7 479.7" style="enable-background:new 0 0 479.7 479.7;" xml:space="preserve">
<style type="text/css">
	.st0{fill:#2A2E3D;}
</style>
<g id="_x23_2a2e3dff">
	<path class="st0" d="M117.5,0.1c1.6-0.1,3.3-0.2,4.9-0.2c44,0,87.9,0,131.9,0c8.2-0.1,16.5,0.4,24.4,2.8
		c9.1,3.2,17.5,8.6,24.4,15.4c27.7,27.6,55.3,55.3,83,83c7.6,7.8,15.8,15,22.4,23.6c4.4,6.4,8.3,13.5,9.8,21.2
		c1.6,7.5,1.6,15.3,1.6,22.9c0,78,0,156,0,234c-0.1,9.4,0.5,19-1.4,28.3c-4.3,23.7-24.5,43.5-48.2,47.6c-5.6,0.9-11.2,1.3-16.9,1.2
		c-72,0-144,0-216,0c-9.5-0.1-19.1,0.5-28.5-1.3c-20.6-3.7-38.3-19.3-45.4-38.9c-2.9-8.6-3.8-17.7-3.6-26.8c0-115.3,0-230.7,0-346
		c-0.3-12.3,1.5-25,7.7-35.8c4.5-7.5,10.2-14.5,17.4-19.5C94.3,4.4,105.9,0.8,117.5,0.1 M104.9,33.4c-4.5,2.7-8.4,6.3-11.1,10.8
		c-3.5,5.5-3.9,12.3-3.9,18.7c0,119-0.1,238,0,356.9c-0.5,11.3,6.3,22.2,16.4,27.2c6.8,3.4,14.7,2.8,22.1,2.9c74,0,148,0,222,0
		c5.7,0,11.5,0.3,17.2-0.9c13.1-2.7,23-15.8,22.3-29.2c0.1-80,0-160,0-240c-33.5,0-67,0-100.5,0c-13.7,0.2-28-4.4-37.5-14.5
		c-8.1-9.1-11.9-21.4-12-33.4c0-34,0-68,0-102c-39.1,0-78.3,0-117.4,0C116.4,29.8,110.1,30.3,104.9,33.4 M269.8,31.8
		c0.1,33.7,0,67.4,0,101c0.1,3.7,0.9,7.5,2.7,10.8c2.8,4.6,8.7,5.8,13.7,6.1c33.9,0,67.9,0,101.9,0c-1.7-4.4-4.2-8.6-7.6-12
		c-32.5-32.5-65.1-65-97.5-97.6C279.3,36.4,274.8,33.4,269.8,31.8z"/>
	<path class="st0" d="M164.5,239.9c49.3-0.3,98.6,0,147.8-0.1c5.1,0.2,11.2,1.1,14.5,5.5c3,4.8,3.8,11,1.4,16.2
		c-1.9,6.2-9.1,8-14.8,8.3c-49,0-98,0-147,0c-4.8-0.3-10.4-1.3-13.5-5.5c-3.2-5-3.8-11.5-1.1-16.9
		C153.7,242.2,159.5,240.6,164.5,239.9z"/>
	<path class="st0" d="M164.5,299.9c49.3-0.3,98.6,0,147.9-0.1c5.1,0.2,11.2,1.1,14.4,5.5c3,4.8,3.8,11,1.4,16.2
		c-2,6.2-9.1,8-14.9,8.3c-49,0-98,0-147,0c-4.8-0.3-10.3-1.4-13.4-5.5c-3-4.8-3.8-11-1.4-16.2C153.2,302.5,159.3,300.5,164.5,299.9z
		"/>
	<path class="st0" d="M164.5,359.9c49.3-0.3,98.6,0,147.8-0.1c5.1,0.2,11.1,1.1,14.4,5.5c3,4.8,3.8,11,1.4,16.2
		c-1.9,6.2-9.1,8.1-14.8,8.3c-49,0-98.1,0-147.1,0c-4.8-0.3-10.4-1.4-13.4-5.5c-3-4.8-3.8-11-1.4-16.2
		C153.2,362.5,159.3,360.5,164.5,359.9z"/>
</g>
</svg>
