<?xml version="1.0" encoding="UTF-8" ?>
<!DOCTYPE svg PUBLIC "-//W3C//DTD SVG 1.1//EN" "http://www.w3.org/Graphics/SVG/1.1/DTD/svg11.dtd">
<svg width="568pt" height="548pt" viewBox="0 0 568 548" version="1.1" xmlns="http://www.w3.org/2000/svg">
<g id="#ffffffff">
<path fill="#ffffff" opacity="1.00" d=" M 0.00 0.00 L 568.00 0.00 L 568.00 548.00 L 0.00 548.00 L 0.00 0.00 M 177.15 37.23 C 165.52 37.95 153.96 41.60 144.63 48.72 C 137.38 53.74 131.78 60.73 127.23 68.22 C 121.00 78.99 119.22 91.70 119.49 103.98 C 119.50 219.32 119.50 334.65 119.49 449.99 C 119.27 459.03 120.24 468.17 123.11 476.77 C 130.19 496.37 147.90 512.00 168.52 515.70 C 177.92 517.51 187.51 516.91 197.03 517.00 C 269.01 517.01 341.00 516.99 412.98 517.01 C 418.64 517.14 424.31 516.72 429.89 515.81 C 453.62 511.79 473.82 491.95 478.12 468.25 C 480.03 458.94 479.41 449.42 479.50 439.99 C 479.50 362.00 479.50 284.02 479.50 206.03 C 479.56 198.38 479.58 190.64 477.94 183.12 C 476.46 175.37 472.59 168.32 468.16 161.88 C 461.50 153.27 453.31 146.03 445.74 138.24 C 418.07 110.58 390.42 82.89 362.73 55.25 C 355.87 48.39 347.50 43.06 338.36 39.82 C 330.47 37.43 322.17 36.88 313.97 36.99 C 270.00 37.01 226.03 37.00 182.06 36.99 C 180.42 37.01 178.78 37.09 177.15 37.23 Z" />
<path fill="#ffffff" opacity="1.00" d=" M 164.53 70.58 C 169.78 67.45 176.07 67.02 182.05 66.99 C 221.20 67.01 260.35 66.99 299.50 67.00 C 299.49 101.01 299.52 135.03 299.48 169.04 C 299.63 181.09 303.43 193.36 311.50 202.48 C 321.06 212.63 335.30 217.25 349.03 217.02 C 382.52 216.97 416.01 217.01 449.50 217.00 C 449.47 297.00 449.55 376.99 449.46 456.99 C 450.15 470.37 440.29 483.43 427.15 486.15 C 421.49 487.30 415.69 486.95 409.96 487.00 C 335.96 487.00 261.96 487.00 187.96 487.00 C 180.57 486.96 172.74 487.50 165.90 484.15 C 155.81 479.21 148.99 468.31 149.54 456.98 C 149.44 338.00 149.54 219.02 149.49 100.04 C 149.50 93.68 149.94 86.92 153.44 81.39 C 156.10 76.91 160.07 73.26 164.53 70.58 M 224.17 277.12 C 219.20 277.73 213.34 279.42 211.42 284.61 C 208.77 290.00 209.40 296.47 212.56 301.50 C 215.61 305.66 221.21 306.69 226.05 307.00 C 275.04 307.00 324.03 307.01 373.03 306.99 C 378.77 306.76 385.91 304.90 387.85 298.72 C 390.23 293.48 389.45 287.33 386.45 282.52 C 383.18 278.08 377.13 277.17 371.99 276.99 C 322.72 277.10 273.43 276.83 224.17 277.12 M 224.16 337.12 C 218.96 337.70 212.84 339.70 211.16 345.27 C 208.74 350.51 209.58 356.69 212.56 361.50 C 215.59 365.63 221.12 366.67 225.91 366.99 C 274.93 367.01 323.95 367.00 372.96 367.00 C 378.72 366.77 385.89 364.92 387.85 358.72 C 390.24 353.48 389.45 347.34 386.46 342.53 C 383.19 338.09 377.16 337.17 372.01 336.99 C 322.73 337.09 273.44 336.83 224.16 337.12 M 224.17 397.12 C 218.97 397.69 212.85 399.69 211.16 405.26 C 208.74 410.49 209.57 416.64 212.53 421.45 C 215.54 425.63 221.11 426.67 225.92 426.99 C 274.95 427.00 323.99 427.00 373.02 426.99 C 378.77 426.76 385.93 424.89 387.86 418.69 C 390.24 413.44 389.44 407.28 386.42 402.48 C 383.14 398.09 377.14 397.17 372.02 396.99 C 322.74 397.09 273.45 396.84 224.17 397.12 Z" />
<path fill="#ffffff" opacity="1.00" d=" M 329.47 68.98 C 334.51 70.60 338.99 73.57 342.62 77.42 C 375.11 109.97 407.66 142.45 440.16 174.99 C 443.56 178.36 445.99 182.55 447.73 187.00 C 413.78 186.99 379.83 187.02 345.88 186.99 C 340.87 186.64 334.97 185.50 332.15 180.86 C 330.39 177.55 329.54 173.76 329.49 170.02 C 329.49 136.34 329.54 102.66 329.47 68.98 Z" />
</g>
<g id="#2a2e3dff">
<path fill="#2a2e3d" opacity="1.00" d=" M 177.15 37.23 C 178.78 37.09 180.42 37.01 182.06 36.99 C 226.03 37.00 270.00 37.01 313.97 36.99 C 322.17 36.88 330.47 37.43 338.36 39.82 C 347.50 43.06 355.87 48.39 362.73 55.25 C 390.42 82.89 418.07 110.58 445.74 138.24 C 453.31 146.03 461.50 153.27 468.16 161.88 C 472.59 168.32 476.46 175.37 477.94 183.12 C 479.58 190.64 479.56 198.38 479.50 206.03 C 479.50 284.02 479.50 362.00 479.50 439.99 C 479.41 449.42 480.03 458.94 478.12 468.25 C 473.82 491.95 453.62 511.79 429.89 515.81 C 424.31 516.72 418.64 517.14 412.98 517.01 C 341.00 516.99 269.01 517.01 197.03 517.00 C 187.51 516.91 177.92 517.51 168.52 515.70 C 147.90 512.00 130.19 496.37 123.11 476.77 C 120.24 468.17 119.27 459.03 119.49 449.99 C 119.50 334.65 119.50 219.32 119.49 103.98 C 119.22 91.70 121.00 78.99 127.23 68.22 C 131.78 60.73 137.38 53.74 144.63 48.72 C 153.96 41.60 165.52 37.95 177.15 37.23 M 164.53 70.58 C 160.07 73.26 156.10 76.91 153.44 81.39 C 149.94 86.92 149.50 93.68 149.49 100.04 C 149.54 219.02 149.44 338.00 149.54 456.98 C 148.99 468.31 155.81 479.21 165.90 484.15 C 172.74 487.50 180.57 486.96 187.96 487.00 C 261.96 487.00 335.96 487.00 409.96 487.00 C 415.69 486.95 421.49 487.30 427.15 486.15 C 440.29 483.43 450.15 470.37 449.46 456.99 C 449.55 376.99 449.47 297.00 449.50 217.00 C 416.01 217.01 382.52 216.97 349.03 217.02 C 335.30 217.25 321.06 212.63 311.50 202.48 C 303.43 193.36 299.63 181.09 299.48 169.04 C 299.52 135.03 299.49 101.01 299.50 67.00 C 260.35 66.99 221.20 67.01 182.05 66.99 C 176.07 67.02 169.78 67.45 164.53 70.58 M 329.47 68.98 C 329.54 102.66 329.49 136.34 329.49 170.02 C 329.54 173.76 330.39 177.55 332.15 180.86 C 334.97 185.50 340.87 186.64 345.88 186.99 C 379.83 187.02 413.78 186.99 447.73 187.00 C 445.99 182.55 443.56 178.36 440.16 174.99 C 407.66 142.45 375.11 109.97 342.62 77.42 C 338.99 73.57 334.51 70.60 329.47 68.98 Z" />
<path fill="#2a2e3d" opacity="1.00" d=" M 224.17 277.12 C 273.43 276.83 322.72 277.10 371.99 276.99 C 377.13 277.17 383.18 278.08 386.45 282.52 C 389.45 287.33 390.23 293.48 387.85 298.72 C 385.91 304.90 378.77 306.76 373.03 306.99 C 324.03 307.01 275.04 307.00 226.05 307.00 C 221.21 306.69 215.61 305.66 212.56 301.50 C 209.40 296.47 208.77 290.00 211.42 284.61 C 213.34 279.42 219.20 277.73 224.17 277.12 Z" />
<path fill="#2a2e3d" opacity="1.00" d=" M 224.16 337.12 C 273.44 336.83 322.73 337.09 372.01 336.99 C 377.16 337.17 383.19 338.09 386.46 342.53 C 389.45 347.34 390.24 353.48 387.85 358.72 C 385.89 364.92 378.72 366.77 372.96 367.00 C 323.95 367.00 274.93 367.01 225.91 366.99 C 221.12 366.67 215.59 365.63 212.56 361.50 C 209.58 356.69 208.74 350.51 211.16 345.27 C 212.84 339.70 218.96 337.70 224.16 337.12 Z" />
<path fill="#2a2e3d" opacity="1.00" d=" M 224.17 397.12 C 273.45 396.84 322.74 397.09 372.02 396.99 C 377.14 397.17 383.14 398.09 386.42 402.48 C 389.44 407.28 390.24 413.44 387.86 418.69 C 385.93 424.89 378.77 426.76 373.02 426.99 C 323.99 427.00 274.95 427.00 225.92 426.99 C 221.11 426.67 215.54 425.63 212.53 421.45 C 209.57 416.64 208.74 410.49 211.16 405.26 C 212.85 399.69 218.97 397.69 224.17 397.12 Z" />
</g>
</svg>
