<svg version="1.1" id="Layer_1" xmlns="http://www.w3.org/2000/svg" xmlns:xlink="http://www.w3.org/1999/xlink" width="459.9" height="459.9"    viewBox="0 0 459.9 459.9"> xml:space="preserve"><style type="text/css">.st0{fill:#FFFFFF;}.st1{fill:#2A2E3D;}.st2{fill:#C23669;}</style><circle class="st0" cx="229.9" cy="229.9" r="229.9"/><path class="st1" d="M342.5,284.9c-2.3-11.9-6.2-21-11.9-27.4c-5.6-6.4-11.7-10.9-18.2-13.6c-5.7-2.5-11.7-4.1-17.8-4.9v-2.5c15.3-1.7,27.2-5.8,35.8-12.3c8.4-6.2,14.8-14.9,18.2-24.8c3.6-10.4,5.4-21.4,5.3-32.4c0-22.9-4.3-40.8-12.9-53.6s-22-22-40.1-27.3c-18.1-5.4-41.6-8.1-70.4-8.1c-19.5,0-36.1,0.1-49.8,0.2c-13.7,0.1-26.3,0.5-37.7,1.1c-5,0.3-10.1,0.6-15.4,1l64.3,47.9c24.1-16.9,57.4-10.9,74.2,13.2s10.9,57.4-13.2,74.2s-57.4,10.9-74.2-13.2c-9.2-13.3-12-30-7.4-45.5l-64.9-48.4v266.3h90.3V267.7c8.5,0.1,18,0.2,28.4,0.3c7.9,0,13.6,1.3,17.2,3.8c3.5,2.5,6.1,7.9,7.8,16.1l19.1,86.9h96.3L342.5,284.9z"/><circle class="st2" cx="222.4" cy="171.9" r="22.1"/></svg>
