<svg id="Layer_1" data-name="Layer 1" xmlns="http://www.w3.org/2000/svg" width="459.9" height="459.9" viewBox="0 0 459.9 459.9">
    <defs>
        <style>.cls-1{fill:#2a2e3d;}.cls-2{fill:#c23669;}.cls-3{fill:#fff;}</style>
    </defs>
    <circle class="cls-1" cx="229.95" cy="229.95" r="229.95" />
    <path class="cls-2" d="M294.88,240.93c5.06,1.42,9.54,2.34,13.78,3.91,15.92,5.92,26.26,17,30.47,33.64q11.17,44.13,22.47,88.22c.73,2.83.42,3.71-2.67,3.7q-42.54-.21-85.08-.16c-2.49,0-3.29-.87-3.81-3.27q-8.93-41.25-18.14-82.45c-2.24-10-6.22-13.51-16.42-14.63-10-1.1-20-.33-30-.59-2.59-.07-2.22,1.54-2.22,3.09v23.75c0,23.34-.06,46.69.07,70,0,3.2-.74,4.26-4.11,4.24q-39-.21-78,0c-2.93,0-4.06-.49-4-3.82q.15-122.86.09-245.75v-1.94c1.41-.47,2.06.58,2.83,1.15q28.61,21.09,57.18,42.22c1.91,1.4,3.05,2.53,2.37,5.42A46.78,46.78,0,1,0,271.46,185c2.36-18.18-3.95-33.45-18.9-44.23-15.31-11-31.93-12.13-48.87-3.72-3.09,1.53-4.92,1.22-7.54-.74-18.55-13.89-37.23-27.6-55.87-41.37-1-.77-2-1.58-3.9-3,7.73-.48,14.48-1.1,21.24-1.29,34.14-1,68.3-1.86,102.44-.06a171.83,171.83,0,0,1,44.59,7.82C331.11,107,346,125.39,350,152.72c2.23,15.11,2.39,30.17-1.41,45.14-5.91,23.29-21.24,36.16-44.33,40.62-2.58.5-5.18.87-7.77,1.35C296.16,239.89,295.88,240.23,294.88,240.93Z" />
    <path class="cls-3" d="M225,199.78a19.74,19.74,0,0,1-19.7-20A20.05,20.05,0,0,1,225,160.23a19.85,19.85,0,0,1,19.81,19.88A19.55,19.55,0,0,1,225,199.78Z" />
</svg>