<svg id="Layer_1" data-name="Layer 1" xmlns="http://www.w3.org/2000/svg" width="459.9" height="459.9" viewBox="0 0 459.9 459.9"><defs><style>.cls-1{fill:#2a2e3d;}.cls-2{fill:#fff;}.cls-3{fill:#c23669;}</style></defs><circle class="cls-1" cx="229.95" cy="229.95" r="229.95"/><path class="cls-2" d="M342.47,284.94q-3.41-17.82-11.87-27.35T312.36,244a65.14,65.14,0,0,0-17.81-4.88V236.6q22.9-2.55,35.83-12.3a52.22,52.22,0,0,0,18.24-24.81,97,97,0,0,0,5.3-32.43q0-34.35-12.93-53.64T300.91,86.07Q273.77,78,230.53,78q-29.26,0-49.83.21T143,79.28c-5,.25-10.14.59-15.42,1l64.33,47.92a53.31,53.31,0,1,1-20.65,28.73l-64.94-48.38V374.83H196.6V267.66q12.81.1,28.41.31,11.87,0,17.18,3.82T250,287.9l19.08,86.93h96.26Z"/><circle class="cls-3" cx="222.41" cy="171.92" r="22.14"/></svg>