<?xml version="1.0" encoding="utf-8"?>
<!-- Generator: Adobe Illustrator 26.0.1, SVG Export Plug-In . SVG Version: 6.00 Build 0)  -->
<svg version="1.1" id="Layer_1" xmlns="http://www.w3.org/2000/svg" xmlns:xlink="http://www.w3.org/1999/xlink" x="0px" y="0px"
	 viewBox="0 0 479.7 479.7" style="enable-background:new 0 0 479.7 479.7;" xml:space="preserve">
<style type="text/css">
	.st0{fill:#2A2E3D;}
</style>
<g id="_x23_2a2e3dff">
	<path class="st0" d="M51.6,53.8c1.4-0.1,2.9-0.2,4.3-0.2c118.5,0,237,0,355.6,0c8.5,0.1,17-0.5,25.4,1.4
		c20.7,4,37.9,21.8,41.4,42.5c0.6,3.6,1,7.3,1.1,11c0,87.2,0,174.5,0,261.7c-0.1,11-2.5,22.3-8.9,31.4c-5.3,8.2-12.9,14.8-21.7,19.1
		c-9.1,4.4-19.3,5.6-29.3,5.3c-119.7,0-239.4,0-359.1,0c-8.2,0.2-16.6-0.6-24.4-3.3C21.1,417.4,9,405.3,3.6,390.5
		c-2.1-6.2-3.1-12.8-3.3-19.4c0-86,0-172.1,0-258.1c-0.2-9.2,0.9-18.6,4.6-27.1C12.9,67.6,31.5,54.5,51.6,53.8 M47.5,80.8
		c-8.1,1.4-14.7,7.4-18.3,14.6c-2.4,5.5-2.2,11.7-2.2,17.6c0,85.1,0,170.3,0,255.4c0,5.8,0,12,2.9,17.2c2.4,4.1,5.6,7.8,9.7,10.3
		c4.8,3.1,10.7,3.6,16.2,3.6c123.3,0,246.6,0,369.9,0c9.5,0.5,18.7-4.6,23.5-12.8c2.9-4.6,3.4-10.3,3.5-15.6c0-87.5,0-175,0-262.5
		c0-4.2-0.4-8.6-1.9-12.6c-3.9-9.1-13.3-15.8-23.3-15.7c-19.5-0.2-39,0-58.6-0.1c-104.7,0-209.3,0-314,0
		C52.4,80.2,49.9,80.4,47.5,80.8z"/>
	<path class="st0" d="M158.8,133.5c10.3,0.1,20.9,2.6,29.5,8.5c12.1,7.7,21.1,20.5,23.7,34.7c2.3,10.9,0.6,22.4-4.1,32.5
		c-6.2,12.5-17,22.6-30.2,27.4c-7.8,2.5-16.2,4-24.4,2.6c-19.3-2.2-36.4-16.3-43.2-34.4c-3.3-9.4-4.4-19.7-1.9-29.5
		c2.8-13.7,11.7-25.8,23.4-33.3C139.6,136.5,149.3,134.1,158.8,133.5 M153.8,160.6c-10.6,2-19.4,11.7-20.1,22.5
		c-0.8,7.3,0.6,15.3,5.8,20.8c5.5,7.1,14.9,10.1,23.7,9c7.8-0.3,14.9-5.1,19.3-11.5c4.2-6.2,4.8-14.3,3.4-21.6
		c-1.1-5.9-4.8-11.1-9.5-14.7C170.2,160.1,161.5,159.3,153.8,160.6z"/>
	<path class="st0" d="M289.5,160.7c3.3-0.9,6.8-0.7,10.2-0.7c32.8,0,65.6,0,98.4,0c4.3,0.3,9.2,1.2,11.9,4.9
		c2.6,4.3,3.4,9.7,1.2,14.4c-1.7,5.5-8,7.1-13.1,7.3c-34.6,0-69.3,0-103.9,0c-4.3-0.3-9.2-1.2-11.8-4.9c-2.6-4.3-3.4-9.7-1.2-14.4
		C282.3,163.6,285.9,161.5,289.5,160.7z"/>
	<path class="st0" d="M289.6,213.9c1.9-0.5,3.8-0.7,5.7-0.7c34.3,0,68.6,0,102.9,0c4.9,0.3,10.9,1.6,12.9,6.7c2,4.2,2,9,0,13.2
		c-2,5.1-8,6.4-12.9,6.7c-34.6,0-69.2,0-103.8,0c-4.3-0.3-9.2-1.2-11.9-4.9c-2.6-4.3-3.4-9.8-1.2-14.4
		C282.3,216.8,285.9,214.7,289.6,213.9z"/>
	<path class="st0" d="M132.2,266.6c16.2-0.3,32.5,0,48.7-0.1c19.7-0.4,40.4,5.7,54.2,20.3c10.7,11.5,16.6,27,17.7,42.6
		c0.7,4.1-0.2,8.4-2.4,12c-5.1,6.2-16.1,6.2-21.2,0c-3.3-5.4-2.6-12-4.3-17.9c-2.2-8.4-6.6-16.7-13.9-21.8
		c-7.5-5.9-17.2-8.4-26.6-8.7c-16.2,0-32.5,0-48.7,0c-12.2,0.2-25,4.6-32.7,14.5c-4.5,5.2-7.2,11.8-8.5,18.4
		c-1,5.2-0.9,10.8-3.7,15.4c-5.7,7.3-20.3,6.1-22.8-3.6c-1.5-3.9-0.8-8-0.3-12c2.2-19.3,12.1-38.4,29.1-48.5
		C107.4,270.6,119.8,267.3,132.2,266.6z"/>
	<path class="st0" d="M289.5,267.1c1.9-0.5,3.8-0.7,5.8-0.7c34.3,0,68.6,0,103,0c4.3,0.3,9.2,1.2,11.9,4.9c2.6,4.3,3.4,9.7,1.2,14.4
		c-1.7,5.5-8,7.1-13.1,7.3c-34.6,0-69.2,0-103.9,0c-4.3-0.3-9.2-1.2-11.9-4.9c-2.6-4.3-3.4-9.7-1.2-14.4
		C282.3,270.1,285.9,267.9,289.5,267.1z"/>
</g>
</svg>
