<?xml version="1.0" encoding="UTF-8" ?>
<!DOCTYPE svg PUBLIC "-//W3C//DTD SVG 1.1//EN" "http://www.w3.org/Graphics/SVG/1.1/DTD/svg11.dtd">
<svg width="633pt" height="512pt" viewBox="0 0 633 512" version="1.1" xmlns="http://www.w3.org/2000/svg">
<g id="#ffffffff">
<path fill="#ffffff" opacity="1.00" d=" M 0.00 0.00 L 633.00 0.00 L 633.00 512.00 L 0.00 512.00 L 0.00 0.00 M 102.20 50.22 C 79.60 50.99 58.59 65.86 49.63 86.48 C 45.45 96.05 44.29 106.66 44.49 117.03 C 44.51 214.04 44.49 311.05 44.50 408.07 C 44.69 415.47 45.80 422.88 48.17 429.91 C 54.20 446.56 67.90 460.19 84.51 466.30 C 93.31 469.37 102.73 470.20 112.00 470.01 C 246.98 470.00 381.97 470.00 516.96 470.01 C 528.21 470.27 539.77 468.91 550.01 463.99 C 559.86 459.08 568.47 451.69 574.45 442.42 C 581.69 432.15 584.39 419.39 584.51 407.00 C 584.49 308.64 584.51 210.29 584.50 111.93 C 584.39 107.77 583.95 103.61 583.29 99.50 C 579.26 76.11 559.90 56.12 536.58 51.56 C 527.18 49.48 517.51 50.07 507.96 50.00 C 374.32 50.00 240.67 50.01 107.03 49.99 C 105.42 50.01 103.81 50.08 102.20 50.22 Z" />
<path fill="#ffffff" opacity="1.00" d=" M 97.58 80.70 C 100.36 80.19 103.18 80.07 106.00 80.00 C 224.00 80.00 342.00 80.00 460.01 80.00 C 482.02 80.08 504.03 79.85 526.04 80.11 C 537.36 79.98 547.88 87.55 552.31 97.80 C 554.07 102.29 554.45 107.17 554.50 111.96 C 554.50 210.63 554.50 309.29 554.50 407.96 C 554.45 413.99 553.86 420.35 550.57 425.58 C 545.17 434.76 534.77 440.52 524.09 439.97 C 385.06 440.04 246.03 439.97 107.00 440.01 C 100.73 440.01 94.13 439.41 88.71 435.95 C 84.08 433.17 80.38 428.98 77.72 424.33 C 74.48 418.44 74.49 411.49 74.49 404.96 C 74.51 308.96 74.50 212.96 74.50 116.96 C 74.51 110.31 74.23 103.35 76.98 97.13 C 80.95 89.01 88.48 82.23 97.58 80.70 M 223.17 140.15 C 212.41 140.77 201.52 143.53 192.57 149.73 C 179.39 158.19 169.36 171.84 166.21 187.28 C 163.44 198.26 164.70 209.89 168.39 220.49 C 176.02 240.89 195.26 256.76 217.05 259.24 C 226.27 260.77 235.71 259.13 244.51 256.29 C 259.32 250.93 271.59 239.47 278.54 225.41 C 283.80 214.09 285.74 201.07 283.15 188.80 C 280.21 172.81 270.06 158.42 256.42 149.72 C 246.73 143.09 234.80 140.24 223.17 140.15 M 370.50 170.77 C 366.44 171.65 362.42 174.09 361.16 178.27 C 358.75 183.51 359.58 189.66 362.55 194.49 C 365.58 198.62 371.10 199.68 375.90 199.99 C 414.94 200.00 453.99 200.01 493.03 199.99 C 498.77 199.72 505.88 197.92 507.84 191.74 C 510.27 186.51 509.43 180.37 506.48 175.55 C 503.44 171.36 497.88 170.35 493.04 170.01 C 456.04 169.98 419.04 170.02 382.04 169.99 C 378.18 170.00 374.26 169.74 370.50 170.77 M 370.56 230.76 C 366.48 231.63 362.43 234.07 361.16 238.27 C 358.75 243.51 359.58 249.68 362.56 254.51 C 365.62 258.64 371.18 259.70 376.01 260.00 C 415.02 260.00 454.03 260.01 493.04 259.99 C 498.52 259.68 505.30 258.16 507.54 252.45 C 509.81 247.76 509.82 242.28 507.55 237.59 C 505.34 231.86 498.55 230.33 493.06 230.01 C 454.39 229.97 415.71 230.03 377.03 229.98 C 374.85 229.97 372.67 230.22 370.56 230.76 M 193.13 290.15 C 179.12 290.94 165.14 294.71 153.16 302.15 C 134.00 313.58 122.75 335.13 120.31 356.89 C 119.80 361.40 119.03 366.07 120.70 370.46 C 123.57 381.32 139.97 382.68 146.45 374.49 C 149.63 369.29 149.54 362.94 150.62 357.11 C 152.13 349.57 155.15 342.16 160.26 336.32 C 168.93 325.22 183.39 320.27 197.09 319.99 C 215.40 320.01 233.72 320.00 252.03 319.99 C 262.66 320.28 273.57 323.14 282.05 329.77 C 290.26 335.49 295.26 344.83 297.73 354.33 C 299.59 360.97 298.87 368.42 302.55 374.49 C 308.30 381.52 320.70 381.51 326.45 374.50 C 328.85 370.49 329.87 365.62 329.12 360.99 C 327.86 343.41 321.27 325.93 309.17 312.93 C 293.64 296.46 270.23 289.54 248.04 289.99 C 229.74 290.11 211.43 289.79 193.13 290.15 M 370.47 290.78 C 366.42 291.66 362.41 294.11 361.16 298.28 C 358.75 303.51 359.58 309.66 362.54 314.48 C 365.58 318.63 371.13 319.69 375.95 319.99 C 414.99 320.00 454.03 320.01 493.07 319.99 C 498.81 319.71 505.91 317.90 507.84 311.72 C 510.28 306.48 509.42 300.33 506.46 295.51 C 503.41 291.36 497.88 290.35 493.06 290.01 C 454.36 289.97 415.66 290.03 376.96 289.98 C 374.77 289.97 372.58 290.24 370.47 290.78 Z" />
<path fill="#ffffff" opacity="1.00" d=" M 217.51 170.71 C 226.17 169.22 235.97 170.11 242.94 175.96 C 248.27 180.02 252.45 185.83 253.68 192.50 C 255.20 200.67 254.59 209.79 249.80 216.83 C 244.88 223.98 236.93 229.36 228.09 229.75 C 218.23 230.92 207.57 227.61 201.38 219.55 C 195.52 213.33 193.92 204.34 194.79 196.09 C 195.59 183.89 205.53 172.93 217.51 170.71 Z" />
</g>
<g id="#2a2e3dff">
<path fill="#2a2e3d" opacity="1.00" d=" M 102.20 50.22 C 103.81 50.08 105.42 50.01 107.03 49.99 C 240.67 50.01 374.32 50.00 507.96 50.00 C 517.51 50.07 527.18 49.48 536.58 51.56 C 559.90 56.12 579.26 76.11 583.29 99.50 C 583.95 103.61 584.39 107.77 584.50 111.93 C 584.51 210.29 584.49 308.64 584.51 407.00 C 584.39 419.39 581.69 432.15 574.45 442.42 C 568.47 451.69 559.86 459.08 550.01 463.99 C 539.77 468.91 528.21 470.27 516.96 470.01 C 381.97 470.00 246.98 470.00 112.00 470.01 C 102.73 470.20 93.31 469.37 84.51 466.30 C 67.90 460.19 54.20 446.56 48.17 429.91 C 45.80 422.88 44.69 415.47 44.50 408.07 C 44.49 311.05 44.51 214.04 44.49 117.03 C 44.29 106.66 45.45 96.05 49.63 86.48 C 58.59 65.86 79.60 50.99 102.20 50.22 M 97.58 80.70 C 88.48 82.23 80.95 89.01 76.98 97.13 C 74.23 103.35 74.51 110.31 74.50 116.96 C 74.50 212.96 74.51 308.96 74.49 404.96 C 74.49 411.49 74.48 418.44 77.72 424.33 C 80.38 428.98 84.08 433.17 88.71 435.95 C 94.13 439.41 100.73 440.01 107.00 440.01 C 246.03 439.97 385.06 440.04 524.09 439.97 C 534.77 440.52 545.17 434.76 550.57 425.58 C 553.86 420.35 554.45 413.99 554.50 407.96 C 554.50 309.29 554.50 210.63 554.50 111.96 C 554.45 107.17 554.07 102.29 552.31 97.80 C 547.88 87.55 537.36 79.98 526.04 80.11 C 504.03 79.85 482.02 80.08 460.01 80.00 C 342.00 80.00 224.00 80.00 106.00 80.00 C 103.18 80.07 100.36 80.19 97.58 80.70 Z" />
<path fill="#2a2e3d" opacity="1.00" d=" M 223.17 140.15 C 234.80 140.24 246.73 143.09 256.42 149.72 C 270.06 158.42 280.21 172.81 283.15 188.80 C 285.74 201.07 283.80 214.09 278.54 225.41 C 271.59 239.47 259.32 250.93 244.51 256.29 C 235.71 259.13 226.27 260.77 217.05 259.24 C 195.26 256.76 176.02 240.89 168.39 220.49 C 164.70 209.89 163.44 198.26 166.21 187.28 C 169.36 171.84 179.39 158.19 192.57 149.73 C 201.52 143.53 212.41 140.77 223.17 140.15 M 217.51 170.71 C 205.53 172.93 195.59 183.89 194.79 196.09 C 193.92 204.34 195.52 213.33 201.38 219.55 C 207.57 227.61 218.23 230.92 228.09 229.75 C 236.93 229.36 244.88 223.98 249.80 216.83 C 254.59 209.79 255.20 200.67 253.68 192.50 C 252.45 185.83 248.27 180.02 242.94 175.96 C 235.97 170.11 226.17 169.22 217.51 170.71 Z" />
<path fill="#2a2e3d" opacity="1.00" d=" M 370.50 170.77 C 374.26 169.74 378.18 170.00 382.04 169.99 C 419.04 170.02 456.04 169.98 493.04 170.01 C 497.88 170.35 503.44 171.36 506.48 175.55 C 509.43 180.37 510.27 186.51 507.84 191.74 C 505.88 197.92 498.77 199.72 493.03 199.99 C 453.99 200.01 414.94 200.00 375.90 199.99 C 371.10 199.68 365.58 198.62 362.55 194.49 C 359.58 189.66 358.75 183.51 361.16 178.27 C 362.42 174.09 366.44 171.65 370.50 170.77 Z" />
<path fill="#2a2e3d" opacity="1.00" d=" M 370.56 230.76 C 372.67 230.22 374.85 229.97 377.03 229.98 C 415.71 230.03 454.39 229.97 493.06 230.01 C 498.55 230.33 505.34 231.86 507.55 237.59 C 509.82 242.28 509.81 247.76 507.54 252.45 C 505.30 258.16 498.52 259.68 493.04 259.99 C 454.03 260.01 415.02 260.00 376.01 260.00 C 371.18 259.70 365.62 258.64 362.56 254.51 C 359.58 249.68 358.75 243.51 361.16 238.27 C 362.43 234.07 366.48 231.63 370.56 230.76 Z" />
<path fill="#2a2e3d" opacity="1.00" d=" M 193.13 290.15 C 211.43 289.79 229.74 290.11 248.04 289.99 C 270.23 289.54 293.64 296.46 309.17 312.93 C 321.27 325.93 327.86 343.41 329.12 360.99 C 329.87 365.62 328.85 370.49 326.45 374.50 C 320.70 381.51 308.30 381.52 302.55 374.49 C 298.87 368.42 299.59 360.97 297.73 354.33 C 295.26 344.83 290.26 335.49 282.05 329.77 C 273.57 323.14 262.66 320.28 252.03 319.99 C 233.72 320.00 215.40 320.01 197.09 319.99 C 183.39 320.27 168.93 325.22 160.26 336.32 C 155.15 342.16 152.13 349.57 150.62 357.11 C 149.54 362.94 149.63 369.29 146.45 374.49 C 139.97 382.68 123.57 381.32 120.70 370.46 C 119.03 366.07 119.80 361.40 120.31 356.89 C 122.75 335.13 134.00 313.58 153.16 302.15 C 165.14 294.71 179.12 290.94 193.13 290.15 Z" />
<path fill="#2a2e3d" opacity="1.00" d=" M 370.47 290.78 C 372.58 290.24 374.77 289.97 376.96 289.98 C 415.66 290.03 454.36 289.97 493.06 290.01 C 497.88 290.35 503.41 291.36 506.46 295.51 C 509.42 300.33 510.28 306.48 507.84 311.72 C 505.91 317.90 498.81 319.71 493.07 319.99 C 454.03 320.01 414.99 320.00 375.95 319.99 C 371.13 319.69 365.58 318.63 362.54 314.48 C 359.58 309.66 358.75 303.51 361.16 298.28 C 362.41 294.11 366.42 291.66 370.47 290.78 Z" />
</g>
</svg>
