<?xml version="1.0" encoding="utf-8"?>
<!-- Generator: Adobe Illustrator 26.0.1, SVG Export Plug-In . SVG Version: 6.00 Build 0)  -->
<svg version="1.1" id="Layer_1" xmlns="http://www.w3.org/2000/svg" xmlns:xlink="http://www.w3.org/1999/xlink" x="0px" y="0px"
	 viewBox="0 0 540 420.1" style="enable-background:new 0 0 540 420.1;" xml:space="preserve">
<style type="text/css">
	.st0{fill:#2A2E3D;}
</style>
<g id="_x23_2a2e3dff">
	<path class="st0" d="M57.7,0.2C59.3,0.1,61,0,62.6,0c133.6,0,267.3,0,400.9,0c9.6,0.1,19.2-0.5,28.6,1.6
		c23.3,4.6,42.7,24.5,46.7,47.9c0.7,4.1,1.1,8.3,1.2,12.4c0,98.4,0,196.7,0,295.1c-0.1,12.4-2.8,25.1-10.1,35.4
		c-6,9.3-14.6,16.7-24.4,21.6c-10.2,4.9-21.8,6.3-33,6c-135,0-270,0-405,0c-9.3,0.2-18.7-0.6-27.5-3.7
		c-16.6-6.1-30.3-19.7-36.3-36.4c-2.4-7-3.5-14.4-3.7-21.8c0-97,0-194,0-291c-0.2-10.4,1-21,5.1-30.5C14.1,15.9,35.1,1,57.7,0.2
		 M53.1,30.7C44,32.3,36.5,39,32.5,47.2C29.8,53.4,30,60.3,30,67c0,96,0,192,0,288c0,6.5,0,13.5,3.2,19.4c2.7,4.7,6.4,8.8,11,11.6
		c5.4,3.5,12,4.1,18.3,4.1c139,0,278.1,0,417.1,0c10.7,0.5,21.1-5.2,26.5-14.4c3.3-5.2,3.9-11.6,3.9-17.6c0-98.7,0-197.3,0-296
		c0-4.8-0.4-9.7-2.2-14.2c-4.4-10.2-15-17.8-26.3-17.7c-22-0.3-44,0-66-0.1c-118,0-236,0-354,0C58.7,30.1,55.9,30.2,53.1,30.7z"/>
	<path class="st0" d="M178.7,90.2c11.6,0.1,23.6,2.9,33.3,9.6c13.6,8.7,23.8,23.1,26.7,39.1c2.6,12.3,0.6,25.3-4.6,36.6
		c-7,14.1-19.2,25.5-34,30.9c-8.8,2.8-18.2,4.5-27.5,2.9c-21.8-2.5-41-18.3-48.7-38.7c-3.7-10.6-4.9-22.2-2.2-33.2
		c3.1-15.4,13.2-29.1,26.4-37.6C157.1,93.6,167.9,90.8,178.7,90.2 M173,120.7c-12,2.2-21.9,13.2-22.7,25.4
		c-0.9,8.2,0.7,17.2,6.6,23.5c6.2,8.1,16.8,11.4,26.7,10.2c8.8-0.4,16.8-5.8,21.7-12.9c4.8-7,5.4-16.2,3.9-24.3
		c-1.2-6.7-5.4-12.5-10.7-16.5C191.5,120.1,181.7,119.2,173,120.7z"/>
	<path class="st0" d="M326,120.8c3.8-1,7.7-0.8,11.5-0.8c37,0,74,0,111,0c4.8,0.3,10.4,1.4,13.4,5.5c2.9,4.8,3.8,11,1.4,16.2
		c-2,6.2-9.1,8-14.8,8.2c-39,0-78.1,0-117.1,0c-4.8-0.3-10.3-1.4-13.4-5.5c-3-4.8-3.8-11-1.4-16.2C318,124.1,322,121.7,326,120.8z"
		/>
	<path class="st0" d="M326.1,180.8c2.1-0.5,4.3-0.8,6.5-0.8c38.7,0.1,77.4,0,116,0c5.5,0.3,12.3,1.9,14.5,7.6
		c2.3,4.7,2.3,10.2,0,14.9c-2.2,5.7-9,7.2-14.5,7.5c-39,0-78,0-117,0c-4.8-0.3-10.4-1.4-13.5-5.5c-3-4.8-3.8-11-1.4-16.2
		C318,184.1,322,181.7,326.1,180.8z"/>
	<path class="st0" d="M148.7,240.2c18.3-0.4,36.6,0,54.9-0.2c22.2-0.4,45.6,6.5,61.1,22.9c12.1,13,18.7,30.5,19.9,48.1
		c0.8,4.6-0.3,9.5-2.7,13.5c-5.8,7-18.2,7-23.9,0c-3.7-6.1-3-13.5-4.8-20.2c-2.5-9.5-7.5-18.8-15.7-24.6c-8.5-6.6-19.4-9.5-30-9.8
		c-18.3,0-36.6,0-54.9,0c-13.7,0.3-28.2,5.2-36.8,16.3c-5.1,5.8-8.1,13.2-9.6,20.8c-1.1,5.8-1,12.2-4.2,17.4
		c-6.5,8.2-22.9,6.8-25.8-4c-1.7-4.4-0.9-9.1-0.4-13.6c2.4-21.8,13.7-43.3,32.9-54.7C120.7,244.7,134.7,241,148.7,240.2z"/>
	<path class="st0" d="M326,240.8c2.1-0.5,4.3-0.8,6.5-0.8c38.7,0,77.4,0,116.1,0c4.8,0.3,10.4,1.3,13.4,5.5c3,4.8,3.8,11,1.4,16.2
		c-1.9,6.2-9,8-14.8,8.3c-39,0-78.1,0-117.1,0c-4.8-0.3-10.4-1.4-13.4-5.5c-3-4.8-3.8-11-1.4-16.2C317.9,244.1,322,241.7,326,240.8z
		"/>
</g>
</svg>
