<?xml version="1.0" standalone="no"?>
<!DOCTYPE svg PUBLIC "-//W3C//DTD SVG 20010904//EN"
 "http://www.w3.org/TR/2001/REC-SVG-20010904/DTD/svg10.dtd">
<svg version="1.0" xmlns="http://www.w3.org/2000/svg"
 width="700.000000pt" height="700.000000pt" viewBox="0 0 700.000000 700.000000"
 preserveAspectRatio="xMidYMid meet">
<metadata>
Created by potrace 1.11, written by Peter Selinger 2001-2013
</metadata>
<g transform="translate(0.000000,700.000000) scale(0.100000,-0.100000)"
fill="#000000" stroke="none">
<path d="M2890 5634 c-276 -6 -735 -25 -772 -32 l-37 -7 136 -100 c74 -55 255
-189 402 -298 365 -272 401 -297 427 -297 12 0 53 13 90 29 118 50 182 64 289
65 115 1 180 -13 282 -59 306 -140 469 -428 424 -749 -24 -169 -84 -289 -206
-411 -91 -90 -160 -135 -264 -171 -428 -149 -879 130 -941 584 -10 75 0 237
16 264 19 30 -16 63 -233 224 -126 92 -331 244 -456 336 -125 93 -234 171
-241 174 -10 4 -14 -340 -20 -1887 -6 -1711 -6 -1893 9 -1915 l15 -24 623 0
c493 0 627 3 641 13 16 12 17 57 17 757 -1 415 3 751 8 759 14 21 496 10 569
-13 70 -23 117 -65 141 -130 16 -43 104 -431 283 -1249 12 -54 27 -106 34
-115 11 -16 65 -17 686 -19 392 -2 679 1 687 6 15 10 2 66 -254 1065 -118 464
-143 527 -246 640 -104 114 -229 183 -427 237 -98 26 -94 31 44 58 411 80 629
299 711 716 22 111 25 436 5 565 -69 446 -288 715 -692 851 -189 63 -416 103
-673 119 -173 11 -836 19 -1077 14z"/>
<path d="M3350 4551 c-93 -29 -177 -108 -206 -193 -22 -66 -15 -177 14 -233
26 -50 84 -106 142 -136 62 -32 184 -33 250 -3 144 67 212 247 149 394 -55
127 -222 209 -349 171z"/>
</g>
</svg>
