<?xml version="1.0" standalone="no"?>
<!DOCTYPE svg PUBLIC "-//W3C//DTD SVG 20010904//EN"
 "http://www.w3.org/TR/2001/REC-SVG-20010904/DTD/svg10.dtd">
<svg version="1.0" xmlns="http://www.w3.org/2000/svg"
 width="700.000000pt" height="700.000000pt" viewBox="0 0 700.000000 700.000000"
 preserveAspectRatio="xMidYMid meet">
<metadata>
Created by potrace 1.11, written by Peter Selinger 2001-2013
</metadata>
<g transform="translate(0.000000,700.000000) scale(0.100000,-0.100000)"
fill="#000000" stroke="none">
<path d="M3215 6989 c-745 -64 -1437 -353 -1995 -835 -551 -475 -938 -1101
-1114 -1799 -73 -291 -101 -529 -101 -860 1 -404 50 -722 171 -1090 254 -772
784 -1445 1476 -1876 447 -278 924 -443 1483 -511 130 -16 600 -16 730 0 451
55 818 163 1195 351 729 364 1312 973 1639 1714 144 325 238 674 283 1052 16
139 16 595 0 730 -61 497 -198 932 -418 1327 -538 964 -1489 1620 -2569 1772
-249 35 -546 45 -780 25z m746 -1369 c259 -15 486 -55 681 -120 351 -117 572
-350 658 -694 45 -181 62 -445 39 -631 -58 -471 -295 -729 -744 -810 -49 -9
-93 -20 -97 -24 -5 -4 43 -22 105 -39 252 -74 409 -194 503 -389 50 -103 411
-1517 393 -1539 -10 -13 -105 -14 -686 -12 -611 3 -676 5 -687 19 -6 9 -29 95
-50 190 -113 517 -246 1118 -254 1145 -26 85 -72 134 -155 160 -71 23 -555 34
-568 13 -5 -8 -9 -350 -9 -761 0 -729 0 -748 -19 -758 -13 -6 -230 -10 -635
-10 l-616 0 -22 22 -21 21 6 546 c4 300 7 1153 7 1895 0 1138 2 1347 14 1343
22 -9 899 -658 919 -680 13 -15 17 -30 12 -52 -21 -107 -26 -183 -15 -264 23
-174 81 -291 205 -416 89 -89 160 -135 262 -170 191 -67 375 -54 562 37 67 33
102 60 170 127 126 126 185 240 212 411 49 318 -113 609 -422 754 -185 87
-375 84 -587 -10 -30 -13 -65 -24 -78 -24 -14 0 -114 68 -261 177 -131 97
-342 253 -470 347 l-232 171 37 7 c37 7 511 26 782 32 236 5 882 -3 1061 -14z"/>
</g>
</svg>
