<?xml version="1.0" encoding="utf-8"?>
<!-- Generator: Adobe Illustrator 26.0.1, SVG Export Plug-In . SVG Version: 6.00 Build 0)  -->
<svg version="1.1" id="Layer_1" xmlns="http://www.w3.org/2000/svg" xmlns:xlink="http://www.w3.org/1999/xlink" x="0px" y="0px"
	 viewBox="0 0 479.6 389.8" style="enable-background:new 0 0 479.6 389.8;" xml:space="preserve">
<style type="text/css">
	.st0{fill:#2A2E3D;}
</style>
<g id="_x23_2a2e3dff">
	<path class="st0" d="M128.2,1.7c9.6-5.7,23.5,4.2,21.3,15.1c-0.4,3.4-2.5,6.1-4.5,8.8c-23.3,28-46.7,56-70,84
		c-2.2,2.6-4.2,5.2-6.7,7.5c-2.8,2.4-6.7,1.8-10.1,1.8c-3.7,0.2-7-2-9.5-4.5c-14.5-14.5-29-29-43.5-43.5c-3.1-3.2-5.7-7.4-5.2-12
		c0.7-6.6,6.2-12.2,12.6-13.6c5.3-1,10.2,2.1,13.7,5.6c10.7,10.7,22,20.9,32.5,31.7c3.6-5,7.9-9.5,11.8-14.3
		c16.1-19.2,32.3-38.4,48.5-57.5C122,7.6,124.5,3.9,128.2,1.7z"/>
	<path class="st0" d="M193.4,44.9c86.3-0.2,172.6,0,258.9-0.1c7.4,0.2,15.4-1.1,21.9,3c7.1,5.7,7.1,18.2,0.1,23.9
		c-3.3,2-7.1,2.9-10.9,3c-89.4,0-178.8,0-268.1,0c-4.8-0.2-10.2-1.6-13.1-5.8c-2.8-4.4-4.2-10-1.8-14.9
		C182,48.4,187.8,45.4,193.4,44.9z"/>
	<path class="st0" d="M128.9,151.3c9.6-4.9,22.7,4.9,20.6,15.5c-0.4,3.3-2.5,6.1-4.5,8.7c-24.1,28.9-48.2,57.8-72.3,86.8
		c-2.3,2.5-4.3,5.8-7.9,6.4c-5.2,0.4-11.3,0.7-15.1-3.5c-14.7-14.6-29.3-29.3-44-43.9c-3.3-3.3-6.2-7.6-5.7-12.5
		c0.7-6.6,6.2-12.1,12.6-13.6c5.5-1.1,10.5,2.3,14.2,6.1c10.5,10.6,21.7,20.5,32,31.3c20.1-24.6,40.8-48.6,61.2-72.9
		C122.8,156.7,125.2,153.2,128.9,151.3z"/>
	<path class="st0" d="M193.5,194.9c89.6-0.2,179.2,0,268.8-0.1c5.1,0.2,11.2,1.1,14.5,5.5c3,4.8,3.8,10.9,1.4,16.2
		c-1.9,6.2-9,8-14.8,8.3c-89.4,0-178.8,0-268.3,0c-4.8-0.2-10.2-1.6-13-5.8c-1.8-2.8-2.8-6-3.2-9.2c0.7-4.5,2.2-9.4,6.2-12.1
		C187.6,196.1,190.6,195.3,193.5,194.9z"/>
	<path class="st0" d="M51.9,330.6c8.1-1.6,17-0.7,23.9,4c6.8,4.5,11.8,12,12.6,20.2c0.9,7.9-0.1,16.6-5.2,23
		c-9.3,13.8-31.5,16.2-43.5,4.7c-6.4-5.4-9.9-13.6-10.7-21.8C29,347.3,38.5,333.7,51.9,330.6z"/>
	<path class="st0" d="M163.5,344.9c98.9-0.2,197.9,0,296.9-0.1c4.8-0.2,9.9,0.5,14,3.1c7,5.8,7,18.1,0,23.9c-3.2,2-7.1,2.9-10.9,3
		c-99.4,0-198.8,0-298.2,0c-4.8-0.2-10.2-1.6-13-5.8c-2.8-4.4-4.2-10.1-1.7-15C152.1,348.3,157.9,345.4,163.5,344.9z"/>
</g>
</svg>
