<?xml version="1.0" encoding="UTF-8" ?>
<!DOCTYPE svg PUBLIC "-//W3C//DTD SVG 1.1//EN" "http://www.w3.org/Graphics/SVG/1.1/DTD/svg11.dtd">
<svg width="574pt" height="482pt" viewBox="0 0 574 482" version="1.1" xmlns="http://www.w3.org/2000/svg">
<g id="#ffffffff">
<path fill="#ffffff" opacity="1.00" d=" M 0.00 0.00 L 574.00 0.00 L 574.00 482.00 L 0.00 482.00 L 0.00 0.00 M 170.91 35.85 C 167.23 38.12 164.67 41.73 161.86 44.93 C 145.68 64.09 129.48 83.23 113.35 102.44 C 109.44 107.21 105.20 111.73 101.57 116.74 C 91.01 105.87 79.74 95.72 69.04 85.00 C 65.49 81.41 60.58 78.33 55.32 79.36 C 48.95 80.83 43.47 86.39 42.74 92.99 C 42.32 97.59 44.88 101.81 47.98 104.98 C 62.48 119.49 76.99 133.98 91.48 148.49 C 93.97 151.05 97.26 153.16 100.97 153.01 C 104.38 152.98 108.27 153.62 111.09 151.22 C 113.54 148.93 115.60 146.27 117.75 143.70 C 141.08 115.71 164.40 87.71 187.74 59.72 C 189.73 57.10 191.80 54.31 192.25 50.95 C 194.39 40.07 180.49 30.13 170.91 35.85 M 236.10 79.11 C 230.53 79.60 224.72 82.58 223.09 88.30 C 220.61 93.17 222.05 98.80 224.85 103.20 C 227.73 107.38 233.13 108.77 237.94 109.00 C 327.31 109.00 416.69 109.01 506.06 108.99 C 509.85 108.80 513.74 107.95 517.00 105.94 C 524.03 100.18 524.02 87.72 516.93 82.00 C 510.34 77.95 502.34 79.17 494.99 79.00 C 408.69 79.07 322.39 78.86 236.10 79.11 M 171.62 185.49 C 167.93 187.34 165.46 190.83 162.78 193.84 C 142.39 218.16 121.64 242.18 101.54 266.73 C 91.18 255.99 80.04 246.03 69.51 235.46 C 65.86 231.68 60.83 228.28 55.31 229.36 C 48.95 230.84 43.47 236.38 42.74 242.98 C 42.29 247.85 45.16 252.22 48.48 255.50 C 63.16 270.10 77.73 284.82 92.44 299.39 C 96.31 303.60 102.36 303.28 107.57 302.89 C 111.16 302.21 113.20 298.97 115.47 296.46 C 139.54 267.52 163.66 238.62 187.75 209.70 C 189.74 207.09 191.80 204.31 192.25 200.96 C 194.33 190.38 181.19 180.56 171.62 185.49 M 236.19 229.10 C 233.26 229.47 230.33 230.30 227.80 231.85 C 223.86 234.58 222.32 239.49 221.63 244.00 C 222.08 247.22 223.07 250.45 224.85 253.20 C 227.70 257.36 233.07 258.75 237.85 259.00 C 327.27 259.00 416.69 259.01 506.11 258.99 C 511.85 258.71 518.95 256.88 520.87 250.67 C 523.27 245.43 522.41 239.29 519.44 234.49 C 516.14 230.09 510.13 229.16 504.98 228.98 C 415.39 229.09 325.78 228.86 236.19 229.10 M 94.56 364.81 C 81.18 367.91 71.74 381.44 71.70 394.90 C 72.50 403.12 76.05 411.27 82.43 416.67 C 94.44 428.21 116.59 425.78 125.93 412.02 C 131.01 405.58 132.05 396.93 131.10 389.02 C 130.27 380.84 125.32 373.30 118.50 368.81 C 111.58 364.08 102.63 363.23 94.56 364.81 M 206.16 379.10 C 200.62 379.59 194.78 382.51 193.13 388.20 C 190.61 393.09 192.02 398.77 194.85 403.19 C 197.71 407.37 203.08 408.76 207.87 409.00 C 307.28 409.00 406.69 409.01 506.10 408.99 C 509.88 408.81 513.76 407.94 517.01 405.94 C 524.00 400.19 524.01 387.83 517.03 382.08 C 512.88 379.51 507.82 378.83 503.02 378.98 C 404.07 379.09 305.10 378.85 206.16 379.10 Z" />
</g>
<g id="#2a2e3dff">
<path fill="#2a2e3d" opacity="1.00" d=" M 170.91 35.85 C 180.49 30.13 194.39 40.07 192.25 50.95 C 191.80 54.31 189.73 57.10 187.74 59.72 C 164.40 87.71 141.08 115.71 117.75 143.70 C 115.60 146.27 113.54 148.93 111.09 151.22 C 108.27 153.62 104.38 152.98 100.97 153.01 C 97.26 153.16 93.97 151.05 91.48 148.49 C 76.99 133.98 62.48 119.49 47.98 104.98 C 44.88 101.81 42.32 97.59 42.74 92.99 C 43.47 86.39 48.95 80.83 55.32 79.36 C 60.58 78.33 65.49 81.41 69.04 85.00 C 79.74 95.72 91.01 105.87 101.57 116.74 C 105.20 111.73 109.44 107.21 113.35 102.44 C 129.48 83.23 145.68 64.09 161.86 44.93 C 164.67 41.73 167.23 38.12 170.91 35.85 Z" />
<path fill="#2a2e3d" opacity="1.00" d=" M 236.10 79.11 C 322.39 78.86 408.69 79.07 494.99 79.00 C 502.34 79.17 510.34 77.95 516.93 82.00 C 524.02 87.72 524.03 100.18 517.00 105.94 C 513.74 107.95 509.85 108.80 506.06 108.99 C 416.69 109.01 327.31 109.00 237.94 109.00 C 233.13 108.77 227.73 107.38 224.85 103.20 C 222.05 98.80 220.61 93.17 223.09 88.30 C 224.72 82.58 230.53 79.60 236.10 79.11 Z" />
<path fill="#2a2e3d" opacity="1.00" d=" M 171.62 185.49 C 181.19 180.56 194.33 190.38 192.25 200.96 C 191.80 204.31 189.74 207.09 187.75 209.70 C 163.66 238.62 139.54 267.52 115.47 296.46 C 113.20 298.97 111.16 302.21 107.57 302.89 C 102.36 303.28 96.31 303.60 92.44 299.39 C 77.73 284.82 63.16 270.10 48.48 255.50 C 45.16 252.22 42.29 247.85 42.74 242.98 C 43.47 236.38 48.95 230.84 55.31 229.36 C 60.83 228.28 65.86 231.68 69.51 235.46 C 80.04 246.03 91.18 255.99 101.54 266.73 C 121.64 242.18 142.39 218.16 162.78 193.84 C 165.46 190.83 167.93 187.34 171.62 185.49 Z" />
<path fill="#2a2e3d" opacity="1.00" d=" M 236.19 229.10 C 325.78 228.86 415.39 229.09 504.98 228.98 C 510.13 229.16 516.14 230.09 519.44 234.49 C 522.41 239.29 523.27 245.43 520.87 250.67 C 518.95 256.88 511.85 258.71 506.11 258.99 C 416.69 259.01 327.27 259.00 237.85 259.00 C 233.07 258.75 227.70 257.36 224.85 253.20 C 223.07 250.45 222.08 247.22 221.63 244.00 C 222.32 239.49 223.86 234.58 227.80 231.85 C 230.33 230.30 233.26 229.47 236.19 229.10 Z" />
<path fill="#2a2e3d" opacity="1.00" d=" M 94.56 364.81 C 102.63 363.23 111.58 364.08 118.50 368.81 C 125.32 373.30 130.27 380.84 131.10 389.02 C 132.05 396.93 131.01 405.58 125.93 412.02 C 116.59 425.78 94.44 428.21 82.43 416.67 C 76.05 411.27 72.50 403.12 71.70 394.90 C 71.74 381.44 81.18 367.91 94.56 364.81 Z" />
<path fill="#2a2e3d" opacity="1.00" d=" M 206.16 379.10 C 305.10 378.85 404.07 379.09 503.02 378.98 C 507.82 378.83 512.88 379.51 517.03 382.08 C 524.01 387.83 524.00 400.19 517.01 405.94 C 513.76 407.94 509.88 408.81 506.10 408.99 C 406.69 409.01 307.28 409.00 207.87 409.00 C 203.08 408.76 197.71 407.37 194.85 403.19 C 192.02 398.77 190.61 393.09 193.13 388.20 C 194.78 382.51 200.62 379.59 206.16 379.10 Z" />
</g>
</svg>
