<?xml version="1.0" encoding="utf-8"?>
<!-- Generator: Adobe Illustrator 24.0.1, SVG Export Plug-In . SVG Version: 6.00 Build 0)  -->
<svg version="1.1" id="Layer_1" xmlns="http://www.w3.org/2000/svg" xmlns:xlink="http://www.w3.org/1999/xlink" x="0px" y="0px"
	 viewBox="0 0 692 521" style="enable-background:new 0 0 692 521;" xml:space="preserve">
<style type="text/css">
	.st0{fill:#f47d20;}
	.st1{fill:#544F4C;}
</style>
<path class="st0" d="M648.8,0h7.5c8.6,0.9,16.9,4.5,23.1,10.5C687.5,18,692.1,29,691.8,40c-0.1,12.3-6.5,24.3-16.6,31.3
	c-9.3,6.7-21.5,8.8-32.5,6c-9.2-2.2-17.1-8.2-22.6-15.8c-8.5,4.7-17,9.4-25.5,14.1c1.2,5.8,1.5,11.9-0.6,17.6
	c-3.3,10.1-12.5,18-23,19.5c-9.4,1.6-19.2-1.8-25.9-8.5c-7,4.1-14,8.4-20.8,12.7c1.7,8.3-0.9,17.5-7.5,23c-8,7.2-21,7.2-29.5,0.7
	c-7.3,4.9-14.6,9.7-21.8,14.9c0.9,6.7-1.8,13.9-7.6,17.5c-5.3,3.5-12.1,3.2-17.7,0.6c-27.7,20.6-54.6,42.6-79.1,67
	c11.5,28.2,21.4,57.1,28.8,86.6c3.9,15.8,7.4,31.8,8.5,48c1,12.1-3.3,24.8-12,33.3c-6.3,6.2-16.3,8.2-24.3,4.6
	c-3-1.3-3.1-5.7-0.6-7.5c3.1-2.2,6.6-4.1,8.6-7.5c4.2-6.6,3.2-14.7,2.9-22.1c-2.2-22.3-7.4-44.1-13.1-65.7
	c-4.7-17.4-10.1-34.6-16-51.7c-10,10.9-19.7,22-29,33.5c5.4,0.1,10.8-0.2,16.2,0.1c4.3,0.3,7.4,4.8,6.7,8.9c-0.3,3.8-3.9,7-7.7,6.8
	c-9.2,0-18.5,0-27.7,0c-7,9.1-13.8,18.4-20.2,28c15.9,0.1,31.9,0,47.9,0c4.4-0.2,8.2,3.9,7.8,8.2c0,4.1-3.7,7.8-7.8,7.5
	c-19.3,0-38.6,0-57.9,0c-5.9,9.5-11.1,19.5-16,29.5c24.3,0,48.6,0,72.9,0c1.9,0,3.9,0.2,5.5,1.4c4.4,2.9,4.3,10.3-0.1,13.1
	c-1.6,1.2-3.5,1.3-5.4,1.3c-26.5,0-53.1,0-79.6,0c-7.7,20.3-12.9,42.3-9.7,64c2.4,17.4,11.2,34.5,25.6,44.9c2.5,2,6.6,3.3,6.5,7.2
	c-0.2,4.5-4.5,7.4-8.6,8.1h-4.7c-7.6-1.6-14.4-5.5-21.1-9.5c-15.3-9.4-27.6-24.1-32.2-41.6c-6.2-23.1-1.4-47.4,6.5-69.5
	c11.1-30.2,28.3-57.8,47.4-83.5c22.5-29.8,48.1-57.2,76.4-81.5c-12.5-33.2-27.1-65.8-44.1-96.9c-16.9-30.7-36.2-60.3-59.7-86.3
	c-2.7-3.1-6.3-5.9-7.1-10.2c1.8-3.4,5.8-0.2,7.8,1.5c51.6,50.2,91,112,120.3,177.4c25.1-21.3,52.1-40.1,79.6-58.1
	c-1.4-6.7,0.9-14.1,6.6-18c6.1-4.6,14.9-3.9,20.8,0.7c7.1-4.3,14.1-8.7,21.2-12.9c-3.2-7.1-3.2-15.8,1.1-22.5
	c5.1-8.7,16.3-13,25.9-10.1c5.4,1.4,9.8,5,13.1,9.3c6.6-3.8,13.2-7.4,19.8-11.1c-2.4-4.8-4.1-10.1-3.9-15.5
	c0.2-10.2,6.1-20,15.1-24.8c8.3-4.7,19-4.9,27.5-0.5c5.7,2.8,10.1,7.6,13.1,13.1c8.3-4.4,16.7-8.7,25.2-12.8
	c-6.2-11.9-6.2-26.9,0.7-38.5C624.8,8.6,636.3,1.1,648.8,0z"/>
<path class="st1" d="M186.1,138.2c11.9,0.1,23.9-0.1,35.9,0.1c-10.1,46.7-20.2,93.4-30.4,140.1c-2.3,11.6-5.7,23.2-5.3,35.1
	c-12.8,0-25.6,0-38.4,0c3.4-8.6,6.5-17.4,8.4-26.5c7.7-35.6,15.4-71.1,23-106.7C182.1,166.3,186.1,152.5,186.1,138.2z"/>
<path class="st1" d="M253.2,142.3c9.1-1.8,18.8,5.4,19.3,14.7c1.2,8.3-5.2,16.8-13.4,18.1c-8.3,1.7-17.2-3.7-19.1-12
	C237.1,154,243.7,143.5,253.2,142.3z"/>
<path class="st1" d="M24.2,207.2c5.8-6.1,14.6-8.3,22.9-8.4c26.3,0,52.6,0,78.9,0c6.5,0.2,14.1,1.4,18.2,7c4,5.6,3.3,13.1,2.1,19.5
	c-2.9,13.2-6,26.5-8.9,39.7c-33.4,0-66.8,0-100.3,0c-1.8,8.4-4,16.8-5.7,25.2c-0.2,2.3-1.1,4.9,0.5,6.9c2,1.6,4.6,1.5,7,1.6
	c22.7,0,45.4,0,68.1,0c7.8,0,15.6-0.5,23.2-2.1c-2.3,5.6-4.6,11.2-6.9,16.8c-33.8,0-67.5,0-101.3,0c-6.1-0.1-12.7-1-17.5-5.1
	c-2.7-2.1-3.7-5.6-4.4-8.8v-8c0.5-4.2,1.5-8.4,2.5-12.5c3.9-16.7,7.7-33.4,11.6-50.1C16,221.2,18.6,213.2,24.2,207.2 M47.4,220.5
	c-2.1,9.9-4.5,19.7-6.7,29.5c22.8,0,45.6,0,68.4,0c2.2-9.4,4.3-18.8,6.6-28.2c0.6-2.2,0.3-4.4,0-6.6c-2.4-1.2-5.1-1.9-7.8-1.8
	c-17.3,0.1-34.6-0.1-51.9,0.1C52,213.5,48.2,216.4,47.4,220.5z"/>
<path class="st1" d="M233,198.8c11.3,0,22.6,0,34,0c-6.9,30.7-13.9,61.5-20.8,92.2c-1.7,7.4-3.3,14.9-3.2,22.6c-12,0-24,0-36,0
	c3.1-7.7,6.1-15.4,7.9-23.5c5-21.7,10-43.3,15-65C231.6,216.4,233.5,207.6,233,198.8z"/>
<path class="st1" d="M424.2,225.9c1.9-8.9,3.8-18,3.3-27.2c11.3,0,22.7,0,34,0c-6.2,27.4-12.4,54.8-18.6,82.3
	c-2.4,10.7-5.3,21.4-5.5,32.5c-12,0-24,0-36,0c6.9-15.4,9.8-32.2,13.7-48.5C418.2,252,421.2,239,424.2,225.9z"/>
<path class="st1" d="M491.5,216.4c1.3-5.8,2.2-11.7,2-17.7c10.1,0,20.1,0,30.2,0c-0.4,3.6-0.7,7.2-1.2,10.7
	c3.3-6.1,9.5-10.5,16.5-10.6c11-0.2,22.1,0,33.2-0.1c2.4,4.2,4.7,8.4,7.1,12.7c-2.6,2.5-4.4,5.9-7.4,7.9
	c-14.2-1.6-28.6-1.9-42.9-1.4c-4.6,0.2-7.6,4.3-8.5,8.5c-5.2,22.5-10,45-15.2,67.5c-1.4,6.4-2.3,13-2.1,19.6c-12,0-23.9,0.1-35.9,0
	c3.8-8.7,6-17.9,8.3-27C480.9,263.1,486.1,239.8,491.5,216.4z"/>
<path class="st1" d="M329.4,462.3c19.3,0,38.7,0,58,0c-0.8,3.2-1.6,6.3-2.5,9.5c-6,0-11.9,0-17.9,0c-4,15.9-8,31.8-11.9,47.8
	c-7.3,0-14.7,0-22,0c4-15.9,7.8-31.8,11.9-47.7c-6,0-12,0-17.9,0C327.9,468.6,328.6,465.4,329.4,462.3z"/>
<path class="st1" d="M451.9,466.9c2.5-2.8,6.2-4.7,10.1-4.6c14.7,0,29.4,0,44.1,0c-0.8,3.2-1.7,6.3-2.5,9.5
	c-10.2,0.1-20.3-0.2-30.5,0.1c-4.2-0.4-4.4,4.4-5.1,7.2c8.4,1.8,17.3-0.5,25.7,1.4c3,0.7,5.6,3.2,5.6,6.4c-0.1,4.4-1.8,8.6-2.7,13
	c-1.4,5.6-2.3,11.8-6.9,15.8c-3.6,3.5-8.9,3.7-13.6,3.8c-13.1,0-26.3,0-39.5,0c0.7-3.3,1.5-6.5,2.4-9.7c10.3-0.1,20.7,0.1,31-0.1
	c4.1,0,3.8-5.1,4.8-7.9c-6.7-1.7-13.8-0.4-20.7-0.8c-3.6,0.1-8.6-0.2-10.1-4.1c-1.3-4.4,0.6-9,1.5-13.3
	C447.1,477.9,447.7,471.4,451.9,466.9z"/>
<path class="st1" d="M515.4,473.5c1.8-5.9,7.1-11.3,13.6-11.3c14.8,0,29.5,0,44.3,0c-0.8,3.2-1.6,6.3-2.4,9.5
	c-10.3,0.1-20.5-0.2-30.8,0.1c-4.1-0.2-4.1,4.6-4.8,7.4c7.9,1.2,15.9-0.2,23.8,0.8c3.3,0.4,6.9,2.3,7.3,6c0.4,4.1-1.3,8.1-2.1,12.1
	c-1.7,6.1-2.4,13.2-7.5,17.6c-3.4,3.2-8.4,3.6-12.9,3.7c-13.4,0-26.7,0-40.1,0c0.8-3.2,1.6-6.5,2.3-9.7c10.5-0.2,21,0.2,31.6-0.2
	c3.7-0.4,3.3-5.1,4.2-7.8c-4.8-1.6-10-0.5-15-0.8c-4.7-0.3-10,1-14.1-1.8c-3-2.5-2.1-6.8-1.4-10.1
	C512.7,483.9,513.9,478.7,515.4,473.5z"/>
<path class="st1" d="M380.5,481.4c3-3.6,8-4.2,12.4-4.1c11,0.1,22-0.1,33,0.1c3.8-0.1,8.1,2.3,8.1,6.5c-0.3,6.6-2.8,12.8-4.1,19.1
	c-11.8,0-23.5,0-35.2,0c-0.3,2.4-2.2,5.3-0.1,7.4c1.4,0.6,3,0.6,4.5,0.6c9.3,0,18.6,0,28,0c-0.7,2.8-1.4,5.7-2.1,8.5
	c-14.3,0-28.5,0.1-42.8,0c-3.6-0.1-8.6-0.4-10-4.5c-1.2-5.8,1.5-11.4,2.6-17C376.3,492.4,376.7,486.1,380.5,481.4 M400.3,486.1
	c-2.8,1.7-2.4,5.6-3.4,8.4c4.8,0,9.6,0,14.4,0c0.3-2.8,2.5-6,0.8-8.5C408.1,485.7,404.1,485.4,400.3,486.1z"/>
</svg>
