<?xml version="1.0" encoding="utf-8"?>
<!-- Generator: Adobe Illustrator 26.0.1, SVG Export Plug-In . SVG Version: 6.00 Build 0)  -->
<svg version="1.1" id="Layer_1" xmlns="http://www.w3.org/2000/svg" xmlns:xlink="http://www.w3.org/1999/xlink" x="0px" y="0px"
	 viewBox="0 0 593.4 473.3" style="enable-background:new 0 0 593.4 473.3;" xml:space="preserve">
<style type="text/css">
	.st0{fill:#2A2E3D;}
</style>
<g id="_x23_2a2e3dff">
	<path class="st0" d="M115,3.8c20.8-4.7,42.5-5.1,63.5-1.2c3.5,0.7,7.3,1.2,10.2,3.5c3.3,2.5,5,6.5,6,10.4c1.9,7.9,4,15.8,5.9,23.8
		c9,4,17.5,9,25.3,15c8.9-2.5,17.7-5.3,26.6-7.8c4.1-1.3,8.9-0.1,11.8,3.1C275,62,284.2,74.9,290.7,89.2c0.3-0.1,0.8-0.2,1.1-0.3
		c3.3,7.7,6.9,15.4,8.7,23.6c1.4,6.8-3.8,12.3-8.8,16c-1.2,0.5-2.3,1.2-3.3,2.1c-4.3,4-8.6,7.9-13,11.8c1.4,4.6,1.1,9.4,0.8,14.1
		c-0.4,5.3,1.1,10.6,0.1,15.9c4.1,4.2,8.5,8.1,12.7,12.2c0.7,0.9,1.8,1.3,2.9,1.7c4.6,4.1,9.9,9.3,8.5,16.1
		c-1.9,8.2-5.4,15.9-8.8,23.6c-0.3-0.1-0.8-0.2-1.1-0.3c-2.4,5.8-6,10.9-8.5,16.6c-5.2,8.2-11.2,16-18,23c-3,3.3-7.6,4.8-12,4
		c-8.6-2.1-17-5.6-25.6-7.4c-8.3,5.9-16.9,11.4-26.1,15.7c-2.1,7.9-4.2,15.8-6.4,23.7c-1.4,5.2-5.5,10-11,11.1
		c-22.4,5-45.8,4.8-68.2-0.2c-4.6-1-8-5.1-9-9.6c-2-8.3-3.9-16.6-5.8-24.9c-9.8-4.2-18.8-9.8-27.4-16c-7.2,2.4-14.4,4.5-21.6,6.8
		c-3.1,1-6.4,1.5-9.6,0.6c-4.3-1-7-4.8-9.9-7.9c-6.2-7.3-12.4-14.8-16.4-23.5c-6.2-10.5-11.2-21.6-14.7-33.3
		c-1.5-4.7,0-9.9,3.4-13.3c6.3-6.4,13-12.3,19.4-18.6c-1.3-9.9-1.2-19.9,0-29.8c-5.8-5.6-11.7-11.1-17.4-16.7
		c-4.3-3.6-7.2-9.5-5.3-15.2c6.7-22.4,18.9-43.1,34.9-60.2c3-3.1,7.7-4.4,11.8-3.1c8.9,2.5,17.8,5.3,26.7,7.8
		c7.8-6,16.3-10.9,25.3-15c2.2-8.9,4.4-17.8,6.7-26.7C107,9.1,110.3,4.9,115,3.8 M132.1,30.9c-2.3,10.3-4.4,20.6-6.6,30.9
		c-7.1,3.4-14.3,6.8-21.6,10c-8.8,3.9-16.2,10.1-23.4,16.4c-10-3.1-20-6.2-30-9.4c-7.4,9.4-13.4,19.9-17.8,31
		c7.6,7.1,15,14.4,22.6,21.5c-0.9,5.7-1.1,11.5-2.6,17.2c-1.2,5.3-1.7,10.9-0.5,16.3c1.5,6.3,1.7,12.8,1.9,19.3
		c-7.2,7-14.2,14.2-21.4,21.3c4.3,11.1,10.4,21.6,17.8,31c9.4-2.8,18.8-5.7,28.2-8.4c5.6,4,11.5,7.8,17,12.1
		c0.1,0.3,0.3,0.9,0.4,1.2c9.2,6.2,19.7,10,29.6,15c2.1,9.7,4.3,19.3,6.5,28.9c11.8,1.3,23.8,1.2,35.6,0c2.2-9.6,4.4-19.3,6.5-28.9
		c9.7-4.8,19.8-8.8,28.8-14.9c0.1-1.4,1.5-1.9,2.5-2.7c5.3-3.4,10.5-7.1,15.7-10.7c9.4,2.8,18.8,5.6,28.2,8.4
		c7.3-9.4,13.4-19.8,17.8-31c-7.2-7-14.2-14.3-21.4-21.3c-0.3-7.9,1.9-15.7,0.8-23.5c-0.5-4.7,1-9.3,0.1-14
		c-0.8-5.1-1.3-10.2-2-15.3c7.6-7.1,14.9-14.4,22.5-21.5c-4.4-11.1-10.4-21.6-17.8-31c-10,3.1-20,6.2-30,9.4
		c-7.4-6.3-14.9-12.7-24-16.6c-6.9-2.8-13.4-6.3-20.1-9.6c-2.5-10.3-5-20.6-7.5-31C155.9,29.7,144,29.7,132.1,30.9z"/>
	<path class="st0" d="M142.6,105.6c11.1-1.7,22.5,1.1,32.4,6.1c12.9,6.7,22.4,19.4,25.2,33.6c2.9,14.6,0.7,30.6-8.1,42.8
		c-9.8,14-27,21.5-43.8,21.7c-11.2-0.5-22.5-4.2-31.4-11.1c-13.1-9.8-20.4-26.1-20.4-42.3c0.6-13,5.6-25.8,14.6-35.2
		C119.5,112.7,130.8,107.2,142.6,105.6 M143.6,135.6c-9.4,2.1-16.9,11-17.1,20.7c-0.7,9.7,5.7,19.2,14.9,22.3
		c6.8,2.5,14.5,0.9,20.6-2.7c12.7-8,12.5-29.9-0.6-37.4C156,135.7,149.6,134.2,143.6,135.6z"/>
	<path class="st0" d="M383.9,174.9c3.9-1.5,8.1-3.1,12.4-1.9c4.2,1.1,7.1,4.5,10,7.5c4.8,5.1,9.7,10.2,14.5,15.3
		c9.8-1.1,19.6-1.1,29.3,0.1c6.4-6.5,12.9-12.9,19.3-19.4c3.5-3.4,8.8-4.9,13.4-3.3c22.3,6.8,43,18.8,59.8,34.9
		c4.1,3.6,5.2,9.8,3.2,14.8c-2.9,8.1-5.3,16.4-7.9,24.6c5.9,7.9,11.1,16.3,15,25.3c9,2.3,18.1,4.4,27,6.8c4.6,1.1,8.6,4.6,9.5,9.3
		c4.4,20.8,5.1,42.5,1,63.4c-0.8,4.1-1.7,8.6-4.9,11.5c-3.1,3-7.3,4-11.3,5c-7.1,1.8-14.2,3.6-21.4,5.3c-3.9,9.1-9.1,17.5-15,25.3
		c2.7,8,5.4,16.1,8.1,24.2c1.7,4.9,0.5,10.7-3.4,14.2c-16.8,16.1-37.6,28.2-59.9,34.9c-4.7,1.5-9.9,0.1-13.4-3.3
		c-6.8-6.6-13-13.8-19.8-20.4c-9.4,2.6-19.3,2-28.9,1c-5.9,6.3-11.9,12.7-18,18.8c-3.4,3.5-8.5,5.3-13.2,4
		c-22.3-6.8-43.1-18.6-60.1-34.6c-3.4-2.9-5-7.6-3.7-11.9c2.2-8.7,4.7-17.3,7-26c-6.2-8.2-11.6-17-15.9-26.3
		c-8.7-2.3-17.4-4.7-26.2-7c-4.9-1.4-8.7-5.7-9.7-10.7c-5-22.1-4.5-45.3,0.2-67.4c0.9-4.4,4.5-7.9,8.8-9.1c9-2,18-4.1,27-6.2
		c4.1-9.7,9.5-18.7,15.8-27.1c-2.1-9.1-4.6-18-7-27c-1.4-4.6,0.7-9.5,4.3-12.4C345.5,192.8,364,181.7,383.9,174.9 M357.1,223.1
		c3.4,9.6,6.1,19.5,9.4,29.2c-5.6,7.5-11.9,14.7-16.6,22.8c-4.5,7.6-7.2,16-10.6,24.1c-10,2.1-19.9,4.4-29.9,6.4
		c-1.3,11.9-1.3,23.9,0,35.8c10,2.1,19.9,4.4,29.9,6.5c1.5,3.7,3,7.5,4.5,11.2c5.4,13.1,13.9,24.6,22.7,35.6
		c-3.1,9.4-6.2,18.8-9.4,28.1c9.4,7.5,19.9,13.5,31,17.9c7.1-7.2,14.3-14.3,21.4-21.5c6.3,0.2,12.6,0.7,18.9,1.4
		c11.4,1.3,22.6-1.4,33.9-2.4c7,7.6,14.3,14.9,21.4,22.5c11.2-4.3,21.5-10.4,31-17.7c-3.1-10-6.2-20.1-9.4-30.1
		c2.8-3.4,5.6-6.7,8.4-10.1c7.8-10.3,13-22.2,17.9-34c10.3-2.5,20.5-5,30.8-7.4c1.3-11.9,1.3-23.8,0-35.7
		c-10.3-2.1-20.5-4.4-30.9-6.5c-4.7-12.5-10.1-24.9-18.3-35.5c-2.6-3.2-5.3-6.3-7.9-9.5c3.3-10.3,5.9-20.8,9.4-31
		c-9.4-7.4-19.9-13.5-31-17.8c-7,7.6-14.4,14.8-21.4,22.5c-11.2-1.1-22.5-3.7-33.8-2.4c-6.3,0.7-12.6,1.1-18.9,1.4
		c-7.1-7.2-14.3-14.3-21.4-21.5C377,209.6,366.6,215.7,357.1,223.1z"/>
	<path class="st0" d="M429.5,271.5c12.6-1.7,25.6,1.7,36.3,8.5c11.3,7.1,18.5,19.5,21.2,32.3c3.2,13.7,0.1,28.6-7.3,40.5
		c-6.9,11.5-19.3,18.8-32.2,21.6c-14.1,3.5-29.4,0.1-41.5-7.6c-11.3-7.1-18.5-19.5-21.2-32.3c-3.2-14,0-29.1,7.8-41.1
		C400.5,280.8,415,273.4,429.5,271.5 M429.9,302c-7.5,1.8-13.5,7.9-15.3,15.4c-2.2,6.5-0.5,13.9,3.4,19.5c3.9,5.7,11,8.5,17.7,9
		c6-0.3,12.1-2.4,16.3-6.7c6-6.5,7.9-16.4,4.3-24.5C452.6,304.5,440.1,298.8,429.9,302z"/>
</g>
</svg>
