<?xml version="1.0" encoding="utf-8"?>
<!-- Generator: Adobe Illustrator 26.0.1, SVG Export Plug-In . SVG Version: 6.00 Build 0)  -->
<svg version="1.1" id="Layer_1" xmlns="http://www.w3.org/2000/svg" xmlns:xlink="http://www.w3.org/1999/xlink" x="0px" y="0px"
	 viewBox="0 0 479.7 479.7" style="enable-background:new 0 0 479.7 479.7;" xml:space="preserve">
<style type="text/css">
	.st0{fill:#2A2E3D;}
</style>
<g id="_x23_2a2e3dff">
	<path class="st0" d="M93,51.6c16.8-3.8,34.4-4.1,51.4-1c2.8,0.6,5.9,1,8.2,2.8c2.7,2,4.1,5.2,4.8,8.4c1.6,6.4,3.2,12.8,4.8,19.3
		c7.3,3.3,14.2,7.3,20.5,12.1c7.2-2.1,14.3-4.3,21.5-6.3c3.3-1.1,7.2-0.1,9.6,2.5c8.7,9.2,16.1,19.7,21.4,31.2
		c0.2-0.1,0.7-0.2,0.9-0.2c2.7,6.2,5.6,12.4,7.1,19.1c1.1,5.5-3.1,9.9-7.1,13c-1,0.4-1.9,1-2.7,1.7c-3.5,3.2-7,6.4-10.5,9.5
		c1.1,3.7,0.9,7.6,0.7,11.4c-0.4,4.3,0.9,8.6,0.1,12.9c3.3,3.4,6.9,6.5,10.3,9.9c0.6,0.7,1.4,1.1,2.3,1.4c3.7,3.3,8,7.5,6.9,13
		c-1.5,6.7-4.4,12.9-7.1,19.1c-0.2-0.1-0.7-0.2-0.9-0.3c-1.9,4.7-4.9,8.8-6.9,13.4c-4.2,6.7-9.1,12.9-14.5,18.6
		c-2.4,2.7-6.2,3.9-9.7,3.2c-7-1.7-13.7-4.5-20.7-6c-6.7,4.8-13.7,9.2-21.1,12.7c-1.7,6.4-3.4,12.8-5.2,19.2c-1.1,4.2-4.4,8.1-8.9,9
		c-18.1,4-37.1,3.9-55.2-0.2c-3.8-0.8-6.5-4.2-7.3-7.8c-1.6-6.7-3.1-13.4-4.7-20.2c-7.9-3.4-15.2-7.9-22.2-12.9
		c-5.8,2-11.7,3.6-17.5,5.5c-2.5,0.8-5.2,1.3-7.8,0.5c-3.5-0.8-5.7-3.9-8-6.4c-5-5.9-10-12-13.3-19c-5-8.5-9.1-17.5-11.9-27
		c-1.2-3.8,0-8,2.8-10.7c5.1-5.2,10.5-10,15.7-15.1c-1.1-8-0.9-16.1,0-24.1c-4.7-4.5-9.4-8.9-14.1-13.5c-3.5-2.9-5.9-7.7-4.3-12.3
		c5.4-18.2,15.3-34.9,28.3-48.7c2.4-2.5,6.2-3.5,9.6-2.5c7.2,2,14.4,4.3,21.6,6.3c6.3-4.9,13.2-8.9,20.4-12.1
		c1.8-7.2,3.5-14.4,5.4-21.6C86.6,55.8,89.3,52.5,93,51.6 M106.9,73.5c-1.8,8.3-3.6,16.7-5.3,25c-5.8,2.8-11.6,5.5-17.5,8.1
		c-7.1,3.2-13.1,8.2-18.9,13.2c-8.1-2.5-16.2-5-24.3-7.6c-6,7.6-10.9,16.1-14.4,25.1c6.1,5.7,12.1,11.6,18.2,17.4
		c-0.8,4.6-0.9,9.3-2.1,13.9c-1,4.3-1.4,8.8-0.4,13.2c1.2,5.1,1.4,10.4,1.5,15.6c-5.8,5.7-11.5,11.5-17.3,17.2
		c3.5,9,8.4,17.4,14.4,25.1c7.6-2.3,15.2-4.6,22.8-6.8c4.6,3.3,9.3,6.3,13.7,9.8c0.1,0.2,0.2,0.7,0.3,1c7.4,5,15.9,8.1,23.9,12.1
		c1.7,7.8,3.5,15.6,5.3,23.4c9.6,1,19.2,1,28.8,0c1.7-7.8,3.6-15.6,5.3-23.4c7.8-3.9,16-7.1,23.3-12.1c0.1-1.2,1.2-1.6,2-2.2
		c4.3-2.8,8.5-5.8,12.7-8.7c7.6,2.3,15.2,4.6,22.8,6.8c5.9-7.6,10.9-16,14.4-25.1c-5.8-5.7-11.4-11.6-17.3-17.2
		c-0.2-6.4,1.5-12.7,0.6-19c-0.4-3.8,0.8-7.5,0.1-11.3c-0.6-4.1-1-8.2-1.6-12.3c6.1-5.8,12.1-11.7,18.2-17.4
		c-3.5-9-8.4-17.5-14.4-25.1c-8.1,2.5-16.2,5-24.3,7.6c-6-5.1-12.1-10.3-19.4-13.5c-5.6-2.3-10.9-5.1-16.2-7.8c-2-8.3-4-16.7-6.1-25
		C126.1,72.6,116.5,72.5,106.9,73.5z"/>
	<path class="st0" d="M115.4,134c9-1.3,18.2,0.9,26.2,5c10.4,5.4,18.1,15.7,20.4,27.2c2.3,11.8,0.6,24.8-6.5,34.6
		c-7.9,11.3-21.8,17.4-35.4,17.6c-9.1-0.4-18.2-3.4-25.4-9c-10.6-7.9-16.5-21.1-16.5-34.2c0.4-10.5,4.5-20.9,11.8-28.5
		C96.7,139.7,105.8,135.2,115.4,134 M116.2,158.3c-7.6,1.7-13.7,8.9-13.8,16.8c-0.6,7.8,4.6,15.5,12,18c5.5,2,11.7,0.7,16.7-2.1
		c10.3-6.5,10.1-24.2-0.5-30.3C126.3,158.3,121.1,157.1,116.2,158.3z"/>
	<path class="st0" d="M310.7,190c3.2-1.2,6.6-2.5,10-1.5c3.4,0.9,5.8,3.6,8.1,6.1c3.9,4.2,7.9,8.2,11.7,12.4
		c7.9-0.9,15.9-0.9,23.7,0c5.2-5.3,10.4-10.5,15.6-15.7c2.8-2.8,7.1-3.9,10.9-2.7c18,5.5,34.8,15.2,48.4,28.3
		c3.3,2.9,4.2,7.9,2.6,12c-2.3,6.6-4.3,13.2-6.4,19.9c4.8,6.4,9,13.2,12.1,20.5c7.3,1.9,14.6,3.6,21.9,5.5c3.7,0.9,6.9,3.7,7.7,7.5
		c3.6,16.8,4.1,34.4,0.8,51.3c-0.6,3.3-1.4,6.9-4,9.3c-2.5,2.4-5.9,3.3-9.2,4c-5.8,1.4-11.5,2.9-17.3,4.3
		c-3.1,7.3-7.3,14.1-12.1,20.5c2.2,6.5,4.4,13,6.5,19.5c1.4,3.9,0.4,8.7-2.8,11.5c-13.6,13.1-30.4,22.8-48.5,28.3
		c-3.8,1.2-8,0.1-10.8-2.7c-5.5-5.3-10.5-11.2-16-16.5c-7.6,2.1-15.6,1.6-23.4,0.8c-4.8,5.1-9.6,10.3-14.5,15.2
		c-2.7,2.8-6.9,4.3-10.7,3.2c-18.1-5.5-34.9-15.1-48.6-28c-2.7-2.3-4.1-6.2-3-9.6c1.8-7,3.8-14,5.6-21c-5-6.6-9.4-13.7-12.9-21.2
		c-7.1-1.9-14.1-3.8-21.2-5.7c-4-1.1-7.1-4.6-7.9-8.6c-4-17.9-3.7-36.6,0.1-54.6c0.7-3.6,3.6-6.4,7.1-7.3c7.3-1.6,14.5-3.3,21.8-5
		c3.4-7.8,7.7-15.2,12.8-22c-1.7-7.3-3.7-14.6-5.6-21.9c-1.1-3.7,0.6-7.7,3.5-10.1C279.6,204.5,294.5,195.5,310.7,190 M289,229
		c2.8,7.8,4.9,15.8,7.6,23.6c-4.6,6.1-9.6,11.9-13.4,18.5c-3.6,6.1-5.8,12.9-8.6,19.5c-8.1,1.7-16.1,3.6-24.2,5.2
		c-1,9.6-1.1,19.3,0,28.9c8.1,1.7,16.1,3.6,24.2,5.2c1.2,3,2.4,6.1,3.6,9.1c4.4,10.6,11.3,19.9,18.4,28.8c-2.5,7.6-5,15.2-7.6,22.7
		c7.6,6,16.1,10.9,25.1,14.5c5.8-5.8,11.6-11.6,17.3-17.4c5.1,0.2,10.2,0.5,15.3,1.1c9.2,1.1,18.3-1.1,27.4-2
		c5.6,6.2,11.6,12.1,17.3,18.2c9-3.5,17.4-8.5,25.1-14.3c-2.5-8.1-5-16.2-7.6-24.3c2.2-2.8,4.6-5.4,6.8-8.2
		c6.3-8.3,10.5-18,14.5-27.5c8.3-2,16.6-4,24.9-6c1-9.6,1-19.3,0-28.9c-8.3-1.7-16.6-3.6-25-5.2c-3.8-10.1-8.2-20.1-14.8-28.7
		c-2.1-2.6-4.3-5.1-6.4-7.7c2.7-8.3,4.8-16.8,7.6-25.1c-7.6-6-16.1-10.9-25.1-14.4c-5.7,6.1-11.6,12-17.3,18.2
		c-9.1-0.9-18.2-3-27.4-2c-5.1,0.6-10.2,0.9-15.3,1.1c-5.8-5.8-11.6-11.6-17.3-17.4C305,218.1,296.6,223.1,289,229z"/>
	<path class="st0" d="M347.6,268.2c10.2-1.4,20.8,1.4,29.4,6.9c9.2,5.7,15,15.7,17.1,26.2c2.6,11.1,0,23.1-5.9,32.7
		c-5.6,9.3-15.6,15.2-26.1,17.5c-11.4,2.8-23.8,0.1-33.6-6.1c-9.2-5.7-14.9-15.7-17.1-26.1c-2.6-11.3,0-23.5,6.3-33.2
		C324,275.7,335.8,269.7,347.6,268.2 M347.8,292.9c-6,1.5-10.9,6.4-12.4,12.5c-1.8,5.3-0.4,11.2,2.7,15.7c3.2,4.6,8.9,6.9,14.3,7.3
		c4.8-0.3,9.8-2,13.2-5.4c4.8-5.2,6.4-13.2,3.5-19.8C366.2,294.9,356.1,290.3,347.8,292.9z"/>
</g>
</svg>
