<?xml version="1.0" encoding="UTF-8" ?>
<!DOCTYPE svg PUBLIC "-//W3C//DTD SVG 1.1//EN" "http://www.w3.org/Graphics/SVG/1.1/DTD/svg11.dtd">
<svg width="688pt" height="568pt" viewBox="0 0 688 568" version="1.1" xmlns="http://www.w3.org/2000/svg">
<g id="#ffffffff">
<path fill="#ffffff" opacity="1.00" d=" M 0.00 0.00 L 688.00 0.00 L 688.00 568.00 L 0.00 568.00 L 0.00 0.00 M 168.58 48.38 C 163.93 49.46 160.61 53.60 159.58 58.12 C 157.26 67.00 155.08 75.92 152.88 84.84 C 143.93 88.86 135.37 93.78 127.61 99.80 C 118.69 97.26 109.85 94.47 100.92 91.98 C 96.78 90.68 92.10 91.96 89.11 95.06 C 73.11 112.13 60.86 132.80 54.19 155.25 C 52.29 160.91 55.18 166.78 59.52 170.42 C 65.29 176.02 71.21 181.47 76.96 187.08 C 75.81 196.99 75.63 207.02 76.97 216.92 C 70.59 223.20 63.89 229.15 57.61 235.53 C 54.19 238.94 52.72 244.15 54.20 248.80 C 57.65 260.47 62.69 271.64 68.88 282.11 C 72.86 290.86 79.11 298.33 85.26 305.64 C 88.13 308.70 90.85 312.50 95.17 313.53 C 98.34 314.44 101.69 313.94 104.75 312.89 C 111.95 310.57 119.23 308.53 126.39 306.11 C 135.00 312.30 144.08 317.85 153.83 322.06 C 155.72 330.38 157.62 338.70 159.58 347.00 C 160.61 351.49 163.94 355.61 168.59 356.62 C 190.93 361.61 214.40 361.83 236.76 356.83 C 242.29 355.78 246.32 351.01 247.74 345.76 C 249.88 337.87 251.98 329.97 254.11 322.08 C 263.36 317.80 271.97 312.29 280.23 306.37 C 288.86 308.20 297.22 311.73 305.85 313.81 C 310.18 314.61 314.87 313.13 317.83 309.84 C 324.59 302.82 330.63 295.08 335.80 286.83 C 338.30 281.13 341.99 276.04 344.34 270.27 C 344.61 270.35 345.16 270.51 345.43 270.58 C 348.75 262.87 352.33 255.16 354.19 246.94 C 355.58 240.13 350.24 234.95 345.66 230.85 C 344.59 230.48 343.54 230.05 342.80 229.18 C 338.64 225.02 334.24 221.11 330.10 216.95 C 331.16 211.66 329.57 206.34 330.01 201.02 C 330.33 196.31 330.55 191.53 329.18 186.95 C 333.50 183.03 337.86 179.14 342.14 175.17 C 343.08 174.25 344.18 173.50 345.42 173.02 C 350.38 169.27 355.55 163.77 354.18 156.99 C 352.30 148.80 348.74 141.11 345.44 133.42 C 345.16 133.49 344.61 133.65 344.34 133.72 C 337.79 119.47 328.56 106.51 317.85 95.10 C 314.92 91.90 310.16 90.69 306.03 91.99 C 297.12 94.48 288.30 97.26 279.40 99.81 C 271.62 93.81 263.08 88.86 254.12 84.84 C 252.19 76.89 250.16 68.97 248.21 61.04 C 247.26 57.13 245.52 53.18 242.24 50.68 C 239.34 48.42 235.58 47.90 232.08 47.17 C 211.12 43.29 189.38 43.71 168.58 48.38 M 437.53 219.43 C 417.59 226.25 399.12 237.33 383.68 251.66 C 380.08 254.61 377.99 259.49 379.40 264.09 C 381.75 273.09 384.28 282.04 386.35 291.12 C 380.06 299.53 374.66 308.61 370.51 318.26 C 361.54 320.39 352.56 322.48 343.56 324.45 C 339.26 325.57 335.64 329.12 334.76 333.52 C 330.05 355.65 329.61 378.82 334.59 400.94 C 335.57 405.92 339.38 410.24 344.30 411.62 C 353.03 413.92 361.74 416.30 370.47 418.64 C 374.79 427.94 380.20 436.70 386.36 444.90 C 384.07 453.57 381.64 462.20 379.40 470.89 C 378.12 475.20 379.78 479.93 383.14 482.81 C 400.11 498.81 420.90 510.69 443.21 517.44 C 447.96 518.77 453.08 516.95 456.43 513.46 C 462.53 507.29 468.45 500.94 474.40 494.62 C 484.01 495.61 493.89 496.17 503.33 493.59 C 510.13 500.16 516.30 507.36 523.09 513.95 C 526.53 517.36 531.80 518.80 536.45 517.26 C 558.76 510.49 579.51 498.47 596.34 482.32 C 600.24 478.84 601.49 472.99 599.75 468.13 C 597.07 460.07 594.38 452.02 591.69 443.97 C 597.57 436.11 602.79 427.71 606.64 418.65 C 613.76 416.88 620.88 415.08 628.01 413.33 C 632.02 412.38 636.26 411.31 639.33 408.36 C 642.59 405.47 643.52 401.00 644.27 396.90 C 648.31 375.98 647.66 354.28 643.23 333.47 C 642.26 328.78 638.24 325.26 633.68 324.17 C 624.70 321.77 615.65 319.65 606.64 317.35 C 602.77 308.31 597.57 299.90 591.69 292.04 C 594.27 283.84 596.67 275.59 599.57 267.48 C 601.52 262.48 600.44 256.32 596.35 252.69 C 579.55 236.54 558.80 224.55 536.51 217.76 C 531.84 216.20 526.54 217.62 523.08 221.06 C 516.62 227.51 510.15 233.94 503.74 240.44 C 493.99 239.24 484.14 239.27 474.39 240.38 C 469.63 235.21 464.71 230.19 459.91 225.06 C 457.00 222.07 454.09 218.65 449.89 217.57 C 445.68 216.37 441.43 217.95 437.53 219.43 Z" />
<path fill="#ffffff" opacity="1.00" d=" M 185.72 75.44 C 197.55 74.22 209.48 74.26 221.30 75.46 C 223.84 85.77 226.30 96.10 228.83 106.41 C 235.47 109.72 242.04 113.18 248.91 116.00 C 257.94 119.90 265.47 126.30 272.88 132.63 C 282.88 129.49 292.88 126.36 302.90 123.25 C 310.25 132.68 316.33 143.10 320.69 154.25 C 313.09 161.33 305.71 168.64 298.15 175.76 C 298.88 180.84 299.39 185.95 300.16 191.02 C 301.02 195.66 299.51 200.32 300.03 204.99 C 301.16 212.84 298.99 220.65 299.28 228.53 C 306.52 235.50 313.51 242.74 320.67 249.79 C 316.33 260.94 310.24 271.33 302.89 280.76 C 293.49 277.96 284.11 275.12 274.71 272.32 C 269.50 275.92 264.36 279.64 259.01 283.04 C 258.03 283.76 256.67 284.28 256.56 285.71 C 247.60 291.79 237.47 295.83 227.80 300.61 C 225.73 310.27 223.47 319.90 221.31 329.54 C 209.47 330.74 197.52 330.80 185.69 329.54 C 183.53 319.89 181.27 310.26 179.20 300.60 C 169.35 295.60 158.84 291.84 149.65 285.63 C 149.56 285.33 149.37 284.71 149.27 284.41 C 143.82 280.09 137.93 276.37 132.29 272.32 C 122.88 275.07 113.50 277.94 104.10 280.75 C 96.73 271.34 90.68 260.92 86.33 249.78 C 93.50 242.71 100.53 235.49 107.75 228.47 C 107.52 222.02 107.38 215.50 105.85 209.20 C 104.57 203.83 105.08 198.24 106.31 192.93 C 107.72 187.30 107.92 181.47 108.86 175.77 C 101.29 168.64 93.91 161.33 86.31 154.25 C 90.67 143.10 96.73 132.67 104.11 123.25 C 114.11 126.38 124.11 129.51 134.11 132.62 C 141.33 126.39 148.74 120.20 157.51 116.26 C 164.80 113.11 172.00 109.75 179.15 106.31 C 181.33 96.02 183.46 85.71 185.72 75.44 M 196.20 150.13 C 184.36 151.72 173.05 157.22 164.75 165.85 C 155.73 175.24 150.70 188.06 150.15 201.02 C 150.11 217.20 157.50 233.52 170.56 243.30 C 179.49 250.25 190.71 253.90 201.96 254.44 C 218.76 254.25 235.99 246.74 245.75 232.72 C 254.56 220.51 256.73 204.46 253.83 189.91 C 251.01 175.66 241.50 162.97 228.60 156.27 C 218.73 151.20 207.27 148.48 196.20 150.13 Z" />
<path fill="#ffffff" opacity="1.00" d=" M 197.21 180.16 C 203.22 178.72 209.63 180.22 214.98 183.12 C 228.07 190.63 228.30 212.55 215.57 220.54 C 209.47 224.08 201.77 225.67 194.99 223.19 C 185.87 220.06 179.40 210.57 180.14 200.90 C 180.33 191.18 187.80 182.31 197.21 180.16 Z" />
<path fill="#ffffff" opacity="1.00" d=" M 410.74 267.60 C 420.17 260.26 430.57 254.17 441.72 249.84 C 448.84 257.01 456.02 264.12 463.14 271.30 C 469.46 271.03 475.77 270.62 482.06 269.88 C 493.40 268.57 504.64 271.24 515.89 272.30 C 522.86 264.66 530.22 257.40 537.25 249.82 C 548.41 254.18 558.88 260.23 568.27 267.66 C 564.78 277.90 562.21 288.40 558.89 298.68 C 561.53 301.86 564.20 305.01 566.84 308.20 C 575.04 318.82 580.41 331.22 585.14 343.69 C 595.46 345.73 605.71 348.07 616.01 350.15 C 617.27 362.01 617.27 373.99 616.01 385.85 C 605.72 388.29 595.46 390.81 585.18 393.29 C 580.21 405.11 575.00 416.99 567.25 427.30 C 564.48 430.68 561.61 434.00 558.85 437.40 C 562.04 447.40 565.17 457.42 568.24 467.45 C 558.77 474.73 548.41 480.86 537.25 485.18 C 530.20 477.62 522.86 470.33 515.89 462.71 C 504.63 463.76 493.37 466.44 482.01 465.12 C 475.74 464.37 469.44 463.96 463.13 463.71 C 456.02 470.89 448.84 478.00 441.72 485.17 C 430.57 480.80 420.08 474.77 410.71 467.31 C 413.93 457.97 417.01 448.58 420.11 439.21 C 411.34 428.16 402.79 416.69 397.41 403.56 C 395.92 399.81 394.44 396.06 392.91 392.33 C 382.92 390.27 372.99 387.93 363.01 385.87 C 361.66 374.00 361.74 362.00 363.00 350.12 C 372.99 348.07 382.92 345.73 392.91 343.67 C 396.31 335.60 399.04 327.19 403.51 319.61 C 408.25 311.45 414.46 304.30 420.11 296.78 C 416.82 287.11 414.18 277.23 410.74 267.60 M 483.14 316.08 C 468.58 317.94 454.07 325.34 446.13 338.03 C 438.43 350.02 435.16 365.12 438.38 379.11 C 441.09 391.94 448.22 404.34 459.54 411.39 C 471.65 419.13 486.94 422.45 501.04 418.99 C 513.93 416.21 526.34 408.87 533.26 397.38 C 540.65 385.49 543.81 370.65 540.60 356.91 C 537.91 344.05 530.74 331.65 519.43 324.59 C 508.79 317.80 495.71 314.40 483.14 316.08 Z" />
<path fill="#ffffff" opacity="1.00" d=" M 483.47 346.58 C 493.70 343.38 506.15 349.01 509.88 359.23 C 513.54 367.32 511.57 377.23 505.61 383.69 C 501.34 388.00 495.23 390.10 489.27 390.41 C 482.53 389.90 475.48 387.16 471.54 381.42 C 467.72 375.84 465.97 368.51 468.18 361.97 C 469.98 354.52 476.01 348.40 483.47 346.58 Z" />
</g>
<g id="#2a2e3dff">
<path fill="#2a2e3d" opacity="1.00" d=" M 168.58 48.38 C 189.38 43.71 211.12 43.29 232.08 47.17 C 235.58 47.90 239.34 48.42 242.24 50.68 C 245.52 53.18 247.26 57.13 248.21 61.04 C 250.16 68.97 252.19 76.89 254.12 84.84 C 263.08 88.86 271.62 93.81 279.40 99.81 C 288.30 97.26 297.12 94.48 306.03 91.99 C 310.16 90.69 314.92 91.90 317.85 95.10 C 328.56 106.51 337.79 119.47 344.34 133.72 C 344.61 133.65 345.16 133.49 345.44 133.42 C 348.74 141.11 352.30 148.80 354.18 156.99 C 355.55 163.77 350.38 169.27 345.42 173.02 C 344.18 173.50 343.08 174.25 342.14 175.17 C 337.86 179.14 333.50 183.03 329.18 186.95 C 330.55 191.53 330.33 196.31 330.01 201.02 C 329.57 206.34 331.16 211.66 330.10 216.95 C 334.24 221.11 338.64 225.02 342.80 229.18 C 343.54 230.05 344.59 230.48 345.66 230.85 C 350.24 234.95 355.58 240.13 354.19 246.94 C 352.33 255.16 348.75 262.87 345.43 270.58 C 345.16 270.51 344.61 270.35 344.34 270.27 C 341.99 276.04 338.30 281.13 335.80 286.83 C 330.63 295.08 324.59 302.82 317.83 309.84 C 314.87 313.13 310.18 314.61 305.85 313.81 C 297.22 311.73 288.86 308.20 280.23 306.37 C 271.97 312.29 263.36 317.80 254.11 322.08 C 251.98 329.97 249.88 337.87 247.74 345.76 C 246.32 351.01 242.29 355.78 236.76 356.83 C 214.40 361.83 190.93 361.61 168.59 356.62 C 163.94 355.61 160.61 351.49 159.58 347.00 C 157.62 338.70 155.72 330.38 153.83 322.06 C 144.08 317.85 135.00 312.30 126.39 306.11 C 119.23 308.53 111.95 310.57 104.75 312.89 C 101.69 313.94 98.34 314.44 95.17 313.53 C 90.85 312.50 88.13 308.70 85.26 305.64 C 79.11 298.33 72.86 290.86 68.88 282.11 C 62.69 271.64 57.65 260.47 54.20 248.80 C 52.72 244.15 54.19 238.94 57.61 235.53 C 63.89 229.15 70.59 223.20 76.97 216.92 C 75.63 207.02 75.81 196.99 76.96 187.08 C 71.21 181.47 65.29 176.02 59.52 170.42 C 55.18 166.78 52.29 160.91 54.19 155.25 C 60.86 132.80 73.11 112.13 89.11 95.06 C 92.10 91.96 96.78 90.68 100.92 91.98 C 109.85 94.47 118.69 97.26 127.61 99.80 C 135.37 93.78 143.93 88.86 152.88 84.84 C 155.08 75.92 157.26 67.00 159.58 58.12 C 160.61 53.60 163.93 49.46 168.58 48.38 M 185.72 75.44 C 183.46 85.71 181.33 96.02 179.15 106.31 C 172.00 109.75 164.80 113.11 157.51 116.26 C 148.74 120.20 141.33 126.39 134.11 132.62 C 124.11 129.51 114.11 126.38 104.11 123.25 C 96.73 132.67 90.67 143.10 86.31 154.25 C 93.91 161.33 101.29 168.64 108.86 175.77 C 107.92 181.47 107.72 187.30 106.31 192.93 C 105.08 198.24 104.57 203.83 105.85 209.20 C 107.38 215.50 107.52 222.02 107.75 228.47 C 100.53 235.49 93.50 242.71 86.33 249.78 C 90.68 260.92 96.73 271.34 104.10 280.75 C 113.50 277.94 122.88 275.07 132.29 272.32 C 137.93 276.37 143.82 280.09 149.27 284.41 C 149.37 284.71 149.56 285.33 149.65 285.63 C 158.84 291.84 169.35 295.60 179.20 300.60 C 181.27 310.26 183.53 319.89 185.69 329.54 C 197.52 330.80 209.47 330.74 221.31 329.54 C 223.47 319.90 225.73 310.27 227.80 300.61 C 237.47 295.83 247.60 291.79 256.56 285.71 C 256.67 284.28 258.03 283.76 259.01 283.04 C 264.36 279.64 269.50 275.92 274.71 272.32 C 284.11 275.12 293.49 277.96 302.89 280.76 C 310.24 271.33 316.33 260.94 320.67 249.79 C 313.51 242.74 306.52 235.50 299.28 228.53 C 298.99 220.65 301.16 212.84 300.03 204.99 C 299.51 200.32 301.02 195.66 300.16 191.02 C 299.39 185.95 298.88 180.84 298.15 175.76 C 305.71 168.64 313.09 161.33 320.69 154.25 C 316.33 143.10 310.25 132.68 302.90 123.25 C 292.88 126.36 282.88 129.49 272.88 132.63 C 265.47 126.30 257.94 119.90 248.91 116.00 C 242.04 113.18 235.47 109.72 228.83 106.41 C 226.30 96.10 223.84 85.77 221.30 75.46 C 209.48 74.26 197.55 74.22 185.72 75.44 Z" />
<path fill="#2a2e3d" opacity="1.00" d=" M 196.20 150.13 C 207.27 148.48 218.73 151.20 228.60 156.27 C 241.50 162.97 251.01 175.66 253.83 189.91 C 256.73 204.46 254.56 220.51 245.75 232.72 C 235.99 246.74 218.76 254.25 201.96 254.44 C 190.71 253.90 179.49 250.25 170.56 243.30 C 157.50 233.52 150.11 217.20 150.15 201.02 C 150.70 188.06 155.73 175.24 164.75 165.85 C 173.05 157.22 184.36 151.72 196.20 150.13 M 197.21 180.16 C 187.80 182.31 180.33 191.18 180.14 200.90 C 179.40 210.57 185.87 220.06 194.99 223.19 C 201.77 225.67 209.47 224.08 215.57 220.54 C 228.30 212.55 228.07 190.63 214.98 183.12 C 209.63 180.22 203.22 178.72 197.21 180.16 Z" />
<path fill="#2a2e3d" opacity="1.00" d=" M 437.53 219.43 C 441.43 217.95 445.68 216.37 449.89 217.57 C 454.09 218.65 457.00 222.07 459.91 225.06 C 464.71 230.19 469.63 235.21 474.39 240.38 C 484.14 239.27 493.99 239.24 503.74 240.44 C 510.15 233.94 516.62 227.51 523.08 221.06 C 526.54 217.62 531.84 216.20 536.51 217.76 C 558.80 224.55 579.55 236.54 596.35 252.69 C 600.44 256.32 601.52 262.48 599.57 267.48 C 596.67 275.59 594.27 283.84 591.69 292.04 C 597.57 299.90 602.77 308.31 606.64 317.35 C 615.65 319.65 624.70 321.77 633.68 324.17 C 638.24 325.26 642.26 328.78 643.23 333.47 C 647.66 354.28 648.31 375.98 644.27 396.90 C 643.52 401.00 642.59 405.47 639.33 408.36 C 636.26 411.31 632.02 412.38 628.01 413.33 C 620.88 415.08 613.76 416.88 606.64 418.65 C 602.79 427.71 597.57 436.11 591.69 443.97 C 594.38 452.02 597.07 460.07 599.75 468.13 C 601.49 472.99 600.24 478.84 596.34 482.32 C 579.51 498.47 558.76 510.49 536.45 517.26 C 531.80 518.80 526.53 517.36 523.09 513.95 C 516.30 507.36 510.13 500.16 503.33 493.59 C 493.89 496.17 484.01 495.61 474.40 494.62 C 468.45 500.94 462.53 507.29 456.43 513.46 C 453.08 516.95 447.96 518.77 443.21 517.44 C 420.90 510.69 400.11 498.81 383.14 482.81 C 379.78 479.93 378.12 475.20 379.40 470.89 C 381.64 462.20 384.07 453.57 386.36 444.90 C 380.20 436.70 374.79 427.94 370.47 418.64 C 361.74 416.30 353.03 413.92 344.30 411.62 C 339.38 410.24 335.57 405.92 334.59 400.94 C 329.61 378.82 330.05 355.65 334.76 333.52 C 335.64 329.12 339.26 325.57 343.56 324.45 C 352.56 322.48 361.54 320.39 370.51 318.26 C 374.66 308.61 380.06 299.53 386.35 291.12 C 384.28 282.04 381.75 273.09 379.40 264.09 C 377.99 259.49 380.08 254.61 383.68 251.66 C 399.12 237.33 417.59 226.25 437.53 219.43 M 410.74 267.60 C 414.18 277.23 416.82 287.11 420.11 296.78 C 414.46 304.30 408.25 311.45 403.51 319.61 C 399.04 327.19 396.31 335.60 392.91 343.67 C 382.92 345.73 372.99 348.07 363.00 350.12 C 361.74 362.00 361.66 374.00 363.01 385.87 C 372.99 387.93 382.92 390.27 392.91 392.33 C 394.44 396.06 395.92 399.81 397.41 403.56 C 402.79 416.69 411.34 428.16 420.11 439.21 C 417.01 448.58 413.93 457.97 410.71 467.31 C 420.08 474.77 430.57 480.80 441.72 485.17 C 448.84 478.00 456.02 470.89 463.13 463.71 C 469.44 463.96 475.74 464.37 482.01 465.12 C 493.37 466.44 504.63 463.76 515.89 462.71 C 522.86 470.33 530.20 477.62 537.25 485.18 C 548.41 480.86 558.77 474.73 568.24 467.45 C 565.17 457.42 562.04 447.40 558.85 437.40 C 561.61 434.00 564.48 430.68 567.25 427.30 C 575.00 416.99 580.21 405.11 585.18 393.29 C 595.46 390.81 605.72 388.29 616.01 385.85 C 617.27 373.99 617.27 362.01 616.01 350.15 C 605.71 348.07 595.46 345.73 585.14 343.69 C 580.41 331.22 575.04 318.82 566.84 308.20 C 564.20 305.01 561.53 301.86 558.89 298.68 C 562.21 288.40 564.78 277.90 568.27 267.66 C 558.88 260.23 548.41 254.18 537.25 249.82 C 530.22 257.40 522.86 264.66 515.89 272.30 C 504.64 271.24 493.40 268.57 482.06 269.88 C 475.77 270.62 469.46 271.03 463.14 271.30 C 456.02 264.12 448.84 257.01 441.72 249.84 C 430.57 254.17 420.17 260.26 410.74 267.60 Z" />
<path fill="#2a2e3d" opacity="1.00" d=" M 483.14 316.08 C 495.71 314.40 508.79 317.80 519.43 324.59 C 530.74 331.65 537.91 344.05 540.60 356.91 C 543.81 370.65 540.65 385.49 533.26 397.38 C 526.34 408.87 513.93 416.21 501.04 418.99 C 486.94 422.45 471.65 419.13 459.54 411.39 C 448.22 404.34 441.09 391.94 438.38 379.11 C 435.16 365.12 438.43 350.02 446.13 338.03 C 454.07 325.34 468.58 317.94 483.14 316.08 M 483.47 346.58 C 476.01 348.40 469.98 354.52 468.18 361.97 C 465.97 368.51 467.72 375.84 471.54 381.42 C 475.48 387.16 482.53 389.90 489.27 390.41 C 495.23 390.10 501.34 388.00 505.61 383.69 C 511.57 377.23 513.54 367.32 509.88 359.23 C 506.15 349.01 493.70 343.38 483.47 346.58 Z" />
</g>
</svg>
