<?xml version="1.0" encoding="utf-8"?>
<!-- Generator: Adobe Illustrator 26.0.1, SVG Export Plug-In . SVG Version: 6.00 Build 0)  -->
<svg version="1.1" id="Layer_1" xmlns="http://www.w3.org/2000/svg" xmlns:xlink="http://www.w3.org/1999/xlink" x="0px" y="0px"
	 viewBox="0 0 479.7 479.7" style="enable-background:new 0 0 479.7 479.7;" xml:space="preserve">
<style type="text/css">
	.st0{fill:#2A2E3D;}
</style>
<g id="_x23_2a2e3dff">
	<path class="st0" d="M88.8,48.5c14.1-1.7,28.8,1.8,40.7,9.5c17.5,10.9,26.8,32.1,26.2,52.3c-0.9,17.7-9.1,35.6-23.8,45.9
		c-10.2,7.5-22.9,11.2-35.5,11.6c-13.4-0.2-27-4.2-37.7-12.5c-10.8-8.1-18-20.5-21-33.6c-4-16.4-0.4-34.3,8.9-48.3
		C56,59.2,72.2,50.5,88.8,48.5 M91.2,72.5c-8.9,1.3-17.6,5.6-23,12.8c-6.2,8-9.6,18.7-7.4,28.8c1.9,9.1,6.8,18.2,14.8,23.2
		c7.8,5,17.4,7.6,26.5,5.7c9-2,17.9-6.6,23-14.5c5.4-8.3,8.3-18.9,5.7-28.7c-2.5-10.1-9.1-19.4-18.6-23.9
		C105.7,73.1,98.4,71.2,91.2,72.5z"/>
	<path class="st0" d="M376.5,48.5c13.7-1.7,28,1.6,39.7,8.8c20.8,12.5,30.8,39,26.1,62.4c-2.8,14.5-10.8,28.3-23,36.7
		c-10.2,7.4-22.7,11-35.2,11.3c-14.6-0.1-29.3-5.1-40.4-14.7c-12.6-11-19.4-27.8-19.9-44.4c0.1-12.2,3.5-24.5,10.2-34.8
		C343.4,59.4,359.7,50.5,376.5,48.5 M379,72.5c-2.9,0.4-5.7,1.3-8.4,2.1c-16.4,5.9-26.4,25.6-21.4,42.3c2.2,7.7,6.5,15.3,13.3,19.8
		c8.5,5.9,19.6,8.7,29.7,5.8c7.9-2.2,15.7-6.5,20.3-13.5c5.7-8.4,8.7-19.2,6-29.1c-2.5-10.3-9.3-19.7-19.1-24.2
		C393.1,73.1,385.9,71.2,379,72.5z"/>
	<path class="st0" d="M231.9,132.5c13.3-1.6,26.9,0.8,39.1,6.1c16.1,6.6,29.3,19.5,37.2,34.9c8.4,16.4,10.9,35.7,6.8,53.7
		c-3.5,16.7-12.8,32.2-25.9,43.2c-24.5,20.4-61.9,23-89.3,6.7c-12.8-7.3-23.2-18.6-29.5-32c-8.7-18.2-9.7-39.7-3.9-58.9
		c5.2-16.9,16.4-32.1,31.2-41.8C207.8,137.6,219.7,133.6,231.9,132.5 M232.7,156.4c-15.6,1.9-30.1,11.1-38.4,24.5
		c-7.6,12.4-10.2,27.9-6.5,42.1c3.1,13.6,12,25.5,23.8,32.7c8.1,5.1,17.7,7.4,27.2,7.9c15.8,0,31.6-6.7,42-18.6
		c8.5-9.5,12.7-22.3,13-34.9c-0.2-13.4-4.9-27-14.1-36.9c-7.6-7.8-17.4-13.8-28.2-15.8C245.3,156.1,238.9,155.4,232.7,156.4z"/>
	<path class="st0" d="M52.1,192.4c5.7-0.8,11.4-0.5,17.2-0.6c12.3,0,24.5,0,36.8,0c8.3,0,16.6,1.3,24.3,4.2
		c5.4,1.8,9.4,7.6,8.6,13.3c-0.3,5.2-4.5,9.9-9.7,10.5c-3.7,0.4-7.1-1.2-10.5-2.4c-3.9-1.2-7.9-1.7-11.9-1.7c-15.2,0-30.4,0-45.6,0
		c-8.3,0.2-16.8,2.6-23.1,8.1c-8.4,6.7-13,17.3-13.8,27.9c-0.9,6.1,1,12.7-2,18.4c-3.3,5.9-11.9,6.9-17.3,3.4
		c-2.7-1.8-4.2-5.1-4.6-8.2c-1.1-15.7,1-32.2,9.6-45.7C18.8,204.7,34.8,194.3,52.1,192.4z"/>
	<path class="st0" d="M364.5,192.4c6.5-0.8,13.1-0.5,19.6-0.6c12.2,0,24.5-0.1,36.8,0c12.4,0.3,24.7,4.2,34.6,11.7
		c12.7,9.7,20.9,24.6,23.2,40.3c1.1,6.3,1,12.7,1,19c-0.1,4-1.4,8.3-4.8,10.6c-5.2,3.4-13.4,2.7-17-2.7c-3.4-5.3-1.7-11.8-2.3-17.6
		c-0.6-11-5-22.5-14.1-29.3c-6.4-5.3-14.7-8-23-8.1c-15.2,0-30.3,0-45.5,0c-4.9,0-9.8,0.7-14.3,2.5c-3,1.2-6.4,2.2-9.6,1.3
		c-4.1-1.3-7.6-5-8.1-9.3c-0.4-3.3,0.1-7,2.6-9.5C348.7,194.7,357.2,193.7,364.5,192.4z"/>
	<path class="st0" d="M191.2,312.4c10.5-1,21-0.6,31.5-0.7c18.4,0,36.8-0.1,55.2,0c10.9,0.2,21.6,2,32.2,4.7
		c30.8,9.2,57.3,33.2,68,63.7c2.5,7,4,14.4,5,21.7c0.5,6,1.6,12.4-1,18.1c-3.6,7.1-11.3,11.7-19.3,11.6c-81.3,0.1-162.6,0-243.8,0
		c-4.8,0.1-9.9-0.8-13.9-3.7c-3.4-2.5-6.6-5.7-7.8-9.9c-1.4-4.1-1-8.6-0.6-12.8c1.7-22,10.9-43.3,26.2-59.3
		c7.7-8.2,16.6-15.3,26.4-20.7C161.9,317.7,176.5,314.1,191.2,312.4 M187.6,337c-17.2,2.8-33.6,10.8-45.8,23.2
		c-12.7,12.5-20.2,29.7-21.8,47.4c79.7,0,159.3,0,239,0c-0.6-6.2-1.5-12.4-3.5-18.4c-5-16.2-16.1-30.2-30.3-39.4
		c-11.7-7.9-25.5-12.1-39.4-13.7c-7.5-0.7-14.9-0.4-22.4-0.5c-16.5,0-33,0-49.5,0C205.1,335.7,196.3,335.3,187.6,337z"/>
</g>
</svg>
