<?xml version="1.0" encoding="UTF-8" ?>
<!DOCTYPE svg PUBLIC "-//W3C//DTD SVG 1.1//EN" "http://www.w3.org/Graphics/SVG/1.1/DTD/svg11.dtd">
<svg width="688pt" height="590pt" viewBox="0 0 688 590" version="1.1" xmlns="http://www.w3.org/2000/svg">
<g id="#ffffffff">
<path fill="#ffffff" opacity="1.00" d=" M 0.00 0.00 L 688.00 0.00 L 688.00 590.00 L 0.00 590.00 L 0.00 0.00 M 157.55 51.69 C 136.71 54.22 116.47 65.07 104.79 82.81 C 93.20 100.35 88.71 122.72 93.68 143.25 C 97.39 159.61 106.38 175.11 119.90 185.25 C 133.23 195.66 150.22 200.73 167.02 200.93 C 182.80 200.50 198.70 195.87 211.49 186.44 C 229.90 173.48 240.20 151.13 241.32 128.97 C 242.02 103.68 230.39 77.24 208.52 63.58 C 193.63 53.91 175.18 49.57 157.55 51.69 M 517.51 51.70 C 496.46 54.26 475.99 65.34 464.41 83.42 C 455.96 96.26 451.72 111.63 451.59 126.95 C 452.13 147.72 460.66 168.68 476.45 182.49 C 490.30 194.59 508.69 200.78 526.97 200.93 C 542.58 200.52 558.31 195.99 571.03 186.76 C 586.37 176.18 596.29 158.91 599.83 140.81 C 605.79 111.57 593.21 78.33 567.21 62.73 C 552.53 53.70 534.64 49.60 517.51 51.70 M 336.50 156.77 C 321.32 158.14 306.41 163.17 293.65 171.53 C 275.03 183.65 261.13 202.65 254.57 223.83 C 247.36 247.91 248.58 274.77 259.49 297.56 C 267.37 314.23 280.33 328.42 296.37 337.55 C 330.60 357.90 377.39 354.68 408.09 329.16 C 424.45 315.42 436.08 296.07 440.47 275.15 C 445.63 252.70 442.41 228.50 431.96 208.01 C 422.06 188.73 405.58 172.67 385.46 164.37 C 370.14 157.82 353.11 154.80 336.50 156.77 M 111.53 231.71 C 89.91 234.17 69.90 247.13 58.79 265.83 C 48.03 282.71 45.33 303.39 46.76 323.01 C 47.33 326.97 49.11 331.02 52.55 333.29 C 59.30 337.70 70.13 336.52 74.25 329.08 C 78.09 321.99 75.70 313.69 76.79 306.06 C 77.72 292.81 83.46 279.51 94.03 271.15 C 101.94 264.19 112.60 261.18 122.99 260.99 C 141.99 261.00 161.00 261.00 180.01 261.00 C 185.04 261.00 190.09 261.60 194.91 263.08 C 199.15 264.53 203.44 266.58 208.05 266.09 C 214.53 265.33 219.85 259.49 220.19 252.99 C 221.22 245.81 216.25 238.56 209.48 236.29 C 199.77 232.67 189.37 231.01 179.03 231.00 C 163.69 231.00 148.35 231.00 133.01 231.00 C 125.85 231.03 118.65 230.76 111.53 231.71 M 502.47 231.69 C 493.27 233.42 482.62 234.61 476.15 242.17 C 473.09 245.23 472.45 249.92 472.94 254.05 C 473.48 259.53 477.84 264.16 483.02 265.74 C 487.07 266.84 491.28 265.59 495.09 264.15 C 500.76 261.84 506.93 261.01 513.02 261.00 C 532.00 261.00 550.99 261.01 569.97 260.99 C 580.33 261.14 590.76 264.48 598.76 271.16 C 610.07 279.68 615.60 293.96 616.36 307.77 C 617.08 315.11 614.99 323.24 619.19 329.85 C 623.70 336.61 633.91 337.54 640.45 333.29 C 644.77 330.41 646.38 324.93 646.49 319.98 C 646.58 312.02 646.61 304.02 645.27 296.15 C 642.36 276.53 632.04 257.86 616.21 245.75 C 603.89 236.28 588.44 231.38 572.97 231.05 C 557.64 230.93 542.31 231.04 526.99 231.00 C 518.81 231.08 510.60 230.66 502.47 231.69 M 285.62 381.83 C 267.26 383.97 248.98 388.57 232.84 397.82 C 220.53 404.63 209.38 413.49 199.80 423.77 C 180.78 443.77 169.19 470.46 167.08 497.95 C 166.60 503.29 166.04 508.83 167.80 514.02 C 169.28 519.26 173.32 523.26 177.58 526.41 C 182.59 530.02 188.95 531.08 195.01 531.01 C 296.71 530.97 398.41 531.05 500.10 530.97 C 510.05 531.16 519.78 525.37 524.25 516.49 C 527.59 509.37 526.14 501.37 525.54 493.85 C 524.28 484.64 522.48 475.45 519.32 466.68 C 505.98 428.48 472.86 398.45 434.30 386.94 C 421.14 383.59 407.68 381.24 394.06 381.05 C 371.04 380.93 348.02 381.04 325.00 381.00 C 311.87 381.08 298.72 380.63 285.62 381.83 Z" />
<path fill="#ffffff" opacity="1.00" d=" M 160.53 81.79 C 169.46 80.13 178.71 82.54 186.86 86.17 C 198.74 91.83 206.99 103.50 210.07 116.10 C 213.36 128.35 209.76 141.55 202.97 151.96 C 196.66 161.89 185.48 167.66 174.25 170.10 C 162.78 172.38 150.78 169.15 141.07 162.92 C 130.97 156.57 124.93 145.26 122.52 133.84 C 119.74 121.21 124.01 107.90 131.76 97.85 C 138.57 88.75 149.44 83.41 160.53 81.79 Z" />
<path fill="#ffffff" opacity="1.00" d=" M 520.60 81.78 C 529.28 80.14 538.22 82.50 546.21 85.84 C 558.40 91.42 566.94 103.23 570.06 116.08 C 573.40 128.56 569.66 142.05 562.56 152.55 C 556.82 161.34 547.06 166.65 537.15 169.42 C 524.46 172.98 510.63 169.49 499.94 162.15 C 491.45 156.45 486.17 147.00 483.36 137.37 C 477.06 116.45 489.52 91.82 510.09 84.46 C 513.53 83.35 517.01 82.27 520.60 81.78 Z" />
<path fill="#ffffff" opacity="1.00" d=" M 337.52 186.76 C 345.33 185.48 353.31 186.38 361.00 188.03 C 374.48 190.56 386.77 198.01 396.23 207.82 C 407.85 220.14 413.70 237.15 413.92 253.94 C 413.52 269.74 408.22 285.69 397.63 297.61 C 384.59 312.56 364.76 320.94 345.03 320.89 C 333.16 320.20 321.20 317.29 311.03 310.97 C 296.27 301.91 285.06 286.97 281.23 270.01 C 276.60 252.32 279.86 232.88 289.42 217.37 C 299.81 200.63 317.99 189.19 337.52 186.76 Z" />
<path fill="#ffffff" opacity="1.00" d=" M 281.10 412.64 C 291.95 410.59 303.04 411.05 314.02 411.00 C 334.67 411.00 355.32 411.00 375.97 411.00 C 385.32 411.05 394.69 410.75 404.02 411.60 C 421.41 413.60 438.70 418.86 453.28 428.74 C 470.99 440.22 484.92 457.74 491.14 477.99 C 493.62 485.43 494.84 493.21 495.55 501.00 C 395.86 501.00 296.18 501.00 196.50 501.00 C 198.53 478.90 207.93 457.38 223.79 441.72 C 239.12 426.17 259.60 416.09 281.10 412.64 Z" />
</g>
<g id="#2a2e3dff">
<path fill="#2a2e3d" opacity="1.00" d=" M 157.55 51.69 C 175.18 49.57 193.63 53.91 208.52 63.58 C 230.39 77.24 242.02 103.68 241.32 128.97 C 240.20 151.13 229.90 173.48 211.49 186.44 C 198.70 195.87 182.80 200.50 167.02 200.93 C 150.22 200.73 133.23 195.66 119.90 185.25 C 106.38 175.11 97.39 159.61 93.68 143.25 C 88.71 122.72 93.20 100.35 104.79 82.81 C 116.47 65.07 136.71 54.22 157.55 51.69 M 160.53 81.79 C 149.44 83.41 138.57 88.75 131.76 97.85 C 124.01 107.90 119.74 121.21 122.52 133.84 C 124.93 145.26 130.97 156.57 141.07 162.92 C 150.78 169.15 162.78 172.38 174.25 170.10 C 185.48 167.66 196.66 161.89 202.97 151.96 C 209.76 141.55 213.36 128.35 210.07 116.10 C 206.99 103.50 198.74 91.83 186.86 86.17 C 178.71 82.54 169.46 80.13 160.53 81.79 Z" />
<path fill="#2a2e3d" opacity="1.00" d=" M 517.51 51.70 C 534.64 49.60 552.53 53.70 567.21 62.73 C 593.21 78.33 605.79 111.57 599.83 140.81 C 596.29 158.91 586.37 176.18 571.03 186.76 C 558.31 195.99 542.58 200.52 526.97 200.93 C 508.69 200.78 490.30 194.59 476.45 182.49 C 460.66 168.68 452.13 147.72 451.59 126.95 C 451.72 111.63 455.96 96.26 464.41 83.42 C 475.99 65.34 496.46 54.26 517.51 51.70 M 520.60 81.78 C 517.01 82.27 513.53 83.35 510.09 84.46 C 489.52 91.82 477.06 116.45 483.36 137.37 C 486.17 147.00 491.45 156.45 499.94 162.15 C 510.63 169.49 524.46 172.98 537.15 169.42 C 547.06 166.65 556.82 161.34 562.56 152.55 C 569.66 142.05 573.40 128.56 570.06 116.08 C 566.94 103.23 558.40 91.42 546.21 85.84 C 538.22 82.50 529.28 80.14 520.60 81.78 Z" />
<path fill="#2a2e3d" opacity="1.00" d=" M 336.50 156.77 C 353.11 154.80 370.14 157.82 385.46 164.37 C 405.58 172.67 422.06 188.73 431.96 208.01 C 442.41 228.50 445.63 252.70 440.47 275.15 C 436.08 296.07 424.45 315.42 408.09 329.16 C 377.39 354.68 330.60 357.90 296.37 337.55 C 280.33 328.42 267.37 314.23 259.49 297.56 C 248.58 274.77 247.36 247.91 254.57 223.83 C 261.13 202.65 275.03 183.65 293.65 171.53 C 306.41 163.17 321.32 158.14 336.50 156.77 M 337.52 186.76 C 317.99 189.19 299.81 200.63 289.42 217.37 C 279.86 232.88 276.60 252.32 281.23 270.01 C 285.06 286.97 296.27 301.91 311.03 310.97 C 321.20 317.29 333.16 320.20 345.03 320.89 C 364.76 320.94 384.59 312.56 397.63 297.61 C 408.22 285.69 413.52 269.74 413.92 253.94 C 413.70 237.15 407.85 220.14 396.23 207.82 C 386.77 198.01 374.48 190.56 361.00 188.03 C 353.31 186.38 345.33 185.48 337.52 186.76 Z" />
<path fill="#2a2e3d" opacity="1.00" d=" M 111.53 231.71 C 118.65 230.76 125.85 231.03 133.01 231.00 C 148.35 231.00 163.69 231.00 179.03 231.00 C 189.37 231.01 199.77 232.67 209.48 236.29 C 216.25 238.56 221.22 245.81 220.19 252.99 C 219.85 259.49 214.53 265.33 208.05 266.09 C 203.44 266.58 199.15 264.53 194.91 263.08 C 190.09 261.60 185.04 261.00 180.01 261.00 C 161.00 261.00 141.99 261.00 122.99 260.99 C 112.60 261.18 101.94 264.19 94.03 271.15 C 83.46 279.51 77.72 292.81 76.79 306.06 C 75.70 313.69 78.09 321.99 74.25 329.08 C 70.13 336.52 59.30 337.70 52.55 333.29 C 49.11 331.02 47.33 326.97 46.76 323.01 C 45.33 303.39 48.03 282.71 58.79 265.83 C 69.90 247.13 89.91 234.17 111.53 231.71 Z" />
<path fill="#2a2e3d" opacity="1.00" d=" M 502.47 231.69 C 510.60 230.66 518.81 231.08 526.99 231.00 C 542.31 231.04 557.64 230.93 572.97 231.05 C 588.44 231.38 603.89 236.28 616.21 245.75 C 632.04 257.86 642.36 276.53 645.27 296.15 C 646.61 304.02 646.58 312.02 646.49 319.98 C 646.38 324.93 644.77 330.41 640.45 333.29 C 633.91 337.54 623.70 336.61 619.19 329.85 C 614.99 323.24 617.08 315.11 616.36 307.77 C 615.60 293.96 610.07 279.68 598.76 271.16 C 590.76 264.48 580.33 261.14 569.97 260.99 C 550.99 261.01 532.00 261.00 513.02 261.00 C 506.93 261.01 500.76 261.84 495.09 264.15 C 491.28 265.59 487.07 266.84 483.02 265.74 C 477.84 264.16 473.48 259.53 472.94 254.05 C 472.45 249.92 473.09 245.23 476.15 242.17 C 482.62 234.61 493.27 233.42 502.47 231.69 Z" />
<path fill="#2a2e3d" opacity="1.00" d=" M 285.62 381.83 C 298.72 380.63 311.87 381.08 325.00 381.00 C 348.02 381.04 371.04 380.93 394.06 381.05 C 407.68 381.24 421.14 383.59 434.30 386.94 C 472.86 398.45 505.98 428.48 519.32 466.68 C 522.48 475.45 524.28 484.64 525.54 493.85 C 526.14 501.37 527.59 509.37 524.25 516.49 C 519.78 525.37 510.05 531.16 500.10 530.97 C 398.41 531.05 296.71 530.97 195.01 531.01 C 188.95 531.08 182.59 530.02 177.58 526.41 C 173.32 523.26 169.28 519.26 167.80 514.02 C 166.04 508.83 166.60 503.29 167.08 497.95 C 169.19 470.46 180.78 443.77 199.80 423.77 C 209.38 413.49 220.53 404.63 232.84 397.82 C 248.98 388.57 267.26 383.97 285.62 381.83 M 281.10 412.64 C 259.60 416.09 239.12 426.17 223.79 441.72 C 207.93 457.38 198.53 478.90 196.50 501.00 C 296.18 501.00 395.86 501.00 495.55 501.00 C 494.84 493.21 493.62 485.43 491.14 477.99 C 484.92 457.74 470.99 440.22 453.28 428.74 C 438.70 418.86 421.41 413.60 404.02 411.60 C 394.69 410.75 385.32 411.05 375.97 411.00 C 355.32 411.00 334.67 411.00 314.02 411.00 C 303.04 411.05 291.95 410.59 281.10 412.64 Z" />
</g>
</svg>
