<?xml version="1.0" encoding="utf-8"?>
<!-- Generator: Adobe Illustrator 26.0.1, SVG Export Plug-In . SVG Version: 6.00 Build 0)  -->
<svg version="1.1" id="Layer_1" xmlns="http://www.w3.org/2000/svg" xmlns:xlink="http://www.w3.org/1999/xlink" x="0px" y="0px"
	 viewBox="0 0 600.1 479.9" style="enable-background:new 0 0 600.1 479.9;" xml:space="preserve">
<style type="text/css">
	.st0{fill:#2A2E3D;}
</style>
<g id="_x23_2a2e3dff">
	<path class="st0" d="M111.1,0.5c17.6-2.1,36.1,2.2,51,11.9c21.9,13.7,33.5,40.1,32.8,65.4c-1.1,22.2-11.4,44.5-29.8,57.5
		c-12.8,9.4-28.7,14.1-44.5,14.5c-16.8-0.2-33.8-5.3-47.1-15.7C60,123.9,51,108.4,47.3,92.1c-5-20.5-0.5-42.9,11.1-60.4
		C70.1,13.9,90.3,3.1,111.1,0.5 M114.1,30.6c-11.1,1.6-22,7-28.8,16.1c-7.7,10.1-12,23.4-9.2,36c2.4,11.4,8.5,22.7,18.6,29.1
		c9.7,6.2,21.7,9.5,33.2,7.2c11.2-2.4,22.4-8.2,28.7-18.1c6.8-10.4,10.4-23.6,7.1-35.9c-3.1-12.6-11.3-24.3-23.2-29.9
		C132.3,31.4,123.1,29,114.1,30.6z"/>
	<path class="st0" d="M471.1,0.5c17.1-2.1,35,2,49.7,11c26,15.6,38.6,48.8,32.6,78.1c-3.5,18.1-13.5,35.4-28.8,45.9
		c-12.7,9.2-28.5,13.8-44.1,14.2c-18.3-0.1-36.7-6.3-50.5-18.4c-15.8-13.8-24.3-34.8-24.9-55.5c0.1-15.3,4.4-30.7,12.8-43.5
		C429.6,14.2,450.1,3.1,471.1,0.5 M474.2,30.6c-3.6,0.5-7.1,1.6-10.5,2.7c-20.6,7.4-33,32-26.7,52.9c2.8,9.6,8.1,19.1,16.6,24.8
		c10.7,7.3,24.5,10.8,37.2,7.3c9.9-2.8,19.7-8.1,25.4-16.9c7.1-10.5,10.8-24,7.5-36.5c-3.1-12.9-11.7-24.7-23.8-30.2
		C491.8,31.3,482.9,29,474.2,30.6z"/>
	<path class="st0" d="M290.1,105.6c16.6-2,33.6,1.1,49,7.6c20.1,8.3,36.6,24.4,46.5,43.6c10.5,20.5,13.7,44.7,8.5,67.1
		c-4.4,20.9-16,40.3-32.4,54c-30.7,25.5-77.5,28.7-111.7,8.4c-16-9.1-29-23.3-36.9-40c-10.9-22.8-12.1-49.6-4.9-73.7
		c6.6-21.2,20.5-40.2,39.1-52.3C260,112,274.9,107,290.1,105.6 M291.1,135.6c-19.5,2.4-37.7,13.9-48.1,30.6
		c-9.6,15.5-12.8,35-8.2,52.6c3.8,17,15,31.9,29.8,41c10.2,6.3,22.1,9.2,34,9.9c19.7,0,39.6-8.3,52.6-23.3
		c10.6-11.9,15.9-27.9,16.3-43.7c-0.2-16.8-6.1-33.8-17.7-46.1c-9.5-9.8-21.8-17.3-35.2-19.8C306.9,135.2,298.9,134.3,291.1,135.6z"
		/>
	<path class="st0" d="M65.1,180.5c7.1-1,14.3-0.7,21.5-0.7c15.3,0,30.7,0,46,0c10.3,0,20.7,1.7,30.4,5.3c6.8,2.3,11.7,9.5,10.7,16.7
		c-0.3,6.5-5.7,12.3-12.1,13.1c-4.6,0.5-8.9-1.6-13.1-3c-4.8-1.5-9.9-2.1-14.9-2.1c-19,0-38,0-57,0c-10.4,0.2-21,3.2-29,10.2
		c-10.6,8.4-16.3,21.7-17.2,34.9c-1.1,7.6,1.3,15.9-2.5,23c-4.1,7.4-14.9,8.6-21.7,4.2c-3.4-2.3-5.2-6.3-5.8-10.3
		c-1.4-19.6,1.3-40.3,12-57.2C23.5,196,43.5,183,65.1,180.5z"/>
	<path class="st0" d="M456.1,180.5c8.1-1,16.3-0.6,24.5-0.7c15.3,0,30.7-0.1,46,0.1c15.5,0.3,30.9,5.2,43.2,14.7
		c15.8,12.1,26.1,30.8,29.1,50.4c1.3,7.9,1.3,15.9,1.2,23.8c-0.1,4.9-1.7,10.4-6,13.3c-6.5,4.2-16.8,3.3-21.3-3.4
		c-4.2-6.6-2.1-14.7-2.8-22.1c-0.8-13.8-6.3-28.1-17.6-36.6c-8-6.7-18.4-10-28.8-10.2c-19,0-38,0-56.9,0c-6.1,0-12.3,0.8-17.9,3.1
		c-3.8,1.4-8,2.7-12.1,1.6c-5.2-1.6-9.5-6.2-10.1-11.7c-0.5-4.1,0.1-8.8,3.2-11.9C436.2,183.4,446.9,182.3,456.1,180.5z"/>
	<path class="st0" d="M239.2,330.7c13.1-1.2,26.3-0.8,39.4-0.8c23,0,46-0.1,69.1,0c13.6,0.2,27.1,2.5,40.2,5.9
		c38.6,11.5,71.7,41.5,85,79.7c3.2,8.8,5,18,6.2,27.2c0.6,7.5,2.1,15.5-1.3,22.6c-4.5,8.9-14.2,14.7-24.1,14.5
		c-101.7,0.1-203.4,0-305.1,0c-6.1,0.1-12.4-1-17.4-4.6c-4.3-3.1-8.3-7.1-9.8-12.4c-1.8-5.2-1.2-10.7-0.7-16.1
		c2.1-27.5,13.7-54.2,32.7-74.2c9.6-10.3,20.7-19.1,33-25.9C202.6,337.4,220.9,332.8,239.2,330.7 M234.7,361.5
		c-21.5,3.4-42,13.5-57.3,29.1c-15.9,15.7-25.3,37.2-27.3,59.3c99.7,0,199.4,0,299,0c-0.7-7.8-1.9-15.6-4.4-23
		c-6.2-20.2-20.2-37.8-37.9-49.2c-14.6-9.9-31.9-15.1-49.3-17.1c-9.3-0.9-18.7-0.6-28-0.6c-20.6,0-41.3,0-62,0
		C256.6,359.9,245.5,359.4,234.7,361.5z"/>
</g>
</svg>
