<?xml version="1.0" encoding="utf-8"?>
<!-- Generator: Adobe Illustrator 24.0.1, SVG Export Plug-In . SVG Version: 6.00 Build 0)  -->
<svg version="1.1" id="Layer_1" xmlns="http://www.w3.org/2000/svg" xmlns:xlink="http://www.w3.org/1999/xlink" x="0px" y="0px"
	 viewBox="0 0 439.8 284.3" style="enable-background:new 0 0 439.8 284.3;" xml:space="preserve">
<style type="text/css">
	.st0{fill:#EE7601;}
	.st1{fill:#FEFEFE;}
</style>
<path class="st0" d="M354.4,0h2.8c7.2,0.5,14,4.8,17.4,11.2c4.1,7.5,3.1,17.4-2.5,23.9c-5.3,6.4-14.4,9.1-22.3,6.8
	c-4.8-1.3-8.8-4.6-11.8-8.4c-4.6,2.5-9.2,5.1-13.8,7.7c1.7,6.8-1,14.5-7.1,18.1c-6.3,4.1-14.8,2.6-20-2.4c-3.8,2.3-7.5,4.5-11.2,6.9
	c0.8,5-0.8,10.4-5.1,13.3c-4.5,3.4-10.7,2.7-15.2-0.3c-3.9,2.6-7.9,5.2-11.7,8c0.1,3.3-0.6,6.9-3.4,9c-2.9,2.6-7.1,2.3-10.5,1
	c-15.2,11.2-29.8,23.2-43.2,36.5c8.3,20.3,15.2,41.3,19.1,62.9c1.1,7,2.6,14.6-0.5,21.4c-2.2,5.6-7.1,11-13.6,10.7
	c-2.1-0.2-5.4-0.4-5.8-3.1c0.5-1.9,2.6-2.7,3.9-4c2.8-2.1,3.6-5.7,3.6-9c0-6.4-1.1-12.8-2.2-19.1c-3.3-17-8.2-33.8-13.9-50.2
	c-5.5,6-10.8,12.1-16,18.4c3.3,0.1,6.7-0.3,10,0.3c3.8,1.3,3.3,7.6-0.7,8.1c-5.3,0.4-10.7,0-16,0.1c-3.8,5-7.5,10.1-11,15.3
	c8.7,0.1,17.4-0.1,26.1,0.1c2.2-0.1,4.2,1.7,4.3,3.9c0.3,2.4-1.9,4.7-4.3,4.6c-10.5,0.1-21.1,0-31.6,0.1c-3.1,5.2-6.1,10.6-8.7,16.1
	c13.1,0.1,26.3,0,39.4,0c1.9-0.1,4,0.6,4.8,2.5c1.4,2.6-0.8,6.2-3.8,6c-14.7,0.2-29.4,0-44,0.1c-3.9,10.4-6.6,21.6-5.5,32.8
	c0.8,9,4.6,17.9,11.2,24.2c1.9,1.9,4.3,3.2,6.2,5.1c1.4,4.3-4.3,6.6-7.7,5.5c-8.1-2.5-15.6-7.5-21.1-14c-7-8.2-9.4-19.3-8.5-29.8
	c1.4-16.9,8.7-32.6,17.2-47.1c14.7-24.4,33.8-46,55.2-64.6c-7.4-19.6-16.1-38.8-26.4-57.1c-9.1-16-19.5-31.4-32.1-44.9
	c-1.3-1.2-1.7-2.8-2-4.5c1.8,0.5,3.6,1.2,4.9,2.6c27.8,27.3,49,60.7,64.9,96.1c13.7-11.6,28.4-21.8,43.3-31.6
	c-0.4-3.8,0.6-8,4.1-10.1c3.4-2.4,7.8-1.5,11.1,0.5c3.8-2.3,7.6-4.6,11.4-6.9c-1-3.1-1.7-6.6-0.5-9.8c1.9-6,8.7-9.8,14.8-8.2
	c3.2,0.6,5.5,2.9,7.7,5.2c3.5-2,7.1-4,10.7-6c-1.8-3.9-2.8-8.3-1.5-12.4c2-7.5,9.8-12.7,17.5-11.5c5.3,0.6,9.7,4.3,12.3,8.7
	c4.5-2.4,9.1-4.7,13.6-7c-2.4-5.2-3.3-11.3-1.4-16.9C338,6.6,345.9,0.6,354.4,0z"/>
<path class="st1" d="M101.5,75.5c6.5,0,13,0,19.5,0c-5.8,26.9-11.6,53.8-17.5,80.7c-1.1,4.9-2,9.7-2,14.7c-6.9,0-13.8,0-20.7,0
	c1.8-4.7,3.5-9.4,4.5-14.3c4.4-20.5,8.9-41,13.3-61.6C99.9,88.6,101.6,82.1,101.5,75.5z"/>
<path class="st1" d="M136.2,78.2c6.1-2.9,13.7,3.1,12.3,9.8c-0.7,6.5-9.3,10-14.4,5.8C128.6,89.9,129.8,80.4,136.2,78.2z"/>
<path class="st1" d="M13.6,112.6c3.5-3.4,8.5-4.3,13.2-4.3c13.7,0,27.4,0,41.1,0c3.6,0.1,7.7,0.5,10.3,3.4c2.6,3,2.1,7.4,1.5,11
	c-1.6,7.2-3.2,14.4-4.9,21.7c-18.2,0-36.4,0-54.6,0c-1.1,5.9-3.4,11.6-3.2,17.7c2.5,1,5.3,0.8,7.9,0.8c12,0,24,0,36,0
	c3.4,0,6.7-0.4,10-1c-1.3,3-2.5,6-3.7,9c-18.4,0-36.8,0-55.2,0c-3.6-0.1-7.8-0.7-10.3-3.6c-2.3-3.2-1.8-7.5-1.1-11.1
	c2.3-10.3,4.7-20.5,7-30.7C8.7,120.8,10.2,116.1,13.6,112.6z M25.9,119.9c-1.3,5.5-2.5,11-3.8,16.5c12.5,0,25,0,37.4,0
	c1.2-5.8,3-11.6,3.9-17.5c0.4-2.1-2.1-2.6-3.6-2.5c-9.6,0-19.2,0-28.8,0C28.8,116.2,26.4,117.5,25.9,119.9z"/>
<path class="st1" d="M127.2,108.4c6.1,0,12.2,0,18.3,0c-3.4,15.2-6.9,30.4-10.3,45.6c-1.2,5.6-2.8,11.2-2.8,16.9c-6.5,0-13,0-19.5,0
	c4.5-10.5,6.1-21.8,8.9-32.8C123.9,128.3,127.2,118.5,127.2,108.4z"/>
<path class="st1" d="M233.3,108.4c6.1,0,12.2,0,18.3,0c-3.4,15.2-6.9,30.4-10.3,45.5c-1.2,5.6-2.8,11.2-2.8,16.9c-6.5,0-13,0-19.5,0
	c1.7-4.2,3.3-8.5,4.3-13c2.6-11.4,5.3-22.9,7.9-34.3C232.4,118.6,233.4,113.5,233.3,108.4z"/>
<path class="st1" d="M284.8,114.5c1.8-3,4.6-5.7,8.3-5.9c6.3-0.4,12.6-0.1,18.9-0.2c1.3,2.3,2.5,4.6,3.8,6.9
	c-1.3,1.5-2.6,2.9-3.9,4.3c-7.6-1-15.4-1.2-23.1-0.9c-3-0.1-4.8,2.7-5.2,5.3c-2.8,12-5.3,24.1-8.1,36.2c-0.8,3.5-1.2,7.1-1.2,10.7
	c-6.5,0-12.9,0-19.4,0c2.2-5.1,3.5-10.5,4.7-15.9c2.8-12.3,5.6-24.7,8.4-37c0.8-3.2,1.1-6.4,1.1-9.6c5.4,0,10.9,0,16.3,0
	C285.3,110.4,285.1,112.4,284.8,114.5z"/>
<path class="st1" d="M174.2,259.4c1.4-2.7,4.5-4.4,7.6-4.3c6.3-0.1,12.6,0,18.9,0c-0.4,1.6-0.8,3.3-1.2,4.9
	c-4.5,0.1-9.1-0.2-13.6,0.2c-1.7,0.3-1.6,2.4-2.1,3.6c-1.2,5.2-2.8,10.2-3.6,15.4c4.8,0.4,9.6,0.1,14.4,0.2
	c-0.4,1.6-0.8,3.3-1.2,4.9c-6.5,0-13,0.1-19.5,0c-2.4,0.1-4.7-1.7-4.7-4.2c-0.1-3.6,1.3-7.1,2.1-10.6
	C172.2,266.1,172.6,262.5,174.2,259.4z"/>
<path class="st1" d="M208.4,255.6c6.4-1.1,13.1-0.2,19.6-0.5c2.7-0.3,6.2,0.8,6.4,4c0,5.4-2.3,10.6-3.3,15.9
	c-0.7,4.2-3.3,8.9-8.1,9.3c-6.7,0.1-13.4,0.2-20.1,0c-2.6-0.1-4.5-2.6-4.1-5.2c0.7-5.1,2.3-10,3.4-15
	C203,260.5,204.7,256.7,208.4,255.6z M214,262c-1.4,5.7-3.1,11.4-4.1,17.1c2.7,0.3,5.4,0.5,8.1,0.1c1.3-0.5,1.3-2,1.7-3.1
	c1.3-5.1,2.5-10.3,3.9-15.4c-2.1-1.1-4.5-0.7-6.7-0.7C215.5,259.9,214.1,260.6,214,262z"/>
<path class="st1" d="M240.6,255.1c4.9,0,9.7,0,14.6,0c2,8,3.9,16,5.9,24c2-8,4-16,6-24c1.6,0,3.3,0,4.9,0
	c-2.4,9.7-4.9,19.4-7.3,29.2c-4.8,0-9.6,0-14.5,0c-2-8.1-4-16.2-6.1-24.3c-2,8.1-4,16.2-6.1,24.3c-1.6,0-3.2,0-4.9,0
	C235.7,274.5,238.1,264.8,240.6,255.1z"/>
<path class="st1" d="M276.2,255.1c4,0,7.9,0,11.9,0c0.9,7.6,1.7,15.3,2.6,22.9c4.9-7.6,9.7-15.3,14.6-22.9c1.8,0,3.6,0,5.4,0
	c-6.2,9.7-12.4,19.5-18.6,29.2c-4.2,0-8.3,0-12.5,0C278.4,274.6,277.3,264.8,276.2,255.1z"/>
<path class="st1" d="M314.9,255.1c8.4,0,16.9,0,25.3,0c-0.4,1.6-0.8,3.3-1.2,4.9c-4.7,0-9.4,0-14.1,0c-0.6,2.3-1.1,4.5-1.7,6.8
	c4.3,0,8.6,0,13,0c-0.4,1.6-0.8,3.2-1.2,4.9c-4.3,0-8.6,0-13,0c-0.6,2.6-1.3,5.2-2,7.7c4.7,0,9.4,0,14.1,0c-0.4,1.6-0.8,3.2-1.2,4.9
	c-8.4,0-16.9,0-25.3,0C310,274.5,312.5,264.8,314.9,255.1z"/>
<path class="st1" d="M344.5,255.1c8.1,0,16.3-0.1,24.4,0.1c2.2,0,4.9,1.3,4.8,3.8c-0.3,3.3-1.3,6.5-2.3,9.6c-0.7,2.1-3,2.8-5,3.2
	c1,4.1,1.9,8.3,2.9,12.5c-4.1,0-8.1,0-12.2,0c-0.7-4.2-1.4-8.4-2.1-12.6c-0.9,0-2.5,0-3.4,0c-1.1,4.2-2.1,8.4-3.2,12.6
	c-3.7,0-7.4,0-11.2,0C339.7,274.5,342.1,264.8,344.5,255.1z M354.5,260c-0.6,2.3-1.1,4.5-1.7,6.8c2.6-0.1,5.2,0.3,7.7-0.3
	c1.3-1.8,1.4-4.2,1.8-6.4C359.7,260,357.1,260,354.5,260z"/>
<path class="st1" d="M377.4,262c0.9-3.5,3.8-6.7,7.6-6.9c7.9-0.2,15.9,0,23.8-0.1c-0.4,1.6-0.8,3.3-1.2,4.9
	c-5.8,0.1-11.7-0.2-17.5,0.2c-0.3,0.2-0.9,0.7-1.2,1c-1.7,6-3.4,12-4.4,18.1c2.5-0.1,5.8,1.1,7.8-0.8c0.9-2.2,1.3-4.5,1.9-6.8
	c-2,0-4,0-6,0c0.4-1.6,0.8-3.3,1.2-4.9c5.7,0,11.5,0,17.2,0c-1.5,5.8-2.9,11.7-4.4,17.5c-3,0-6,0-9,0c0.2-0.6,0.5-1.8,0.7-2.4
	c-1,1.2-2.2,2.6-4,2.4c-4.3,0-8.7,0.3-13-0.2c-2.8-0.4-4-3.6-3.4-6.1C374.6,272.6,376,267.4,377.4,262z"/>
<path class="st1" d="M414.5,255.1c8.5,0,16.9,0,25.3,0c-0.4,1.6-0.8,3.3-1.2,4.9c-4.7,0-9.4,0-14.2,0c-0.6,2.3-1.1,4.5-1.7,6.8
	c4.3,0,8.6,0,13,0c-0.4,1.6-0.8,3.2-1.2,4.9c-4.3,0-8.6,0-13,0c-0.6,2.6-1.3,5.2-2,7.8c4.7,0,9.4,0,14.1,0c-0.4,1.6-0.8,3.3-1.2,4.9
	c-8.4,0-16.9,0-25.3,0C409.6,274.5,412,264.8,414.5,255.1z"/>
</svg>
