<?xml version="1.0" encoding="utf-8"?>
<!-- Generator: Adobe Illustrator 24.1.2, SVG Export Plug-In . SVG Version: 6.00 Build 0)  -->
<svg version="1.1" xmlns="http://www.w3.org/2000/svg" xmlns:xlink="http://www.w3.org/1999/xlink" x="0px" y="0px"
	 viewBox="0 0 250.9 251" style="enable-background:new 0 0 250.9 251;" xml:space="preserve">
<style type="text/css">
	.st0{fill:#9E51AD;}
	.st1{fill:#FA484B;}
	.st2{fill:#4176A5;}
	.st3{fill:#32B890;}
	.st4{fill:#8ABA56;}
	.st5{fill:#F67028;}
	.st6{fill:#FAC54B;}
	.st7{opacity:0.41;fill:#2A2E3D;}
	.st8{opacity:0.41;fill:#C23669;}
</style>
<g id="Life_cycle_wheel">
	<g>
		<path class="st0" d="M53,107.9c0.1-0.2,0.1-0.4,0.1-0.6c0-0.4-0.1-0.7-0.4-0.9s-0.6-0.3-1.2-0.3c-0.5,0-0.8,0.1-1.1,0.2
			s-0.4,0.4-0.5,0.7c-0.1,0.3-0.1,0.7-0.1,1.1h2.6C52.7,108.2,52.9,108.1,53,107.9z"/>
		<path class="st0" d="M75.4,89.4L60.6,56.3l-34.8-7C9.6,70.4,0,96.8,0,125.5c0,8.6,0.9,17,2.5,25.1l27.3-22.8l35.1,9
			c-0.7-3.7-1.1-7.5-1.1-11.4C63.8,112,68.1,99.5,75.4,89.4z M26.2,110.8c-0.1,0.3-0.3,0.6-0.6,0.8c-0.3,0.2-0.6,0.3-1,0.4
			s-0.9,0.1-1.4,0.1c-0.3,0-0.7,0-1.2,0s-1.1-0.1-1.7-0.2l0.1-1c0.5,0,1,0,1.3,0s0.6,0,0.9,0s0.5,0,0.7,0c0.4,0,0.8,0,1.1-0.1
			s0.4-0.2,0.6-0.4s0.2-0.5,0.2-0.9c0-0.3,0-0.6-0.1-0.8c-0.1-0.2-0.2-0.3-0.4-0.4s-0.4-0.2-0.6-0.2l-1.9-0.5
			c-0.7-0.2-1.2-0.5-1.4-0.9c-0.3-0.4-0.4-1-0.4-1.7c0-0.5,0.1-1,0.2-1.3s0.3-0.6,0.6-0.7c0.3-0.2,0.6-0.3,1-0.3
			c0.4-0.1,0.9-0.1,1.4-0.1c0.4,0,0.9,0,1.4,0.1s1,0.1,1.4,0.2l-0.1,1c-0.4,0-0.8,0-1.3,0s-0.9,0-1.4,0c-0.3,0-0.6,0-0.8,0
			c-0.2,0-0.4,0.1-0.6,0.1s-0.2,0.2-0.3,0.4c-0.1,0.2-0.1,0.4-0.1,0.7c0,0.5,0.1,0.8,0.3,1s0.5,0.3,0.9,0.4l1.9,0.5
			c0.7,0.2,1.2,0.5,1.5,0.9s0.4,1,0.4,1.7C26.4,110,26.3,110.4,26.2,110.8z M34,111.9h-1.3v-4.6c0-0.4-0.1-0.7-0.2-0.9
			s-0.4-0.2-0.7-0.2c-0.4,0-0.8,0.1-1.2,0.3c-0.4,0.2-0.8,0.4-1.3,0.7v4.7H28v-9.5h1.3v2.6c0,0.3,0,0.6,0,0.9c0,0.2,0,0.3-0.1,0.5
			c0.5-0.4,0.9-0.6,1.4-0.9c0.5-0.2,1-0.3,1.5-0.3c1.2,0,1.8,0.6,1.8,1.8v4.9H34z M41.5,111.9h-1l-0.2-1.1l-0.1,0.1
			c-0.2,0.2-0.4,0.3-0.7,0.5s-0.5,0.3-0.9,0.4c-0.3,0.1-0.7,0.2-1,0.2c-0.4,0-0.7-0.1-1-0.2s-0.5-0.3-0.7-0.6s-0.3-0.6-0.3-1v-0.7
			c0-0.5,0.2-0.9,0.5-1.2c0.3-0.3,0.8-0.4,1.4-0.4h2.7v-0.5c0-0.4-0.1-0.7-0.3-0.8c-0.2-0.2-0.5-0.3-1-0.3c-0.3,0-0.8,0-1.3,0.1
			c-0.5,0-1,0.1-1.5,0.1l-0.1-0.9c0.3-0.1,0.6-0.1,1-0.1s0.8-0.1,1.1-0.1c0.4,0,0.7,0,1.1,0c0.5,0,0.9,0.1,1.3,0.2
			c0.3,0.1,0.6,0.4,0.8,0.7c0.2,0.3,0.3,0.7,0.3,1.3L41.5,111.9L41.5,111.9z M41,95.9c-0.6-0.5-1-1.3-1.1-2.1
			c-0.1-0.6,0-1.2,0.2-1.8c-0.7-0.4-1.4-0.8-2.2-1.2c-0.4-0.2-0.7-0.4-1-0.5c-0.8-0.5-1.7-0.9-2.5-1.4c-0.5,0.4-1.1,0.7-1.7,0.8
			c-0.8,0.2-1.7,0-2.5-0.4c-0.6-0.4-1.1-0.9-1.4-1.5c-0.4-0.7-0.5-1.5-0.3-2.3c0.1-0.6,0.4-1.1,0.7-1.6c0.4-0.5,1-0.9,1.7-1.2
			c0.6-0.2,1.3-0.3,2-0.1c0.6,0.1,1.1,0.4,1.5,0.8c1.1-0.6,2.2-1.2,3.3-1.8c0.1-0.1,0.3-0.1,0.4-0.2c0.7-0.4,1.4-0.8,2.2-1.2
			c-0.7-1.3-0.4-3.1,0.7-4.1c0.4-0.6,1-0.9,1.7-1.1c0.7-0.1,1.5-0.1,2.2,0.3c1,0.4,1.7,1.3,2,2.3c0.2,0.6,0.1,1.4-0.1,2
			c-0.4,1.1-1.3,2-2.4,2.4c-0.4,0.1-0.8,0.1-1.3,0.1c-0.6-0.1-1.1-0.2-1.6-0.5c-1.1,0.6-2.2,1.2-3.3,1.8c-0.2,0.1-0.3,0.2-0.5,0.3
			c-0.8,0.4-1.5,0.9-2.3,1.3c0.1,0.4,0.2,0.8,0.2,1.2s-0.1,0.8-0.2,1.1c0.8,0.4,1.5,0.9,2.3,1.3c0.2,0.1,0.3,0.2,0.5,0.3
			c1,0.6,2,1.1,3,1.7c0.5-0.4,1.1-0.7,1.8-0.7c0.8-0.1,1.6,0.1,2.3,0.5c1,0.6,1.7,1.7,1.7,2.8c0,0.7-0.1,1.4-0.4,1.9
			c-0.3,0.6-0.8,1.1-1.4,1.4c-0.3,0.2-0.7,0.3-1,0.4c-0.6,0.1-1.3,0.1-1.9-0.2C41.8,96.5,41.4,96.3,41,95.9z M47.5,106.3h-0.4
			c-0.4,0-0.7,0.1-1.1,0.2c-0.3,0.1-0.8,0.3-1.3,0.6v4.8h-1.3v-6.6h1l0.1,1c0.5-0.4,0.9-0.7,1.4-0.9c0.5-0.2,1-0.3,1.4-0.3h0.3
			L47.5,106.3z M50,110c0.1,0.4,0.3,0.6,0.6,0.7s0.7,0.2,1.2,0.2c0.3,0,0.7,0,1.2,0c0.4,0,0.8-0.1,1.2-0.1l0.1,0.9
			c-0.2,0.1-0.5,0.2-0.8,0.2c-0.3,0.1-0.6,0.1-0.9,0.1c-0.3,0-0.6,0-0.9,0c-0.8,0-1.4-0.1-1.9-0.4c-0.5-0.2-0.8-0.6-1-1.1
			s-0.3-1.2-0.3-2c0-0.9,0.1-1.5,0.3-2.1c0.2-0.5,0.6-0.9,1-1.1s1-0.3,1.8-0.3c1,0,1.8,0.2,2.2,0.5c0.5,0.4,0.7,0.9,0.7,1.6
			c0,0.6-0.1,1.1-0.4,1.4c-0.3,0.3-0.7,0.5-1.3,0.5h-2.9C49.9,109.5,49.9,109.8,50,110z"/>
		<path class="st0" d="M40.2,108.7h-2.4c-0.3,0-0.5,0.1-0.6,0.2s-0.2,0.4-0.2,0.6v0.4c0,0.3,0.1,0.6,0.2,0.7
			c0.2,0.1,0.4,0.2,0.7,0.2s0.5,0,0.8-0.1s0.6-0.2,0.9-0.4c0.2-0.1,0.3-0.2,0.5-0.3L40.2,108.7L40.2,108.7z"/>
	</g>
	<g>
		<path class="st1" d="M84.5,46.8c0-0.4-0.1-0.8-0.2-1s-0.3-0.4-0.5-0.5c-0.3-0.1-0.6-0.1-1-0.1c-0.7,0-1.4,0-1.9,0v3.3h1.9
			c0.4,0,0.8-0.1,1-0.2s0.4-0.3,0.5-0.5C84.5,47.6,84.5,47.3,84.5,46.8z"/>
		<path class="st1" d="M122.9,0C85.3,0.8,51.7,18.1,29.2,45l34.7,7.1l14.9,33.1c10.7-12.4,26.2-20.5,43.6-21.3l16.7-32.3L122.9,0z
			 M81.5,27.7c0-0.4,0.3-0.7,0.7-0.7c1.1,0,2.3,0,3.4,0c0.2-1.9,0.8-3.7,1.8-5.2c1.3-1.8,3.1-3.4,5.1-4.4c2-0.9,4.1-1.3,6.3-1.3
			c0.2,0,0.4,0.1,0.5,0.3c0.2,0.2,0.2,0.6,0,0.8c-0.1,0.2-0.4,0.3-0.6,0.4c-0.4,0.2-0.8,0.3-1.1,0.5c-0.3,0.2-0.6,0.3-0.9,0.5
			c-0.6,0.4-1.2,0.8-1.7,1.2c-0.8,0.7-1.5,1.4-2,2.3c-1,1.5-1.6,3.2-1.8,5c1.1,0,2.2,0,3.3,0c0.3,0,0.5,0.1,0.6,0.4
			c0.1,0.2,0.1,0.4,0,0.6s-0.3,0.4-0.5,0.6c-1.9,2.1-3.9,4.3-5.8,6.4c-0.2,0.2-0.5,0.3-0.8,0.2c-0.1-0.1-0.2-0.2-0.3-0.3
			c-1.9-2.1-3.9-4.3-5.8-6.5C81.7,28.3,81.4,28,81.5,27.7z M84.8,53.5L84,50.6c-0.1-0.3-0.3-0.6-0.4-0.7c-0.2-0.1-0.4-0.2-0.7-0.2
			c-0.6,0-1.1,0-1.5,0c-0.2,0-0.3,0-0.5,0v3.9h-1.3v-9.3c0.3,0,0.7-0.1,1-0.1s0.6,0,1,0s0.8,0,1.3,0c0.7,0,1.3,0.1,1.8,0.2
			s0.8,0.4,1,0.8s0.3,0.9,0.3,1.6c0,0.5-0.1,0.9-0.2,1.2s-0.3,0.6-0.5,0.8s-0.6,0.3-1,0.4v0.1c0.2,0,0.3,0.1,0.5,0.2
			c0.2,0.1,0.3,0.3,0.4,0.4c0.1,0.2,0.2,0.4,0.3,0.7l0.9,2.9C86.4,53.5,84.8,53.5,84.8,53.5z M89,51.6c0.1,0.4,0.3,0.6,0.6,0.7
			c0.3,0.1,0.7,0.2,1.2,0.2c0.3,0,0.7,0,1.2,0c0.4,0,0.8-0.1,1.2-0.1l0.1,0.9c-0.2,0.1-0.5,0.2-0.8,0.2c-0.3,0.1-0.6,0.1-0.9,0.1
			s-0.6,0-0.9,0c-0.8,0-1.4-0.1-1.9-0.4c-0.5-0.2-0.8-0.6-1-1.1s-0.3-1.2-0.3-2c0-0.9,0.1-1.5,0.3-2.1c0.2-0.5,0.6-0.9,1-1.1
			s1-0.3,1.8-0.3c1,0,1.8,0.2,2.2,0.5c0.5,0.4,0.7,0.9,0.7,1.6c0,0.6-0.1,1.1-0.4,1.4c-0.3,0.3-0.7,0.5-1.3,0.5h-2.9
			C88.9,51.1,88.9,51.4,89,51.6z M93.9,37.2c0.1-0.1,0.1-0.3,0.3-0.4c0.5-0.3,1.1-0.5,1.6-0.8c0.6-0.4,1.3-0.7,1.9-1.2
			c0.9-0.7,1.7-1.5,2.4-2.4c0.5-0.7,0.9-1.5,1.3-2.3c0.4-1,0.7-2,0.8-3.1c-1.1,0-2.3,0-3.5,0c-0.4,0-0.8-0.4-0.7-0.8
			c0-0.3,0.3-0.5,0.5-0.8c2.1-2,4.1-4.2,6-6.3c0.3-0.3,0.8-0.3,1,0c2,2.2,3.9,4.4,5.9,6.5c0.2,0.2,0.5,0.5,0.4,0.8
			c0,0.4-0.4,0.7-0.7,0.7c-1.1,0-2.3,0-3.4,0c-0.2,2.3-1.1,4.4-2.5,6.2c-1.3,1.7-3.2,3-5.2,3.8c-0.6,0.2-1.2,0.4-1.8,0.6
			c-1.2,0.3-2.4,0.4-3.7,0.4C94.1,38.1,93.8,37.6,93.9,37.2z M100.8,53.5h-1.1l-0.1-1c-0.5,0.4-0.9,0.6-1.4,0.8s-1,0.3-1.5,0.3
			c-1.2,0-1.8-0.6-1.8-1.8v-5h1.3v4.6c0,0.4,0.1,0.7,0.2,0.8c0.2,0.2,0.4,0.2,0.8,0.2s0.7-0.1,1-0.2c0.3-0.1,0.7-0.4,1.1-0.6v-4.8
			h1.3v6.7H100.8z M107.8,53c-0.2,0.3-0.5,0.5-0.9,0.6s-1,0.1-1.6,0.1c-0.2,0-0.6,0-1.1,0s-1-0.1-1.6-0.2l0.1-0.9c0.2,0,0.4,0,0.7,0
			s0.5,0,0.8,0s0.6,0,0.8,0c0.5,0,0.9,0,1.1-0.1c0.3,0,0.5-0.1,0.6-0.2c0.1-0.1,0.2-0.3,0.2-0.5c0-0.3-0.1-0.5-0.3-0.6
			c-0.2-0.1-0.4-0.2-0.7-0.3l-1.8-0.4c-0.4-0.1-0.7-0.2-0.9-0.4s-0.4-0.4-0.5-0.6c-0.1-0.2-0.1-0.5-0.1-0.9c0-0.5,0.1-0.9,0.3-1.2
			c0.2-0.3,0.5-0.4,0.8-0.5c0.4-0.1,0.9-0.1,1.5-0.1c0.3,0,0.6,0,0.9,0s0.7,0,1,0.1c0.3,0,0.6,0.1,0.9,0.1l-0.1,0.9
			c-0.4,0-0.8,0-1.3,0s-0.8,0-1.2,0c-0.4,0-0.7,0-0.9,0c-0.2,0-0.4,0.1-0.5,0.2c-0.1,0.1-0.1,0.3-0.1,0.6s0.1,0.5,0.2,0.6
			c0.2,0.1,0.4,0.2,0.7,0.3l1.9,0.4c0.5,0.1,0.9,0.3,1.2,0.6c0.3,0.3,0.4,0.7,0.4,1.2C108.1,52.3,108,52.7,107.8,53z M111,51.6
			c0.1,0.4,0.3,0.6,0.6,0.7c0.3,0.1,0.7,0.2,1.2,0.2c0.3,0,0.7,0,1.2,0c0.4,0,0.8-0.1,1.2-0.1l0.1,0.9c-0.2,0.1-0.5,0.2-0.8,0.2
			c-0.3,0.1-0.6,0.1-0.9,0.1s-0.6,0-0.9,0c-0.8,0-1.4-0.1-1.9-0.4c-0.5-0.2-0.8-0.6-1-1.1s-0.3-1.2-0.3-2c0-0.9,0.1-1.5,0.3-2.1
			c0.2-0.5,0.6-0.9,1-1.1s1-0.3,1.8-0.3c1,0,1.8,0.2,2.2,0.5c0.5,0.4,0.7,0.9,0.7,1.6c0,0.6-0.1,1.1-0.4,1.4
			c-0.3,0.3-0.7,0.5-1.3,0.5h-2.9C110.8,51.1,110.9,51.4,111,51.6z"/>
		<path class="st1" d="M114,49.6c0.1-0.2,0.1-0.4,0.1-0.6c0-0.4-0.1-0.7-0.4-0.9s-0.6-0.3-1.2-0.3c-0.5,0-0.8,0.1-1.1,0.2
			c-0.3,0.1-0.4,0.4-0.5,0.7s-0.1,0.7-0.1,1.1h2.6C113.7,49.8,113.9,49.7,114,49.6z"/>
		<path class="st1" d="M92,49.6c0.1-0.2,0.1-0.4,0.1-0.6c0-0.4-0.1-0.7-0.4-0.9s-0.6-0.3-1.2-0.3c-0.5,0-0.8,0.1-1.1,0.2
			c-0.3,0.1-0.4,0.4-0.5,0.7s-0.1,0.7-0.1,1.1h2.6C91.7,49.8,91.9,49.7,92,49.6z"/>
	</g>
	<g>
		<path class="st2" d="M27.7,179.3c-0.3-0.1-0.6-0.2-1-0.2c-0.7,0-1.4,0-1.9,0v3.6c0.1,0,0.2,0,0.3,0c0.5,0,1,0,1.6,0
			c0.4,0,0.8-0.1,1-0.2c0.3-0.1,0.4-0.3,0.5-0.5c0.1-0.3,0.2-0.6,0.2-1.1s-0.1-0.9-0.2-1.1C28.1,179.6,28,179.4,27.7,179.3z"/>
		<path class="st2" d="M74.5,183.8c0.3,0,0.5-0.1,0.6-0.3s0.1-0.4,0.1-0.6c0-0.4-0.1-0.7-0.4-0.9s-0.6-0.3-1.2-0.3
			c-0.5,0-0.8,0.1-1.1,0.2c-0.3,0.1-0.4,0.4-0.5,0.7s-0.1,0.7-0.1,1.1h2.6V183.8z"/>
		<path class="st2" d="M40.9,183.6c0.1-0.2,0.1-0.4,0.1-0.6c0-0.4-0.1-0.7-0.4-0.9s-0.6-0.3-1.2-0.3c-0.5,0-0.8,0.1-1.1,0.2
			c-0.3,0.1-0.4,0.4-0.5,0.7s-0.1,0.7-0.1,1.1h2.6C40.6,183.8,40.8,183.7,40.9,183.6z"/>
		<path class="st2" d="M55.1,183.6c0.1-0.2,0.1-0.4,0.1-0.6c0-0.4-0.1-0.7-0.4-0.9s-0.6-0.3-1.2-0.3c-0.5,0-0.8,0.1-1.1,0.2
			c-0.3,0.1-0.4,0.4-0.5,0.7s-0.1,0.7-0.1,1.1h2.6C54.8,183.8,55,183.7,55.1,183.6z"/>
		<path class="st2" d="M96.6,179.9c-14.7-7.8-25.8-21.4-30.4-37.8L31,133L3.8,155.8c8.8,35.5,32.8,65.1,64.7,81.4l-0.9-35.5
			L96.6,179.9z M29.5,182.8c-0.2,0.4-0.5,0.7-0.9,0.9s-1,0.2-1.7,0.2c-0.4,0-0.8,0-1.1,0c-0.4,0-0.7,0-1-0.1v3.7h-1.4v-9.3
			c0.3,0,0.7-0.1,1-0.1s0.6,0,1,0s0.8,0,1.3,0c0.8,0,1.4,0.1,1.8,0.3s0.8,0.5,1,0.9s0.3,1,0.3,1.8C29.8,181.8,29.7,182.4,29.5,182.8
			z M35.4,182H35c-0.4,0-0.7,0.1-1.1,0.2c-0.3,0.1-0.8,0.3-1.3,0.6v4.8h-1.3V181h1l0.1,1c0.5-0.4,0.9-0.7,1.4-0.9s1-0.3,1.4-0.3h0.3
			L35.4,182z M70.8,182.1c0.2-0.5,0.6-0.9,1-1.1s1-0.3,1.8-0.3c1,0,1.8,0.2,2.2,0.5c0.5,0.4,0.7,0.9,0.7,1.6c0,0.6-0.1,1.1-0.4,1.4
			c-0.3,0.3-0.7,0.5-1.3,0.5h-2.9c0,0.4,0.1,0.6,0.2,0.9c0.1,0.4,0.3,0.6,0.6,0.7c0.3,0.1,0.7,0.2,1.2,0.2c0.3,0,0.7,0,1.2,0
			c0.4,0,0.8-0.1,1.2-0.1l0.1,0.9c-0.2,0.1-0.5,0.2-0.8,0.2c-0.3,0.1-0.6,0.1-0.9,0.1s-0.6,0-0.9,0c-0.8,0-1.4-0.1-1.9-0.4
			c-0.5-0.2-0.8-0.6-1-1.1s-0.3-1.2-0.3-2C70.5,183.3,70.6,182.6,70.8,182.1z M39.5,152.4c0.7-0.6,1.5-0.9,2.4-1.2
			c1.2-0.4,2.5-0.6,3.8-0.8c0.9-0.1,1.8-0.1,2.7-0.2c1.8,0,3.6,0.1,5.3,0.4c1,0.2,2.1,0.5,3.1,0.9c0.6,0.3,1.2,0.6,1.7,1
			c0.3,0.3,0.5,0.6,0.6,1c0,0.4-0.1,0.7-0.3,1c-0.3,0.4-0.8,0.8-1.3,1c-0.8,0.4-1.7,0.7-2.5,0.9c-1.4,0.4-2.9,0.5-4.4,0.6
			c-2.3,0.1-4.7,0-7-0.5c-1-0.2-1.9-0.5-2.8-0.9c-0.6-0.3-1.1-0.6-1.5-1.1c-0.2-0.3-0.4-0.7-0.4-1C38.9,153.1,39.2,152.7,39.5,152.4
			z M42.9,158.6c2.1,0.5,4.3,0.6,6.4,0.6c1,0,2-0.1,3.1-0.2c2-0.2,4-0.6,5.8-1.4c0.4-0.2,0.7-0.3,1-0.6c0,1.4,0,2.8,0,4.2
			c0,0.3-0.1,0.7-0.3,0.9c-0.3,0.4-0.7,0.7-1.2,0.9c-0.3,0.2-0.5,0.3-0.8,0.4c-1.6,0.6-3.3,0.9-4.9,1.1c-1.9,0.2-3.8,0.2-5.7,0
			c-1.3-0.1-2.5-0.3-3.7-0.7c-1-0.3-2-0.6-2.8-1.3c-0.3-0.3-0.7-0.6-0.8-1c0-0.1,0-0.3,0-0.4c-0.1-1.3-0.1-2.7-0.1-4
			C40.1,157.9,41.5,158.3,42.9,158.6z M37.9,185.6c0.1,0.4,0.3,0.6,0.6,0.7c0.3,0.1,0.7,0.2,1.2,0.2c0.3,0,0.7,0,1.2,0
			c0.4,0,0.8-0.1,1.2-0.1l0.1,0.9c-0.2,0.1-0.5,0.2-0.8,0.2c-0.3,0.1-0.6,0.1-0.9,0.1c-0.3,0-0.6,0-0.9,0c-0.8,0-1.4-0.1-1.9-0.4
			c-0.5-0.2-0.8-0.6-1-1.1s-0.3-1.2-0.3-2c0-0.9,0.1-1.5,0.3-2.1c0.2-0.5,0.6-0.9,1-1.1s1-0.3,1.8-0.3c1,0,1.8,0.2,2.2,0.5
			c0.5,0.4,0.7,0.9,0.7,1.6c0,0.6-0.1,1.1-0.4,1.4c-0.3,0.3-0.7,0.5-1.3,0.5h-2.9C37.8,185.1,37.8,185.4,37.9,185.6z M49,187
			c-0.2,0.3-0.5,0.5-0.9,0.6s-1,0.1-1.6,0.1c-0.2,0-0.6,0-1.1,0s-1-0.1-1.6-0.2l0.1-0.9c0.2,0,0.4,0,0.7,0s0.5,0,0.8,0s0.6,0,0.8,0
			c0.5,0,0.9,0,1.1-0.1c0.3,0,0.5-0.1,0.6-0.2c0.1-0.1,0.2-0.3,0.2-0.5c0-0.3-0.1-0.5-0.3-0.6s-0.4-0.2-0.7-0.3l-1.8-0.4
			c-0.4-0.1-0.7-0.2-0.9-0.4s-0.4-0.4-0.5-0.6c-0.1-0.2-0.1-0.5-0.1-0.9c0-0.5,0.1-0.9,0.3-1.2s0.5-0.4,0.8-0.5
			c0.4-0.1,0.9-0.1,1.5-0.1c0.3,0,0.6,0,0.9,0c0.3,0,0.7,0,1,0.1c0.3,0,0.6,0.1,0.9,0.1l-0.1,0.9c-0.4,0-0.8,0-1.3,0s-0.8,0-1.2,0
			s-0.7,0-0.9,0s-0.4,0.1-0.5,0.2c-0.1,0.1-0.1,0.3-0.1,0.6s0.1,0.5,0.2,0.6c0.2,0.1,0.4,0.2,0.7,0.3l1.9,0.4
			c0.5,0.1,0.9,0.3,1.2,0.6s0.4,0.7,0.4,1.2C49.3,186.3,49.2,186.7,49,187z M48.2,172.5c-1.8-0.1-3.6-0.3-5.4-0.7
			c-1-0.3-2.1-0.7-3-1.4c-0.3-0.2-0.5-0.5-0.7-0.8c-0.1-0.3-0.1-0.6-0.1-0.8c-0.1-1.4-0.1-2.7-0.1-4c0.5,0.3,1,0.5,1.6,0.8
			c1.9,0.7,3.9,1.1,5.9,1.2c1.9,0.1,3.7,0.1,5.6,0c1.9-0.2,3.9-0.5,5.7-1.2c0.5-0.2,1.1-0.5,1.6-0.8c0,1.4,0,2.8,0,4.2
			c0,0.2,0,0.3-0.1,0.5c-0.1,0.4-0.4,0.6-0.7,0.9c-0.7,0.6-1.6,0.9-2.4,1.2c-0.6,0.2-1.3,0.4-1.9,0.5c-1.1,0.2-2.2,0.3-3.3,0.4
			C50,172.6,49.1,172.5,48.2,172.5z M52.1,185.6c0.1,0.4,0.3,0.6,0.6,0.7c0.3,0.1,0.7,0.2,1.2,0.2c0.3,0,0.7,0,1.2,0
			c0.4,0,0.8-0.1,1.2-0.1l0.1,0.9c-0.2,0.1-0.5,0.2-0.8,0.2c-0.3,0.1-0.6,0.1-0.9,0.1c-0.3,0-0.6,0-0.9,0c-0.8,0-1.4-0.1-1.9-0.4
			c-0.5-0.2-0.8-0.6-1-1.1s-0.3-1.2-0.3-2c0-0.9,0.1-1.5,0.3-2.1c0.2-0.5,0.6-0.9,1-1.1s1-0.3,1.8-0.3c1,0,1.8,0.2,2.2,0.5
			c0.5,0.4,0.7,0.9,0.7,1.6c0,0.6-0.1,1.1-0.4,1.4c-0.3,0.3-0.7,0.5-1.3,0.5H52C52,185.1,52.1,185.4,52.1,185.6z M62.3,182h-0.4
			c-0.4,0-0.7,0.1-1.1,0.2c-0.3,0.1-0.8,0.3-1.3,0.6v4.8h-1.3V181h1l0.1,1c0.5-0.4,0.9-0.7,1.4-0.9s1-0.3,1.4-0.3h0.3L62.3,182z
			 M67.1,187.4c-0.1,0.1-0.2,0.1-0.3,0.1h-1.2c-0.1,0-0.2,0-0.3-0.1c-0.1-0.1-0.1-0.1-0.2-0.2l-2.4-6.3h1.4l1.6,4.5
			c0.1,0.2,0.1,0.4,0.2,0.6c0.1,0.2,0.1,0.4,0.2,0.6h0.2c0.1-0.2,0.1-0.4,0.2-0.6c0.1-0.2,0.1-0.4,0.2-0.6l1.5-4.5h1.4l-2.4,6.3
			C67.3,187.3,67.2,187.4,67.1,187.4z"/>
	</g>
	<g>
		<path class="st3" d="M139.1,230.5c0.1-0.2,0.1-0.4,0.1-0.6c0-0.4-0.1-0.7-0.4-0.9s-0.6-0.3-1.2-0.3c-0.5,0-0.8,0.1-1.1,0.2
			c-0.3,0.1-0.4,0.4-0.5,0.7s-0.1,0.7-0.1,1.1h2.6C138.9,230.8,139.1,230.7,139.1,230.5z"/>
		<path class="st3" d="M113.7,231.3h-2.4c-0.3,0-0.5,0.1-0.6,0.2s-0.2,0.4-0.2,0.6v0.4c0,0.3,0.1,0.6,0.2,0.7
			c0.2,0.1,0.4,0.2,0.7,0.2c0.3,0,0.5,0,0.8-0.1s0.6-0.2,0.9-0.4c0.2-0.1,0.3-0.2,0.5-0.3L113.7,231.3L113.7,231.3z"/>
		<path class="st3" d="M149,218.3l1-36.2c-7.5,3.3-15.8,5.1-24.5,5.1c-8.5,0-16.6-1.7-24-4.9l-29.1,21.8l0.9,35.5
			c15.9,7.3,33.6,11.4,52.2,11.4c18.4,0,36-4,51.7-11.1L149,218.3z M99.1,234.4l-0.9-2.8h-3.7l-0.9,2.8h-1.4l2.9-9
			c0-0.1,0.1-0.2,0.2-0.3s0.2-0.1,0.3-0.1H97c0.1,0,0.2,0,0.3,0.1s0.2,0.2,0.2,0.3l2.9,9H99.1z M113.9,203.4
			c0.1-0.5,0.3-0.8,0.7-0.9c0.2,0,0.3,0,0.5,0c1.2,0,2.4,0,3.6,0c0.2,0,0.4,0,0.5,0.1c0.3,0.1,0.5,0.3,0.5,0.6c0,0.1,0,0.3,0,0.4
			c0,5,0,9.9,0,14.9c0,0.5-0.4,0.9-0.8,0.9c-1.3,0-2.6,0-3.9,0c-0.2,0-0.4,0-0.6-0.1c-0.3-0.1-0.5-0.4-0.5-0.8
			C113.9,213.5,113.9,208.5,113.9,203.4z M105.6,209.9c0-0.2,0-0.4,0.1-0.6c-0.1-0.3,0.2-0.6,0.6-0.6c1.4,0,2.9,0,4.3,0
			c0.4,0,0.8,0.4,0.8,0.8c0,2.9,0,5.8,0,8.8c0,0.3-0.1,0.6-0.4,0.8c-0.2,0.1-0.4,0.2-0.5,0.2c-1.2,0-2.5,0-3.7,0
			c-0.3,0-0.6,0-0.8-0.1c-0.3-0.1-0.4-0.5-0.4-0.8C105.6,215.6,105.6,212.7,105.6,209.9z M107.5,234.4h-1.3v-4.6
			c0-0.4-0.1-0.7-0.2-0.9s-0.4-0.2-0.7-0.2c-0.4,0-0.8,0.1-1.2,0.3c-0.4,0.2-0.8,0.4-1.3,0.7v4.7h-1.3v-6.6h1.1l0.1,1
			c0.5-0.4,1-0.7,1.4-0.9c0.5-0.2,1-0.3,1.5-0.3c1.2,0,1.8,0.6,1.8,1.8L107.5,234.4L107.5,234.4z M115,234.4h-1l-0.2-1.1l-0.1,0.1
			c-0.2,0.2-0.4,0.3-0.7,0.5s-0.5,0.3-0.9,0.4c-0.3,0.1-0.7,0.2-1,0.2c-0.4,0-0.7-0.1-1-0.2c-0.3-0.1-0.5-0.3-0.7-0.6
			s-0.3-0.6-0.3-1V232c0-0.5,0.2-0.9,0.5-1.2s0.8-0.4,1.4-0.4h2.7v-0.5c0-0.4-0.1-0.7-0.3-0.8c-0.2-0.2-0.5-0.3-1-0.3
			c-0.3,0-0.8,0-1.3,0.1c-0.5,0-1,0.1-1.5,0.1l-0.1-0.9c0.3-0.1,0.6-0.1,1-0.1s0.8-0.1,1.1-0.1c0.4,0,0.7,0,1.1,0
			c0.5,0,0.9,0.1,1.3,0.2c0.3,0.1,0.6,0.4,0.8,0.7c0.2,0.3,0.3,0.7,0.3,1.3v4.3H115z M119.6,234.5c-0.2,0-0.3,0-0.5,0.1
			s-0.3,0-0.4,0c-0.5,0-0.9-0.1-1.2-0.4c-0.3-0.3-0.5-0.7-0.5-1.3V225h1.3v7.6c0,0.3,0.1,0.5,0.2,0.6c0.2,0.1,0.4,0.2,0.7,0.2h0.6
			l0.1,1C119.9,234.4,119.7,234.4,119.6,234.5z M124.2,234.7c-0.1,0.3-0.2,0.6-0.4,0.9c-0.2,0.3-0.4,0.6-0.6,0.8s-0.5,0.4-0.9,0.6
			c-0.3,0.1-0.7,0.2-1.1,0.2l-0.1-0.8c0.5-0.2,1-0.4,1.2-0.7c0.3-0.3,0.5-0.6,0.7-1l0.1-0.2h-0.3c-0.1,0-0.2,0-0.3-0.1
			c-0.1-0.1-0.1-0.1-0.2-0.3l-2.3-6.3h1.4l1.7,4.8c0,0.1,0.1,0.3,0.1,0.4c0,0.1,0.1,0.3,0.1,0.4h0.2c0-0.1,0.1-0.1,0.1-0.2
			c0.1-0.2,0.1-0.4,0.2-0.6l1.6-4.8h1.4L124.2,234.7z M123.5,219.3c-0.3,0-0.5-0.1-0.7-0.3c-0.1-0.2-0.2-0.4-0.2-0.6
			c0-7.2,0-14.3,0-21.5c-0.1-0.5,0.2-0.9,0.7-0.9c1.4,0,2.8,0,4.3,0c0.5,0,0.8,0.4,0.8,0.8c0,7.2,0,14.3,0,21.5
			c0,0.2-0.1,0.5-0.2,0.7c-0.2,0.2-0.4,0.3-0.6,0.3C126.2,219.3,124.8,219.3,123.5,219.3z M133,233.9c-0.2,0.3-0.5,0.5-0.9,0.6
			s-1,0.1-1.6,0.1c-0.2,0-0.6,0-1.1,0s-1-0.1-1.6-0.2l0.1-0.9c0.2,0,0.4,0,0.7,0s0.5,0,0.8,0s0.6,0,0.8,0c0.5,0,0.9,0,1.1-0.1
			c0.3,0,0.5-0.1,0.6-0.2c0.1-0.1,0.2-0.3,0.2-0.5c0-0.3-0.1-0.5-0.3-0.6s-0.4-0.2-0.7-0.3l-1.8-0.4c-0.4-0.1-0.7-0.2-0.9-0.4
			s-0.4-0.4-0.5-0.6c-0.1-0.2-0.1-0.5-0.1-0.9c0-0.5,0.1-0.9,0.3-1.2s0.5-0.4,0.8-0.5c0.4-0.1,0.9-0.1,1.5-0.1c0.3,0,0.6,0,0.9,0
			c0.3,0,0.7,0,1,0.1c0.3,0,0.6,0.1,0.9,0.1l-0.1,0.9c-0.4,0-0.8,0-1.3,0c-0.4,0-0.8,0-1.3,0c-0.4,0-0.7,0-0.9,0s-0.4,0.1-0.5,0.2
			c-0.1,0.1-0.1,0.3-0.1,0.6s0.1,0.5,0.2,0.6s0.4,0.2,0.7,0.3l1.9,0.4c0.5,0.1,0.9,0.3,1.2,0.6s0.4,0.7,0.4,1.2
			C133.3,233.2,133.2,233.6,133,233.9z M136.2,232.6c0.1,0.4,0.3,0.6,0.6,0.7c0.3,0.1,0.7,0.2,1.2,0.2c0.3,0,0.7,0,1.2,0
			c0.4,0,0.8-0.1,1.2-0.1l0.1,0.9c-0.2,0.1-0.5,0.2-0.8,0.2c-0.3,0.1-0.6,0.1-0.9,0.1c-0.3,0-0.6,0-0.9,0c-0.8,0-1.4-0.1-1.9-0.4
			c-0.5-0.2-0.8-0.6-1-1.1s-0.3-1.2-0.3-2c0-0.9,0.1-1.5,0.3-2.1c0.2-0.5,0.6-0.9,1-1.1s1-0.3,1.8-0.3c1,0,1.8,0.2,2.2,0.5
			c0.5,0.4,0.7,0.9,0.7,1.6c0,0.6-0.1,1.1-0.4,1.4s-0.7,0.5-1.3,0.5h-3C136,232.1,136.1,232.3,136.2,232.6z"/>
		<path class="st3" d="M96.7,226.5c0-0.1-0.1-0.3-0.1-0.4h-0.4c0,0.1-0.1,0.2-0.1,0.4s-0.1,0.3-0.1,0.4l-1.1,3.5h3l-1.1-3.5
			C96.7,226.8,96.7,226.7,96.7,226.5z"/>
	</g>
	<g>
		<path class="st4" d="M185.5,178.3c-0.3-0.3-0.7-0.3-1.2-0.3c-0.3,0-0.7,0.2-1,0.4c-0.2,0.1-0.3,0.4-0.4,0.6
			c-0.4,0.6-0.4,1.4,0,2.1c0.4,0.6,1,0.9,1.6,1c0.5,0,1-0.1,1.4-0.4c0.1-0.1,0.2-0.1,0.3-0.3c0.3-0.5,0.5-1.1,0.4-1.6
			C186.5,179.2,186.1,178.6,185.5,178.3z M185.2,180.7c-0.4,0.4-1.3,0.2-1.5-0.4c-0.1-0.4,0.2-1,0.6-1.2c0.3-0.1,0.6,0,0.9,0.1
			c0.2,0.1,0.3,0.3,0.3,0.5C185.6,180,185.5,180.4,185.2,180.7z"/>
		<path class="st4" d="M170.8,200.5c-0.3-0.1-0.6-0.2-1-0.2c-0.7,0-1.4,0-1.9,0v3.6c0.1,0,0.2,0,0.3,0c0.5,0,1,0,1.6,0
			c0.4,0,0.8-0.1,1-0.2c0.3-0.1,0.4-0.3,0.5-0.5c0.1-0.3,0.2-0.6,0.2-1.1s-0.1-0.9-0.2-1.1C171.2,200.8,171,200.6,170.8,200.5z"/>
		<path class="st4" d="M190.9,178.1c-0.3-0.1-0.7-0.1-1.1-0.1c-0.3,0-0.5,0.1-0.8,0.3c-0.2,0.1-0.4,0.2-0.5,0.4
			c-0.4,0.6-0.5,1.3-0.3,1.9c0.2,0.6,0.6,1,1.2,1.3c0.6,0.3,1.3,0.1,1.9-0.2c0.1-0.1,0.3-0.1,0.4-0.3c0.3-0.4,0.5-0.9,0.4-1.5
			C192.1,179.2,191.6,178.4,190.9,178.1z M191,180.5c-0.2,0.3-0.5,0.4-0.8,0.4s-0.5-0.2-0.6-0.4c-0.2-0.3-0.3-0.7-0.1-1
			c-0.1-0.2,0.2-0.3,0.4-0.4c0.4-0.2,0.9,0.1,1.1,0.5C191.1,179.9,191.1,180.2,191,180.5z"/>
		<path class="st4" d="M183.6,203.2c-0.3-0.1-0.6-0.2-1.1-0.2s-0.8,0.1-1.1,0.2c-0.3,0.1-0.4,0.4-0.6,0.7s-0.2,0.8-0.2,1.5
			s0.1,1.1,0.2,1.5s0.3,0.6,0.6,0.7c0.3,0.1,0.6,0.2,1.1,0.2s0.8-0.1,1.1-0.2c0.3-0.1,0.5-0.4,0.6-0.7c0.1-0.4,0.2-0.8,0.2-1.5
			s-0.1-1.1-0.2-1.5C184.1,203.6,183.9,203.3,183.6,203.2z"/>
		<path class="st4" d="M198.2,204.7c0.1-0.2,0.1-0.4,0.1-0.6c0-0.4-0.1-0.7-0.4-0.9s-0.6-0.3-1.2-0.3c-0.5,0-0.8,0.1-1.1,0.2
			s-0.4,0.4-0.5,0.7s-0.1,0.7-0.1,1.1h2.6C197.9,205,198.1,204.9,198.2,204.7z"/>
		<path class="st4" d="M197,178.5c-0.5-0.4-1.1-0.6-1.6-0.5c-0.4,0.1-0.9,0.2-1.2,0.5c-0.3,0.4-0.5,0.8-0.5,1.3
			c-0.1,1,0.7,2,1.6,2.1c0.6,0.1,1.2-0.1,1.7-0.4c0.2-0.1,0.3-0.3,0.4-0.4c0.3-0.5,0.4-1.1,0.2-1.6
			C197.5,179.1,197.3,178.8,197,178.5z M195.8,180.9c-0.3,0-0.6-0.1-0.8-0.3s-0.3-0.5-0.2-0.8c0-0.3,0.2-0.6,0.5-0.7
			c0.3-0.1,0.7,0,1,0.2c0.2,0.2,0.3,0.5,0.3,0.7C196.6,180.4,196.2,180.8,195.8,180.9z"/>
		<path class="st4" d="M211.7,165L184,141.6c-4.4,16.4-15.5,30.1-30.1,38.1l-1.1,36.3l28.3,21.5c31.9-16.2,56-45.6,65-81.1
			L211.7,165z M172.5,203.9c-0.2,0.4-0.5,0.7-0.9,0.9s-1,0.2-1.7,0.2c-0.4,0-0.8,0-1.1,0c-0.4,0-0.7,0-1-0.1v3.7h-1.3v-9.3
			c0.3,0,0.7-0.1,1-0.1s0.6,0,1,0s0.8,0,1.3,0c0.8,0,1.4,0.1,1.8,0.3c0.4,0.2,0.8,0.5,1,0.9s0.3,1,0.3,1.8
			C172.8,202.9,172.7,203.5,172.5,203.9z M178.5,203.1h-0.4c-0.4,0-0.7,0.1-1.1,0.2c-0.3,0.1-0.8,0.3-1.3,0.6v4.8h-1.3v-6.6h1l0.1,1
			c0.5-0.4,0.9-0.7,1.4-0.9s1-0.3,1.4-0.3h0.3L178.5,203.1z M185.4,207.4c-0.2,0.5-0.5,0.9-1,1.1c-0.5,0.2-1.1,0.3-1.9,0.3
			c-0.8,0-1.4-0.1-1.8-0.3c-0.5-0.2-0.8-0.6-1-1.1s-0.3-1.2-0.3-2s0.1-1.5,0.3-2s0.5-0.9,1-1.1c0.5-0.2,1.1-0.3,1.8-0.3
			c0.8,0,1.4,0.1,1.9,0.3s0.8,0.6,1,1.1s0.3,1.2,0.3,2S185.6,206.9,185.4,207.4z M182,193.3c0-0.3,0.3-0.5,0.6-0.5
			c0.7,0,1.5,0,2.2,0c0.3,0,0.5-0.2,0.6-0.4c0.3-0.9,0.6-1.9,0.9-2.8c0.1-0.2,0.1-0.3,0.2-0.5c0-0.1,0.2-0.1,0.3-0.1
			c0.9,0,1.7,0,2.6,0c1.3,0,2.7,0,4,0c0.2,0,0.5,0.1,0.5,0.4c0.3,0.9,0.6,1.9,0.9,2.8c0.1,0.2,0.1,0.4,0.3,0.6
			c0.1,0.1,0.3,0.1,0.4,0.1c0.7,0,1.4,0,2.1,0c0.2,0,0.4,0,0.5,0.2c0.3,0.3,0.1,0.7-0.2,0.8c-0.1,0-0.2,0-0.3,0c-5,0-10.1,0-15.1,0
			C182.2,193.9,181.9,193.6,182,193.3z M191.5,208.7c-0.4,0.1-0.8,0.1-1.2,0.1c-0.8,0-1.4-0.1-1.9-0.3s-0.8-0.6-1-1.1
			s-0.3-1.2-0.3-2s0.1-1.5,0.3-2s0.5-0.9,1-1.1c0.5-0.2,1.1-0.3,1.9-0.3c0.2,0,0.4,0,0.7,0c0.2,0,0.5,0,0.8,0.1
			c0.3,0,0.5,0.1,0.7,0.2l-0.2,0.8c-0.3,0-0.6,0-1-0.1c-0.3,0-0.6,0-0.8,0c-0.5,0-0.9,0.1-1.2,0.2c-0.3,0.1-0.5,0.4-0.6,0.7
			s-0.2,0.8-0.2,1.4c0,0.6,0.1,1.1,0.2,1.4c0.1,0.4,0.3,0.6,0.6,0.7c0.3,0.1,0.7,0.2,1.2,0.2c0.1,0,0.3,0,0.5,0s0.4,0,0.7,0
			s0.5,0,0.7-0.1l0.1,0.9C192.3,208.6,191.9,208.7,191.5,208.7z M195.2,206.8c0.1,0.4,0.3,0.6,0.6,0.7c0.3,0.1,0.7,0.2,1.2,0.2
			c0.3,0,0.7,0,1.2,0c0.4,0,0.8-0.1,1.2-0.1l0.1,0.9c-0.2,0.1-0.5,0.2-0.8,0.2c-0.3,0.1-0.6,0.1-0.9,0.1c-0.3,0-0.6,0-0.9,0
			c-0.8,0-1.4-0.1-1.9-0.4c-0.5-0.2-0.8-0.6-1-1.1s-0.3-1.2-0.3-2c0-0.9,0.1-1.5,0.3-2.1s0.6-0.9,1-1.1s1-0.3,1.8-0.3
			c1,0,1.8,0.2,2.2,0.5s0.7,0.9,0.7,1.6c0,0.6-0.1,1.1-0.4,1.4s-0.7,0.5-1.3,0.5h-2.9C195.1,206.3,195.1,206.6,195.2,206.8z
			 M179.7,187.8c-0.4,0-0.9-0.2-1.1-0.6c-0.2-0.3-0.3-0.6-0.3-0.9c0-4.3,0-8.5,0-12.8c0-0.4,0.1-0.8,0.4-1c0.2-0.1,0.4-0.2,0.7-0.3
			c0.1,0,0.2,0,0.4,0c7,0,14,0,21,0c0.3,0,0.6,0,0.8,0.1c0.5,0.2,0.7,0.7,0.7,1.2c0,4.3,0,8.6,0,12.8c0,0.4-0.1,0.7-0.3,1
			c-0.3,0.3-0.7,0.5-1.1,0.5C193.8,187.8,186.8,187.8,179.7,187.8z M206.3,208.1c-0.2,0.3-0.5,0.5-0.9,0.6s-1,0.1-1.6,0.1
			c-0.2,0-0.6,0-1.1,0s-1-0.1-1.6-0.2l0.1-0.9c0.2,0,0.4,0,0.7,0s0.5,0,0.8,0s0.6,0,0.8,0c0.5,0,0.9,0,1.1-0.1
			c0.3,0,0.5-0.1,0.6-0.2s0.2-0.3,0.2-0.5c0-0.3-0.1-0.5-0.3-0.6s-0.4-0.2-0.8-0.3l-1.8-0.4c-0.4-0.1-0.7-0.2-0.9-0.4
			s-0.4-0.4-0.5-0.6c-0.1-0.2-0.1-0.5-0.1-0.9c0-0.5,0.1-0.9,0.3-1.2s0.5-0.4,0.8-0.5c0.4-0.1,0.9-0.1,1.5-0.1c0.3,0,0.6,0,0.9,0
			c0.3,0,0.7,0,1,0.1c0.3,0,0.6,0.1,0.9,0.1l-0.1,0.9c-0.4,0-0.8,0-1.3,0c-0.4,0-0.8,0-1.2,0s-0.7,0-0.9,0s-0.4,0.1-0.5,0.2
			c-0.1,0.1-0.1,0.3-0.1,0.6s0.1,0.5,0.2,0.6c0.2,0.1,0.4,0.2,0.7,0.3l1.9,0.4c0.5,0.1,0.9,0.3,1.2,0.6s0.4,0.7,0.4,1.2
			C206.6,207.4,206.5,207.8,206.3,208.1z M213.2,208.1c-0.2,0.3-0.5,0.5-0.9,0.6s-1,0.1-1.6,0.1c-0.2,0-0.6,0-1.1,0s-1-0.1-1.6-0.2
			l0.1-0.9c0.2,0,0.4,0,0.7,0s0.5,0,0.8,0s0.6,0,0.8,0c0.5,0,0.9,0,1.1-0.1c0.3,0,0.5-0.1,0.6-0.2s0.2-0.3,0.2-0.5
			c0-0.3-0.1-0.5-0.3-0.6s-0.4-0.2-0.8-0.3l-1.8-0.4c-0.4-0.1-0.7-0.2-0.9-0.4s-0.4-0.4-0.5-0.6c-0.1-0.2-0.1-0.5-0.1-0.9
			c0-0.5,0.1-0.9,0.3-1.2s0.5-0.4,0.8-0.5c0.4-0.1,0.9-0.1,1.5-0.1c0.3,0,0.6,0,0.9,0c0.3,0,0.7,0,1,0.1c0.3,0,0.6,0.1,0.9,0.1
			l-0.1,0.9c-0.4,0-0.8,0-1.3,0c-0.4,0-0.8,0-1.2,0s-0.7,0-0.9,0s-0.4,0.1-0.5,0.2c-0.1,0.1-0.1,0.3-0.1,0.6s0.1,0.5,0.2,0.6
			c0.2,0.1,0.4,0.2,0.7,0.3l1.9,0.4c0.5,0.1,0.9,0.3,1.2,0.6s0.4,0.7,0.4,1.2C213.5,207.4,213.4,207.8,213.2,208.1z"/>
	</g>
	<g>
		<path class="st5" d="M167.1,53.4c-0.3-0.1-0.6-0.2-1-0.2c-0.7,0-1.4,0-1.9,0v3.6c0.1,0,0.2,0,0.3,0c0.5,0,1,0,1.6,0
			c0.4,0,0.8-0.1,1-0.2c0.3-0.1,0.4-0.3,0.5-0.5c0.1-0.3,0.2-0.6,0.2-1.1s-0.1-0.9-0.2-1.1C167.6,53.6,167.4,53.5,167.1,53.4z"/>
		<path class="st5" d="M179.1,58.4h-2.4c-0.3,0-0.5,0.1-0.6,0.2c-0.1,0.1-0.2,0.4-0.2,0.6v0.4c0,0.3,0.1,0.6,0.2,0.7
			c0.2,0.1,0.4,0.2,0.8,0.2c0.3,0,0.5,0,0.8-0.1s0.6-0.2,0.9-0.4c0.2-0.1,0.3-0.2,0.5-0.3V58.4z"/>
		<path class="st5" d="M128.2,0l16.2,31.6l-16.6,32.3c17.5,0.7,33.2,8.6,44,20.9l35.7-7l14.6-32.4C199.6,18.3,166,0.8,128.2,0z
			 M176.3,37.5c2.6-2.6,5.2-5.2,7.8-7.8c0.9,0.9,1.8,1.8,2.7,2.7c-2.6,2.6-5.2,5.2-7.8,7.8C178.1,39.3,177.2,38.4,176.3,37.5z
			 M177.9,40.7c-1,0.3-1.9,0.5-2.9,0.8c0.3-0.9,0.6-1.9,0.8-2.9l0.1,0.1C176.6,39.4,177.2,40,177.9,40.7z M168.9,56.8
			c-0.2,0.4-0.5,0.7-0.9,0.9s-1,0.2-1.7,0.2c-0.4,0-0.8,0-1.1,0c-0.4,0-0.7,0-1-0.1v3.7h-1.3v-9.3c0.3,0,0.7-0.1,1-0.1s0.6,0,1,0
			s0.8,0,1.3,0c0.8,0,1.4,0.1,1.8,0.3c0.4,0.2,0.8,0.5,1,0.9s0.3,1,0.3,1.8C169.2,55.8,169.1,56.4,168.9,56.8z M168.3,46.3
			c-0.3,0-0.7,0-1-0.2s-0.6-0.4-0.7-0.8c-0.1-0.3-0.2-0.6-0.2-0.9c0-6.4,0-12.8,0-19.2c-0.1-0.4,0-0.8,0.3-1.1
			c0.3-0.4,0.8-0.6,1.4-0.6c4.7,0,9.4,0,14.1,0c0.5,0,1,0.2,1.4,0.6c0.3,0.3,0.4,0.7,0.4,1.2c0,1,0,2,0,3c-0.3,0.3-0.5,0.5-0.8,0.8
			c-2.6,2.6-5.3,5.3-7.9,7.9c-0.1,0.1-0.3,0.3-0.3,0.5c-0.4,1.6-0.8,3.1-1.2,4.7c0,0.2-0.1,0.4,0,0.5c0.1,0.2,0.4,0.3,0.7,0.3
			c1.6-0.4,3.2-0.8,4.7-1.3c0.2,0,0.3-0.1,0.4-0.3c1.5-1.5,3-3,4.5-4.5c0,2.5,0,5.1,0,7.6c0,0.4-0.1,0.8-0.3,1.1
			c-0.3,0.4-0.9,0.7-1.4,0.7C177.7,46.3,173,46.3,168.3,46.3z M173.4,61.6c-0.2,0-0.3,0-0.5,0.1c-0.2,0-0.3,0-0.4,0
			c-0.5,0-0.9-0.1-1.2-0.4c-0.3-0.3-0.5-0.7-0.5-1.3v-7.9h1.3v7.6c0,0.3,0.1,0.5,0.2,0.6c0.2,0.1,0.4,0.2,0.7,0.2h0.6l0.1,1
			C173.6,61.5,173.5,61.5,173.4,61.6z M180.4,61.5h-1l-0.2-1.1l-0.1,0.1c-0.2,0.2-0.4,0.3-0.7,0.5s-0.5,0.3-0.9,0.4
			c-0.3,0.1-0.7,0.2-1,0.2c-0.4,0-0.7-0.1-1-0.2s-0.5-0.3-0.7-0.6s-0.3-0.6-0.3-1v-0.7c0-0.5,0.2-0.9,0.5-1.2s0.8-0.4,1.4-0.4h2.7
			V57c0-0.4-0.1-0.7-0.3-0.8s-0.5-0.3-1-0.3c-0.3,0-0.8,0-1.3,0.1c-0.5,0-1,0.1-1.5,0.1l-0.1-0.9c0.3-0.1,0.6-0.1,1-0.1
			s0.8-0.1,1.1-0.1c0.4,0,0.7,0,1.1,0c0.5,0,0.9,0.1,1.3,0.2c0.3,0.1,0.6,0.4,0.8,0.7s0.3,0.7,0.3,1.3v4.3H180.4z M188.2,61.5h-1.3
			V57c0-0.4-0.1-0.7-0.2-0.9s-0.4-0.2-0.7-0.2c-0.4,0-0.8,0.1-1.2,0.3s-0.8,0.4-1.3,0.7v4.7h-1.3V55h1.1l0.1,1
			c0.5-0.4,1-0.7,1.4-0.9c0.5-0.2,1-0.3,1.5-0.3c1.2,0,1.8,0.6,1.8,1.8L188.2,61.5L188.2,61.5z M188.1,31.1
			c-0.1,0.2-0.3,0.4-0.5,0.5c-0.9-0.9-1.8-1.8-2.7-2.7c0.2-0.2,0.4-0.4,0.6-0.5c0.5-0.3,1.2-0.4,1.7-0.1c0.3,0.2,0.6,0.4,0.8,0.7
			C188.5,29.6,188.6,30.5,188.1,31.1z"/>
	</g>
	<g>
		<path class="st6" d="M228,125c0.1-0.2,0.1-0.4,0.1-0.6c0-0.4-0.1-0.7-0.4-0.9s-0.6-0.3-1.2-0.3c-0.5,0-0.8,0.1-1.1,0.2
			s-0.4,0.4-0.5,0.7c-0.1,0.3-0.1,0.7-0.1,1.1h2.6C227.7,125.3,227.9,125.2,228,125z"/>
		<path class="st6" d="M211.8,123.5c-0.3-0.1-0.6-0.2-1.1-0.2s-0.8,0.1-1.1,0.2s-0.4,0.4-0.6,0.7c-0.1,0.3-0.2,0.8-0.2,1.5
			s0.1,1.1,0.2,1.5c0.1,0.4,0.3,0.6,0.6,0.7s0.6,0.2,1.1,0.2s0.8-0.1,1.1-0.2s0.5-0.4,0.6-0.7c0.1-0.4,0.2-0.8,0.2-1.5
			s-0.1-1.1-0.2-1.5C212.2,123.9,212,123.6,211.8,123.5z"/>
		<path class="st6" d="M225.5,49.7L210.8,82l-35.6,7c7.5,10.2,11.9,22.8,11.9,36.4c0,3.7-0.3,7.3-1,10.8l27.8,23.6l34.4-8.7
			c1.7-8.3,2.6-16.8,2.6-25.6C250.9,97,241.4,70.8,225.5,49.7z M216.6,93.6c-0.3,0-0.5,0-0.7-0.1c-0.3-0.1-0.5-0.3-0.6-0.5
			s-0.1-0.7,0.1-1.1c0.2-0.4,0.6-0.6,1.1-0.6c2.3,0,4.7,0,7,0c0.4,0,0.8,0.2,1,0.5c0.4,0.5,0.3,1.2-0.1,1.6
			c-0.2,0.2-0.5,0.3-0.8,0.3c-0.2,0-0.5,0-0.7,0.1s-0.3,0.2-0.3,0.4c0,1.6,0,3.1,0,4.7c0,0.8,0.1,1.6,0.4,2.4
			c0.2,0.4,0.4,0.8,0.6,1.2c0.6,1.1,1.2,2.1,1.8,3.2c-3.7,0-7.4,0-11.1,0c0.7-1.2,1.4-2.5,2-3.7c0.3-0.5,0.5-1,0.6-1.6
			c0.1-0.5,0.2-1,0.2-1.5c0-1.6,0-3.2,0-4.8C217.1,93.8,216.8,93.6,216.6,93.6z M205.1,129.1c-0.4,0-0.9,0.1-1.6,0.1
			c-0.9,0-1.6-0.2-2.2-0.5c-0.5-0.3-0.9-0.8-1.2-1.5s-0.4-1.6-0.4-2.8c0-1.2,0.1-2.1,0.4-2.8s0.6-1.2,1.2-1.5
			c0.5-0.3,1.3-0.5,2.2-0.5c0.4,0,0.8,0,1,0c0.3,0,0.6,0,0.8,0.1c0.2,0,0.5,0.1,0.8,0.2l-0.1,1c-0.3,0-0.5,0-0.8-0.1
			c-0.2,0-0.5,0-0.7,0c-0.3,0-0.6,0-1,0c-0.6,0-1,0.1-1.4,0.3c-0.3,0.2-0.6,0.6-0.7,1.1s-0.2,1.2-0.2,2.2s0.1,1.6,0.2,2.2
			c0.1,0.5,0.4,0.9,0.7,1.1s0.8,0.3,1.4,0.3c0.6,0,1.1,0,1.5,0s0.8-0.1,1.2-0.1l0.1,1C206,128.9,205.6,129,205.1,129.1z
			 M213.5,127.7c-0.2,0.5-0.5,0.9-1,1.1s-1.1,0.3-1.9,0.3c-0.8,0-1.4-0.1-1.8-0.3c-0.5-0.2-0.8-0.6-1-1.1s-0.3-1.2-0.3-2
			s0.1-1.5,0.3-2s0.5-0.9,1-1.1s1.1-0.3,1.8-0.3c0.8,0,1.4,0.1,1.9,0.3c0.5,0.2,0.8,0.6,1,1.1s0.3,1.2,0.3,2
			C213.8,126.5,213.7,127.2,213.5,127.7z M213.4,114.3c-0.6,0-1.1-0.2-1.6-0.6c-0.5-0.5-0.8-1.4-0.6-2.1c0.1-0.3,0.2-0.5,0.4-0.8
			c0.7-1.4,1.5-2.7,2.2-4c4.1,0,8.2,0,12.4,0c0.7,1.3,1.5,2.6,2.2,3.9c0.2,0.3,0.3,0.6,0.4,0.9c0.3,1-0.4,2.2-1.4,2.6
			c-0.3,0.1-0.5,0.1-0.8,0.1C222.2,114.3,217.8,114.3,213.4,114.3z M218.1,129c-0.2,0-0.3,0-0.5,0.1c-0.2,0-0.3,0-0.4,0
			c-0.5,0-0.9-0.1-1.2-0.4s-0.5-0.7-0.5-1.3v-7.9h1.3v7.6c0,0.3,0.1,0.5,0.2,0.6c0.2,0.1,0.4,0.2,0.7,0.2h0.6l0.1,1
			C218.4,129,218.3,129,218.1,129z M222.2,129c-0.2,0-0.3,0-0.5,0.1c-0.2,0-0.3,0-0.4,0c-0.5,0-0.9-0.1-1.2-0.4
			c-0.3-0.3-0.5-0.7-0.5-1.3v-7.9h1.3v7.6c0,0.3,0.1,0.5,0.2,0.6c0.2,0.1,0.4,0.2,0.7,0.2h0.6l0.1,1C222.5,129,222.4,129,222.2,129z
			 M225,127.1c0.1,0.4,0.3,0.6,0.6,0.7s0.7,0.2,1.2,0.2c0.3,0,0.7,0,1.2,0c0.4,0,0.8-0.1,1.2-0.1l0.1,0.9c-0.2,0.1-0.5,0.2-0.8,0.2
			c-0.3,0.1-0.6,0.1-0.9,0.1c-0.3,0-0.6,0-0.9,0c-0.8,0-1.4-0.1-1.9-0.4c-0.5-0.2-0.8-0.6-1-1.1c-0.2-0.5-0.3-1.2-0.3-2
			c0-0.9,0.1-1.5,0.3-2.1s0.6-0.9,1-1.1s1-0.3,1.8-0.3c1,0,1.8,0.2,2.2,0.5s0.7,0.9,0.7,1.6c0,0.6-0.1,1.1-0.4,1.4s-0.7,0.5-1.3,0.5
			h-2.9C224.8,126.6,224.9,126.9,225,127.1z M235.1,129.1c-0.4,0.1-0.8,0.1-1.2,0.1c-0.8,0-1.4-0.1-1.9-0.3s-0.8-0.6-1-1.1
			c-0.2-0.5-0.3-1.2-0.3-2s0.1-1.5,0.3-2s0.5-0.9,1-1.1s1.1-0.3,1.9-0.3c0.2,0,0.4,0,0.7,0c0.2,0,0.5,0,0.8,0.1
			c0.3,0,0.5,0.1,0.7,0.2l-0.2,0.8c-0.3,0-0.6,0-1-0.1c-0.3,0-0.6,0-0.8,0c-0.5,0-0.9,0.1-1.2,0.2s-0.5,0.4-0.6,0.7
			s-0.2,0.8-0.2,1.4s0.1,1.1,0.2,1.4c0.1,0.4,0.3,0.6,0.6,0.7s0.7,0.2,1.2,0.2c0.1,0,0.3,0,0.5,0s0.4,0,0.7,0s0.5,0,0.7-0.1l0.1,0.9
			C235.9,128.9,235.5,129,235.1,129.1z M241.6,123.4h-2.1v3.7c0,0.3,0.1,0.5,0.2,0.7c0.1,0.1,0.4,0.2,0.7,0.2h1l0.1,1
			c-0.2,0-0.3,0.1-0.5,0.1s-0.4,0-0.6,0.1s-0.3,0-0.5,0c-0.6,0-1-0.2-1.3-0.5s-0.4-0.7-0.4-1.3v-4H237v-0.9l1.2-0.1v-1.9h1.3v1.9
			h2.1V123.4z"/>
	</g>
</g>
<g id="RDMkit_logo">
	<path class="st7" d="M233.5,240c0.6,0,0.9,0.3,0.9,0.9l0.3,7.6h-2.4L232,242h-0.2l-0.8,4.4c-0.1,0.5-0.4,0.8-1,0.8h-1.4
		c-0.6,0-0.9-0.3-1-0.8l-0.9-4.4h-0.2l-0.2,6.6h-2.4l0.3-7.6c0-0.6,0.3-0.9,0.9-0.9h2.3c0.6,0,0.9,0.3,1,0.8l0.6,3.4
		c0,0.2,0.1,0.4,0.1,0.6c0,0.2,0,0.4,0.1,0.6h0.1c0-0.2,0-0.4,0.1-0.6c0-0.2,0-0.4,0.1-0.6l0.6-3.4c0.1-0.6,0.4-0.8,1-0.8H233.5z"/>
	<path class="st8" d="M239.6,248.5h2.7l-1.4-2.4c-0.1-0.2-0.2-0.3-0.3-0.5c-0.1-0.1-0.2-0.2-0.3-0.3v0c0.1-0.1,0.2-0.2,0.3-0.3
		c0.1-0.1,0.2-0.3,0.3-0.4l1.2-1.9h-2.6l-1.1,1.9H238c0-0.1,0-0.2,0-0.2c0-0.3,0.1-0.6,0.1-0.9V240h-2.4v8.6h2.4v-1.6
		c0-0.3,0-0.5-0.1-0.8c0,0,0-0.1,0-0.1h0.3L239.6,248.5z"/>
	<path class="st8" d="M243,242.1h1.1c0.5,0,0.7-0.3,0.7-0.8v-0.6c0-0.5-0.2-0.8-0.7-0.8H243c-0.5,0-0.7,0.3-0.7,0.8v0.6
		C242.3,241.8,242.5,242.1,243,242.1z"/>
	<path class="st8" d="M249.1,244.2v-1.4h-1.4v-1.5h-2.4v1.5l-3.1,0v5.7h2.3v-4.3l0.8,0l0,2.8c0,0.5,0.2,0.9,0.5,1.2
		c0.3,0.3,0.8,0.4,1.3,0.4c0.2,0,0.4,0,0.6,0s0.5-0.1,0.7-0.1c0.2,0,0.4-0.1,0.6-0.2l-0.3-1.5h-0.6c-0.2,0-0.3,0-0.4-0.1
		c-0.1-0.1-0.1-0.2-0.1-0.3v-2.1H249.1z"/>
	<path class="st7" d="M215,245.9c-0.1-0.3-0.2-0.6-0.3-0.8c-0.1-0.2-0.3-0.3-0.5-0.4c-0.2-0.1-0.3-0.1-0.5-0.1v-0.1
		c0.4,0,0.8-0.2,1-0.4c0.2-0.2,0.4-0.4,0.5-0.7c0.1-0.3,0.2-0.6,0.2-0.9c0-0.7-0.1-1.2-0.4-1.5s-0.6-0.6-1.2-0.8
		c-0.5-0.2-1.2-0.2-2-0.2c-0.6,0-1,0-1.4,0s-0.8,0-1.1,0c-0.1,0-0.3,0-0.4,0l1.9,1.4c0.7-0.5,1.7-0.3,2.1,0.4
		c0.5,0.7,0.3,1.7-0.4,2.1c-0.7,0.5-1.7,0.3-2.1-0.4c-0.2-0.3-0.3-0.6-0.3-0.9c0-0.1,0-0.3,0.1-0.4l-1.9-1.4v7.7h2.6v-3.1
		c0.2,0,0.5,0,0.8,0c0.2,0,0.4,0,0.5,0.1c0.1,0.1,0.2,0.2,0.2,0.5l0.5,2.5h2.8L215,245.9z"/>
	<circle class="st8" cx="211.5" cy="242.7" r="0.6"/>
	<path class="st7" d="M223.3,242.1c-0.1-0.6-0.4-1-0.7-1.3c-0.3-0.3-0.7-0.5-1.2-0.7c-0.5-0.1-1.1-0.2-1.8-0.2c-0.7,0-1.3,0-1.9,0
		s-1.1,0.1-1.6,0.1v8.3c0.5,0,1.1,0.1,1.7,0.1c0.6,0,1.2,0,1.9,0c0.7,0,1.3-0.1,1.8-0.2c0.5-0.1,0.9-0.4,1.2-0.7
		c0.3-0.3,0.5-0.8,0.7-1.3c0.1-0.6,0.2-1.3,0.2-2.1C223.5,243.4,223.4,242.7,223.3,242.1z M220.6,245.7c-0.1,0.3-0.2,0.6-0.3,0.7
		s-0.4,0.2-0.7,0.2c-0.3,0-0.6,0-0.9,0v-4.8h0.9c0.3,0,0.5,0.1,0.7,0.2s0.3,0.4,0.3,0.7c0.1,0.3,0.1,0.8,0.1,1.5
		C220.7,244.9,220.7,245.4,220.6,245.7z"/>
</g>
</svg>
