<?xml version="1.0" encoding="utf-8"?>
<!-- Generator: Adobe Illustrator 24.0.1, SVG Export Plug-In . SVG Version: 6.00 Build 0)  -->
<svg version="1.1" id="Layer_1" xmlns="http://www.w3.org/2000/svg" xmlns:xlink="http://www.w3.org/1999/xlink" x="0px" y="0px"
	 viewBox="0 0 400 301" style="enable-background:new 0 0 400 301;" xml:space="preserve">
<style type="text/css">
	.st0{fill:#F47D20;}
	.st1{fill:#FFFFFF;}
</style>
<path class="st0" d="M375.8,0.5h3.4c11.1,0.6,20.2,10.3,20.9,21.2v3.7c-0.7,9.8-8.3,18.6-18,20.4c-8.9,1.9-18.3-2.3-23.6-9.5
	c-4.8,2.8-9.7,5.4-14.6,8.1c1.7,6.7-0.5,14.4-6.3,18.5c-6.6,5.1-16.4,3.9-22.4-1.6c-4.1,2.4-8.2,4.9-12.2,7.3c0,4.5-0.4,9.6-4,12.8
	c-4.6,4.8-12.3,4.7-17.8,1.5c-4,3-8.2,5.8-12.2,8.9c-0.1,4-1.4,8.4-5.2,10.3c-3.1,2.1-6.9,1.3-10.1-0.1
	c-15.7,12.4-31.4,24.8-45.6,38.9c8.5,20.9,15.8,42.4,20.1,64.6c1.2,7.4,3,15.3,0.4,22.7c-1.7,5-4.6,10.1-9.5,12.5
	c-3.9,2-8.7,1.6-12.2-1c1.8-3.6,6.6-4.5,7.9-8.5c2-6.1,0.8-12.6,0.1-18.8c-3.1-20.7-9.2-40.9-15.9-60.7
	c-5.5,6.4-11.1,12.7-16.6,19.1c3.5,0.1,7-0.3,10.5,0.3c3.8,0.8,3.6,7.2-0.2,7.9c-5.7,0.5-11.4,0.1-17.1,0.2
	c-3.9,5.5-7.8,11-11.6,16.6c8.4,0,16.8,0,25.2,0c2.1,0.1,4.9-0.1,5.9,2.1c1.5,2.7-0.6,6.6-3.9,6.2c-11,0.1-22.1,0-33.1,0.1
	c-3,5.8-6.1,11.6-9.1,17.4c14.1,0.1,28.1-0.1,42.2,0.1c3.2-0.4,5.4,3.2,4,5.9c-0.9,2.5-3.9,2.3-6.1,2.4c-15.1,0-30.1,0-45.2,0
	c-4.2,11.4-7.1,23.7-5.6,35.9c1.1,9.3,5.1,18.4,12,24.8c2.1,2,4.6,3.4,6.5,5.5c1,3-2.1,4.9-4.5,5.7h-2.4
	c-14.6-4-27.9-15.3-31.6-30.3c-3.6-14-0.2-28.6,4.9-41.8c6.6-16.8,16.4-32.2,27.3-46.6c12.8-16.8,27.4-32.3,43.4-46.2
	c-13.8-36.5-31-72.5-56.6-102.4c-2.3-3.2-6.3-5.5-7-9.7c2.7-0.6,4.6,1.7,6.3,3.4c28.3,29,50.8,63.4,67.3,100.4
	c14.5-12.5,30.4-23.4,46.4-34c0-3.9,0.8-8.2,4.3-10.6c3.8-3,9-2.2,12.7,0.3c4.1-2.4,8.1-4.8,12.1-7.2c-1.1-3-2-6.1-1-9.3
	c1.4-6.4,8.3-10.9,14.7-9.8c3.7,0.5,6.5,3,9.1,5.5c3.7-2.3,7.3-4.6,11.3-6.5c-4.2-7.1-2.3-17,4.5-21.7c7.9-6.1,20.7-3.3,25,5.8
	c5-2.3,9.7-5,14.6-7.4c-2.7-6.3-3.3-13.8-0.3-20.1C360.3,6.2,367.8,1.2,375.8,0.5z"/>
<path class="st1" d="M106.5,92.7c1-3.8,0.8-7.7,0.8-11.6c6.9,0,13.9,0,20.8,0c-6.1,28.1-12.1,56.2-18.2,84.3
	c-1.3,5.3-2.3,10.7-2.6,16.2c-7.2,0-14.3,0-21.5,0c2.7-6.4,4.4-13.1,5.8-19.9C96.5,138.6,101.6,115.7,106.5,92.7z"/>
<path class="st1" d="M145.4,83.1c6.6-2.3,13.6,4.7,11.4,11.3c-1.6,6.3-10.3,8.7-14.9,4.2C136.6,94.3,138.8,84.8,145.4,83.1z"/>
<path class="st1" d="M12.7,122.1c3.2-5.1,9.7-6.9,15.4-7c14.3,0,28.6,0,43,0c4.6,0,10.3,1.2,12.4,5.8c1,3.3,0.7,7,0.1,10.4
	c-1.8,7.3-3.6,14.7-5.3,22c-19.4,0-38.8,0-58.2,0c-1.3,5.8-3.1,11.4-4.1,17.3c-0.5,2.8,3.2,2.6,5,2.7c17.2-0.4,34.4,0.9,51.5-0.9
	c-0.3,3-0.5,6.1-0.8,9.1c-19.2,0-38.3,0-57.5,0c-3.6,0-7.5-0.3-10.6-2.4c-2.2-1.4-2.8-4-3.5-6.4v-2c0.6-8.7,3.6-17.1,5.3-25.6
	C7.4,137.3,8.2,129,12.7,122.1z M27.9,127.3c-1.1,5.9-2.5,11.8-3.8,17.7c13.3,0,26.6,0,39.9,0c1-6.7,2.3-13.4,3.5-20
	c-1.4-0.8-2.8-1.7-4.5-1.5c-9.7-0.1-19.4,0-29.1,0C31.4,123.3,28.4,124.6,27.9,127.3z"/>
<path class="st1" d="M134.7,115.9c6.4,0,12.7,0,19.1,0c-3.4,15.2-6.9,30.5-10.3,45.7c-1.5,6.6-3.3,13.1-3.9,19.9
	c-6.6,0-13.2,0-19.8,0c2.2-4.8,4-9.8,5.2-14.9c3.1-13.9,6.2-27.8,9.3-41.6C134.9,122,134.7,118.9,134.7,115.9z"/>
<path class="st1" d="M247,115.9c6.4,0,12.7,0,19.1,0c-3.8,16.9-7.6,33.8-11.5,50.7c-1.2,4.9-2.3,9.9-2.8,14.9c-6.6,0-13.2,0-19.9,0
	c2.3-4.9,4.1-10.1,5.3-15.4c3.1-13.8,6.1-27.6,9.2-41.5C247.2,121.7,247,118.8,247,115.9z"/>
<path class="st1" d="M285.2,116.8c5.8,0,11.7,0,17.5,0c-0.3,2.1-0.5,4.3-0.9,6.4c1.6-3.8,5.5-6,9.5-6.3c6.3-0.3,12.6,0,18.8-0.1
	c1.4,2.5,2.7,4.9,4.1,7.4c-1.4,1.5-2.8,2.9-4.2,4.4c-3.2-2.6-7.4-1.7-11.1-1.9c-4.8,0.2-9.6-0.3-14.4,0.3c-2.1,1-3,3.5-3.7,5.6
	c-3,12.4-5.8,24.8-8.7,37.1c-1,4.1-1.1,8.4-1.1,12.6c-6.9,0-13.9,0-20.8,0c1.6-3.9,3.6-7.7,4.5-11.8c3.5-14.6,6.5-29.4,9.9-44
	C285.4,123.4,285.3,120,285.2,116.8z"/>
</svg>
