<?xml version="1.0" encoding="UTF-8" standalone="no"?>
<svg
   xmlns:dc="http://purl.org/dc/elements/1.1/"
   xmlns:cc="http://creativecommons.org/ns#"
   xmlns:rdf="http://www.w3.org/1999/02/22-rdf-syntax-ns#"
   xmlns:svg="http://www.w3.org/2000/svg"
   xmlns="http://www.w3.org/2000/svg"
   xmlns:xlink="http://www.w3.org/1999/xlink"
   xmlns:sodipodi="http://sodipodi.sourceforge.net/DTD/sodipodi-0.dtd"
   xmlns:inkscape="http://www.inkscape.org/namespaces/inkscape"
   width="272.46906mm"
   height="188.95792mm"
   viewBox="0 0 272.46905 188.95792"
   version="1.1"
   id="svg8"
   inkscape:version="1.0 (4035a4fb49, 2020-05-01)"
   sodipodi:docname="RDM_cycle.svg">
  <defs
     id="defs2">
    <marker
       inkscape:stockid="TriangleOutL"
       orient="auto"
       refY="0"
       refX="0"
       id="TriangleOutL"
       style="overflow:visible"
       inkscape:isstock="true">
      <path
         id="path977"
         d="M 5.77,0 -2.88,5 V -5 Z"
         style="fill:#999999;fill-opacity:1;fill-rule:evenodd;stroke:#999999;stroke-width:1pt;stroke-opacity:1"
         transform="scale(0.8)" />
    </marker>
    <marker
       inkscape:stockid="Arrow1Lend"
       orient="auto"
       refY="0"
       refX="0"
       id="Arrow1Lend"
       style="overflow:visible"
       inkscape:isstock="true">
      <path
         id="path838"
         d="M 0,0 5,-5 -12.5,0 5,5 Z"
         style="fill:#000000;fill-opacity:1;fill-rule:evenodd;stroke:#000000;stroke-width:1pt;stroke-opacity:1"
         transform="matrix(-0.8,0,0,-0.8,-10,0)" />
    </marker>
  </defs>
  <sodipodi:namedview
     id="base"
     pagecolor="#ffffff"
     bordercolor="#666666"
     borderopacity="1.0"
     inkscape:pageopacity="0.0"
     inkscape:pageshadow="2"
     inkscape:zoom="0.7"
     inkscape:cx="596.87322"
     inkscape:cy="347.67333"
     inkscape:document-units="mm"
     inkscape:current-layer="layer1"
     inkscape:document-rotation="0"
     showgrid="false"
     fit-margin-top="0"
     fit-margin-left="0"
     fit-margin-right="0"
     fit-margin-bottom="0"
     inkscape:window-width="1680"
     inkscape:window-height="1002"
     inkscape:window-x="3600"
     inkscape:window-y="30"
     inkscape:window-maximized="1" />
  <metadata
     id="metadata5">
    <rdf:RDF>
      <cc:Work
         rdf:about="">
        <dc:format>image/svg+xml</dc:format>
        <dc:type
           rdf:resource="http://purl.org/dc/dcmitype/StillImage" />
        <dc:title></dc:title>
      </cc:Work>
    </rdf:RDF>
  </metadata>
  <g
     inkscape:label="Layer 1"
     inkscape:groupmode="layer"
     id="layer1"
     transform="translate(228.36982,-5.1545858)">
    <a
       xlink:href="process"
       id="a914"
       target="/processing.html">
      <path
         sodipodi:nodetypes="ccccccc"
         d="m -36.527958,104.58803 c -4e-6,13.99468 -6.622628,27.90488 -18.022342,36.71201 l 0.815319,14.91353 14.563695,3.20551 c 17.129516,-13.23387 27.080834,-33.80224 27.080813,-54.83105 l -12.218743,5.3511 z"
         style="fill:#00ff88;fill-opacity:1;stroke:none;stroke-width:0.808582;stroke-miterlimit:4;stroke-dasharray:none"
         id="path1547-4"
         onclick="/process.html" />
    </a>
    <a
       xlink:href="../processing"
       id="a917"
       target="/processing.html">
      <path
         id="path1547-4-8"
         style="fill:#b2db00;fill-opacity:1;stroke:none;stroke-width:0.808582;stroke-miterlimit:4;stroke-dasharray:none"
         d="m -61.888916,146.51083 c -10.87591,8.80714 -25.853927,12.41437 -39.872414,9.09764 l -11.0769,10.01901 6.67409,13.3354 c 21.064599,4.98378 43.311786,-0.22668 59.654231,-13.46056 L -58.358,159.37413 Z"
         sodipodi:nodetypes="ccccccc"
         onclick="/analyzing.html" />
    </a>
    <a
       xlink:href="../preserving"
       id="a920"
       target="/preserving.html">
      <path
         sodipodi:nodetypes="ccccccc"
         d="m -110.76628,153.64962 -7.83123,10.79832 2.6253,13.07821 c -20.54611,-4.47975 -38.52241,-18.58433 -47.80339,-38.13985 l 6.23442,-13.54653 14.74489,2.38044 c 6.17648,13.01421 18.35657,22.44812 32.03001,25.42941 z"
         style="fill:#b25ba6;fill-opacity:1;stroke:none;stroke-width:0.808582;stroke-miterlimit:4;stroke-dasharray:none"
         id="path1547-4-8-1"
         onclick="/preserving.html" />
    </a>
    <a
       xlink:href="sharing"
       id="a923"
       target="/sharing.html">
      <path
         id="path1547-4-8-1-2"
         style="fill:#363636;fill-opacity:1;stroke:none;stroke-width:0.808582;stroke-miterlimit:4;stroke-dasharray:none"
         d="m -146.60129,119.87747 c -6.22252,-12.5352 -6.47552,-27.939397 -0.18064,-40.896751 l -7.36136,-12.995716 -14.47014,3.60434 c -9.45887,19.470107 -9.22697,42.318137 0.12321,61.153887 l 8.56518,-10.22592 z"
         sodipodi:nodetypes="ccccccc"
         onclick="sharing.html" />
    </a>
    <a
       xlink:href="re-using"
       id="a926"
       target="re-using.html">
      <path
         sodipodi:nodetypes="ccccccc"
         d="m -142.73623,70.796816 c 5.89227,-12.69378 17.75599,-22.522589 31.80412,-25.711363 l 5.53962,-13.870507 -11.86029,-9.039354 c -21.10915,4.791555 -38.79545,19.258103 -47.64932,38.332172 l 13.33595,0.290844 z"
         style="fill:#b30000;fill-opacity:1;stroke:none;stroke-width:0.808582;stroke-miterlimit:4;stroke-dasharray:none"
         id="path1547-4-8-1-2-9"
         onclick="reusing.html" />
    </a>
    <a
       xlink:href="../planning"
       id="a908"
       target="/planning.html">
      <path
         id="path1547-4-8-1-2-9-3"
         style="fill:#ff5e00;fill-opacity:1;stroke:none;stroke-width:0.808582;stroke-miterlimit:4;stroke-dasharray:none"
         d="m -101.94075,43.166024 c 13.590706,-3.33819 28.679116,-0.224774 39.951229,8.745063 l 14.288566,-4.349149 -0.360972,-14.907919 C -64.999742,19.17568 -87.34811,14.417853 -107.76991,19.433947 l 8.111222,10.589628 z"
         sodipodi:nodetypes="ccccccc"
         onclick="/planning.html"
         onmouseover="" />
    </a>
    <a
       xlink:href="../collecting"
       id="a911"
       target="../collecting.html">
      <path
         sodipodi:nodetypes="ccccccc"
         d="m -55.020866,57.556922 c 11.102712,8.519418 18.106824,22.241513 18.154299,36.646937 l 12.328027,8.431961 11.408899,-9.602784 C -13.20098,71.387018 -23.46098,50.970876 -40.144273,38.169357 l -3.192986,12.951333 z"
         style="fill:#00597d;fill-opacity:1;stroke:none;stroke-width:0.808582;stroke-miterlimit:4;stroke-dasharray:none"
         id="path1547-4-8-1-2-9-3-9"
         onclick="../collecting.html" />
    </a>
    <path
       inkscape:export-ydpi="72"
       inkscape:export-xdpi="72"
       inkscape:connector-curvature="0"
       id="path4573-0"
       style="font-style:normal;font-variant:normal;font-weight:bold;font-stretch:normal;font-size:192px;line-height:1.25;font-family:EBI-Functional;-inkscape-font-specification:'EBI-Functional Bold';letter-spacing:0px;word-spacing:0px;fill:#ffffff;fill-opacity:1;stroke:none;stroke-width:0.0857987;stroke-linecap:square;stroke-miterlimit:10"
       d="m -74.307796,25.559763 -8.236659,8.236659 -2.059166,6.177505 6.17749,-2.059168 8.236673,-8.236658 z m 6.177505,0.868708 q 0,-1.222619 -0.868707,-2.059168 -0.836545,-0.868707 -2.059167,-0.868707 -1.351329,0 -2.220037,1.029577 l 4.118322,4.118335 q 1.029589,-0.868706 1.029589,-2.220037 z m -9.266253,12.515864 h 9.266253 v 1.029592 h -9.266253 z" />
    <path
       inkscape:export-ydpi="72"
       inkscape:export-xdpi="72"
       inkscape:connector-curvature="0"
       id="path4562-9"
       style="font-style:normal;font-variant:normal;font-weight:bold;font-stretch:normal;font-size:192px;line-height:1.25;font-family:EBI-Functional;-inkscape-font-specification:'EBI-Functional Bold';letter-spacing:0px;word-spacing:0px;fill:#ffffff;fill-opacity:1;stroke:none;stroke-width:0.103938;stroke-linecap:square;stroke-miterlimit:10"
       d="m -25.606515,63.605556 h -1.831925 -2.494523 -1.831904 q -0.272843,0 -0.467721,0.194881 -0.155962,0.155962 -0.155962,0.428772 0,0.233845 0.155962,0.428722 0.194878,0.155962 0.467721,0.155962 h 0.584654 v 4.170534 q 0,1.247253 -0.623636,2.299628 l -3.66383,6.119367 q -0.272827,0.428741 -0.311809,1.091355 0,0.623618 0.233862,1.052374 l 0.117013,0.272845 q 0.233863,0.467708 0.740565,0.779535 0.545672,0.311822 1.052362,0.311822 h 9.900125 q 0.506719,0 1.013409,-0.311822 0.545672,-0.311827 0.779548,-0.779535 l 0.116848,-0.272845 q 0.233859,-0.428756 0.194893,-1.052374 0,-0.662614 -0.272843,-1.091355 l -3.663826,-6.119367 q -0.623637,-1.052375 -0.623637,-2.299628 v -4.170534 h 0.584668 q 0.272826,0 0.428724,-0.155962 0.194894,-0.194877 0.194894,-0.428722 0,-0.272861 -0.194894,-0.428772 -0.155962,-0.194881 -0.428724,-0.194881 z m 0,-1.325201 q 0.818512,0 1.364184,0.584652 0.584649,0.545672 0.584649,1.32522 0,0.623618 -0.350791,1.130321 -0.350792,0.46772 -0.896477,0.701583 v 2.962247 q 0,0.857477 0.467739,1.637023 l 3.663829,6.08039 q 0.42874,0.740547 0.467704,1.714992 0.03897,0.974428 -0.350775,1.714975 l -0.117012,0.272827 q -0.389774,0.779547 -1.247272,1.286232 -0.818512,0.54569 -1.714975,0.54569 h -9.900125 q -0.89648,0 -1.753958,-0.54569 -0.818515,-0.506685 -1.208307,-1.286232 l -0.116848,-0.272827 q -0.389773,-0.740547 -0.350792,-1.714975 0.03897,-0.974445 0.467722,-1.714992 l 3.663812,-6.08039 q 0.467738,-0.740563 0.467738,-1.637023 v -2.962247 q -0.545685,-0.233863 -0.896463,-0.701583 -0.350792,-0.506703 -0.350792,-1.130321 0,-0.779548 0.545672,-1.32522 0.584654,-0.584652 1.403166,-0.584652 h 1.831921 2.494509 z m 2.650416,15.35688 q 0.272845,0.46772 0.272845,0.779548 0,0.467702 -0.350809,0.818493 -0.311809,0.35081 -0.77953,0.389792 v 0.03897 h -4.872097 -4.872115 v -0.03897 q -0.467726,-0.03897 -0.818517,-0.389792 -0.311809,-0.350791 -0.311809,-0.818493 0,-0.155962 0.03896,-0.350792 0.0779,-0.194898 0.155963,-0.311827 l 0.0779,-0.117013 3.079159,-4.911079 h 2.650435 2.650437 z" />
    <g
       inkscape:export-ydpi="72"
       inkscape:export-xdpi="72"
       transform="matrix(0.09102177,0,0,0.09102177,-102.43371,-134.52211)"
       id="text4553-8"
       style="font-style:normal;font-variant:normal;font-weight:bold;font-stretch:normal;font-size:96px;line-height:1.25;font-family:Corbel;-inkscape-font-specification:'Corbel Bold';letter-spacing:0px;word-spacing:0px;fill:#ffffff;fill-opacity:1;stroke:none;stroke-linecap:square;stroke-miterlimit:10"
       aria-label="S">
      <path
         inkscape:connector-curvature="0"
         id="path4555-4"
         style="font-style:normal;font-variant:normal;font-weight:bold;font-stretch:normal;font-size:192px;font-family:EBI-Generic;-inkscape-font-specification:'EBI-Generic Bold';fill:#ffffff;fill-opacity:1;stroke:none"
         d="m 832.94751,2992.0413 v 11.625 h 11.625 v 11.625 h -69.75 v -11.625 h 11.625 v -11.625 h -34.875 v -104.625 h 116.25 v 104.625 z m 23.25,-93 h -93 v 81.375 h 93 z m -174.375,-23.25 h 58.125 v 139.5 h -58.125 z m 11.625,104.625 h 11.625 v -11.625 h -11.625 z m 0,-23.25 h 11.625 v -11.625 h -11.625 z m 0,-34.875 h 34.875 v -11.625 h -34.875 z m 0,-23.25 h 34.875 v -11.625 h -34.875 z" />
    </g>
    <path
       inkscape:export-ydpi="72"
       inkscape:export-xdpi="72"
       style="fill:#ffffff;stroke-width:0.543189"
       d="m -82.134967,171.24683 h -2.172754 a 0.54318961,0.54318961 0 0 1 -0.54318,-0.5432 v -4.34499 a 0.54318961,0.54318961 0 0 1 0.54318,-0.54318 h 2.172754 a 0.54318961,0.54318961 0 0 1 0.543184,0.54318 v 4.34499 a 0.54318961,0.54318961 0 0 1 -0.543184,0.5432 z m -4.346604,0 h -2.17275 a 0.54318961,0.54318961 0 0 1 -0.54319,-0.5432 v -10.86379 a 0.54318961,0.54318961 0 0 1 0.54319,-0.5432 h 2.17275 a 0.54318961,0.54318961 0 0 1 0.54319,0.5432 v 10.86379 a 0.54318961,0.54318961 0 0 1 -0.54319,0.5432 z m 8.69321,0 h -2.17276 a 0.54318961,0.54318961 0 0 1 -0.543189,-0.5432 v -7.60465 a 0.54318961,0.54318961 0 0 1 0.543189,-0.5432 h 2.17276 a 0.54318961,0.54318961 0 0 1 0.543192,0.5432 v 7.60465 a 0.54318961,0.54318961 0 0 1 -0.543192,0.5432 z m 4.346059,0 h -2.172759 a 0.54318961,0.54318961 0 0 1 -0.543188,-0.5432 v -3.25914 a 0.54318961,0.54318961 0 0 1 0.543188,-0.54318 h 2.172759 a 0.54318961,0.54318961 0 0 1 0.54319,0.54318 v 3.25914 a 0.54318961,0.54318961 0 0 1 -0.54319,0.5432 z m 1.08584,0.54319 h -17.382079 v 2.17272 h 17.382079 z"
       id="path16338-8" />
    <g
       inkscape:export-ydpi="72"
       inkscape:export-xdpi="72"
       aria-label="D"
       style="font-style:normal;font-variant:normal;font-weight:bold;font-stretch:normal;font-size:3.39762px;line-height:1.25;font-family:Corbel;-inkscape-font-specification:'Corbel Bold';letter-spacing:0px;word-spacing:0px;fill:#ffffff;fill-opacity:1;stroke:none;stroke-width:0.0353919;stroke-linecap:square;stroke-miterlimit:10"
       id="text4455-3"
       transform="matrix(2.3758949,0,0,2.3758949,-170.99702,-195.56493)">
      <path
         d="m 10.391458,144.12245 q -0.8626764,-0.2389 -0.8626764,-0.57069 0,-0.3318 0.8626764,-0.5707 0.875949,-0.23889 2.096968,-0.23889 1.234291,0 2.11024,0.23889 0.875948,0.2389 0.875948,0.5707 0,0.33179 -0.875948,0.57069 -0.875949,0.23889 -2.11024,0.23889 -1.221019,0 -2.096968,-0.23889 z m 0.278711,1.03521 q 0.796317,0.13272 1.818257,0.13272 1.035212,0 1.831529,-0.13272 0.796317,-0.13272 1.048484,-0.34507 0.106175,0.13272 0.106175,0.26544 0,0.43797 -0.875948,0.7565 -0.875949,0.30525 -2.11024,0.30525 -1.221019,0 -2.096968,-0.30525 -0.8626764,-0.31853 -0.8626764,-0.7565 0,-0.13272 0.092904,-0.26544 0.252167,0.21235 1.0484834,0.34507 z m 0,3.39762 q 0.796317,0.13272 1.818257,0.13272 1.035212,0 1.831529,-0.13272 0.796317,-0.13272 1.048484,-0.34507 0.106175,0.13272 0.106175,0.26544 0,0.41143 -0.769773,0.70341 -0.756501,0.30526 -1.871344,0.34507 -0.172536,0.0133 -0.331799,0.0133 -0.159263,0 -0.345071,-0.0133 -1.114843,-0.0398 -1.871344,-0.34507 -0.7565014,-0.29198 -0.7565014,-0.70341 0,-0.13272 0.092904,-0.26544 0.252167,0.21235 1.0484834,0.34507 z m 3.928497,-0.96885 q -0.875949,0.30525 -2.11024,0.30525 -1.221019,0 -2.096968,-0.30525 -0.8626764,-0.31853 -0.8626764,-0.7565 0,-0.13272 0.092904,-0.26544 0.252167,0.21235 1.0484834,0.34507 0.796317,0.13272 1.818257,0.13272 1.035212,0 1.831529,-0.13272 0.796317,-0.13272 1.048484,-0.34507 0.106175,0.13272 0.106175,0.26544 0,0.43797 -0.875948,0.7565 z"
         style="font-style:normal;font-variant:normal;font-weight:bold;font-stretch:normal;font-size:6.79524px;font-family:EBI-Generic;-inkscape-font-specification:'EBI-Generic Bold';fill:#ffffff;fill-opacity:1;stroke:none;stroke-width:0.0353919"
         id="path4457-04"
         inkscape:connector-curvature="0" />
    </g>
    <path
       inkscape:export-ydpi="72"
       inkscape:export-xdpi="72"
       style="fill:#ffffff;stroke-width:0.566277"
       d="m -168.43643,99.060501 c 0.77409,0 1.47288,0.321088 1.9712,0.836976 l 7.38879,-3.694407 a 2.7288911,2.7288911 0 0 1 0,-0.86754 l -7.38879,-3.694393 a 2.7430482,2.7430482 0 1 1 0.73729,-1.47232 l 7.38879,3.694406 a 2.7351203,2.7351203 0 0 1 1.97122,-0.836976 2.7436142,2.7436142 0 0 1 0,5.486119 2.7322889,2.7322889 0 0 1 -1.97122,-0.836976 l -7.38879,3.69326 a 2.7430482,2.7430482 0 1 1 -2.70849,-2.308149 z"
       id="path14646-4" />
    <path
       id="path2195"
       d="m -135.46432,33.808368 c 2.42462,0.0044 4.62607,0.959808 6.25136,2.513029 l 1.30672,-1.306695 c 0.55318,-0.553205 1.49902,-0.161423 1.49902,0.620896 v 4.90491 c 0,0.484969 -0.39313,0.878105 -0.87809,0.878105 h -4.90492 c -0.78233,0 -1.17411,-0.94583 -0.62093,-1.499034 l 1.52753,-1.527539 c -1.12924,-1.057347 -2.59045,-1.643041 -4.14283,-1.656432 -3.38062,-0.02919 -6.23026,2.706647 -6.20101,6.199491 0.0277,3.313419 2.71399,6.093754 6.1465,6.093754 1.50475,0 2.92691,-0.537034 4.04769,-1.520438 0.17355,-0.152242 0.43562,-0.142985 0.59888,0.02023 l 1.45114,1.451142 c 0.17825,0.178256 0.16943,0.468871 -0.0177,0.637833 -1.60897,1.4533 -3.74116,2.338245 -6.08007,2.338245 -5.01127,0 -9.07371,-4.06244 -9.07375,-9.073673 -3e-5,-5.005529 4.08488,-9.082788 9.09041,-9.073824 z"
       style="fill:#ffffff;stroke-width:0.0365875" />
    <text
       y="177.55681"
       x="-209.56509"
       id="text2246-7-3-7-9-2"
       style="font-weight:bold;font-size:14.1111px;line-height:1.25;font-family:Corbel;-inkscape-font-specification:'Corbel Bold';letter-spacing:0px;word-spacing:0px;fill:#000000;stroke-width:0.264583"
       xml:space="preserve"><tspan
         style="font-size:14.1111px;fill:#000000;stroke-width:0.264583"
         id="tspan2244-6-1-5-6-1">5. Preserve</tspan></text>
    <text
       y="102.39487"
       x="-229.02438"
       xml:space="preserve"
       style="font-weight:bold;font-size:14.1111px;line-height:1.25;font-family:Corbel;-inkscape-font-specification:'Corbel Bold';letter-spacing:0px;word-spacing:0px;fill:#000000;stroke-width:0.264583"
       id="text2246-7-3-7-9-2-7"><tspan
         id="tspan2244-6-1-5-6-1-8"
         style="font-size:14.1111px;fill:#000000;stroke-width:0.264583">6. Share</tspan></text>
    <text
       id="text165"
       y="27.888847"
       x="-202.88815"
       style="font-weight:bold;font-size:14.1111px;line-height:1.25;font-family:Corbel;-inkscape-font-specification:'Corbel Bold';letter-spacing:0px;word-spacing:0px;stroke-width:0.264583"
       xml:space="preserve"><tspan
         style="font-size:14.1111px;stroke-width:0.264583"
         y="27.888847"
         x="-202.88815"
         id="tspan163"
         sodipodi:role="line">7. Re-use</tspan></text>
    <text
       id="text880"
       y="190.90857"
       x="-66.379112"
       style="font-weight:bold;font-size:14.1111px;line-height:1.25;font-family:Corbel;-inkscape-font-specification:'Corbel Bold';letter-spacing:0px;word-spacing:0px;stroke-width:0.264583"
       xml:space="preserve"><tspan
         style="font-size:14.1111px;stroke-width:0.264583"
         y="190.90857"
         x="-66.379112"
         id="tspan878"
         sodipodi:role="line">4. Analyze</tspan></text>
    <text
       id="text884"
       y="157.85091"
       x="-1.7672545"
       style="font-weight:bold;font-size:2.11667px;line-height:1.25;font-family:Corbel;-inkscape-font-specification:'Corbel Bold';letter-spacing:0px;word-spacing:0px;fill:#000000;stroke-width:0.264583"
       xml:space="preserve"><tspan
         style="fill:#000000;stroke-width:0.264583"
         y="157.85091"
         x="-1.7672545"
         id="tspan882"
         sodipodi:role="line" /></text>
    <text
       id="text892"
       y="141.36671"
       x="-16.506845"
       style="font-weight:bold;font-size:14.1111px;line-height:1.25;font-family:Corbel;-inkscape-font-specification:'Corbel Bold';letter-spacing:0px;word-spacing:0px;stroke-width:0.264583"
       xml:space="preserve"><tspan
         style="font-size:14.1111px;stroke-width:0.264583"
         y="141.36671"
         x="-16.506845"
         id="tspan890"
         sodipodi:role="line">4. Process</tspan></text>
    <text
       id="text896"
       y="58.246284"
       x="-15.453014"
       style="font-weight:bold;font-size:14.1111px;line-height:1.25;font-family:Corbel;-inkscape-font-specification:'Corbel Bold';letter-spacing:0px;word-spacing:0px;stroke-width:0.264583"
       xml:space="preserve"><tspan
         style="font-size:14.1111px;stroke-width:0.264583"
         y="58.246284"
         x="-15.453014"
         id="tspan894"
         sodipodi:role="line">2. Collect</tspan></text>
    <text
       id="text900"
       y="15.131575"
       x="-68.788742"
       style="font-weight:bold;font-size:14.1111px;line-height:1.25;font-family:Corbel;-inkscape-font-specification:'Corbel Bold';letter-spacing:0px;word-spacing:0px;stroke-width:0.264583"
       xml:space="preserve"><tspan
         style="font-size:14.1111px;stroke-width:0.264583"
         y="15.131575"
         x="-68.788742"
         id="tspan898"
         sodipodi:role="line">1. Plan</tspan></text>
  </g>
</svg>
