<?xml version="1.0" encoding="utf-8"?>
<svg version="1.1" id="Layer_2_1_" xmlns="http://www.w3.org/2000/svg" xmlns:xlink="http://www.w3.org/1999/xlink" x="0px" y="0px"
	 viewBox="0 0 250.9 251" style="enable-background:new 0 0 250.9 251;" xml:space="preserve">
<style type="text/css">
	.st0{fill:#f47d21;}
	.st1{fill:#FFFFFF; pointer-events: none;}
	.st2{fill:#DBBE28;}
	.st3{fill:#763E2A;}
	.st4{fill:#309E69;}
	.st5{fill:#903292;}
	.st6{fill:#023452;}
	.st7{fill:#C63244;}
	.st8{font-family: 'Lato', sans-serif;}
	.st9{font-size:13.5px;}
	.st0,.st2,.st3,.st4,.st5,.st6,.st7 {transition: fill 0.3s;}
	.st0:hover,.st2:hover,.st3:hover,.st4:hover,.st5:hover,.st6:hover,.st7:hover {fill:#b0c3cf;cursor: pointer;}
	text {pointer-events : none;}

</style>

<a xlink:href="../reusing" target="_top">
<g id="ReusePath">
	<path class="st0" d="M63.9,52.1l14.9,33.1c10.7-12.4,26.2-20.5,43.6-21.3l16.7-32.3L122.9,0C85.3,0.8,51.7,18.1,29.2,45L63.9,52.1z
		"/>
	<path class="st1" d="M92.5,17.4c2-0.9,4.1-1.3,6.3-1.3c0.2,0,0.4,0.1,0.5,0.3c0.2,0.2,0.2,0.6,0,0.8c-0.1,0.2-0.4,0.3-0.6,0.4
		c-0.4,0.2-0.8,0.3-1.1,0.5c-0.3,0.2-0.6,0.3-0.9,0.5c-0.6,0.4-1.2,0.8-1.7,1.2c-0.8,0.7-1.5,1.4-2,2.3c-1,1.5-1.6,3.2-1.8,5
		c1.1,0,2.2,0,3.3,0c0.3,0,0.5,0.1,0.6,0.4c0.1,0.2,0.1,0.4,0,0.6c-0.1,0.2-0.3,0.4-0.5,0.6c-1.9,2.1-3.9,4.3-5.8,6.4
		c-0.2,0.2-0.5,0.3-0.8,0.2c-0.1-0.1-0.2-0.2-0.3-0.3c-1.9-2.1-3.9-4.3-5.8-6.5c-0.2-0.2-0.5-0.5-0.4-0.8c0-0.4,0.3-0.7,0.7-0.7
		c1.1,0,2.3,0,3.4,0c0.2-1.9,0.8-3.7,1.8-5.2C88.7,20,90.5,18.4,92.5,17.4z"/>
	<path class="st1" d="M104.5,19.1c0.3-0.3,0.8-0.3,1,0c2,2.2,3.9,4.4,5.9,6.5c0.2,0.2,0.5,0.5,0.4,0.8c0,0.4-0.4,0.7-0.7,0.7
		c-1.1,0-2.3,0-3.4,0c-0.2,2.3-1.1,4.4-2.5,6.2c-1.3,1.7-3.2,3-5.2,3.8c-0.6,0.2-1.2,0.4-1.8,0.6c-1.2,0.3-2.4,0.4-3.7,0.4
		c-0.4,0-0.7-0.5-0.6-0.9c0.1-0.1,0.1-0.3,0.3-0.4c0.5-0.3,1.1-0.5,1.6-0.8c0.6-0.4,1.3-0.7,1.9-1.2c0.9-0.7,1.7-1.5,2.4-2.4
		c0.5-0.7,0.9-1.5,1.3-2.3c0.4-1,0.7-2,0.8-3.1c-1.1,0-2.3,0-3.5,0c-0.4,0-0.8-0.4-0.7-0.8c0-0.3,0.3-0.5,0.5-0.8
		C100.6,23.4,102.6,21.2,104.5,19.1z"/>
</g>
</a>
<a xlink:href="../preserving" target="_top">
<g id="PreservePath">
	<path class="st2" d="M67.6,201.7l29-21.8c-14.7-7.8-25.8-21.4-30.4-37.8L31,133L3.8,155.8c8.8,35.5,32.8,65.1,64.7,81.4L67.6,201.7
		z"/>
	<path class="st1" d="M48.4,150.2c1.8,0,3.6,0.1,5.3,0.4c1,0.2,2.1,0.5,3.1,0.9c0.6,0.3,1.2,0.6,1.7,1c0.3,0.3,0.5,0.6,0.6,1
		c0,0.4-0.1,0.7-0.3,1c-0.3,0.4-0.8,0.8-1.3,1c-0.8,0.4-1.7,0.7-2.5,0.9c-1.4,0.4-2.9,0.5-4.4,0.6c-2.3,0.1-4.7,0-7-0.5
		c-1-0.2-1.9-0.5-2.8-0.9c-0.6-0.3-1.1-0.6-1.5-1.1c-0.2-0.3-0.4-0.7-0.4-1c0-0.4,0.3-0.8,0.6-1.1c0.7-0.6,1.5-0.9,2.4-1.2
		c1.2-0.4,2.5-0.6,3.8-0.8C46.6,150.3,47.5,150.3,48.4,150.2z"/>
	<path class="st1" d="M38.9,157.1c1.2,0.8,2.6,1.2,4,1.5c2.1,0.5,4.3,0.6,6.4,0.6c1,0,2-0.1,3.1-0.2c2-0.2,4-0.6,5.8-1.4
		c0.4-0.2,0.7-0.3,1-0.6c0,1.4,0,2.8,0,4.2c0,0.3-0.1,0.7-0.3,0.9c-0.3,0.4-0.7,0.7-1.2,0.9c-0.3,0.2-0.5,0.3-0.8,0.4
		c-1.6,0.6-3.3,0.9-4.9,1.1c-1.9,0.2-3.8,0.2-5.7,0c-1.3-0.1-2.5-0.3-3.7-0.7c-1-0.3-2-0.6-2.8-1.3c-0.3-0.3-0.7-0.6-0.8-1
		c0-0.1,0-0.3,0-0.4C38.9,159.8,38.9,158.4,38.9,157.1z"/>
	<path class="st1" d="M38.9,164.8c0.5,0.3,1,0.5,1.6,0.8c1.9,0.7,3.9,1.1,5.9,1.2c1.9,0.1,3.7,0.1,5.6,0c1.9-0.2,3.9-0.5,5.7-1.2
		c0.5-0.2,1.1-0.5,1.6-0.8c0,1.4,0,2.8,0,4.2c0,0.2,0,0.3-0.1,0.5c-0.1,0.4-0.4,0.6-0.7,0.9c-0.7,0.6-1.6,0.9-2.4,1.2
		c-0.6,0.2-1.3,0.4-1.9,0.5c-1.1,0.2-2.2,0.3-3.3,0.4c-0.9,0.1-1.8,0-2.7,0c-1.8-0.1-3.6-0.3-5.4-0.7c-1-0.3-2.1-0.7-3-1.4
		c-0.3-0.2-0.5-0.5-0.7-0.8c-0.1-0.3-0.1-0.6-0.1-0.8C38.9,167.4,38.9,166.1,38.9,164.8z"/>
</g>
</a>
<a xlink:href="../analysing" target="_top">
<g id="AnalysePath">
	<path class="st3" d="M149,218.3l1-36.2c-7.5,3.3-15.8,5.1-24.5,5.1c-8.5,0-16.6-1.7-24-4.9l-29.1,21.8l0.9,35.5
		c15.9,7.3,33.6,11.4,52.2,11.4c18.4,0,36-4,51.7-11.1L149,218.3z"/>
	<path class="st1" d="M123.3,196c1.4,0,2.8,0,4.3,0c0.5,0,0.8,0.4,0.8,0.8c0,7.2,0,14.3,0,21.5c0,0.2-0.1,0.5-0.2,0.7
		c-0.2,0.2-0.4,0.3-0.6,0.3c-1.4,0-2.8,0-4.1,0c-0.3,0-0.5-0.1-0.7-0.3c-0.1-0.2-0.2-0.4-0.2-0.6c0-7.2,0-14.3,0-21.5
		C122.5,196.4,122.8,196,123.3,196z"/>
	<path class="st1" d="M114.6,202.5c0.2,0,0.3,0,0.5,0c1.2,0,2.4,0,3.6,0c0.2,0,0.4,0,0.5,0.1c0.3,0.1,0.5,0.3,0.5,0.6
		c0,0.1,0,0.3,0,0.4c0,5,0,9.9,0,14.9c0,0.5-0.4,0.9-0.8,0.9c-1.3,0-2.6,0-3.9,0c-0.2,0-0.4,0-0.6-0.1c-0.3-0.1-0.5-0.4-0.5-0.8
		c0-5,0-10,0-15.1C114,202.9,114.2,202.6,114.6,202.5z"/>
	<path class="st1" d="M106.3,208.7c1.4,0,2.9,0,4.3,0c0.4,0,0.8,0.4,0.8,0.8c0,2.9,0,5.8,0,8.8c0,0.3-0.1,0.6-0.4,0.8
		c-0.2,0.1-0.4,0.2-0.5,0.2c-1.2,0-2.5,0-3.7,0c-0.3,0-0.6,0-0.8-0.1c-0.3-0.1-0.4-0.5-0.4-0.8c0-2.8,0-5.7,0-8.5
		c0-0.2,0-0.4,0.1-0.6C105.6,209,105.9,208.7,106.3,208.7z"/>
</g>
</a>
<a xlink:href="../processing" target="_top">
<g id="ProcessPath">
	<path class="st4" d="M211.7,165L184,141.6c-4.4,16.4-15.5,30.1-30.1,38.1l-1.1,36.3l28.3,21.5c31.9-16.2,56-45.6,65-81.1L211.7,165
		z"/>
	<path class="st1" d="M179.4,172.2c0.1,0,0.2,0,0.4,0c7,0,14,0,21,0c0.3,0,0.6,0,0.8,0.1c0.5,0.2,0.7,0.7,0.7,1.2
		c0,4.3,0,8.6,0,12.8c0,0.4-0.1,0.7-0.3,1c-0.3,0.3-0.7,0.5-1.1,0.5c-7.1,0-14.1,0-21.2,0c-0.4,0-0.9-0.2-1.1-0.6
		c-0.2-0.3-0.3-0.6-0.3-0.9c0-4.3,0-8.5,0-12.8c0-0.4,0.1-0.8,0.4-1C178.9,172.4,179.1,172.3,179.4,172.2z M184.3,178
		c-0.3,0-0.7,0.2-1,0.4c-0.2,0.1-0.3,0.4-0.4,0.6c-0.4,0.6-0.4,1.4,0,2.1c0.4,0.6,1,0.9,1.6,1c0.5,0,1-0.1,1.4-0.4
		c0.1-0.1,0.2-0.1,0.3-0.3c0.3-0.5,0.5-1.1,0.4-1.6c-0.1-0.6-0.5-1.2-1.1-1.5C185.2,178,184.8,178,184.3,178z M195.4,178
		c-0.4,0.1-0.9,0.2-1.2,0.5c-0.3,0.4-0.5,0.8-0.5,1.3c-0.1,1,0.7,2,1.6,2.1c0.6,0.1,1.2-0.1,1.7-0.4c0.2-0.1,0.3-0.3,0.4-0.4
		c0.3-0.5,0.4-1.1,0.2-1.6c-0.1-0.4-0.3-0.7-0.6-1C196.5,178.1,195.9,177.9,195.4,178z M189.8,178c-0.3,0-0.5,0.1-0.8,0.3
		c-0.2,0.1-0.4,0.2-0.5,0.4c-0.4,0.6-0.5,1.3-0.3,1.9c0.2,0.6,0.6,1,1.2,1.3c0.6,0.3,1.3,0.1,1.9-0.2c0.1-0.1,0.3-0.1,0.4-0.3
		c0.3-0.4,0.5-0.9,0.4-1.5c0-0.7-0.5-1.5-1.2-1.8C190.6,178,190.2,178,189.8,178z"/>
	<path class="st1" d="M184.3,179.1c0.3-0.1,0.6,0,0.9,0.1c0.2,0.1,0.3,0.3,0.3,0.5c0.1,0.3,0,0.7-0.3,1c-0.4,0.4-1.3,0.2-1.5-0.4
		C183.6,179.9,183.9,179.3,184.3,179.1z"/>
	<path class="st1" d="M189.9,179.1c0.4-0.2,0.9,0.1,1.1,0.5c0.1,0.3,0.1,0.6,0,0.9c-0.2,0.3-0.5,0.4-0.8,0.4c-0.3,0-0.5-0.2-0.6-0.4
		c-0.2-0.3-0.3-0.7-0.1-1C189.4,179.3,189.7,179.2,189.9,179.1z"/>
	<path class="st1" d="M195.3,179.1c0.3-0.1,0.7,0,1,0.2c0.2,0.2,0.3,0.5,0.3,0.7c0,0.4-0.4,0.8-0.8,0.9c-0.3,0-0.6-0.1-0.8-0.3
		c-0.2-0.2-0.3-0.5-0.2-0.8C194.8,179.5,195,179.2,195.3,179.1z"/>
	<path class="st1" d="M186.8,189c0.9,0,1.7,0,2.6,0c1.3,0,2.7,0,4,0c0.2,0,0.5,0.1,0.5,0.4c0.3,0.9,0.6,1.9,0.9,2.8
		c0.1,0.2,0.1,0.4,0.3,0.6c0.1,0.1,0.3,0.1,0.4,0.1c0.7,0,1.4,0,2.1,0c0.2,0,0.4,0,0.5,0.2c0.3,0.3,0.1,0.7-0.2,0.8
		c-0.1,0-0.2,0-0.3,0c-5,0-10.1,0-15.1,0c-0.3,0-0.6-0.3-0.5-0.6c0-0.3,0.3-0.5,0.6-0.5c0.7,0,1.5,0,2.2,0c0.3,0,0.5-0.2,0.6-0.4
		c0.3-0.9,0.6-1.9,0.9-2.8c0.1-0.2,0.1-0.3,0.2-0.5C186.5,189,186.7,189,186.8,189z"/>
</g>
</a>
<a xlink:href="../planning" target="_top">
<g id="PlanPath">
	<path class="st5" d="M144.4,31.6l-16.6,32.3c17.5,0.7,33.2,8.6,44,20.9l35.7-7l14.6-32.4C199.6,18.3,166,0.8,128.2,0L144.4,31.6z"
		/>
	<path class="st1" d="M166.7,24.1c0.3-0.4,0.8-0.6,1.4-0.6c4.7,0,9.4,0,14.1,0c0.5,0,1,0.2,1.4,0.6c0.3,0.3,0.4,0.7,0.4,1.2
		c0,1,0,2,0,3c-0.3,0.3-0.5,0.5-0.8,0.8c-2.6,2.6-5.3,5.3-7.9,7.9c-0.1,0.1-0.3,0.3-0.3,0.5c-0.4,1.6-0.8,3.1-1.2,4.7
		c0,0.2-0.1,0.4,0,0.5c0.1,0.2,0.4,0.3,0.7,0.3c1.6-0.4,3.2-0.8,4.7-1.3c0.2,0,0.3-0.1,0.4-0.3c1.5-1.5,3-3,4.5-4.5
		c0,2.5,0,5.1,0,7.6c0,0.4-0.1,0.8-0.3,1.1c-0.3,0.4-0.9,0.7-1.4,0.7c-4.7,0-9.4,0-14.1,0c-0.3,0-0.7,0-1-0.2
		c-0.3-0.2-0.6-0.4-0.7-0.8c-0.1-0.3-0.2-0.6-0.2-0.9c0-6.4,0-12.8,0-19.2C166.3,24.8,166.4,24.4,166.7,24.1z"/>
	<path class="st1" d="M185.5,28.4c0.5-0.3,1.2-0.4,1.7-0.1c0.3,0.2,0.6,0.4,0.8,0.7c0.5,0.6,0.6,1.5,0.1,2.1
		c-0.1,0.2-0.3,0.4-0.5,0.5c-0.9-0.9-1.8-1.8-2.7-2.7C185.1,28.7,185.3,28.5,185.5,28.4z"/>
	<path class="st1" d="M176.3,37.5c2.6-2.6,5.2-5.2,7.8-7.8c0.9,0.9,1.8,1.8,2.7,2.7c-2.6,2.6-5.2,5.2-7.8,7.8
		C178.1,39.3,177.2,38.4,176.3,37.5z"/>
	<path class="st1" d="M175.8,38.6l0.1,0.1c0.7,0.7,1.3,1.3,2,2c-1,0.3-1.9,0.5-2.9,0.8C175.3,40.6,175.6,39.6,175.8,38.6z"/>
</g>
</a>
<a xlink:href="../collecting" target="_top">
<g id="CollectPath">
	<path class="st6" d="M213.9,159.8l34.4-8.7c1.7-8.3,2.6-16.8,2.6-25.6c0-28.5-9.5-54.7-25.4-75.8L210.8,82l-35.6,7
		c7.5,10.2,11.9,22.8,11.9,36.4c0,3.7-0.3,7.3-1,10.8L213.9,159.8z"/>
	<path class="st1" d="M215.4,91.9c0.2-0.4,0.6-0.6,1.1-0.6c2.3,0,4.7,0,7,0c0.4,0,0.8,0.2,1,0.5c0.4,0.5,0.3,1.2-0.1,1.6
		c-0.2,0.2-0.5,0.3-0.8,0.3c-0.2,0-0.5,0-0.7,0.1c-0.2,0.1-0.3,0.2-0.3,0.4c0,1.6,0,3.1,0,4.7c0,0.8,0.1,1.6,0.4,2.4
		c0.2,0.4,0.4,0.8,0.6,1.2c0.6,1.1,1.2,2.1,1.8,3.2c-3.7,0-7.4,0-11.1,0c0.7-1.2,1.4-2.5,2-3.7c0.3-0.5,0.5-1,0.6-1.6
		c0.1-0.5,0.2-1,0.2-1.5c0-1.6,0-3.2,0-4.8c0-0.3-0.3-0.5-0.5-0.5c-0.3,0-0.5,0-0.7-0.1c-0.3-0.1-0.5-0.3-0.6-0.5
		C215.2,92.8,215.2,92.3,215.4,91.9z"/>
	<path class="st1" d="M213.8,106.8c4.1,0,8.2,0,12.4,0c0.7,1.3,1.5,2.6,2.2,3.9c0.2,0.3,0.3,0.6,0.4,0.9c0.3,1-0.4,2.2-1.4,2.6
		c-0.3,0.1-0.5,0.1-0.8,0.1c-4.4,0-8.8,0-13.2,0c-0.6,0-1.1-0.2-1.6-0.6c-0.5-0.5-0.8-1.4-0.6-2.1c0.1-0.3,0.2-0.5,0.4-0.8
		C212.3,109.4,213.1,108.1,213.8,106.8z"/>
</g>
</a>
<a xlink:href="../sharing" target="_top">
<g id="SharePath">
	<path class="st7" d="M29.8,127.8l35.1,9c-0.7-3.7-1.1-7.5-1.1-11.4c0-13.4,4.3-25.9,11.6-36L60.6,56.3l-34.8-7
		C9.6,70.4,0,96.8,0,125.5c0,8.6,0.9,17,2.5,25.1L29.8,127.8z"/>
	<path class="st1" d="M42.7,75c0.7-0.1,1.5-0.1,2.2,0.3c1,0.4,1.7,1.3,2,2.3c0.2,0.6,0.1,1.4-0.1,2c-0.4,1.1-1.3,2-2.4,2.4
		c-0.4,0.1-0.8,0.1-1.3,0.1c-0.6-0.1-1.1-0.2-1.6-0.5c-1.1,0.6-2.2,1.2-3.3,1.8c-0.2,0.1-0.3,0.2-0.5,0.3c-0.8,0.4-1.5,0.9-2.3,1.3
		c0.1,0.4,0.2,0.8,0.2,1.2c0,0.4-0.1,0.8-0.2,1.1c0.8,0.4,1.5,0.9,2.3,1.3c0.2,0.1,0.3,0.2,0.5,0.3c1,0.6,2,1.1,3,1.7
		c0.5-0.4,1.1-0.7,1.8-0.7c0.8-0.1,1.6,0.1,2.3,0.5c1,0.6,1.7,1.7,1.7,2.8c0,0.7-0.1,1.4-0.4,1.9c-0.3,0.6-0.8,1.1-1.4,1.4
		c-0.3,0.2-0.7,0.3-1,0.4c-0.6,0.1-1.3,0.1-1.9-0.2c-0.5-0.2-0.9-0.4-1.3-0.8c-0.6-0.5-1-1.3-1.1-2.1c-0.1-0.6,0-1.2,0.2-1.8
		c-0.7-0.4-1.4-0.8-2.2-1.2c-0.4-0.2-0.7-0.4-1-0.5c-0.8-0.5-1.7-0.9-2.5-1.4c-0.5,0.4-1.1,0.7-1.7,0.8c-0.8,0.2-1.7,0-2.5-0.4
		c-0.6-0.4-1.1-0.9-1.4-1.5c-0.4-0.7-0.5-1.5-0.3-2.3c0.1-0.6,0.4-1.1,0.7-1.6c0.4-0.5,1-0.9,1.7-1.2c0.6-0.2,1.3-0.3,2-0.1
		c0.6,0.1,1.1,0.4,1.5,0.8c1.1-0.6,2.2-1.2,3.3-1.8c0.1-0.1,0.3-0.1,0.4-0.2c0.7-0.4,1.4-0.8,2.2-1.2c-0.7-1.3-0.4-3.1,0.7-4.1
		C41.4,75.5,42,75.2,42.7,75z"/>
</g>
</a>
<text transform="matrix(1 0 0 1 16.4197 111.8653)" class="st1 st8 st9">Share</text>
<text transform="matrix(1 0 0 1 76.3974 53.4992)" class="st1 st8 st9">Reuse</text>
<text transform="matrix(1 0 0 1 19.2957 187.4998)" class="st1 st8 st9">Preserve</text>
<text transform="matrix(1 0 0 1 90.1372 234.4302)" class="st1 st8 st9">Analyse</text>
<text transform="matrix(1 0 0 1 162.3473 208.6529)" class="st1 st8 st9">Process</text>
<text transform="matrix(1 0 0 1 159.7342 61.5168)" class="st1 st8 st9">Plan</text>
<text transform="matrix(1 0 0 1 197.0817 128.9797)" class="st1 st8 st9">Collect</text>
</svg>
