<?xml version="1.0" encoding="UTF-8"?>
<svg xmlns="http://www.w3.org/2000/svg" width="1400px" height="1400px" viewBox="0 0 1000 1000" fill="none">
  <rect width="1000" height="1000" fill="white"></rect>
  <path d="M280 678.37V321.63C280 298.666 298.666 280 321.63 280C339.759 280 355.807 291.75 361.312 309.007L406.568 451.354C412.544 470.154 432.62 480.494 451.354 474.519C462.365 471.027 471.027 462.365 474.519 451.354L519.774 309.007C525.28 291.75 541.328 280 559.457 280H678.37C701.334 280 720 298.666 720 321.63C720 339.759 708.25 355.807 690.993 361.312L548.646 406.568C529.846 412.544 519.506 432.62 525.481 451.354C531.457 470.154 551.534 480.494 570.267 474.519C574.833 473.041 578.996 470.758 582.622 467.603L651.311 408.918C668.769 393.945 695.022 396.026 709.995 413.484C716.911 421.541 720.47 432.016 719.933 442.625L714.024 561.27C713.017 580.943 696.298 596.118 676.624 595.111C669.507 594.775 662.658 592.291 657.018 587.993L580.943 530.92C565.164 519.103 542.805 522.326 530.987 538.038C528.57 541.26 526.757 544.819 525.549 548.646L480.293 690.993C474.787 708.25 458.74 720 440.61 720H321.63C298.666 720 280 701.334 280 678.37Z" fill="black"></path>
</svg>
