<?xml version="1.0" encoding="UTF-8"?>
<svg xmlns="http://www.w3.org/2000/svg" width="1400px" height="576px" viewBox="0 0 2500 1029" fill="none">
  <rect width="2500" height="1029" fill="white"></rect>
  <path d="M897.839 333.2H947.759V348.4H897.839V398H880.239V283.6H959.599V298.8H897.839V333.2Z" fill="black"></path>
  <path d="M1036.87 316.4V398H1021.19V316.4H1036.87ZM982.631 368.56C982.631 372.186 983.164 375.386 984.231 378.16C985.404 380.933 987.164 383.12 989.511 384.72C991.964 386.213 995.164 386.96 999.111 386.96C1002.52 386.96 1005.56 386.48 1008.23 385.52C1011 384.56 1013.35 383.173 1015.27 381.36C1017.19 379.44 1018.63 377.253 1019.59 374.8C1020.66 372.346 1021.19 369.573 1021.19 366.48H1021.51V387.76H1020.87C1018.74 390.853 1015.48 393.733 1011.11 396.4C1006.74 398.96 1001.03 400.24 993.991 400.24C988.977 400.24 984.391 399.28 980.231 397.36C976.177 395.44 972.924 392.453 970.471 388.4C968.017 384.24 966.791 379.066 966.791 372.88V316.4H982.631V368.56Z" fill="black"></path>
  <path d="M1056.71 398V316.4H1072.39V398H1056.71ZM1110.95 345.68C1110.95 342.053 1110.36 338.853 1109.19 336.08C1108.12 333.306 1106.36 331.173 1103.91 329.68C1101.56 328.186 1098.41 327.44 1094.47 327.44C1091.05 327.44 1087.96 327.92 1085.19 328.88C1082.52 329.84 1080.23 331.226 1078.31 333.04C1076.39 334.853 1074.89 337.04 1073.83 339.6C1072.87 342.053 1072.39 344.826 1072.39 347.92H1066.95V326.64H1072.71C1074.84 323.546 1078.09 320.666 1082.47 318C1086.84 315.333 1092.55 314 1099.59 314C1104.71 314 1109.29 315.013 1113.35 317.04C1117.4 318.96 1120.65 321.946 1123.11 326C1125.56 329.946 1126.79 335.066 1126.79 341.36V398H1110.95V345.68Z" fill="black"></path>
  <path d="M1203.28 283.6H1219.12V398H1203.28V283.6ZM1202.96 326.32H1207.28V388.4H1202.96C1201.58 390.213 1199.71 392.08 1197.36 394C1195.12 395.813 1192.35 397.306 1189.04 398.48C1185.84 399.653 1182.11 400.24 1177.84 400.24C1170.91 400.24 1164.67 398.533 1159.12 395.12C1153.68 391.706 1149.36 386.8 1146.16 380.4C1142.96 373.893 1141.36 366.16 1141.36 357.2C1141.36 350.48 1142.27 344.453 1144.08 339.12C1145.9 333.786 1148.46 329.253 1151.76 325.52C1155.18 321.786 1159.07 318.96 1163.44 317.04C1167.82 315.013 1172.62 314 1177.84 314C1182.11 314 1185.84 314.586 1189.04 315.76C1192.35 316.933 1195.12 318.48 1197.36 320.4C1199.71 322.213 1201.58 324.186 1202.96 326.32ZM1180.4 387.28C1184.03 387.28 1187.23 386.586 1190 385.2C1192.78 383.813 1195.12 381.786 1197.04 379.12C1199.07 376.453 1200.62 373.306 1201.68 369.68C1202.75 365.946 1203.28 361.786 1203.28 357.2C1203.28 351.013 1202.38 345.68 1200.56 341.2C1198.75 336.613 1196.14 333.146 1192.72 330.8C1189.31 328.346 1185.2 327.12 1180.4 327.12C1176.67 327.12 1173.36 327.92 1170.48 329.52C1167.6 331.12 1165.2 333.306 1163.28 336.08C1161.47 338.853 1160.08 342.053 1159.12 345.68C1158.16 349.306 1157.68 353.146 1157.68 357.2C1157.68 362.533 1158.48 367.493 1160.08 372.08C1161.79 376.666 1164.35 380.346 1167.76 383.12C1171.18 385.893 1175.39 387.28 1180.4 387.28Z" fill="black"></path>
  <path d="M1274.7 400.4C1266.06 400.4 1258.7 398.533 1252.62 394.8C1246.65 391.066 1242.12 385.946 1239.02 379.44C1235.93 372.826 1234.38 365.36 1234.38 357.04C1234.38 350.64 1235.29 344.826 1237.1 339.6C1239.02 334.266 1241.69 329.68 1245.1 325.84C1248.62 322 1252.84 319.066 1257.74 317.04C1262.76 314.906 1268.41 313.84 1274.7 313.84C1283.02 313.84 1290.01 315.546 1295.66 318.96C1301.42 322.373 1305.8 327.226 1308.78 333.52C1311.88 339.706 1313.42 347.013 1313.42 355.44C1313.42 356.506 1313.42 357.626 1313.42 358.8C1313.42 359.866 1313.37 360.72 1313.26 361.36H1242.22V349.04H1296.94C1296.94 345.84 1296.41 342.906 1295.34 340.24C1294.28 337.466 1292.73 335.066 1290.7 333.04C1288.78 331.013 1286.44 329.466 1283.66 328.4C1280.89 327.226 1277.74 326.64 1274.22 326.64C1269.64 326.64 1265.53 327.653 1261.9 329.68C1258.38 331.706 1255.61 334.533 1253.58 338.16C1251.56 341.786 1250.54 346.053 1250.54 350.96C1250.54 352.666 1250.54 354.373 1250.54 356.08C1250.54 357.68 1250.54 359.173 1250.54 360.56C1250.54 365.253 1251.45 369.626 1253.26 373.68C1255.08 377.733 1257.8 381.093 1261.42 383.76C1265.05 386.32 1269.58 387.6 1275.02 387.6C1279.82 387.6 1283.66 386.746 1286.54 385.04C1289.53 383.333 1291.77 381.36 1293.26 379.12C1294.86 376.773 1295.93 374.693 1296.46 372.88H1312.3C1310.92 378.106 1308.62 382.8 1305.42 386.96C1302.22 391.12 1298.06 394.426 1292.94 396.88C1287.93 399.226 1281.85 400.4 1274.7 400.4Z" fill="black"></path>
  <path d="M1387.14 283.6H1402.98V398H1387.14V283.6ZM1386.82 326.32H1391.14V388.4H1386.82C1385.43 390.213 1383.56 392.08 1381.22 394C1378.98 395.813 1376.2 397.306 1372.9 398.48C1369.7 399.653 1365.96 400.24 1361.7 400.24C1354.76 400.24 1348.52 398.533 1342.98 395.12C1337.54 391.706 1333.22 386.8 1330.02 380.4C1326.82 373.893 1325.22 366.16 1325.22 357.2C1325.22 350.48 1326.12 344.453 1327.94 339.12C1329.75 333.786 1332.31 329.253 1335.62 325.52C1339.03 321.786 1342.92 318.96 1347.3 317.04C1351.67 315.013 1356.47 314 1361.7 314C1365.96 314 1369.7 314.586 1372.9 315.76C1376.2 316.933 1378.98 318.48 1381.22 320.4C1383.56 322.213 1385.43 324.186 1386.82 326.32ZM1364.26 387.28C1367.88 387.28 1371.08 386.586 1373.86 385.2C1376.63 383.813 1378.98 381.786 1380.9 379.12C1382.92 376.453 1384.47 373.306 1385.54 369.68C1386.6 365.946 1387.14 361.786 1387.14 357.2C1387.14 351.013 1386.23 345.68 1384.42 341.2C1382.6 336.613 1379.99 333.146 1376.58 330.8C1373.16 328.346 1369.06 327.12 1364.26 327.12C1360.52 327.12 1357.22 327.92 1354.34 329.52C1351.46 331.12 1349.06 333.306 1347.14 336.08C1345.32 338.853 1343.94 342.053 1342.98 345.68C1342.02 349.306 1341.54 353.146 1341.54 357.2C1341.54 362.533 1342.34 367.493 1343.94 372.08C1345.64 376.666 1348.2 380.346 1351.62 383.12C1355.03 385.893 1359.24 387.28 1364.26 387.28Z" fill="black"></path>
  <path d="M1474.99 283.6V398H1459.31V283.6H1474.99ZM1475.31 387.92H1471.15V326H1475.31C1476.81 323.973 1478.67 322.053 1480.91 320.24C1483.15 318.426 1485.87 316.933 1489.07 315.76C1492.38 314.586 1496.17 314 1500.43 314C1507.37 314 1513.55 315.76 1518.99 319.28C1524.54 322.693 1528.91 327.653 1532.11 334.16C1535.42 340.56 1537.07 348.24 1537.07 357.2C1537.07 363.92 1536.11 369.946 1534.19 375.28C1532.38 380.613 1529.82 385.146 1526.51 388.88C1523.21 392.506 1519.31 395.333 1514.83 397.36C1510.46 399.28 1505.66 400.24 1500.43 400.24C1496.17 400.24 1492.38 399.653 1489.07 398.48C1485.87 397.306 1483.15 395.813 1480.91 394C1478.67 392.08 1476.81 390.053 1475.31 387.92ZM1497.87 327.12C1494.35 327.12 1491.15 327.813 1488.27 329.2C1485.5 330.48 1483.1 332.453 1481.07 335.12C1479.15 337.786 1477.66 340.986 1476.59 344.72C1475.63 348.346 1475.15 352.506 1475.15 357.2C1475.15 363.28 1476.06 368.613 1477.87 373.2C1479.69 377.68 1482.3 381.146 1485.71 383.6C1489.13 386.053 1493.18 387.28 1497.87 387.28C1501.61 387.28 1504.91 386.48 1507.79 384.88C1510.67 383.173 1513.02 380.933 1514.83 378.16C1516.75 375.386 1518.19 372.186 1519.15 368.56C1520.11 364.933 1520.59 361.146 1520.59 357.2C1520.59 351.866 1519.74 346.906 1518.03 342.32C1516.43 337.733 1513.93 334.053 1510.51 331.28C1507.21 328.506 1502.99 327.12 1497.87 327.12Z" fill="black"></path>
  <path d="M1574.66 397.2L1541.54 316.4H1558.66L1582.5 378.8H1582.82L1605.38 316.4H1621.7L1589.54 399.92C1586.87 406.533 1584.15 411.813 1581.38 415.76C1578.6 419.706 1575.56 422.48 1572.26 424.08C1569.06 425.786 1565.32 426.64 1561.06 426.64C1559.35 426.64 1557.75 426.533 1556.26 426.32C1554.76 426.213 1553 425.946 1550.98 425.52V412.72C1552.36 412.826 1553.54 412.933 1554.5 413.04C1555.46 413.146 1556.52 413.2 1557.7 413.2C1559.83 413.2 1561.96 412.72 1564.1 411.76C1566.34 410.906 1568.36 409.306 1570.18 406.96C1571.99 404.72 1573.48 401.466 1574.66 397.2Z" fill="black"></path>
  <path d="M910.319 559V459.8H873.359V444.6H965.039V459.8H928.079V559H910.319Z" fill="black"></path>
  <path d="M975.716 444.6H991.396V559H975.716V444.6ZM1029.96 506.68C1029.96 503.053 1029.37 499.853 1028.2 497.08C1027.13 494.306 1025.37 492.173 1022.92 490.68C1020.57 489.186 1017.42 488.44 1013.48 488.44C1010.06 488.44 1006.97 488.92 1004.2 489.88C1001.53 490.84 999.236 492.226 997.316 494.04C995.396 495.853 993.902 498.04 992.836 500.6C991.876 503.053 991.396 505.826 991.396 508.92H985.956V487.64H991.716C993.849 484.546 997.102 481.666 1001.48 479C1005.85 476.333 1011.56 475 1018.6 475C1023.72 475 1028.3 476.013 1032.36 478.04C1036.41 479.96 1039.66 482.946 1042.12 487C1044.57 490.946 1045.8 496.066 1045.8 502.36V559H1029.96V506.68Z" fill="black"></path>
  <path d="M1100.69 561.4C1092.05 561.4 1084.69 559.533 1078.61 555.8C1072.64 552.066 1068.11 546.946 1065.01 540.44C1061.92 533.826 1060.37 526.36 1060.37 518.04C1060.37 511.64 1061.28 505.826 1063.09 500.6C1065.01 495.266 1067.68 490.68 1071.09 486.84C1074.61 483 1078.83 480.066 1083.73 478.04C1088.75 475.906 1094.4 474.84 1100.69 474.84C1109.01 474.84 1116 476.546 1121.65 479.96C1127.41 483.373 1131.79 488.226 1134.77 494.52C1137.87 500.706 1139.41 508.013 1139.41 516.44C1139.41 517.506 1139.41 518.626 1139.41 519.8C1139.41 520.866 1139.36 521.72 1139.25 522.36H1068.21V510.04H1122.93C1122.93 506.84 1122.4 503.906 1121.33 501.24C1120.27 498.466 1118.72 496.066 1116.69 494.04C1114.77 492.013 1112.43 490.466 1109.65 489.4C1106.88 488.226 1103.73 487.64 1100.21 487.64C1095.63 487.64 1091.52 488.653 1087.89 490.68C1084.37 492.706 1081.6 495.533 1079.57 499.16C1077.55 502.786 1076.53 507.053 1076.53 511.96C1076.53 513.666 1076.53 515.373 1076.53 517.08C1076.53 518.68 1076.53 520.173 1076.53 521.56C1076.53 526.253 1077.44 530.626 1079.25 534.68C1081.07 538.733 1083.79 542.093 1087.41 544.76C1091.04 547.32 1095.57 548.6 1101.01 548.6C1105.81 548.6 1109.65 547.746 1112.53 546.04C1115.52 544.333 1117.76 542.36 1119.25 540.12C1120.85 537.773 1121.92 535.693 1122.45 533.88H1138.29C1136.91 539.106 1134.61 543.8 1131.41 547.96C1128.21 552.12 1124.05 555.426 1118.93 557.88C1113.92 560.226 1107.84 561.4 1100.69 561.4Z" fill="black"></path>
  <path d="M1194.2 559V444.6H1241.88C1254.57 444.6 1264.23 447.48 1270.84 453.24C1277.45 458.893 1280.76 467 1280.76 477.56C1280.76 482.36 1279.85 486.733 1278.04 490.68C1276.23 494.52 1273.72 497.72 1270.52 500.28C1267.32 502.84 1263.64 504.6 1259.48 505.56V505.88C1263.85 506.733 1267.32 508.546 1269.88 511.32C1272.55 513.986 1274.52 517.24 1275.8 521.08C1277.08 524.92 1277.93 528.92 1278.36 533.08C1278.89 537.24 1279.27 541.133 1279.48 544.76C1279.69 548.386 1279.96 551.426 1280.28 553.88C1280.71 556.226 1281.4 557.56 1282.36 557.88V559H1263.48C1262.63 558.146 1262.09 556.493 1261.88 554.04C1261.77 551.586 1261.72 548.653 1261.72 545.24C1261.72 541.826 1261.45 538.36 1260.92 534.84C1260.49 531.213 1259.64 527.853 1258.36 524.76C1257.08 521.666 1255.05 519.16 1252.28 517.24C1249.61 515.213 1245.93 514.2 1241.24 514.2H1211.8V559H1194.2ZM1211.8 459.8V499H1238.04C1243.48 499 1248.01 498.253 1251.64 496.76C1255.37 495.16 1258.2 492.866 1260.12 489.88C1262.04 486.893 1263 483.213 1263 478.84C1263 472.653 1261.08 467.96 1257.24 464.76C1253.51 461.453 1247.21 459.8 1238.36 459.8H1211.8Z" fill="black"></path>
  <path d="M1334.76 561.4C1326.12 561.4 1318.76 559.533 1312.68 555.8C1306.7 552.066 1302.17 546.946 1299.08 540.44C1295.98 533.826 1294.44 526.36 1294.44 518.04C1294.44 511.64 1295.34 505.826 1297.16 500.6C1299.08 495.266 1301.74 490.68 1305.16 486.84C1308.68 483 1312.89 480.066 1317.8 478.04C1322.81 475.906 1328.46 474.84 1334.76 474.84C1343.08 474.84 1350.06 476.546 1355.72 479.96C1361.48 483.373 1365.85 488.226 1368.84 494.52C1371.93 500.706 1373.48 508.013 1373.48 516.44C1373.48 517.506 1373.48 518.626 1373.48 519.8C1373.48 520.866 1373.42 521.72 1373.32 522.36H1302.28V510.04H1357C1357 506.84 1356.46 503.906 1355.4 501.24C1354.33 498.466 1352.78 496.066 1350.76 494.04C1348.84 492.013 1346.49 490.466 1343.72 489.4C1340.94 488.226 1337.8 487.64 1334.28 487.64C1329.69 487.64 1325.58 488.653 1321.96 490.68C1318.44 492.706 1315.66 495.533 1313.64 499.16C1311.61 502.786 1310.6 507.053 1310.6 511.96C1310.6 513.666 1310.6 515.373 1310.6 517.08C1310.6 518.68 1310.6 520.173 1310.6 521.56C1310.6 526.253 1311.5 530.626 1313.32 534.68C1315.13 538.733 1317.85 542.093 1321.48 544.76C1325.1 547.32 1329.64 548.6 1335.08 548.6C1339.88 548.6 1343.72 547.746 1346.6 546.04C1349.58 544.333 1351.82 542.36 1353.32 540.12C1354.92 537.773 1355.98 535.693 1356.52 533.88H1372.36C1370.97 539.106 1368.68 543.8 1365.48 547.96C1362.28 552.12 1358.12 555.426 1353 557.88C1347.98 560.226 1341.9 561.4 1334.76 561.4Z" fill="black"></path>
  <path d="M1422.74 509.72C1426.47 510.68 1430.15 511.693 1433.78 512.76C1437.51 513.826 1440.87 515.32 1443.86 517.24C1446.95 519.16 1449.41 521.613 1451.22 524.6C1453.03 527.586 1453.94 531.32 1453.94 535.8C1453.94 541.133 1452.61 545.72 1449.94 549.56C1447.38 553.293 1443.59 556.173 1438.58 558.2C1433.57 560.226 1427.49 561.24 1420.34 561.24C1412.13 561.24 1405.25 559.96 1399.7 557.4C1394.26 554.84 1390.1 551.32 1387.22 546.84C1384.45 542.36 1382.95 537.346 1382.74 531.8H1398.58C1398.9 535 1399.75 537.88 1401.14 540.44C1402.63 543 1404.93 545.026 1408.02 546.52C1411.11 547.906 1415.17 548.6 1420.18 548.6C1424.77 548.6 1428.29 548.013 1430.74 546.84C1433.3 545.666 1435.06 544.173 1436.02 542.36C1437.09 540.44 1437.62 538.52 1437.62 536.6C1437.62 533.186 1436.55 530.68 1434.42 529.08C1432.29 527.373 1429.62 526.146 1426.42 525.4C1423.22 524.546 1419.81 523.746 1416.18 523C1412.66 522.146 1409.09 521.24 1405.46 520.28C1401.83 519.213 1398.53 517.773 1395.54 515.96C1392.55 514.146 1390.15 511.853 1388.34 509.08C1386.53 506.306 1385.62 502.786 1385.62 498.52C1385.62 493.826 1386.85 489.72 1389.3 486.2C1391.75 482.68 1395.27 479.96 1399.86 478.04C1404.55 476.013 1410.21 475 1416.82 475C1424.18 475 1430.31 476.173 1435.22 478.52C1440.23 480.866 1444.02 484.066 1446.58 488.12C1449.14 492.066 1450.58 496.386 1450.9 501.08H1435.06C1434.74 498.946 1433.99 496.866 1432.82 494.84C1431.75 492.813 1429.99 491.106 1427.54 489.72C1425.09 488.333 1421.57 487.64 1416.98 487.64C1413.46 487.64 1410.58 488.066 1408.34 488.92C1406.21 489.773 1404.61 490.946 1403.54 492.44C1402.47 493.933 1401.94 495.746 1401.94 497.88C1401.94 500.653 1402.85 502.733 1404.66 504.12C1406.47 505.506 1408.98 506.573 1412.18 507.32C1415.38 507.96 1418.9 508.76 1422.74 509.72Z" fill="black"></path>
  <path d="M1504.39 561.4C1495.75 561.4 1488.39 559.533 1482.31 555.8C1476.34 552.066 1471.81 546.946 1468.71 540.44C1465.62 533.826 1464.07 526.36 1464.07 518.04C1464.07 511.64 1464.98 505.826 1466.79 500.6C1468.71 495.266 1471.38 490.68 1474.79 486.84C1478.31 483 1482.53 480.066 1487.43 478.04C1492.45 475.906 1498.1 474.84 1504.39 474.84C1512.71 474.84 1519.7 476.546 1525.35 479.96C1531.11 483.373 1535.49 488.226 1538.47 494.52C1541.57 500.706 1543.11 508.013 1543.11 516.44C1543.11 517.506 1543.11 518.626 1543.11 519.8C1543.11 520.866 1543.06 521.72 1542.95 522.36H1471.91V510.04H1526.63C1526.63 506.84 1526.1 503.906 1525.03 501.24C1523.97 498.466 1522.42 496.066 1520.39 494.04C1518.47 492.013 1516.13 490.466 1513.35 489.4C1510.58 488.226 1507.43 487.64 1503.91 487.64C1499.33 487.64 1495.22 488.653 1491.59 490.68C1488.07 492.706 1485.3 495.533 1483.27 499.16C1481.25 502.786 1480.23 507.053 1480.23 511.96C1480.23 513.666 1480.23 515.373 1480.23 517.08C1480.23 518.68 1480.23 520.173 1480.23 521.56C1480.23 526.253 1481.14 530.626 1482.95 534.68C1484.77 538.733 1487.49 542.093 1491.11 544.76C1494.74 547.32 1499.27 548.6 1504.71 548.6C1509.51 548.6 1513.35 547.746 1516.23 546.04C1519.22 544.333 1521.46 542.36 1522.95 540.12C1524.55 537.773 1525.62 535.693 1526.15 533.88H1541.99C1540.61 539.106 1538.31 543.8 1535.11 547.96C1531.91 552.12 1527.75 555.426 1522.63 557.88C1517.62 560.226 1511.54 561.4 1504.39 561.4Z" fill="black"></path>
  <path d="M1581.47 561.24C1573.36 561.24 1566.85 559.106 1561.95 554.84C1557.15 550.466 1554.75 544.813 1554.75 537.88C1554.75 533.293 1555.55 529.453 1557.15 526.36C1558.85 523.266 1561.2 520.706 1564.19 518.68C1567.17 516.653 1570.75 515 1574.91 513.72C1579.17 512.44 1583.81 511.32 1588.83 510.36C1592.03 509.72 1594.91 509.133 1597.47 508.6C1600.03 508.066 1602.21 507.373 1604.03 506.52C1605.84 505.666 1607.17 504.6 1608.03 503.32C1608.99 502.04 1609.47 500.386 1609.47 498.36C1609.47 495.373 1608.35 492.813 1606.11 490.68C1603.97 488.546 1599.92 487.48 1593.95 487.48C1586.8 487.48 1581.89 488.653 1579.23 491C1576.56 493.346 1575.01 497.293 1574.59 502.84H1558.59C1558.91 497.613 1560.29 492.92 1562.75 488.76C1565.31 484.493 1569.15 481.133 1574.27 478.68C1579.49 476.12 1586.27 474.84 1594.59 474.84C1600.24 474.84 1605.31 475.746 1609.79 477.56C1614.37 479.266 1618 482.146 1620.67 486.2C1623.44 490.253 1624.83 495.853 1624.83 503V540.44C1624.83 543.426 1625.09 545.666 1625.63 547.16C1626.16 548.653 1627.17 549.4 1628.67 549.4C1628.88 549.4 1629.15 549.4 1629.47 549.4C1629.79 549.4 1630.16 549.346 1630.59 549.24V558.84C1629.2 559.16 1627.81 559.373 1626.43 559.48C1625.15 559.693 1623.87 559.8 1622.59 559.8C1618.75 559.8 1615.76 558.946 1613.63 557.24C1611.49 555.426 1610.21 552.173 1609.79 547.48H1609.47C1606.69 551.64 1602.96 555 1598.27 557.56C1593.68 560.013 1588.08 561.24 1581.47 561.24ZM1584.99 548.6C1589.68 548.6 1593.84 547.8 1597.47 546.2C1601.2 544.6 1604.13 542.2 1606.27 539C1608.4 535.8 1609.47 531.853 1609.47 527.16V515.48C1608.61 516.226 1607.28 516.973 1605.47 517.72C1603.76 518.36 1601.68 519 1599.23 519.64C1596.88 520.173 1594.32 520.76 1591.55 521.4C1586.75 522.36 1582.8 523.533 1579.71 524.92C1576.72 526.2 1574.53 527.8 1573.15 529.72C1571.87 531.533 1571.23 533.88 1571.23 536.76C1571.23 540.6 1572.29 543.533 1574.43 545.56C1576.67 547.586 1580.19 548.6 1584.99 548.6Z" fill="black"></path>
  <path d="M1645.51 477.4H1661.19V559H1645.51V477.4ZM1690.95 491C1689.88 490.786 1688.92 490.68 1688.07 490.68C1687.32 490.573 1686.52 490.52 1685.67 490.52C1680.87 490.52 1676.6 491.64 1672.87 493.88C1669.24 496.013 1666.36 499.053 1664.23 503C1662.2 506.946 1661.19 511.533 1661.19 516.76H1653.51L1649.99 492.92H1661.51C1663.64 487.8 1666.42 483.64 1669.83 480.44C1673.35 477.133 1677.88 475.48 1683.43 475.48C1684.92 475.48 1686.26 475.533 1687.43 475.64C1688.6 475.64 1689.78 475.746 1690.95 475.96V491Z" fill="black"></path>
  <path d="M1757.21 507C1757 504.226 1756.25 501.4 1754.97 498.52C1753.69 495.533 1751.56 493.026 1748.57 491C1745.69 488.973 1741.74 487.96 1736.73 487.96C1731.08 487.96 1726.49 489.453 1722.97 492.44C1719.45 495.32 1716.89 499.053 1715.29 503.64C1713.8 508.226 1713.05 513.08 1713.05 518.2C1713.05 523.32 1713.8 528.173 1715.29 532.76C1716.89 537.346 1719.45 541.08 1722.97 543.96C1726.49 546.84 1731.08 548.28 1736.73 548.28C1741.85 548.28 1745.85 547.32 1748.73 545.4C1751.61 543.373 1753.69 540.866 1754.97 537.88C1756.25 534.786 1757 531.746 1757.21 528.76H1773.53C1773.21 535.053 1771.45 540.653 1768.25 545.56C1765.05 550.36 1760.73 554.2 1755.29 557.08C1749.96 559.96 1743.82 561.4 1736.89 561.4C1728.78 561.4 1721.69 559.586 1715.61 555.96C1709.64 552.226 1705 547.16 1701.69 540.76C1698.38 534.253 1696.73 526.733 1696.73 518.2C1696.73 511.8 1697.64 505.986 1699.45 500.76C1701.37 495.426 1704.09 490.84 1707.61 487C1711.13 483.16 1715.34 480.226 1720.25 478.2C1725.16 476.066 1730.65 475 1736.73 475C1743.66 475 1749.8 476.386 1755.13 479.16C1760.46 481.933 1764.68 485.72 1767.77 490.52C1770.97 495.32 1772.89 500.813 1773.53 507H1757.21Z" fill="black"></path>
  <path d="M1788.27 444.6H1803.95V559H1788.27V444.6ZM1842.51 506.68C1842.51 503.053 1841.93 499.853 1840.75 497.08C1839.69 494.306 1837.93 492.173 1835.47 490.68C1833.13 489.186 1829.98 488.44 1826.03 488.44C1822.62 488.44 1819.53 488.92 1816.75 489.88C1814.09 490.84 1811.79 492.226 1809.87 494.04C1807.95 495.853 1806.46 498.04 1805.39 500.6C1804.43 503.053 1803.95 505.826 1803.95 508.92H1798.51V487.64H1804.27C1806.41 484.546 1809.66 481.666 1814.03 479C1818.41 476.333 1824.11 475 1831.15 475C1836.27 475 1840.86 476.013 1844.91 478.04C1848.97 479.96 1852.22 482.946 1854.67 487C1857.13 490.946 1858.35 496.066 1858.35 502.36V559H1842.51V506.68Z" fill="black"></path>
  <path d="M960.879 644.48C960.346 641.6 959.439 638.666 958.159 635.68C956.986 632.693 955.226 629.92 952.879 627.36C950.533 624.693 947.493 622.56 943.759 620.96C940.026 619.36 935.386 618.56 929.839 618.56C923.546 618.56 918.159 619.786 913.679 622.24C909.306 624.693 905.733 628 902.959 632.16C900.186 636.32 898.159 641.066 896.879 646.4C895.599 651.626 894.959 657.066 894.959 662.72C894.959 668.373 895.599 673.866 896.879 679.2C898.159 684.533 900.186 689.28 902.959 693.44C905.733 697.6 909.306 700.906 913.679 703.36C918.159 705.813 923.546 707.04 929.839 707.04C937.199 707.04 943.066 705.653 947.439 702.88C951.919 700 955.173 696.373 957.199 692C959.333 687.626 960.559 683.093 960.879 678.4H979.279C978.426 686.826 975.919 694.4 971.759 701.12C967.706 707.733 962.159 712.906 955.119 716.64C948.079 720.373 939.706 722.24 929.999 722.24C919.226 722.24 909.839 719.68 901.839 714.56C893.839 709.44 887.653 702.4 883.279 693.44C878.906 684.48 876.719 674.293 876.719 662.88C876.719 654.133 877.946 646.186 880.399 639.04C882.959 631.786 886.586 625.493 891.279 620.16C895.973 614.826 901.573 610.72 908.079 607.84C914.693 604.853 922.053 603.36 930.159 603.36C939.866 603.36 948.186 605.173 955.119 608.8C962.053 612.426 967.599 617.386 971.759 623.68C975.919 629.866 978.426 636.8 979.279 644.48H960.879Z" fill="black"></path>
  <path d="M1033 722.4C1024.46 722.4 1017.16 720.586 1011.08 716.96C1005 713.226 1000.3 708.106 996.996 701.6C993.796 695.093 992.196 687.626 992.196 679.2C992.196 672.8 993.102 666.986 994.916 661.76C996.729 656.426 999.396 651.84 1002.92 648C1006.54 644.053 1010.86 641.066 1015.88 639.04C1021 636.906 1026.7 635.84 1033 635.84C1041.53 635.84 1048.78 637.706 1054.76 641.44C1060.84 645.066 1065.53 650.133 1068.84 656.64C1072.14 663.04 1073.8 670.506 1073.8 679.04C1073.8 685.546 1072.84 691.466 1070.92 696.8C1069.1 702.026 1066.38 706.56 1062.76 710.4C1059.24 714.24 1054.97 717.226 1049.96 719.36C1044.94 721.386 1039.29 722.4 1033 722.4ZM1033 709.44C1037.26 709.44 1040.89 708.693 1043.88 707.2C1046.97 705.706 1049.48 703.573 1051.4 700.8C1053.42 697.92 1054.92 694.666 1055.88 691.04C1056.94 687.413 1057.48 683.466 1057.48 679.2C1057.48 673.44 1056.57 668.32 1054.76 663.84C1053.05 659.253 1050.38 655.626 1046.76 652.96C1043.13 650.293 1038.54 648.96 1033 648.96C1028.84 648.96 1025.21 649.706 1022.12 651.2C1019.02 652.693 1016.46 654.826 1014.44 657.6C1012.41 660.373 1010.92 663.626 1009.96 667.36C1009 670.986 1008.52 674.933 1008.52 679.2C1008.52 684.853 1009.37 689.973 1011.08 694.56C1012.78 699.146 1015.45 702.773 1019.08 705.44C1022.81 708.106 1027.45 709.44 1033 709.44Z" fill="black"></path>
  <path d="M1158.33 638.4V720H1142.65V638.4H1158.33ZM1104.09 690.56C1104.09 694.186 1104.62 697.386 1105.69 700.16C1106.86 702.933 1108.62 705.12 1110.97 706.72C1113.42 708.213 1116.62 708.96 1120.57 708.96C1123.98 708.96 1127.02 708.48 1129.69 707.52C1132.46 706.56 1134.81 705.173 1136.73 703.36C1138.65 701.44 1140.09 699.253 1141.05 696.8C1142.12 694.346 1142.65 691.573 1142.65 688.48H1142.97V709.76H1142.33C1140.2 712.853 1136.94 715.733 1132.57 718.4C1128.2 720.96 1122.49 722.24 1115.45 722.24C1110.44 722.24 1105.85 721.28 1101.69 719.36C1097.64 717.44 1094.38 714.453 1091.93 710.4C1089.48 706.24 1088.25 701.066 1088.25 694.88V638.4H1104.09V690.56Z" fill="black"></path>
  <path d="M1178.16 720V638.4H1193.84V720H1178.16ZM1232.4 667.68C1232.4 664.053 1231.82 660.853 1230.64 658.08C1229.58 655.306 1227.82 653.173 1225.36 651.68C1223.02 650.186 1219.87 649.44 1215.92 649.44C1212.51 649.44 1209.42 649.92 1206.64 650.88C1203.98 651.84 1201.68 653.226 1199.76 655.04C1197.84 656.853 1196.35 659.04 1195.28 661.6C1194.32 664.053 1193.84 666.826 1193.84 669.92H1188.4V648.64H1194.16C1196.3 645.546 1199.55 642.666 1203.92 640C1208.3 637.333 1214 636 1221.04 636C1226.16 636 1230.75 637.013 1234.8 639.04C1238.86 640.96 1242.11 643.946 1244.56 648C1247.02 651.946 1248.24 657.066 1248.24 663.36V720H1232.4V667.68Z" fill="black"></path>
  <path d="M1323.3 668C1323.09 665.226 1322.34 662.4 1321.06 659.52C1319.78 656.533 1317.65 654.026 1314.66 652C1311.78 649.973 1307.84 648.96 1302.82 648.96C1297.17 648.96 1292.58 650.453 1289.06 653.44C1285.54 656.32 1282.98 660.053 1281.38 664.64C1279.89 669.226 1279.14 674.08 1279.14 679.2C1279.14 684.32 1279.89 689.173 1281.38 693.76C1282.98 698.346 1285.54 702.08 1289.06 704.96C1292.58 707.84 1297.17 709.28 1302.82 709.28C1307.94 709.28 1311.94 708.32 1314.82 706.4C1317.7 704.373 1319.78 701.866 1321.06 698.88C1322.34 695.786 1323.09 692.746 1323.3 689.76H1339.62C1339.3 696.053 1337.54 701.653 1334.34 706.56C1331.14 711.36 1326.82 715.2 1321.38 718.08C1316.05 720.96 1309.92 722.4 1302.98 722.4C1294.88 722.4 1287.78 720.586 1281.7 716.96C1275.73 713.226 1271.09 708.16 1267.78 701.76C1264.48 695.253 1262.82 687.733 1262.82 679.2C1262.82 672.8 1263.73 666.986 1265.54 661.76C1267.46 656.426 1270.18 651.84 1273.7 648C1277.22 644.16 1281.44 641.226 1286.34 639.2C1291.25 637.066 1296.74 636 1302.82 636C1309.76 636 1315.89 637.386 1321.22 640.16C1326.56 642.933 1330.77 646.72 1333.86 651.52C1337.06 656.32 1338.98 661.813 1339.62 668H1323.3Z" fill="black"></path>
  <path d="M1354.04 720V638.4H1369.72V720H1354.04ZM1352.6 615.68C1352.6 613.226 1353.4 611.093 1355 609.28C1356.6 607.466 1358.9 606.56 1361.88 606.56C1364.87 606.56 1367.16 607.466 1368.76 609.28C1370.36 611.093 1371.16 613.226 1371.16 615.68C1371.16 618.133 1370.36 620.266 1368.76 622.08C1367.16 623.893 1364.87 624.8 1361.88 624.8C1358.9 624.8 1356.6 623.893 1355 622.08C1353.4 620.266 1352.6 618.133 1352.6 615.68Z" fill="black"></path>
  <path d="M1389.88 605.6H1405.56V720H1389.88V605.6Z" fill="black"></path>
  <path d="M1499.14 722.4C1490.61 722.4 1483.3 720.586 1477.22 716.96C1471.14 713.226 1466.45 708.106 1463.14 701.6C1459.94 695.093 1458.34 687.626 1458.34 679.2C1458.34 672.8 1459.25 666.986 1461.06 661.76C1462.88 656.426 1465.54 651.84 1469.06 648C1472.69 644.053 1477.01 641.066 1482.02 639.04C1487.14 636.906 1492.85 635.84 1499.14 635.84C1507.68 635.84 1514.93 637.706 1520.9 641.44C1526.98 645.066 1531.68 650.133 1534.98 656.64C1538.29 663.04 1539.94 670.506 1539.94 679.04C1539.94 685.546 1538.98 691.466 1537.06 696.8C1535.25 702.026 1532.53 706.56 1528.9 710.4C1525.38 714.24 1521.12 717.226 1516.1 719.36C1511.09 721.386 1505.44 722.4 1499.14 722.4ZM1499.14 709.44C1503.41 709.44 1507.04 708.693 1510.02 707.2C1513.12 705.706 1515.62 703.573 1517.54 700.8C1519.57 697.92 1521.06 694.666 1522.02 691.04C1523.09 687.413 1523.62 683.466 1523.62 679.2C1523.62 673.44 1522.72 668.32 1520.9 663.84C1519.2 659.253 1516.53 655.626 1512.9 652.96C1509.28 650.293 1504.69 648.96 1499.14 648.96C1494.98 648.96 1491.36 649.706 1488.26 651.2C1485.17 652.693 1482.61 654.826 1480.58 657.6C1478.56 660.373 1477.06 663.626 1476.1 667.36C1475.14 670.986 1474.66 674.933 1474.66 679.2C1474.66 684.853 1475.52 689.973 1477.22 694.56C1478.93 699.146 1481.6 702.773 1485.22 705.44C1488.96 708.106 1493.6 709.44 1499.14 709.44Z" fill="black"></path>
  <path d="M1547.11 638.4H1589.35V651.36H1547.11V638.4ZM1573.99 720H1558.31V628.48C1558.31 622.186 1559.16 617.333 1560.87 613.92C1562.57 610.4 1564.97 607.946 1568.07 606.56C1571.27 605.173 1575.05 604.48 1579.43 604.48C1580.92 604.48 1582.36 604.586 1583.75 604.8C1585.24 604.906 1587.11 605.12 1589.35 605.44V618.08C1587.75 617.866 1586.52 617.76 1585.67 617.76C1584.81 617.653 1583.8 617.6 1582.63 617.6C1580.49 617.6 1578.79 617.866 1577.51 618.4C1576.23 618.933 1575.32 620 1574.79 621.6C1574.25 623.093 1573.99 625.28 1573.99 628.16V720Z" fill="black"></path>
  <path d="M1643.16 720V605.6H1663.32L1716.44 693.6H1716.76V605.6H1734.52V720H1714.36L1661.08 632H1660.76V720H1643.16Z" fill="black"></path>
  <path d="M1791.23 722.4C1782.7 722.4 1775.39 720.586 1769.31 716.96C1763.23 713.226 1758.54 708.106 1755.23 701.6C1752.03 695.093 1750.43 687.626 1750.43 679.2C1750.43 672.8 1751.34 666.986 1753.15 661.76C1754.96 656.426 1757.63 651.84 1761.15 648C1764.78 644.053 1769.1 641.066 1774.11 639.04C1779.23 636.906 1784.94 635.84 1791.23 635.84C1799.76 635.84 1807.02 637.706 1812.99 641.44C1819.07 645.066 1823.76 650.133 1827.07 656.64C1830.38 663.04 1832.03 670.506 1832.03 679.04C1832.03 685.546 1831.07 691.466 1829.15 696.8C1827.34 702.026 1824.62 706.56 1820.99 710.4C1817.47 714.24 1813.2 717.226 1808.19 719.36C1803.18 721.386 1797.52 722.4 1791.23 722.4ZM1791.23 709.44C1795.5 709.44 1799.12 708.693 1802.11 707.2C1805.2 705.706 1807.71 703.573 1809.63 700.8C1811.66 697.92 1813.15 694.666 1814.11 691.04C1815.18 687.413 1815.71 683.466 1815.71 679.2C1815.71 673.44 1814.8 668.32 1812.99 663.84C1811.28 659.253 1808.62 655.626 1804.99 652.96C1801.36 650.293 1796.78 648.96 1791.23 648.96C1787.07 648.96 1783.44 649.706 1780.35 651.2C1777.26 652.693 1774.7 654.826 1772.67 657.6C1770.64 660.373 1769.15 663.626 1768.19 667.36C1767.23 670.986 1766.75 674.933 1766.75 679.2C1766.75 684.853 1767.6 689.973 1769.31 694.56C1771.02 699.146 1773.68 702.773 1777.31 705.44C1781.04 708.106 1785.68 709.44 1791.23 709.44Z" fill="black"></path>
  <path d="M1847.28 638.4H1862.96V720H1847.28V638.4ZM1892.72 652C1891.66 651.786 1890.7 651.68 1889.84 651.68C1889.1 651.573 1888.3 651.52 1887.44 651.52C1882.64 651.52 1878.38 652.64 1874.64 654.88C1871.02 657.013 1868.14 660.053 1866 664C1863.98 667.946 1862.96 672.533 1862.96 677.76H1855.28L1851.76 653.92H1863.28C1865.42 648.8 1868.19 644.64 1871.6 641.44C1875.12 638.133 1879.66 636.48 1885.2 636.48C1886.7 636.48 1888.03 636.533 1889.2 636.64C1890.38 636.64 1891.55 636.746 1892.72 636.96V652Z" fill="black"></path>
  <path d="M1900 638.4H1916.96L1934.24 701.6H1934.56L1951.52 638.4H1967.36L1984.32 701.6H1984.8L2002.08 638.4H2018.56L1993.12 720H1976.96L1959.36 657.12H1959.04L1941.44 720H1925.28L1900 638.4Z" fill="black"></path>
  <path d="M2049.33 722.24C2041.23 722.24 2034.72 720.106 2029.81 715.84C2025.01 711.466 2022.61 705.813 2022.61 698.88C2022.61 694.293 2023.41 690.453 2025.01 687.36C2026.72 684.266 2029.07 681.706 2032.05 679.68C2035.04 677.653 2038.61 676 2042.77 674.72C2047.04 673.44 2051.68 672.32 2056.69 671.36C2059.89 670.72 2062.77 670.133 2065.33 669.6C2067.89 669.066 2070.08 668.373 2071.89 667.52C2073.71 666.666 2075.04 665.6 2075.89 664.32C2076.85 663.04 2077.33 661.386 2077.33 659.36C2077.33 656.373 2076.21 653.813 2073.97 651.68C2071.84 649.546 2067.79 648.48 2061.81 648.48C2054.67 648.48 2049.76 649.653 2047.09 652C2044.43 654.346 2042.88 658.293 2042.45 663.84H2026.45C2026.77 658.613 2028.16 653.92 2030.61 649.76C2033.17 645.493 2037.01 642.133 2042.13 639.68C2047.36 637.12 2054.13 635.84 2062.45 635.84C2068.11 635.84 2073.17 636.746 2077.65 638.56C2082.24 640.266 2085.87 643.146 2088.53 647.2C2091.31 651.253 2092.69 656.853 2092.69 664V701.44C2092.69 704.426 2092.96 706.666 2093.49 708.16C2094.03 709.653 2095.04 710.4 2096.53 710.4C2096.75 710.4 2097.01 710.4 2097.33 710.4C2097.65 710.4 2098.03 710.346 2098.45 710.24V719.84C2097.07 720.16 2095.68 720.373 2094.29 720.48C2093.01 720.693 2091.73 720.8 2090.45 720.8C2086.61 720.8 2083.63 719.946 2081.49 718.24C2079.36 716.426 2078.08 713.173 2077.65 708.48H2077.33C2074.56 712.64 2070.83 716 2066.13 718.56C2061.55 721.013 2055.95 722.24 2049.33 722.24ZM2052.85 709.6C2057.55 709.6 2061.71 708.8 2065.33 707.2C2069.07 705.6 2072 703.2 2074.13 700C2076.27 696.8 2077.33 692.853 2077.33 688.16V676.48C2076.48 677.226 2075.15 677.973 2073.33 678.72C2071.63 679.36 2069.55 680 2067.09 680.64C2064.75 681.173 2062.19 681.76 2059.41 682.4C2054.61 683.36 2050.67 684.533 2047.57 685.92C2044.59 687.2 2042.4 688.8 2041.01 690.72C2039.73 692.533 2039.09 694.88 2039.09 697.76C2039.09 701.6 2040.16 704.533 2042.29 706.56C2044.53 708.586 2048.05 709.6 2052.85 709.6Z" fill="black"></path>
  <path d="M2133.67 719.2L2100.55 638.4H2117.67L2141.51 700.8H2141.83L2164.39 638.4H2180.71L2148.55 721.92C2145.88 728.533 2143.16 733.813 2140.39 737.76C2137.62 741.706 2134.58 744.48 2131.27 746.08C2128.07 747.786 2124.34 748.64 2120.07 748.64C2118.36 748.64 2116.76 748.533 2115.27 748.32C2113.78 748.213 2112.02 747.946 2109.99 747.52V734.72C2111.38 734.826 2112.55 734.933 2113.51 735.04C2114.47 735.146 2115.54 735.2 2116.71 735.2C2118.84 735.2 2120.98 734.72 2123.11 733.76C2125.35 732.906 2127.38 731.306 2129.19 728.96C2131 726.72 2132.5 723.466 2133.67 719.2Z" fill="black"></path>
  <path d="M280 678.37V321.63C280 298.666 298.666 280 321.63 280C339.759 280 355.807 291.75 361.312 309.007L406.568 451.354C412.544 470.154 432.62 480.494 451.354 474.519C462.365 471.027 471.027 462.365 474.519 451.354L519.774 309.007C525.28 291.75 541.328 280 559.457 280H678.37C701.334 280 720 298.666 720 321.63C720 339.759 708.25 355.807 690.993 361.312L548.646 406.568C529.846 412.544 519.506 432.62 525.481 451.354C531.457 470.154 551.534 480.494 570.267 474.519C574.833 473.041 578.996 470.758 582.622 467.603L651.311 408.918C668.769 393.945 695.022 396.026 709.995 413.484C716.911 421.541 720.47 432.016 719.933 442.625L714.024 561.27C713.017 580.943 696.298 596.118 676.624 595.111C669.507 594.775 662.658 592.291 657.018 587.993L580.943 530.92C565.164 519.103 542.805 522.326 530.987 538.038C528.57 541.26 526.757 544.819 525.549 548.646L480.293 690.993C474.787 708.25 458.74 720 440.61 720H321.63C298.666 720 280 701.334 280 678.37Z" fill="black"></path>
</svg>
