<svg id="Layer_1" data-name="Layer 1" xmlns="http://www.w3.org/2000/svg" width="220" height="39" viewBox="0 0 220 39"><defs><style>.cls-1{fill:#00338d;}.cls-2{fill:#00bee2;}.cls-3{fill:#ff7d00;}</style></defs><title>FR nettsted logo_engelsk</title><g id="logo_symbol"><path class="cls-1" d="M29.89,34.32,20.82,18.55a.42.42,0,0,0-.35-.19.39.39,0,0,0-.35.19L11.05,34.33a.41.41,0,0,0-.08.25.41.41,0,0,0,.38.42H29.59a.4.4,0,0,0,.38-.42A.45.45,0,0,0,29.89,34.32Z"/><path class="cls-2" d="M29.59,1H11.35a.41.41,0,0,0-.38.42.44.44,0,0,0,.08.25L20.1,17.43a.43.43,0,0,0,.37.21.39.39,0,0,0,.35-.21h0L29.89,1.68A.45.45,0,0,0,30,1.42.4.4,0,0,0,29.59,1Z"/><path class="cls-3" d="M28.16,6.78h-.07a.28.28,0,0,0-.28.28.28.28,0,0,0,.18.26c4.12,1.42,6.86,3.91,6.86,6.75,0,3.53-4.25,6.53-10.14,7.59a.26.26,0,0,0-.18.38c.49,1,1.09,2.08,1.68,3.11.74,1.29,1.48,2.51,2.2,3.65a.43.43,0,0,0,.36.2l.11,0c6.5-2,11-6.15,11-11C39.86,13,35,8.68,28.16,6.78Z"/><path class="cls-3" d="M12.7,29.11h.07a.28.28,0,0,0,.27-.28.27.27,0,0,0-.18-.26C8.74,27.15,6,24.67,6,21.83c0-3.54,4.25-6.54,10.13-7.59a.27.27,0,0,0,.21-.27.2.2,0,0,0,0-.11c-.49-1-1.09-2.09-1.68-3.11-.74-1.3-1.48-2.51-2.21-3.65a.4.4,0,0,0-.35-.2H12c-6.49,2-11,6.16-11,11C1,22.91,5.81,27.2,12.7,29.11Z"/></g><g id="logo_text"><path class="cls-1" d="M125.07,15.71l.09-1.71,0,0a3.2,3.2,0,0,1-3.06,1.91,2.29,2.29,0,0,1-2.58-2.35c0-2.59,2.16-3.79,5.48-3.79V9.6c0-1.15-.52-1.74-2-1.74a5.7,5.7,0,0,0-2.75.74l-.18-1.69a9.25,9.25,0,0,1,3.24-.61c2.82,0,3.6,1.23,3.6,3.12v5.11c.45.07,1.17.27,1.17.27v.86Zm-.1-4.62c-2.9,0-3.62.84-3.62,2.11a1.16,1.16,0,0,0,1.31,1.14A2.51,2.51,0,0,0,125,11.72Z"/><path class="cls-1" d="M119.33,33.84l.09-1.7,0,0A3.23,3.23,0,0,1,116.34,34a2.3,2.3,0,0,1-2.58-2.36c0-2.59,2.16-3.79,5.48-3.79v-.14c0-1.16-.52-1.75-2-1.75a5.67,5.67,0,0,0-2.75.74L114.34,25a9.25,9.25,0,0,1,3.24-.61c2.82,0,3.6,1.23,3.6,3.12v5.11c.45.07,1.17.27,1.17.27v.87Zm-.1-4.62c-2.9,0-3.62.84-3.62,2.12a1.16,1.16,0,0,0,1.31,1.13,2.51,2.51,0,0,0,2.31-2.62Z"/><path class="cls-1" d="M171,15.89c-2.56,0-4.23-1.43-4.23-4.67,0-2.79,1.8-4.92,4.6-4.92,2.47,0,4.21,1.37,4.21,4.62C175.62,13.76,173.77,15.89,171,15.89Zm.2-7.94c-1.21,0-2.39.93-2.39,3.06s.82,3.2,2.38,3.2c1.28,0,2.37-1,2.37-3.16C173.6,9.07,172.83,8,171.24,8Z"/><path class="cls-1" d="M87.23,34C84.67,34,83,32.6,83,29.35c0-2.78,1.8-4.92,4.61-4.92,2.46,0,4.21,1.38,4.21,4.62C91.82,31.89,90,34,87.23,34Zm.21-8c-1.22,0-2.4.93-2.4,3.07s.83,3.19,2.38,3.19c1.29,0,2.38-1,2.38-3.16C89.8,27.2,89,26.08,87.44,26.08Z"/><path class="cls-1" d="M54.25,34C51.69,34,50,32.6,50,29.35c0-2.78,1.8-4.92,4.6-4.92,2.47,0,4.22,1.37,4.22,4.62C58.84,31.89,57,34,54.25,34Zm.21-8c-1.22,0-2.4.93-2.4,3.07s.82,3.19,2.38,3.19c1.29,0,2.37-1,2.37-3.16C56.81,27.2,56.05,26.08,54.46,26.08Z"/><path class="cls-1" d="M190.27,8.29h0a3.36,3.36,0,0,1,3.19-2c2.1,0,2.76,1.32,2.76,3v6.46h-2V9.77C194.3,8.62,194,8,192.9,8c-1.37,0-2.41,1.47-2.41,3.31v4.45h-2v-8l-1.17-.23v-1s1.94-.15,3.07-.1A12.62,12.62,0,0,1,190.27,8.29Z"/><path class="cls-1" d="M209.08,15.71h-2v-8c-.45-.08-1.13-.23-1.13-.23v-1s1.89-.15,3.09-.1Z"/><path class="cls-1" d="M208,4.49a1.27,1.27,0,0,1-1.26-1.25,1.28,1.28,0,0,1,2.55,0A1.27,1.27,0,0,1,208,4.49Z"/><path class="cls-1" d="M131.62,8.53h.08a3,3,0,0,1,3.19-2.23v2c-1.83-.34-3,.94-3,3.71v3.75h-2v-8l-1.26-.23v-1s2-.15,3.15-.1A15,15,0,0,1,131.62,8.53Z"/><path class="cls-1" d="M76.85,11.49H71c0,2.13.89,2.83,2.73,2.83a6.21,6.21,0,0,0,2.69-.6l.19,1.58a8.43,8.43,0,0,1-3.19.59c-2.88,0-4.46-1.48-4.46-4.73,0-2.78,1.52-4.86,4.21-4.86s3.77,2.07,3.77,4.26C76.9,10.82,76.88,11.13,76.85,11.49ZM73.06,7.77c-1.38,0-1.86.84-2.06,2.32h4.09C75.15,8.36,74.22,7.77,73.06,7.77Z"/><path class="cls-1" d="M117.85,11.49H112c-.06,2.13.89,2.83,2.73,2.83a6.25,6.25,0,0,0,2.69-.6l.18,1.58a8.39,8.39,0,0,1-3.19.59c-2.88,0-4.45-1.48-4.45-4.73,0-2.78,1.52-4.86,4.21-4.86s3.77,2.07,3.77,4.26A8.59,8.59,0,0,1,117.85,11.49Zm-3.78-3.72c-1.39,0-1.87.84-2.06,2.32h4.09C116.15,8.36,115.22,7.77,114.07,7.77Z"/><path class="cls-1" d="M100.56,11.49H94.67c0,2.13.89,2.83,2.73,2.83a6.21,6.21,0,0,0,2.69-.6l.19,1.58a8.43,8.43,0,0,1-3.19.59c-2.88,0-4.46-1.48-4.46-4.73,0-2.78,1.52-4.86,4.21-4.86s3.77,2.07,3.77,4.26C100.61,10.82,100.59,11.13,100.56,11.49ZM96.77,7.77c-1.38,0-1.86.84-2.06,2.32H98.8C98.86,8.36,97.92,7.77,96.77,7.77Z"/><path class="cls-1" d="M54.42,4V15.71H52.35V4h-3V2.29h8.06V4Z"/><path class="cls-1" d="M104.38,15.89a10.69,10.69,0,0,1-1.95-.18l.06-1.69a7.3,7.3,0,0,0,2,.3c1.08,0,1.82-.47,1.82-1.23,0-1.85-4-.74-4-3.93,0-1.6,1.3-2.86,3.81-2.86a10.12,10.12,0,0,1,1.72.17l-.05,1.61a6.42,6.42,0,0,0-1.8-.26c-1.1,0-1.63.45-1.63,1.15,0,1.78,4.08.87,4.08,3.94C108.39,14.63,106.85,15.89,104.38,15.89Z"/><path class="cls-1" d="M142.73,3.12v-1c1,0,2,0,3.22,0V6.34a8.5,8.5,0,0,1-.16,1.85l0,0A3.3,3.3,0,0,1,149,6.3c2.1,0,2.76,1.32,2.76,3v6.46h-2V9.77c0-1.15-.32-1.82-1.38-1.82C147,8,146,9.42,146,11.27v4.44h-2V3.43A11.78,11.78,0,0,1,142.73,3.12Z"/><path class="cls-1" d="M162.94,15.87c-4.2-.06-5.69-3.59-5.64-6.93.06-3.9,2.07-6.8,6.28-6.74a12.59,12.59,0,0,1,2.76.4l-.25,1.85a9.4,9.4,0,0,0-2.7-.47c-2.62,0-3.84,2-3.87,4.66-.05,2.91,1.16,5.38,3.89,5.42a6.69,6.69,0,0,0,2.64-.53l.21,1.8A9.15,9.15,0,0,1,162.94,15.87Z"/><path class="cls-1" d="M183.61,15.71c0-.3.07-1.35.11-1.8l0,0a3.37,3.37,0,0,1-3.2,2c-2.09,0-2.76-1.31-2.76-3V7.74c-.45-.07-1-.18-1.17-.21v-1c.6,0,2.28-.12,3.15-.09v5.93c0,1.15.3,1.82,1.38,1.82,1.37,0,2.41-1.46,2.41-3.3V6.49h2v8c.44.07.85.19,1.17.27v.86C185.67,15.7,184.73,15.68,183.61,15.71Z"/><path class="cls-1" d="M202.29,15.86c-2.37,0-4.1-1.17-4.1-4.46,0-2.93,1.51-5.06,4.68-5.06a7,7,0,0,1,2,.28l-.2,1.7A5.54,5.54,0,0,0,202.81,8c-1.68,0-2.56,1.26-2.56,3.21,0,1.69.63,3,2.47,3a4.53,4.53,0,0,0,2-.44l.17,1.66A7.51,7.51,0,0,1,202.29,15.86Z"/><path class="cls-1" d="M139.44,15.86c-2.37,0-4.1-1.17-4.1-4.46,0-2.93,1.5-5.06,4.68-5.06a7,7,0,0,1,2,.28l-.2,1.7A5.54,5.54,0,0,0,140,8c-1.69,0-2.56,1.26-2.56,3.21,0,1.69.63,3,2.47,3a4.59,4.59,0,0,0,2-.44l.17,1.66A7.51,7.51,0,0,1,139.44,15.86Z"/><path class="cls-1" d="M213.79,15.71h-2V3.44c-.33-.06-1.08-.28-1.24-.32v-1s1.76-.05,3.23,0Z"/><path class="cls-1" d="M66,22a4,4,0,0,0-1.27-.19c-1.18,0-1.72.65-1.72,2.1v.74h2.53v1.54H63v7.68H61V26.16H59.38V24.62H61v-.71c0-2.52,1.21-3.75,3.6-3.75a6.69,6.69,0,0,1,1.5.17Z"/><path class="cls-1" d="M110.48,33.84h-2L106.92,29c-.2-.62-.37-1.25-.54-1.95h-.06c-.18.81-.39,1.54-.63,2.32l-1.39,4.45h-2l-2.66-9.22h2l1.18,4.29c.25.87.42,1.74.6,2.57h.07a24.34,24.34,0,0,1,.65-2.52l1.37-4.34h1.87l1.39,4.27c.35,1.11.54,1.8.72,2.59h.07c.18-.85.32-1.59.6-2.5l1.24-4.36h1.92Z"/><path class="cls-1" d="M127.25,34.73c-1.07,2.88-2,3.77-4.06,3.77a7.57,7.57,0,0,1-1.25-.13l.15-1.74a3.57,3.57,0,0,0,1.21.2c.93,0,1.45-.43,2-2l.37-1-3.45-9.22h2.18l1.51,4.21c.29.82.52,1.63.72,2.41h.06c.19-.74.58-1.94.91-2.87l1.32-3.75h2.13Z"/><path class="cls-1" d="M58.13,3.25v-1c1,0,1.92,0,3.14,0v4a8.49,8.49,0,0,1-.17,1.85l0,0A3.29,3.29,0,0,1,64.27,6.3c2.1,0,2.77,1.32,2.77,3v6.46h-2V9.77c0-1.15-.31-1.82-1.37-1.82-1.39,0-2.41,1.47-2.41,3.32v4.44h-2V3.57C59,3.52,58.34,3.31,58.13,3.25Z"/><path class="cls-1" d="M78.39,33.84l-3.92-7.33c-.55-.91-1.28-2.39-1.67-3.23.08,1.23.11,4.57.11,6.35v4.21H71V20.52h2.52l4.13,7.54c.56.92,1,1.93,1.44,2.83-.08-1.43-.13-3.89-.13-5.73V20.52h2V33.84Z"/><path class="cls-1" d="M90,15.71l-4.25-6h-.49v6h-2V2.29c.91,0,1.77-.07,3.18-.07,2.36,0,4.26.87,4.38,3.35a3.55,3.55,0,0,1-3,4c.35.44.48.61,1,1.28l3.53,4.9ZM86.09,3.87c-.39,0-.58,0-.87,0V8A6.12,6.12,0,0,0,86,8c1.54,0,2.9-.42,2.88-2.26S87.55,3.87,86.09,3.87Z"/><path class="cls-1" d="M95.64,26.66h.08a3,3,0,0,1,3.2-2.23v1.95c-1.84-.33-3,.95-3,3.71v3.75h-2v-8c-.44-.07-1.25-.23-1.25-.23v-.95s2-.15,3.15-.09A15.16,15.16,0,0,1,95.64,26.66Z"/><path class="cls-1" d="M125.07,15.71l.09-1.71,0,0a3.2,3.2,0,0,1-3.06,1.91,2.29,2.29,0,0,1-2.58-2.35c0-2.59,2.16-3.79,5.48-3.79V9.6c0-1.15-.52-1.74-2-1.74a5.7,5.7,0,0,0-2.75.74l-.18-1.69a9.25,9.25,0,0,1,3.24-.61c2.82,0,3.6,1.23,3.6,3.12v5.11c.45.07,1.17.27,1.17.27v.86Zm-.1-4.62c-2.9,0-3.62.84-3.62,2.11a1.16,1.16,0,0,0,1.31,1.14A2.51,2.51,0,0,0,125,11.72Z"/><path class="cls-1" d="M119.33,33.69l.09-1.71,0,0a3.22,3.22,0,0,1-3.06,1.92,2.3,2.3,0,0,1-2.58-2.36c0-2.59,2.16-3.79,5.48-3.79v-.15c0-1.15-.52-1.74-2-1.74a5.67,5.67,0,0,0-2.75.74l-.18-1.69a9.25,9.25,0,0,1,3.24-.61c2.82,0,3.6,1.23,3.6,3.12v5.11c.45.07,1.17.27,1.17.27v.87Zm-.1-4.62c-2.9,0-3.62.84-3.62,2.12a1.16,1.16,0,0,0,1.31,1.13,2.51,2.51,0,0,0,2.31-2.62Z"/><path class="cls-1" d="M171,15.89c-2.56,0-4.23-1.43-4.23-4.67,0-2.79,1.8-4.92,4.6-4.92,2.47,0,4.21,1.37,4.21,4.62C175.62,13.76,173.77,15.89,171,15.89Zm.2-7.94c-1.21,0-2.39.93-2.39,3.06s.82,3.2,2.38,3.2c1.28,0,2.37-1,2.37-3.16C173.6,9.07,172.83,8,171.24,8Z"/><path class="cls-1" d="M87.23,33.88c-2.56,0-4.23-1.43-4.23-4.68,0-2.79,1.8-4.92,4.61-4.92,2.46,0,4.21,1.38,4.21,4.62C91.82,31.74,90,33.88,87.23,33.88Zm.21-8c-1.22,0-2.4.93-2.4,3.06s.83,3.2,2.38,3.2c1.29,0,2.38-1,2.38-3.16C89.8,27.05,89,25.93,87.44,25.93Z"/><path class="cls-1" d="M54.25,33.88c-2.56,0-4.23-1.43-4.23-4.68,0-2.79,1.8-4.92,4.6-4.92,2.47,0,4.22,1.37,4.22,4.62C58.84,31.74,57,33.88,54.25,33.88Zm.21-8c-1.22,0-2.4.93-2.4,3.06s.82,3.2,2.38,3.2c1.29,0,2.37-1,2.37-3.16C56.81,27.05,56.05,25.93,54.46,25.93Z"/><path class="cls-1" d="M190.27,8.29h0a3.36,3.36,0,0,1,3.19-2c2.1,0,2.76,1.32,2.76,3v6.46h-2V9.77C194.3,8.62,194,8,192.9,8c-1.37,0-2.41,1.47-2.41,3.31v4.45h-2v-8l-1.17-.23v-1s1.94-.15,3.07-.1A12.62,12.62,0,0,1,190.27,8.29Z"/><path class="cls-1" d="M209.08,15.71h-2v-8c-.45-.08-1.13-.23-1.13-.23v-1s1.89-.15,3.09-.1Z"/><path class="cls-1" d="M208,4.49a1.27,1.27,0,0,1-1.26-1.25,1.28,1.28,0,0,1,2.55,0A1.27,1.27,0,0,1,208,4.49Z"/><path class="cls-1" d="M131.62,8.53h.08a3,3,0,0,1,3.19-2.23v2c-1.83-.34-3,.94-3,3.71v3.75h-2v-8l-1.26-.23v-1s2-.15,3.15-.1A15,15,0,0,1,131.62,8.53Z"/><path class="cls-1" d="M76.85,11.49H71c0,2.13.89,2.83,2.73,2.83a6.21,6.21,0,0,0,2.69-.6l.19,1.58a8.43,8.43,0,0,1-3.19.59c-2.88,0-4.46-1.48-4.46-4.73,0-2.78,1.52-4.86,4.21-4.86s3.77,2.07,3.77,4.26C76.9,10.82,76.88,11.13,76.85,11.49ZM73.06,7.77c-1.38,0-1.86.84-2.06,2.32h4.09C75.15,8.36,74.22,7.77,73.06,7.77Z"/><path class="cls-1" d="M117.85,11.49H112c-.06,2.13.89,2.83,2.73,2.83a6.25,6.25,0,0,0,2.69-.6l.18,1.58a8.39,8.39,0,0,1-3.19.59c-2.88,0-4.45-1.48-4.45-4.73,0-2.78,1.52-4.86,4.21-4.86s3.77,2.07,3.77,4.26A8.59,8.59,0,0,1,117.85,11.49Zm-3.78-3.72c-1.39,0-1.87.84-2.06,2.32h4.09C116.15,8.36,115.22,7.77,114.07,7.77Z"/><path class="cls-1" d="M100.56,11.49H94.67c0,2.13.89,2.83,2.73,2.83a6.21,6.21,0,0,0,2.69-.6l.19,1.58a8.43,8.43,0,0,1-3.19.59c-2.88,0-4.46-1.48-4.46-4.73,0-2.78,1.52-4.86,4.21-4.86s3.77,2.07,3.77,4.26C100.61,10.82,100.59,11.13,100.56,11.49ZM96.77,7.77c-1.38,0-1.86.84-2.06,2.32H98.8C98.86,8.36,97.92,7.77,96.77,7.77Z"/><path class="cls-1" d="M54.42,4V15.71H52.35V4h-3V2.29h8.06V4Z"/><path class="cls-1" d="M104.38,15.89a10.69,10.69,0,0,1-1.95-.18l.06-1.69a7.3,7.3,0,0,0,2,.3c1.08,0,1.82-.47,1.82-1.23,0-1.85-4-.74-4-3.93,0-1.6,1.3-2.86,3.81-2.86a10.12,10.12,0,0,1,1.72.17l-.05,1.61a6.42,6.42,0,0,0-1.8-.26c-1.1,0-1.63.45-1.63,1.15,0,1.78,4.08.87,4.08,3.94C108.39,14.63,106.85,15.89,104.38,15.89Z"/><path class="cls-1" d="M142.73,3.12v-1c1,0,2,0,3.22,0V6.34a8.5,8.5,0,0,1-.16,1.85l0,0A3.3,3.3,0,0,1,149,6.3c2.1,0,2.76,1.32,2.76,3v6.46h-2V9.77c0-1.15-.32-1.82-1.38-1.82C147,8,146,9.42,146,11.27v4.44h-2V3.43A11.78,11.78,0,0,1,142.73,3.12Z"/><path class="cls-1" d="M162.94,15.87c-4.2-.06-5.69-3.59-5.64-6.93.06-3.9,2.07-6.8,6.28-6.74a12.59,12.59,0,0,1,2.76.4l-.25,1.85a9.4,9.4,0,0,0-2.7-.47c-2.62,0-3.84,2-3.87,4.66-.05,2.91,1.16,5.38,3.89,5.42a6.69,6.69,0,0,0,2.64-.53l.21,1.8A9.15,9.15,0,0,1,162.94,15.87Z"/><path class="cls-1" d="M183.61,15.71c0-.3.07-1.35.11-1.8l0,0a3.37,3.37,0,0,1-3.2,2c-2.09,0-2.76-1.31-2.76-3V7.74c-.45-.07-1-.18-1.17-.21v-1c.6,0,2.28-.12,3.15-.09v5.93c0,1.15.3,1.82,1.38,1.82,1.37,0,2.41-1.46,2.41-3.3V6.49h2v8c.44.07.85.19,1.17.27v.86C185.67,15.7,184.73,15.68,183.61,15.71Z"/><path class="cls-1" d="M202.29,15.86c-2.37,0-4.1-1.17-4.1-4.46,0-2.93,1.51-5.06,4.68-5.06a7,7,0,0,1,2,.28l-.2,1.7A5.54,5.54,0,0,0,202.81,8c-1.68,0-2.56,1.26-2.56,3.21,0,1.69.63,3,2.47,3a4.53,4.53,0,0,0,2-.44l.17,1.66A7.51,7.51,0,0,1,202.29,15.86Z"/><path class="cls-1" d="M139.44,15.86c-2.37,0-4.1-1.17-4.1-4.46,0-2.93,1.5-5.06,4.68-5.06a7,7,0,0,1,2,.28l-.2,1.7A5.54,5.54,0,0,0,140,8c-1.69,0-2.56,1.26-2.56,3.21,0,1.69.63,3,2.47,3a4.59,4.59,0,0,0,2-.44l.17,1.66A7.51,7.51,0,0,1,139.44,15.86Z"/><path class="cls-1" d="M213.79,15.71h-2V3.44c-.33-.06-1.08-.28-1.24-.32v-1s1.76-.05,3.23,0Z"/><path class="cls-1" d="M66,21.81a4.28,4.28,0,0,0-1.27-.18c-1.18,0-1.72.65-1.72,2.09v.75h2.53V26H63v7.68H61V26H59.38V24.47H61v-.71c0-2.52,1.21-3.75,3.6-3.75a6.69,6.69,0,0,1,1.5.17Z"/><path class="cls-1" d="M110.48,33.69h-2l-1.51-4.82c-.2-.62-.37-1.25-.54-1.95h-.06c-.18.81-.39,1.54-.63,2.32l-1.39,4.45h-2l-2.66-9.22h2l1.18,4.28c.25.88.42,1.75.6,2.58h.07a23.7,23.7,0,0,1,.65-2.52l1.37-4.34h1.87l1.39,4.27c.35,1.11.54,1.8.72,2.59h.07c.18-.85.32-1.59.6-2.5l1.24-4.36h1.92Z"/><path class="cls-1" d="M127.25,34.58c-1.07,2.88-2,3.77-4.06,3.77a7.57,7.57,0,0,1-1.25-.13l.15-1.75a3.35,3.35,0,0,0,1.21.21c.93,0,1.45-.43,2-2l.37-1-3.45-9.22h2.18l1.51,4.21c.29.82.52,1.63.72,2.41h.06c.19-.74.58-1.95.91-2.87l1.32-3.75h2.13Z"/><path class="cls-1" d="M58.13,3.25v-1c1,0,1.92,0,3.14,0v4a8.49,8.49,0,0,1-.17,1.85l0,0A3.29,3.29,0,0,1,64.27,6.3c2.1,0,2.77,1.32,2.77,3v6.46h-2V9.77c0-1.15-.31-1.82-1.37-1.82-1.39,0-2.41,1.47-2.41,3.32v4.44h-2V3.57C59,3.52,58.34,3.31,58.13,3.25Z"/><path class="cls-1" d="M78.39,33.69l-3.92-7.33c-.55-.91-1.28-2.39-1.67-3.23.08,1.23.11,4.57.11,6.35v4.21H71V20.36h2.52L77.6,27.9c.56.93,1,1.93,1.44,2.84-.08-1.43-.13-3.89-.13-5.73V20.36h2V33.69Z"/><path class="cls-1" d="M90,15.71l-4.25-6h-.49v6h-2V2.29c.91,0,1.77-.07,3.18-.07,2.36,0,4.26.87,4.38,3.35a3.55,3.55,0,0,1-3,4c.35.44.48.61,1,1.28l3.53,4.9ZM86.09,3.87c-.39,0-.58,0-.87,0V8A6.12,6.12,0,0,0,86,8c1.54,0,2.9-.42,2.88-2.26S87.55,3.87,86.09,3.87Z"/><path class="cls-1" d="M95.64,26.51h.08a3,3,0,0,1,3.2-2.23v1.95c-1.84-.33-3,.95-3,3.71v3.75h-2V25.74c-.44-.07-1.25-.23-1.25-.23v-1s2-.15,3.15-.1A15.15,15.15,0,0,1,95.64,26.51Z"/></g></svg>