<svg width="80" height="36" viewBox="0 0 80 36" fill="none" xmlns="http://www.w3.org/2000/svg">
<path d="M3.18897 10.074V9.97349C3.18897 6.28054 4.34403 3.79344 6.10173 2.21075C7.83432 0.653178 10.1947 0 12.6554 0C13.6096 0 14.9153 0.10049 16.1959 0.276345C17.4514 0.4522 18.6818 0.6783 19.5356 0.954644L18.5312 6.33079C17.8532 6.10469 16.9743 5.87858 16.0453 5.75297C15.1162 5.62736 14.162 5.52688 13.3585 5.52688C11.6008 5.52688 10.5462 5.97907 9.89334 6.75786C9.24048 7.53665 9.03959 8.69226 8.96426 10.074H14.2374V15.6008H8.93916V35.5478H3.18897V15.5757H0V10.0489H3.18897V10.074Z" fill="#2B398D"/>
<path d="M35.8573 19.4448L31.0111 35.5481H24.7085L16.146 10.0742H22.3733L27.8975 26.7051H28.023L33.045 10.0742H38.7199L43.7168 26.7051H43.8674L49.3916 10.0742H55.6189L47.0564 35.5481H40.7538L35.8573 19.4448Z" fill="#2B398D"/>
<path d="M55.0405 22.886C55.0405 19.0926 56.3462 15.7764 58.581 13.3898C60.8158 11.0032 63.9546 9.57129 67.6457 9.57129C71.362 9.57129 74.4505 11.0284 76.61 13.3898C78.7694 15.7513 79.9999 19.0423 79.9999 22.7353C79.9999 26.4785 78.7192 29.8197 76.5095 32.1812C74.2999 34.5678 71.136 35.9998 67.4197 35.9998C63.7035 35.9998 60.6149 34.5427 58.4555 32.2063C56.2709 29.87 55.0405 26.5538 55.0405 22.886ZM60.9163 22.6599C60.9163 24.7953 61.4687 26.7297 62.5735 28.1616C63.6784 29.5936 65.3858 30.498 67.6708 30.498C69.8303 30.498 71.4373 29.6941 72.5171 28.3375C73.5968 26.9809 74.099 25.0968 74.099 22.9111C74.099 20.7506 73.5717 18.7911 72.5171 17.3591C71.4122 15.9272 69.7801 15.073 67.5202 15.073C65.3356 15.073 63.6784 15.8769 62.5735 17.2335C61.4687 18.6152 60.9163 20.5245 60.9163 22.6599Z" fill="#2B398D"/>
</svg>
