<?xml version="1.0" encoding="utf-8"?>
<!-- Generator: Adobe Illustrator 24.1.2, SVG Export Plug-In . SVG Version: 6.00 Build 0)  -->
<svg version="1.1" baseProfile="basic" id="Lager_1"
	 xmlns="http://www.w3.org/2000/svg" xmlns:xlink="http://www.w3.org/1999/xlink" x="0px" y="0px" viewBox="0 0 395.7 183"
	 xml:space="preserve">
<g>
	<path d="M1.3,180.9c-0.5-0.6-1.4-1.7-1.3-3.6c0,0,0-0.1,0-0.4c0-0.8,0.5-2.8,3.4-4.4c3.8-2,12.7-4.7,15.5-5.3
		c2.6-0.6,15.6-3.3,18.2-3.7c2.6-0.4,17.5-2,19.5-2.3c2-0.2,26-2.2,28.1-2.3c2.1-0.1,14.5-0.7,17.9-0.9c0,0,7.4-0.3,14.4-1.9
		c0,0,3-1.1,6.4-1.8c0,0,5.4-1.5,9.1,4.3c0,0,3.8,6.5,1.8,10.1c0,0-0.1,0.2-0.3,0.6c-0.5,1-2.1,3.1-6,5.4c-0.9,0.5-2.2,1.2-3.7,1.2
		c-2.1,0.2-6.6,0.4-11,0c0,0-2.3-0.2-3-0.2c-2.4-0.1-8.9-0.4-14.7-0.7c-7.4-0.3-13.6-0.7-17.2-0.7c-3.6,0.1-10.1-0.1-15.8,0.5
		c-5.7,0.5-19.5,1.6-22.7,1.9c-3.2,0.3-14.3,1.4-17.8,2c-3.7,0.6-9.6,1.9-11,2.3c0,0-5.1,1.3-8.5,0.6C2.3,181.5,1.7,181.3,1.3,180.9
		"/>
	<path d="M79.8,135.4c-2.6,0.1-3.3-3.1-4.8-5.7c-1.6-2.8-7.9-15.2-9.4-17.9C64.2,109,55.5,92.1,54.1,90c-0.9-1.4-6-10.7-9.2-16.2
		c-1.5-2.6-4.3-7-6.5-9.9c-2.7-3.7-6-8.2-7.2-9.8c-2.2-2.8-6.6-8.8-10.2-13.8c0,0-3.4-5.4,1.1-9c0,0,3.1-2,7-2.1
		c0.8,0,1.5,0.1,2.6,0.5c1.3,0.4,3.3,1.4,5,2.6c2.6,2,7.9,6.6,14,15.1C54.2,52.1,60,63.2,62,66.8c2,3.6,7.6,17.2,8.8,19.9
		c1.2,2.7,5.4,14.9,7.2,19.6c1.8,4.7,4.1,11.6,5.6,17.3c1.1,4,1.2,5.5,1.1,7c0,0.6-0.1,1.2-0.4,1.8
		C84.3,132.4,82.9,135.3,79.8,135.4"/>
	<path d="M89.6,74.7c0,0-0.9,0.3-1.8-1.5c-0.2-0.3-0.3-1.2-0.2-1.9c0.4-2.6,2.5-13.1,8.5-28.3c0,0,6.4-15.4,10.8-21.7
		c4.3-6.3,10.5-15.2,14.5-17.6c0,0,5.8-4.4,10.8-3.6c0,0,4.8,0.4,6.8,4.2c0,0,1.5,4.5-0.8,7.6c0,0-2.3,4.4-5.8,6.2
		c0,0-8.4,4.9-11,7.2c-2.1,1.8-3.8,3.9-6,6.3c-0.7,0.9-2.6,3.1-4.3,5.2c-0.7,0.9-2.5,3.3-3,3.8c0,0-4.3,6-8.3,14.3
		c-4,8.3-4.7,9.9-7.2,15.8C92.2,70.8,91.1,74.4,89.6,74.7"/>
	<path d="M98.7,101.8c0,0-2.4-0.5-2.2-2.4c0.2-1.4,0.3-1.9,0.9-3.4c2-5.2,3.9-11.3,7.2-17.4c4.2-7.6,13.4-22.1,23.4-30
		c6-4.8,9.1-6.7,14-7.7c0.8-0.2,1.9-0.7,4.2-0.1c1.7,0.5,4.3,1.7,5.1,4.7c0,0,0.9,5.3-4.8,9.1c0,0-16.7,11.4-19.5,13.8
		c-2.9,2.4-4.5,3.3-9.9,8.6c0,0-7.7,8.7-10.5,13.1c0,0-2.6,4.5-4.9,8.4c-0.4,0.8-1,1.8-1.8,2.7C99.7,101.2,99.4,101.7,98.7,101.8"/>
</g>
<g>
	<path d="M231.8,40.3c-0.1-1-0.3-2-0.6-2.9c-0.3-0.9-0.8-1.7-1.5-2.4c-0.7-0.7-1.5-1.2-2.6-1.6c-1.1-0.4-2.3-0.6-3.9-0.6
		c-2.7,0-4.8,0.6-6.4,1.9c-1.6,1.2-2.4,3-2.4,5.2c0,2,0.5,3.5,1.5,4.4s2.7,1.7,5.1,2.2l6.1,1.1c6.1,1.1,9.2,4.3,9.2,9.5
		c0,1.6-0.3,3.1-0.9,4.5c-0.6,1.3-1.4,2.5-2.6,3.5c-1.1,1-2.5,1.7-4.2,2.3s-3.5,0.8-5.7,0.8c-2.1,0-4-0.3-5.6-0.9
		c-1.6-0.6-3-1.4-4.2-2.4c-1.2-1-2.1-2.2-2.7-3.5c-0.7-1.3-1-2.7-1.1-4.1h3.5c0.1,1,0.4,2,0.9,3c0.4,1,1.1,1.8,1.9,2.6
		c0.8,0.8,1.8,1.4,3.1,1.9c1.2,0.5,2.7,0.7,4.4,0.7c1.8,0,3.3-0.2,4.5-0.6c1.2-0.4,2.3-1,3-1.7c0.8-0.7,1.4-1.6,1.7-2.5s0.5-2,0.5-3
		c0-1.8-0.5-3.2-1.4-4.2c-1-1.1-2.6-1.8-5-2.3l-5.9-1.1c-1.8-0.3-3.3-0.8-4.5-1.3c-1.2-0.6-2.2-1.3-3-2.1c-0.8-0.8-1.3-1.8-1.6-2.8
		c-0.3-1.1-0.5-2.2-0.5-3.5c0-1.5,0.3-2.9,0.9-4.1c0.6-1.2,1.5-2.3,2.5-3.1c1.1-0.9,2.4-1.5,3.9-2s3.2-0.7,5-0.7
		c3.8,0,6.7,0.9,8.7,2.8c2,1.9,3.1,4.4,3.3,7.5H231.8z"/>
	<path d="M239,42h3.4l5.6,18.6c0.1,0.4,0.2,0.7,0.3,1c0.1,0.3,0.2,0.6,0.2,0.8c0.1,0.3,0.2,0.6,0.2,0.8h0.1c0.1-0.2,0.1-0.5,0.2-0.8
		c0.1-0.3,0.1-0.5,0.2-0.9c0.1-0.3,0.2-0.7,0.3-1l5.8-18.6h3.5l5.8,18.6c0.1,0.3,0.2,0.6,0.3,0.9c0.1,0.3,0.2,0.6,0.3,0.9
		c0.1,0.3,0.2,0.6,0.3,0.9h0.1c0-0.3,0.1-0.6,0.2-0.9c0.1-0.3,0.1-0.5,0.2-0.9c0.1-0.3,0.2-0.6,0.3-0.9l5.6-18.6h3.3l-7.9,25.1h-3.6
		l-5.2-16.7c-0.2-0.5-0.3-1-0.5-1.5c-0.1-0.5-0.3-1-0.4-1.4c-0.1-0.5-0.3-1-0.4-1.4h-0.1c-0.2,0.4-0.3,0.9-0.4,1.4
		c-0.1,0.4-0.3,0.9-0.4,1.4c-0.1,0.5-0.3,1-0.5,1.5l-5.2,16.7h-3.6L239,42z"/>
	<path d="M298,60.9c-0.2,1-0.6,1.9-1.2,2.7c-0.6,0.8-1.3,1.6-2.1,2.2c-0.8,0.6-1.8,1.1-2.8,1.5c-1.1,0.4-2.2,0.5-3.5,0.5
		c-1.9,0-3.6-0.3-5-0.9s-2.6-1.5-3.5-2.6c-0.9-1.1-1.6-2.5-2-4.1c-0.4-1.6-0.7-3.4-0.7-5.4c0-1.9,0.2-3.7,0.7-5.3
		c0.5-1.6,1.2-3,2.1-4.2c0.9-1.2,2.1-2.1,3.5-2.8c1.4-0.7,3-1,4.7-1c1.9,0,3.4,0.3,4.7,1c1.3,0.7,2.3,1.6,3.1,2.7
		c0.8,1.1,1.4,2.4,1.7,3.8s0.5,2.9,0.5,4.4v2.1h-17.7c0.1,3.1,0.8,5.5,2,7.2c1.2,1.7,3.2,2.6,5.8,2.6c1.1,0,2-0.2,2.8-0.5
		c0.8-0.3,1.4-0.7,1.9-1.2s0.9-0.9,1.1-1.4c0.3-0.5,0.5-0.9,0.6-1.2H298z M295.1,52.6c0-1-0.1-2-0.3-3c-0.2-1-0.6-1.9-1.1-2.8
		c-0.5-0.8-1.2-1.5-2-2s-1.9-0.8-3.3-0.8c-1.2,0-2.2,0.2-3.1,0.6c-0.9,0.4-1.7,1-2.3,1.8s-1.1,1.7-1.5,2.8c-0.4,1.1-0.6,2.3-0.7,3.5
		h14.3V52.6z"/>
	<path d="M323.6,67.2h-3.2v-4.4h-0.1c-0.3,0.6-0.7,1.3-1.2,1.9c-0.5,0.6-1.1,1.1-1.7,1.6c-0.7,0.5-1.4,0.8-2.2,1.1s-1.8,0.4-2.8,0.4
		c-1.2,0-2.5-0.2-3.8-0.6c-1.3-0.4-2.4-1.1-3.4-2.1s-1.8-2.3-2.4-4s-0.9-3.8-0.9-6.3c0-2.1,0.3-4,0.8-5.7c0.5-1.7,1.2-3.1,2.2-4.2
		c0.9-1.1,2.1-2,3.4-2.6c1.3-0.6,2.8-0.9,4.4-0.9c1.9,0,3.5,0.4,4.8,1.3c1.3,0.9,2.2,2,2.8,3.4h0.1V29.4h3.4V67.2z M320.3,52.7
		c0-1.2-0.2-2.3-0.5-3.3c-0.3-1-0.8-1.9-1.5-2.7c-0.6-0.8-1.4-1.4-2.3-1.9c-0.9-0.5-1.9-0.7-3.1-0.7c-1.3,0-2.5,0.3-3.4,0.8
		c-1,0.5-1.8,1.2-2.4,2.1c-0.6,0.9-1.1,2-1.4,3.3c-0.3,1.3-0.5,2.7-0.5,4.2c0,1.6,0.1,3,0.4,4.3c0.3,1.3,0.7,2.4,1.3,3.3
		c0.6,0.9,1.4,1.6,2.3,2.1c0.9,0.5,2.1,0.8,3.4,0.8c1.3,0,2.4-0.2,3.4-0.7s1.8-1.1,2.4-1.9c0.6-0.8,1.1-1.7,1.4-2.7
		c0.3-1,0.5-2,0.5-3.1V52.7z"/>
	<path d="M330.9,32h3.6v3.8h-3.6V32z M331,42h3.4v25.1H331V42z"/>
	<path d="M355.1,48.1c-0.2-1.2-0.8-2.2-1.8-2.9c-1-0.8-2.3-1.1-4.1-1.1c-1.7,0-3.1,0.4-4.1,1.3s-1.5,1.9-1.5,3.2
		c0,1.2,0.3,2.1,1,2.8c0.7,0.6,1.6,1,2.9,1.2l4.5,0.6c2.4,0.4,4.1,1.1,5.2,2.3c1.1,1.2,1.6,2.7,1.6,4.7c0,1.2-0.2,2.3-0.7,3.2
		c-0.5,1-1.1,1.8-2,2.4c-0.8,0.7-1.9,1.2-3,1.6c-1.2,0.4-2.5,0.6-3.9,0.6c-1.3,0-2.5-0.1-3.6-0.4c-1.1-0.3-2.1-0.7-3-1.3
		c-0.9-0.6-1.6-1.4-2.2-2.4c-0.6-1-0.9-2.2-1.1-3.6h3.3c0.3,1.5,0.9,2.7,1.9,3.6c1,0.9,2.6,1.4,4.7,1.4c2,0,3.5-0.4,4.6-1.3
		c1.1-0.9,1.7-2.1,1.7-3.5c0-0.6-0.1-1.1-0.2-1.5c-0.1-0.4-0.3-0.9-0.6-1.2c-0.3-0.4-0.8-0.7-1.3-0.9c-0.6-0.2-1.3-0.4-2.2-0.6
		l-4.1-0.6c-2.1-0.3-3.7-1-4.9-2s-1.7-2.6-1.7-4.7c0-1.1,0.2-2.1,0.6-3c0.4-0.9,1-1.7,1.8-2.3s1.7-1.2,2.8-1.5
		c1.1-0.4,2.3-0.5,3.6-0.5c2.6,0,4.7,0.6,6.3,1.8c1.6,1.2,2.5,2.8,2.7,4.9H355.1z"/>
	<path d="M380,51.2c0-1-0.1-2-0.2-2.9c-0.1-0.9-0.4-1.7-0.9-2.3c-0.9-1.2-2.3-1.8-4.2-1.8c-1.3,0-2.4,0.2-3.4,0.7
		c-0.9,0.4-1.7,1-2.3,1.8c-0.6,0.7-1.1,1.6-1.3,2.6c-0.3,1-0.4,2-0.4,3.1v14.8h-3.4V29.4h3.4v17.1h0.1c0.6-1.4,1.5-2.6,2.9-3.6
		c1.4-1,3.1-1.5,5.2-1.5c2.7,0,4.7,0.7,6,2.2s1.9,3.6,1.9,6.5v17.1H380V51.2z"/>
	<path d="M224.4,109.1h-10.1v15.6H211V88h13.1c1.3,0,2.6,0.1,3.8,0.4c1.2,0.3,2.3,0.7,3.4,1.2c1.4,0.8,2.6,1.9,3.4,3.3
		c0.8,1.4,1.3,3.2,1.3,5.3c0,1.5-0.2,2.9-0.7,4.1c-0.4,1.2-1,2.2-1.8,3c-0.8,0.8-1.6,1.5-2.6,2c-1,0.5-2,0.9-3,1.2v0.1l8.3,16.1
		h-3.9L224.4,109.1z M224,106.3c1.2,0,2.3-0.2,3.3-0.5c1-0.3,1.9-0.8,2.7-1.4c0.8-0.6,1.4-1.5,1.8-2.5c0.4-1,0.7-2.2,0.7-3.7
		c0-2.5-0.8-4.3-2.3-5.6c-1.5-1.3-3.6-1.9-6.1-1.9h-9.7v15.5H224z"/>
	<path d="M260.6,118.4c-0.2,1-0.6,1.9-1.2,2.7c-0.6,0.8-1.3,1.6-2.1,2.2c-0.8,0.6-1.8,1.1-2.8,1.5c-1.1,0.4-2.2,0.5-3.5,0.5
		c-1.9,0-3.6-0.3-5-0.9s-2.6-1.5-3.5-2.6c-0.9-1.1-1.6-2.5-2-4.1c-0.4-1.6-0.7-3.4-0.7-5.4c0-1.9,0.2-3.7,0.7-5.3
		c0.5-1.6,1.2-3,2.1-4.2c0.9-1.2,2.1-2.1,3.5-2.8c1.4-0.7,3-1,4.7-1c1.9,0,3.4,0.3,4.7,1c1.3,0.7,2.3,1.6,3.1,2.7
		c0.8,1.1,1.4,2.4,1.7,3.8s0.5,2.9,0.5,4.4v2.1h-17.7c0.1,3.1,0.8,5.5,2,7.2c1.2,1.7,3.2,2.6,5.8,2.6c1.1,0,2-0.2,2.8-0.5
		c0.8-0.3,1.4-0.7,1.9-1.2s0.9-0.9,1.1-1.4c0.3-0.5,0.5-0.9,0.6-1.2H260.6z M257.6,110.1c0-1-0.1-2-0.3-3c-0.2-1-0.6-1.9-1.1-2.8
		c-0.5-0.8-1.2-1.5-2-2s-1.9-0.8-3.3-0.8c-1.2,0-2.2,0.2-3.1,0.6c-0.9,0.4-1.7,1-2.3,1.8s-1.1,1.7-1.5,2.8c-0.4,1.1-0.6,2.3-0.7,3.5
		h14.3V110.1z"/>
	<path d="M279.6,105.6c-0.2-1.2-0.8-2.2-1.8-2.9c-1-0.8-2.3-1.1-4.1-1.1c-1.7,0-3.1,0.4-4.1,1.3s-1.5,1.9-1.5,3.2
		c0,1.2,0.3,2.1,1,2.8c0.7,0.6,1.6,1,2.9,1.2l4.5,0.6c2.4,0.4,4.1,1.1,5.2,2.3c1.1,1.2,1.6,2.7,1.6,4.7c0,1.2-0.2,2.3-0.7,3.2
		c-0.5,1-1.1,1.8-2,2.4c-0.8,0.7-1.9,1.2-3,1.6c-1.2,0.4-2.5,0.6-3.9,0.6c-1.3,0-2.5-0.1-3.6-0.4c-1.1-0.3-2.1-0.7-3-1.3
		c-0.9-0.6-1.6-1.4-2.2-2.4c-0.6-1-0.9-2.2-1.1-3.6h3.3c0.3,1.5,0.9,2.7,1.9,3.6c1,0.9,2.6,1.4,4.7,1.4c2,0,3.5-0.4,4.6-1.3
		c1.1-0.9,1.7-2.1,1.7-3.5c0-0.6-0.1-1.1-0.2-1.5c-0.1-0.4-0.3-0.9-0.6-1.2c-0.3-0.4-0.8-0.7-1.3-0.9c-0.6-0.2-1.3-0.4-2.2-0.6
		l-4.1-0.6c-2.1-0.3-3.7-1-4.9-2s-1.7-2.6-1.7-4.7c0-1.1,0.2-2.1,0.6-3c0.4-0.9,1-1.7,1.8-2.3s1.7-1.2,2.8-1.5
		c1.1-0.4,2.3-0.5,3.6-0.5c2.6,0,4.7,0.6,6.3,1.8c1.6,1.2,2.5,2.8,2.7,4.9H279.6z"/>
	<path d="M307.1,118.4c-0.2,1-0.6,1.9-1.2,2.7c-0.6,0.8-1.3,1.6-2.1,2.2c-0.8,0.6-1.8,1.1-2.8,1.5c-1.1,0.4-2.2,0.5-3.5,0.5
		c-1.9,0-3.6-0.3-5-0.9s-2.6-1.5-3.5-2.6c-0.9-1.1-1.6-2.5-2-4.1c-0.4-1.6-0.7-3.4-0.7-5.4c0-1.9,0.2-3.7,0.7-5.3
		c0.5-1.6,1.2-3,2.1-4.2c0.9-1.2,2.1-2.1,3.5-2.8c1.4-0.7,3-1,4.7-1c1.9,0,3.4,0.3,4.7,1c1.3,0.7,2.3,1.6,3.1,2.7
		c0.8,1.1,1.4,2.4,1.7,3.8s0.5,2.9,0.5,4.4v2.1h-17.7c0.1,3.1,0.8,5.5,2,7.2c1.2,1.7,3.2,2.6,5.8,2.6c1.1,0,2-0.2,2.8-0.5
		c0.8-0.3,1.4-0.7,1.9-1.2s0.9-0.9,1.1-1.4c0.3-0.5,0.5-0.9,0.6-1.2H307.1z M304.2,110.1c0-1-0.1-2-0.3-3c-0.2-1-0.6-1.9-1.1-2.8
		c-0.5-0.8-1.2-1.5-2-2s-1.9-0.8-3.3-0.8c-1.2,0-2.2,0.2-3.1,0.6c-0.9,0.4-1.7,1-2.3,1.8s-1.1,1.7-1.5,2.8c-0.4,1.1-0.6,2.3-0.7,3.5
		h14.3V110.1z"/>
	<path d="M312,106.2c0-1,0.2-1.9,0.6-2.8c0.4-0.9,1-1.7,1.8-2.3c0.8-0.7,1.7-1.2,2.9-1.6c1.1-0.4,2.4-0.6,3.8-0.6
		c1.7,0,3.2,0.2,4.3,0.7c1.2,0.5,2.1,1.1,2.8,1.9c0.7,0.8,1.2,1.8,1.4,2.9s0.4,2.4,0.4,3.7v10.9c0,1.2,0.2,2,0.6,2.4
		c0.4,0.5,1,0.7,1.9,0.7v2.6H332c-1.8,0-3.1-0.4-3.8-1.2c-0.7-0.8-1.2-2-1.2-3.7h-0.1c-0.8,1.6-1.9,2.9-3.4,3.8s-3.2,1.3-5.1,1.3
		c-2.4,0-4.2-0.6-5.6-1.8s-2.1-3-2.1-5.2c0-1.4,0.3-2.7,0.9-3.7c0.6-1,1.4-1.8,2.6-2.4c1.2-0.7,2.9-1.2,5-1.5
		c2.1-0.3,4.7-0.5,7.7-0.7v-1.6c0-1-0.1-1.9-0.3-2.7c-0.2-0.8-0.5-1.5-1-2.1c-0.4-0.6-1-1-1.8-1.4c-0.8-0.3-1.7-0.5-2.8-0.5
		c-1.9,0-3.3,0.5-4.3,1.4c-0.9,0.9-1.5,2-1.6,3.4H312z M319.1,122.3c0.9,0,1.8-0.2,2.7-0.5c0.9-0.3,1.7-0.9,2.5-1.6
		c0.8-0.7,1.4-1.7,1.8-2.8c0.5-1.1,0.7-2.4,0.7-4v-1c-3.1,0.2-5.5,0.4-7.2,0.7s-2.9,0.7-3.7,1.2c-1.2,0.8-1.7,2-1.7,3.6
		c0,1.5,0.4,2.6,1.3,3.3C316.3,121.9,317.5,122.3,319.1,122.3z"/>
	<path d="M337.3,99.6h3.1v5.2h0.1c0.3-0.7,0.6-1.4,1.2-2.1c0.5-0.7,1.1-1.3,1.8-1.8c0.7-0.5,1.4-1,2.3-1.3c0.8-0.3,1.7-0.5,2.7-0.5
		h0.4v3.3h-0.7c-1,0-1.9,0.2-2.9,0.5c-0.9,0.3-1.7,0.8-2.4,1.5c-0.7,0.7-1.2,1.6-1.7,2.7c-0.4,1.1-0.6,2.4-0.6,3.8v13.8h-3.4V99.6z"
		/>
	<path d="M368.1,106.6c-0.1-0.6-0.2-1.2-0.6-1.8s-0.7-1.1-1.2-1.6c-0.5-0.5-1.1-0.8-1.9-1.1c-0.8-0.3-1.6-0.4-2.6-0.4
		c-2.4,0-4.3,0.9-5.7,2.8c-1.4,1.8-2,4.4-2,7.6c0,1.6,0.1,3.1,0.4,4.3c0.3,1.3,0.7,2.4,1.3,3.3c0.6,0.9,1.4,1.6,2.3,2.1
		s2.1,0.7,3.5,0.7c1.2,0,2.2-0.2,2.9-0.5s1.4-0.8,1.9-1.3c0.5-0.5,0.9-1.1,1.2-1.8c0.3-0.7,0.4-1.3,0.5-1.9h3.2
		c-0.4,2.8-1.5,4.9-3.3,6.3c-1.8,1.4-4,2.1-6.6,2.1c-1.8,0-3.4-0.3-4.8-0.9c-1.4-0.6-2.5-1.5-3.4-2.6c-0.9-1.1-1.6-2.5-2.1-4.1
		c-0.5-1.6-0.7-3.4-0.7-5.4c0-1.9,0.2-3.7,0.7-5.3c0.5-1.6,1.2-3,2.2-4.2c1-1.2,2.1-2.1,3.5-2.8c1.4-0.7,2.9-1,4.7-1
		c1.2,0,2.3,0.1,3.4,0.4c1.1,0.3,2.1,0.7,2.9,1.3s1.6,1.4,2.2,2.4c0.6,1,1,2.1,1.1,3.5H368.1z"/>
	<path d="M392.4,108.7c0-1-0.1-2-0.2-2.9c-0.1-0.9-0.4-1.7-0.9-2.3c-0.9-1.2-2.3-1.8-4.2-1.8c-1.3,0-2.4,0.2-3.4,0.7
		c-0.9,0.4-1.7,1-2.3,1.8c-0.6,0.7-1.1,1.6-1.3,2.6c-0.3,1-0.4,2-0.4,3.1v14.8h-3.4V86.9h3.4V104h0.1c0.6-1.4,1.5-2.6,2.9-3.6
		c1.4-1,3.1-1.5,5.2-1.5c2.7,0,4.7,0.7,6,2.2s1.9,3.6,1.9,6.5v17.1h-3.3V108.7z"/>
	<path d="M225.1,147.8c-2.1,0-3.9,0.4-5.5,1.2c-1.6,0.8-2.9,1.9-3.9,3.4c-1.1,1.4-1.8,3.2-2.4,5.2c-0.5,2-0.8,4.2-0.8,6.5
		c0,2.5,0.3,4.7,0.8,6.7c0.5,2,1.4,3.7,2.4,5.1c1.1,1.4,2.4,2.5,4,3.3c1.6,0.8,3.4,1.2,5.5,1.2c1.7,0,3.2-0.2,4.5-0.7
		c1.2-0.5,2.3-1.2,3.1-2c0.8-0.8,1.5-1.7,1.9-2.8s0.7-2.1,0.8-3.1h3.4c-0.2,1.6-0.6,3.1-1.3,4.6s-1.7,2.6-2.9,3.6
		c-1.2,1-2.6,1.8-4.3,2.4c-1.7,0.6-3.5,0.9-5.6,0.9c-2.3,0-4.4-0.4-6.4-1.1c-2-0.8-3.7-1.9-5.1-3.5c-1.4-1.6-2.5-3.5-3.4-5.9
		c-0.8-2.4-1.2-5.2-1.2-8.5c0-3,0.4-5.7,1.2-8.1c0.8-2.4,2-4.4,3.4-6c1.4-1.6,3.1-2.9,5.1-3.7c2-0.8,4.1-1.3,6.4-1.3
		c1.6,0,3.1,0.2,4.7,0.6c1.5,0.4,3,1,4.3,1.9c1.3,0.9,2.4,2,3.3,3.5c0.9,1.4,1.4,3.1,1.6,5.2h-3.5c-0.1-1-0.4-2-0.9-3
		c-0.4-1-1.1-1.9-1.9-2.7c-0.8-0.8-1.9-1.4-3.1-1.9C228.3,148,226.8,147.8,225.1,147.8z"/>
	<path d="M253.8,182.9c-1.9,0-3.5-0.3-4.9-1c-1.4-0.7-2.5-1.6-3.4-2.7c-0.9-1.2-1.6-2.6-2-4.2c-0.4-1.6-0.7-3.4-0.7-5.3
		c0-1.9,0.2-3.6,0.7-5.3c0.5-1.6,1.2-3,2.2-4.2c0.9-1.2,2.1-2.1,3.5-2.8s2.9-1,4.7-1c1.9,0,3.5,0.3,4.9,1s2.5,1.6,3.4,2.8
		c0.9,1.2,1.6,2.6,2,4.2c0.4,1.6,0.6,3.4,0.6,5.3c0,1.9-0.2,3.7-0.7,5.3c-0.5,1.6-1.2,3-2.1,4.2c-0.9,1.2-2.1,2.1-3.4,2.7
		C257.1,182.5,255.5,182.9,253.8,182.9z M253.8,159.1c-2.5,0-4.4,1-5.7,2.9c-1.3,1.9-1.9,4.5-1.9,7.7c0,3.2,0.6,5.8,1.8,7.7
		c1.2,1.9,3.2,2.9,5.8,2.9c2.6,0,4.4-0.9,5.7-2.8c1.2-1.9,1.8-4.5,1.8-7.7c0-3.2-0.6-5.8-1.8-7.7C258.3,160,256.4,159.1,253.8,159.1
		z"/>
	<path d="M273.2,173.2c0,1,0.1,2,0.2,2.9c0.1,0.9,0.4,1.6,0.9,2.3c0.9,1.2,2.3,1.8,4.4,1.8c2.4,0,4.2-0.9,5.4-2.6
		c1.2-1.7,1.8-4,1.8-6.8v-13.6h3.3v25.1h-3.1v-4.7H286c-0.3,0.7-0.7,1.4-1.2,2c-0.5,0.6-1.1,1.2-1.8,1.7c-0.7,0.5-1.4,0.9-2.3,1.2
		c-0.8,0.3-1.8,0.4-2.9,0.4c-5.4,0-8.1-2.9-8.1-8.6v-17.2h3.3V173.2z"/>
	<path d="M312.7,166.3c0-1.1-0.1-2-0.2-3c-0.1-0.9-0.4-1.7-0.9-2.3c-0.9-1.2-2.3-1.8-4.2-1.8c-1.3,0-2.4,0.2-3.3,0.7
		c-0.9,0.4-1.7,1-2.3,1.8c-0.6,0.7-1.1,1.6-1.3,2.6c-0.3,1-0.4,2-0.4,3.1v14.8h-3.4v-25.1h3.1v4.5h0.1c0.7-1.4,1.7-2.6,3.1-3.6
		c1.4-1,3.1-1.5,5.3-1.5c2.7,0,4.7,0.7,6,2.2s1.9,3.6,1.9,6.5v17.1h-3.3V166.3z"/>
	<path d="M338.6,164.1c-0.1-0.6-0.2-1.2-0.6-1.8s-0.7-1.1-1.2-1.6c-0.5-0.5-1.1-0.8-1.9-1.1c-0.8-0.3-1.6-0.4-2.6-0.4
		c-2.4,0-4.3,0.9-5.7,2.8c-1.4,1.8-2,4.4-2,7.6c0,1.6,0.1,3.1,0.4,4.3c0.3,1.3,0.7,2.4,1.3,3.3c0.6,0.9,1.4,1.6,2.3,2.1
		s2.1,0.7,3.5,0.7c1.2,0,2.2-0.2,2.9-0.5s1.4-0.8,1.9-1.3c0.5-0.5,0.9-1.1,1.2-1.8c0.3-0.7,0.4-1.3,0.5-1.9h3.2
		c-0.4,2.8-1.5,4.9-3.3,6.3c-1.8,1.4-4,2.1-6.6,2.1c-1.8,0-3.4-0.3-4.8-0.9c-1.4-0.6-2.5-1.5-3.4-2.6c-0.9-1.1-1.6-2.5-2.1-4.1
		c-0.5-1.6-0.7-3.4-0.7-5.4c0-1.9,0.2-3.7,0.7-5.3c0.5-1.6,1.2-3,2.2-4.2c1-1.2,2.1-2.1,3.5-2.8c1.4-0.7,2.9-1,4.7-1
		c1.2,0,2.3,0.1,3.4,0.4c1.1,0.3,2.1,0.7,2.9,1.3s1.6,1.4,2.2,2.4c0.6,1,1,2.1,1.1,3.5H338.6z"/>
	<path d="M346.7,147.1h3.6v3.8h-3.6V147.1z M346.8,157.1h3.4v25.1h-3.4V157.1z"/>
	<path d="M357.6,144.5h3.4v37.8h-3.4V144.5z"/>
</g>
</svg>
