<svg xmlns="http://www.w3.org/2000/svg" id="Layer_1" data-name="Layer 1" viewBox="0 0 2327.86 1200">
  <defs fill="#faf9f9">
    <style>
      .cls-1 {
        fill: #000;
      }

      .cls-2 {
        fill: #000;
      }
    </style>
  </defs>
  <g>
    <path class="cls-2" d="M322.38,801.34l-49.73-49.73c-7.43-7.43-7.43-19.47,0-26.89l131.63-131.63c7.43-7.43,19.47-7.43,26.89,0l49.73,49.73c7.43,7.43,7.43,19.47,0,26.89l-131.63,131.63c-7.43,7.42-19.46,7.42-26.89,0Z" fill="#faf9f9"/>
    <path class="cls-2" d="M494.79,629.78l-7.18,7.37-6.34,6.4-51.13-50.19,6.34-6.4,7.18-7.37c6.64-6.76,17.45-6.86,24.21-.22l26.69,26.2c6.77,6.64,6.87,17.45.23,24.21h0Z" fill="#faf9f9"/>
    <path class="cls-2" d="M697.48,392.6l-16.11-16.1" fill="#faf9f9"/>
    <path class="cls-2" d="M615.54,437.44l-119.74,119.73-24.94,24.94,21.01,21.01,24.94-24.94,119.74-119.73" fill="#faf9f9"/>
    <path class="cls-2" d="M636.52,458.45l27.16,1.9,36.24-65.3-20.99-20.98-65.3,36.23,1.9,27.17" fill="#faf9f9"/>
    <path class="cls-2" d="M379.69,529.67c-29.14,11.83-63.8,5.94-87.44-17.7-22.21-22.21-28.75-54.13-19.63-82.07" fill="#faf9f9"/>
    <path class="cls-2" d="M324.2,378.33c27.91-9.15,59.87-2.58,82.07,19.63,23.61,23.61,29.53,58.25,17.7,87.39" fill="#faf9f9"/>
    <path class="cls-2" d="M544.31,694.29c-11.83,29.14-5.94,63.8,17.7,87.44,22.21,22.21,54.13,28.75,82.07,19.63" fill="#faf9f9"/>
    <path class="cls-2" d="M588.64,650.01c29.14-11.83,63.78-5.92,87.39,17.7,22.21,22.21,28.78,54.16,19.63,82.07" fill="#faf9f9"/>
    <path class="cls-2" d="M430.99,581.61l-121.21-116.28,50.71-48.12,130.23,135.57-9.22,9.18-13.09,12.28-5.98-4.19s0,0,0,0c-.28-.18-4.3-2.23-4.6-2.36-.37-.16-1.95-1.16-5.7-.84-3.11.27-5.74,1.62-8.57,3.98l-12.58,10.78Z" fill="#faf9f9"/>
    <path class="cls-2" d="M491.26,642.31l115.33,120.44,48.33-50.89-134.52-129.34-9.22,9.26-12.34,13.13,4.15,5.95s0,0,0,0c.17.28,2.2,4.28,2.33,4.58.16.37,1.15,1.94.8,5.68-.28,3.1-1.65,5.74-4.03,8.58l-10.84,12.62Z" fill="#faf9f9"/>
  </g>
  <g>
    <path class="cls-1" d="M833.03,672.34c4.03-4.86,7.67-10.23,10.72-22.51l29.55-118.69c3.05-12.28,2.08-17.65.48-22.51h65.49l-13.75,55.26h.51c2.75-4.86,7.54-11.77,18.54-11.77h47.32c27.62,0,34.03,15.35,28.56,37.34l-11.33,45.53c-5.47,22-19.53,37.35-47.15,37.35h-50.9c-6.4,0-8.45-4.1-10.64-12.79l-7.01,12.79h-60.38ZM906.67,639.6c-1.65,6.65.27,9.21,6.15,9.21h24.05c5.88,0,9.08-2.56,10.73-9.21l13.62-54.74c1.65-6.65-.27-9.21-6.15-9.21h-24.04c-5.89,0-9.09,2.56-10.74,9.21l-13.62,54.74Z" fill="#faf9f9"/>
    <path class="cls-1" d="M1045.87,579.74c4.14-16.63,2.28-21.49.23-27.62h67.02l-23.04,92.6c-4.14,16.63-2.28,21.49-.23,27.63h-73.67c5.11-6.14,9.39-11,13.52-27.63l16.17-64.98ZM1123.43,508.63l-7.89,31.72h-59.36l7.9-31.72h59.35Z" fill="#faf9f9"/>
    <path class="cls-1" d="M1278.97,636.02c-6.24,25.07-16.71,36.32-43.83,36.32h-94.14c-27.11,0-31.99-11.26-25.75-36.32l11.84-47.58c6.23-25.07,16.71-36.32,43.83-36.32h94.14c27.11,0,31.98,11.25,25.75,36.32l-11.84,47.58ZM1174.86,639.09c-1.72,6.91-.37,9.72,6.28,9.72h25.07c7.16,0,9.91-2.82,11.63-9.72l13.37-53.72c1.72-6.91.36-9.72-6.8-9.72h-25.06c-6.65,0-9.4,2.82-11.12,9.72l-13.37,53.72Z" fill="#faf9f9"/>
    <path class="cls-1" d="M1308.23,629.37h60.37l-10.69,42.97h-60.38l10.7-42.97Z" fill="#faf9f9"/>
    <path class="cls-1" d="M1437.94,527.56l60.75-1.54-6.49,26.09h48.08l-5.85,23.53h-48.09l-15.79,63.44c-1.92,7.67-1.14,9.72,9.61,9.72h21.23c11.76,0,19.75-3.33,22.89-4.61l-10.84,28.14h-75.72c-19.18,0-33.9-7.68-26.46-37.6l14.71-59.09h-25.83l5.86-23.53h25.83l6.12-24.56Z" fill="#faf9f9"/>
    <path class="cls-1" d="M1700.75,636.02c-6.24,25.07-16.71,36.32-43.83,36.32h-94.14c-27.11,0-31.99-11.26-25.75-36.32l11.84-47.58c6.23-25.07,16.71-36.32,43.83-36.32h94.14c27.11,0,31.98,11.25,25.75,36.32l-11.84,47.58ZM1596.64,639.09c-1.72,6.91-.37,9.72,6.28,9.72h25.07c7.16,0,9.91-2.82,11.63-9.72l13.37-53.72c1.72-6.91.36-9.72-6.8-9.72h-25.06c-6.65,0-9.4,2.82-11.12,9.72l-13.37,53.72Z" fill="#faf9f9"/>
    <path class="cls-1" d="M1880.82,636.02c-6.23,25.07-16.71,36.32-43.83,36.32h-94.14c-27.11,0-31.98-11.26-25.75-36.32l11.84-47.58c6.24-25.07,16.71-36.32,43.83-36.32h94.14c27.11,0,31.99,11.25,25.75,36.32l-11.84,47.58ZM1776.71,639.09c-1.72,6.91-.36,9.72,6.29,9.72h25.06c7.16,0,9.91-2.82,11.64-9.72l13.36-53.72c1.72-6.91.37-9.72-6.79-9.72h-25.07c-6.65,0-9.4,2.82-11.12,9.72l-13.37,53.72Z" fill="#faf9f9"/>
    <path class="cls-1" d="M1928.67,536.26c4.13-16.63,2.28-21.49.22-27.63h67.03l-33.88,136.09c-4.13,16.63-2.28,21.49-.22,27.63h-73.68c5.11-6.14,9.39-11,13.53-27.63l27-108.46Z" fill="#faf9f9"/>
    <path class="cls-1" d="M2118.39,587.93c27.62,0,28.48,14.07,25.61,28.65l-5.98,24.05c-3.82,15.35-17.11,31.72-43.96,31.72h-112.05l2.59-28.91c9.73,5.12,14.65,6.91,35.89,6.91h50.9c6.14,0,8.32-1.54,9.52-6.4l.63-2.56c1.21-4.86-.2-6.4-6.34-6.4h-52.43c-27.63,0-28.48-14.07-25.55-28.9l5.8-23.28c4.58-18.42,22.73-30.69,45.75-30.69h103.85l-2.33,29.93c-3.39-5.89-19.76-7.93-33.84-7.93h-46.81c-5.88,0-8.57,1.54-9.26,4.35l-1.28,5.12c-.7,2.81,1.23,4.35,7.11,4.35h52.18Z" fill="#faf9f9"/>
  </g>
</svg>
