<svg xmlns="http://www.w3.org/2000/svg" viewBox="0 0 900 467"><rect width="900" height="467" style="fill:#fff"/><path d="M292.5,248.62l-16.8-29.78L245.58,210l23.2-3.4-21.7-38.46-21.81-12,21,3.5,45.83,7-68.46-55.3c-3.38-3.28-8.4-1.8-10.16,3l-17.6,67.44,24.47,4.12-27.1,6-15.14,58,45,6.38-50.76,8.13-63.46,31.83s41.71-1.89,55.9-3.87c53.74-7.53,93.22-8.29,147-16.61,9.41-1.46,45.88-25.28,45.88-25.28Z" style="fill:#f15a24"/><path d="M131.83,342.08q0,7.59-4,11.47t-11.64,3.89H109V327.31h8.11q7.18,0,10.93,3.77T131.83,342.08Zm-2.28.09q0-6.48-3.27-9.74t-9.62-3.27h-5.52v26.42h5Q129.55,355.58,129.55,342.17Z" style="fill:#4d4948"/><path d="M159.49,346.8h-12.2l-4.18,10.64h-2.32l12.07-30.26h1.33L166,357.44h-2.36Zm-11.44-1.89h10.74l-4.08-10.86c-.35-.85-.76-2-1.24-3.55a32.7,32.7,0,0,1-1.21,3.59Z" style="fill:#4d4948"/><path d="M184.39,357.44h-2.11V329.29h-9.75v-2h21.62v2h-9.76Z" style="fill:#4d4948"/><path d="M219.36,346.8H207.17L203,357.44h-2.32l12.07-30.26h1.33l11.83,30.26h-2.36Zm-11.43-1.89h10.73l-4.08-10.86c-.35-.85-.76-2-1.23-3.55a32.63,32.63,0,0,1-1.22,3.59Z" style="fill:#4d4948"/><path d="M270.24,349.67a7.22,7.22,0,0,1-2.76,6,11.37,11.37,0,0,1-7.34,2.21,22.93,22.93,0,0,1-8.44-1.22v-2.1a21.29,21.29,0,0,0,8.28,1.38,9.22,9.22,0,0,0,5.86-1.7,5.4,5.4,0,0,0,2.16-4.46,5.15,5.15,0,0,0-.72-2.83,6.41,6.41,0,0,0-2.34-2.05,28,28,0,0,0-4.76-2q-4.59-1.59-6.35-3.43a6.85,6.85,0,0,1-1.76-4.92,6.76,6.76,0,0,1,2.64-5.51,10.47,10.47,0,0,1,6.79-2.13,19.84,19.84,0,0,1,7.94,1.6l-.76,1.82a18.36,18.36,0,0,0-7.14-1.57,8.36,8.36,0,0,0-5.3,1.55,5.06,5.06,0,0,0-2,4.2,4.83,4.83,0,0,0,2.59,4.67,27.09,27.09,0,0,0,4.72,2.05,25.27,25.27,0,0,1,5.27,2.36,7.57,7.57,0,0,1,2.58,2.59A7.13,7.13,0,0,1,270.24,349.67Z" style="fill:#4d4948"/><path d="M290.71,357.44H288.6V329.29h-9.75v-2h21.61v2h-9.75Z" style="fill:#4d4948"/><path d="M327.63,357.44h-16.4V327.31h16.4v1.94H313.32v11.39h13.51v1.94H313.32V355.5h14.31Z" style="fill:#4d4948"/><path d="M364.65,357.44h-1.73l-6.59-23.25c-.54-1.91-.95-3.47-1.23-4.7-.22,1.2-.53,2.57-.93,4.12s-2.61,9.5-6.62,23.83h-1.77l-8.25-30.13h2.19L345,346.72l.58,2.18.48,1.87c.14.58.27,1.15.39,1.69s.22,1.09.32,1.64q.48-2.81,2.09-8.51L354,327.31h2.32l6,21c.7,2.42,1.19,4.37,1.5,5.85.17-1,.4-2,.68-3.15s2.4-9,6.34-23.68h2.11Z" style="fill:#4d4948"/><path d="M399,346.8H386.8l-4.19,10.64h-2.32l12.08-30.26h1.33l11.83,30.26h-2.37Zm-11.44-1.89H398.3l-4.09-10.86c-.34-.85-.75-2-1.23-3.55a32.7,32.7,0,0,1-1.21,3.59Z" style="fill:#4d4948"/><path d="M418.18,344.31v13.13h-2.1V327.31h7.15q5.58,0,8.25,2.07a7.4,7.4,0,0,1,2.67,6.23,8.15,8.15,0,0,1-1.59,5.11,8.83,8.83,0,0,1-4.84,3l8.15,13.73h-2.5l-7.74-13.13Zm0-1.81h5.72a9.15,9.15,0,0,0,5.9-1.7,6.11,6.11,0,0,0,2.09-5q0-3.45-2.05-5c-1.37-1-3.6-1.57-6.7-1.57h-5Z" style="fill:#4d4948"/><path d="M470.16,342.08q0,7.59-4,11.47t-11.64,3.89h-7.19V327.31h8.11q7.18,0,10.93,3.77T470.16,342.08Zm-2.28.09q0-6.48-3.27-9.74T455,329.16h-5.52v26.42h5Q467.89,355.58,467.88,342.17Z" style="fill:#4d4948"/><path d="M499.93,349.67a7.22,7.22,0,0,1-2.76,6,11.37,11.37,0,0,1-7.34,2.21,22.93,22.93,0,0,1-8.44-1.22v-2.1a21.32,21.32,0,0,0,8.28,1.38,9.22,9.22,0,0,0,5.86-1.7,5.41,5.41,0,0,0,2.17-4.46,5.15,5.15,0,0,0-.72-2.83,6.49,6.49,0,0,0-2.34-2.05,28.49,28.49,0,0,0-4.77-2q-4.59-1.59-6.35-3.43a6.85,6.85,0,0,1-1.76-4.92A6.76,6.76,0,0,1,484.4,329a10.47,10.47,0,0,1,6.79-2.13,19.8,19.8,0,0,1,7.94,1.6l-.76,1.82a18.36,18.36,0,0,0-7.14-1.57,8.37,8.37,0,0,0-5.3,1.55,5.06,5.06,0,0,0-2,4.2,4.88,4.88,0,0,0,2.59,4.67,27.09,27.09,0,0,0,4.72,2.05,25.64,25.64,0,0,1,5.28,2.36,7.63,7.63,0,0,1,2.57,2.59A7.13,7.13,0,0,1,499.93,349.67Z" style="fill:#4d4948"/><path d="M534.32,357.44h-2.11V342.62H514.68v14.82h-2.1V327.31h2.1v13.37h17.53V327.31h2.11Z" style="fill:#4d4948"/><path d="M549.13,357.44V327.31h2.09v30.13Z" style="fill:#4d4948"/><path d="M584.1,336a8,8,0,0,1-3,6.7q-3,2.32-8.38,2.33h-4.64v12.45H566V327.31h7.35Q584.09,327.31,584.1,336Zm-16,7.22h4.13q5.07,0,7.33-1.68c1.5-1.12,2.26-2.94,2.26-5.45a6.15,6.15,0,0,0-2.14-5.17c-1.42-1.12-3.63-1.68-6.61-1.68h-5Z" style="fill:#4d4948"/><path d="M638.08,357.44h-1.73l-6.59-23.25c-.55-1.91-1-3.47-1.23-4.7-.22,1.2-.53,2.57-.94,4.12s-2.61,9.5-6.62,23.83h-1.76L611,327.31h2.19l5.26,19.41c.2.78.39,1.51.57,2.18s.34,1.29.49,1.87.27,1.15.39,1.69.22,1.09.31,1.64q.5-2.81,2.1-8.51l5.13-18.28h2.32l6,21q1,3.63,1.49,5.85.27-1.49.69-3.15t6.33-23.68h2.12Z" style="fill:#4d4948"/><path d="M658,357.44V327.31h2.1v30.13Z" style="fill:#4d4948"/><path d="M693.16,357.44H672.31v-1.57l17.57-26.58H673.11v-2h19.58v1.56l-17.61,26.59h18.08Z" style="fill:#4d4948"/><path d="M719.86,346.8h-12.2l-4.19,10.64h-2.32l12.08-30.26h1.33l11.82,30.26H724Zm-11.44-1.89h10.74l-4.09-10.86c-.34-.85-.75-2-1.23-3.55a32.7,32.7,0,0,1-1.21,3.59Z" style="fill:#4d4948"/><path d="M739,344.31v13.13h-2.09V327.31h7.15q5.58,0,8.25,2.07a7.4,7.4,0,0,1,2.67,6.23,8.15,8.15,0,0,1-1.59,5.11,8.86,8.86,0,0,1-4.84,3l8.15,13.73h-2.5l-7.74-13.13Zm0-1.81h5.73a9.12,9.12,0,0,0,5.89-1.7,6.09,6.09,0,0,0,2.1-5c0-2.3-.69-4-2-5s-3.6-1.57-6.7-1.57h-5Z" style="fill:#4d4948"/><path d="M791,342.08q0,7.59-4,11.47t-11.64,3.89h-7.19V327.31h8.11q7.18,0,10.93,3.77T791,342.08Zm-2.28.09q0-6.48-3.27-9.74t-9.62-3.27h-5.52v26.42h5Q788.75,355.58,788.74,342.17Z" style="fill:#4d4948"/><path d="M498.18,201.59q0,32.44-18.39,49.69t-53.13,17.25H389.61V137.16h41.08q32,0,49.77,17T498.18,201.59Zm-28.82.72q0-42.31-37.24-42.32H417.35v85.54h11.91Q469.36,245.53,469.36,202.31Z" style="fill:#4d4948"/><path d="M598.16,232.05q0,17.79-12.75,28t-35.49,10.24q-21,0-37.06-7.91V236.55a152.69,152.69,0,0,0,22.42,8.35,66,66,0,0,0,16.78,2.43q9.13,0,14-3.51T571,233.4a11.54,11.54,0,0,0-2.15-6.87,24,24,0,0,0-6.31-5.8q-4.15-2.79-17-8.9-12-5.66-18-10.87A40.67,40.67,0,0,1,518,188.83a34.67,34.67,0,0,1-3.58-16.17q0-17.43,11.77-27.41t32.54-10a76.94,76.94,0,0,1,19.47,2.42,134.47,134.47,0,0,1,19.37,6.83l-8.95,21.66a129.87,129.87,0,0,0-17.32-6,55.4,55.4,0,0,0-13.47-1.71q-7.87,0-12.08,3.69a12.15,12.15,0,0,0-4.21,9.61,11.92,11.92,0,0,0,1.7,6.42,18.81,18.81,0,0,0,5.42,5.31q3.71,2.55,17.59,9.21,18.35,8.81,25.15,17.65T598.16,232.05Z" style="fill:#4d4948"/><path d="M758.13,268.53h-31.6l-17.72-69q-1-3.68-3.36-15.23t-2.73-15.5q-.54,4.86-2.68,15.59t-3.32,15.32l-17.63,68.83H647.58L614.2,137.16h27.3l16.74,71.71q4.38,19.86,6.35,34.41.54-5.11,2.46-15.85t3.63-16.67l19.06-73.6H716L735,210.76q1.26,4.94,3.14,15.09T741,243.28q.9-7,2.87-17.47t3.58-16.94l16.64-71.71h27.3Z" style="fill:#4d4948"/></svg>